solid OpenSCAD_Model
  facet normal -0.000000 0.000000 -1.000000
    outer loop
      vertex 0.000000 7.800000 0.000000
      vertex 0.381759 10.210333 0.000000
      vertex 0.381759 5.389667 0.000000
    endloop
  endfacet
  facet normal 0.000000 -0.000000 -1.000000
    outer loop
      vertex 0.381759 5.389667 0.000000
      vertex 0.381759 10.210333 0.000000
      vertex 1.489667 12.384725 0.000000
    endloop
  endfacet
  facet normal 0.000000 0.000000 -1.000000
    outer loop
      vertex 0.381759 5.389667 0.000000
      vertex 1.489667 12.384725 0.000000
      vertex 3.215275 14.110333 0.000000
    endloop
  endfacet
  facet normal 0.000000 0.000000 -1.000000
    outer loop
      vertex 0.381759 5.389667 0.000000
      vertex 3.215275 14.110333 0.000000
      vertex 5.389667 15.218241 0.000000
    endloop
  endfacet
  facet normal 0.000000 0.000000 -1.000000
    outer loop
      vertex 0.381759 5.389667 0.000000
      vertex 5.389667 15.218241 0.000000
      vertex 7.800000 15.600000 0.000000
    endloop
  endfacet
  facet normal 0.000000 -0.000000 -1.000000
    outer loop
      vertex 10.050000 11.697114 0.000000
      vertex 7.800000 15.600000 0.000000
      vertex 17.100000 15.600000 0.000000
    endloop
  endfacet
  facet normal -0.000000 0.000000 -1.000000
    outer loop
      vertex 11.473836 10.300000 0.000000
      vertex 17.100000 15.600000 0.000000
      vertex 17.100000 10.300000 0.000000
    endloop
  endfacet
  facet normal -0.000000 0.000000 -1.000000
    outer loop
      vertex 11.247200 10.692544 0.000000
      vertex 17.100000 15.600000 0.000000
      vertex 11.473836 10.300000 0.000000
    endloop
  endfacet
  facet normal -0.000000 -0.000000 -1.000000
    outer loop
      vertex 8.581417 12.231635 0.000000
      vertex 7.800000 15.600000 0.000000
      vertex 10.050000 11.697114 0.000000
    endloop
  endfacet
  facet normal 0.000000 -0.000000 -1.000000
    outer loop
      vertex 3.300000 7.800000 0.000000
      vertex 0.381759 5.389667 0.000000
      vertex 3.571383 9.339091 0.000000
    endloop
  endfacet
  facet normal -0.000000 0.000000 -1.000000
    outer loop
      vertex 7.018583 12.231635 0.000000
      vertex 7.800000 15.600000 0.000000
      vertex 8.581417 12.231635 0.000000
    endloop
  endfacet
  facet normal 0.000000 0.000000 -1.000000
    outer loop
      vertex 5.550000 11.697114 0.000000
      vertex 7.800000 15.600000 0.000000
      vertex 7.018583 12.231635 0.000000
    endloop
  endfacet
  facet normal 0.000000 0.000000 -1.000000
    outer loop
      vertex 4.352800 10.692544 0.000000
      vertex 7.800000 15.600000 0.000000
      vertex 5.550000 11.697114 0.000000
    endloop
  endfacet
  facet normal 0.000000 0.000000 -1.000000
    outer loop
      vertex 0.381759 5.389667 0.000000
      vertex 7.800000 15.600000 0.000000
      vertex 4.352800 10.692544 0.000000
    endloop
  endfacet
  facet normal 0.000000 0.000000 -1.000000
    outer loop
      vertex 0.381759 5.389667 0.000000
      vertex 4.352800 10.692544 0.000000
      vertex 3.571383 9.339091 0.000000
    endloop
  endfacet
  facet normal 0.000000 0.000000 -1.000000
    outer loop
      vertex 3.571383 6.260909 0.000000
      vertex 0.381759 5.389667 0.000000
      vertex 3.300000 7.800000 0.000000
    endloop
  endfacet
  facet normal -0.000000 0.000000 -1.000000
    outer loop
      vertex 0.381759 5.389667 0.000000
      vertex 3.571383 6.260909 0.000000
      vertex 4.352800 4.907456 0.000000
    endloop
  endfacet
  facet normal 0.000000 0.000000 -1.000000
    outer loop
      vertex 4.352800 4.907456 0.000000
      vertex 5.550000 3.902886 0.000000
      vertex 0.381759 5.389667 0.000000
    endloop
  endfacet
  facet normal 0.000000 0.000000 -1.000000
    outer loop
      vertex 5.550000 3.902886 0.000000
      vertex 7.018583 3.368365 0.000000
      vertex 0.381759 5.389667 0.000000
    endloop
  endfacet
  facet normal 0.000000 0.000000 -1.000000
    outer loop
      vertex 7.018583 3.368365 0.000000
      vertex 17.100000 0.000000 0.000000
      vertex 0.381759 5.389667 0.000000
    endloop
  endfacet
  facet normal 0.000000 0.000000 -1.000000
    outer loop
      vertex 17.100000 5.300000 0.000000
      vertex 11.247200 4.907456 0.000000
      vertex 11.473836 5.300000 0.000000
    endloop
  endfacet
  facet normal 0.000000 0.000000 -1.000000
    outer loop
      vertex 10.050000 3.902886 0.000000
      vertex 11.247200 4.907456 0.000000
      vertex 17.100000 5.300000 0.000000
    endloop
  endfacet
  facet normal -0.000000 0.000000 -1.000000
    outer loop
      vertex 10.050000 3.902886 0.000000
      vertex 17.100000 5.300000 0.000000
      vertex 8.581417 3.368365 0.000000
    endloop
  endfacet
  facet normal -0.000000 0.000000 -1.000000
    outer loop
      vertex 8.581417 3.368365 0.000000
      vertex 17.100000 5.300000 0.000000
      vertex 17.100000 0.000000 0.000000
    endloop
  endfacet
  facet normal 0.000000 0.000000 -1.000000
    outer loop
      vertex 8.581417 3.368365 0.000000
      vertex 17.100000 0.000000 0.000000
      vertex 7.018583 3.368365 0.000000
    endloop
  endfacet
  facet normal 0.000000 0.000000 -1.000000
    outer loop
      vertex 0.381759 5.389667 0.000000
      vertex 17.100000 0.000000 0.000000
      vertex 7.800000 0.000000 0.000000
    endloop
  endfacet
  facet normal 0.000000 0.000000 -1.000000
    outer loop
      vertex 0.381759 5.389667 0.000000
      vertex 7.800000 0.000000 0.000000
      vertex 5.389667 0.381759 0.000000
    endloop
  endfacet
  facet normal 0.000000 0.000000 -1.000000
    outer loop
      vertex 0.381759 5.389667 0.000000
      vertex 5.389667 0.381759 0.000000
      vertex 3.215275 1.489667 0.000000
    endloop
  endfacet
  facet normal 0.000000 0.000000 -1.000000
    outer loop
      vertex 0.381759 5.389667 0.000000
      vertex 3.215275 1.489667 0.000000
      vertex 1.489667 3.215275 0.000000
    endloop
  endfacet
  facet normal -0.000000 0.000000 -1.000000
    outer loop
      vertex 10.050000 11.697114 0.000000
      vertex 17.100000 15.600000 0.000000
      vertex 11.247200 10.692544 0.000000
    endloop
  endfacet
  facet normal -0.987688 0.156434 0.000000
    outer loop
      vertex 0.000000 7.800000 0.000000
      vertex 0.000000 7.800000 15.600000
      vertex 0.381759 10.210333 0.000000
    endloop
  endfacet
  facet normal -0.987688 0.156434 0.000000
    outer loop
      vertex 0.381759 10.210333 0.000000
      vertex 0.000000 7.800000 15.600000
      vertex 0.381759 10.210333 15.600000
    endloop
  endfacet
  facet normal -0.987688 -0.156434 -0.000000
    outer loop
      vertex 0.000000 7.800000 0.000000
      vertex 0.381759 5.389667 0.000000
      vertex 0.000000 7.800000 15.600000
    endloop
  endfacet
  facet normal -0.987688 -0.156434 0.000000
    outer loop
      vertex 0.000000 7.800000 15.600000
      vertex 0.381759 5.389667 0.000000
      vertex 0.381759 5.389667 15.600000
    endloop
  endfacet
  facet normal -0.891007 -0.453990 -0.000000
    outer loop
      vertex 0.381759 5.389667 0.000000
      vertex 1.489667 3.215275 0.000000
      vertex 0.381759 5.389667 15.600000
    endloop
  endfacet
  facet normal -0.891007 -0.453990 0.000000
    outer loop
      vertex 0.381759 5.389667 15.600000
      vertex 1.489667 3.215275 0.000000
      vertex 1.489667 3.215275 15.600000
    endloop
  endfacet
  facet normal -0.707107 -0.707107 0.000000
    outer loop
      vertex 1.489667 3.215275 15.600000
      vertex 1.489667 3.215275 0.000000
      vertex 3.215275 1.489667 0.000000
    endloop
  endfacet
  facet normal -0.707107 -0.707107 0.000000
    outer loop
      vertex 3.215275 1.489667 15.600000
      vertex 1.489667 3.215275 15.600000
      vertex 3.215275 1.489667 0.000000
    endloop
  endfacet
  facet normal -0.453990 -0.891007 0.000000
    outer loop
      vertex 3.215275 1.489667 15.600000
      vertex 3.215275 1.489667 0.000000
      vertex 5.389667 0.381759 0.000000
    endloop
  endfacet
  facet normal -0.453990 -0.891007 0.000000
    outer loop
      vertex 5.389667 0.381759 15.600000
      vertex 3.215275 1.489667 15.600000
      vertex 5.389667 0.381759 0.000000
    endloop
  endfacet
  facet normal -0.156434 -0.987688 0.000000
    outer loop
      vertex 5.389667 0.381759 15.600000
      vertex 5.389667 0.381759 0.000000
      vertex 7.800000 0.000000 0.000000
    endloop
  endfacet
  facet normal -0.156434 -0.987688 0.000000
    outer loop
      vertex 7.800000 0.000000 15.600000
      vertex 5.389667 0.381759 15.600000
      vertex 7.800000 0.000000 0.000000
    endloop
  endfacet
  facet normal 0.000000 -0.000000 0.000000
    outer loop
      vertex 13.496668 0.000000 0.000000
      vertex 7.800000 0.000000 0.000000
      vertex 17.100000 0.000000 0.000000
    endloop
  endfacet
  facet normal 0.000000 -1.000000 0.000000
    outer loop
      vertex 8.993336 0.000000 7.800000
      vertex 7.800000 0.000000 0.000000
      vertex 13.496668 0.000000 0.000000
    endloop
  endfacet
  facet normal 0.000000 -1.000000 0.000000
    outer loop
      vertex 7.800000 0.000000 15.600000
      vertex 7.800000 0.000000 0.000000
      vertex 8.993336 0.000000 7.800000
    endloop
  endfacet
  facet normal 0.000000 -1.000000 0.000000
    outer loop
      vertex 12.720246 0.000000 8.890576
      vertex 7.800000 0.000000 15.600000
      vertex 12.547515 0.000000 7.800000
    endloop
  endfacet
  facet normal 0.000000 -1.000000 0.000000
    outer loop
      vertex 13.359424 0.000000 10.145034
      vertex 7.800000 0.000000 15.600000
      vertex 12.720246 0.000000 8.890576
    endloop
  endfacet
  facet normal 0.000000 -1.000000 0.000000
    outer loop
      vertex 14.354966 0.000000 11.140576
      vertex 7.800000 0.000000 15.600000
      vertex 13.359424 0.000000 10.145034
    endloop
  endfacet
  facet normal 0.000000 -1.000000 0.000000
    outer loop
      vertex 15.609424 0.000000 11.779754
      vertex 7.800000 0.000000 15.600000
      vertex 14.354966 0.000000 11.140576
    endloop
  endfacet
  facet normal 0.000000 -1.000000 0.000000
    outer loop
      vertex 17.000000 0.000000 12.000000
      vertex 7.800000 0.000000 15.600000
      vertex 15.609424 0.000000 11.779754
    endloop
  endfacet
  facet normal 0.000000 -1.000000 0.000000
    outer loop
      vertex 17.100000 0.000000 11.984162
      vertex 7.800000 0.000000 15.600000
      vertex 17.000000 0.000000 12.000000
    endloop
  endfacet
  facet normal 0.000000 -1.000000 0.000000
    outer loop
      vertex 17.100000 0.000000 15.600000
      vertex 7.800000 0.000000 15.600000
      vertex 17.100000 0.000000 11.984162
    endloop
  endfacet
  facet normal -0.000000 -1.000000 -0.000000
    outer loop
      vertex 8.993336 0.000000 7.800000
      vertex 12.547515 0.000000 7.800000
      vertex 7.800000 0.000000 15.600000
    endloop
  endfacet
  facet normal 0.000000 1.000000 0.000000
    outer loop
      vertex 13.496668 5.300000 15.600000
      vertex 22.503332 5.300000 15.600000
      vertex 27.000000 5.300000 7.811542
    endloop
  endfacet
  facet normal 0.000000 1.000000 -0.000000
    outer loop
      vertex 13.496668 5.300000 15.600000
      vertex 27.000000 5.300000 7.811542
      vertex 11.473836 5.300000 15.600000
    endloop
  endfacet
  facet normal -0.000000 1.000000 0.000000
    outer loop
      vertex 27.000000 5.300000 7.811542
      vertex 27.000000 5.300000 7.788458
      vertex 11.473836 5.300000 15.600000
    endloop
  endfacet
  facet normal 0.000000 1.000000 0.000000
    outer loop
      vertex 17.000000 5.300000 12.000000
      vertex 11.473836 5.300000 15.600000
      vertex 18.390576 5.300000 11.779754
    endloop
  endfacet
  facet normal 0.000000 1.000000 -0.000000
    outer loop
      vertex 20.640576 5.300000 4.854966
      vertex 22.503332 5.300000 0.000000
      vertex 19.645034 5.300000 3.859424
    endloop
  endfacet
  facet normal -0.000000 1.000000 0.000000
    outer loop
      vertex 12.500000 5.300000 7.500000
      vertex 11.473836 5.300000 0.000000
      vertex 11.473836 5.300000 15.600000
    endloop
  endfacet
  facet normal -0.000000 1.000000 0.000000
    outer loop
      vertex 13.359424 5.300000 4.854966
      vertex 11.473836 5.300000 0.000000
      vertex 12.720246 5.300000 6.109424
    endloop
  endfacet
  facet normal -0.000000 1.000000 0.000000
    outer loop
      vertex 17.100000 5.300000 0.000000
      vertex 11.473836 5.300000 0.000000
      vertex 13.359424 5.300000 4.854966
    endloop
  endfacet
  facet normal -0.000000 1.000000 -0.000000
    outer loop
      vertex 17.000000 5.300000 3.000000
      vertex 17.100000 5.300000 0.000000
      vertex 15.609424 5.300000 3.220246
    endloop
  endfacet
  facet normal 0.000000 1.000000 0.000000
    outer loop
      vertex 17.100000 5.300000 0.000000
      vertex 14.354966 5.300000 3.859424
      vertex 15.609424 5.300000 3.220246
    endloop
  endfacet
  facet normal -0.000000 1.000000 0.000000
    outer loop
      vertex 22.503332 5.300000 0.000000
      vertex 17.100000 5.300000 0.000000
      vertex 17.000000 5.300000 3.000000
    endloop
  endfacet
  facet normal 0.000000 1.000000 0.000000
    outer loop
      vertex 22.503332 5.300000 0.000000
      vertex 17.000000 5.300000 3.000000
      vertex 18.390576 5.300000 3.220246
    endloop
  endfacet
  facet normal 0.000000 1.000000 0.000000
    outer loop
      vertex 22.503332 5.300000 0.000000
      vertex 18.390576 5.300000 3.220246
      vertex 19.645034 5.300000 3.859424
    endloop
  endfacet
  facet normal 0.000000 1.000000 0.000000
    outer loop
      vertex 27.000000 5.300000 7.788458
      vertex 22.503332 5.300000 0.000000
      vertex 20.640576 5.300000 4.854966
    endloop
  endfacet
  facet normal 0.000000 1.000000 0.000000
    outer loop
      vertex 27.000000 5.300000 7.788458
      vertex 20.640576 5.300000 4.854966
      vertex 21.279754 5.300000 6.109424
    endloop
  endfacet
  facet normal 0.000000 1.000000 0.000000
    outer loop
      vertex 27.000000 5.300000 7.788458
      vertex 21.279754 5.300000 6.109424
      vertex 21.500000 5.300000 7.500000
    endloop
  endfacet
  facet normal -0.000000 1.000000 0.000000
    outer loop
      vertex 27.000000 5.300000 7.788458
      vertex 21.500000 5.300000 7.500000
      vertex 21.279754 5.300000 8.890576
    endloop
  endfacet
  facet normal 0.000000 1.000000 0.000000
    outer loop
      vertex 27.000000 5.300000 7.788458
      vertex 21.279754 5.300000 8.890576
      vertex 20.640576 5.300000 10.145034
    endloop
  endfacet
  facet normal 0.000000 1.000000 0.000000
    outer loop
      vertex 27.000000 5.300000 7.788458
      vertex 20.640576 5.300000 10.145034
      vertex 19.645034 5.300000 11.140576
    endloop
  endfacet
  facet normal 0.000000 1.000000 0.000000
    outer loop
      vertex 27.000000 5.300000 7.788458
      vertex 19.645034 5.300000 11.140576
      vertex 11.473836 5.300000 15.600000
    endloop
  endfacet
  facet normal 0.000000 1.000000 0.000000
    outer loop
      vertex 19.645034 5.300000 11.140576
      vertex 18.390576 5.300000 11.779754
      vertex 11.473836 5.300000 15.600000
    endloop
  endfacet
  facet normal 0.000000 1.000000 0.000000
    outer loop
      vertex 15.609424 5.300000 11.779754
      vertex 11.473836 5.300000 15.600000
      vertex 17.000000 5.300000 12.000000
    endloop
  endfacet
  facet normal 0.000000 1.000000 0.000000
    outer loop
      vertex 14.354966 5.300000 11.140576
      vertex 11.473836 5.300000 15.600000
      vertex 15.609424 5.300000 11.779754
    endloop
  endfacet
  facet normal 0.000000 1.000000 0.000000
    outer loop
      vertex 13.359424 5.300000 10.145034
      vertex 11.473836 5.300000 15.600000
      vertex 14.354966 5.300000 11.140576
    endloop
  endfacet
  facet normal 0.000000 1.000000 0.000000
    outer loop
      vertex 12.500000 5.300000 7.500000
      vertex 11.473836 5.300000 15.600000
      vertex 12.720246 5.300000 8.890576
    endloop
  endfacet
  facet normal -0.000000 1.000000 0.000000
    outer loop
      vertex 12.720246 5.300000 6.109424
      vertex 11.473836 5.300000 0.000000
      vertex 12.500000 5.300000 7.500000
    endloop
  endfacet
  facet normal -0.000000 1.000000 -0.000000
    outer loop
      vertex 14.354966 5.300000 3.859424
      vertex 17.100000 5.300000 0.000000
      vertex 13.359424 5.300000 4.854966
    endloop
  endfacet
  facet normal 0.000000 1.000000 0.000000
    outer loop
      vertex 12.720246 5.300000 8.890576
      vertex 11.473836 5.300000 15.600000
      vertex 13.359424 5.300000 10.145034
    endloop
  endfacet
  facet normal -0.866025 0.500000 0.000000
    outer loop
      vertex 11.473836 5.300000 15.600000
      vertex 11.473836 5.300000 0.000000
      vertex 11.247200 4.907456 15.600000
    endloop
  endfacet
  facet normal -0.866025 0.500000 0.000000
    outer loop
      vertex 11.247200 4.907456 15.600000
      vertex 11.473836 5.300000 0.000000
      vertex 11.247200 4.907456 0.000000
    endloop
  endfacet
  facet normal -0.642788 0.766044 0.000000
    outer loop
      vertex 11.247200 4.907456 15.600000
      vertex 11.247200 4.907456 0.000000
      vertex 10.050000 3.902886 15.600000
    endloop
  endfacet
  facet normal -0.642788 0.766044 0.000000
    outer loop
      vertex 10.050000 3.902886 15.600000
      vertex 11.247200 4.907456 0.000000
      vertex 10.050000 3.902886 0.000000
    endloop
  endfacet
  facet normal -0.342020 0.939693 0.000000
    outer loop
      vertex 10.050000 3.902886 15.600000
      vertex 10.050000 3.902886 0.000000
      vertex 8.581417 3.368365 15.600000
    endloop
  endfacet
  facet normal -0.342020 0.939693 0.000000
    outer loop
      vertex 8.581417 3.368365 15.600000
      vertex 10.050000 3.902886 0.000000
      vertex 8.581417 3.368365 0.000000
    endloop
  endfacet
  facet normal 0.000000 1.000000 0.000000
    outer loop
      vertex 8.581417 3.368365 15.600000
      vertex 8.581417 3.368365 0.000000
      vertex 7.018583 3.368365 15.600000
    endloop
  endfacet
  facet normal 0.000000 1.000000 -0.000000
    outer loop
      vertex 7.018583 3.368365 15.600000
      vertex 8.581417 3.368365 0.000000
      vertex 7.018583 3.368365 0.000000
    endloop
  endfacet
  facet normal 0.342020 0.939693 -0.000000
    outer loop
      vertex 7.018583 3.368365 15.600000
      vertex 7.018583 3.368365 0.000000
      vertex 5.550000 3.902886 15.600000
    endloop
  endfacet
  facet normal 0.342020 0.939693 -0.000000
    outer loop
      vertex 5.550000 3.902886 15.600000
      vertex 7.018583 3.368365 0.000000
      vertex 5.550000 3.902886 0.000000
    endloop
  endfacet
  facet normal 0.642788 0.766044 -0.000000
    outer loop
      vertex 5.550000 3.902886 15.600000
      vertex 5.550000 3.902886 0.000000
      vertex 4.352800 4.907456 15.600000
    endloop
  endfacet
  facet normal 0.642788 0.766044 -0.000000
    outer loop
      vertex 4.352800 4.907456 15.600000
      vertex 5.550000 3.902886 0.000000
      vertex 4.352800 4.907456 0.000000
    endloop
  endfacet
  facet normal 0.866025 0.500000 0.000000
    outer loop
      vertex 3.571383 6.260909 15.600000
      vertex 4.352800 4.907456 15.600000
      vertex 4.352800 4.907456 0.000000
    endloop
  endfacet
  facet normal 0.866025 0.500000 0.000000
    outer loop
      vertex 3.571383 6.260909 0.000000
      vertex 3.571383 6.260909 15.600000
      vertex 4.352800 4.907456 0.000000
    endloop
  endfacet
  facet normal 0.984808 0.173648 0.000000
    outer loop
      vertex 3.300000 7.800000 15.600000
      vertex 3.571383 6.260909 15.600000
      vertex 3.571383 6.260909 0.000000
    endloop
  endfacet
  facet normal 0.984808 0.173648 0.000000
    outer loop
      vertex 3.300000 7.800000 0.000000
      vertex 3.300000 7.800000 15.600000
      vertex 3.571383 6.260909 0.000000
    endloop
  endfacet
  facet normal 0.984808 -0.173648 0.000000
    outer loop
      vertex 3.571383 9.339091 0.000000
      vertex 3.571383 9.339091 15.600000
      vertex 3.300000 7.800000 15.600000
    endloop
  endfacet
  facet normal 0.984808 -0.173648 0.000000
    outer loop
      vertex 3.300000 7.800000 0.000000
      vertex 3.571383 9.339091 0.000000
      vertex 3.300000 7.800000 15.600000
    endloop
  endfacet
  facet normal 0.866025 -0.500000 0.000000
    outer loop
      vertex 4.352800 10.692544 0.000000
      vertex 4.352800 10.692544 15.600000
      vertex 3.571383 9.339091 15.600000
    endloop
  endfacet
  facet normal 0.866025 -0.500000 0.000000
    outer loop
      vertex 3.571383 9.339091 0.000000
      vertex 4.352800 10.692544 0.000000
      vertex 3.571383 9.339091 15.600000
    endloop
  endfacet
  facet normal 0.642788 -0.766044 0.000000
    outer loop
      vertex 5.550000 11.697114 0.000000
      vertex 5.550000 11.697114 15.600000
      vertex 4.352800 10.692544 15.600000
    endloop
  endfacet
  facet normal 0.642788 -0.766044 0.000000
    outer loop
      vertex 4.352800 10.692544 0.000000
      vertex 5.550000 11.697114 0.000000
      vertex 4.352800 10.692544 15.600000
    endloop
  endfacet
  facet normal 0.342020 -0.939693 0.000000
    outer loop
      vertex 7.018583 12.231635 0.000000
      vertex 7.018583 12.231635 15.600000
      vertex 5.550000 11.697114 15.600000
    endloop
  endfacet
  facet normal 0.342020 -0.939693 0.000000
    outer loop
      vertex 5.550000 11.697114 0.000000
      vertex 7.018583 12.231635 0.000000
      vertex 5.550000 11.697114 15.600000
    endloop
  endfacet
  facet normal 0.000000 -1.000000 0.000000
    outer loop
      vertex 8.581417 12.231635 0.000000
      vertex 8.581417 12.231635 15.600000
      vertex 7.018583 12.231635 15.600000
    endloop
  endfacet
  facet normal -0.000000 -1.000000 -0.000000
    outer loop
      vertex 7.018583 12.231635 0.000000
      vertex 8.581417 12.231635 0.000000
      vertex 7.018583 12.231635 15.600000
    endloop
  endfacet
  facet normal -0.342020 -0.939693 -0.000000
    outer loop
      vertex 10.050000 11.697114 0.000000
      vertex 10.050000 11.697114 15.600000
      vertex 8.581417 12.231635 15.600000
    endloop
  endfacet
  facet normal -0.342020 -0.939693 -0.000000
    outer loop
      vertex 8.581417 12.231635 0.000000
      vertex 10.050000 11.697114 0.000000
      vertex 8.581417 12.231635 15.600000
    endloop
  endfacet
  facet normal -0.642788 -0.766044 -0.000000
    outer loop
      vertex 11.247200 10.692544 0.000000
      vertex 11.247200 10.692544 15.600000
      vertex 10.050000 11.697114 15.600000
    endloop
  endfacet
  facet normal -0.642788 -0.766044 -0.000000
    outer loop
      vertex 10.050000 11.697114 0.000000
      vertex 11.247200 10.692544 0.000000
      vertex 10.050000 11.697114 15.600000
    endloop
  endfacet
  facet normal -0.866025 -0.500000 0.000000
    outer loop
      vertex 11.473836 10.300000 15.600000
      vertex 11.247200 10.692544 15.600000
      vertex 11.473836 10.300000 0.000000
    endloop
  endfacet
  facet normal -0.866025 -0.500000 0.000000
    outer loop
      vertex 11.473836 10.300000 0.000000
      vertex 11.247200 10.692544 15.600000
      vertex 11.247200 10.692544 0.000000
    endloop
  endfacet
  facet normal 0.000000 -1.000000 0.000000
    outer loop
      vertex 27.000000 10.300000 7.788458
      vertex 17.100000 10.300000 0.000000
      vertex 22.503332 10.300000 0.000000
    endloop
  endfacet
  facet normal 0.000000 -1.000000 0.000000
    outer loop
      vertex 27.000000 10.300000 7.811542
      vertex 17.100000 10.300000 0.000000
      vertex 27.000000 10.300000 7.788458
    endloop
  endfacet
  facet normal -0.000000 -1.000000 0.000000
    outer loop
      vertex 19.645034 10.300000 11.140576
      vertex 20.640576 10.300000 10.145034
      vertex 22.503332 10.300000 15.600000
    endloop
  endfacet
  facet normal -0.000000 -1.000000 0.000000
    outer loop
      vertex 20.640576 10.300000 4.854966
      vertex 17.100000 10.300000 0.000000
      vertex 27.000000 10.300000 7.811542
    endloop
  endfacet
  facet normal 0.000000 -1.000000 0.000000
    outer loop
      vertex 20.640576 10.300000 4.854966
      vertex 19.645034 10.300000 3.859424
      vertex 17.100000 10.300000 0.000000
    endloop
  endfacet
  facet normal 0.000000 -1.000000 0.000000
    outer loop
      vertex 19.645034 10.300000 3.859424
      vertex 18.390576 10.300000 3.220246
      vertex 17.100000 10.300000 0.000000
    endloop
  endfacet
  facet normal 0.000000 -1.000000 0.000000
    outer loop
      vertex 15.609424 10.300000 3.220246
      vertex 14.354966 10.300000 3.859424
      vertex 17.100000 10.300000 0.000000
    endloop
  endfacet
  facet normal 0.000000 -1.000000 -0.000000
    outer loop
      vertex 11.473836 10.300000 0.000000
      vertex 12.500000 10.300000 7.500000
      vertex 11.473836 10.300000 15.600000
    endloop
  endfacet
  facet normal 0.000000 -1.000000 -0.000000
    outer loop
      vertex 12.500000 10.300000 7.500000
      vertex 12.720246 10.300000 8.890576
      vertex 11.473836 10.300000 15.600000
    endloop
  endfacet
  facet normal 0.000000 -1.000000 -0.000000
    outer loop
      vertex 12.720246 10.300000 8.890576
      vertex 13.359424 10.300000 10.145034
      vertex 11.473836 10.300000 15.600000
    endloop
  endfacet
  facet normal 0.000000 -1.000000 0.000000
    outer loop
      vertex 11.473836 10.300000 15.600000
      vertex 14.354966 10.300000 11.140576
      vertex 13.496668 10.300000 15.600000
    endloop
  endfacet
  facet normal 0.000000 -1.000000 0.000000
    outer loop
      vertex 13.496668 10.300000 15.600000
      vertex 15.609424 10.300000 11.779754
      vertex 22.503332 10.300000 15.600000
    endloop
  endfacet
  facet normal 0.000000 -1.000000 0.000000
    outer loop
      vertex 15.609424 10.300000 11.779754
      vertex 17.000000 10.300000 12.000000
      vertex 22.503332 10.300000 15.600000
    endloop
  endfacet
  facet normal -0.000000 -1.000000 0.000000
    outer loop
      vertex 17.000000 10.300000 12.000000
      vertex 18.390576 10.300000 11.779754
      vertex 22.503332 10.300000 15.600000
    endloop
  endfacet
  facet normal -0.000000 -1.000000 0.000000
    outer loop
      vertex 18.390576 10.300000 11.779754
      vertex 19.645034 10.300000 11.140576
      vertex 22.503332 10.300000 15.600000
    endloop
  endfacet
  facet normal 0.000000 -1.000000 0.000000
    outer loop
      vertex 22.503332 10.300000 15.600000
      vertex 20.640576 10.300000 10.145034
      vertex 27.000000 10.300000 7.811542
    endloop
  endfacet
  facet normal 0.000000 -1.000000 0.000000
    outer loop
      vertex 20.640576 10.300000 10.145034
      vertex 21.279754 10.300000 8.890576
      vertex 27.000000 10.300000 7.811542
    endloop
  endfacet
  facet normal 0.000000 -1.000000 0.000000
    outer loop
      vertex 21.279754 10.300000 8.890576
      vertex 21.500000 10.300000 7.500000
      vertex 27.000000 10.300000 7.811542
    endloop
  endfacet
  facet normal -0.000000 -1.000000 0.000000
    outer loop
      vertex 21.500000 10.300000 7.500000
      vertex 21.279754 10.300000 6.109424
      vertex 27.000000 10.300000 7.811542
    endloop
  endfacet
  facet normal -0.000000 -1.000000 0.000000
    outer loop
      vertex 21.279754 10.300000 6.109424
      vertex 20.640576 10.300000 4.854966
      vertex 27.000000 10.300000 7.811542
    endloop
  endfacet
  facet normal 0.000000 -1.000000 0.000000
    outer loop
      vertex 17.000000 10.300000 3.000000
      vertex 15.609424 10.300000 3.220246
      vertex 17.100000 10.300000 0.000000
    endloop
  endfacet
  facet normal -0.000000 -1.000000 0.000000
    outer loop
      vertex 11.473836 10.300000 0.000000
      vertex 17.100000 10.300000 0.000000
      vertex 14.354966 10.300000 3.859424
    endloop
  endfacet
  facet normal 0.000000 -1.000000 0.000000
    outer loop
      vertex 11.473836 10.300000 0.000000
      vertex 14.354966 10.300000 3.859424
      vertex 13.359424 10.300000 4.854966
    endloop
  endfacet
  facet normal 0.000000 -1.000000 0.000000
    outer loop
      vertex 11.473836 10.300000 0.000000
      vertex 12.720246 10.300000 6.109424
      vertex 12.500000 10.300000 7.500000
    endloop
  endfacet
  facet normal 0.000000 -1.000000 0.000000
    outer loop
      vertex 11.473836 10.300000 0.000000
      vertex 13.359424 10.300000 4.854966
      vertex 12.720246 10.300000 6.109424
    endloop
  endfacet
  facet normal 0.000000 -1.000000 -0.000000
    outer loop
      vertex 13.359424 10.300000 10.145034
      vertex 14.354966 10.300000 11.140576
      vertex 11.473836 10.300000 15.600000
    endloop
  endfacet
  facet normal 0.000000 -1.000000 -0.000000
    outer loop
      vertex 14.354966 10.300000 11.140576
      vertex 15.609424 10.300000 11.779754
      vertex 13.496668 10.300000 15.600000
    endloop
  endfacet
  facet normal 0.000000 -1.000000 0.000000
    outer loop
      vertex 18.390576 10.300000 3.220246
      vertex 17.000000 10.300000 3.000000
      vertex 17.100000 10.300000 0.000000
    endloop
  endfacet
  facet normal -0.000000 -0.000000 -1.000000
    outer loop
      vertex 17.100000 10.300000 0.000000
      vertex 17.100000 15.600000 0.000000
      vertex 22.503332 10.300000 0.000000
    endloop
  endfacet
  facet normal 0.000000 -0.000000 -1.000000
    outer loop
      vertex 22.503332 10.300000 0.000000
      vertex 17.100000 15.600000 0.000000
      vertex 22.503332 15.600000 0.000000
    endloop
  endfacet
  facet normal 0.000000 1.000000 0.000000
    outer loop
      vertex 8.993336 15.600000 7.800000
      vertex 13.496668 15.600000 15.600000
      vertex 12.547515 15.600000 7.800000
    endloop
  endfacet
  facet normal 0.000000 1.000000 0.000000
    outer loop
      vertex 17.000000 15.600000 12.000000
      vertex 13.496668 15.600000 15.600000
      vertex 22.503332 15.600000 15.600000
    endloop
  endfacet
  facet normal 0.000000 1.000000 0.000000
    outer loop
      vertex 21.279754 15.600000 8.890576
      vertex 22.503332 15.600000 15.600000
      vertex 27.006664 15.600000 7.800000
    endloop
  endfacet
  facet normal -0.000000 1.000000 -0.000000
    outer loop
      vertex 19.645034 15.600000 3.859424
      vertex 27.006664 15.600000 7.800000
      vertex 22.503332 15.600000 0.000000
    endloop
  endfacet
  facet normal 0.000000 1.000000 -0.000000
    outer loop
      vertex 19.645034 15.600000 3.859424
      vertex 22.503332 15.600000 0.000000
      vertex 18.390576 15.600000 3.220246
    endloop
  endfacet
  facet normal -0.000000 1.000000 0.000000
    outer loop
      vertex 22.503332 15.600000 0.000000
      vertex 17.100000 15.600000 0.000000
      vertex 17.100000 15.600000 3.015838
    endloop
  endfacet
  facet normal -0.000000 1.000000 0.000000
    outer loop
      vertex 20.640576 15.600000 4.854966
      vertex 27.006664 15.600000 7.800000
      vertex 19.645034 15.600000 3.859424
    endloop
  endfacet
  facet normal -0.000000 1.000000 -0.000000
    outer loop
      vertex 21.279754 15.600000 8.890576
      vertex 27.006664 15.600000 7.800000
      vertex 21.500000 15.600000 7.500000
    endloop
  endfacet
  facet normal -0.000000 1.000000 0.000000
    outer loop
      vertex 21.279754 15.600000 6.109424
      vertex 27.006664 15.600000 7.800000
      vertex 20.640576 15.600000 4.854966
    endloop
  endfacet
  facet normal -0.000000 1.000000 0.000000
    outer loop
      vertex 21.500000 15.600000 7.500000
      vertex 27.006664 15.600000 7.800000
      vertex 21.279754 15.600000 6.109424
    endloop
  endfacet
  facet normal 0.000000 1.000000 0.000000
    outer loop
      vertex 20.640576 15.600000 10.145034
      vertex 22.503332 15.600000 15.600000
      vertex 21.279754 15.600000 8.890576
    endloop
  endfacet
  facet normal 0.000000 1.000000 0.000000
    outer loop
      vertex 17.000000 15.600000 12.000000
      vertex 22.503332 15.600000 15.600000
      vertex 18.390576 15.600000 11.779754
    endloop
  endfacet
  facet normal 0.000000 1.000000 0.000000
    outer loop
      vertex 19.645034 15.600000 11.140576
      vertex 22.503332 15.600000 15.600000
      vertex 20.640576 15.600000 10.145034
    endloop
  endfacet
  facet normal 0.000000 1.000000 0.000000
    outer loop
      vertex 18.390576 15.600000 11.779754
      vertex 22.503332 15.600000 15.600000
      vertex 19.645034 15.600000 11.140576
    endloop
  endfacet
  facet normal 0.000000 1.000000 0.000000
    outer loop
      vertex 15.609424 15.600000 11.779754
      vertex 13.496668 15.600000 15.600000
      vertex 17.000000 15.600000 12.000000
    endloop
  endfacet
  facet normal 0.000000 1.000000 0.000000
    outer loop
      vertex 14.354966 15.600000 11.140576
      vertex 13.496668 15.600000 15.600000
      vertex 15.609424 15.600000 11.779754
    endloop
  endfacet
  facet normal 0.000000 1.000000 0.000000
    outer loop
      vertex 13.359424 15.600000 10.145034
      vertex 13.496668 15.600000 15.600000
      vertex 14.354966 15.600000 11.140576
    endloop
  endfacet
  facet normal 0.000000 1.000000 0.000000
    outer loop
      vertex 12.720246 15.600000 8.890576
      vertex 13.496668 15.600000 15.600000
      vertex 13.359424 15.600000 10.145034
    endloop
  endfacet
  facet normal 0.000000 1.000000 0.000000
    outer loop
      vertex 12.547515 15.600000 7.800000
      vertex 13.496668 15.600000 15.600000
      vertex 12.720246 15.600000 8.890576
    endloop
  endfacet
  facet normal 0.000000 1.000000 -0.000000
    outer loop
      vertex 18.390576 15.600000 3.220246
      vertex 22.503332 15.600000 0.000000
      vertex 17.100000 15.600000 3.015838
    endloop
  endfacet
  facet normal 0.000000 1.000000 0.000000
    outer loop
      vertex 7.800000 15.600000 0.000000
      vertex 7.800000 15.600000 15.600000
      vertex 8.993336 15.600000 7.800000
    endloop
  endfacet
  facet normal 0.000000 1.000000 0.000000
    outer loop
      vertex 7.800000 15.600000 0.000000
      vertex 8.993336 15.600000 7.800000
      vertex 17.100000 15.600000 0.000000
    endloop
  endfacet
  facet normal 0.000000 1.000000 0.000000
    outer loop
      vertex 12.547515 15.600000 7.800000
      vertex 12.500000 15.600000 7.500000
      vertex 8.993336 15.600000 7.800000
    endloop
  endfacet
  facet normal 0.000000 1.000000 0.000000
    outer loop
      vertex 8.993336 15.600000 7.800000
      vertex 12.500000 15.600000 7.500000
      vertex 12.720246 15.600000 6.109424
    endloop
  endfacet
  facet normal 0.000000 1.000000 0.000000
    outer loop
      vertex 8.993336 15.600000 7.800000
      vertex 12.720246 15.600000 6.109424
      vertex 13.359424 15.600000 4.854966
    endloop
  endfacet
  facet normal 0.000000 1.000000 0.000000
    outer loop
      vertex 8.993336 15.600000 7.800000
      vertex 13.359424 15.600000 4.854966
      vertex 17.100000 15.600000 0.000000
    endloop
  endfacet
  facet normal -0.000000 1.000000 -0.000000
    outer loop
      vertex 15.609424 15.600000 3.220246
      vertex 17.100000 15.600000 0.000000
      vertex 14.354966 15.600000 3.859424
    endloop
  endfacet
  facet normal -0.000000 1.000000 -0.000000
    outer loop
      vertex 17.000000 15.600000 3.000000
      vertex 17.100000 15.600000 0.000000
      vertex 15.609424 15.600000 3.220246
    endloop
  endfacet
  facet normal 0.000000 1.000000 0.000000
    outer loop
      vertex 17.100000 15.600000 0.000000
      vertex 17.000000 15.600000 3.000000
      vertex 17.100000 15.600000 3.015838
    endloop
  endfacet
  facet normal 0.000000 1.000000 0.000000
    outer loop
      vertex 8.993336 15.600000 7.800000
      vertex 7.800000 15.600000 15.600000
      vertex 13.496668 15.600000 15.600000
    endloop
  endfacet
  facet normal -0.000000 1.000000 -0.000000
    outer loop
      vertex 14.354966 15.600000 3.859424
      vertex 17.100000 15.600000 0.000000
      vertex 13.359424 15.600000 4.854966
    endloop
  endfacet
  facet normal -0.156434 0.987688 0.000000
    outer loop
      vertex 5.389667 15.218241 0.000000
      vertex 5.389667 15.218241 15.600000
      vertex 7.800000 15.600000 0.000000
    endloop
  endfacet
  facet normal -0.156434 0.987688 0.000000
    outer loop
      vertex 7.800000 15.600000 0.000000
      vertex 5.389667 15.218241 15.600000
      vertex 7.800000 15.600000 15.600000
    endloop
  endfacet
  facet normal -0.453990 0.891007 0.000000
    outer loop
      vertex 3.215275 14.110333 0.000000
      vertex 3.215275 14.110333 15.600000
      vertex 5.389667 15.218241 0.000000
    endloop
  endfacet
  facet normal -0.453990 0.891007 0.000000
    outer loop
      vertex 5.389667 15.218241 0.000000
      vertex 3.215275 14.110333 15.600000
      vertex 5.389667 15.218241 15.600000
    endloop
  endfacet
  facet normal -0.707107 0.707107 0.000000
    outer loop
      vertex 1.489667 12.384725 0.000000
      vertex 1.489667 12.384725 15.600000
      vertex 3.215275 14.110333 0.000000
    endloop
  endfacet
  facet normal -0.707107 0.707107 0.000000
    outer loop
      vertex 3.215275 14.110333 0.000000
      vertex 1.489667 12.384725 15.600000
      vertex 3.215275 14.110333 15.600000
    endloop
  endfacet
  facet normal -0.891007 0.453990 0.000000
    outer loop
      vertex 0.381759 10.210333 0.000000
      vertex 0.381759 10.210333 15.600000
      vertex 1.489667 12.384725 0.000000
    endloop
  endfacet
  facet normal -0.891007 0.453990 0.000000
    outer loop
      vertex 1.489667 12.384725 0.000000
      vertex 0.381759 10.210333 15.600000
      vertex 1.489667 12.384725 15.600000
    endloop
  endfacet
  facet normal 0.000000 0.000000 1.000000
    outer loop
      vertex 0.381759 10.210333 15.600000
      vertex 0.000000 7.800000 15.600000
      vertex 0.381759 5.389667 15.600000
    endloop
  endfacet
  facet normal 0.000000 0.000000 1.000000
    outer loop
      vertex 3.215275 1.489667 15.600000
      vertex 0.381759 10.210333 15.600000
      vertex 1.489667 3.215275 15.600000
    endloop
  endfacet
  facet normal 0.000000 0.000000 1.000000
    outer loop
      vertex 1.489667 3.215275 15.600000
      vertex 0.381759 10.210333 15.600000
      vertex 0.381759 5.389667 15.600000
    endloop
  endfacet
  facet normal 0.000000 0.000000 1.000000
    outer loop
      vertex 5.389667 0.381759 15.600000
      vertex 0.381759 10.210333 15.600000
      vertex 3.215275 1.489667 15.600000
    endloop
  endfacet
  facet normal 0.000000 0.000000 1.000000
    outer loop
      vertex 7.800000 0.000000 15.600000
      vertex 0.381759 10.210333 15.600000
      vertex 5.389667 0.381759 15.600000
    endloop
  endfacet
  facet normal -0.000000 -0.000000 1.000000
    outer loop
      vertex 4.352800 4.907456 15.600000
      vertex 0.381759 10.210333 15.600000
      vertex 7.800000 0.000000 15.600000
    endloop
  endfacet
  facet normal 0.000000 0.000000 1.000000
    outer loop
      vertex 13.496668 0.000000 15.600000
      vertex 11.247200 4.907456 15.600000
      vertex 10.050000 3.902886 15.600000
    endloop
  endfacet
  facet normal 0.000000 -0.000000 1.000000
    outer loop
      vertex 10.050000 3.902886 15.600000
      vertex 8.581417 3.368365 15.600000
      vertex 13.496668 0.000000 15.600000
    endloop
  endfacet
  facet normal -0.000000 0.000000 0.000000
    outer loop
      vertex 17.100000 0.000000 15.600000
      vertex 13.496668 0.000000 15.600000
      vertex 7.800000 0.000000 15.600000
    endloop
  endfacet
  facet normal -0.000000 0.000000 1.000000
    outer loop
      vertex 13.496668 0.000000 15.600000
      vertex 8.581417 3.368365 15.600000
      vertex 7.800000 0.000000 15.600000
    endloop
  endfacet
  facet normal 0.000000 0.000000 1.000000
    outer loop
      vertex 8.581417 3.368365 15.600000
      vertex 7.018583 3.368365 15.600000
      vertex 7.800000 0.000000 15.600000
    endloop
  endfacet
  facet normal -0.000000 -0.000000 1.000000
    outer loop
      vertex 7.018583 3.368365 15.600000
      vertex 5.550000 3.902886 15.600000
      vertex 7.800000 0.000000 15.600000
    endloop
  endfacet
  facet normal -0.000000 -0.000000 1.000000
    outer loop
      vertex 5.550000 3.902886 15.600000
      vertex 4.352800 4.907456 15.600000
      vertex 7.800000 0.000000 15.600000
    endloop
  endfacet
  facet normal -0.000000 -0.000000 1.000000
    outer loop
      vertex 3.571383 6.260909 15.600000
      vertex 0.381759 10.210333 15.600000
      vertex 4.352800 4.907456 15.600000
    endloop
  endfacet
  facet normal 0.000000 0.000000 1.000000
    outer loop
      vertex 4.352800 10.692544 15.600000
      vertex 0.381759 10.210333 15.600000
      vertex 3.571383 9.339091 15.600000
    endloop
  endfacet
  facet normal 0.000000 0.000000 1.000000
    outer loop
      vertex 5.550000 11.697114 15.600000
      vertex 0.381759 10.210333 15.600000
      vertex 4.352800 10.692544 15.600000
    endloop
  endfacet
  facet normal 0.000000 0.000000 1.000000
    outer loop
      vertex 7.018583 12.231635 15.600000
      vertex 0.381759 10.210333 15.600000
      vertex 5.550000 11.697114 15.600000
    endloop
  endfacet
  facet normal 0.000000 0.000000 1.000000
    outer loop
      vertex 13.496668 15.600000 15.600000
      vertex 0.381759 10.210333 15.600000
      vertex 7.018583 12.231635 15.600000
    endloop
  endfacet
  facet normal 0.000000 0.000000 1.000000
    outer loop
      vertex 13.496668 15.600000 15.600000
      vertex 7.018583 12.231635 15.600000
      vertex 8.581417 12.231635 15.600000
    endloop
  endfacet
  facet normal 0.000000 0.000000 1.000000
    outer loop
      vertex 13.496668 15.600000 15.600000
      vertex 8.581417 12.231635 15.600000
      vertex 10.050000 11.697114 15.600000
    endloop
  endfacet
  facet normal 0.000000 0.000000 1.000000
    outer loop
      vertex 13.496668 10.300000 15.600000
      vertex 10.050000 11.697114 15.600000
      vertex 11.247200 10.692544 15.600000
    endloop
  endfacet
  facet normal -0.000000 0.000000 1.000000
    outer loop
      vertex 13.496668 10.300000 15.600000
      vertex 11.247200 10.692544 15.600000
      vertex 11.473836 10.300000 15.600000
    endloop
  endfacet
  facet normal 0.000000 0.000000 1.000000
    outer loop
      vertex 13.496668 15.600000 15.600000
      vertex 10.050000 11.697114 15.600000
      vertex 13.496668 10.300000 15.600000
    endloop
  endfacet
  facet normal 0.000000 -0.000000 1.000000
    outer loop
      vertex 7.800000 15.600000 15.600000
      vertex 0.381759 10.210333 15.600000
      vertex 13.496668 15.600000 15.600000
    endloop
  endfacet
  facet normal 0.000000 -0.000000 1.000000
    outer loop
      vertex 5.389667 15.218241 15.600000
      vertex 0.381759 10.210333 15.600000
      vertex 7.800000 15.600000 15.600000
    endloop
  endfacet
  facet normal 0.000000 -0.000000 1.000000
    outer loop
      vertex 3.215275 14.110333 15.600000
      vertex 0.381759 10.210333 15.600000
      vertex 5.389667 15.218241 15.600000
    endloop
  endfacet
  facet normal 0.000000 -0.000000 1.000000
    outer loop
      vertex 1.489667 12.384725 15.600000
      vertex 0.381759 10.210333 15.600000
      vertex 3.215275 14.110333 15.600000
    endloop
  endfacet
  facet normal 0.000000 0.000000 1.000000
    outer loop
      vertex 3.571383 6.260909 15.600000
      vertex 3.300000 7.800000 15.600000
      vertex 0.381759 10.210333 15.600000
    endloop
  endfacet
  facet normal 0.000000 0.000000 1.000000
    outer loop
      vertex 3.300000 7.800000 15.600000
      vertex 3.571383 9.339091 15.600000
      vertex 0.381759 10.210333 15.600000
    endloop
  endfacet
  facet normal 0.000000 0.000000 1.000000
    outer loop
      vertex 13.496668 0.000000 15.600000
      vertex 11.473836 5.300000 15.600000
      vertex 11.247200 4.907456 15.600000
    endloop
  endfacet
  facet normal 0.000000 0.000000 1.000000
    outer loop
      vertex 13.496668 0.000000 15.600000
      vertex 13.496668 5.300000 15.600000
      vertex 11.473836 5.300000 15.600000
    endloop
  endfacet
  facet normal -0.156435 -0.000000 -0.987688
    outer loop
      vertex 18.390576 5.300000 11.779754
      vertex 18.390576 0.000000 11.779754
      vertex 17.000000 5.300000 12.000000
    endloop
  endfacet
  facet normal -0.156435 -0.000000 -0.987688
    outer loop
      vertex 17.000000 5.300000 12.000000
      vertex 18.390576 0.000000 11.779754
      vertex 17.100000 0.000000 11.984162
    endloop
  endfacet
  facet normal -0.156435 0.000000 -0.987688
    outer loop
      vertex 17.000000 5.300000 12.000000
      vertex 17.100000 0.000000 11.984162
      vertex 17.000000 0.000000 12.000000
    endloop
  endfacet
  facet normal 0.156435 0.000000 -0.987688
    outer loop
      vertex 17.000000 5.300000 12.000000
      vertex 17.000000 0.000000 12.000000
      vertex 15.609424 5.300000 11.779754
    endloop
  endfacet
  facet normal 0.156435 -0.000000 -0.987688
    outer loop
      vertex 15.609424 5.300000 11.779754
      vertex 17.000000 0.000000 12.000000
      vertex 15.609424 0.000000 11.779754
    endloop
  endfacet
  facet normal 0.453990 -0.000000 -0.891007
    outer loop
      vertex 15.609424 5.300000 11.779754
      vertex 15.609424 0.000000 11.779754
      vertex 14.354966 5.300000 11.140576
    endloop
  endfacet
  facet normal 0.453990 0.000000 -0.891007
    outer loop
      vertex 14.354966 5.300000 11.140576
      vertex 15.609424 0.000000 11.779754
      vertex 14.354966 0.000000 11.140576
    endloop
  endfacet
  facet normal 0.707107 0.000000 -0.707107
    outer loop
      vertex 13.359424 5.300000 10.145034
      vertex 14.354966 5.300000 11.140576
      vertex 14.354966 0.000000 11.140576
    endloop
  endfacet
  facet normal 0.707107 -0.000000 -0.707107
    outer loop
      vertex 13.359424 0.000000 10.145034
      vertex 13.359424 5.300000 10.145034
      vertex 14.354966 0.000000 11.140576
    endloop
  endfacet
  facet normal 0.891007 -0.000000 -0.453990
    outer loop
      vertex 12.720246 5.300000 8.890576
      vertex 13.359424 5.300000 10.145034
      vertex 13.359424 0.000000 10.145034
    endloop
  endfacet
  facet normal 0.891007 0.000000 -0.453990
    outer loop
      vertex 12.720246 0.000000 8.890576
      vertex 12.720246 5.300000 8.890576
      vertex 13.359424 0.000000 10.145034
    endloop
  endfacet
  facet normal 0.987688 0.000000 -0.156435
    outer loop
      vertex 12.500000 5.300000 7.500000
      vertex 12.720246 5.300000 8.890576
      vertex 12.720246 0.000000 8.890576
    endloop
  endfacet
  facet normal 0.987688 -0.000000 -0.156435
    outer loop
      vertex 12.500000 -0.000000 7.500000
      vertex 12.500000 5.300000 7.500000
      vertex 12.547515 0.000000 7.800000
    endloop
  endfacet
  facet normal 0.987688 -0.000000 -0.156435
    outer loop
      vertex 12.547515 0.000000 7.800000
      vertex 12.500000 5.300000 7.500000
      vertex 12.720246 0.000000 8.890576
    endloop
  endfacet
  facet normal 0.000000 -1.000000 0.000000
    outer loop
      vertex 12.720246 -0.000000 6.109424
      vertex 8.993336 0.000000 7.800000
      vertex 13.496668 -0.000000 0.000000
    endloop
  endfacet
  facet normal -0.000000 -1.000000 0.000000
    outer loop
      vertex 13.359424 -0.000000 4.854966
      vertex 12.720246 -0.000000 6.109424
      vertex 13.496668 -0.000000 0.000000
    endloop
  endfacet
  facet normal -0.000000 -1.000000 0.000000
    outer loop
      vertex 21.279754 0.000000 8.890576
      vertex 21.500000 -0.000000 7.500000
      vertex 27.006664 0.000000 7.800000
    endloop
  endfacet
  facet normal -0.000000 -1.000000 0.000000
    outer loop
      vertex 19.645034 -0.000000 3.859424
      vertex 18.390576 -0.000000 3.220246
      vertex 22.503332 -0.000000 0.000000
    endloop
  endfacet
  facet normal -0.000000 -1.000000 0.000000
    outer loop
      vertex 17.100000 0.000000 11.984162
      vertex 18.390576 0.000000 11.779754
      vertex 22.503332 0.000000 15.600000
    endloop
  endfacet
  facet normal 0.000000 0.000000 0.000000
    outer loop
      vertex 13.496668 0.000000 15.600000
      vertex 17.100000 0.000000 15.600000
      vertex 22.503332 0.000000 15.600000
    endloop
  endfacet
  facet normal 0.000000 -1.000000 0.000000
    outer loop
      vertex 22.503332 0.000000 15.600000
      vertex 18.390576 0.000000 11.779754
      vertex 27.006664 0.000000 7.800000
    endloop
  endfacet
  facet normal -0.000000 -1.000000 0.000000
    outer loop
      vertex 18.390576 0.000000 11.779754
      vertex 19.645034 0.000000 11.140576
      vertex 27.006664 0.000000 7.800000
    endloop
  endfacet
  facet normal 0.000000 -1.000000 0.000000
    outer loop
      vertex 19.645034 0.000000 11.140576
      vertex 20.640576 0.000000 10.145034
      vertex 27.006664 0.000000 7.800000
    endloop
  endfacet
  facet normal -0.000000 -1.000000 0.000000
    outer loop
      vertex 20.640576 0.000000 10.145034
      vertex 21.279754 0.000000 8.890576
      vertex 27.006664 0.000000 7.800000
    endloop
  endfacet
  facet normal -0.000000 -1.000000 0.000000
    outer loop
      vertex 27.006664 0.000000 7.800000
      vertex 21.500000 -0.000000 7.500000
      vertex 22.503332 -0.000000 0.000000
    endloop
  endfacet
  facet normal -0.000000 -1.000000 0.000000
    outer loop
      vertex 21.500000 -0.000000 7.500000
      vertex 21.279754 -0.000000 6.109424
      vertex 22.503332 -0.000000 0.000000
    endloop
  endfacet
  facet normal 0.000000 -1.000000 0.000000
    outer loop
      vertex 21.279754 -0.000000 6.109424
      vertex 20.640576 -0.000000 4.854966
      vertex 22.503332 -0.000000 0.000000
    endloop
  endfacet
  facet normal -0.000000 -1.000000 0.000000
    outer loop
      vertex 20.640576 -0.000000 4.854966
      vertex 19.645034 -0.000000 3.859424
      vertex 22.503332 -0.000000 0.000000
    endloop
  endfacet
  facet normal 0.000000 -1.000000 0.000000
    outer loop
      vertex 22.503332 -0.000000 0.000000
      vertex 18.390576 -0.000000 3.220246
      vertex 13.496668 -0.000000 0.000000
    endloop
  endfacet
  facet normal 0.000000 -1.000000 0.000000
    outer loop
      vertex 18.390576 -0.000000 3.220246
      vertex 17.000000 -0.000000 3.000000
      vertex 13.496668 -0.000000 0.000000
    endloop
  endfacet
  facet normal -0.000000 -1.000000 0.000000
    outer loop
      vertex 17.000000 -0.000000 3.000000
      vertex 15.609424 -0.000000 3.220246
      vertex 13.496668 -0.000000 0.000000
    endloop
  endfacet
  facet normal 0.000000 -1.000000 0.000000
    outer loop
      vertex 15.609424 -0.000000 3.220246
      vertex 14.354966 -0.000000 3.859424
      vertex 13.496668 -0.000000 0.000000
    endloop
  endfacet
  facet normal 0.000000 -1.000000 0.000000
    outer loop
      vertex 14.354966 -0.000000 3.859424
      vertex 13.359424 -0.000000 4.854966
      vertex 13.496668 -0.000000 0.000000
    endloop
  endfacet
  facet normal 0.000000 -1.000000 0.000000
    outer loop
      vertex 12.500000 -0.000000 7.500000
      vertex 8.993336 0.000000 7.800000
      vertex 12.720246 -0.000000 6.109424
    endloop
  endfacet
  facet normal 0.000000 -1.000000 0.000000
    outer loop
      vertex 12.547515 0.000000 7.800000
      vertex 8.993336 0.000000 7.800000
      vertex 12.500000 -0.000000 7.500000
    endloop
  endfacet
  facet normal 0.000000 -1.000000 0.000000
    outer loop
      vertex 17.100000 0.000000 15.600000
      vertex 17.100000 0.000000 11.984162
      vertex 22.503332 0.000000 15.600000
    endloop
  endfacet
  facet normal -0.000000 -0.000000 -0.000000
    outer loop
      vertex 13.496668 -0.000000 0.000000
      vertex 8.993336 0.000000 7.800000
      vertex 13.496668 0.000000 0.000000
    endloop
  endfacet
  facet normal -0.000000 -0.000000 -0.000000
    outer loop
      vertex 13.496668 -0.000000 0.000000
      vertex 13.496668 0.000000 0.000000
      vertex 22.503332 -0.000000 0.000000
    endloop
  endfacet
  facet normal 0.000000 -0.000000 -0.000000
    outer loop
      vertex 22.503332 -0.000000 0.000000
      vertex 13.496668 0.000000 0.000000
      vertex 17.100000 0.000000 0.000000
    endloop
  endfacet
  facet normal 0.000000 -0.000000 -1.000000
    outer loop
      vertex 22.503332 -0.000000 0.000000
      vertex 17.100000 0.000000 0.000000
      vertex 17.100000 5.300000 0.000000
    endloop
  endfacet
  facet normal 0.000000 -0.000000 -1.000000
    outer loop
      vertex 22.503332 -0.000000 0.000000
      vertex 17.100000 5.300000 0.000000
      vertex 22.503332 5.300000 0.000000
    endloop
  endfacet
  facet normal 0.866025 0.000000 -0.500000
    outer loop
      vertex 27.006664 0.000000 7.800000
      vertex 22.503332 -0.000000 0.000000
      vertex 22.503332 5.300000 0.000000
    endloop
  endfacet
  facet normal 0.866025 -0.000000 -0.500000
    outer loop
      vertex 27.000000 10.300000 7.788458
      vertex 27.006664 0.000000 7.800000
      vertex 27.000000 5.300000 7.788458
    endloop
  endfacet
  facet normal 0.866025 -0.000000 -0.500000
    outer loop
      vertex 27.000000 5.300000 7.788458
      vertex 27.006664 0.000000 7.800000
      vertex 22.503332 5.300000 0.000000
    endloop
  endfacet
  facet normal 0.866025 -0.000000 -0.500000
    outer loop
      vertex 27.006664 15.600000 7.800000
      vertex 27.006664 0.000000 7.800000
      vertex 27.000000 10.300000 7.788458
    endloop
  endfacet
  facet normal 0.866025 -0.000000 -0.500000
    outer loop
      vertex 22.503332 15.600000 0.000000
      vertex 27.000000 10.300000 7.788458
      vertex 22.503332 10.300000 0.000000
    endloop
  endfacet
  facet normal 0.866025 0.000000 -0.500000
    outer loop
      vertex 27.006664 15.600000 7.800000
      vertex 27.000000 10.300000 7.788458
      vertex 22.503332 15.600000 0.000000
    endloop
  endfacet
  facet normal -1.000000 0.000000 0.000000
    outer loop
      vertex 27.000000 10.300000 7.811542
      vertex 27.000000 10.300000 7.788458
      vertex 27.000000 5.300000 7.811542
    endloop
  endfacet
  facet normal -1.000000 0.000000 0.000000
    outer loop
      vertex 27.000000 5.300000 7.811542
      vertex 27.000000 10.300000 7.788458
      vertex 27.000000 5.300000 7.788458
    endloop
  endfacet
  facet normal 0.866025 -0.000000 0.500000
    outer loop
      vertex 22.503332 5.300000 15.600000
      vertex 22.503332 0.000000 15.600000
      vertex 27.006664 0.000000 7.800000
    endloop
  endfacet
  facet normal 0.866025 -0.000000 0.500000
    outer loop
      vertex 27.000000 5.300000 7.811542
      vertex 22.503332 5.300000 15.600000
      vertex 27.006664 0.000000 7.800000
    endloop
  endfacet
  facet normal 0.866025 -0.000000 0.500000
    outer loop
      vertex 22.503332 15.600000 15.600000
      vertex 22.503332 10.300000 15.600000
      vertex 27.006664 15.600000 7.800000
    endloop
  endfacet
  facet normal 0.866025 0.000000 0.500000
    outer loop
      vertex 27.006664 15.600000 7.800000
      vertex 27.000000 10.300000 7.811542
      vertex 27.006664 0.000000 7.800000
    endloop
  endfacet
  facet normal 0.866025 0.000000 0.500000
    outer loop
      vertex 27.000000 10.300000 7.811542
      vertex 27.000000 5.300000 7.811542
      vertex 27.006664 0.000000 7.800000
    endloop
  endfacet
  facet normal 0.866025 0.000000 0.500000
    outer loop
      vertex 22.503332 10.300000 15.600000
      vertex 27.000000 10.300000 7.811542
      vertex 27.006664 15.600000 7.800000
    endloop
  endfacet
  facet normal 0.000000 -0.000000 1.000000
    outer loop
      vertex 13.496668 5.300000 15.600000
      vertex 13.496668 0.000000 15.600000
      vertex 22.503332 0.000000 15.600000
    endloop
  endfacet
  facet normal 0.000000 0.000000 1.000000
    outer loop
      vertex 22.503332 5.300000 15.600000
      vertex 13.496668 5.300000 15.600000
      vertex 22.503332 0.000000 15.600000
    endloop
  endfacet
  facet normal 0.987688 0.000000 0.156435
    outer loop
      vertex 12.720246 -0.000000 6.109424
      vertex 12.720246 5.300000 6.109424
      vertex 12.500000 5.300000 7.500000
    endloop
  endfacet
  facet normal 0.987688 0.000000 0.156435
    outer loop
      vertex 12.500000 -0.000000 7.500000
      vertex 12.720246 -0.000000 6.109424
      vertex 12.500000 5.300000 7.500000
    endloop
  endfacet
  facet normal 0.891007 0.000000 0.453990
    outer loop
      vertex 13.359424 -0.000000 4.854966
      vertex 13.359424 5.300000 4.854966
      vertex 12.720246 5.300000 6.109424
    endloop
  endfacet
  facet normal 0.891007 0.000000 0.453990
    outer loop
      vertex 12.720246 -0.000000 6.109424
      vertex 13.359424 -0.000000 4.854966
      vertex 12.720246 5.300000 6.109424
    endloop
  endfacet
  facet normal -0.453990 0.000000 -0.891007
    outer loop
      vertex 19.645034 5.300000 11.140576
      vertex 19.645034 0.000000 11.140576
      vertex 18.390576 5.300000 11.779754
    endloop
  endfacet
  facet normal -0.453990 -0.000000 -0.891007
    outer loop
      vertex 18.390576 5.300000 11.779754
      vertex 19.645034 0.000000 11.140576
      vertex 18.390576 0.000000 11.779754
    endloop
  endfacet
  facet normal -0.707107 -0.000000 -0.707107
    outer loop
      vertex 20.640576 5.300000 10.145034
      vertex 20.640576 0.000000 10.145034
      vertex 19.645034 5.300000 11.140576
    endloop
  endfacet
  facet normal -0.707107 0.000000 -0.707107
    outer loop
      vertex 19.645034 5.300000 11.140576
      vertex 20.640576 0.000000 10.145034
      vertex 19.645034 0.000000 11.140576
    endloop
  endfacet
  facet normal -0.891007 0.000000 -0.453990
    outer loop
      vertex 21.279754 5.300000 8.890576
      vertex 21.279754 0.000000 8.890576
      vertex 20.640576 5.300000 10.145034
    endloop
  endfacet
  facet normal -0.891007 -0.000000 -0.453990
    outer loop
      vertex 20.640576 5.300000 10.145034
      vertex 21.279754 0.000000 8.890576
      vertex 20.640576 0.000000 10.145034
    endloop
  endfacet
  facet normal -0.987688 -0.000000 -0.156435
    outer loop
      vertex 21.500000 5.300000 7.500000
      vertex 21.500000 -0.000000 7.500000
      vertex 21.279754 5.300000 8.890576
    endloop
  endfacet
  facet normal -0.987688 0.000000 -0.156435
    outer loop
      vertex 21.279754 5.300000 8.890576
      vertex 21.500000 -0.000000 7.500000
      vertex 21.279754 0.000000 8.890576
    endloop
  endfacet
  facet normal -0.987688 0.000000 0.156435
    outer loop
      vertex 21.500000 5.300000 7.500000
      vertex 21.279754 5.300000 6.109424
      vertex 21.500000 -0.000000 7.500000
    endloop
  endfacet
  facet normal -0.987688 0.000000 0.156435
    outer loop
      vertex 21.500000 -0.000000 7.500000
      vertex 21.279754 5.300000 6.109424
      vertex 21.279754 -0.000000 6.109424
    endloop
  endfacet
  facet normal -0.891007 0.000000 0.453990
    outer loop
      vertex 21.279754 5.300000 6.109424
      vertex 20.640576 5.300000 4.854966
      vertex 21.279754 -0.000000 6.109424
    endloop
  endfacet
  facet normal -0.891007 0.000000 0.453990
    outer loop
      vertex 21.279754 -0.000000 6.109424
      vertex 20.640576 5.300000 4.854966
      vertex 20.640576 -0.000000 4.854966
    endloop
  endfacet
  facet normal -0.707107 0.000000 0.707107
    outer loop
      vertex 20.640576 5.300000 4.854966
      vertex 19.645034 5.300000 3.859424
      vertex 20.640576 -0.000000 4.854966
    endloop
  endfacet
  facet normal -0.707107 0.000000 0.707107
    outer loop
      vertex 20.640576 -0.000000 4.854966
      vertex 19.645034 5.300000 3.859424
      vertex 19.645034 -0.000000 3.859424
    endloop
  endfacet
  facet normal -0.453990 0.000000 0.891007
    outer loop
      vertex 19.645034 -0.000000 3.859424
      vertex 19.645034 5.300000 3.859424
      vertex 18.390576 5.300000 3.220246
    endloop
  endfacet
  facet normal -0.453990 0.000000 0.891007
    outer loop
      vertex 18.390576 -0.000000 3.220246
      vertex 19.645034 -0.000000 3.859424
      vertex 18.390576 5.300000 3.220246
    endloop
  endfacet
  facet normal -0.156435 0.000000 0.987688
    outer loop
      vertex 18.390576 -0.000000 3.220246
      vertex 18.390576 5.300000 3.220246
      vertex 17.000000 5.300000 3.000000
    endloop
  endfacet
  facet normal -0.156435 0.000000 0.987688
    outer loop
      vertex 17.000000 -0.000000 3.000000
      vertex 18.390576 -0.000000 3.220246
      vertex 17.000000 5.300000 3.000000
    endloop
  endfacet
  facet normal 0.156435 0.000000 0.987688
    outer loop
      vertex 17.000000 -0.000000 3.000000
      vertex 17.000000 5.300000 3.000000
      vertex 15.609424 5.300000 3.220246
    endloop
  endfacet
  facet normal 0.156435 0.000000 0.987688
    outer loop
      vertex 15.609424 -0.000000 3.220246
      vertex 17.000000 -0.000000 3.000000
      vertex 15.609424 5.300000 3.220246
    endloop
  endfacet
  facet normal 0.453990 0.000000 0.891007
    outer loop
      vertex 15.609424 -0.000000 3.220246
      vertex 15.609424 5.300000 3.220246
      vertex 14.354966 5.300000 3.859424
    endloop
  endfacet
  facet normal 0.453990 0.000000 0.891007
    outer loop
      vertex 14.354966 -0.000000 3.859424
      vertex 15.609424 -0.000000 3.220246
      vertex 14.354966 5.300000 3.859424
    endloop
  endfacet
  facet normal 0.707107 0.000000 0.707107
    outer loop
      vertex 14.354966 -0.000000 3.859424
      vertex 14.354966 5.300000 3.859424
      vertex 13.359424 5.300000 4.854966
    endloop
  endfacet
  facet normal 0.707107 0.000000 0.707107
    outer loop
      vertex 13.359424 -0.000000 4.854966
      vertex 14.354966 -0.000000 3.859424
      vertex 13.359424 5.300000 4.854966
    endloop
  endfacet
  facet normal 0.000000 -0.000000 1.000000
    outer loop
      vertex 13.496668 15.600000 15.600000
      vertex 13.496668 10.300000 15.600000
      vertex 22.503332 10.300000 15.600000
    endloop
  endfacet
  facet normal 0.000000 0.000000 1.000000
    outer loop
      vertex 22.503332 15.600000 15.600000
      vertex 13.496668 15.600000 15.600000
      vertex 22.503332 10.300000 15.600000
    endloop
  endfacet
  facet normal 0.987688 0.000000 -0.156435
    outer loop
      vertex 12.500000 15.600000 7.500000
      vertex 12.547515 15.600000 7.800000
      vertex 12.720246 10.300000 8.890576
    endloop
  endfacet
  facet normal 0.987688 0.000000 -0.156435
    outer loop
      vertex 12.720246 10.300000 8.890576
      vertex 12.547515 15.600000 7.800000
      vertex 12.720246 15.600000 8.890576
    endloop
  endfacet
  facet normal 0.987688 0.000000 -0.156435
    outer loop
      vertex 12.500000 15.600000 7.500000
      vertex 12.720246 10.300000 8.890576
      vertex 12.500000 10.300000 7.500000
    endloop
  endfacet
  facet normal 0.987688 0.000000 0.156435
    outer loop
      vertex 12.720246 10.300000 6.109424
      vertex 12.720246 15.600000 6.109424
      vertex 12.500000 15.600000 7.500000
    endloop
  endfacet
  facet normal 0.987688 0.000000 0.156435
    outer loop
      vertex 12.500000 10.300000 7.500000
      vertex 12.720246 10.300000 6.109424
      vertex 12.500000 15.600000 7.500000
    endloop
  endfacet
  facet normal 0.891007 0.000000 0.453990
    outer loop
      vertex 13.359424 10.300000 4.854966
      vertex 13.359424 15.600000 4.854966
      vertex 12.720246 15.600000 6.109424
    endloop
  endfacet
  facet normal 0.891007 0.000000 0.453990
    outer loop
      vertex 12.720246 10.300000 6.109424
      vertex 13.359424 10.300000 4.854966
      vertex 12.720246 15.600000 6.109424
    endloop
  endfacet
  facet normal 0.707107 0.000000 0.707107
    outer loop
      vertex 14.354966 10.300000 3.859424
      vertex 14.354966 15.600000 3.859424
      vertex 13.359424 15.600000 4.854966
    endloop
  endfacet
  facet normal 0.707107 0.000000 0.707107
    outer loop
      vertex 13.359424 10.300000 4.854966
      vertex 14.354966 10.300000 3.859424
      vertex 13.359424 15.600000 4.854966
    endloop
  endfacet
  facet normal 0.453990 0.000000 0.891007
    outer loop
      vertex 15.609424 10.300000 3.220246
      vertex 15.609424 15.600000 3.220246
      vertex 14.354966 15.600000 3.859424
    endloop
  endfacet
  facet normal 0.453990 0.000000 0.891007
    outer loop
      vertex 14.354966 10.300000 3.859424
      vertex 15.609424 10.300000 3.220246
      vertex 14.354966 15.600000 3.859424
    endloop
  endfacet
  facet normal 0.156435 0.000000 0.987688
    outer loop
      vertex 17.000000 10.300000 3.000000
      vertex 17.000000 15.600000 3.000000
      vertex 15.609424 15.600000 3.220246
    endloop
  endfacet
  facet normal 0.156435 0.000000 0.987688
    outer loop
      vertex 15.609424 10.300000 3.220246
      vertex 17.000000 10.300000 3.000000
      vertex 15.609424 15.600000 3.220246
    endloop
  endfacet
  facet normal -0.156435 0.000000 0.987688
    outer loop
      vertex 18.390576 10.300000 3.220246
      vertex 18.390576 15.600000 3.220246
      vertex 17.100000 15.600000 3.015838
    endloop
  endfacet
  facet normal -0.156435 0.000000 0.987688
    outer loop
      vertex 17.000000 15.600000 3.000000
      vertex 18.390576 10.300000 3.220246
      vertex 17.100000 15.600000 3.015838
    endloop
  endfacet
  facet normal -0.156435 0.000000 0.987688
    outer loop
      vertex 17.000000 15.600000 3.000000
      vertex 17.000000 10.300000 3.000000
      vertex 18.390576 10.300000 3.220246
    endloop
  endfacet
  facet normal -0.453990 0.000000 0.891007
    outer loop
      vertex 19.645034 10.300000 3.859424
      vertex 19.645034 15.600000 3.859424
      vertex 18.390576 15.600000 3.220246
    endloop
  endfacet
  facet normal -0.453990 0.000000 0.891007
    outer loop
      vertex 18.390576 10.300000 3.220246
      vertex 19.645034 10.300000 3.859424
      vertex 18.390576 15.600000 3.220246
    endloop
  endfacet
  facet normal -0.707107 0.000000 0.707107
    outer loop
      vertex 20.640576 15.600000 4.854966
      vertex 19.645034 15.600000 3.859424
      vertex 20.640576 10.300000 4.854966
    endloop
  endfacet
  facet normal -0.707107 0.000000 0.707107
    outer loop
      vertex 20.640576 10.300000 4.854966
      vertex 19.645034 15.600000 3.859424
      vertex 19.645034 10.300000 3.859424
    endloop
  endfacet
  facet normal -0.891007 0.000000 0.453990
    outer loop
      vertex 21.279754 15.600000 6.109424
      vertex 20.640576 15.600000 4.854966
      vertex 21.279754 10.300000 6.109424
    endloop
  endfacet
  facet normal -0.891007 0.000000 0.453990
    outer loop
      vertex 21.279754 10.300000 6.109424
      vertex 20.640576 15.600000 4.854966
      vertex 20.640576 10.300000 4.854966
    endloop
  endfacet
  facet normal -0.987688 0.000000 0.156435
    outer loop
      vertex 21.500000 15.600000 7.500000
      vertex 21.279754 15.600000 6.109424
      vertex 21.500000 10.300000 7.500000
    endloop
  endfacet
  facet normal -0.987688 0.000000 0.156435
    outer loop
      vertex 21.500000 10.300000 7.500000
      vertex 21.279754 15.600000 6.109424
      vertex 21.279754 10.300000 6.109424
    endloop
  endfacet
  facet normal -0.987688 0.000000 -0.156435
    outer loop
      vertex 21.500000 15.600000 7.500000
      vertex 21.500000 10.300000 7.500000
      vertex 21.279754 15.600000 8.890576
    endloop
  endfacet
  facet normal -0.987688 0.000000 -0.156435
    outer loop
      vertex 21.279754 15.600000 8.890576
      vertex 21.500000 10.300000 7.500000
      vertex 21.279754 10.300000 8.890576
    endloop
  endfacet
  facet normal -0.891007 0.000000 -0.453990
    outer loop
      vertex 21.279754 15.600000 8.890576
      vertex 21.279754 10.300000 8.890576
      vertex 20.640576 15.600000 10.145034
    endloop
  endfacet
  facet normal -0.891007 0.000000 -0.453990
    outer loop
      vertex 20.640576 15.600000 10.145034
      vertex 21.279754 10.300000 8.890576
      vertex 20.640576 10.300000 10.145034
    endloop
  endfacet
  facet normal -0.707107 0.000000 -0.707107
    outer loop
      vertex 20.640576 15.600000 10.145034
      vertex 20.640576 10.300000 10.145034
      vertex 19.645034 15.600000 11.140576
    endloop
  endfacet
  facet normal -0.707107 0.000000 -0.707107
    outer loop
      vertex 19.645034 15.600000 11.140576
      vertex 20.640576 10.300000 10.145034
      vertex 19.645034 10.300000 11.140576
    endloop
  endfacet
  facet normal -0.453990 0.000000 -0.891007
    outer loop
      vertex 19.645034 15.600000 11.140576
      vertex 19.645034 10.300000 11.140576
      vertex 18.390576 15.600000 11.779754
    endloop
  endfacet
  facet normal -0.453990 0.000000 -0.891007
    outer loop
      vertex 18.390576 15.600000 11.779754
      vertex 19.645034 10.300000 11.140576
      vertex 18.390576 10.300000 11.779754
    endloop
  endfacet
  facet normal -0.156435 0.000000 -0.987688
    outer loop
      vertex 18.390576 15.600000 11.779754
      vertex 18.390576 10.300000 11.779754
      vertex 17.000000 15.600000 12.000000
    endloop
  endfacet
  facet normal -0.156435 0.000000 -0.987688
    outer loop
      vertex 17.000000 15.600000 12.000000
      vertex 18.390576 10.300000 11.779754
      vertex 17.000000 10.300000 12.000000
    endloop
  endfacet
  facet normal 0.156435 0.000000 -0.987688
    outer loop
      vertex 17.000000 15.600000 12.000000
      vertex 17.000000 10.300000 12.000000
      vertex 15.609424 15.600000 11.779754
    endloop
  endfacet
  facet normal 0.156435 0.000000 -0.987688
    outer loop
      vertex 15.609424 15.600000 11.779754
      vertex 17.000000 10.300000 12.000000
      vertex 15.609424 10.300000 11.779754
    endloop
  endfacet
  facet normal 0.453990 0.000000 -0.891007
    outer loop
      vertex 15.609424 15.600000 11.779754
      vertex 15.609424 10.300000 11.779754
      vertex 14.354966 15.600000 11.140576
    endloop
  endfacet
  facet normal 0.453990 0.000000 -0.891007
    outer loop
      vertex 14.354966 15.600000 11.140576
      vertex 15.609424 10.300000 11.779754
      vertex 14.354966 10.300000 11.140576
    endloop
  endfacet
  facet normal 0.707107 0.000000 -0.707107
    outer loop
      vertex 13.359424 15.600000 10.145034
      vertex 14.354966 15.600000 11.140576
      vertex 14.354966 10.300000 11.140576
    endloop
  endfacet
  facet normal 0.707107 0.000000 -0.707107
    outer loop
      vertex 13.359424 10.300000 10.145034
      vertex 13.359424 15.600000 10.145034
      vertex 14.354966 10.300000 11.140576
    endloop
  endfacet
  facet normal 0.891007 0.000000 -0.453990
    outer loop
      vertex 12.720246 15.600000 8.890576
      vertex 13.359424 15.600000 10.145034
      vertex 13.359424 10.300000 10.145034
    endloop
  endfacet
  facet normal 0.891007 0.000000 -0.453990
    outer loop
      vertex 12.720246 10.300000 8.890576
      vertex 12.720246 15.600000 8.890576
      vertex 13.359424 10.300000 10.145034
    endloop
  endfacet
endsolid OpenSCAD_Model
