solid OpenSCAD_Model
  facet normal -0.000000 0.000000 -1.000000
    outer loop
      vertex 0.000000 7.500000 0.000000
      vertex 0.367076 9.817627 0.000000
      vertex 0.367076 5.182373 0.000000
    endloop
  endfacet
  facet normal 0.000000 -0.000000 -1.000000
    outer loop
      vertex 0.367076 5.182373 0.000000
      vertex 0.367076 9.817627 0.000000
      vertex 1.432373 11.908389 0.000000
    endloop
  endfacet
  facet normal 0.000000 0.000000 -1.000000
    outer loop
      vertex 0.367076 5.182373 0.000000
      vertex 1.432373 11.908389 0.000000
      vertex 3.091611 13.567627 0.000000
    endloop
  endfacet
  facet normal 0.000000 0.000000 -1.000000
    outer loop
      vertex 0.367076 5.182373 0.000000
      vertex 3.091611 13.567627 0.000000
      vertex 5.182373 14.632924 0.000000
    endloop
  endfacet
  facet normal 0.000000 0.000000 -1.000000
    outer loop
      vertex 0.367076 5.182373 0.000000
      vertex 5.182373 14.632924 0.000000
      vertex 7.500000 15.000000 0.000000
    endloop
  endfacet
  facet normal 0.000000 -0.000000 -1.000000
    outer loop
      vertex 10.717387 10.199708 0.000000
      vertex 7.500000 15.000000 0.000000
      vertex 25.000000 15.000000 0.000000
    endloop
  endfacet
  facet normal 0.000000 -0.000000 -1.000000
    outer loop
      vertex 3.553291 8.936485 0.000000
      vertex 0.367076 5.182373 0.000000
      vertex 4.282613 10.199708 0.000000
    endloop
  endfacet
  facet normal -0.000000 -0.000000 -1.000000
    outer loop
      vertex 9.600000 11.137307 0.000000
      vertex 7.500000 15.000000 0.000000
      vertex 10.717387 10.199708 0.000000
    endloop
  endfacet
  facet normal 0.000000 -0.000000 -1.000000
    outer loop
      vertex 10.977026 9.750000 0.000000
      vertex 10.717387 10.199708 0.000000
      vertex 25.000000 15.000000 0.000000
    endloop
  endfacet
  facet normal -0.000000 -0.000000 -1.000000
    outer loop
      vertex 8.229322 11.636193 0.000000
      vertex 7.500000 15.000000 0.000000
      vertex 9.600000 11.137307 0.000000
    endloop
  endfacet
  facet normal -0.000000 0.000000 -1.000000
    outer loop
      vertex 6.770678 11.636193 0.000000
      vertex 7.500000 15.000000 0.000000
      vertex 8.229322 11.636193 0.000000
    endloop
  endfacet
  facet normal 0.000000 0.000000 -1.000000
    outer loop
      vertex 5.400000 11.137307 0.000000
      vertex 7.500000 15.000000 0.000000
      vertex 6.770678 11.636193 0.000000
    endloop
  endfacet
  facet normal 0.000000 0.000000 -1.000000
    outer loop
      vertex 4.282613 10.199708 0.000000
      vertex 7.500000 15.000000 0.000000
      vertex 5.400000 11.137307 0.000000
    endloop
  endfacet
  facet normal 0.000000 0.000000 -1.000000
    outer loop
      vertex 0.367076 5.182373 0.000000
      vertex 7.500000 15.000000 0.000000
      vertex 4.282613 10.199708 0.000000
    endloop
  endfacet
  facet normal 0.000000 -0.000000 -1.000000
    outer loop
      vertex 3.300000 7.500000 0.000000
      vertex 0.367076 5.182373 0.000000
      vertex 3.553291 8.936485 0.000000
    endloop
  endfacet
  facet normal 0.000000 0.000000 -1.000000
    outer loop
      vertex 3.553291 6.063515 0.000000
      vertex 0.367076 5.182373 0.000000
      vertex 3.300000 7.500000 0.000000
    endloop
  endfacet
  facet normal 0.000000 0.000000 -1.000000
    outer loop
      vertex 0.367076 5.182373 0.000000
      vertex 4.282613 4.800292 0.000000
      vertex 5.400000 3.862693 0.000000
    endloop
  endfacet
  facet normal 0.000000 0.000000 -1.000000
    outer loop
      vertex 25.000000 4.750000 0.000000
      vertex 9.600000 3.862693 0.000000
      vertex 10.657451 4.750000 0.000000
    endloop
  endfacet
  facet normal 0.000000 0.000000 -1.000000
    outer loop
      vertex 5.400000 3.862693 0.000000
      vertex 6.770678 3.363807 0.000000
      vertex 0.367076 5.182373 0.000000
    endloop
  endfacet
  facet normal 0.000000 0.000000 -1.000000
    outer loop
      vertex 8.229322 3.363807 0.000000
      vertex 9.600000 3.862693 0.000000
      vertex 25.000000 4.750000 0.000000
    endloop
  endfacet
  facet normal -0.000000 0.000000 -1.000000
    outer loop
      vertex 8.229322 3.363807 0.000000
      vertex 25.000000 4.750000 0.000000
      vertex 25.000000 0.000000 0.000000
    endloop
  endfacet
  facet normal 0.000000 0.000000 -1.000000
    outer loop
      vertex 8.229322 3.363807 0.000000
      vertex 25.000000 0.000000 0.000000
      vertex 6.770678 3.363807 0.000000
    endloop
  endfacet
  facet normal 0.000000 0.000000 -1.000000
    outer loop
      vertex 6.770678 3.363807 0.000000
      vertex 25.000000 0.000000 0.000000
      vertex 7.500000 0.000000 0.000000
    endloop
  endfacet
  facet normal 0.000000 0.000000 -1.000000
    outer loop
      vertex 6.770678 3.363807 0.000000
      vertex 7.500000 0.000000 0.000000
      vertex 0.367076 5.182373 0.000000
    endloop
  endfacet
  facet normal 0.000000 0.000000 -1.000000
    outer loop
      vertex 0.367076 5.182373 0.000000
      vertex 7.500000 0.000000 0.000000
      vertex 5.182373 0.367076 0.000000
    endloop
  endfacet
  facet normal 0.000000 0.000000 -1.000000
    outer loop
      vertex 0.367076 5.182373 0.000000
      vertex 5.182373 0.367076 0.000000
      vertex 3.091611 1.432373 0.000000
    endloop
  endfacet
  facet normal 0.000000 0.000000 -1.000000
    outer loop
      vertex 0.367076 5.182373 0.000000
      vertex 3.091611 1.432373 0.000000
      vertex 1.432373 3.091611 0.000000
    endloop
  endfacet
  facet normal -0.000000 0.000000 -1.000000
    outer loop
      vertex 10.977026 9.750000 0.000000
      vertex 25.000000 15.000000 0.000000
      vertex 25.000000 9.750000 0.000000
    endloop
  endfacet
  facet normal 0.000000 0.000000 -1.000000
    outer loop
      vertex 4.282613 4.800292 0.000000
      vertex 0.367076 5.182373 0.000000
      vertex 3.553291 6.063515 0.000000
    endloop
  endfacet
  facet normal -0.987688 0.156434 0.000000
    outer loop
      vertex 0.000000 7.500000 0.000000
      vertex 0.000000 7.500000 15.000000
      vertex 0.367076 9.817627 0.000000
    endloop
  endfacet
  facet normal -0.987688 0.156434 0.000000
    outer loop
      vertex 0.367076 9.817627 0.000000
      vertex 0.000000 7.500000 15.000000
      vertex 0.367076 9.817627 15.000000
    endloop
  endfacet
  facet normal -0.987688 -0.156434 -0.000000
    outer loop
      vertex 0.000000 7.500000 0.000000
      vertex 0.367076 5.182373 0.000000
      vertex 0.000000 7.500000 15.000000
    endloop
  endfacet
  facet normal -0.987688 -0.156434 0.000000
    outer loop
      vertex 0.000000 7.500000 15.000000
      vertex 0.367076 5.182373 0.000000
      vertex 0.367076 5.182373 15.000000
    endloop
  endfacet
  facet normal -0.891006 -0.453991 -0.000000
    outer loop
      vertex 0.367076 5.182373 0.000000
      vertex 1.432373 3.091611 0.000000
      vertex 0.367076 5.182373 15.000000
    endloop
  endfacet
  facet normal -0.891006 -0.453991 0.000000
    outer loop
      vertex 0.367076 5.182373 15.000000
      vertex 1.432373 3.091611 0.000000
      vertex 1.432373 3.091611 15.000000
    endloop
  endfacet
  facet normal -0.707107 -0.707107 0.000000
    outer loop
      vertex 1.432373 3.091611 15.000000
      vertex 1.432373 3.091611 0.000000
      vertex 3.091611 1.432373 0.000000
    endloop
  endfacet
  facet normal -0.707107 -0.707107 0.000000
    outer loop
      vertex 3.091611 1.432373 15.000000
      vertex 1.432373 3.091611 15.000000
      vertex 3.091611 1.432373 0.000000
    endloop
  endfacet
  facet normal -0.453991 -0.891006 0.000000
    outer loop
      vertex 3.091611 1.432373 15.000000
      vertex 3.091611 1.432373 0.000000
      vertex 5.182373 0.367076 0.000000
    endloop
  endfacet
  facet normal -0.453991 -0.891006 0.000000
    outer loop
      vertex 5.182373 0.367076 15.000000
      vertex 3.091611 1.432373 15.000000
      vertex 5.182373 0.367076 0.000000
    endloop
  endfacet
  facet normal -0.156434 -0.987688 0.000000
    outer loop
      vertex 5.182373 0.367076 15.000000
      vertex 5.182373 0.367076 0.000000
      vertex 7.500000 0.000000 0.000000
    endloop
  endfacet
  facet normal -0.156434 -0.987688 0.000000
    outer loop
      vertex 7.500000 0.000000 15.000000
      vertex 5.182373 0.367076 15.000000
      vertex 7.500000 0.000000 0.000000
    endloop
  endfacet
  facet normal 0.000000 -1.000000 0.000000
    outer loop
      vertex 15.702129 0.000000 3.505563
      vertex 7.500000 0.000000 0.000000
      vertex 25.000000 0.000000 0.000000
    endloop
  endfacet
  facet normal 0.000000 -1.000000 0.000000
    outer loop
      vertex 7.500000 0.000000 15.000000
      vertex 7.500000 0.000000 0.000000
      vertex 13.602129 0.000000 5.031302
    endloop
  endfacet
  facet normal -0.000000 -1.000000 0.000000
    outer loop
      vertex 15.702129 0.000000 11.494437
      vertex 18.297871 0.000000 11.494437
      vertex 25.000000 0.000000 15.000000
    endloop
  endfacet
  facet normal 0.000000 -1.000000 0.000000
    outer loop
      vertex 7.500000 0.000000 15.000000
      vertex 13.602129 0.000000 5.031302
      vertex 12.800000 0.000000 7.500000
    endloop
  endfacet
  facet normal 0.000000 -1.000000 0.000000
    outer loop
      vertex 15.702129 0.000000 11.494437
      vertex 7.500000 0.000000 15.000000
      vertex 13.602129 0.000000 9.968698
    endloop
  endfacet
  facet normal 0.000000 -1.000000 0.000000
    outer loop
      vertex 21.200000 0.000000 7.500000
      vertex 20.397871 0.000000 5.031302
      vertex 25.000000 0.000000 0.000000
    endloop
  endfacet
  facet normal 0.000000 -1.000000 0.000000
    outer loop
      vertex 25.000000 0.000000 15.000000
      vertex 7.500000 0.000000 15.000000
      vertex 15.702129 0.000000 11.494437
    endloop
  endfacet
  facet normal 0.000000 -1.000000 0.000000
    outer loop
      vertex 25.000000 0.000000 15.000000
      vertex 20.397871 0.000000 9.968698
      vertex 25.000000 0.000000 0.000000
    endloop
  endfacet
  facet normal 0.000000 -1.000000 0.000000
    outer loop
      vertex 25.000000 0.000000 15.000000
      vertex 18.297871 0.000000 11.494437
      vertex 20.397871 0.000000 9.968698
    endloop
  endfacet
  facet normal 0.000000 -1.000000 0.000000
    outer loop
      vertex 20.397871 0.000000 9.968698
      vertex 21.200000 0.000000 7.500000
      vertex 25.000000 0.000000 0.000000
    endloop
  endfacet
  facet normal 0.000000 -1.000000 0.000000
    outer loop
      vertex 13.602129 0.000000 5.031302
      vertex 7.500000 0.000000 0.000000
      vertex 15.702129 0.000000 3.505563
    endloop
  endfacet
  facet normal 0.000000 -1.000000 0.000000
    outer loop
      vertex 18.297871 0.000000 3.505563
      vertex 15.702129 0.000000 3.505563
      vertex 25.000000 0.000000 0.000000
    endloop
  endfacet
  facet normal 0.000000 -1.000000 -0.000000
    outer loop
      vertex 12.800000 0.000000 7.500000
      vertex 13.602129 0.000000 9.968698
      vertex 7.500000 0.000000 15.000000
    endloop
  endfacet
  facet normal 0.000000 -1.000000 0.000000
    outer loop
      vertex 20.397871 0.000000 5.031302
      vertex 18.297871 0.000000 3.505563
      vertex 25.000000 0.000000 0.000000
    endloop
  endfacet
  facet normal 1.000000 0.000000 -0.000000
    outer loop
      vertex 25.000000 0.000000 15.000000
      vertex 25.000000 0.000000 0.000000
      vertex 25.000000 4.750000 0.000000
    endloop
  endfacet
  facet normal 1.000000 0.000000 0.000000
    outer loop
      vertex 25.000000 4.750000 15.000000
      vertex 25.000000 0.000000 15.000000
      vertex 25.000000 4.750000 0.000000
    endloop
  endfacet
  facet normal 0.000000 1.000000 0.000000
    outer loop
      vertex 15.702129 4.750000 11.494437
      vertex 10.657451 4.750000 15.000000
      vertex 18.297871 4.750000 11.494437
    endloop
  endfacet
  facet normal 0.000000 1.000000 -0.000000
    outer loop
      vertex 15.702129 4.750000 3.505563
      vertex 25.000000 4.750000 0.000000
      vertex 10.657451 4.750000 0.000000
    endloop
  endfacet
  facet normal 0.000000 1.000000 -0.000000
    outer loop
      vertex 20.397871 4.750000 5.031302
      vertex 25.000000 4.750000 0.000000
      vertex 18.297871 4.750000 3.505563
    endloop
  endfacet
  facet normal 0.000000 1.000000 -0.000000
    outer loop
      vertex 12.800000 4.750000 7.500000
      vertex 13.602129 4.750000 5.031302
      vertex 10.657451 4.750000 0.000000
    endloop
  endfacet
  facet normal 0.000000 1.000000 -0.000000
    outer loop
      vertex 13.602129 4.750000 5.031302
      vertex 15.702129 4.750000 3.505563
      vertex 10.657451 4.750000 0.000000
    endloop
  endfacet
  facet normal 0.000000 1.000000 0.000000
    outer loop
      vertex 25.000000 4.750000 15.000000
      vertex 25.000000 4.750000 0.000000
      vertex 20.397871 4.750000 5.031302
    endloop
  endfacet
  facet normal 0.000000 1.000000 0.000000
    outer loop
      vertex 25.000000 4.750000 15.000000
      vertex 20.397871 4.750000 5.031302
      vertex 21.200000 4.750000 7.500000
    endloop
  endfacet
  facet normal 0.000000 1.000000 0.000000
    outer loop
      vertex 25.000000 4.750000 15.000000
      vertex 21.200000 4.750000 7.500000
      vertex 20.397871 4.750000 9.968698
    endloop
  endfacet
  facet normal 0.000000 1.000000 0.000000
    outer loop
      vertex 25.000000 4.750000 15.000000
      vertex 20.397871 4.750000 9.968698
      vertex 18.297871 4.750000 11.494437
    endloop
  endfacet
  facet normal 0.000000 1.000000 0.000000
    outer loop
      vertex 25.000000 4.750000 15.000000
      vertex 18.297871 4.750000 11.494437
      vertex 10.657451 4.750000 15.000000
    endloop
  endfacet
  facet normal 0.000000 1.000000 0.000000
    outer loop
      vertex 13.602129 4.750000 9.968698
      vertex 10.657451 4.750000 15.000000
      vertex 15.702129 4.750000 11.494437
    endloop
  endfacet
  facet normal 0.000000 1.000000 0.000000
    outer loop
      vertex 12.800000 4.750000 7.500000
      vertex 10.657451 4.750000 15.000000
      vertex 13.602129 4.750000 9.968698
    endloop
  endfacet
  facet normal 0.000000 1.000000 -0.000000
    outer loop
      vertex 10.657451 4.750000 15.000000
      vertex 12.800000 4.750000 7.500000
      vertex 10.657451 4.750000 0.000000
    endloop
  endfacet
  facet normal 0.000000 1.000000 -0.000000
    outer loop
      vertex 18.297871 4.750000 3.505563
      vertex 25.000000 4.750000 0.000000
      vertex 15.702129 4.750000 3.505563
    endloop
  endfacet
  facet normal -0.642788 0.766044 0.000000
    outer loop
      vertex 10.657451 4.750000 15.000000
      vertex 10.657451 4.750000 0.000000
      vertex 9.600000 3.862693 15.000000
    endloop
  endfacet
  facet normal -0.642788 0.766044 0.000000
    outer loop
      vertex 9.600000 3.862693 15.000000
      vertex 10.657451 4.750000 0.000000
      vertex 9.600000 3.862693 0.000000
    endloop
  endfacet
  facet normal -0.342020 0.939693 0.000000
    outer loop
      vertex 9.600000 3.862693 15.000000
      vertex 9.600000 3.862693 0.000000
      vertex 8.229322 3.363807 15.000000
    endloop
  endfacet
  facet normal -0.342020 0.939693 0.000000
    outer loop
      vertex 8.229322 3.363807 15.000000
      vertex 9.600000 3.862693 0.000000
      vertex 8.229322 3.363807 0.000000
    endloop
  endfacet
  facet normal 0.000000 1.000000 0.000000
    outer loop
      vertex 8.229322 3.363807 15.000000
      vertex 8.229322 3.363807 0.000000
      vertex 6.770678 3.363807 15.000000
    endloop
  endfacet
  facet normal 0.000000 1.000000 -0.000000
    outer loop
      vertex 6.770678 3.363807 15.000000
      vertex 8.229322 3.363807 0.000000
      vertex 6.770678 3.363807 0.000000
    endloop
  endfacet
  facet normal 0.342020 0.939693 -0.000000
    outer loop
      vertex 6.770678 3.363807 15.000000
      vertex 6.770678 3.363807 0.000000
      vertex 5.400000 3.862693 15.000000
    endloop
  endfacet
  facet normal 0.342020 0.939693 -0.000000
    outer loop
      vertex 5.400000 3.862693 15.000000
      vertex 6.770678 3.363807 0.000000
      vertex 5.400000 3.862693 0.000000
    endloop
  endfacet
  facet normal 0.642788 0.766044 -0.000000
    outer loop
      vertex 5.400000 3.862693 15.000000
      vertex 5.400000 3.862693 0.000000
      vertex 4.282613 4.800292 15.000000
    endloop
  endfacet
  facet normal 0.642788 0.766044 -0.000000
    outer loop
      vertex 4.282613 4.800292 15.000000
      vertex 5.400000 3.862693 0.000000
      vertex 4.282613 4.800292 0.000000
    endloop
  endfacet
  facet normal 0.866025 0.500000 0.000000
    outer loop
      vertex 3.553291 6.063515 15.000000
      vertex 4.282613 4.800292 15.000000
      vertex 4.282613 4.800292 0.000000
    endloop
  endfacet
  facet normal 0.866025 0.500000 0.000000
    outer loop
      vertex 3.553291 6.063515 0.000000
      vertex 3.553291 6.063515 15.000000
      vertex 4.282613 4.800292 0.000000
    endloop
  endfacet
  facet normal 0.984808 0.173648 0.000000
    outer loop
      vertex 3.300000 7.500000 15.000000
      vertex 3.553291 6.063515 15.000000
      vertex 3.553291 6.063515 0.000000
    endloop
  endfacet
  facet normal 0.984808 0.173648 0.000000
    outer loop
      vertex 3.300000 7.500000 0.000000
      vertex 3.300000 7.500000 15.000000
      vertex 3.553291 6.063515 0.000000
    endloop
  endfacet
  facet normal 0.984808 -0.173648 0.000000
    outer loop
      vertex 3.553291 8.936485 0.000000
      vertex 3.553291 8.936485 15.000000
      vertex 3.300000 7.500000 15.000000
    endloop
  endfacet
  facet normal 0.984808 -0.173648 0.000000
    outer loop
      vertex 3.300000 7.500000 0.000000
      vertex 3.553291 8.936485 0.000000
      vertex 3.300000 7.500000 15.000000
    endloop
  endfacet
  facet normal 0.866025 -0.500000 0.000000
    outer loop
      vertex 4.282613 10.199708 0.000000
      vertex 4.282613 10.199708 15.000000
      vertex 3.553291 8.936485 15.000000
    endloop
  endfacet
  facet normal 0.866025 -0.500000 0.000000
    outer loop
      vertex 3.553291 8.936485 0.000000
      vertex 4.282613 10.199708 0.000000
      vertex 3.553291 8.936485 15.000000
    endloop
  endfacet
  facet normal 0.642788 -0.766044 0.000000
    outer loop
      vertex 5.400000 11.137307 0.000000
      vertex 5.400000 11.137307 15.000000
      vertex 4.282613 10.199708 15.000000
    endloop
  endfacet
  facet normal 0.642788 -0.766044 0.000000
    outer loop
      vertex 4.282613 10.199708 0.000000
      vertex 5.400000 11.137307 0.000000
      vertex 4.282613 10.199708 15.000000
    endloop
  endfacet
  facet normal 0.342020 -0.939693 0.000000
    outer loop
      vertex 6.770678 11.636193 0.000000
      vertex 6.770678 11.636193 15.000000
      vertex 5.400000 11.137307 15.000000
    endloop
  endfacet
  facet normal 0.342020 -0.939693 0.000000
    outer loop
      vertex 5.400000 11.137307 0.000000
      vertex 6.770678 11.636193 0.000000
      vertex 5.400000 11.137307 15.000000
    endloop
  endfacet
  facet normal 0.000000 -1.000000 0.000000
    outer loop
      vertex 8.229322 11.636193 0.000000
      vertex 8.229322 11.636193 15.000000
      vertex 6.770678 11.636193 15.000000
    endloop
  endfacet
  facet normal -0.000000 -1.000000 -0.000000
    outer loop
      vertex 6.770678 11.636193 0.000000
      vertex 8.229322 11.636193 0.000000
      vertex 6.770678 11.636193 15.000000
    endloop
  endfacet
  facet normal -0.342020 -0.939693 -0.000000
    outer loop
      vertex 9.600000 11.137307 0.000000
      vertex 9.600000 11.137307 15.000000
      vertex 8.229322 11.636193 15.000000
    endloop
  endfacet
  facet normal -0.342020 -0.939693 -0.000000
    outer loop
      vertex 8.229322 11.636193 0.000000
      vertex 9.600000 11.137307 0.000000
      vertex 8.229322 11.636193 15.000000
    endloop
  endfacet
  facet normal -0.642788 -0.766044 -0.000000
    outer loop
      vertex 10.717387 10.199708 0.000000
      vertex 10.717387 10.199708 15.000000
      vertex 9.600000 11.137307 15.000000
    endloop
  endfacet
  facet normal -0.642788 -0.766044 -0.000000
    outer loop
      vertex 9.600000 11.137307 0.000000
      vertex 10.717387 10.199708 0.000000
      vertex 9.600000 11.137307 15.000000
    endloop
  endfacet
  facet normal -0.866025 -0.500000 0.000000
    outer loop
      vertex 10.977026 9.750000 15.000000
      vertex 10.717387 10.199708 15.000000
      vertex 10.977026 9.750000 0.000000
    endloop
  endfacet
  facet normal -0.866025 -0.500000 0.000000
    outer loop
      vertex 10.977026 9.750000 0.000000
      vertex 10.717387 10.199708 15.000000
      vertex 10.717387 10.199708 0.000000
    endloop
  endfacet
  facet normal 0.000000 -1.000000 -0.000000
    outer loop
      vertex 15.702129 9.750000 11.494437
      vertex 25.000000 9.750000 15.000000
      vertex 10.977026 9.750000 15.000000
    endloop
  endfacet
  facet normal 0.000000 -1.000000 0.000000
    outer loop
      vertex 21.200000 9.750000 7.500000
      vertex 20.397871 9.750000 5.031302
      vertex 25.000000 9.750000 0.000000
    endloop
  endfacet
  facet normal 0.000000 -1.000000 -0.000000
    outer loop
      vertex 10.977026 9.750000 0.000000
      vertex 12.800000 9.750000 7.500000
      vertex 10.977026 9.750000 15.000000
    endloop
  endfacet
  facet normal 0.000000 -1.000000 -0.000000
    outer loop
      vertex 12.800000 9.750000 7.500000
      vertex 13.602129 9.750000 9.968698
      vertex 10.977026 9.750000 15.000000
    endloop
  endfacet
  facet normal 0.000000 -1.000000 -0.000000
    outer loop
      vertex 18.297871 9.750000 11.494437
      vertex 25.000000 9.750000 15.000000
      vertex 15.702129 9.750000 11.494437
    endloop
  endfacet
  facet normal 0.000000 -1.000000 -0.000000
    outer loop
      vertex 20.397871 9.750000 9.968698
      vertex 25.000000 9.750000 15.000000
      vertex 18.297871 9.750000 11.494437
    endloop
  endfacet
  facet normal 0.000000 -1.000000 0.000000
    outer loop
      vertex 25.000000 9.750000 0.000000
      vertex 25.000000 9.750000 15.000000
      vertex 20.397871 9.750000 9.968698
    endloop
  endfacet
  facet normal 0.000000 -1.000000 0.000000
    outer loop
      vertex 20.397871 9.750000 5.031302
      vertex 18.297871 9.750000 3.505563
      vertex 25.000000 9.750000 0.000000
    endloop
  endfacet
  facet normal 0.000000 -1.000000 0.000000
    outer loop
      vertex 25.000000 9.750000 0.000000
      vertex 20.397871 9.750000 9.968698
      vertex 21.200000 9.750000 7.500000
    endloop
  endfacet
  facet normal -0.000000 -1.000000 0.000000
    outer loop
      vertex 10.977026 9.750000 0.000000
      vertex 25.000000 9.750000 0.000000
      vertex 18.297871 9.750000 3.505563
    endloop
  endfacet
  facet normal 0.000000 -1.000000 0.000000
    outer loop
      vertex 10.977026 9.750000 0.000000
      vertex 18.297871 9.750000 3.505563
      vertex 15.702129 9.750000 3.505563
    endloop
  endfacet
  facet normal 0.000000 -1.000000 0.000000
    outer loop
      vertex 10.977026 9.750000 0.000000
      vertex 13.602129 9.750000 5.031302
      vertex 12.800000 9.750000 7.500000
    endloop
  endfacet
  facet normal 0.000000 -1.000000 0.000000
    outer loop
      vertex 10.977026 9.750000 0.000000
      vertex 15.702129 9.750000 3.505563
      vertex 13.602129 9.750000 5.031302
    endloop
  endfacet
  facet normal 0.000000 -1.000000 -0.000000
    outer loop
      vertex 13.602129 9.750000 9.968698
      vertex 15.702129 9.750000 11.494437
      vertex 10.977026 9.750000 15.000000
    endloop
  endfacet
  facet normal 1.000000 0.000000 -0.000000
    outer loop
      vertex 25.000000 9.750000 15.000000
      vertex 25.000000 9.750000 0.000000
      vertex 25.000000 15.000000 0.000000
    endloop
  endfacet
  facet normal 1.000000 0.000000 0.000000
    outer loop
      vertex 25.000000 15.000000 15.000000
      vertex 25.000000 9.750000 15.000000
      vertex 25.000000 15.000000 0.000000
    endloop
  endfacet
  facet normal 0.000000 1.000000 -0.000000
    outer loop
      vertex 18.297871 15.000000 3.505563
      vertex 25.000000 15.000000 0.000000
      vertex 15.702129 15.000000 3.505563
    endloop
  endfacet
  facet normal 0.000000 1.000000 0.000000
    outer loop
      vertex 18.297871 15.000000 11.494437
      vertex 7.500000 15.000000 15.000000
      vertex 25.000000 15.000000 15.000000
    endloop
  endfacet
  facet normal 0.000000 1.000000 0.000000
    outer loop
      vertex 7.500000 15.000000 0.000000
      vertex 7.500000 15.000000 15.000000
      vertex 12.800000 15.000000 7.500000
    endloop
  endfacet
  facet normal 0.000000 1.000000 0.000000
    outer loop
      vertex 7.500000 15.000000 0.000000
      vertex 12.800000 15.000000 7.500000
      vertex 13.602129 15.000000 5.031302
    endloop
  endfacet
  facet normal 0.000000 1.000000 0.000000
    outer loop
      vertex 7.500000 15.000000 0.000000
      vertex 13.602129 15.000000 5.031302
      vertex 15.702129 15.000000 3.505563
    endloop
  endfacet
  facet normal 0.000000 1.000000 0.000000
    outer loop
      vertex 7.500000 15.000000 0.000000
      vertex 15.702129 15.000000 3.505563
      vertex 25.000000 15.000000 0.000000
    endloop
  endfacet
  facet normal 0.000000 1.000000 -0.000000
    outer loop
      vertex 20.397871 15.000000 5.031302
      vertex 25.000000 15.000000 0.000000
      vertex 18.297871 15.000000 3.505563
    endloop
  endfacet
  facet normal 0.000000 1.000000 0.000000
    outer loop
      vertex 25.000000 15.000000 0.000000
      vertex 20.397871 15.000000 5.031302
      vertex 25.000000 15.000000 15.000000
    endloop
  endfacet
  facet normal 0.000000 1.000000 0.000000
    outer loop
      vertex 20.397871 15.000000 5.031302
      vertex 21.200000 15.000000 7.500000
      vertex 25.000000 15.000000 15.000000
    endloop
  endfacet
  facet normal 0.000000 1.000000 0.000000
    outer loop
      vertex 13.602129 15.000000 9.968698
      vertex 7.500000 15.000000 15.000000
      vertex 15.702129 15.000000 11.494437
    endloop
  endfacet
  facet normal 0.000000 1.000000 0.000000
    outer loop
      vertex 21.200000 15.000000 7.500000
      vertex 20.397871 15.000000 9.968698
      vertex 25.000000 15.000000 15.000000
    endloop
  endfacet
  facet normal 0.000000 1.000000 0.000000
    outer loop
      vertex 20.397871 15.000000 9.968698
      vertex 18.297871 15.000000 11.494437
      vertex 25.000000 15.000000 15.000000
    endloop
  endfacet
  facet normal 0.000000 1.000000 0.000000
    outer loop
      vertex 15.702129 15.000000 11.494437
      vertex 7.500000 15.000000 15.000000
      vertex 18.297871 15.000000 11.494437
    endloop
  endfacet
  facet normal 0.000000 1.000000 0.000000
    outer loop
      vertex 12.800000 15.000000 7.500000
      vertex 7.500000 15.000000 15.000000
      vertex 13.602129 15.000000 9.968698
    endloop
  endfacet
  facet normal -0.156434 0.987688 0.000000
    outer loop
      vertex 5.182373 14.632924 0.000000
      vertex 5.182373 14.632924 15.000000
      vertex 7.500000 15.000000 0.000000
    endloop
  endfacet
  facet normal -0.156434 0.987688 0.000000
    outer loop
      vertex 7.500000 15.000000 0.000000
      vertex 5.182373 14.632924 15.000000
      vertex 7.500000 15.000000 15.000000
    endloop
  endfacet
  facet normal -0.453991 0.891006 0.000000
    outer loop
      vertex 3.091611 13.567627 0.000000
      vertex 3.091611 13.567627 15.000000
      vertex 5.182373 14.632924 0.000000
    endloop
  endfacet
  facet normal -0.453991 0.891006 0.000000
    outer loop
      vertex 5.182373 14.632924 0.000000
      vertex 3.091611 13.567627 15.000000
      vertex 5.182373 14.632924 15.000000
    endloop
  endfacet
  facet normal -0.707107 0.707107 0.000000
    outer loop
      vertex 1.432373 11.908389 0.000000
      vertex 1.432373 11.908389 15.000000
      vertex 3.091611 13.567627 0.000000
    endloop
  endfacet
  facet normal -0.707107 0.707107 0.000000
    outer loop
      vertex 3.091611 13.567627 0.000000
      vertex 1.432373 11.908389 15.000000
      vertex 3.091611 13.567627 15.000000
    endloop
  endfacet
  facet normal -0.891006 0.453991 0.000000
    outer loop
      vertex 0.367076 9.817627 0.000000
      vertex 0.367076 9.817627 15.000000
      vertex 1.432373 11.908389 0.000000
    endloop
  endfacet
  facet normal -0.891006 0.453991 0.000000
    outer loop
      vertex 1.432373 11.908389 0.000000
      vertex 0.367076 9.817627 15.000000
      vertex 1.432373 11.908389 15.000000
    endloop
  endfacet
  facet normal 0.000000 0.000000 1.000000
    outer loop
      vertex 0.367076 9.817627 15.000000
      vertex 0.000000 7.500000 15.000000
      vertex 0.367076 5.182373 15.000000
    endloop
  endfacet
  facet normal 0.000000 0.000000 1.000000
    outer loop
      vertex 3.091611 1.432373 15.000000
      vertex 0.367076 9.817627 15.000000
      vertex 1.432373 3.091611 15.000000
    endloop
  endfacet
  facet normal 0.000000 0.000000 1.000000
    outer loop
      vertex 1.432373 3.091611 15.000000
      vertex 0.367076 9.817627 15.000000
      vertex 0.367076 5.182373 15.000000
    endloop
  endfacet
  facet normal 0.000000 0.000000 1.000000
    outer loop
      vertex 5.182373 0.367076 15.000000
      vertex 0.367076 9.817627 15.000000
      vertex 3.091611 1.432373 15.000000
    endloop
  endfacet
  facet normal 0.000000 0.000000 1.000000
    outer loop
      vertex 7.500000 0.000000 15.000000
      vertex 0.367076 9.817627 15.000000
      vertex 5.182373 0.367076 15.000000
    endloop
  endfacet
  facet normal -0.000000 -0.000000 1.000000
    outer loop
      vertex 4.282613 4.800292 15.000000
      vertex 0.367076 9.817627 15.000000
      vertex 7.500000 0.000000 15.000000
    endloop
  endfacet
  facet normal 0.000000 0.000000 1.000000
    outer loop
      vertex 4.282613 4.800292 15.000000
      vertex 3.553291 6.063515 15.000000
      vertex 0.367076 9.817627 15.000000
    endloop
  endfacet
  facet normal -0.000000 0.000000 1.000000
    outer loop
      vertex 25.000000 0.000000 15.000000
      vertex 10.657451 4.750000 15.000000
      vertex 7.500000 0.000000 15.000000
    endloop
  endfacet
  facet normal 0.000000 0.000000 1.000000
    outer loop
      vertex 10.657451 4.750000 15.000000
      vertex 9.600000 3.862693 15.000000
      vertex 7.500000 0.000000 15.000000
    endloop
  endfacet
  facet normal 0.000000 0.000000 1.000000
    outer loop
      vertex 3.553291 8.936485 15.000000
      vertex 4.282613 10.199708 15.000000
      vertex 0.367076 9.817627 15.000000
    endloop
  endfacet
  facet normal 0.000000 0.000000 1.000000
    outer loop
      vertex 9.600000 3.862693 15.000000
      vertex 8.229322 3.363807 15.000000
      vertex 7.500000 0.000000 15.000000
    endloop
  endfacet
  facet normal 0.000000 0.000000 1.000000
    outer loop
      vertex 8.229322 3.363807 15.000000
      vertex 6.770678 3.363807 15.000000
      vertex 7.500000 0.000000 15.000000
    endloop
  endfacet
  facet normal -0.000000 -0.000000 1.000000
    outer loop
      vertex 6.770678 3.363807 15.000000
      vertex 5.400000 3.862693 15.000000
      vertex 7.500000 0.000000 15.000000
    endloop
  endfacet
  facet normal -0.000000 -0.000000 1.000000
    outer loop
      vertex 5.400000 3.862693 15.000000
      vertex 4.282613 4.800292 15.000000
      vertex 7.500000 0.000000 15.000000
    endloop
  endfacet
  facet normal 0.000000 0.000000 1.000000
    outer loop
      vertex 3.300000 7.500000 15.000000
      vertex 3.553291 8.936485 15.000000
      vertex 0.367076 9.817627 15.000000
    endloop
  endfacet
  facet normal 0.000000 0.000000 1.000000
    outer loop
      vertex 10.977026 9.750000 15.000000
      vertex 25.000000 9.750000 15.000000
      vertex 10.717387 10.199708 15.000000
    endloop
  endfacet
  facet normal 0.000000 0.000000 1.000000
    outer loop
      vertex 3.553291 6.063515 15.000000
      vertex 3.300000 7.500000 15.000000
      vertex 0.367076 9.817627 15.000000
    endloop
  endfacet
  facet normal 0.000000 0.000000 1.000000
    outer loop
      vertex 5.400000 11.137307 15.000000
      vertex 0.367076 9.817627 15.000000
      vertex 4.282613 10.199708 15.000000
    endloop
  endfacet
  facet normal 0.000000 0.000000 1.000000
    outer loop
      vertex 6.770678 11.636193 15.000000
      vertex 0.367076 9.817627 15.000000
      vertex 5.400000 11.137307 15.000000
    endloop
  endfacet
  facet normal 0.000000 0.000000 1.000000
    outer loop
      vertex 10.717387 10.199708 15.000000
      vertex 25.000000 9.750000 15.000000
      vertex 9.600000 11.137307 15.000000
    endloop
  endfacet
  facet normal 0.000000 0.000000 1.000000
    outer loop
      vertex 7.500000 15.000000 15.000000
      vertex 0.367076 9.817627 15.000000
      vertex 6.770678 11.636193 15.000000
    endloop
  endfacet
  facet normal 0.000000 0.000000 1.000000
    outer loop
      vertex 25.000000 15.000000 15.000000
      vertex 6.770678 11.636193 15.000000
      vertex 8.229322 11.636193 15.000000
    endloop
  endfacet
  facet normal 0.000000 0.000000 1.000000
    outer loop
      vertex 25.000000 9.750000 15.000000
      vertex 8.229322 11.636193 15.000000
      vertex 9.600000 11.137307 15.000000
    endloop
  endfacet
  facet normal 0.000000 0.000000 1.000000
    outer loop
      vertex 25.000000 15.000000 15.000000
      vertex 8.229322 11.636193 15.000000
      vertex 25.000000 9.750000 15.000000
    endloop
  endfacet
  facet normal 0.000000 -0.000000 1.000000
    outer loop
      vertex 7.500000 15.000000 15.000000
      vertex 6.770678 11.636193 15.000000
      vertex 25.000000 15.000000 15.000000
    endloop
  endfacet
  facet normal 0.000000 -0.000000 1.000000
    outer loop
      vertex 5.182373 14.632924 15.000000
      vertex 0.367076 9.817627 15.000000
      vertex 7.500000 15.000000 15.000000
    endloop
  endfacet
  facet normal 0.000000 -0.000000 1.000000
    outer loop
      vertex 3.091611 13.567627 15.000000
      vertex 0.367076 9.817627 15.000000
      vertex 5.182373 14.632924 15.000000
    endloop
  endfacet
  facet normal 0.000000 -0.000000 1.000000
    outer loop
      vertex 1.432373 11.908389 15.000000
      vertex 0.367076 9.817627 15.000000
      vertex 3.091611 13.567627 15.000000
    endloop
  endfacet
  facet normal 0.000000 0.000000 1.000000
    outer loop
      vertex 25.000000 4.750000 15.000000
      vertex 10.657451 4.750000 15.000000
      vertex 25.000000 0.000000 15.000000
    endloop
  endfacet
  facet normal 0.951056 0.000000 0.309017
    outer loop
      vertex 13.602129 0.000000 5.031302
      vertex 13.602129 4.750000 5.031302
      vertex 12.800000 4.750000 7.500000
    endloop
  endfacet
  facet normal 0.951056 0.000000 0.309017
    outer loop
      vertex 12.800000 0.000000 7.500000
      vertex 13.602129 0.000000 5.031302
      vertex 12.800000 4.750000 7.500000
    endloop
  endfacet
  facet normal 0.587785 0.000000 0.809017
    outer loop
      vertex 15.702129 0.000000 3.505563
      vertex 15.702129 4.750000 3.505563
      vertex 13.602129 4.750000 5.031302
    endloop
  endfacet
  facet normal 0.587785 0.000000 0.809017
    outer loop
      vertex 13.602129 0.000000 5.031302
      vertex 15.702129 0.000000 3.505563
      vertex 13.602129 4.750000 5.031302
    endloop
  endfacet
  facet normal 0.000000 0.000000 1.000000
    outer loop
      vertex 18.297871 0.000000 3.505563
      vertex 18.297871 4.750000 3.505563
      vertex 15.702129 4.750000 3.505563
    endloop
  endfacet
  facet normal 0.000000 0.000000 1.000000
    outer loop
      vertex 15.702129 0.000000 3.505563
      vertex 18.297871 0.000000 3.505563
      vertex 15.702129 4.750000 3.505563
    endloop
  endfacet
  facet normal -0.587785 0.000000 0.809017
    outer loop
      vertex 20.397871 0.000000 5.031302
      vertex 20.397871 4.750000 5.031302
      vertex 18.297871 4.750000 3.505563
    endloop
  endfacet
  facet normal -0.587785 0.000000 0.809017
    outer loop
      vertex 18.297871 0.000000 3.505563
      vertex 20.397871 0.000000 5.031302
      vertex 18.297871 4.750000 3.505563
    endloop
  endfacet
  facet normal -0.951056 0.000000 0.309017
    outer loop
      vertex 21.200000 4.750000 7.500000
      vertex 20.397871 4.750000 5.031302
      vertex 21.200000 0.000000 7.500000
    endloop
  endfacet
  facet normal -0.951056 0.000000 0.309017
    outer loop
      vertex 21.200000 0.000000 7.500000
      vertex 20.397871 4.750000 5.031302
      vertex 20.397871 0.000000 5.031302
    endloop
  endfacet
  facet normal -0.951056 -0.000000 -0.309017
    outer loop
      vertex 21.200000 4.750000 7.500000
      vertex 21.200000 0.000000 7.500000
      vertex 20.397871 4.750000 9.968698
    endloop
  endfacet
  facet normal -0.951056 0.000000 -0.309017
    outer loop
      vertex 20.397871 4.750000 9.968698
      vertex 21.200000 0.000000 7.500000
      vertex 20.397871 0.000000 9.968698
    endloop
  endfacet
  facet normal -0.587785 0.000000 -0.809017
    outer loop
      vertex 20.397871 4.750000 9.968698
      vertex 20.397871 0.000000 9.968698
      vertex 18.297871 4.750000 11.494437
    endloop
  endfacet
  facet normal -0.587785 0.000000 -0.809017
    outer loop
      vertex 18.297871 4.750000 11.494437
      vertex 20.397871 0.000000 9.968698
      vertex 18.297871 0.000000 11.494437
    endloop
  endfacet
  facet normal 0.000000 0.000000 -1.000000
    outer loop
      vertex 18.297871 4.750000 11.494437
      vertex 18.297871 0.000000 11.494437
      vertex 15.702129 4.750000 11.494437
    endloop
  endfacet
  facet normal 0.000000 0.000000 -1.000000
    outer loop
      vertex 15.702129 4.750000 11.494437
      vertex 18.297871 0.000000 11.494437
      vertex 15.702129 0.000000 11.494437
    endloop
  endfacet
  facet normal 0.587785 0.000000 -0.809017
    outer loop
      vertex 15.702129 4.750000 11.494437
      vertex 15.702129 0.000000 11.494437
      vertex 13.602129 4.750000 9.968698
    endloop
  endfacet
  facet normal 0.587785 0.000000 -0.809017
    outer loop
      vertex 13.602129 4.750000 9.968698
      vertex 15.702129 0.000000 11.494437
      vertex 13.602129 0.000000 9.968698
    endloop
  endfacet
  facet normal 0.951056 0.000000 -0.309017
    outer loop
      vertex 12.800000 4.750000 7.500000
      vertex 13.602129 4.750000 9.968698
      vertex 13.602129 0.000000 9.968698
    endloop
  endfacet
  facet normal 0.951056 -0.000000 -0.309017
    outer loop
      vertex 12.800000 0.000000 7.500000
      vertex 12.800000 4.750000 7.500000
      vertex 13.602129 0.000000 9.968698
    endloop
  endfacet
  facet normal 0.951056 0.000000 0.309017
    outer loop
      vertex 13.602129 9.750000 5.031302
      vertex 13.602129 15.000000 5.031302
      vertex 12.800000 15.000000 7.500000
    endloop
  endfacet
  facet normal 0.951056 0.000000 0.309017
    outer loop
      vertex 12.800000 9.750000 7.500000
      vertex 13.602129 9.750000 5.031302
      vertex 12.800000 15.000000 7.500000
    endloop
  endfacet
  facet normal 0.951056 0.000000 -0.309017
    outer loop
      vertex 12.800000 15.000000 7.500000
      vertex 13.602129 15.000000 9.968698
      vertex 13.602129 9.750000 9.968698
    endloop
  endfacet
  facet normal 0.951056 0.000000 -0.309017
    outer loop
      vertex 12.800000 9.750000 7.500000
      vertex 12.800000 15.000000 7.500000
      vertex 13.602129 9.750000 9.968698
    endloop
  endfacet
  facet normal 0.587785 0.000000 0.809017
    outer loop
      vertex 15.702129 9.750000 3.505563
      vertex 15.702129 15.000000 3.505563
      vertex 13.602129 15.000000 5.031302
    endloop
  endfacet
  facet normal 0.587785 0.000000 0.809017
    outer loop
      vertex 13.602129 9.750000 5.031302
      vertex 15.702129 9.750000 3.505563
      vertex 13.602129 15.000000 5.031302
    endloop
  endfacet
  facet normal 0.000000 0.000000 1.000000
    outer loop
      vertex 18.297871 9.750000 3.505563
      vertex 18.297871 15.000000 3.505563
      vertex 15.702129 15.000000 3.505563
    endloop
  endfacet
  facet normal 0.000000 0.000000 1.000000
    outer loop
      vertex 15.702129 9.750000 3.505563
      vertex 18.297871 9.750000 3.505563
      vertex 15.702129 15.000000 3.505563
    endloop
  endfacet
  facet normal -0.587785 0.000000 0.809017
    outer loop
      vertex 20.397871 9.750000 5.031302
      vertex 20.397871 15.000000 5.031302
      vertex 18.297871 15.000000 3.505563
    endloop
  endfacet
  facet normal -0.587785 0.000000 0.809017
    outer loop
      vertex 18.297871 9.750000 3.505563
      vertex 20.397871 9.750000 5.031302
      vertex 18.297871 15.000000 3.505563
    endloop
  endfacet
  facet normal -0.951056 0.000000 0.309017
    outer loop
      vertex 21.200000 15.000000 7.500000
      vertex 20.397871 15.000000 5.031302
      vertex 21.200000 9.750000 7.500000
    endloop
  endfacet
  facet normal -0.951056 0.000000 0.309017
    outer loop
      vertex 21.200000 9.750000 7.500000
      vertex 20.397871 15.000000 5.031302
      vertex 20.397871 9.750000 5.031302
    endloop
  endfacet
  facet normal -0.951056 0.000000 -0.309017
    outer loop
      vertex 21.200000 15.000000 7.500000
      vertex 21.200000 9.750000 7.500000
      vertex 20.397871 15.000000 9.968698
    endloop
  endfacet
  facet normal -0.951056 0.000000 -0.309017
    outer loop
      vertex 20.397871 15.000000 9.968698
      vertex 21.200000 9.750000 7.500000
      vertex 20.397871 9.750000 9.968698
    endloop
  endfacet
  facet normal -0.587785 0.000000 -0.809017
    outer loop
      vertex 20.397871 15.000000 9.968698
      vertex 20.397871 9.750000 9.968698
      vertex 18.297871 15.000000 11.494437
    endloop
  endfacet
  facet normal -0.587785 0.000000 -0.809017
    outer loop
      vertex 18.297871 15.000000 11.494437
      vertex 20.397871 9.750000 9.968698
      vertex 18.297871 9.750000 11.494437
    endloop
  endfacet
  facet normal 0.000000 0.000000 -1.000000
    outer loop
      vertex 18.297871 15.000000 11.494437
      vertex 18.297871 9.750000 11.494437
      vertex 15.702129 15.000000 11.494437
    endloop
  endfacet
  facet normal 0.000000 0.000000 -1.000000
    outer loop
      vertex 15.702129 15.000000 11.494437
      vertex 18.297871 9.750000 11.494437
      vertex 15.702129 9.750000 11.494437
    endloop
  endfacet
  facet normal 0.587785 0.000000 -0.809017
    outer loop
      vertex 15.702129 15.000000 11.494437
      vertex 15.702129 9.750000 11.494437
      vertex 13.602129 15.000000 9.968698
    endloop
  endfacet
  facet normal 0.587785 0.000000 -0.809017
    outer loop
      vertex 13.602129 15.000000 9.968698
      vertex 15.702129 9.750000 11.494437
      vertex 13.602129 9.750000 9.968698
    endloop
  endfacet
endsolid OpenSCAD_Model
