solid OpenSCAD_Model
  facet normal -1.000000 -0.000000 -0.000000
    outer loop
      vertex 0.000000 0.000000 0.000000
      vertex 0.000000 0.000000 5.000000
      vertex 0.000000 10.000000 0.000000
    endloop
  endfacet
  facet normal -1.000000 0.000000 0.000000
    outer loop
      vertex 0.000000 10.000000 0.000000
      vertex 0.000000 0.000000 5.000000
      vertex 0.000000 10.000000 5.000000
    endloop
  endfacet
  facet normal 0.000000 -1.000000 0.000000
    outer loop
      vertex 0.000000 0.000000 5.000000
      vertex 0.000000 0.000000 0.000000
      vertex 26.000000 0.000000 0.000000
    endloop
  endfacet
  facet normal 0.000000 -1.000000 0.000000
    outer loop
      vertex 26.000000 0.000000 5.000000
      vertex 0.000000 0.000000 5.000000
      vertex 26.000000 0.000000 0.000000
    endloop
  endfacet
  facet normal -0.000000 -0.000000 -1.000000
    outer loop
      vertex 4.432214 6.893655 0.000000
      vertex 0.000000 10.000000 0.000000
      vertex 26.000000 0.000000 0.000000
    endloop
  endfacet
  facet normal 0.000000 -0.000000 -1.000000
    outer loop
      vertex 20.788962 6.518593 0.000000
      vertex 0.000000 10.000000 0.000000
      vertex 26.000000 10.000000 0.000000
    endloop
  endfacet
  facet normal 0.000000 -0.000000 -1.000000
    outer loop
      vertex 0.000000 0.000000 0.000000
      vertex 0.000000 10.000000 0.000000
      vertex 2.057647 5.000000 0.000000
    endloop
  endfacet
  facet normal 0.000000 0.000000 -1.000000
    outer loop
      vertex 0.000000 0.000000 0.000000
      vertex 2.057647 5.000000 0.000000
      vertex 2.788962 3.481407 0.000000
    endloop
  endfacet
  facet normal 0.000000 0.000000 -1.000000
    outer loop
      vertex 0.000000 0.000000 0.000000
      vertex 2.788962 3.481407 0.000000
      vertex 4.432214 3.106345 0.000000
    endloop
  endfacet
  facet normal -0.000000 0.000000 -1.000000
    outer loop
      vertex 0.000000 0.000000 0.000000
      vertex 4.432214 3.106345 0.000000
      vertex 26.000000 0.000000 0.000000
    endloop
  endfacet
  facet normal 0.000000 0.000000 -1.000000
    outer loop
      vertex 5.750000 5.842756 0.000000
      vertex 26.000000 0.000000 0.000000
      vertex 5.750000 4.157244 0.000000
    endloop
  endfacet
  facet normal 0.000000 0.000000 -1.000000
    outer loop
      vertex 22.432214 3.106345 0.000000
      vertex 26.000000 0.000000 0.000000
      vertex 20.788962 3.481407 0.000000
    endloop
  endfacet
  facet normal 0.000000 -0.000000 -1.000000
    outer loop
      vertex 2.788962 6.518593 0.000000
      vertex 0.000000 10.000000 0.000000
      vertex 4.432214 6.893655 0.000000
    endloop
  endfacet
  facet normal -0.000000 -0.000000 -1.000000
    outer loop
      vertex 5.750000 5.842756 0.000000
      vertex 4.432214 6.893655 0.000000
      vertex 26.000000 0.000000 0.000000
    endloop
  endfacet
  facet normal 0.000000 -0.000000 -1.000000
    outer loop
      vertex 2.057647 5.000000 0.000000
      vertex 0.000000 10.000000 0.000000
      vertex 2.788962 6.518593 0.000000
    endloop
  endfacet
  facet normal 0.000000 0.000000 -1.000000
    outer loop
      vertex 20.788962 3.481407 0.000000
      vertex 0.000000 10.000000 0.000000
      vertex 20.057647 5.000000 0.000000
    endloop
  endfacet
  facet normal 0.000000 0.000000 -1.000000
    outer loop
      vertex 26.000000 0.000000 0.000000
      vertex 0.000000 10.000000 0.000000
      vertex 20.788962 3.481407 0.000000
    endloop
  endfacet
  facet normal -0.000000 0.000000 -1.000000
    outer loop
      vertex 23.750000 5.842756 0.000000
      vertex 26.000000 10.000000 0.000000
      vertex 23.750000 4.157244 0.000000
    endloop
  endfacet
  facet normal 0.000000 0.000000 -1.000000
    outer loop
      vertex 26.000000 0.000000 0.000000
      vertex 22.432214 3.106345 0.000000
      vertex 23.750000 4.157244 0.000000
    endloop
  endfacet
  facet normal 0.000000 0.000000 -1.000000
    outer loop
      vertex 26.000000 0.000000 0.000000
      vertex 23.750000 4.157244 0.000000
      vertex 26.000000 10.000000 0.000000
    endloop
  endfacet
  facet normal 0.000000 0.000000 -1.000000
    outer loop
      vertex 20.788962 6.518593 0.000000
      vertex 26.000000 10.000000 0.000000
      vertex 22.432214 6.893655 0.000000
    endloop
  endfacet
  facet normal 0.000000 -0.000000 -1.000000
    outer loop
      vertex 23.750000 5.842756 0.000000
      vertex 22.432214 6.893655 0.000000
      vertex 26.000000 10.000000 0.000000
    endloop
  endfacet
  facet normal 0.000000 -0.000000 -1.000000
    outer loop
      vertex 20.057647 5.000000 0.000000
      vertex 0.000000 10.000000 0.000000
      vertex 20.788962 6.518593 0.000000
    endloop
  endfacet
  facet normal 0.000000 0.000000 -1.000000
    outer loop
      vertex 5.750000 4.157244 0.000000
      vertex 26.000000 0.000000 0.000000
      vertex 4.432214 3.106345 0.000000
    endloop
  endfacet
  facet normal 0.000000 1.000000 0.000000
    outer loop
      vertex 0.000000 10.000000 0.000000
      vertex 0.000000 10.000000 5.000000
      vertex 26.000000 10.000000 0.000000
    endloop
  endfacet
  facet normal 0.000000 1.000000 0.000000
    outer loop
      vertex 26.000000 10.000000 0.000000
      vertex 0.000000 10.000000 5.000000
      vertex 26.000000 10.000000 5.000000
    endloop
  endfacet
  facet normal 0.000000 -0.000000 1.000000
    outer loop
      vertex 4.432214 3.106345 5.000000
      vertex 0.000000 0.000000 5.000000
      vertex 26.000000 0.000000 5.000000
    endloop
  endfacet
  facet normal -0.000000 -0.000000 1.000000
    outer loop
      vertex 20.788962 3.481407 5.000000
      vertex 0.000000 10.000000 5.000000
      vertex 26.000000 0.000000 5.000000
    endloop
  endfacet
  facet normal 0.000000 0.000000 1.000000
    outer loop
      vertex 20.788962 6.518593 5.000000
      vertex 22.432214 6.893655 5.000000
      vertex 26.000000 10.000000 5.000000
    endloop
  endfacet
  facet normal 0.000000 -0.000000 1.000000
    outer loop
      vertex 2.057647 5.000000 5.000000
      vertex 0.000000 0.000000 5.000000
      vertex 2.788962 3.481407 5.000000
    endloop
  endfacet
  facet normal 0.000000 -0.000000 1.000000
    outer loop
      vertex 5.750000 5.842756 5.000000
      vertex 5.750000 4.157244 5.000000
      vertex 26.000000 0.000000 5.000000
    endloop
  endfacet
  facet normal 0.000000 -0.000000 1.000000
    outer loop
      vertex 0.000000 10.000000 5.000000
      vertex 0.000000 0.000000 5.000000
      vertex 2.057647 5.000000 5.000000
    endloop
  endfacet
  facet normal 0.000000 -0.000000 1.000000
    outer loop
      vertex 5.750000 4.157244 5.000000
      vertex 4.432214 3.106345 5.000000
      vertex 26.000000 0.000000 5.000000
    endloop
  endfacet
  facet normal 0.000000 0.000000 1.000000
    outer loop
      vertex 0.000000 10.000000 5.000000
      vertex 4.432214 6.893655 5.000000
      vertex 26.000000 0.000000 5.000000
    endloop
  endfacet
  facet normal 0.000000 0.000000 1.000000
    outer loop
      vertex 0.000000 10.000000 5.000000
      vertex 2.788962 6.518593 5.000000
      vertex 4.432214 6.893655 5.000000
    endloop
  endfacet
  facet normal 0.000000 0.000000 1.000000
    outer loop
      vertex 4.432214 6.893655 5.000000
      vertex 5.750000 5.842756 5.000000
      vertex 26.000000 0.000000 5.000000
    endloop
  endfacet
  facet normal 0.000000 -0.000000 1.000000
    outer loop
      vertex 2.788962 3.481407 5.000000
      vertex 0.000000 0.000000 5.000000
      vertex 4.432214 3.106345 5.000000
    endloop
  endfacet
  facet normal -0.000000 -0.000000 1.000000
    outer loop
      vertex 22.432214 3.106345 5.000000
      vertex 20.788962 3.481407 5.000000
      vertex 26.000000 0.000000 5.000000
    endloop
  endfacet
  facet normal -0.000000 -0.000000 1.000000
    outer loop
      vertex 20.057647 5.000000 5.000000
      vertex 0.000000 10.000000 5.000000
      vertex 20.788962 3.481407 5.000000
    endloop
  endfacet
  facet normal -0.000000 0.000000 1.000000
    outer loop
      vertex 20.788962 6.518593 5.000000
      vertex 0.000000 10.000000 5.000000
      vertex 20.057647 5.000000 5.000000
    endloop
  endfacet
  facet normal 0.000000 0.000000 1.000000
    outer loop
      vertex 22.432214 6.893655 5.000000
      vertex 23.750000 5.842756 5.000000
      vertex 26.000000 10.000000 5.000000
    endloop
  endfacet
  facet normal 0.000000 0.000000 1.000000
    outer loop
      vertex 26.000000 10.000000 5.000000
      vertex 0.000000 10.000000 5.000000
      vertex 20.788962 6.518593 5.000000
    endloop
  endfacet
  facet normal 0.000000 0.000000 1.000000
    outer loop
      vertex 26.000000 10.000000 5.000000
      vertex 23.750000 5.842756 5.000000
      vertex 26.000000 0.000000 5.000000
    endloop
  endfacet
  facet normal 0.000000 -0.000000 1.000000
    outer loop
      vertex 23.750000 5.842756 5.000000
      vertex 23.750000 4.157244 5.000000
      vertex 26.000000 0.000000 5.000000
    endloop
  endfacet
  facet normal 0.000000 -0.000000 1.000000
    outer loop
      vertex 23.750000 4.157244 5.000000
      vertex 22.432214 3.106345 5.000000
      vertex 26.000000 0.000000 5.000000
    endloop
  endfacet
  facet normal 0.000000 0.000000 1.000000
    outer loop
      vertex 2.057647 5.000000 5.000000
      vertex 2.788962 6.518593 5.000000
      vertex 0.000000 10.000000 5.000000
    endloop
  endfacet
  facet normal 1.000000 0.000000 -0.000000
    outer loop
      vertex 26.000000 0.000000 5.000000
      vertex 26.000000 0.000000 0.000000
      vertex 26.000000 10.000000 0.000000
    endloop
  endfacet
  facet normal 1.000000 0.000000 0.000000
    outer loop
      vertex 26.000000 10.000000 5.000000
      vertex 26.000000 0.000000 5.000000
      vertex 26.000000 10.000000 0.000000
    endloop
  endfacet
  facet normal 0.900969 0.433883 0.000000
    outer loop
      vertex 2.057647 5.000000 5.000000
      vertex 2.788962 3.481407 5.000000
      vertex 2.788962 3.481407 0.000000
    endloop
  endfacet
  facet normal 0.900969 0.433883 0.000000
    outer loop
      vertex 2.057647 5.000000 0.000000
      vertex 2.057647 5.000000 5.000000
      vertex 2.788962 3.481407 0.000000
    endloop
  endfacet
  facet normal 0.900969 -0.433883 0.000000
    outer loop
      vertex 2.788962 6.518593 0.000000
      vertex 2.788962 6.518593 5.000000
      vertex 2.057647 5.000000 5.000000
    endloop
  endfacet
  facet normal 0.900969 -0.433883 0.000000
    outer loop
      vertex 2.057647 5.000000 0.000000
      vertex 2.788962 6.518593 0.000000
      vertex 2.057647 5.000000 5.000000
    endloop
  endfacet
  facet normal 0.222521 -0.974928 0.000000
    outer loop
      vertex 4.432214 6.893655 0.000000
      vertex 4.432214 6.893655 5.000000
      vertex 2.788962 6.518593 5.000000
    endloop
  endfacet
  facet normal 0.222521 -0.974928 0.000000
    outer loop
      vertex 2.788962 6.518593 0.000000
      vertex 4.432214 6.893655 0.000000
      vertex 2.788962 6.518593 5.000000
    endloop
  endfacet
  facet normal -0.623490 -0.781832 -0.000000
    outer loop
      vertex 5.750000 5.842756 0.000000
      vertex 5.750000 5.842756 5.000000
      vertex 4.432214 6.893655 5.000000
    endloop
  endfacet
  facet normal -0.623490 -0.781832 -0.000000
    outer loop
      vertex 4.432214 6.893655 0.000000
      vertex 5.750000 5.842756 0.000000
      vertex 4.432214 6.893655 5.000000
    endloop
  endfacet
  facet normal -1.000000 0.000000 0.000000
    outer loop
      vertex 5.750000 5.842756 5.000000
      vertex 5.750000 5.842756 0.000000
      vertex 5.750000 4.157244 5.000000
    endloop
  endfacet
  facet normal -1.000000 0.000000 0.000000
    outer loop
      vertex 5.750000 4.157244 5.000000
      vertex 5.750000 5.842756 0.000000
      vertex 5.750000 4.157244 0.000000
    endloop
  endfacet
  facet normal -0.623490 0.781832 0.000000
    outer loop
      vertex 5.750000 4.157244 5.000000
      vertex 5.750000 4.157244 0.000000
      vertex 4.432214 3.106345 5.000000
    endloop
  endfacet
  facet normal -0.623490 0.781832 0.000000
    outer loop
      vertex 4.432214 3.106345 5.000000
      vertex 5.750000 4.157244 0.000000
      vertex 4.432214 3.106345 0.000000
    endloop
  endfacet
  facet normal 0.222521 0.974928 -0.000000
    outer loop
      vertex 4.432214 3.106345 5.000000
      vertex 4.432214 3.106345 0.000000
      vertex 2.788962 3.481407 5.000000
    endloop
  endfacet
  facet normal 0.222521 0.974928 -0.000000
    outer loop
      vertex 2.788962 3.481407 5.000000
      vertex 4.432214 3.106345 0.000000
      vertex 2.788962 3.481407 0.000000
    endloop
  endfacet
  facet normal 0.900969 0.433883 0.000000
    outer loop
      vertex 20.057647 5.000000 5.000000
      vertex 20.788962 3.481407 5.000000
      vertex 20.788962 3.481407 0.000000
    endloop
  endfacet
  facet normal 0.900969 0.433883 0.000000
    outer loop
      vertex 20.057647 5.000000 0.000000
      vertex 20.057647 5.000000 5.000000
      vertex 20.788962 3.481407 0.000000
    endloop
  endfacet
  facet normal 0.900969 -0.433883 0.000000
    outer loop
      vertex 20.788962 6.518593 0.000000
      vertex 20.788962 6.518593 5.000000
      vertex 20.057647 5.000000 5.000000
    endloop
  endfacet
  facet normal 0.900969 -0.433883 0.000000
    outer loop
      vertex 20.057647 5.000000 0.000000
      vertex 20.788962 6.518593 0.000000
      vertex 20.057647 5.000000 5.000000
    endloop
  endfacet
  facet normal 0.222521 -0.974928 0.000000
    outer loop
      vertex 22.432214 6.893655 0.000000
      vertex 22.432214 6.893655 5.000000
      vertex 20.788962 6.518593 5.000000
    endloop
  endfacet
  facet normal 0.222521 -0.974928 0.000000
    outer loop
      vertex 20.788962 6.518593 0.000000
      vertex 22.432214 6.893655 0.000000
      vertex 20.788962 6.518593 5.000000
    endloop
  endfacet
  facet normal -0.623490 -0.781832 -0.000000
    outer loop
      vertex 23.750000 5.842756 0.000000
      vertex 23.750000 5.842756 5.000000
      vertex 22.432214 6.893655 5.000000
    endloop
  endfacet
  facet normal -0.623490 -0.781832 -0.000000
    outer loop
      vertex 22.432214 6.893655 0.000000
      vertex 23.750000 5.842756 0.000000
      vertex 22.432214 6.893655 5.000000
    endloop
  endfacet
  facet normal -1.000000 0.000000 0.000000
    outer loop
      vertex 23.750000 5.842756 5.000000
      vertex 23.750000 5.842756 0.000000
      vertex 23.750000 4.157244 5.000000
    endloop
  endfacet
  facet normal -1.000000 0.000000 0.000000
    outer loop
      vertex 23.750000 4.157244 5.000000
      vertex 23.750000 5.842756 0.000000
      vertex 23.750000 4.157244 0.000000
    endloop
  endfacet
  facet normal -0.623490 0.781832 0.000000
    outer loop
      vertex 23.750000 4.157244 5.000000
      vertex 23.750000 4.157244 0.000000
      vertex 22.432214 3.106345 5.000000
    endloop
  endfacet
  facet normal -0.623490 0.781832 0.000000
    outer loop
      vertex 22.432214 3.106345 5.000000
      vertex 23.750000 4.157244 0.000000
      vertex 22.432214 3.106345 0.000000
    endloop
  endfacet
  facet normal 0.222521 0.974928 -0.000000
    outer loop
      vertex 22.432214 3.106345 5.000000
      vertex 22.432214 3.106345 0.000000
      vertex 20.788962 3.481407 5.000000
    endloop
  endfacet
  facet normal 0.222521 0.974928 -0.000000
    outer loop
      vertex 20.788962 3.481407 5.000000
      vertex 22.432214 3.106345 0.000000
      vertex 20.788962 3.481407 0.000000
    endloop
  endfacet
endsolid OpenSCAD_Model
