solid OpenSCAD_Model
  facet normal -0.000000 -0.000000 -1.000000
    outer loop
      vertex -7.901507 -1.251476 0.000000
      vertex -7.901507 0.434955 0.000000
      vertex -7.128052 -3.631924 0.000000
    endloop
  endfacet
  facet normal 0.000000 -0.000000 -1.000000
    outer loop
      vertex -7.128052 -3.631924 0.000000
      vertex -7.901507 0.434955 0.000000
      vertex -4.961577 1.805866 0.000000
    endloop
  endfacet
  facet normal 0.000000 0.000000 -1.000000
    outer loop
      vertex -4.961577 1.805866 0.000000
      vertex -6.327128 4.734301 0.000000
      vertex -5.656854 5.656854 0.000000
    endloop
  endfacet
  facet normal 0.000000 -0.000000 -1.000000
    outer loop
      vertex -4.961577 1.805866 0.000000
      vertex -5.656854 5.656854 0.000000
      vertex -3.631924 7.128052 0.000000
    endloop
  endfacet
  facet normal 0.000000 0.000000 -1.000000
    outer loop
      vertex -4.961577 1.805866 0.000000
      vertex -3.631924 7.128052 0.000000
      vertex -2.285524 7.565524 0.000000
    endloop
  endfacet
  facet normal -0.000000 0.000000 -1.000000
    outer loop
      vertex -4.961577 1.805866 0.000000
      vertex -2.285524 7.565524 0.000000
      vertex -7.128052 -3.631924 0.000000
    endloop
  endfacet
  facet normal 0.000000 -0.000000 -1.000000
    outer loop
      vertex -1.014609 4.773360 0.000000
      vertex -2.285524 7.565524 0.000000
      vertex 0.000000 5.280000 0.000000
    endloop
  endfacet
  facet normal 0.000000 -0.000000 -1.000000
    outer loop
      vertex 0.000000 4.880000 0.000000
      vertex 0.000000 5.280000 0.000000
      vertex 2.285524 7.565524 0.000000
    endloop
  endfacet
  facet normal 0.000000 0.000000 -1.000000
    outer loop
      vertex 1.014609 4.773360 0.000000
      vertex 2.285524 7.565524 0.000000
      vertex 3.631924 7.128052 0.000000
    endloop
  endfacet
  facet normal 0.000000 0.000000 -1.000000
    outer loop
      vertex 2.868392 3.948003 0.000000
      vertex 3.631924 7.128052 0.000000
      vertex 5.656854 5.656854 0.000000
    endloop
  endfacet
  facet normal 0.000000 0.000000 -1.000000
    outer loop
      vertex 3.626547 3.265357 0.000000
      vertex 5.656854 5.656854 0.000000
      vertex 6.327128 4.734301 0.000000
    endloop
  endfacet
  facet normal -0.000000 0.000000 -1.000000
    outer loop
      vertex 4.226204 2.440000 0.000000
      vertex 6.327128 4.734301 0.000000
      vertex 4.961577 1.805866 0.000000
    endloop
  endfacet
  facet normal -0.000000 0.000000 -1.000000
    outer loop
      vertex 4.853267 0.510099 0.000000
      vertex 4.961577 1.805866 0.000000
      vertex 7.901507 0.434955 0.000000
    endloop
  endfacet
  facet normal 0.000000 0.000000 -1.000000
    outer loop
      vertex 4.641156 -1.508003 0.000000
      vertex 7.901507 0.434955 0.000000
      vertex 7.901507 -1.251476 0.000000
    endloop
  endfacet
  facet normal -0.000000 0.000000 -1.000000
    outer loop
      vertex 3.436487 -3.436487 0.000000
      vertex 7.901507 -1.251476 0.000000
      vertex 7.128052 -3.631924 0.000000
    endloop
  endfacet
  facet normal -0.000000 0.000000 -1.000000
    outer loop
      vertex 3.626547 -3.265357 0.000000
      vertex 7.901507 -1.251476 0.000000
      vertex 3.436487 -3.436487 0.000000
    endloop
  endfacet
  facet normal -0.000000 0.000000 -1.000000
    outer loop
      vertex 4.641156 -1.508003 0.000000
      vertex 7.901507 -1.251476 0.000000
      vertex 4.226204 -2.440000 0.000000
    endloop
  endfacet
  facet normal -0.000000 0.000000 -1.000000
    outer loop
      vertex 4.226204 -2.440000 0.000000
      vertex 7.901507 -1.251476 0.000000
      vertex 3.626547 -3.265357 0.000000
    endloop
  endfacet
  facet normal -0.000000 0.000000 -1.000000
    outer loop
      vertex 4.853267 -0.510099 0.000000
      vertex 7.901507 0.434955 0.000000
      vertex 4.641156 -1.508003 0.000000
    endloop
  endfacet
  facet normal 0.000000 0.000000 -1.000000
    outer loop
      vertex 4.853267 0.510099 0.000000
      vertex 7.901507 0.434955 0.000000
      vertex 4.853267 -0.510099 0.000000
    endloop
  endfacet
  facet normal -0.000000 0.000000 -1.000000
    outer loop
      vertex 4.641156 1.508003 0.000000
      vertex 4.961577 1.805866 0.000000
      vertex 4.853267 0.510099 0.000000
    endloop
  endfacet
  facet normal 0.000000 0.000000 -1.000000
    outer loop
      vertex 4.226204 2.440000 0.000000
      vertex 4.961577 1.805866 0.000000
      vertex 4.641156 1.508003 0.000000
    endloop
  endfacet
  facet normal -0.000000 0.000000 -1.000000
    outer loop
      vertex 3.626547 3.265357 0.000000
      vertex 6.327128 4.734301 0.000000
      vertex 4.226204 2.440000 0.000000
    endloop
  endfacet
  facet normal -0.000000 0.000000 -1.000000
    outer loop
      vertex 2.868392 3.948003 0.000000
      vertex 5.656854 5.656854 0.000000
      vertex 3.626547 3.265357 0.000000
    endloop
  endfacet
  facet normal -0.000000 0.000000 -1.000000
    outer loop
      vertex 1.984875 4.458102 0.000000
      vertex 3.631924 7.128052 0.000000
      vertex 2.868392 3.948003 0.000000
    endloop
  endfacet
  facet normal -0.000000 0.000000 -1.000000
    outer loop
      vertex 1.014609 4.773360 0.000000
      vertex 3.631924 7.128052 0.000000
      vertex 1.984875 4.458102 0.000000
    endloop
  endfacet
  facet normal -0.000000 0.000000 -1.000000
    outer loop
      vertex 0.000000 4.880000 0.000000
      vertex 2.285524 7.565524 0.000000
      vertex 1.014609 4.773360 0.000000
    endloop
  endfacet
  facet normal 0.000000 0.000000 -1.000000
    outer loop
      vertex -1.014609 4.773360 0.000000
      vertex 0.000000 5.280000 0.000000
      vertex 0.000000 4.880000 0.000000
    endloop
  endfacet
  facet normal 0.000000 -0.000000 -1.000000
    outer loop
      vertex -1.984875 4.458102 0.000000
      vertex -2.285524 7.565524 0.000000
      vertex -1.014609 4.773360 0.000000
    endloop
  endfacet
  facet normal 0.000000 -0.000000 -1.000000
    outer loop
      vertex -4.853267 0.510099 0.000000
      vertex -7.128052 -3.631924 0.000000
      vertex -4.641156 1.508003 0.000000
    endloop
  endfacet
  facet normal 0.000000 0.000000 -1.000000
    outer loop
      vertex -2.868392 3.948003 0.000000
      vertex -2.285524 7.565524 0.000000
      vertex -1.984875 4.458102 0.000000
    endloop
  endfacet
  facet normal 0.000000 0.000000 -1.000000
    outer loop
      vertex -3.626547 3.265357 0.000000
      vertex -2.285524 7.565524 0.000000
      vertex -2.868392 3.948003 0.000000
    endloop
  endfacet
  facet normal 0.000000 0.000000 -1.000000
    outer loop
      vertex -4.226204 2.440000 0.000000
      vertex -2.285524 7.565524 0.000000
      vertex -3.626547 3.265357 0.000000
    endloop
  endfacet
  facet normal 0.000000 0.000000 -1.000000
    outer loop
      vertex -7.128052 -3.631924 0.000000
      vertex -2.285524 7.565524 0.000000
      vertex -4.226204 2.440000 0.000000
    endloop
  endfacet
  facet normal 0.000000 0.000000 -1.000000
    outer loop
      vertex -7.128052 -3.631924 0.000000
      vertex -4.226204 2.440000 0.000000
      vertex -4.641156 1.508003 0.000000
    endloop
  endfacet
  facet normal 0.000000 0.000000 -1.000000
    outer loop
      vertex -4.853267 -0.510099 0.000000
      vertex -7.128052 -3.631924 0.000000
      vertex -4.853267 0.510099 0.000000
    endloop
  endfacet
  facet normal 0.000000 0.000000 -1.000000
    outer loop
      vertex -4.641156 -1.508003 0.000000
      vertex -7.128052 -3.631924 0.000000
      vertex -4.853267 -0.510099 0.000000
    endloop
  endfacet
  facet normal 0.000000 0.000000 -1.000000
    outer loop
      vertex -4.226204 -2.440000 0.000000
      vertex -7.128052 -3.631924 0.000000
      vertex -4.641156 -1.508003 0.000000
    endloop
  endfacet
  facet normal 0.000000 0.000000 -1.000000
    outer loop
      vertex -3.626547 -3.265357 0.000000
      vertex -7.128052 -3.631924 0.000000
      vertex -4.226204 -2.440000 0.000000
    endloop
  endfacet
  facet normal 0.000000 -0.000000 -1.000000
    outer loop
      vertex -5.656854 -5.656854 0.000000
      vertex -7.128052 -3.631924 0.000000
      vertex -3.436487 -3.436487 0.000000
    endloop
  endfacet
  facet normal 0.000000 0.000000 -1.000000
    outer loop
      vertex -7.128052 -3.631924 0.000000
      vertex -3.626547 -3.265357 0.000000
      vertex -3.436487 -3.436487 0.000000
    endloop
  endfacet
  facet normal 0.000000 0.000000 -1.000000
    outer loop
      vertex 3.436487 -3.436487 0.000000
      vertex 7.128052 -3.631924 0.000000
      vertex 5.656854 -5.656854 0.000000
    endloop
  endfacet
  facet normal -1.000000 -0.000000 -0.000000
    outer loop
      vertex -7.901507 -1.251476 0.000000
      vertex -7.901507 -1.251476 0.800000
      vertex -7.901507 0.434955 0.000000
    endloop
  endfacet
  facet normal -1.000000 0.000000 0.000000
    outer loop
      vertex -7.901507 0.434955 0.000000
      vertex -7.901507 -1.251476 0.800000
      vertex -7.901507 0.434955 0.800000
    endloop
  endfacet
  facet normal -0.951056 -0.309017 -0.000000
    outer loop
      vertex -7.901507 -1.251476 0.000000
      vertex -7.128052 -3.631924 0.000000
      vertex -7.901507 -1.251476 0.800000
    endloop
  endfacet
  facet normal -0.951056 -0.309017 0.000000
    outer loop
      vertex -7.901507 -1.251476 0.800000
      vertex -7.128052 -3.631924 0.000000
      vertex -7.128052 -3.631924 0.800000
    endloop
  endfacet
  facet normal -0.809017 -0.587785 -0.000000
    outer loop
      vertex -7.128052 -3.631924 0.000000
      vertex -5.656854 -5.656854 0.000000
      vertex -7.128052 -3.631924 0.800000
    endloop
  endfacet
  facet normal -0.809017 -0.587785 0.000000
    outer loop
      vertex -7.128052 -3.631924 0.800000
      vertex -5.656854 -5.656854 0.000000
      vertex -5.656854 -5.656854 0.800000
    endloop
  endfacet
  facet normal 0.707107 -0.707107 0.000000
    outer loop
      vertex -3.436487 -3.436487 0.800000
      vertex -3.436487 -3.436487 0.000000
      vertex -3.026417 -3.026417 11.000000
    endloop
  endfacet
  facet normal 0.707107 -0.707107 0.000000
    outer loop
      vertex -3.026417 -3.026417 11.000000
      vertex -3.436487 -3.436487 0.000000
      vertex -3.026417 -3.026417 0.000000
    endloop
  endfacet
  facet normal 0.707107 -0.707107 0.000000
    outer loop
      vertex -5.656854 -5.656854 0.800000
      vertex -3.436487 -3.436487 0.000000
      vertex -3.436487 -3.436487 0.800000
    endloop
  endfacet
  facet normal 0.707107 -0.707107 0.000000
    outer loop
      vertex -3.436487 -3.436487 11.000000
      vertex -3.436487 -3.436487 0.800000
      vertex -3.026417 -3.026417 11.000000
    endloop
  endfacet
  facet normal 0.707107 -0.707107 0.000000
    outer loop
      vertex -5.656854 -5.656854 0.000000
      vertex -3.436487 -3.436487 0.000000
      vertex -5.656854 -5.656854 0.800000
    endloop
  endfacet
  facet normal -0.707107 -0.707107 0.000000
    outer loop
      vertex 5.656854 -5.656854 0.800000
      vertex 3.436487 -3.436487 0.000000
      vertex 5.656854 -5.656854 0.000000
    endloop
  endfacet
  facet normal -0.707107 -0.707107 0.000000
    outer loop
      vertex 3.436487 -3.436487 0.800000
      vertex 3.436487 -3.436487 0.000000
      vertex 5.656854 -5.656854 0.800000
    endloop
  endfacet
  facet normal -0.707107 -0.707107 0.000000
    outer loop
      vertex 3.026417 -3.026417 11.000000
      vertex 3.436487 -3.436487 0.000000
      vertex 3.436487 -3.436487 0.800000
    endloop
  endfacet
  facet normal -0.707107 -0.707107 0.000000
    outer loop
      vertex 3.026417 -3.026417 11.000000
      vertex 3.436487 -3.436487 0.800000
      vertex 3.436487 -3.436487 11.000000
    endloop
  endfacet
  facet normal -0.707107 -0.707107 -0.000000
    outer loop
      vertex 3.026417 -3.026417 0.000000
      vertex 3.436487 -3.436487 0.000000
      vertex 3.026417 -3.026417 11.000000
    endloop
  endfacet
  facet normal 0.809017 -0.587785 0.000000
    outer loop
      vertex 5.656854 -5.656854 0.800000
      vertex 5.656854 -5.656854 0.000000
      vertex 7.128052 -3.631924 0.000000
    endloop
  endfacet
  facet normal 0.809017 -0.587785 0.000000
    outer loop
      vertex 7.128052 -3.631924 0.800000
      vertex 5.656854 -5.656854 0.800000
      vertex 7.128052 -3.631924 0.000000
    endloop
  endfacet
  facet normal 0.951056 -0.309017 0.000000
    outer loop
      vertex 7.128052 -3.631924 0.800000
      vertex 7.128052 -3.631924 0.000000
      vertex 7.901507 -1.251476 0.000000
    endloop
  endfacet
  facet normal 0.951056 -0.309017 0.000000
    outer loop
      vertex 7.901507 -1.251476 0.800000
      vertex 7.128052 -3.631924 0.800000
      vertex 7.901507 -1.251476 0.000000
    endloop
  endfacet
  facet normal 1.000000 0.000000 -0.000000
    outer loop
      vertex 7.901507 -1.251476 0.800000
      vertex 7.901507 -1.251476 0.000000
      vertex 7.901507 0.434955 0.000000
    endloop
  endfacet
  facet normal 1.000000 0.000000 0.000000
    outer loop
      vertex 7.901507 0.434955 0.800000
      vertex 7.901507 -1.251476 0.800000
      vertex 7.901507 0.434955 0.000000
    endloop
  endfacet
  facet normal 0.422618 0.906308 -0.000000
    outer loop
      vertex 7.901507 0.434955 0.800000
      vertex 7.901507 0.434955 0.000000
      vertex 4.961577 1.805866 0.800000
    endloop
  endfacet
  facet normal 0.422618 0.906308 -0.000000
    outer loop
      vertex 4.961577 1.805866 0.800000
      vertex 7.901507 0.434955 0.000000
      vertex 4.961577 1.805866 0.000000
    endloop
  endfacet
  facet normal 0.906308 -0.422618 0.000000
    outer loop
      vertex 6.327128 4.734301 0.000000
      vertex 6.327128 4.734301 0.800000
      vertex 4.961577 1.805866 0.800000
    endloop
  endfacet
  facet normal 0.906308 -0.422618 0.000000
    outer loop
      vertex 4.961577 1.805866 0.000000
      vertex 6.327128 4.734301 0.000000
      vertex 4.961577 1.805866 0.800000
    endloop
  endfacet
  facet normal 0.809017 0.587785 0.000000
    outer loop
      vertex 6.327128 4.734301 0.000000
      vertex 5.656854 5.656854 0.000000
      vertex 5.656854 5.656854 0.800000
    endloop
  endfacet
  facet normal 0.809017 0.587785 -0.000000
    outer loop
      vertex 6.327128 4.734301 0.800000
      vertex 6.327128 4.734301 0.000000
      vertex 5.656854 5.656854 0.800000
    endloop
  endfacet
  facet normal 0.587785 0.809017 0.000000
    outer loop
      vertex 3.631924 7.128052 0.000000
      vertex 3.631924 7.128052 0.800000
      vertex 5.656854 5.656854 0.000000
    endloop
  endfacet
  facet normal 0.587785 0.809017 0.000000
    outer loop
      vertex 5.656854 5.656854 0.000000
      vertex 3.631924 7.128052 0.800000
      vertex 5.656854 5.656854 0.800000
    endloop
  endfacet
  facet normal 0.309017 0.951056 0.000000
    outer loop
      vertex 2.285524 7.565524 0.000000
      vertex 2.285524 7.565524 0.800000
      vertex 3.631924 7.128052 0.000000
    endloop
  endfacet
  facet normal 0.309017 0.951056 0.000000
    outer loop
      vertex 3.631924 7.128052 0.000000
      vertex 2.285524 7.565524 0.800000
      vertex 3.631924 7.128052 0.800000
    endloop
  endfacet
  facet normal -0.707107 0.707107 0.000000
    outer loop
      vertex 2.285524 7.565524 0.800000
      vertex 2.285524 7.565524 0.000000
      vertex 0.000000 5.280000 0.800000
    endloop
  endfacet
  facet normal -0.707107 0.707107 0.000000
    outer loop
      vertex 0.000000 5.280000 0.800000
      vertex 2.285524 7.565524 0.000000
      vertex 0.000000 5.280000 0.000000
    endloop
  endfacet
  facet normal 0.707107 0.707107 0.000000
    outer loop
      vertex -2.285524 7.565524 0.800000
      vertex 0.000000 5.280000 0.800000
      vertex 0.000000 5.280000 0.000000
    endloop
  endfacet
  facet normal 0.707107 0.707107 0.000000
    outer loop
      vertex -2.285524 7.565524 0.000000
      vertex -2.285524 7.565524 0.800000
      vertex 0.000000 5.280000 0.000000
    endloop
  endfacet
  facet normal -0.309017 0.951056 0.000000
    outer loop
      vertex -3.631924 7.128052 0.000000
      vertex -3.631924 7.128052 0.800000
      vertex -2.285524 7.565524 0.000000
    endloop
  endfacet
  facet normal -0.309017 0.951056 0.000000
    outer loop
      vertex -2.285524 7.565524 0.000000
      vertex -3.631924 7.128052 0.800000
      vertex -2.285524 7.565524 0.800000
    endloop
  endfacet
  facet normal -0.587785 0.809017 0.000000
    outer loop
      vertex -5.656854 5.656854 0.000000
      vertex -5.656854 5.656854 0.800000
      vertex -3.631924 7.128052 0.000000
    endloop
  endfacet
  facet normal -0.587785 0.809017 0.000000
    outer loop
      vertex -3.631924 7.128052 0.000000
      vertex -5.656854 5.656854 0.800000
      vertex -3.631924 7.128052 0.800000
    endloop
  endfacet
  facet normal -0.809017 0.587785 0.000000
    outer loop
      vertex -6.327128 4.734301 0.000000
      vertex -6.327128 4.734301 0.800000
      vertex -5.656854 5.656854 0.000000
    endloop
  endfacet
  facet normal -0.809017 0.587785 0.000000
    outer loop
      vertex -5.656854 5.656854 0.000000
      vertex -6.327128 4.734301 0.800000
      vertex -5.656854 5.656854 0.800000
    endloop
  endfacet
  facet normal -0.906308 -0.422618 0.000000
    outer loop
      vertex -4.961577 1.805866 0.800000
      vertex -6.327128 4.734301 0.800000
      vertex -4.961577 1.805866 0.000000
    endloop
  endfacet
  facet normal -0.906308 -0.422618 0.000000
    outer loop
      vertex -4.961577 1.805866 0.000000
      vertex -6.327128 4.734301 0.800000
      vertex -6.327128 4.734301 0.000000
    endloop
  endfacet
  facet normal -0.422618 0.906308 0.000000
    outer loop
      vertex -4.961577 1.805866 0.800000
      vertex -4.961577 1.805866 0.000000
      vertex -7.901507 0.434955 0.800000
    endloop
  endfacet
  facet normal -0.422618 0.906308 0.000000
    outer loop
      vertex -7.901507 0.434955 0.800000
      vertex -4.961577 1.805866 0.000000
      vertex -7.901507 0.434955 0.000000
    endloop
  endfacet
  facet normal 0.000000 -0.000000 1.000000
    outer loop
      vertex -7.901507 0.434955 0.800000
      vertex -7.901507 -1.251476 0.800000
      vertex -7.128052 -3.631924 0.800000
    endloop
  endfacet
  facet normal 0.000000 0.000000 1.000000
    outer loop
      vertex -5.656854 -5.656854 0.800000
      vertex -7.901507 0.434955 0.800000
      vertex -7.128052 -3.631924 0.800000
    endloop
  endfacet
  facet normal -0.000000 0.000000 1.000000
    outer loop
      vertex -3.436487 -3.436487 0.800000
      vertex -7.901507 0.434955 0.800000
      vertex -5.656854 -5.656854 0.800000
    endloop
  endfacet
  facet normal -0.000000 -0.000000 1.000000
    outer loop
      vertex -3.626547 -3.265357 0.800000
      vertex -7.901507 0.434955 0.800000
      vertex -3.436487 -3.436487 0.800000
    endloop
  endfacet
  facet normal -0.000000 -0.000000 1.000000
    outer loop
      vertex -4.226204 -2.440000 0.800000
      vertex -7.901507 0.434955 0.800000
      vertex -3.626547 -3.265357 0.800000
    endloop
  endfacet
  facet normal -0.000000 -0.000000 1.000000
    outer loop
      vertex -4.641156 -1.508003 0.800000
      vertex -7.901507 0.434955 0.800000
      vertex -4.226204 -2.440000 0.800000
    endloop
  endfacet
  facet normal -0.000000 -0.000000 1.000000
    outer loop
      vertex -4.853267 -0.510099 0.800000
      vertex -7.901507 0.434955 0.800000
      vertex -4.641156 -1.508003 0.800000
    endloop
  endfacet
  facet normal 0.000000 0.000000 1.000000
    outer loop
      vertex -4.853267 0.510099 0.800000
      vertex -7.901507 0.434955 0.800000
      vertex -4.853267 -0.510099 0.800000
    endloop
  endfacet
  facet normal 0.000000 0.000000 1.000000
    outer loop
      vertex -4.641156 1.508003 0.800000
      vertex -7.901507 0.434955 0.800000
      vertex -4.853267 0.510099 0.800000
    endloop
  endfacet
  facet normal 0.000000 -0.000000 1.000000
    outer loop
      vertex -4.961577 1.805866 0.800000
      vertex -7.901507 0.434955 0.800000
      vertex -4.641156 1.508003 0.800000
    endloop
  endfacet
  facet normal 0.000000 0.000000 1.000000
    outer loop
      vertex -6.327128 4.734301 0.800000
      vertex -3.631924 7.128052 0.800000
      vertex -5.656854 5.656854 0.800000
    endloop
  endfacet
  facet normal 0.000000 0.000000 1.000000
    outer loop
      vertex -6.327128 4.734301 0.800000
      vertex -2.285524 7.565524 0.800000
      vertex -3.631924 7.128052 0.800000
    endloop
  endfacet
  facet normal 0.000000 0.000000 1.000000
    outer loop
      vertex 5.656854 5.656854 0.800000
      vertex -1.014609 4.773360 0.800000
      vertex 0.000000 4.880000 0.800000
    endloop
  endfacet
  facet normal 0.000000 0.000000 1.000000
    outer loop
      vertex 6.327128 4.734301 0.800000
      vertex 0.000000 4.880000 0.800000
      vertex 1.014609 4.773360 0.800000
    endloop
  endfacet
  facet normal -0.000000 0.000000 1.000000
    outer loop
      vertex 6.327128 4.734301 0.800000
      vertex 1.014609 4.773360 0.800000
      vertex 1.984875 4.458102 0.800000
    endloop
  endfacet
  facet normal 0.000000 0.000000 1.000000
    outer loop
      vertex 6.327128 4.734301 0.800000
      vertex 1.984875 4.458102 0.800000
      vertex 2.868392 3.948003 0.800000
    endloop
  endfacet
  facet normal 0.000000 0.000000 1.000000
    outer loop
      vertex -6.327128 4.734301 0.800000
      vertex -2.868392 3.948003 0.800000
      vertex -2.285524 7.565524 0.800000
    endloop
  endfacet
  facet normal 0.000000 0.000000 1.000000
    outer loop
      vertex 4.961577 1.805866 0.800000
      vertex 3.626547 3.265357 0.800000
      vertex 4.226204 2.440000 0.800000
    endloop
  endfacet
  facet normal 0.000000 0.000000 1.000000
    outer loop
      vertex 7.128052 -3.631924 0.800000
      vertex 4.226204 2.440000 0.800000
      vertex 4.641156 1.508003 0.800000
    endloop
  endfacet
  facet normal 0.000000 0.000000 1.000000
    outer loop
      vertex 7.128052 -3.631924 0.800000
      vertex 4.641156 1.508003 0.800000
      vertex 4.853267 0.510099 0.800000
    endloop
  endfacet
  facet normal 0.000000 0.000000 1.000000
    outer loop
      vertex 5.656854 -5.656854 0.800000
      vertex 4.853267 0.510099 0.800000
      vertex 4.853267 -0.510099 0.800000
    endloop
  endfacet
  facet normal 0.000000 0.000000 1.000000
    outer loop
      vertex 5.656854 -5.656854 0.800000
      vertex 4.853267 -0.510099 0.800000
      vertex 4.641156 -1.508003 0.800000
    endloop
  endfacet
  facet normal 0.000000 0.000000 1.000000
    outer loop
      vertex 5.656854 -5.656854 0.800000
      vertex 4.641156 -1.508003 0.800000
      vertex 4.226204 -2.440000 0.800000
    endloop
  endfacet
  facet normal 0.000000 0.000000 1.000000
    outer loop
      vertex 5.656854 -5.656854 0.800000
      vertex 4.226204 -2.440000 0.800000
      vertex 3.626547 -3.265357 0.800000
    endloop
  endfacet
  facet normal 0.000000 0.000000 1.000000
    outer loop
      vertex 5.656854 -5.656854 0.800000
      vertex 3.626547 -3.265357 0.800000
      vertex 3.436487 -3.436487 0.800000
    endloop
  endfacet
  facet normal -0.000000 0.000000 1.000000
    outer loop
      vertex 7.128052 -3.631924 0.800000
      vertex 4.853267 0.510099 0.800000
      vertex 5.656854 -5.656854 0.800000
    endloop
  endfacet
  facet normal -0.000000 0.000000 1.000000
    outer loop
      vertex 7.901507 -1.251476 0.800000
      vertex 4.226204 2.440000 0.800000
      vertex 7.128052 -3.631924 0.800000
    endloop
  endfacet
  facet normal 0.000000 0.000000 1.000000
    outer loop
      vertex 3.626547 3.265357 0.800000
      vertex 6.327128 4.734301 0.800000
      vertex 2.868392 3.948003 0.800000
    endloop
  endfacet
  facet normal 0.000000 0.000000 1.000000
    outer loop
      vertex 0.000000 5.280000 0.800000
      vertex -1.984875 4.458102 0.800000
      vertex -1.014609 4.773360 0.800000
    endloop
  endfacet
  facet normal 0.000000 0.000000 1.000000
    outer loop
      vertex 7.901507 -1.251476 0.800000
      vertex 4.961577 1.805866 0.800000
      vertex 4.226204 2.440000 0.800000
    endloop
  endfacet
  facet normal 0.000000 -0.000000 1.000000
    outer loop
      vertex 5.656854 5.656854 0.800000
      vertex 0.000000 4.880000 0.800000
      vertex 6.327128 4.734301 0.800000
    endloop
  endfacet
  facet normal 0.000000 -0.000000 1.000000
    outer loop
      vertex 0.000000 5.280000 0.800000
      vertex -1.014609 4.773360 0.800000
      vertex 5.656854 5.656854 0.800000
    endloop
  endfacet
  facet normal -0.000000 0.000000 1.000000
    outer loop
      vertex -1.984875 4.458102 0.800000
      vertex -2.285524 7.565524 0.800000
      vertex -2.868392 3.948003 0.800000
    endloop
  endfacet
  facet normal 0.000000 -0.000000 1.000000
    outer loop
      vertex 3.631924 7.128052 0.800000
      vertex 0.000000 5.280000 0.800000
      vertex 5.656854 5.656854 0.800000
    endloop
  endfacet
  facet normal 0.000000 0.000000 1.000000
    outer loop
      vertex -4.226204 2.440000 0.800000
      vertex -4.961577 1.805866 0.800000
      vertex -4.641156 1.508003 0.800000
    endloop
  endfacet
  facet normal 0.000000 -0.000000 1.000000
    outer loop
      vertex 2.285524 7.565524 0.800000
      vertex 0.000000 5.280000 0.800000
      vertex 3.631924 7.128052 0.800000
    endloop
  endfacet
  facet normal -0.000000 0.000000 1.000000
    outer loop
      vertex 7.901507 0.434955 0.800000
      vertex 4.961577 1.805866 0.800000
      vertex 7.901507 -1.251476 0.800000
    endloop
  endfacet
  facet normal 0.000000 0.000000 1.000000
    outer loop
      vertex 4.961577 1.805866 0.800000
      vertex 6.327128 4.734301 0.800000
      vertex 3.626547 3.265357 0.800000
    endloop
  endfacet
  facet normal -0.000000 0.000000 1.000000
    outer loop
      vertex 0.000000 5.280000 0.800000
      vertex -2.285524 7.565524 0.800000
      vertex -1.984875 4.458102 0.800000
    endloop
  endfacet
  facet normal 0.000000 0.000000 1.000000
    outer loop
      vertex -6.327128 4.734301 0.800000
      vertex -3.626547 3.265357 0.800000
      vertex -2.868392 3.948003 0.800000
    endloop
  endfacet
  facet normal 0.000000 0.000000 1.000000
    outer loop
      vertex -6.327128 4.734301 0.800000
      vertex -4.226204 2.440000 0.800000
      vertex -3.626547 3.265357 0.800000
    endloop
  endfacet
  facet normal 0.000000 0.000000 1.000000
    outer loop
      vertex -6.327128 4.734301 0.800000
      vertex -4.961577 1.805866 0.800000
      vertex -4.226204 2.440000 0.800000
    endloop
  endfacet
  facet normal -0.669131 -0.743145 0.000000
    outer loop
      vertex -3.626547 -3.265357 11.000000
      vertex -3.626547 -3.265357 0.800000
      vertex -3.436487 -3.436487 0.800000
    endloop
  endfacet
  facet normal -0.669131 -0.743145 0.000000
    outer loop
      vertex -3.436487 -3.436487 11.000000
      vertex -3.626547 -3.265357 11.000000
      vertex -3.436487 -3.436487 0.800000
    endloop
  endfacet
  facet normal 0.000000 -0.000000 1.000000
    outer loop
      vertex -4.853267 0.510099 11.000000
      vertex -4.853267 -0.510099 11.000000
      vertex -4.641156 -1.508003 11.000000
    endloop
  endfacet
  facet normal 0.000000 0.000000 1.000000
    outer loop
      vertex -3.626547 -3.265357 11.000000
      vertex -4.853267 0.510099 11.000000
      vertex -4.226204 -2.440000 11.000000
    endloop
  endfacet
  facet normal 0.000000 0.000000 1.000000
    outer loop
      vertex -4.226204 -2.440000 11.000000
      vertex -4.853267 0.510099 11.000000
      vertex -4.641156 -1.508003 11.000000
    endloop
  endfacet
  facet normal 0.000000 0.000000 1.000000
    outer loop
      vertex -3.436487 -3.436487 11.000000
      vertex -4.853267 0.510099 11.000000
      vertex -3.626547 -3.265357 11.000000
    endloop
  endfacet
  facet normal -0.000000 -0.000000 1.000000
    outer loop
      vertex -3.813508 -1.943079 11.000000
      vertex -4.853267 0.510099 11.000000
      vertex -3.436487 -3.436487 11.000000
    endloop
  endfacet
  facet normal -0.000000 0.000000 1.000000
    outer loop
      vertex -3.026417 -3.026417 11.000000
      vertex -3.813508 -1.943079 11.000000
      vertex -3.436487 -3.436487 11.000000
    endloop
  endfacet
  facet normal 0.000000 0.000000 1.000000
    outer loop
      vertex -4.227306 0.669540 11.000000
      vertex -4.853267 0.510099 11.000000
      vertex -4.227306 -0.669540 11.000000
    endloop
  endfacet
  facet normal 0.000000 0.000000 1.000000
    outer loop
      vertex -3.813508 1.943079 11.000000
      vertex -4.853267 0.510099 11.000000
      vertex -4.227306 0.669540 11.000000
    endloop
  endfacet
  facet normal 0.000000 0.000000 1.000000
    outer loop
      vertex -2.868392 3.948003 11.000000
      vertex -4.853267 0.510099 11.000000
      vertex -3.813508 1.943079 11.000000
    endloop
  endfacet
  facet normal 0.000000 0.000000 1.000000
    outer loop
      vertex -2.868392 3.948003 11.000000
      vertex -3.813508 1.943079 11.000000
      vertex -3.026417 3.026417 11.000000
    endloop
  endfacet
  facet normal 0.000000 0.000000 1.000000
    outer loop
      vertex -1.014609 4.773360 11.000000
      vertex -3.026417 3.026417 11.000000
      vertex -1.943079 3.813508 11.000000
    endloop
  endfacet
  facet normal 0.000000 0.000000 1.000000
    outer loop
      vertex 0.000000 4.880000 11.000000
      vertex -1.943079 3.813508 11.000000
      vertex -0.669540 4.227306 11.000000
    endloop
  endfacet
  facet normal 0.000000 0.000000 1.000000
    outer loop
      vertex 1.984875 4.458102 11.000000
      vertex -0.669540 4.227306 11.000000
      vertex 0.669540 4.227306 11.000000
    endloop
  endfacet
  facet normal -0.000000 0.000000 1.000000
    outer loop
      vertex 2.868392 3.948003 11.000000
      vertex 0.669540 4.227306 11.000000
      vertex 1.943079 3.813508 11.000000
    endloop
  endfacet
  facet normal 0.000000 0.000000 1.000000
    outer loop
      vertex 4.226204 2.440000 11.000000
      vertex 1.943079 3.813508 11.000000
      vertex 3.026417 3.026417 11.000000
    endloop
  endfacet
  facet normal 0.000000 0.000000 1.000000
    outer loop
      vertex 4.641156 1.508003 11.000000
      vertex 3.026417 3.026417 11.000000
      vertex 3.813508 1.943079 11.000000
    endloop
  endfacet
  facet normal 0.000000 0.000000 1.000000
    outer loop
      vertex 4.853267 -0.510099 11.000000
      vertex 3.813508 1.943079 11.000000
      vertex 4.227306 0.669540 11.000000
    endloop
  endfacet
  facet normal 0.000000 0.000000 1.000000
    outer loop
      vertex 4.641156 -1.508003 11.000000
      vertex 4.227306 0.669540 11.000000
      vertex 4.227306 -0.669540 11.000000
    endloop
  endfacet
  facet normal 0.000000 0.000000 1.000000
    outer loop
      vertex 3.436487 -3.436487 11.000000
      vertex 4.227306 -0.669540 11.000000
      vertex 3.813508 -1.943079 11.000000
    endloop
  endfacet
  facet normal 0.000000 0.000000 1.000000
    outer loop
      vertex 3.436487 -3.436487 11.000000
      vertex 3.813508 -1.943079 11.000000
      vertex 3.026417 -3.026417 11.000000
    endloop
  endfacet
  facet normal -0.000000 0.000000 1.000000
    outer loop
      vertex 3.626547 -3.265357 11.000000
      vertex 4.227306 -0.669540 11.000000
      vertex 3.436487 -3.436487 11.000000
    endloop
  endfacet
  facet normal -0.000000 0.000000 1.000000
    outer loop
      vertex 4.226204 -2.440000 11.000000
      vertex 4.227306 -0.669540 11.000000
      vertex 3.626547 -3.265357 11.000000
    endloop
  endfacet
  facet normal -0.000000 0.000000 1.000000
    outer loop
      vertex 4.641156 -1.508003 11.000000
      vertex 4.227306 -0.669540 11.000000
      vertex 4.226204 -2.440000 11.000000
    endloop
  endfacet
  facet normal -0.000000 0.000000 1.000000
    outer loop
      vertex 4.853267 -0.510099 11.000000
      vertex 4.227306 0.669540 11.000000
      vertex 4.641156 -1.508003 11.000000
    endloop
  endfacet
  facet normal -0.000000 0.000000 1.000000
    outer loop
      vertex 4.853267 0.510099 11.000000
      vertex 3.813508 1.943079 11.000000
      vertex 4.853267 -0.510099 11.000000
    endloop
  endfacet
  facet normal -0.000000 -0.000000 1.000000
    outer loop
      vertex 4.641156 1.508003 11.000000
      vertex 3.813508 1.943079 11.000000
      vertex 4.853267 0.510099 11.000000
    endloop
  endfacet
  facet normal -0.000000 -0.000000 1.000000
    outer loop
      vertex 4.226204 2.440000 11.000000
      vertex 3.026417 3.026417 11.000000
      vertex 4.641156 1.508003 11.000000
    endloop
  endfacet
  facet normal -0.000000 -0.000000 1.000000
    outer loop
      vertex 3.626547 3.265357 11.000000
      vertex 1.943079 3.813508 11.000000
      vertex 4.226204 2.440000 11.000000
    endloop
  endfacet
  facet normal 0.000000 -0.000000 1.000000
    outer loop
      vertex 2.868392 3.948003 11.000000
      vertex 1.943079 3.813508 11.000000
      vertex 3.626547 3.265357 11.000000
    endloop
  endfacet
  facet normal 0.000000 -0.000000 1.000000
    outer loop
      vertex 1.984875 4.458102 11.000000
      vertex 0.669540 4.227306 11.000000
      vertex 2.868392 3.948003 11.000000
    endloop
  endfacet
  facet normal 0.000000 -0.000000 1.000000
    outer loop
      vertex 1.014609 4.773360 11.000000
      vertex -0.669540 4.227306 11.000000
      vertex 1.984875 4.458102 11.000000
    endloop
  endfacet
  facet normal 0.000000 -0.000000 1.000000
    outer loop
      vertex 0.000000 4.880000 11.000000
      vertex -0.669540 4.227306 11.000000
      vertex 1.014609 4.773360 11.000000
    endloop
  endfacet
  facet normal 0.000000 -0.000000 1.000000
    outer loop
      vertex -1.014609 4.773360 11.000000
      vertex -1.943079 3.813508 11.000000
      vertex 0.000000 4.880000 11.000000
    endloop
  endfacet
  facet normal 0.000000 -0.000000 1.000000
    outer loop
      vertex -1.984875 4.458102 11.000000
      vertex -3.026417 3.026417 11.000000
      vertex -1.014609 4.773360 11.000000
    endloop
  endfacet
  facet normal 0.000000 -0.000000 1.000000
    outer loop
      vertex -2.868392 3.948003 11.000000
      vertex -3.026417 3.026417 11.000000
      vertex -1.984875 4.458102 11.000000
    endloop
  endfacet
  facet normal 0.000000 -0.000000 1.000000
    outer loop
      vertex -3.626547 3.265357 11.000000
      vertex -4.853267 0.510099 11.000000
      vertex -2.868392 3.948003 11.000000
    endloop
  endfacet
  facet normal 0.000000 -0.000000 1.000000
    outer loop
      vertex -4.226204 2.440000 11.000000
      vertex -4.853267 0.510099 11.000000
      vertex -3.626547 3.265357 11.000000
    endloop
  endfacet
  facet normal 0.000000 -0.000000 1.000000
    outer loop
      vertex -4.641156 1.508003 11.000000
      vertex -4.853267 0.510099 11.000000
      vertex -4.226204 2.440000 11.000000
    endloop
  endfacet
  facet normal 0.000000 0.000000 1.000000
    outer loop
      vertex -3.813508 -1.943079 11.000000
      vertex -4.227306 -0.669540 11.000000
      vertex -4.853267 0.510099 11.000000
    endloop
  endfacet
  facet normal -0.000000 -0.000000 -1.000000
    outer loop
      vertex -4.853267 -0.510099 0.000000
      vertex -4.853267 0.510099 0.000000
      vertex -4.641156 -1.508003 0.000000
    endloop
  endfacet
  facet normal 0.000000 0.000000 -1.000000
    outer loop
      vertex -4.641156 -1.508003 0.000000
      vertex -4.853267 0.510099 0.000000
      vertex -4.641156 1.508003 0.000000
    endloop
  endfacet
  facet normal 0.000000 -0.000000 -1.000000
    outer loop
      vertex -4.641156 -1.508003 0.000000
      vertex -4.641156 1.508003 0.000000
      vertex -4.226204 2.440000 0.000000
    endloop
  endfacet
  facet normal 0.000000 0.000000 -1.000000
    outer loop
      vertex -4.227306 0.669540 0.000000
      vertex -4.226204 2.440000 0.000000
      vertex -3.626547 3.265357 0.000000
    endloop
  endfacet
  facet normal 0.000000 0.000000 -1.000000
    outer loop
      vertex -3.813508 1.943079 0.000000
      vertex -3.626547 3.265357 0.000000
      vertex -2.868392 3.948003 0.000000
    endloop
  endfacet
  facet normal 0.000000 0.000000 -1.000000
    outer loop
      vertex -3.026417 3.026417 0.000000
      vertex -2.868392 3.948003 0.000000
      vertex -1.984875 4.458102 0.000000
    endloop
  endfacet
  facet normal 0.000000 -0.000000 -1.000000
    outer loop
      vertex -1.943079 3.813508 0.000000
      vertex -1.984875 4.458102 0.000000
      vertex -1.014609 4.773360 0.000000
    endloop
  endfacet
  facet normal 0.000000 -0.000000 -1.000000
    outer loop
      vertex -0.669540 4.227306 0.000000
      vertex -1.014609 4.773360 0.000000
      vertex 0.000000 4.880000 0.000000
    endloop
  endfacet
  facet normal 0.000000 0.000000 -1.000000
    outer loop
      vertex 0.669540 4.227306 0.000000
      vertex 1.014609 4.773360 0.000000
      vertex 1.984875 4.458102 0.000000
    endloop
  endfacet
  facet normal 0.000000 0.000000 -1.000000
    outer loop
      vertex 1.943079 3.813508 0.000000
      vertex 1.984875 4.458102 0.000000
      vertex 2.868392 3.948003 0.000000
    endloop
  endfacet
  facet normal 0.000000 -0.000000 -1.000000
    outer loop
      vertex 3.026417 3.026417 0.000000
      vertex 2.868392 3.948003 0.000000
      vertex 3.626547 3.265357 0.000000
    endloop
  endfacet
  facet normal -0.000000 0.000000 -1.000000
    outer loop
      vertex 3.813508 1.943079 0.000000
      vertex 4.226204 2.440000 0.000000
      vertex 4.641156 1.508003 0.000000
    endloop
  endfacet
  facet normal -0.000000 0.000000 -1.000000
    outer loop
      vertex 4.227306 0.669540 0.000000
      vertex 4.641156 1.508003 0.000000
      vertex 4.853267 0.510099 0.000000
    endloop
  endfacet
  facet normal -0.000000 0.000000 -1.000000
    outer loop
      vertex 4.227306 -0.669540 0.000000
      vertex 4.853267 -0.510099 0.000000
      vertex 4.641156 -1.508003 0.000000
    endloop
  endfacet
  facet normal -0.000000 0.000000 -1.000000
    outer loop
      vertex 3.813508 -1.943079 0.000000
      vertex 4.641156 -1.508003 0.000000
      vertex 4.226204 -2.440000 0.000000
    endloop
  endfacet
  facet normal -0.000000 0.000000 -1.000000
    outer loop
      vertex 3.026417 -3.026417 0.000000
      vertex 4.226204 -2.440000 0.000000
      vertex 3.626547 -3.265357 0.000000
    endloop
  endfacet
  facet normal 0.000000 0.000000 -1.000000
    outer loop
      vertex 3.813508 -1.943079 0.000000
      vertex 4.226204 -2.440000 0.000000
      vertex 3.026417 -3.026417 0.000000
    endloop
  endfacet
  facet normal 0.000000 0.000000 -1.000000
    outer loop
      vertex 4.227306 0.669540 0.000000
      vertex 4.853267 -0.510099 0.000000
      vertex 4.227306 -0.669540 0.000000
    endloop
  endfacet
  facet normal 0.000000 0.000000 -1.000000
    outer loop
      vertex 4.227306 -0.669540 0.000000
      vertex 4.641156 -1.508003 0.000000
      vertex 3.813508 -1.943079 0.000000
    endloop
  endfacet
  facet normal 0.000000 0.000000 -1.000000
    outer loop
      vertex 4.227306 0.669540 0.000000
      vertex 4.853267 0.510099 0.000000
      vertex 4.853267 -0.510099 0.000000
    endloop
  endfacet
  facet normal 0.000000 0.000000 -1.000000
    outer loop
      vertex 3.026417 3.026417 0.000000
      vertex 4.226204 2.440000 0.000000
      vertex 3.813508 1.943079 0.000000
    endloop
  endfacet
  facet normal 0.000000 0.000000 -1.000000
    outer loop
      vertex 3.813508 1.943079 0.000000
      vertex 4.641156 1.508003 0.000000
      vertex 4.227306 0.669540 0.000000
    endloop
  endfacet
  facet normal -0.000000 0.000000 -1.000000
    outer loop
      vertex 3.026417 3.026417 0.000000
      vertex 3.626547 3.265357 0.000000
      vertex 4.226204 2.440000 0.000000
    endloop
  endfacet
  facet normal -0.000000 0.000000 -1.000000
    outer loop
      vertex 1.943079 3.813508 0.000000
      vertex 2.868392 3.948003 0.000000
      vertex 3.026417 3.026417 0.000000
    endloop
  endfacet
  facet normal -0.000000 0.000000 -1.000000
    outer loop
      vertex -0.669540 4.227306 0.000000
      vertex 1.014609 4.773360 0.000000
      vertex 0.669540 4.227306 0.000000
    endloop
  endfacet
  facet normal -0.000000 0.000000 -1.000000
    outer loop
      vertex 0.669540 4.227306 0.000000
      vertex 1.984875 4.458102 0.000000
      vertex 1.943079 3.813508 0.000000
    endloop
  endfacet
  facet normal 0.000000 0.000000 -1.000000
    outer loop
      vertex -0.669540 4.227306 0.000000
      vertex 0.000000 4.880000 0.000000
      vertex 1.014609 4.773360 0.000000
    endloop
  endfacet
  facet normal 0.000000 0.000000 -1.000000
    outer loop
      vertex -3.813508 -1.943079 0.000000
      vertex -4.641156 -1.508003 0.000000
      vertex -4.227306 -0.669540 0.000000
    endloop
  endfacet
  facet normal 0.000000 0.000000 -1.000000
    outer loop
      vertex -1.943079 3.813508 0.000000
      vertex -1.014609 4.773360 0.000000
      vertex -0.669540 4.227306 0.000000
    endloop
  endfacet
  facet normal 0.000000 0.000000 -1.000000
    outer loop
      vertex -3.026417 3.026417 0.000000
      vertex -1.984875 4.458102 0.000000
      vertex -1.943079 3.813508 0.000000
    endloop
  endfacet
  facet normal 0.000000 0.000000 -1.000000
    outer loop
      vertex -3.813508 1.943079 0.000000
      vertex -2.868392 3.948003 0.000000
      vertex -3.026417 3.026417 0.000000
    endloop
  endfacet
  facet normal 0.000000 0.000000 -1.000000
    outer loop
      vertex -4.227306 0.669540 0.000000
      vertex -3.626547 3.265357 0.000000
      vertex -3.813508 1.943079 0.000000
    endloop
  endfacet
  facet normal 0.000000 0.000000 -1.000000
    outer loop
      vertex -4.641156 -1.508003 0.000000
      vertex -4.226204 2.440000 0.000000
      vertex -4.227306 0.669540 0.000000
    endloop
  endfacet
  facet normal 0.000000 0.000000 -1.000000
    outer loop
      vertex -4.227306 -0.669540 0.000000
      vertex -4.641156 -1.508003 0.000000
      vertex -4.227306 0.669540 0.000000
    endloop
  endfacet
  facet normal 0.000000 0.000000 -1.000000
    outer loop
      vertex -4.641156 -1.508003 0.000000
      vertex -3.813508 -1.943079 0.000000
      vertex -3.026417 -3.026417 0.000000
    endloop
  endfacet
  facet normal 0.000000 0.000000 -1.000000
    outer loop
      vertex -3.026417 -3.026417 0.000000
      vertex -3.436487 -3.436487 0.000000
      vertex -4.641156 -1.508003 0.000000
    endloop
  endfacet
  facet normal 0.000000 0.000000 -1.000000
    outer loop
      vertex -4.641156 -1.508003 0.000000
      vertex -3.436487 -3.436487 0.000000
      vertex -3.626547 -3.265357 0.000000
    endloop
  endfacet
  facet normal 0.000000 0.000000 -1.000000
    outer loop
      vertex -4.641156 -1.508003 0.000000
      vertex -3.626547 -3.265357 0.000000
      vertex -4.226204 -2.440000 0.000000
    endloop
  endfacet
  facet normal 0.000000 0.000000 -1.000000
    outer loop
      vertex 3.026417 -3.026417 0.000000
      vertex 3.626547 -3.265357 0.000000
      vertex 3.436487 -3.436487 0.000000
    endloop
  endfacet
  facet normal -0.809017 0.587785 0.000000
    outer loop
      vertex 3.813508 -1.943079 11.000000
      vertex 3.813508 -1.943079 0.000000
      vertex 3.026417 -3.026417 11.000000
    endloop
  endfacet
  facet normal -0.809017 0.587785 0.000000
    outer loop
      vertex 3.026417 -3.026417 11.000000
      vertex 3.813508 -1.943079 0.000000
      vertex 3.026417 -3.026417 0.000000
    endloop
  endfacet
  facet normal 0.669131 -0.743145 0.000000
    outer loop
      vertex 3.436487 -3.436487 11.000000
      vertex 3.436487 -3.436487 0.800000
      vertex 3.626547 -3.265357 0.800000
    endloop
  endfacet
  facet normal 0.669131 -0.743145 0.000000
    outer loop
      vertex 3.626547 -3.265357 11.000000
      vertex 3.436487 -3.436487 11.000000
      vertex 3.626547 -3.265357 0.800000
    endloop
  endfacet
  facet normal 0.809017 -0.587785 0.000000
    outer loop
      vertex 3.626547 -3.265357 11.000000
      vertex 3.626547 -3.265357 0.800000
      vertex 4.226204 -2.440000 0.800000
    endloop
  endfacet
  facet normal 0.809017 -0.587785 0.000000
    outer loop
      vertex 4.226204 -2.440000 11.000000
      vertex 3.626547 -3.265357 11.000000
      vertex 4.226204 -2.440000 0.800000
    endloop
  endfacet
  facet normal 0.913545 -0.406737 0.000000
    outer loop
      vertex 4.226204 -2.440000 11.000000
      vertex 4.226204 -2.440000 0.800000
      vertex 4.641156 -1.508003 0.800000
    endloop
  endfacet
  facet normal 0.913545 -0.406737 0.000000
    outer loop
      vertex 4.641156 -1.508003 11.000000
      vertex 4.226204 -2.440000 11.000000
      vertex 4.641156 -1.508003 0.800000
    endloop
  endfacet
  facet normal 0.978148 -0.207912 0.000000
    outer loop
      vertex 4.641156 -1.508003 11.000000
      vertex 4.641156 -1.508003 0.800000
      vertex 4.853267 -0.510099 0.800000
    endloop
  endfacet
  facet normal 0.978148 -0.207912 0.000000
    outer loop
      vertex 4.853267 -0.510099 11.000000
      vertex 4.641156 -1.508003 11.000000
      vertex 4.853267 -0.510099 0.800000
    endloop
  endfacet
  facet normal 1.000000 0.000000 -0.000000
    outer loop
      vertex 4.853267 -0.510099 11.000000
      vertex 4.853267 -0.510099 0.800000
      vertex 4.853267 0.510099 0.800000
    endloop
  endfacet
  facet normal 1.000000 0.000000 0.000000
    outer loop
      vertex 4.853267 0.510099 11.000000
      vertex 4.853267 -0.510099 11.000000
      vertex 4.853267 0.510099 0.800000
    endloop
  endfacet
  facet normal 0.978148 0.207912 0.000000
    outer loop
      vertex 4.853267 0.510099 0.800000
      vertex 4.641156 1.508003 0.800000
      vertex 4.641156 1.508003 11.000000
    endloop
  endfacet
  facet normal 0.978148 0.207912 -0.000000
    outer loop
      vertex 4.853267 0.510099 11.000000
      vertex 4.853267 0.510099 0.800000
      vertex 4.641156 1.508003 11.000000
    endloop
  endfacet
  facet normal 0.913545 0.406737 0.000000
    outer loop
      vertex 4.641156 1.508003 0.800000
      vertex 4.226204 2.440000 0.800000
      vertex 4.226204 2.440000 11.000000
    endloop
  endfacet
  facet normal 0.913545 0.406737 -0.000000
    outer loop
      vertex 4.641156 1.508003 11.000000
      vertex 4.641156 1.508003 0.800000
      vertex 4.226204 2.440000 11.000000
    endloop
  endfacet
  facet normal 0.809017 0.587785 0.000000
    outer loop
      vertex 4.226204 2.440000 0.800000
      vertex 3.626547 3.265357 0.800000
      vertex 3.626547 3.265357 11.000000
    endloop
  endfacet
  facet normal 0.809017 0.587785 -0.000000
    outer loop
      vertex 4.226204 2.440000 11.000000
      vertex 4.226204 2.440000 0.800000
      vertex 3.626547 3.265357 11.000000
    endloop
  endfacet
  facet normal 0.669131 0.743145 0.000000
    outer loop
      vertex 2.868392 3.948003 0.800000
      vertex 2.868392 3.948003 11.000000
      vertex 3.626547 3.265357 0.800000
    endloop
  endfacet
  facet normal 0.669131 0.743145 0.000000
    outer loop
      vertex 3.626547 3.265357 0.800000
      vertex 2.868392 3.948003 11.000000
      vertex 3.626547 3.265357 11.000000
    endloop
  endfacet
  facet normal 0.500000 0.866025 0.000000
    outer loop
      vertex 1.984875 4.458102 0.800000
      vertex 1.984875 4.458102 11.000000
      vertex 2.868392 3.948003 0.800000
    endloop
  endfacet
  facet normal 0.500000 0.866025 0.000000
    outer loop
      vertex 2.868392 3.948003 0.800000
      vertex 1.984875 4.458102 11.000000
      vertex 2.868392 3.948003 11.000000
    endloop
  endfacet
  facet normal 0.309017 0.951057 0.000000
    outer loop
      vertex 1.014609 4.773360 0.800000
      vertex 1.014609 4.773360 11.000000
      vertex 1.984875 4.458102 0.800000
    endloop
  endfacet
  facet normal 0.309017 0.951057 0.000000
    outer loop
      vertex 1.984875 4.458102 0.800000
      vertex 1.014609 4.773360 11.000000
      vertex 1.984875 4.458102 11.000000
    endloop
  endfacet
  facet normal 0.104529 0.994522 0.000000
    outer loop
      vertex 0.000000 4.880000 0.800000
      vertex 0.000000 4.880000 11.000000
      vertex 1.014609 4.773360 0.800000
    endloop
  endfacet
  facet normal 0.104529 0.994522 0.000000
    outer loop
      vertex 1.014609 4.773360 0.800000
      vertex 0.000000 4.880000 11.000000
      vertex 1.014609 4.773360 11.000000
    endloop
  endfacet
  facet normal -0.104529 0.994522 0.000000
    outer loop
      vertex -1.014609 4.773360 0.800000
      vertex -1.014609 4.773360 11.000000
      vertex 0.000000 4.880000 0.800000
    endloop
  endfacet
  facet normal -0.104529 0.994522 0.000000
    outer loop
      vertex 0.000000 4.880000 0.800000
      vertex -1.014609 4.773360 11.000000
      vertex 0.000000 4.880000 11.000000
    endloop
  endfacet
  facet normal -0.309017 0.951057 0.000000
    outer loop
      vertex -1.984875 4.458102 0.800000
      vertex -1.984875 4.458102 11.000000
      vertex -1.014609 4.773360 0.800000
    endloop
  endfacet
  facet normal -0.309017 0.951057 0.000000
    outer loop
      vertex -1.014609 4.773360 0.800000
      vertex -1.984875 4.458102 11.000000
      vertex -1.014609 4.773360 11.000000
    endloop
  endfacet
  facet normal -0.500000 0.866025 0.000000
    outer loop
      vertex -2.868392 3.948003 0.800000
      vertex -2.868392 3.948003 11.000000
      vertex -1.984875 4.458102 0.800000
    endloop
  endfacet
  facet normal -0.500000 0.866025 0.000000
    outer loop
      vertex -1.984875 4.458102 0.800000
      vertex -2.868392 3.948003 11.000000
      vertex -1.984875 4.458102 11.000000
    endloop
  endfacet
  facet normal -0.669131 0.743145 0.000000
    outer loop
      vertex -3.626547 3.265357 0.800000
      vertex -3.626547 3.265357 11.000000
      vertex -2.868392 3.948003 0.800000
    endloop
  endfacet
  facet normal -0.669131 0.743145 0.000000
    outer loop
      vertex -2.868392 3.948003 0.800000
      vertex -3.626547 3.265357 11.000000
      vertex -2.868392 3.948003 11.000000
    endloop
  endfacet
  facet normal -0.809017 0.587785 0.000000
    outer loop
      vertex -4.226204 2.440000 0.800000
      vertex -4.226204 2.440000 11.000000
      vertex -3.626547 3.265357 0.800000
    endloop
  endfacet
  facet normal -0.809017 0.587785 0.000000
    outer loop
      vertex -3.626547 3.265357 0.800000
      vertex -4.226204 2.440000 11.000000
      vertex -3.626547 3.265357 11.000000
    endloop
  endfacet
  facet normal -0.913545 0.406737 0.000000
    outer loop
      vertex -4.641156 1.508003 0.800000
      vertex -4.641156 1.508003 11.000000
      vertex -4.226204 2.440000 0.800000
    endloop
  endfacet
  facet normal -0.913545 0.406737 0.000000
    outer loop
      vertex -4.226204 2.440000 0.800000
      vertex -4.641156 1.508003 11.000000
      vertex -4.226204 2.440000 11.000000
    endloop
  endfacet
  facet normal -0.978148 0.207912 0.000000
    outer loop
      vertex -4.853267 0.510099 0.800000
      vertex -4.853267 0.510099 11.000000
      vertex -4.641156 1.508003 0.800000
    endloop
  endfacet
  facet normal -0.978148 0.207912 0.000000
    outer loop
      vertex -4.641156 1.508003 0.800000
      vertex -4.853267 0.510099 11.000000
      vertex -4.641156 1.508003 11.000000
    endloop
  endfacet
  facet normal -1.000000 -0.000000 -0.000000
    outer loop
      vertex -4.853267 -0.510099 0.800000
      vertex -4.853267 -0.510099 11.000000
      vertex -4.853267 0.510099 0.800000
    endloop
  endfacet
  facet normal -1.000000 0.000000 0.000000
    outer loop
      vertex -4.853267 0.510099 0.800000
      vertex -4.853267 -0.510099 11.000000
      vertex -4.853267 0.510099 11.000000
    endloop
  endfacet
  facet normal -0.978148 -0.207912 -0.000000
    outer loop
      vertex -4.853267 -0.510099 0.800000
      vertex -4.641156 -1.508003 0.800000
      vertex -4.853267 -0.510099 11.000000
    endloop
  endfacet
  facet normal -0.978148 -0.207912 0.000000
    outer loop
      vertex -4.853267 -0.510099 11.000000
      vertex -4.641156 -1.508003 0.800000
      vertex -4.641156 -1.508003 11.000000
    endloop
  endfacet
  facet normal -0.913545 -0.406737 -0.000000
    outer loop
      vertex -4.641156 -1.508003 0.800000
      vertex -4.226204 -2.440000 0.800000
      vertex -4.641156 -1.508003 11.000000
    endloop
  endfacet
  facet normal -0.913545 -0.406737 0.000000
    outer loop
      vertex -4.641156 -1.508003 11.000000
      vertex -4.226204 -2.440000 0.800000
      vertex -4.226204 -2.440000 11.000000
    endloop
  endfacet
  facet normal -0.809017 -0.587785 -0.000000
    outer loop
      vertex -4.226204 -2.440000 0.800000
      vertex -3.626547 -3.265357 0.800000
      vertex -4.226204 -2.440000 11.000000
    endloop
  endfacet
  facet normal -0.809017 -0.587785 0.000000
    outer loop
      vertex -4.226204 -2.440000 11.000000
      vertex -3.626547 -3.265357 0.800000
      vertex -3.626547 -3.265357 11.000000
    endloop
  endfacet
  facet normal -0.951056 0.309017 0.000000
    outer loop
      vertex 4.227306 -0.669540 11.000000
      vertex 4.227306 -0.669540 0.000000
      vertex 3.813508 -1.943079 11.000000
    endloop
  endfacet
  facet normal -0.951056 0.309017 0.000000
    outer loop
      vertex 3.813508 -1.943079 11.000000
      vertex 4.227306 -0.669540 0.000000
      vertex 3.813508 -1.943079 0.000000
    endloop
  endfacet
  facet normal -1.000000 0.000000 0.000000
    outer loop
      vertex 4.227306 0.669540 11.000000
      vertex 4.227306 0.669540 0.000000
      vertex 4.227306 -0.669540 11.000000
    endloop
  endfacet
  facet normal -1.000000 0.000000 0.000000
    outer loop
      vertex 4.227306 -0.669540 11.000000
      vertex 4.227306 0.669540 0.000000
      vertex 4.227306 -0.669540 0.000000
    endloop
  endfacet
  facet normal -0.951056 -0.309017 0.000000
    outer loop
      vertex 4.227306 0.669540 11.000000
      vertex 3.813508 1.943079 11.000000
      vertex 4.227306 0.669540 0.000000
    endloop
  endfacet
  facet normal -0.951056 -0.309017 0.000000
    outer loop
      vertex 4.227306 0.669540 0.000000
      vertex 3.813508 1.943079 11.000000
      vertex 3.813508 1.943079 0.000000
    endloop
  endfacet
  facet normal -0.809017 -0.587785 0.000000
    outer loop
      vertex 3.813508 1.943079 11.000000
      vertex 3.026417 3.026417 11.000000
      vertex 3.813508 1.943079 0.000000
    endloop
  endfacet
  facet normal -0.809017 -0.587785 0.000000
    outer loop
      vertex 3.813508 1.943079 0.000000
      vertex 3.026417 3.026417 11.000000
      vertex 3.026417 3.026417 0.000000
    endloop
  endfacet
  facet normal -0.587785 -0.809017 -0.000000
    outer loop
      vertex 3.026417 3.026417 0.000000
      vertex 3.026417 3.026417 11.000000
      vertex 1.943079 3.813508 11.000000
    endloop
  endfacet
  facet normal -0.587785 -0.809017 -0.000000
    outer loop
      vertex 1.943079 3.813508 0.000000
      vertex 3.026417 3.026417 0.000000
      vertex 1.943079 3.813508 11.000000
    endloop
  endfacet
  facet normal -0.309017 -0.951056 -0.000000
    outer loop
      vertex 1.943079 3.813508 0.000000
      vertex 1.943079 3.813508 11.000000
      vertex 0.669540 4.227306 11.000000
    endloop
  endfacet
  facet normal -0.309017 -0.951056 -0.000000
    outer loop
      vertex 0.669540 4.227306 0.000000
      vertex 1.943079 3.813508 0.000000
      vertex 0.669540 4.227306 11.000000
    endloop
  endfacet
  facet normal 0.000000 -1.000000 0.000000
    outer loop
      vertex 0.669540 4.227306 0.000000
      vertex 0.669540 4.227306 11.000000
      vertex -0.669540 4.227306 11.000000
    endloop
  endfacet
  facet normal -0.000000 -1.000000 -0.000000
    outer loop
      vertex -0.669540 4.227306 0.000000
      vertex 0.669540 4.227306 0.000000
      vertex -0.669540 4.227306 11.000000
    endloop
  endfacet
  facet normal 0.309017 -0.951056 0.000000
    outer loop
      vertex -0.669540 4.227306 0.000000
      vertex -0.669540 4.227306 11.000000
      vertex -1.943079 3.813508 11.000000
    endloop
  endfacet
  facet normal 0.309017 -0.951056 0.000000
    outer loop
      vertex -1.943079 3.813508 0.000000
      vertex -0.669540 4.227306 0.000000
      vertex -1.943079 3.813508 11.000000
    endloop
  endfacet
  facet normal 0.587785 -0.809017 0.000000
    outer loop
      vertex -1.943079 3.813508 0.000000
      vertex -1.943079 3.813508 11.000000
      vertex -3.026417 3.026417 11.000000
    endloop
  endfacet
  facet normal 0.587785 -0.809017 0.000000
    outer loop
      vertex -3.026417 3.026417 0.000000
      vertex -1.943079 3.813508 0.000000
      vertex -3.026417 3.026417 11.000000
    endloop
  endfacet
  facet normal 0.809017 -0.587785 0.000000
    outer loop
      vertex -3.026417 3.026417 0.000000
      vertex -3.026417 3.026417 11.000000
      vertex -3.813508 1.943079 11.000000
    endloop
  endfacet
  facet normal 0.809017 -0.587785 0.000000
    outer loop
      vertex -3.813508 1.943079 0.000000
      vertex -3.026417 3.026417 0.000000
      vertex -3.813508 1.943079 11.000000
    endloop
  endfacet
  facet normal 0.951056 -0.309017 0.000000
    outer loop
      vertex -3.813508 1.943079 0.000000
      vertex -3.813508 1.943079 11.000000
      vertex -4.227306 0.669540 11.000000
    endloop
  endfacet
  facet normal 0.951056 -0.309017 0.000000
    outer loop
      vertex -4.227306 0.669540 0.000000
      vertex -3.813508 1.943079 0.000000
      vertex -4.227306 0.669540 11.000000
    endloop
  endfacet
  facet normal 1.000000 0.000000 0.000000
    outer loop
      vertex -4.227306 0.669540 0.000000
      vertex -4.227306 0.669540 11.000000
      vertex -4.227306 -0.669540 11.000000
    endloop
  endfacet
  facet normal 1.000000 0.000000 0.000000
    outer loop
      vertex -4.227306 -0.669540 0.000000
      vertex -4.227306 0.669540 0.000000
      vertex -4.227306 -0.669540 11.000000
    endloop
  endfacet
  facet normal 0.951056 0.309017 0.000000
    outer loop
      vertex -4.227306 -0.669540 11.000000
      vertex -3.813508 -1.943079 11.000000
      vertex -3.813508 -1.943079 0.000000
    endloop
  endfacet
  facet normal 0.951056 0.309017 0.000000
    outer loop
      vertex -4.227306 -0.669540 0.000000
      vertex -4.227306 -0.669540 11.000000
      vertex -3.813508 -1.943079 0.000000
    endloop
  endfacet
  facet normal 0.809017 0.587785 0.000000
    outer loop
      vertex -3.813508 -1.943079 11.000000
      vertex -3.026417 -3.026417 11.000000
      vertex -3.026417 -3.026417 0.000000
    endloop
  endfacet
  facet normal 0.809017 0.587785 0.000000
    outer loop
      vertex -3.813508 -1.943079 0.000000
      vertex -3.813508 -1.943079 11.000000
      vertex -3.026417 -3.026417 0.000000
    endloop
  endfacet
endsolid OpenSCAD_Model
