solid OpenSCAD_Model
  facet normal -1.000000 0.000000 0.000000
    outer loop
      vertex -6.500000 -16.500000 5.000000
      vertex -6.500000 -9.000000 0.000000
      vertex -6.500000 -32.500000 5.000000
    endloop
  endfacet
  facet normal -1.000000 0.000000 -0.000000
    outer loop
      vertex -6.500000 -35.500000 0.000000
      vertex -6.500000 -35.500000 10.500000
      vertex -6.500000 -32.500000 5.000000
    endloop
  endfacet
  facet normal -1.000000 -0.000000 0.000000
    outer loop
      vertex -6.500000 -35.500000 0.000000
      vertex -6.500000 -32.500000 5.000000
      vertex -6.500000 -9.000000 0.000000
    endloop
  endfacet
  facet normal -1.000000 -0.000000 0.000000
    outer loop
      vertex -6.500000 -9.000000 10.000000
      vertex -6.500000 -7.500000 20.000000
      vertex -6.500000 -7.500000 10.000000
    endloop
  endfacet
  facet normal -1.000000 0.000000 0.000000
    outer loop
      vertex -6.500000 -9.000000 0.000000
      vertex -6.500000 -16.500000 5.000000
      vertex -6.500000 -16.500000 20.000000
    endloop
  endfacet
  facet normal -1.000000 0.000000 -0.000000
    outer loop
      vertex -6.500000 -9.000000 10.000000
      vertex -6.500000 -16.500000 20.000000
      vertex -6.500000 -7.500000 20.000000
    endloop
  endfacet
  facet normal -1.000000 0.000000 0.000000
    outer loop
      vertex -6.500000 -9.000000 0.000000
      vertex -6.500000 -16.500000 20.000000
      vertex -6.500000 -9.000000 10.000000
    endloop
  endfacet
  facet normal -1.000000 0.000000 0.000000
    outer loop
      vertex -6.500000 -32.500000 5.000000
      vertex -6.500000 -35.500000 10.500000
      vertex -6.500000 -32.500000 10.500000
    endloop
  endfacet
  facet normal 0.000000 -1.000000 0.000000
    outer loop
      vertex -6.500000 -35.500000 10.500000
      vertex -6.500000 -35.500000 0.000000
      vertex 48.500000 -35.500000 0.000000
    endloop
  endfacet
  facet normal 0.000000 -1.000000 0.000000
    outer loop
      vertex 48.500000 -35.500000 10.500000
      vertex -6.500000 -35.500000 10.500000
      vertex 48.500000 -35.500000 0.000000
    endloop
  endfacet
  facet normal -0.000000 -0.000000 -1.000000
    outer loop
      vertex 1.915111 -23.393031 0.000000
      vertex -6.500000 -9.000000 0.000000
      vertex 48.500000 -35.500000 0.000000
    endloop
  endfacet
  facet normal 0.000000 0.000000 -1.000000
    outer loop
      vertex 48.500000 -35.500000 0.000000
      vertex -6.500000 -9.000000 0.000000
      vertex 0.000000 -9.000000 0.000000
    endloop
  endfacet
  facet normal 0.000000 0.000000 -1.000000
    outer loop
      vertex 48.500000 -35.500000 0.000000
      vertex 0.000000 -9.000000 0.000000
      vertex 0.000000 -8.946687 0.000000
    endloop
  endfacet
  facet normal 0.000000 0.000000 -1.000000
    outer loop
      vertex 48.500000 -35.500000 0.000000
      vertex 0.000000 -8.946687 0.000000
      vertex 0.565115 -8.982241 0.000000
    endloop
  endfacet
  facet normal 0.000000 0.000000 -1.000000
    outer loop
      vertex 48.500000 -35.500000 0.000000
      vertex 0.565115 -8.982241 0.000000
      vertex 2.781153 -8.559509 0.000000
    endloop
  endfacet
  facet normal -0.000000 0.000000 -1.000000
    outer loop
      vertex 2.781153 -8.559509 0.000000
      vertex 4.822441 -7.598951 0.000000
      vertex 48.500000 -35.500000 0.000000
    endloop
  endfacet
  facet normal -0.000000 0.000000 -1.000000
    outer loop
      vertex 4.822441 -7.598951 0.000000
      vertex 6.560718 -6.160924 0.000000
      vertex 48.500000 -35.500000 0.000000
    endloop
  endfacet
  facet normal -0.000000 0.000000 -1.000000
    outer loop
      vertex 6.560718 -6.160924 0.000000
      vertex 7.886760 -4.335783 0.000000
      vertex 48.500000 -35.500000 0.000000
    endloop
  endfacet
  facet normal -0.000000 0.000000 -1.000000
    outer loop
      vertex 7.886760 -4.335783 0.000000
      vertex 8.717248 -2.238209 0.000000
      vertex 48.500000 -35.500000 0.000000
    endloop
  endfacet
  facet normal 0.000000 0.000000 -1.000000
    outer loop
      vertex 40.434120 -27.462019 0.000000
      vertex 48.500000 -35.500000 0.000000
      vertex 38.750000 -27.165064 0.000000
    endloop
  endfacet
  facet normal 0.000000 0.000000 -1.000000
    outer loop
      vertex 37.650768 -24.144950 0.000000
      vertex 0.434120 22.537981 0.000000
      vertex 1.915111 23.393031 0.000000
    endloop
  endfacet
  facet normal 0.000000 0.000000 -1.000000
    outer loop
      vertex -2.349232 24.144950 0.000000
      vertex -6.500000 35.500000 0.000000
      vertex -2.349232 25.855050 0.000000
    endloop
  endfacet
  facet normal 0.000000 0.000000 -1.000000
    outer loop
      vertex 0.434120 22.537981 0.000000
      vertex 6.560718 6.160924 0.000000
      vertex 4.822441 7.598951 0.000000
    endloop
  endfacet
  facet normal 0.000000 0.000000 -1.000000
    outer loop
      vertex 0.565115 8.982241 0.000000
      vertex 0.000000 8.946687 0.000000
      vertex 0.000000 9.000000 0.000000
    endloop
  endfacet
  facet normal -0.000000 -0.000000 -1.000000
    outer loop
      vertex 0.565115 8.982241 0.000000
      vertex -6.500000 35.500000 0.000000
      vertex 2.781153 8.559509 0.000000
    endloop
  endfacet
  facet normal 0.000000 0.000000 -1.000000
    outer loop
      vertex 0.000000 9.000000 0.000000
      vertex -6.500000 9.000000 0.000000
      vertex -6.500000 35.500000 0.000000
    endloop
  endfacet
  facet normal -0.000000 -0.000000 -1.000000
    outer loop
      vertex 0.000000 9.000000 0.000000
      vertex -6.500000 35.500000 0.000000
      vertex 0.565115 8.982241 0.000000
    endloop
  endfacet
  facet normal 0.000000 -0.000000 -1.000000
    outer loop
      vertex 1.915111 26.606969 0.000000
      vertex -6.500000 35.500000 0.000000
      vertex 48.500000 35.500000 0.000000
    endloop
  endfacet
  facet normal 0.000000 -0.000000 -1.000000
    outer loop
      vertex -6.500000 -35.500000 0.000000
      vertex -6.500000 -9.000000 0.000000
      vertex -2.349232 -24.144950 0.000000
    endloop
  endfacet
  facet normal 0.000000 0.000000 -1.000000
    outer loop
      vertex -6.500000 -35.500000 0.000000
      vertex -2.349232 -24.144950 0.000000
      vertex -2.349232 -25.855050 0.000000
    endloop
  endfacet
  facet normal 0.000000 0.000000 -1.000000
    outer loop
      vertex -6.500000 -35.500000 0.000000
      vertex -2.349232 -25.855050 0.000000
      vertex -1.250000 -27.165064 0.000000
    endloop
  endfacet
  facet normal 0.000000 0.000000 -1.000000
    outer loop
      vertex -6.500000 -35.500000 0.000000
      vertex -1.250000 -27.165064 0.000000
      vertex 0.434120 -27.462019 0.000000
    endloop
  endfacet
  facet normal -0.000000 0.000000 -1.000000
    outer loop
      vertex -6.500000 -35.500000 0.000000
      vertex 0.434120 -27.462019 0.000000
      vertex 48.500000 -35.500000 0.000000
    endloop
  endfacet
  facet normal 0.000000 0.000000 -1.000000
    outer loop
      vertex 2.500000 -25.000000 0.000000
      vertex 48.500000 -35.500000 0.000000
      vertex 1.915111 -26.606969 0.000000
    endloop
  endfacet
  facet normal 0.000000 -0.000000 -1.000000
    outer loop
      vertex -2.349232 25.855050 0.000000
      vertex -6.500000 35.500000 0.000000
      vertex -1.250000 27.165064 0.000000
    endloop
  endfacet
  facet normal -0.000000 -0.000000 -1.000000
    outer loop
      vertex 0.434120 -22.537981 0.000000
      vertex -6.500000 -9.000000 0.000000
      vertex 1.915111 -23.393031 0.000000
    endloop
  endfacet
  facet normal 0.000000 0.000000 -1.000000
    outer loop
      vertex 37.650768 -25.855050 0.000000
      vertex 14.415780 -1.028624 0.000000
      vertex 37.650768 -24.144950 0.000000
    endloop
  endfacet
  facet normal -0.000000 -0.000000 -1.000000
    outer loop
      vertex 2.500000 -25.000000 0.000000
      vertex 1.915111 -23.393031 0.000000
      vertex 48.500000 -35.500000 0.000000
    endloop
  endfacet
  facet normal 0.000000 -0.000000 -1.000000
    outer loop
      vertex -1.250000 -22.834936 0.000000
      vertex -6.500000 -9.000000 0.000000
      vertex 0.434120 -22.537981 0.000000
    endloop
  endfacet
  facet normal 0.000000 -0.000000 -1.000000
    outer loop
      vertex -2.349232 -24.144950 0.000000
      vertex -6.500000 -9.000000 0.000000
      vertex -1.250000 -22.834936 0.000000
    endloop
  endfacet
  facet normal 0.000000 0.000000 -1.000000
    outer loop
      vertex 2.500000 25.000000 0.000000
      vertex 38.750000 -22.834936 0.000000
      vertex 1.915111 23.393031 0.000000
    endloop
  endfacet
  facet normal 0.000000 0.000000 -1.000000
    outer loop
      vertex 2.781153 8.559509 0.000000
      vertex -6.500000 35.500000 0.000000
      vertex -2.349232 24.144950 0.000000
    endloop
  endfacet
  facet normal -0.000000 -0.000000 -1.000000
    outer loop
      vertex 2.781153 8.559509 0.000000
      vertex -2.349232 24.144950 0.000000
      vertex 4.822441 7.598951 0.000000
    endloop
  endfacet
  facet normal 0.000000 0.000000 -1.000000
    outer loop
      vertex 0.434120 22.537981 0.000000
      vertex 4.822441 7.598951 0.000000
      vertex -1.250000 22.834936 0.000000
    endloop
  endfacet
  facet normal 0.000000 -0.000000 -1.000000
    outer loop
      vertex 37.650768 -24.144950 0.000000
      vertex 1.915111 23.393031 0.000000
      vertex 38.750000 -22.834936 0.000000
    endloop
  endfacet
  facet normal 0.000000 0.000000 -1.000000
    outer loop
      vertex -1.250000 22.834936 0.000000
      vertex 4.822441 7.598951 0.000000
      vertex -2.349232 24.144950 0.000000
    endloop
  endfacet
  facet normal 0.000000 0.000000 -1.000000
    outer loop
      vertex 37.650768 -25.855050 0.000000
      vertex 12.459220 -1.664349 0.000000
      vertex 13.540780 -1.664349 0.000000
    endloop
  endfacet
  facet normal 0.000000 -0.000000 -1.000000
    outer loop
      vertex 11.250000 0.000000 0.000000
      vertex 7.886760 4.335783 0.000000
      vertex 11.584220 1.028624 0.000000
    endloop
  endfacet
  facet normal 0.000000 0.000000 -1.000000
    outer loop
      vertex 37.650768 -25.855050 0.000000
      vertex 13.540780 -1.664349 0.000000
      vertex 14.415780 -1.028624 0.000000
    endloop
  endfacet
  facet normal 0.000000 -0.000000 -1.000000
    outer loop
      vertex -1.250000 27.165064 0.000000
      vertex -6.500000 35.500000 0.000000
      vertex 0.434120 27.462019 0.000000
    endloop
  endfacet
  facet normal 0.000000 -0.000000 -1.000000
    outer loop
      vertex 38.750000 27.165064 0.000000
      vertex 2.500000 25.000000 0.000000
      vertex 48.500000 35.500000 0.000000
    endloop
  endfacet
  facet normal -0.000000 -0.000000 -1.000000
    outer loop
      vertex 0.434120 27.462019 0.000000
      vertex -6.500000 35.500000 0.000000
      vertex 1.915111 26.606969 0.000000
    endloop
  endfacet
  facet normal 0.000000 -0.000000 -1.000000
    outer loop
      vertex 2.500000 25.000000 0.000000
      vertex 1.915111 26.606969 0.000000
      vertex 48.500000 35.500000 0.000000
    endloop
  endfacet
  facet normal -0.000000 -0.000000 -1.000000
    outer loop
      vertex 8.717248 2.238209 0.000000
      vertex 7.886760 4.335783 0.000000
      vertex 11.250000 0.000000 0.000000
    endloop
  endfacet
  facet normal 0.000000 0.000000 -1.000000
    outer loop
      vertex 37.650768 -24.144950 0.000000
      vertex 14.750000 0.000000 0.000000
      vertex 14.415780 1.028624 0.000000
    endloop
  endfacet
  facet normal -0.000000 -0.000000 -1.000000
    outer loop
      vertex 9.000000 0.000000 0.000000
      vertex 8.717248 2.238209 0.000000
      vertex 11.584220 -1.028624 0.000000
    endloop
  endfacet
  facet normal 0.000000 0.000000 -1.000000
    outer loop
      vertex 38.750000 22.834936 0.000000
      vertex 41.915111 -23.393031 0.000000
      vertex 37.650768 24.144950 0.000000
    endloop
  endfacet
  facet normal 0.000000 0.000000 -1.000000
    outer loop
      vertex 11.584220 -1.028624 0.000000
      vertex 8.717248 2.238209 0.000000
      vertex 11.250000 0.000000 0.000000
    endloop
  endfacet
  facet normal 0.000000 -0.000000 -1.000000
    outer loop
      vertex 11.584220 1.028624 0.000000
      vertex 6.560718 6.160924 0.000000
      vertex 12.459220 1.664349 0.000000
    endloop
  endfacet
  facet normal -0.000000 -0.000000 -1.000000
    outer loop
      vertex 12.459220 1.664349 0.000000
      vertex 0.434120 22.537981 0.000000
      vertex 13.540780 1.664349 0.000000
    endloop
  endfacet
  facet normal 0.000000 0.000000 -1.000000
    outer loop
      vertex 37.650768 -25.855050 0.000000
      vertex 9.000000 0.000000 0.000000
      vertex 11.584220 -1.028624 0.000000
    endloop
  endfacet
  facet normal 0.000000 0.000000 -1.000000
    outer loop
      vertex 37.650768 -25.855050 0.000000
      vertex 11.584220 -1.028624 0.000000
      vertex 12.459220 -1.664349 0.000000
    endloop
  endfacet
  facet normal -0.000000 -0.000000 -1.000000
    outer loop
      vertex 6.560718 6.160924 0.000000
      vertex 0.434120 22.537981 0.000000
      vertex 12.459220 1.664349 0.000000
    endloop
  endfacet
  facet normal 0.000000 0.000000 -1.000000
    outer loop
      vertex 37.650768 -24.144950 0.000000
      vertex 14.415780 1.028624 0.000000
      vertex 0.434120 22.537981 0.000000
    endloop
  endfacet
  facet normal -0.000000 -0.000000 -1.000000
    outer loop
      vertex 7.886760 4.335783 0.000000
      vertex 6.560718 6.160924 0.000000
      vertex 11.584220 1.028624 0.000000
    endloop
  endfacet
  facet normal -0.000000 0.000000 -1.000000
    outer loop
      vertex 14.415780 -1.028624 0.000000
      vertex 14.750000 0.000000 0.000000
      vertex 37.650768 -24.144950 0.000000
    endloop
  endfacet
  facet normal -0.000000 0.000000 -1.000000
    outer loop
      vertex 8.717248 -2.238209 0.000000
      vertex 9.000000 0.000000 0.000000
      vertex 37.650768 -25.855050 0.000000
    endloop
  endfacet
  facet normal 0.000000 0.000000 -1.000000
    outer loop
      vertex 8.717248 -2.238209 0.000000
      vertex 37.650768 -25.855050 0.000000
      vertex 38.750000 -27.165064 0.000000
    endloop
  endfacet
  facet normal 0.000000 0.000000 -1.000000
    outer loop
      vertex 8.717248 -2.238209 0.000000
      vertex 38.750000 -27.165064 0.000000
      vertex 48.500000 -35.500000 0.000000
    endloop
  endfacet
  facet normal -0.000000 -0.000000 -1.000000
    outer loop
      vertex 13.540780 1.664349 0.000000
      vertex 0.434120 22.537981 0.000000
      vertex 14.415780 1.028624 0.000000
    endloop
  endfacet
  facet normal -0.000000 0.000000 -1.000000
    outer loop
      vertex 41.915111 -23.393031 0.000000
      vertex 48.500000 35.500000 0.000000
      vertex 42.500000 -25.000000 0.000000
    endloop
  endfacet
  facet normal 0.000000 0.000000 -1.000000
    outer loop
      vertex 48.500000 -35.500000 0.000000
      vertex 41.915111 -26.606969 0.000000
      vertex 42.500000 -25.000000 0.000000
    endloop
  endfacet
  facet normal 0.000000 0.000000 -1.000000
    outer loop
      vertex 48.500000 -35.500000 0.000000
      vertex 42.500000 -25.000000 0.000000
      vertex 48.500000 35.500000 0.000000
    endloop
  endfacet
  facet normal -0.000000 -0.000000 -1.000000
    outer loop
      vertex 40.434120 -22.537981 0.000000
      vertex 2.500000 25.000000 0.000000
      vertex 41.915111 -23.393031 0.000000
    endloop
  endfacet
  facet normal 0.000000 -0.000000 -1.000000
    outer loop
      vertex 38.750000 -22.834936 0.000000
      vertex 2.500000 25.000000 0.000000
      vertex 40.434120 -22.537981 0.000000
    endloop
  endfacet
  facet normal 0.000000 0.000000 -1.000000
    outer loop
      vertex 37.650768 24.144950 0.000000
      vertex 2.500000 25.000000 0.000000
      vertex 37.650768 25.855050 0.000000
    endloop
  endfacet
  facet normal 0.000000 0.000000 -1.000000
    outer loop
      vertex 41.915111 -23.393031 0.000000
      vertex 2.500000 25.000000 0.000000
      vertex 37.650768 24.144950 0.000000
    endloop
  endfacet
  facet normal -0.000000 0.000000 -1.000000
    outer loop
      vertex 41.915111 26.606969 0.000000
      vertex 48.500000 35.500000 0.000000
      vertex 42.500000 25.000000 0.000000
    endloop
  endfacet
  facet normal 0.000000 0.000000 -1.000000
    outer loop
      vertex 41.915111 -23.393031 0.000000
      vertex 38.750000 22.834936 0.000000
      vertex 40.434120 22.537981 0.000000
    endloop
  endfacet
  facet normal 0.000000 0.000000 -1.000000
    outer loop
      vertex 41.915111 -23.393031 0.000000
      vertex 40.434120 22.537981 0.000000
      vertex 41.915111 23.393031 0.000000
    endloop
  endfacet
  facet normal 0.000000 -0.000000 -1.000000
    outer loop
      vertex 41.915111 -23.393031 0.000000
      vertex 41.915111 23.393031 0.000000
      vertex 48.500000 35.500000 0.000000
    endloop
  endfacet
  facet normal 0.000000 0.000000 -1.000000
    outer loop
      vertex 41.915111 23.393031 0.000000
      vertex 42.500000 25.000000 0.000000
      vertex 48.500000 35.500000 0.000000
    endloop
  endfacet
  facet normal -0.000000 0.000000 -1.000000
    outer loop
      vertex 40.434120 27.462019 0.000000
      vertex 48.500000 35.500000 0.000000
      vertex 41.915111 26.606969 0.000000
    endloop
  endfacet
  facet normal 0.000000 0.000000 -1.000000
    outer loop
      vertex 38.750000 27.165064 0.000000
      vertex 48.500000 35.500000 0.000000
      vertex 40.434120 27.462019 0.000000
    endloop
  endfacet
  facet normal 0.000000 -0.000000 -1.000000
    outer loop
      vertex 37.650768 25.855050 0.000000
      vertex 2.500000 25.000000 0.000000
      vertex 38.750000 27.165064 0.000000
    endloop
  endfacet
  facet normal 0.000000 0.000000 -1.000000
    outer loop
      vertex 1.915111 -26.606969 0.000000
      vertex 48.500000 -35.500000 0.000000
      vertex 0.434120 -27.462019 0.000000
    endloop
  endfacet
  facet normal 0.000000 0.000000 -1.000000
    outer loop
      vertex 41.915111 -26.606969 0.000000
      vertex 48.500000 -35.500000 0.000000
      vertex 40.434120 -27.462019 0.000000
    endloop
  endfacet
  facet normal 0.000000 1.000000 0.000000
    outer loop
      vertex 0.000000 -9.000000 10.000000
      vertex 0.000000 -9.000000 0.000000
      vertex -6.500000 -9.000000 10.000000
    endloop
  endfacet
  facet normal 0.000000 1.000000 -0.000000
    outer loop
      vertex -6.500000 -9.000000 10.000000
      vertex 0.000000 -9.000000 0.000000
      vertex -6.500000 -9.000000 0.000000
    endloop
  endfacet
  facet normal 0.000000 0.000000 -1.000000
    outer loop
      vertex 4.942052 -7.500000 10.000000
      vertex 4.822441 -7.598951 10.000000
      vertex -6.500000 -7.500000 10.000000
    endloop
  endfacet
  facet normal 0.000000 0.000000 -1.000000
    outer loop
      vertex -6.500000 -7.500000 10.000000
      vertex 4.822441 -7.598951 10.000000
      vertex 2.781153 -8.559509 10.000000
    endloop
  endfacet
  facet normal 0.000000 0.000000 -1.000000
    outer loop
      vertex -6.500000 -7.500000 10.000000
      vertex 2.781153 -8.559509 10.000000
      vertex 0.565115 -8.982241 10.000000
    endloop
  endfacet
  facet normal 0.000000 0.000000 -1.000000
    outer loop
      vertex -6.500000 -7.500000 10.000000
      vertex 0.565115 -8.982241 10.000000
      vertex 0.000000 -8.946687 10.000000
    endloop
  endfacet
  facet normal 0.000000 0.000000 -1.000000
    outer loop
      vertex -6.500000 -7.500000 10.000000
      vertex 0.000000 -8.946687 10.000000
      vertex 0.000000 -9.000000 10.000000
    endloop
  endfacet
  facet normal 0.000000 0.000000 -1.000000
    outer loop
      vertex -6.500000 -7.500000 10.000000
      vertex 0.000000 -9.000000 10.000000
      vertex -6.500000 -9.000000 10.000000
    endloop
  endfacet
  facet normal 0.000000 1.000000 0.000000
    outer loop
      vertex -6.500000 -7.500000 10.000000
      vertex -6.500000 -7.500000 20.000000
      vertex 4.942052 -7.500000 10.000000
    endloop
  endfacet
  facet normal 0.000000 1.000000 0.000000
    outer loop
      vertex 4.942052 -7.500000 10.000000
      vertex -6.500000 -7.500000 20.000000
      vertex 48.500000 -7.500000 20.000000
    endloop
  endfacet
  facet normal 0.000000 1.000000 0.000000
    outer loop
      vertex 4.942052 -7.500000 10.000000
      vertex 48.500000 -7.500000 20.000000
      vertex 48.500000 -7.500000 9.000000
    endloop
  endfacet
  facet normal 0.000000 1.000000 0.000000
    outer loop
      vertex 4.942052 -7.500000 10.000000
      vertex 48.500000 -7.500000 9.000000
      vertex 35.000000 -7.500000 9.000000
    endloop
  endfacet
  facet normal 0.000000 1.000000 0.000000
    outer loop
      vertex 4.942052 -7.500000 10.000000
      vertex 35.000000 -7.500000 9.000000
      vertex 35.000000 -7.500000 5.000000
    endloop
  endfacet
  facet normal 0.000000 1.000000 -0.000000
    outer loop
      vertex 4.942052 -7.500000 10.000000
      vertex 35.000000 -7.500000 5.000000
      vertex 4.942052 -7.500000 5.000000
    endloop
  endfacet
  facet normal 0.000000 -0.000000 1.000000
    outer loop
      vertex -6.500000 -7.500000 20.000000
      vertex -6.500000 -16.500000 20.000000
      vertex 48.500000 -16.500000 20.000000
    endloop
  endfacet
  facet normal 0.000000 0.000000 1.000000
    outer loop
      vertex 48.500000 -7.500000 20.000000
      vertex -6.500000 -7.500000 20.000000
      vertex 48.500000 -16.500000 20.000000
    endloop
  endfacet
  facet normal 0.000000 -1.000000 0.000000
    outer loop
      vertex -6.500000 -16.500000 20.000000
      vertex -6.500000 -16.500000 5.000000
      vertex 35.000000 -16.500000 5.000000
    endloop
  endfacet
  facet normal 0.000000 -1.000000 0.000000
    outer loop
      vertex 48.500000 -16.500000 9.000000
      vertex -6.500000 -16.500000 20.000000
      vertex 35.000000 -16.500000 9.000000
    endloop
  endfacet
  facet normal 0.000000 -1.000000 0.000000
    outer loop
      vertex 35.000000 -16.500000 9.000000
      vertex -6.500000 -16.500000 20.000000
      vertex 35.000000 -16.500000 5.000000
    endloop
  endfacet
  facet normal 0.000000 -1.000000 0.000000
    outer loop
      vertex 48.500000 -16.500000 20.000000
      vertex -6.500000 -16.500000 20.000000
      vertex 48.500000 -16.500000 9.000000
    endloop
  endfacet
  facet normal 0.000000 -0.000000 1.000000
    outer loop
      vertex -2.250000 -28.897114 5.000000
      vertex -6.500000 -32.500000 5.000000
      vertex 35.000000 -32.500000 5.000000
    endloop
  endfacet
  facet normal 0.000000 0.000000 1.000000
    outer loop
      vertex 35.000000 -16.500000 5.000000
      vertex -6.500000 -16.500000 5.000000
      vertex 35.000000 -32.500000 5.000000
    endloop
  endfacet
  facet normal 0.000000 -0.000000 1.000000
    outer loop
      vertex 2.250000 -28.897114 5.000000
      vertex -2.250000 -28.897114 5.000000
      vertex 35.000000 -32.500000 5.000000
    endloop
  endfacet
  facet normal 0.000000 -0.000000 1.000000
    outer loop
      vertex -4.500000 -25.000000 5.000000
      vertex -6.500000 -32.500000 5.000000
      vertex -2.250000 -28.897114 5.000000
    endloop
  endfacet
  facet normal 0.000000 0.000000 1.000000
    outer loop
      vertex 2.250000 -21.102886 5.000000
      vertex 4.500000 -25.000000 5.000000
      vertex 35.000000 -32.500000 5.000000
    endloop
  endfacet
  facet normal 0.000000 -0.000000 1.000000
    outer loop
      vertex -6.500000 -16.500000 5.000000
      vertex -6.500000 -32.500000 5.000000
      vertex -4.500000 -25.000000 5.000000
    endloop
  endfacet
  facet normal 0.000000 0.000000 1.000000
    outer loop
      vertex -6.500000 -16.500000 5.000000
      vertex 2.250000 -21.102886 5.000000
      vertex 35.000000 -32.500000 5.000000
    endloop
  endfacet
  facet normal 0.000000 0.000000 1.000000
    outer loop
      vertex -6.500000 -16.500000 5.000000
      vertex -2.250000 -21.102886 5.000000
      vertex 2.250000 -21.102886 5.000000
    endloop
  endfacet
  facet normal 0.000000 -0.000000 1.000000
    outer loop
      vertex 4.500000 -25.000000 5.000000
      vertex 2.250000 -28.897114 5.000000
      vertex 35.000000 -32.500000 5.000000
    endloop
  endfacet
  facet normal 0.000000 0.000000 1.000000
    outer loop
      vertex -4.500000 -25.000000 5.000000
      vertex -2.250000 -21.102886 5.000000
      vertex -6.500000 -16.500000 5.000000
    endloop
  endfacet
  facet normal 0.000000 1.000000 0.000000
    outer loop
      vertex 48.500000 -32.500000 10.500000
      vertex 48.500000 -32.500000 9.000000
      vertex -6.500000 -32.500000 10.500000
    endloop
  endfacet
  facet normal 0.000000 1.000000 0.000000
    outer loop
      vertex -6.500000 -32.500000 10.500000
      vertex 48.500000 -32.500000 9.000000
      vertex 35.000000 -32.500000 9.000000
    endloop
  endfacet
  facet normal 0.000000 1.000000 0.000000
    outer loop
      vertex -6.500000 -32.500000 10.500000
      vertex 35.000000 -32.500000 9.000000
      vertex 35.000000 -32.500000 5.000000
    endloop
  endfacet
  facet normal 0.000000 1.000000 -0.000000
    outer loop
      vertex -6.500000 -32.500000 10.500000
      vertex 35.000000 -32.500000 5.000000
      vertex -6.500000 -32.500000 5.000000
    endloop
  endfacet
  facet normal 0.000000 -0.000000 1.000000
    outer loop
      vertex -6.500000 -32.500000 10.500000
      vertex -6.500000 -35.500000 10.500000
      vertex 48.500000 -35.500000 10.500000
    endloop
  endfacet
  facet normal 0.000000 0.000000 1.000000
    outer loop
      vertex 48.500000 -32.500000 10.500000
      vertex -6.500000 -32.500000 10.500000
      vertex 48.500000 -35.500000 10.500000
    endloop
  endfacet
  facet normal 1.000000 0.000000 -0.000000
    outer loop
      vertex 48.500000 -32.500000 9.000000
      vertex 48.500000 -35.500000 0.000000
      vertex 48.500000 35.500000 0.000000
    endloop
  endfacet
  facet normal 1.000000 0.000000 0.000000
    outer loop
      vertex 48.500000 -32.500000 9.000000
      vertex 48.500000 -32.500000 10.500000
      vertex 48.500000 -35.500000 10.500000
    endloop
  endfacet
  facet normal 1.000000 0.000000 0.000000
    outer loop
      vertex 48.500000 35.500000 10.500000
      vertex 48.500000 32.500000 10.500000
      vertex 48.500000 35.500000 0.000000
    endloop
  endfacet
  facet normal 1.000000 0.000000 -0.000000
    outer loop
      vertex 48.500000 32.500000 10.500000
      vertex 48.500000 32.500000 9.000000
      vertex 48.500000 35.500000 0.000000
    endloop
  endfacet
  facet normal 1.000000 0.000000 -0.000000
    outer loop
      vertex 48.500000 32.500000 9.000000
      vertex 48.500000 16.500000 9.000000
      vertex 48.500000 35.500000 0.000000
    endloop
  endfacet
  facet normal 1.000000 0.000000 0.000000
    outer loop
      vertex 48.500000 7.500000 20.000000
      vertex 48.500000 16.500000 9.000000
      vertex 48.500000 16.500000 20.000000
    endloop
  endfacet
  facet normal 1.000000 0.000000 -0.000000
    outer loop
      vertex 48.500000 16.500000 9.000000
      vertex 48.500000 7.500000 9.000000
      vertex 48.500000 35.500000 0.000000
    endloop
  endfacet
  facet normal 1.000000 0.000000 -0.000000
    outer loop
      vertex 48.500000 7.500000 9.000000
      vertex 48.500000 -7.500000 9.000000
      vertex 48.500000 35.500000 0.000000
    endloop
  endfacet
  facet normal 1.000000 0.000000 -0.000000
    outer loop
      vertex 48.500000 -16.500000 20.000000
      vertex 48.500000 -16.500000 9.000000
      vertex 48.500000 -7.500000 9.000000
    endloop
  endfacet
  facet normal 1.000000 0.000000 -0.000000
    outer loop
      vertex 48.500000 -7.500000 9.000000
      vertex 48.500000 -16.500000 9.000000
      vertex 48.500000 35.500000 0.000000
    endloop
  endfacet
  facet normal 1.000000 0.000000 -0.000000
    outer loop
      vertex 48.500000 -35.500000 10.500000
      vertex 48.500000 -35.500000 0.000000
      vertex 48.500000 -32.500000 9.000000
    endloop
  endfacet
  facet normal 1.000000 0.000000 0.000000
    outer loop
      vertex 48.500000 -16.500000 20.000000
      vertex 48.500000 -7.500000 9.000000
      vertex 48.500000 -7.500000 20.000000
    endloop
  endfacet
  facet normal 1.000000 0.000000 -0.000000
    outer loop
      vertex 48.500000 -16.500000 9.000000
      vertex 48.500000 -32.500000 9.000000
      vertex 48.500000 35.500000 0.000000
    endloop
  endfacet
  facet normal 1.000000 0.000000 -0.000000
    outer loop
      vertex 48.500000 7.500000 20.000000
      vertex 48.500000 7.500000 9.000000
      vertex 48.500000 16.500000 9.000000
    endloop
  endfacet
  facet normal 0.000000 1.000000 0.000000
    outer loop
      vertex -6.500000 35.500000 0.000000
      vertex -6.500000 35.500000 10.500000
      vertex 48.500000 35.500000 0.000000
    endloop
  endfacet
  facet normal 0.000000 1.000000 0.000000
    outer loop
      vertex 48.500000 35.500000 0.000000
      vertex -6.500000 35.500000 10.500000
      vertex 48.500000 35.500000 10.500000
    endloop
  endfacet
  facet normal -1.000000 -0.000000 -0.000000
    outer loop
      vertex -6.500000 7.500000 10.000000
      vertex -6.500000 7.500000 20.000000
      vertex -6.500000 9.000000 10.000000
    endloop
  endfacet
  facet normal -1.000000 0.000000 -0.000000
    outer loop
      vertex -6.500000 9.000000 10.000000
      vertex -6.500000 7.500000 20.000000
      vertex -6.500000 16.500000 20.000000
    endloop
  endfacet
  facet normal -1.000000 -0.000000 0.000000
    outer loop
      vertex -6.500000 9.000000 10.000000
      vertex -6.500000 16.500000 20.000000
      vertex -6.500000 16.500000 5.000000
    endloop
  endfacet
  facet normal -1.000000 0.000000 -0.000000
    outer loop
      vertex -6.500000 32.500000 5.000000
      vertex -6.500000 32.500000 10.500000
      vertex -6.500000 35.500000 10.500000
    endloop
  endfacet
  facet normal -1.000000 -0.000000 0.000000
    outer loop
      vertex -6.500000 32.500000 5.000000
      vertex -6.500000 35.500000 10.500000
      vertex -6.500000 35.500000 0.000000
    endloop
  endfacet
  facet normal -1.000000 0.000000 0.000000
    outer loop
      vertex -6.500000 32.500000 5.000000
      vertex -6.500000 35.500000 0.000000
      vertex -6.500000 16.500000 5.000000
    endloop
  endfacet
  facet normal -1.000000 0.000000 0.000000
    outer loop
      vertex -6.500000 16.500000 5.000000
      vertex -6.500000 35.500000 0.000000
      vertex -6.500000 9.000000 0.000000
    endloop
  endfacet
  facet normal -1.000000 0.000000 0.000000
    outer loop
      vertex -6.500000 9.000000 10.000000
      vertex -6.500000 16.500000 5.000000
      vertex -6.500000 9.000000 0.000000
    endloop
  endfacet
  facet normal 0.000000 -1.000000 0.000000
    outer loop
      vertex 0.000000 9.000000 0.000000
      vertex 0.000000 9.000000 10.000000
      vertex -6.500000 9.000000 10.000000
    endloop
  endfacet
  facet normal -0.000000 -1.000000 -0.000000
    outer loop
      vertex -6.500000 9.000000 0.000000
      vertex 0.000000 9.000000 0.000000
      vertex -6.500000 9.000000 10.000000
    endloop
  endfacet
  facet normal -1.000000 0.000000 0.000000
    outer loop
      vertex 0.000000 9.000000 10.000000
      vertex 0.000000 9.000000 0.000000
      vertex 0.000000 8.946687 10.000000
    endloop
  endfacet
  facet normal -1.000000 0.000000 0.000000
    outer loop
      vertex 0.000000 8.946687 10.000000
      vertex 0.000000 9.000000 0.000000
      vertex 0.000000 8.946687 0.000000
    endloop
  endfacet
  facet normal 0.062791 -0.998027 0.000000
    outer loop
      vertex 0.565115 8.982241 0.000000
      vertex 0.565115 8.982241 10.000000
      vertex 0.000000 8.946687 10.000000
    endloop
  endfacet
  facet normal 0.062791 -0.998027 0.000000
    outer loop
      vertex 0.000000 8.946687 0.000000
      vertex 0.565115 8.982241 0.000000
      vertex 0.000000 8.946687 10.000000
    endloop
  endfacet
  facet normal -0.187381 -0.982287 -0.000000
    outer loop
      vertex 2.781153 8.559509 0.000000
      vertex 2.781153 8.559509 10.000000
      vertex 0.565115 8.982241 10.000000
    endloop
  endfacet
  facet normal -0.187381 -0.982287 -0.000000
    outer loop
      vertex 0.565115 8.982241 0.000000
      vertex 2.781153 8.559509 0.000000
      vertex 0.565115 8.982241 10.000000
    endloop
  endfacet
  facet normal -0.425780 -0.904827 -0.000000
    outer loop
      vertex 4.822441 7.598951 0.000000
      vertex 4.822441 7.598951 10.000000
      vertex 2.781153 8.559509 10.000000
    endloop
  endfacet
  facet normal -0.425780 -0.904827 -0.000000
    outer loop
      vertex 2.781153 8.559509 0.000000
      vertex 4.822441 7.598951 0.000000
      vertex 2.781153 8.559509 10.000000
    endloop
  endfacet
  facet normal -0.637424 -0.770513 -0.000000
    outer loop
      vertex 6.560718 6.160924 0.000000
      vertex 6.560718 6.160924 5.000000
      vertex 4.942052 7.500000 5.000000
    endloop
  endfacet
  facet normal -0.637424 -0.770513 -0.000000
    outer loop
      vertex 4.822441 7.598951 0.000000
      vertex 6.560718 6.160924 0.000000
      vertex 4.942052 7.500000 5.000000
    endloop
  endfacet
  facet normal -0.637424 -0.770513 0.000000
    outer loop
      vertex 4.942052 7.500000 10.000000
      vertex 4.822441 7.598951 10.000000
      vertex 4.942052 7.500000 5.000000
    endloop
  endfacet
  facet normal -0.637424 -0.770513 0.000000
    outer loop
      vertex 4.822441 7.598951 10.000000
      vertex 4.822441 7.598951 0.000000
      vertex 4.942052 7.500000 5.000000
    endloop
  endfacet
  facet normal -0.809017 -0.587785 0.000000
    outer loop
      vertex 7.886760 4.335783 5.000000
      vertex 6.560718 6.160924 5.000000
      vertex 7.886760 4.335783 0.000000
    endloop
  endfacet
  facet normal -0.809017 -0.587785 0.000000
    outer loop
      vertex 7.886760 4.335783 0.000000
      vertex 6.560718 6.160924 5.000000
      vertex 6.560718 6.160924 0.000000
    endloop
  endfacet
  facet normal -0.929777 -0.368124 0.000000
    outer loop
      vertex 8.717248 2.238209 5.000000
      vertex 7.886760 4.335783 5.000000
      vertex 8.717248 2.238209 0.000000
    endloop
  endfacet
  facet normal -0.929777 -0.368124 0.000000
    outer loop
      vertex 8.717248 2.238209 0.000000
      vertex 7.886760 4.335783 5.000000
      vertex 7.886760 4.335783 0.000000
    endloop
  endfacet
  facet normal -0.992115 -0.125333 0.000000
    outer loop
      vertex 9.000000 0.000000 5.000000
      vertex 8.717248 2.238209 5.000000
      vertex 9.000000 0.000000 0.000000
    endloop
  endfacet
  facet normal -0.992115 -0.125333 0.000000
    outer loop
      vertex 9.000000 0.000000 0.000000
      vertex 8.717248 2.238209 5.000000
      vertex 8.717248 2.238209 0.000000
    endloop
  endfacet
  facet normal -0.992115 0.125333 0.000000
    outer loop
      vertex 9.000000 0.000000 5.000000
      vertex 9.000000 0.000000 0.000000
      vertex 8.717248 -2.238209 5.000000
    endloop
  endfacet
  facet normal -0.992115 0.125333 0.000000
    outer loop
      vertex 8.717248 -2.238209 5.000000
      vertex 9.000000 0.000000 0.000000
      vertex 8.717248 -2.238209 0.000000
    endloop
  endfacet
  facet normal -0.929777 0.368124 0.000000
    outer loop
      vertex 8.717248 -2.238209 5.000000
      vertex 8.717248 -2.238209 0.000000
      vertex 7.886760 -4.335783 5.000000
    endloop
  endfacet
  facet normal -0.929777 0.368124 0.000000
    outer loop
      vertex 7.886760 -4.335783 5.000000
      vertex 8.717248 -2.238209 0.000000
      vertex 7.886760 -4.335783 0.000000
    endloop
  endfacet
  facet normal -0.809017 0.587785 0.000000
    outer loop
      vertex 7.886760 -4.335783 5.000000
      vertex 7.886760 -4.335783 0.000000
      vertex 6.560718 -6.160924 5.000000
    endloop
  endfacet
  facet normal -0.809017 0.587785 0.000000
    outer loop
      vertex 6.560718 -6.160924 5.000000
      vertex 7.886760 -4.335783 0.000000
      vertex 6.560718 -6.160924 0.000000
    endloop
  endfacet
  facet normal -0.637424 0.770513 0.000000
    outer loop
      vertex 4.942052 -7.500000 10.000000
      vertex 4.942052 -7.500000 5.000000
      vertex 4.822441 -7.598951 10.000000
    endloop
  endfacet
  facet normal -0.637424 0.770513 0.000000
    outer loop
      vertex 6.560718 -6.160924 0.000000
      vertex 4.942052 -7.500000 5.000000
      vertex 6.560718 -6.160924 5.000000
    endloop
  endfacet
  facet normal -0.637424 0.770513 -0.000000
    outer loop
      vertex 4.822441 -7.598951 0.000000
      vertex 4.942052 -7.500000 5.000000
      vertex 6.560718 -6.160924 0.000000
    endloop
  endfacet
  facet normal -0.637424 0.770513 0.000000
    outer loop
      vertex 4.822441 -7.598951 10.000000
      vertex 4.942052 -7.500000 5.000000
      vertex 4.822441 -7.598951 0.000000
    endloop
  endfacet
  facet normal -0.425780 0.904827 0.000000
    outer loop
      vertex 4.822441 -7.598951 10.000000
      vertex 4.822441 -7.598951 0.000000
      vertex 2.781153 -8.559509 10.000000
    endloop
  endfacet
  facet normal -0.425780 0.904827 0.000000
    outer loop
      vertex 2.781153 -8.559509 10.000000
      vertex 4.822441 -7.598951 0.000000
      vertex 2.781153 -8.559509 0.000000
    endloop
  endfacet
  facet normal -0.187381 0.982287 0.000000
    outer loop
      vertex 2.781153 -8.559509 10.000000
      vertex 2.781153 -8.559509 0.000000
      vertex 0.565115 -8.982241 10.000000
    endloop
  endfacet
  facet normal -0.187381 0.982287 0.000000
    outer loop
      vertex 0.565115 -8.982241 10.000000
      vertex 2.781153 -8.559509 0.000000
      vertex 0.565115 -8.982241 0.000000
    endloop
  endfacet
  facet normal 0.062791 0.998027 -0.000000
    outer loop
      vertex 0.565115 -8.982241 10.000000
      vertex 0.565115 -8.982241 0.000000
      vertex 0.000000 -8.946687 10.000000
    endloop
  endfacet
  facet normal 0.062791 0.998027 -0.000000
    outer loop
      vertex 0.000000 -8.946687 10.000000
      vertex 0.565115 -8.982241 0.000000
      vertex 0.000000 -8.946687 0.000000
    endloop
  endfacet
  facet normal -1.000000 0.000000 0.000000
    outer loop
      vertex 0.000000 -8.946687 10.000000
      vertex 0.000000 -8.946687 0.000000
      vertex 0.000000 -9.000000 10.000000
    endloop
  endfacet
  facet normal -1.000000 0.000000 0.000000
    outer loop
      vertex 0.000000 -9.000000 10.000000
      vertex 0.000000 -8.946687 0.000000
      vertex 0.000000 -9.000000 0.000000
    endloop
  endfacet
  facet normal 1.000000 0.000000 0.000000
    outer loop
      vertex -2.349232 -24.144950 0.000000
      vertex -2.349232 -24.144950 1.500000
      vertex -2.349232 -25.855050 1.500000
    endloop
  endfacet
  facet normal 1.000000 0.000000 0.000000
    outer loop
      vertex -2.349232 -25.855050 0.000000
      vertex -2.349232 -24.144950 0.000000
      vertex -2.349232 -25.855050 1.500000
    endloop
  endfacet
  facet normal 0.766045 -0.642788 0.000000
    outer loop
      vertex -1.250000 -22.834936 0.000000
      vertex -1.250000 -22.834936 1.500000
      vertex -2.349232 -24.144950 1.500000
    endloop
  endfacet
  facet normal 0.766045 -0.642788 0.000000
    outer loop
      vertex -2.349232 -24.144950 0.000000
      vertex -1.250000 -22.834936 0.000000
      vertex -2.349232 -24.144950 1.500000
    endloop
  endfacet
  facet normal 0.173648 -0.984808 0.000000
    outer loop
      vertex 0.434120 -22.537981 0.000000
      vertex 0.434120 -22.537981 1.500000
      vertex -1.250000 -22.834936 1.500000
    endloop
  endfacet
  facet normal 0.173648 -0.984808 0.000000
    outer loop
      vertex -1.250000 -22.834936 0.000000
      vertex 0.434120 -22.537981 0.000000
      vertex -1.250000 -22.834936 1.500000
    endloop
  endfacet
  facet normal -0.500000 -0.866026 -0.000000
    outer loop
      vertex 1.915111 -23.393031 0.000000
      vertex 1.915111 -23.393031 1.500000
      vertex 0.434120 -22.537981 1.500000
    endloop
  endfacet
  facet normal -0.500000 -0.866026 -0.000000
    outer loop
      vertex 0.434120 -22.537981 0.000000
      vertex 1.915111 -23.393031 0.000000
      vertex 0.434120 -22.537981 1.500000
    endloop
  endfacet
  facet normal -0.939693 -0.342020 0.000000
    outer loop
      vertex 2.500000 -25.000000 1.500000
      vertex 1.915111 -23.393031 1.500000
      vertex 2.500000 -25.000000 0.000000
    endloop
  endfacet
  facet normal -0.939693 -0.342020 0.000000
    outer loop
      vertex 2.500000 -25.000000 0.000000
      vertex 1.915111 -23.393031 1.500000
      vertex 1.915111 -23.393031 0.000000
    endloop
  endfacet
  facet normal -0.939693 0.342020 0.000000
    outer loop
      vertex 2.500000 -25.000000 1.500000
      vertex 2.500000 -25.000000 0.000000
      vertex 1.915111 -26.606969 1.500000
    endloop
  endfacet
  facet normal -0.939693 0.342020 0.000000
    outer loop
      vertex 1.915111 -26.606969 1.500000
      vertex 2.500000 -25.000000 0.000000
      vertex 1.915111 -26.606969 0.000000
    endloop
  endfacet
  facet normal -0.500000 0.866026 0.000000
    outer loop
      vertex 1.915111 -26.606969 1.500000
      vertex 1.915111 -26.606969 0.000000
      vertex 0.434120 -27.462019 1.500000
    endloop
  endfacet
  facet normal -0.500000 0.866026 0.000000
    outer loop
      vertex 0.434120 -27.462019 1.500000
      vertex 1.915111 -26.606969 0.000000
      vertex 0.434120 -27.462019 0.000000
    endloop
  endfacet
  facet normal 0.173648 0.984808 -0.000000
    outer loop
      vertex 0.434120 -27.462019 1.500000
      vertex 0.434120 -27.462019 0.000000
      vertex -1.250000 -27.165064 1.500000
    endloop
  endfacet
  facet normal 0.173648 0.984808 -0.000000
    outer loop
      vertex -1.250000 -27.165064 1.500000
      vertex 0.434120 -27.462019 0.000000
      vertex -1.250000 -27.165064 0.000000
    endloop
  endfacet
  facet normal 0.766045 0.642788 0.000000
    outer loop
      vertex -2.349232 -25.855050 1.500000
      vertex -1.250000 -27.165064 1.500000
      vertex -1.250000 -27.165064 0.000000
    endloop
  endfacet
  facet normal 0.766045 0.642788 0.000000
    outer loop
      vertex -2.349232 -25.855050 0.000000
      vertex -2.349232 -25.855050 1.500000
      vertex -1.250000 -27.165064 0.000000
    endloop
  endfacet
  facet normal 0.766045 -0.642788 0.000000
    outer loop
      vertex -1.250000 27.165064 0.000000
      vertex -1.250000 27.165064 1.500000
      vertex -2.349232 25.855050 1.500000
    endloop
  endfacet
  facet normal 0.766045 -0.642788 0.000000
    outer loop
      vertex -2.349232 25.855050 0.000000
      vertex -1.250000 27.165064 0.000000
      vertex -2.349232 25.855050 1.500000
    endloop
  endfacet
  facet normal 1.000000 0.000000 0.000000
    outer loop
      vertex -2.349232 25.855050 0.000000
      vertex -2.349232 25.855050 1.500000
      vertex -2.349232 24.144950 1.500000
    endloop
  endfacet
  facet normal 1.000000 0.000000 0.000000
    outer loop
      vertex -2.349232 24.144950 0.000000
      vertex -2.349232 25.855050 0.000000
      vertex -2.349232 24.144950 1.500000
    endloop
  endfacet
  facet normal 0.173648 -0.984808 0.000000
    outer loop
      vertex 0.434120 27.462019 0.000000
      vertex 0.434120 27.462019 1.500000
      vertex -1.250000 27.165064 1.500000
    endloop
  endfacet
  facet normal 0.173648 -0.984808 0.000000
    outer loop
      vertex -1.250000 27.165064 0.000000
      vertex 0.434120 27.462019 0.000000
      vertex -1.250000 27.165064 1.500000
    endloop
  endfacet
  facet normal -0.500000 -0.866026 -0.000000
    outer loop
      vertex 1.915111 26.606969 0.000000
      vertex 1.915111 26.606969 1.500000
      vertex 0.434120 27.462019 1.500000
    endloop
  endfacet
  facet normal -0.500000 -0.866026 -0.000000
    outer loop
      vertex 0.434120 27.462019 0.000000
      vertex 1.915111 26.606969 0.000000
      vertex 0.434120 27.462019 1.500000
    endloop
  endfacet
  facet normal -0.939693 -0.342020 0.000000
    outer loop
      vertex 2.500000 25.000000 1.500000
      vertex 1.915111 26.606969 1.500000
      vertex 2.500000 25.000000 0.000000
    endloop
  endfacet
  facet normal -0.939693 -0.342020 0.000000
    outer loop
      vertex 2.500000 25.000000 0.000000
      vertex 1.915111 26.606969 1.500000
      vertex 1.915111 26.606969 0.000000
    endloop
  endfacet
  facet normal -0.939693 0.342020 0.000000
    outer loop
      vertex 2.500000 25.000000 1.500000
      vertex 2.500000 25.000000 0.000000
      vertex 1.915111 23.393031 1.500000
    endloop
  endfacet
  facet normal -0.939693 0.342020 0.000000
    outer loop
      vertex 1.915111 23.393031 1.500000
      vertex 2.500000 25.000000 0.000000
      vertex 1.915111 23.393031 0.000000
    endloop
  endfacet
  facet normal -0.500000 0.866026 0.000000
    outer loop
      vertex 1.915111 23.393031 1.500000
      vertex 1.915111 23.393031 0.000000
      vertex 0.434120 22.537981 1.500000
    endloop
  endfacet
  facet normal -0.500000 0.866026 0.000000
    outer loop
      vertex 0.434120 22.537981 1.500000
      vertex 1.915111 23.393031 0.000000
      vertex 0.434120 22.537981 0.000000
    endloop
  endfacet
  facet normal 0.173648 0.984808 -0.000000
    outer loop
      vertex 0.434120 22.537981 1.500000
      vertex 0.434120 22.537981 0.000000
      vertex -1.250000 22.834936 1.500000
    endloop
  endfacet
  facet normal 0.173648 0.984808 -0.000000
    outer loop
      vertex -1.250000 22.834936 1.500000
      vertex 0.434120 22.537981 0.000000
      vertex -1.250000 22.834936 0.000000
    endloop
  endfacet
  facet normal 0.766045 0.642788 0.000000
    outer loop
      vertex -2.349232 24.144950 1.500000
      vertex -1.250000 22.834936 1.500000
      vertex -1.250000 22.834936 0.000000
    endloop
  endfacet
  facet normal 0.766045 0.642788 0.000000
    outer loop
      vertex -2.349232 24.144950 0.000000
      vertex -2.349232 24.144950 1.500000
      vertex -1.250000 22.834936 0.000000
    endloop
  endfacet
  facet normal 0.951057 0.309017 0.000000
    outer loop
      vertex 11.250000 0.000000 5.000000
      vertex 11.584220 -1.028624 5.000000
      vertex 11.584220 -1.028624 0.000000
    endloop
  endfacet
  facet normal 0.951057 0.309017 0.000000
    outer loop
      vertex 11.250000 0.000000 0.000000
      vertex 11.250000 0.000000 5.000000
      vertex 11.584220 -1.028624 0.000000
    endloop
  endfacet
  facet normal 0.951057 -0.309017 0.000000
    outer loop
      vertex 11.584220 1.028624 0.000000
      vertex 11.584220 1.028624 5.000000
      vertex 11.250000 0.000000 5.000000
    endloop
  endfacet
  facet normal 0.951057 -0.309017 0.000000
    outer loop
      vertex 11.250000 0.000000 0.000000
      vertex 11.584220 1.028624 0.000000
      vertex 11.250000 0.000000 5.000000
    endloop
  endfacet
  facet normal 0.587785 -0.809017 0.000000
    outer loop
      vertex 12.459220 1.664349 0.000000
      vertex 12.459220 1.664349 5.000000
      vertex 11.584220 1.028624 5.000000
    endloop
  endfacet
  facet normal 0.587785 -0.809017 0.000000
    outer loop
      vertex 11.584220 1.028624 0.000000
      vertex 12.459220 1.664349 0.000000
      vertex 11.584220 1.028624 5.000000
    endloop
  endfacet
  facet normal 0.000000 -1.000000 0.000000
    outer loop
      vertex 13.540780 1.664349 0.000000
      vertex 13.540780 1.664349 5.000000
      vertex 12.459220 1.664349 5.000000
    endloop
  endfacet
  facet normal -0.000000 -1.000000 -0.000000
    outer loop
      vertex 12.459220 1.664349 0.000000
      vertex 13.540780 1.664349 0.000000
      vertex 12.459220 1.664349 5.000000
    endloop
  endfacet
  facet normal -0.587785 -0.809017 -0.000000
    outer loop
      vertex 14.415780 1.028624 0.000000
      vertex 14.415780 1.028624 5.000000
      vertex 13.540780 1.664349 5.000000
    endloop
  endfacet
  facet normal -0.587785 -0.809017 -0.000000
    outer loop
      vertex 13.540780 1.664349 0.000000
      vertex 14.415780 1.028624 0.000000
      vertex 13.540780 1.664349 5.000000
    endloop
  endfacet
  facet normal -0.951057 -0.309017 0.000000
    outer loop
      vertex 14.750000 0.000000 5.000000
      vertex 14.415780 1.028624 5.000000
      vertex 14.750000 0.000000 0.000000
    endloop
  endfacet
  facet normal -0.951057 -0.309017 0.000000
    outer loop
      vertex 14.750000 0.000000 0.000000
      vertex 14.415780 1.028624 5.000000
      vertex 14.415780 1.028624 0.000000
    endloop
  endfacet
  facet normal -0.951057 0.309017 0.000000
    outer loop
      vertex 14.750000 0.000000 5.000000
      vertex 14.750000 0.000000 0.000000
      vertex 14.415780 -1.028624 5.000000
    endloop
  endfacet
  facet normal -0.951057 0.309017 0.000000
    outer loop
      vertex 14.415780 -1.028624 5.000000
      vertex 14.750000 0.000000 0.000000
      vertex 14.415780 -1.028624 0.000000
    endloop
  endfacet
  facet normal -0.587785 0.809017 0.000000
    outer loop
      vertex 14.415780 -1.028624 5.000000
      vertex 14.415780 -1.028624 0.000000
      vertex 13.540780 -1.664349 5.000000
    endloop
  endfacet
  facet normal -0.587785 0.809017 0.000000
    outer loop
      vertex 13.540780 -1.664349 5.000000
      vertex 14.415780 -1.028624 0.000000
      vertex 13.540780 -1.664349 0.000000
    endloop
  endfacet
  facet normal 0.000000 1.000000 0.000000
    outer loop
      vertex 13.540780 -1.664349 5.000000
      vertex 13.540780 -1.664349 0.000000
      vertex 12.459220 -1.664349 5.000000
    endloop
  endfacet
  facet normal 0.000000 1.000000 -0.000000
    outer loop
      vertex 12.459220 -1.664349 5.000000
      vertex 13.540780 -1.664349 0.000000
      vertex 12.459220 -1.664349 0.000000
    endloop
  endfacet
  facet normal 0.587785 0.809017 -0.000000
    outer loop
      vertex 12.459220 -1.664349 5.000000
      vertex 12.459220 -1.664349 0.000000
      vertex 11.584220 -1.028624 5.000000
    endloop
  endfacet
  facet normal 0.587785 0.809017 -0.000000
    outer loop
      vertex 11.584220 -1.028624 5.000000
      vertex 12.459220 -1.664349 0.000000
      vertex 11.584220 -1.028624 0.000000
    endloop
  endfacet
  facet normal 1.000000 0.000000 0.000000
    outer loop
      vertex 37.650768 -24.144950 0.000000
      vertex 37.650768 -24.144950 9.000000
      vertex 37.650768 -25.855050 9.000000
    endloop
  endfacet
  facet normal 1.000000 0.000000 0.000000
    outer loop
      vertex 37.650768 -25.855050 0.000000
      vertex 37.650768 -24.144950 0.000000
      vertex 37.650768 -25.855050 9.000000
    endloop
  endfacet
  facet normal 0.766045 -0.642788 0.000000
    outer loop
      vertex 38.750000 -22.834936 0.000000
      vertex 38.750000 -22.834936 9.000000
      vertex 37.650768 -24.144950 9.000000
    endloop
  endfacet
  facet normal 0.766045 -0.642788 0.000000
    outer loop
      vertex 37.650768 -24.144950 0.000000
      vertex 38.750000 -22.834936 0.000000
      vertex 37.650768 -24.144950 9.000000
    endloop
  endfacet
  facet normal 0.173648 -0.984808 0.000000
    outer loop
      vertex 40.434120 -22.537981 0.000000
      vertex 40.434120 -22.537981 9.000000
      vertex 38.750000 -22.834936 9.000000
    endloop
  endfacet
  facet normal 0.173648 -0.984808 0.000000
    outer loop
      vertex 38.750000 -22.834936 0.000000
      vertex 40.434120 -22.537981 0.000000
      vertex 38.750000 -22.834936 9.000000
    endloop
  endfacet
  facet normal -0.500000 -0.866026 -0.000000
    outer loop
      vertex 41.915111 -23.393031 0.000000
      vertex 41.915111 -23.393031 9.000000
      vertex 40.434120 -22.537981 9.000000
    endloop
  endfacet
  facet normal -0.500000 -0.866026 -0.000000
    outer loop
      vertex 40.434120 -22.537981 0.000000
      vertex 41.915111 -23.393031 0.000000
      vertex 40.434120 -22.537981 9.000000
    endloop
  endfacet
  facet normal -0.939693 -0.342020 0.000000
    outer loop
      vertex 42.500000 -25.000000 9.000000
      vertex 41.915111 -23.393031 9.000000
      vertex 42.500000 -25.000000 0.000000
    endloop
  endfacet
  facet normal -0.939693 -0.342020 0.000000
    outer loop
      vertex 42.500000 -25.000000 0.000000
      vertex 41.915111 -23.393031 9.000000
      vertex 41.915111 -23.393031 0.000000
    endloop
  endfacet
  facet normal -0.939693 0.342020 0.000000
    outer loop
      vertex 42.500000 -25.000000 9.000000
      vertex 42.500000 -25.000000 0.000000
      vertex 41.915111 -26.606969 9.000000
    endloop
  endfacet
  facet normal -0.939693 0.342020 0.000000
    outer loop
      vertex 41.915111 -26.606969 9.000000
      vertex 42.500000 -25.000000 0.000000
      vertex 41.915111 -26.606969 0.000000
    endloop
  endfacet
  facet normal -0.500000 0.866026 0.000000
    outer loop
      vertex 41.915111 -26.606969 9.000000
      vertex 41.915111 -26.606969 0.000000
      vertex 40.434120 -27.462019 9.000000
    endloop
  endfacet
  facet normal -0.500000 0.866026 0.000000
    outer loop
      vertex 40.434120 -27.462019 9.000000
      vertex 41.915111 -26.606969 0.000000
      vertex 40.434120 -27.462019 0.000000
    endloop
  endfacet
  facet normal 0.173648 0.984808 -0.000000
    outer loop
      vertex 40.434120 -27.462019 9.000000
      vertex 40.434120 -27.462019 0.000000
      vertex 38.750000 -27.165064 9.000000
    endloop
  endfacet
  facet normal 0.173648 0.984808 -0.000000
    outer loop
      vertex 38.750000 -27.165064 9.000000
      vertex 40.434120 -27.462019 0.000000
      vertex 38.750000 -27.165064 0.000000
    endloop
  endfacet
  facet normal 0.766045 0.642788 0.000000
    outer loop
      vertex 37.650768 -25.855050 9.000000
      vertex 38.750000 -27.165064 9.000000
      vertex 38.750000 -27.165064 0.000000
    endloop
  endfacet
  facet normal 0.766045 0.642788 0.000000
    outer loop
      vertex 37.650768 -25.855050 0.000000
      vertex 37.650768 -25.855050 9.000000
      vertex 38.750000 -27.165064 0.000000
    endloop
  endfacet
  facet normal 1.000000 0.000000 0.000000
    outer loop
      vertex 37.650768 25.855050 0.000000
      vertex 37.650768 25.855050 9.000000
      vertex 37.650768 24.144950 9.000000
    endloop
  endfacet
  facet normal 1.000000 0.000000 0.000000
    outer loop
      vertex 37.650768 24.144950 0.000000
      vertex 37.650768 25.855050 0.000000
      vertex 37.650768 24.144950 9.000000
    endloop
  endfacet
  facet normal 0.766045 -0.642788 0.000000
    outer loop
      vertex 38.750000 27.165064 0.000000
      vertex 38.750000 27.165064 9.000000
      vertex 37.650768 25.855050 9.000000
    endloop
  endfacet
  facet normal 0.766045 -0.642788 0.000000
    outer loop
      vertex 37.650768 25.855050 0.000000
      vertex 38.750000 27.165064 0.000000
      vertex 37.650768 25.855050 9.000000
    endloop
  endfacet
  facet normal 0.173648 -0.984808 0.000000
    outer loop
      vertex 40.434120 27.462019 0.000000
      vertex 40.434120 27.462019 9.000000
      vertex 38.750000 27.165064 9.000000
    endloop
  endfacet
  facet normal 0.173648 -0.984808 0.000000
    outer loop
      vertex 38.750000 27.165064 0.000000
      vertex 40.434120 27.462019 0.000000
      vertex 38.750000 27.165064 9.000000
    endloop
  endfacet
  facet normal -0.500000 -0.866026 -0.000000
    outer loop
      vertex 41.915111 26.606969 0.000000
      vertex 41.915111 26.606969 9.000000
      vertex 40.434120 27.462019 9.000000
    endloop
  endfacet
  facet normal -0.500000 -0.866026 -0.000000
    outer loop
      vertex 40.434120 27.462019 0.000000
      vertex 41.915111 26.606969 0.000000
      vertex 40.434120 27.462019 9.000000
    endloop
  endfacet
  facet normal -0.939693 -0.342020 0.000000
    outer loop
      vertex 42.500000 25.000000 9.000000
      vertex 41.915111 26.606969 9.000000
      vertex 42.500000 25.000000 0.000000
    endloop
  endfacet
  facet normal -0.939693 -0.342020 0.000000
    outer loop
      vertex 42.500000 25.000000 0.000000
      vertex 41.915111 26.606969 9.000000
      vertex 41.915111 26.606969 0.000000
    endloop
  endfacet
  facet normal -0.939693 0.342020 0.000000
    outer loop
      vertex 42.500000 25.000000 9.000000
      vertex 42.500000 25.000000 0.000000
      vertex 41.915111 23.393031 9.000000
    endloop
  endfacet
  facet normal -0.939693 0.342020 0.000000
    outer loop
      vertex 41.915111 23.393031 9.000000
      vertex 42.500000 25.000000 0.000000
      vertex 41.915111 23.393031 0.000000
    endloop
  endfacet
  facet normal -0.500000 0.866026 0.000000
    outer loop
      vertex 41.915111 23.393031 9.000000
      vertex 41.915111 23.393031 0.000000
      vertex 40.434120 22.537981 9.000000
    endloop
  endfacet
  facet normal -0.500000 0.866026 0.000000
    outer loop
      vertex 40.434120 22.537981 9.000000
      vertex 41.915111 23.393031 0.000000
      vertex 40.434120 22.537981 0.000000
    endloop
  endfacet
  facet normal 0.173648 0.984808 -0.000000
    outer loop
      vertex 40.434120 22.537981 9.000000
      vertex 40.434120 22.537981 0.000000
      vertex 38.750000 22.834936 9.000000
    endloop
  endfacet
  facet normal 0.173648 0.984808 -0.000000
    outer loop
      vertex 38.750000 22.834936 9.000000
      vertex 40.434120 22.537981 0.000000
      vertex 38.750000 22.834936 0.000000
    endloop
  endfacet
  facet normal 0.766045 0.642788 0.000000
    outer loop
      vertex 37.650768 24.144950 9.000000
      vertex 38.750000 22.834936 9.000000
      vertex 38.750000 22.834936 0.000000
    endloop
  endfacet
  facet normal 0.766045 0.642788 0.000000
    outer loop
      vertex 37.650768 24.144950 0.000000
      vertex 37.650768 24.144950 9.000000
      vertex 38.750000 22.834936 0.000000
    endloop
  endfacet
  facet normal 0.000000 -0.000000 1.000000
    outer loop
      vertex 6.560718 -6.160924 5.000000
      vertex 4.942052 -7.500000 5.000000
      vertex 35.000000 -7.500000 5.000000
    endloop
  endfacet
  facet normal 0.000000 -0.000000 1.000000
    outer loop
      vertex 7.886760 -4.335783 5.000000
      vertex 6.560718 -6.160924 5.000000
      vertex 35.000000 7.500000 5.000000
    endloop
  endfacet
  facet normal 0.000000 0.000000 1.000000
    outer loop
      vertex 35.000000 7.500000 5.000000
      vertex 6.560718 -6.160924 5.000000
      vertex 35.000000 -7.500000 5.000000
    endloop
  endfacet
  facet normal 0.000000 0.000000 1.000000
    outer loop
      vertex 4.942052 7.500000 5.000000
      vertex 6.560718 6.160924 5.000000
      vertex 35.000000 7.500000 5.000000
    endloop
  endfacet
  facet normal 0.000000 0.000000 1.000000
    outer loop
      vertex 6.560718 6.160924 5.000000
      vertex 7.886760 4.335783 5.000000
      vertex 35.000000 7.500000 5.000000
    endloop
  endfacet
  facet normal 0.000000 0.000000 1.000000
    outer loop
      vertex 7.886760 4.335783 5.000000
      vertex 8.717248 2.238209 5.000000
      vertex 35.000000 7.500000 5.000000
    endloop
  endfacet
  facet normal 0.000000 -0.000000 1.000000
    outer loop
      vertex 13.540780 -1.664349 5.000000
      vertex 7.886760 -4.335783 5.000000
      vertex 35.000000 7.500000 5.000000
    endloop
  endfacet
  facet normal 0.000000 0.000000 1.000000
    outer loop
      vertex 13.540780 -1.664349 5.000000
      vertex 12.459220 -1.664349 5.000000
      vertex 7.886760 -4.335783 5.000000
    endloop
  endfacet
  facet normal 0.000000 -0.000000 1.000000
    outer loop
      vertex 9.000000 0.000000 5.000000
      vertex 8.717248 -2.238209 5.000000
      vertex 11.584220 -1.028624 5.000000
    endloop
  endfacet
  facet normal 0.000000 0.000000 1.000000
    outer loop
      vertex 9.000000 0.000000 5.000000
      vertex 11.584220 -1.028624 5.000000
      vertex 11.250000 0.000000 5.000000
    endloop
  endfacet
  facet normal 0.000000 0.000000 1.000000
    outer loop
      vertex 8.717248 2.238209 5.000000
      vertex 9.000000 0.000000 5.000000
      vertex 11.584220 1.028624 5.000000
    endloop
  endfacet
  facet normal 0.000000 0.000000 1.000000
    outer loop
      vertex 8.717248 2.238209 5.000000
      vertex 12.459220 1.664349 5.000000
      vertex 35.000000 7.500000 5.000000
    endloop
  endfacet
  facet normal 0.000000 0.000000 1.000000
    outer loop
      vertex 8.717248 2.238209 5.000000
      vertex 11.584220 1.028624 5.000000
      vertex 12.459220 1.664349 5.000000
    endloop
  endfacet
  facet normal 0.000000 0.000000 1.000000
    outer loop
      vertex 12.459220 1.664349 5.000000
      vertex 13.540780 1.664349 5.000000
      vertex 35.000000 7.500000 5.000000
    endloop
  endfacet
  facet normal 0.000000 0.000000 1.000000
    outer loop
      vertex 13.540780 1.664349 5.000000
      vertex 14.415780 1.028624 5.000000
      vertex 35.000000 7.500000 5.000000
    endloop
  endfacet
  facet normal 0.000000 0.000000 1.000000
    outer loop
      vertex 14.415780 1.028624 5.000000
      vertex 14.750000 0.000000 5.000000
      vertex 35.000000 7.500000 5.000000
    endloop
  endfacet
  facet normal -0.000000 0.000000 1.000000
    outer loop
      vertex 11.250000 0.000000 5.000000
      vertex 11.584220 1.028624 5.000000
      vertex 9.000000 0.000000 5.000000
    endloop
  endfacet
  facet normal 0.000000 -0.000000 1.000000
    outer loop
      vertex 14.415780 -1.028624 5.000000
      vertex 13.540780 -1.664349 5.000000
      vertex 35.000000 7.500000 5.000000
    endloop
  endfacet
  facet normal 0.000000 -0.000000 1.000000
    outer loop
      vertex 8.717248 -2.238209 5.000000
      vertex 7.886760 -4.335783 5.000000
      vertex 12.459220 -1.664349 5.000000
    endloop
  endfacet
  facet normal 0.000000 -0.000000 1.000000
    outer loop
      vertex 14.750000 0.000000 5.000000
      vertex 14.415780 -1.028624 5.000000
      vertex 35.000000 7.500000 5.000000
    endloop
  endfacet
  facet normal -0.000000 0.000000 1.000000
    outer loop
      vertex 12.459220 -1.664349 5.000000
      vertex 11.584220 -1.028624 5.000000
      vertex 8.717248 -2.238209 5.000000
    endloop
  endfacet
  facet normal -1.000000 -0.000000 -0.000000
    outer loop
      vertex 35.000000 -7.500000 5.000000
      vertex 35.000000 -7.500000 9.000000
      vertex 35.000000 7.500000 5.000000
    endloop
  endfacet
  facet normal -1.000000 0.000000 0.000000
    outer loop
      vertex 35.000000 7.500000 5.000000
      vertex 35.000000 -7.500000 9.000000
      vertex 35.000000 7.500000 9.000000
    endloop
  endfacet
  facet normal 0.000000 -0.000000 1.000000
    outer loop
      vertex 35.000000 7.500000 9.000000
      vertex 35.000000 -7.500000 9.000000
      vertex 48.500000 -7.500000 9.000000
    endloop
  endfacet
  facet normal 0.000000 0.000000 1.000000
    outer loop
      vertex 48.500000 7.500000 9.000000
      vertex 35.000000 7.500000 9.000000
      vertex 48.500000 -7.500000 9.000000
    endloop
  endfacet
  facet normal 0.000000 -0.000000 1.000000
    outer loop
      vertex 38.750000 -27.165064 9.000000
      vertex 35.000000 -32.500000 9.000000
      vertex 48.500000 -32.500000 9.000000
    endloop
  endfacet
  facet normal 0.000000 -0.000000 1.000000
    outer loop
      vertex 35.000000 -16.500000 9.000000
      vertex 35.000000 -32.500000 9.000000
      vertex 37.650768 -25.855050 9.000000
    endloop
  endfacet
  facet normal -0.000000 -0.000000 1.000000
    outer loop
      vertex 40.434120 -27.462019 9.000000
      vertex 38.750000 -27.165064 9.000000
      vertex 48.500000 -32.500000 9.000000
    endloop
  endfacet
  facet normal 0.000000 0.000000 1.000000
    outer loop
      vertex 35.000000 -16.500000 9.000000
      vertex 37.650768 -25.855050 9.000000
      vertex 37.650768 -24.144950 9.000000
    endloop
  endfacet
  facet normal 0.000000 0.000000 1.000000
    outer loop
      vertex 35.000000 -16.500000 9.000000
      vertex 37.650768 -24.144950 9.000000
      vertex 38.750000 -22.834936 9.000000
    endloop
  endfacet
  facet normal 0.000000 0.000000 1.000000
    outer loop
      vertex 48.500000 -16.500000 9.000000
      vertex 35.000000 -16.500000 9.000000
      vertex 40.434120 -22.537981 9.000000
    endloop
  endfacet
  facet normal 0.000000 0.000000 1.000000
    outer loop
      vertex 48.500000 -16.500000 9.000000
      vertex 41.915111 -23.393031 9.000000
      vertex 48.500000 -32.500000 9.000000
    endloop
  endfacet
  facet normal 0.000000 0.000000 1.000000
    outer loop
      vertex 48.500000 -16.500000 9.000000
      vertex 40.434120 -22.537981 9.000000
      vertex 41.915111 -23.393031 9.000000
    endloop
  endfacet
  facet normal 0.000000 0.000000 1.000000
    outer loop
      vertex 41.915111 -23.393031 9.000000
      vertex 42.500000 -25.000000 9.000000
      vertex 48.500000 -32.500000 9.000000
    endloop
  endfacet
  facet normal 0.000000 -0.000000 1.000000
    outer loop
      vertex 37.650768 -25.855050 9.000000
      vertex 35.000000 -32.500000 9.000000
      vertex 38.750000 -27.165064 9.000000
    endloop
  endfacet
  facet normal 0.000000 -0.000000 1.000000
    outer loop
      vertex 41.915111 -26.606969 9.000000
      vertex 40.434120 -27.462019 9.000000
      vertex 48.500000 -32.500000 9.000000
    endloop
  endfacet
  facet normal 0.000000 0.000000 1.000000
    outer loop
      vertex 38.750000 -22.834936 9.000000
      vertex 40.434120 -22.537981 9.000000
      vertex 35.000000 -16.500000 9.000000
    endloop
  endfacet
  facet normal 0.000000 -0.000000 1.000000
    outer loop
      vertex 42.500000 -25.000000 9.000000
      vertex 41.915111 -26.606969 9.000000
      vertex 48.500000 -32.500000 9.000000
    endloop
  endfacet
  facet normal -1.000000 -0.000000 -0.000000
    outer loop
      vertex 35.000000 -32.500000 5.000000
      vertex 35.000000 -32.500000 9.000000
      vertex 35.000000 -16.500000 5.000000
    endloop
  endfacet
  facet normal -1.000000 0.000000 0.000000
    outer loop
      vertex 35.000000 -16.500000 5.000000
      vertex 35.000000 -32.500000 9.000000
      vertex 35.000000 -16.500000 9.000000
    endloop
  endfacet
  facet normal 0.866025 0.500000 0.000000
    outer loop
      vertex -4.500000 -25.000000 5.000000
      vertex -2.250000 -28.897114 5.000000
      vertex -2.250000 -28.897114 1.500000
    endloop
  endfacet
  facet normal 0.866025 0.500000 0.000000
    outer loop
      vertex -4.500000 -25.000000 1.500000
      vertex -4.500000 -25.000000 5.000000
      vertex -2.250000 -28.897114 1.500000
    endloop
  endfacet
  facet normal 0.000000 1.000000 0.000000
    outer loop
      vertex 2.250000 -28.897114 5.000000
      vertex 2.250000 -28.897114 1.500000
      vertex -2.250000 -28.897114 5.000000
    endloop
  endfacet
  facet normal 0.000000 1.000000 -0.000000
    outer loop
      vertex -2.250000 -28.897114 5.000000
      vertex 2.250000 -28.897114 1.500000
      vertex -2.250000 -28.897114 1.500000
    endloop
  endfacet
  facet normal -0.866025 0.500000 0.000000
    outer loop
      vertex 4.500000 -25.000000 5.000000
      vertex 4.500000 -25.000000 1.500000
      vertex 2.250000 -28.897114 5.000000
    endloop
  endfacet
  facet normal -0.866025 0.500000 0.000000
    outer loop
      vertex 2.250000 -28.897114 5.000000
      vertex 4.500000 -25.000000 1.500000
      vertex 2.250000 -28.897114 1.500000
    endloop
  endfacet
  facet normal -0.866025 -0.500000 0.000000
    outer loop
      vertex 4.500000 -25.000000 5.000000
      vertex 2.250000 -21.102886 5.000000
      vertex 4.500000 -25.000000 1.500000
    endloop
  endfacet
  facet normal -0.866025 -0.500000 0.000000
    outer loop
      vertex 4.500000 -25.000000 1.500000
      vertex 2.250000 -21.102886 5.000000
      vertex 2.250000 -21.102886 1.500000
    endloop
  endfacet
  facet normal 0.000000 -1.000000 0.000000
    outer loop
      vertex 2.250000 -21.102886 1.500000
      vertex 2.250000 -21.102886 5.000000
      vertex -2.250000 -21.102886 5.000000
    endloop
  endfacet
  facet normal -0.000000 -1.000000 -0.000000
    outer loop
      vertex -2.250000 -21.102886 1.500000
      vertex 2.250000 -21.102886 1.500000
      vertex -2.250000 -21.102886 5.000000
    endloop
  endfacet
  facet normal 0.866025 -0.500000 0.000000
    outer loop
      vertex -2.250000 -21.102886 1.500000
      vertex -2.250000 -21.102886 5.000000
      vertex -4.500000 -25.000000 5.000000
    endloop
  endfacet
  facet normal 0.866025 -0.500000 0.000000
    outer loop
      vertex -4.500000 -25.000000 1.500000
      vertex -2.250000 -21.102886 1.500000
      vertex -4.500000 -25.000000 5.000000
    endloop
  endfacet
  facet normal -0.000000 -1.000000 -0.000000
    outer loop
      vertex 35.000000 7.500000 9.000000
      vertex 48.500000 7.500000 9.000000
      vertex -6.500000 7.500000 20.000000
    endloop
  endfacet
  facet normal 0.000000 -1.000000 0.000000
    outer loop
      vertex -6.500000 7.500000 20.000000
      vertex -6.500000 7.500000 10.000000
      vertex 4.942052 7.500000 10.000000
    endloop
  endfacet
  facet normal 0.000000 -1.000000 0.000000
    outer loop
      vertex 35.000000 7.500000 5.000000
      vertex -6.500000 7.500000 20.000000
      vertex 4.942052 7.500000 10.000000
    endloop
  endfacet
  facet normal -0.000000 -1.000000 -0.000000
    outer loop
      vertex 4.942052 7.500000 5.000000
      vertex 35.000000 7.500000 5.000000
      vertex 4.942052 7.500000 10.000000
    endloop
  endfacet
  facet normal 0.000000 -1.000000 0.000000
    outer loop
      vertex 35.000000 7.500000 5.000000
      vertex 35.000000 7.500000 9.000000
      vertex -6.500000 7.500000 20.000000
    endloop
  endfacet
  facet normal 0.000000 -1.000000 0.000000
    outer loop
      vertex 48.500000 7.500000 9.000000
      vertex 48.500000 7.500000 20.000000
      vertex -6.500000 7.500000 20.000000
    endloop
  endfacet
  facet normal 0.000000 -0.000000 1.000000
    outer loop
      vertex -6.500000 16.500000 20.000000
      vertex -6.500000 7.500000 20.000000
      vertex 48.500000 7.500000 20.000000
    endloop
  endfacet
  facet normal 0.000000 0.000000 1.000000
    outer loop
      vertex 48.500000 16.500000 20.000000
      vertex -6.500000 16.500000 20.000000
      vertex 48.500000 7.500000 20.000000
    endloop
  endfacet
  facet normal 0.000000 1.000000 0.000000
    outer loop
      vertex -6.500000 16.500000 5.000000
      vertex -6.500000 16.500000 20.000000
      vertex 35.000000 16.500000 5.000000
    endloop
  endfacet
  facet normal 0.000000 1.000000 0.000000
    outer loop
      vertex 35.000000 16.500000 9.000000
      vertex -6.500000 16.500000 20.000000
      vertex 48.500000 16.500000 20.000000
    endloop
  endfacet
  facet normal 0.000000 1.000000 0.000000
    outer loop
      vertex 35.000000 16.500000 5.000000
      vertex -6.500000 16.500000 20.000000
      vertex 35.000000 16.500000 9.000000
    endloop
  endfacet
  facet normal 0.000000 1.000000 0.000000
    outer loop
      vertex 35.000000 16.500000 9.000000
      vertex 48.500000 16.500000 20.000000
      vertex 48.500000 16.500000 9.000000
    endloop
  endfacet
  facet normal 0.000000 -0.000000 1.000000
    outer loop
      vertex 38.750000 22.834936 9.000000
      vertex 35.000000 16.500000 9.000000
      vertex 48.500000 16.500000 9.000000
    endloop
  endfacet
  facet normal 0.000000 -0.000000 1.000000
    outer loop
      vertex 35.000000 32.500000 9.000000
      vertex 35.000000 16.500000 9.000000
      vertex 37.650768 24.144950 9.000000
    endloop
  endfacet
  facet normal -0.000000 -0.000000 1.000000
    outer loop
      vertex 40.434120 22.537981 9.000000
      vertex 38.750000 22.834936 9.000000
      vertex 48.500000 16.500000 9.000000
    endloop
  endfacet
  facet normal 0.000000 0.000000 1.000000
    outer loop
      vertex 35.000000 32.500000 9.000000
      vertex 37.650768 24.144950 9.000000
      vertex 37.650768 25.855050 9.000000
    endloop
  endfacet
  facet normal 0.000000 0.000000 1.000000
    outer loop
      vertex 35.000000 32.500000 9.000000
      vertex 37.650768 25.855050 9.000000
      vertex 38.750000 27.165064 9.000000
    endloop
  endfacet
  facet normal 0.000000 0.000000 1.000000
    outer loop
      vertex 48.500000 32.500000 9.000000
      vertex 35.000000 32.500000 9.000000
      vertex 40.434120 27.462019 9.000000
    endloop
  endfacet
  facet normal 0.000000 0.000000 1.000000
    outer loop
      vertex 48.500000 32.500000 9.000000
      vertex 41.915111 26.606969 9.000000
      vertex 48.500000 16.500000 9.000000
    endloop
  endfacet
  facet normal 0.000000 0.000000 1.000000
    outer loop
      vertex 48.500000 32.500000 9.000000
      vertex 40.434120 27.462019 9.000000
      vertex 41.915111 26.606969 9.000000
    endloop
  endfacet
  facet normal 0.000000 0.000000 1.000000
    outer loop
      vertex 41.915111 26.606969 9.000000
      vertex 42.500000 25.000000 9.000000
      vertex 48.500000 16.500000 9.000000
    endloop
  endfacet
  facet normal 0.000000 -0.000000 1.000000
    outer loop
      vertex 37.650768 24.144950 9.000000
      vertex 35.000000 16.500000 9.000000
      vertex 38.750000 22.834936 9.000000
    endloop
  endfacet
  facet normal 0.000000 -0.000000 1.000000
    outer loop
      vertex 41.915111 23.393031 9.000000
      vertex 40.434120 22.537981 9.000000
      vertex 48.500000 16.500000 9.000000
    endloop
  endfacet
  facet normal 0.000000 0.000000 1.000000
    outer loop
      vertex 38.750000 27.165064 9.000000
      vertex 40.434120 27.462019 9.000000
      vertex 35.000000 32.500000 9.000000
    endloop
  endfacet
  facet normal 0.000000 -0.000000 1.000000
    outer loop
      vertex 42.500000 25.000000 9.000000
      vertex 41.915111 23.393031 9.000000
      vertex 48.500000 16.500000 9.000000
    endloop
  endfacet
  facet normal 0.000000 -1.000000 0.000000
    outer loop
      vertex 48.500000 32.500000 10.500000
      vertex 35.000000 32.500000 9.000000
      vertex 48.500000 32.500000 9.000000
    endloop
  endfacet
  facet normal 0.000000 -1.000000 0.000000
    outer loop
      vertex -6.500000 32.500000 10.500000
      vertex 35.000000 32.500000 9.000000
      vertex 48.500000 32.500000 10.500000
    endloop
  endfacet
  facet normal 0.000000 -1.000000 0.000000
    outer loop
      vertex 35.000000 32.500000 5.000000
      vertex 35.000000 32.500000 9.000000
      vertex -6.500000 32.500000 10.500000
    endloop
  endfacet
  facet normal -0.000000 -1.000000 -0.000000
    outer loop
      vertex -6.500000 32.500000 5.000000
      vertex 35.000000 32.500000 5.000000
      vertex -6.500000 32.500000 10.500000
    endloop
  endfacet
  facet normal 0.000000 -0.000000 1.000000
    outer loop
      vertex -6.500000 35.500000 10.500000
      vertex -6.500000 32.500000 10.500000
      vertex 48.500000 32.500000 10.500000
    endloop
  endfacet
  facet normal 0.000000 0.000000 1.000000
    outer loop
      vertex 48.500000 35.500000 10.500000
      vertex -6.500000 35.500000 10.500000
      vertex 48.500000 32.500000 10.500000
    endloop
  endfacet
  facet normal 0.000000 0.000000 -1.000000
    outer loop
      vertex 0.000000 9.000000 10.000000
      vertex 0.000000 8.946687 10.000000
      vertex -6.500000 9.000000 10.000000
    endloop
  endfacet
  facet normal 0.000000 0.000000 -1.000000
    outer loop
      vertex 2.781153 8.559509 10.000000
      vertex 0.000000 8.946687 10.000000
      vertex 0.565115 8.982241 10.000000
    endloop
  endfacet
  facet normal 0.000000 0.000000 -1.000000
    outer loop
      vertex -6.500000 9.000000 10.000000
      vertex 0.000000 8.946687 10.000000
      vertex 2.781153 8.559509 10.000000
    endloop
  endfacet
  facet normal 0.000000 0.000000 -1.000000
    outer loop
      vertex -6.500000 9.000000 10.000000
      vertex 2.781153 8.559509 10.000000
      vertex 4.822441 7.598951 10.000000
    endloop
  endfacet
  facet normal 0.000000 0.000000 -1.000000
    outer loop
      vertex -6.500000 9.000000 10.000000
      vertex 4.822441 7.598951 10.000000
      vertex 4.942052 7.500000 10.000000
    endloop
  endfacet
  facet normal 0.000000 0.000000 -1.000000
    outer loop
      vertex -6.500000 9.000000 10.000000
      vertex 4.942052 7.500000 10.000000
      vertex -6.500000 7.500000 10.000000
    endloop
  endfacet
  facet normal 0.000000 -0.000000 1.000000
    outer loop
      vertex -2.250000 21.102886 5.000000
      vertex -6.500000 16.500000 5.000000
      vertex 35.000000 16.500000 5.000000
    endloop
  endfacet
  facet normal 0.000000 0.000000 1.000000
    outer loop
      vertex 35.000000 32.500000 5.000000
      vertex -6.500000 32.500000 5.000000
      vertex 35.000000 16.500000 5.000000
    endloop
  endfacet
  facet normal 0.000000 -0.000000 1.000000
    outer loop
      vertex 2.250000 21.102886 5.000000
      vertex -2.250000 21.102886 5.000000
      vertex 35.000000 16.500000 5.000000
    endloop
  endfacet
  facet normal 0.000000 -0.000000 1.000000
    outer loop
      vertex -4.500000 25.000000 5.000000
      vertex -6.500000 16.500000 5.000000
      vertex -2.250000 21.102886 5.000000
    endloop
  endfacet
  facet normal 0.000000 0.000000 1.000000
    outer loop
      vertex 2.250000 28.897114 5.000000
      vertex 4.500000 25.000000 5.000000
      vertex 35.000000 16.500000 5.000000
    endloop
  endfacet
  facet normal 0.000000 -0.000000 1.000000
    outer loop
      vertex -6.500000 32.500000 5.000000
      vertex -6.500000 16.500000 5.000000
      vertex -4.500000 25.000000 5.000000
    endloop
  endfacet
  facet normal 0.000000 0.000000 1.000000
    outer loop
      vertex -6.500000 32.500000 5.000000
      vertex 2.250000 28.897114 5.000000
      vertex 35.000000 16.500000 5.000000
    endloop
  endfacet
  facet normal 0.000000 0.000000 1.000000
    outer loop
      vertex -6.500000 32.500000 5.000000
      vertex -2.250000 28.897114 5.000000
      vertex 2.250000 28.897114 5.000000
    endloop
  endfacet
  facet normal 0.000000 -0.000000 1.000000
    outer loop
      vertex 4.500000 25.000000 5.000000
      vertex 2.250000 21.102886 5.000000
      vertex 35.000000 16.500000 5.000000
    endloop
  endfacet
  facet normal 0.000000 0.000000 1.000000
    outer loop
      vertex -4.500000 25.000000 5.000000
      vertex -2.250000 28.897114 5.000000
      vertex -6.500000 32.500000 5.000000
    endloop
  endfacet
  facet normal 0.000000 0.000000 1.000000
    outer loop
      vertex 1.915111 -26.606969 1.500000
      vertex 2.250000 -28.897114 1.500000
      vertex 4.500000 -25.000000 1.500000
    endloop
  endfacet
  facet normal 0.000000 0.000000 1.000000
    outer loop
      vertex -4.500000 -25.000000 1.500000
      vertex -2.349232 -24.144950 1.500000
      vertex -2.250000 -21.102886 1.500000
    endloop
  endfacet
  facet normal 0.000000 0.000000 1.000000
    outer loop
      vertex -2.250000 -21.102886 1.500000
      vertex -1.250000 -22.834936 1.500000
      vertex 2.250000 -21.102886 1.500000
    endloop
  endfacet
  facet normal 0.000000 0.000000 1.000000
    outer loop
      vertex -1.250000 -22.834936 1.500000
      vertex 0.434120 -22.537981 1.500000
      vertex 2.250000 -21.102886 1.500000
    endloop
  endfacet
  facet normal 0.000000 -0.000000 1.000000
    outer loop
      vertex 2.250000 -21.102886 1.500000
      vertex 1.915111 -23.393031 1.500000
      vertex 4.500000 -25.000000 1.500000
    endloop
  endfacet
  facet normal 0.000000 0.000000 1.000000
    outer loop
      vertex 1.915111 -23.393031 1.500000
      vertex 2.500000 -25.000000 1.500000
      vertex 4.500000 -25.000000 1.500000
    endloop
  endfacet
  facet normal 0.000000 0.000000 1.000000
    outer loop
      vertex 0.434120 -27.462019 1.500000
      vertex 2.250000 -28.897114 1.500000
      vertex 1.915111 -26.606969 1.500000
    endloop
  endfacet
  facet normal -0.000000 0.000000 1.000000
    outer loop
      vertex -1.250000 -27.165064 1.500000
      vertex -2.349232 -25.855050 1.500000
      vertex -2.250000 -28.897114 1.500000
    endloop
  endfacet
  facet normal 0.000000 0.000000 1.000000
    outer loop
      vertex -2.250000 -28.897114 1.500000
      vertex 2.250000 -28.897114 1.500000
      vertex 0.434120 -27.462019 1.500000
    endloop
  endfacet
  facet normal 0.000000 -0.000000 1.000000
    outer loop
      vertex 2.500000 -25.000000 1.500000
      vertex 1.915111 -26.606969 1.500000
      vertex 4.500000 -25.000000 1.500000
    endloop
  endfacet
  facet normal 0.000000 0.000000 1.000000
    outer loop
      vertex -4.500000 -25.000000 1.500000
      vertex -2.349232 -25.855050 1.500000
      vertex -2.349232 -24.144950 1.500000
    endloop
  endfacet
  facet normal 0.000000 0.000000 1.000000
    outer loop
      vertex -4.500000 -25.000000 1.500000
      vertex -2.250000 -28.897114 1.500000
      vertex -2.349232 -25.855050 1.500000
    endloop
  endfacet
  facet normal 0.000000 0.000000 1.000000
    outer loop
      vertex -2.349232 -24.144950 1.500000
      vertex -1.250000 -22.834936 1.500000
      vertex -2.250000 -21.102886 1.500000
    endloop
  endfacet
  facet normal 0.000000 0.000000 1.000000
    outer loop
      vertex 0.434120 -22.537981 1.500000
      vertex 1.915111 -23.393031 1.500000
      vertex 2.250000 -21.102886 1.500000
    endloop
  endfacet
  facet normal -0.000000 0.000000 1.000000
    outer loop
      vertex 0.434120 -27.462019 1.500000
      vertex -1.250000 -27.165064 1.500000
      vertex -2.250000 -28.897114 1.500000
    endloop
  endfacet
  facet normal 0.000000 0.000000 1.000000
    outer loop
      vertex 1.915111 23.393031 1.500000
      vertex 2.250000 21.102886 1.500000
      vertex 4.500000 25.000000 1.500000
    endloop
  endfacet
  facet normal 0.000000 0.000000 1.000000
    outer loop
      vertex -4.500000 25.000000 1.500000
      vertex -2.349232 25.855050 1.500000
      vertex -2.250000 28.897114 1.500000
    endloop
  endfacet
  facet normal 0.000000 0.000000 1.000000
    outer loop
      vertex -2.250000 28.897114 1.500000
      vertex -1.250000 27.165064 1.500000
      vertex 2.250000 28.897114 1.500000
    endloop
  endfacet
  facet normal 0.000000 0.000000 1.000000
    outer loop
      vertex -1.250000 27.165064 1.500000
      vertex 0.434120 27.462019 1.500000
      vertex 2.250000 28.897114 1.500000
    endloop
  endfacet
  facet normal 0.000000 -0.000000 1.000000
    outer loop
      vertex 2.250000 28.897114 1.500000
      vertex 1.915111 26.606969 1.500000
      vertex 4.500000 25.000000 1.500000
    endloop
  endfacet
  facet normal 0.000000 0.000000 1.000000
    outer loop
      vertex 1.915111 26.606969 1.500000
      vertex 2.500000 25.000000 1.500000
      vertex 4.500000 25.000000 1.500000
    endloop
  endfacet
  facet normal 0.000000 0.000000 1.000000
    outer loop
      vertex 0.434120 22.537981 1.500000
      vertex 2.250000 21.102886 1.500000
      vertex 1.915111 23.393031 1.500000
    endloop
  endfacet
  facet normal -0.000000 0.000000 1.000000
    outer loop
      vertex -1.250000 22.834936 1.500000
      vertex -2.349232 24.144950 1.500000
      vertex -2.250000 21.102886 1.500000
    endloop
  endfacet
  facet normal 0.000000 0.000000 1.000000
    outer loop
      vertex -2.250000 21.102886 1.500000
      vertex 2.250000 21.102886 1.500000
      vertex 0.434120 22.537981 1.500000
    endloop
  endfacet
  facet normal 0.000000 -0.000000 1.000000
    outer loop
      vertex 2.500000 25.000000 1.500000
      vertex 1.915111 23.393031 1.500000
      vertex 4.500000 25.000000 1.500000
    endloop
  endfacet
  facet normal 0.000000 0.000000 1.000000
    outer loop
      vertex -4.500000 25.000000 1.500000
      vertex -2.349232 24.144950 1.500000
      vertex -2.349232 25.855050 1.500000
    endloop
  endfacet
  facet normal 0.000000 0.000000 1.000000
    outer loop
      vertex -4.500000 25.000000 1.500000
      vertex -2.250000 21.102886 1.500000
      vertex -2.349232 24.144950 1.500000
    endloop
  endfacet
  facet normal 0.000000 0.000000 1.000000
    outer loop
      vertex -2.349232 25.855050 1.500000
      vertex -1.250000 27.165064 1.500000
      vertex -2.250000 28.897114 1.500000
    endloop
  endfacet
  facet normal 0.000000 0.000000 1.000000
    outer loop
      vertex 0.434120 27.462019 1.500000
      vertex 1.915111 26.606969 1.500000
      vertex 2.250000 28.897114 1.500000
    endloop
  endfacet
  facet normal -0.000000 0.000000 1.000000
    outer loop
      vertex 0.434120 22.537981 1.500000
      vertex -1.250000 22.834936 1.500000
      vertex -2.250000 21.102886 1.500000
    endloop
  endfacet
  facet normal -1.000000 -0.000000 -0.000000
    outer loop
      vertex 35.000000 16.500000 5.000000
      vertex 35.000000 16.500000 9.000000
      vertex 35.000000 32.500000 5.000000
    endloop
  endfacet
  facet normal -1.000000 0.000000 0.000000
    outer loop
      vertex 35.000000 32.500000 5.000000
      vertex 35.000000 16.500000 9.000000
      vertex 35.000000 32.500000 9.000000
    endloop
  endfacet
  facet normal 0.866025 0.500000 0.000000
    outer loop
      vertex -4.500000 25.000000 5.000000
      vertex -2.250000 21.102886 5.000000
      vertex -2.250000 21.102886 1.500000
    endloop
  endfacet
  facet normal 0.866025 0.500000 0.000000
    outer loop
      vertex -4.500000 25.000000 1.500000
      vertex -4.500000 25.000000 5.000000
      vertex -2.250000 21.102886 1.500000
    endloop
  endfacet
  facet normal 0.000000 1.000000 0.000000
    outer loop
      vertex 2.250000 21.102886 5.000000
      vertex 2.250000 21.102886 1.500000
      vertex -2.250000 21.102886 5.000000
    endloop
  endfacet
  facet normal 0.000000 1.000000 -0.000000
    outer loop
      vertex -2.250000 21.102886 5.000000
      vertex 2.250000 21.102886 1.500000
      vertex -2.250000 21.102886 1.500000
    endloop
  endfacet
  facet normal -0.866025 0.500000 0.000000
    outer loop
      vertex 4.500000 25.000000 5.000000
      vertex 4.500000 25.000000 1.500000
      vertex 2.250000 21.102886 5.000000
    endloop
  endfacet
  facet normal -0.866025 0.500000 0.000000
    outer loop
      vertex 2.250000 21.102886 5.000000
      vertex 4.500000 25.000000 1.500000
      vertex 2.250000 21.102886 1.500000
    endloop
  endfacet
  facet normal -0.866025 -0.500000 0.000000
    outer loop
      vertex 4.500000 25.000000 5.000000
      vertex 2.250000 28.897114 5.000000
      vertex 4.500000 25.000000 1.500000
    endloop
  endfacet
  facet normal -0.866025 -0.500000 0.000000
    outer loop
      vertex 4.500000 25.000000 1.500000
      vertex 2.250000 28.897114 5.000000
      vertex 2.250000 28.897114 1.500000
    endloop
  endfacet
  facet normal 0.000000 -1.000000 0.000000
    outer loop
      vertex 2.250000 28.897114 1.500000
      vertex 2.250000 28.897114 5.000000
      vertex -2.250000 28.897114 5.000000
    endloop
  endfacet
  facet normal -0.000000 -1.000000 -0.000000
    outer loop
      vertex -2.250000 28.897114 1.500000
      vertex 2.250000 28.897114 1.500000
      vertex -2.250000 28.897114 5.000000
    endloop
  endfacet
  facet normal 0.866025 -0.500000 0.000000
    outer loop
      vertex -2.250000 28.897114 1.500000
      vertex -2.250000 28.897114 5.000000
      vertex -4.500000 25.000000 5.000000
    endloop
  endfacet
  facet normal 0.866025 -0.500000 0.000000
    outer loop
      vertex -4.500000 25.000000 1.500000
      vertex -2.250000 28.897114 1.500000
      vertex -4.500000 25.000000 5.000000
    endloop
  endfacet
endsolid OpenSCAD_Model
