solid OpenSCAD_Model
  facet normal -0.000000 -1.000000 0.000000
    outer loop
      vertex -11.500000 -1.500000 0.000000
      vertex 11.500000 -1.500000 0.000000
      vertex 11.500000 -1.500000 15.800000
    endloop
  endfacet
  facet normal -0.000000 -1.000000 0.000000
    outer loop
      vertex -11.500000 -1.500000 15.800000
      vertex -11.500000 -1.500000 0.000000
      vertex 11.500000 -1.500000 15.800000
    endloop
  endfacet
  facet normal 1.000000 0.000000 -0.000000
    outer loop
      vertex 11.500000 -1.500000 15.800000
      vertex 11.500000 -1.500000 0.000000
      vertex 11.500000 8.500000 0.000000
    endloop
  endfacet
  facet normal 1.000000 0.000000 0.000000
    outer loop
      vertex 11.500000 8.500000 15.800000
      vertex 11.500000 -1.500000 15.800000
      vertex 11.500000 8.500000 0.000000
    endloop
  endfacet
  facet normal 0.000000 0.000000 -1.000000
    outer loop
      vertex 10.000000 8.500000 0.000000
      vertex 11.500000 8.500000 0.000000
      vertex 10.000000 -0.500000 0.000000
    endloop
  endfacet
  facet normal 0.000000 0.000000 -1.000000
    outer loop
      vertex -10.000000 8.500000 0.000000
      vertex -11.500000 -1.500000 0.000000
      vertex -11.500000 8.500000 0.000000
    endloop
  endfacet
  facet normal 0.000000 0.000000 -1.000000
    outer loop
      vertex -10.000000 -0.500000 0.000000
      vertex -11.500000 -1.500000 0.000000
      vertex -10.000000 8.500000 0.000000
    endloop
  endfacet
  facet normal 0.000000 0.000000 -1.000000
    outer loop
      vertex 11.500000 -1.500000 0.000000
      vertex -11.500000 -1.500000 0.000000
      vertex 10.000000 -0.500000 0.000000
    endloop
  endfacet
  facet normal 0.000000 0.000000 -1.000000
    outer loop
      vertex 11.500000 -1.500000 0.000000
      vertex 10.000000 -0.500000 0.000000
      vertex 11.500000 8.500000 0.000000
    endloop
  endfacet
  facet normal 0.000000 0.000000 -1.000000
    outer loop
      vertex 10.000000 -0.500000 0.000000
      vertex -11.500000 -1.500000 0.000000
      vertex -10.000000 -0.500000 0.000000
    endloop
  endfacet
  facet normal -1.000000 -0.000000 -0.000000
    outer loop
      vertex -11.500000 -1.500000 0.000000
      vertex -11.500000 -1.500000 15.800000
      vertex -11.500000 8.500000 0.000000
    endloop
  endfacet
  facet normal -1.000000 0.000000 0.000000
    outer loop
      vertex -11.500000 8.500000 0.000000
      vertex -11.500000 -1.500000 15.800000
      vertex -11.500000 8.500000 15.800000
    endloop
  endfacet
  facet normal 0.000000 0.000000 1.000000
    outer loop
      vertex 10.000000 -0.500000 15.800000
      vertex 11.500000 -1.500000 15.800000
      vertex 11.500000 8.500000 15.800000
    endloop
  endfacet
  facet normal -0.000000 0.000000 1.000000
    outer loop
      vertex 10.000000 -0.500000 15.800000
      vertex -10.000000 -0.500000 15.800000
      vertex -11.500000 -1.500000 15.800000
    endloop
  endfacet
  facet normal 0.000000 0.000000 1.000000
    outer loop
      vertex -11.500000 -1.500000 15.800000
      vertex 11.500000 -1.500000 15.800000
      vertex 10.000000 -0.500000 15.800000
    endloop
  endfacet
  facet normal 0.000000 0.000000 1.000000
    outer loop
      vertex -10.000000 8.500000 15.800000
      vertex -11.500000 -1.500000 15.800000
      vertex -10.000000 -0.500000 15.800000
    endloop
  endfacet
  facet normal 0.000000 -0.000000 1.000000
    outer loop
      vertex -11.500000 8.500000 15.800000
      vertex -11.500000 -1.500000 15.800000
      vertex -10.000000 8.500000 15.800000
    endloop
  endfacet
  facet normal 0.000000 -0.000000 1.000000
    outer loop
      vertex 10.000000 8.500000 15.800000
      vertex 10.000000 -0.500000 15.800000
      vertex 11.500000 8.500000 15.800000
    endloop
  endfacet
  facet normal -0.000000 1.000000 0.000000
    outer loop
      vertex 11.500000 8.500000 0.000000
      vertex 10.000000 8.500000 0.000000
      vertex 11.500000 8.500000 15.800000
    endloop
  endfacet
  facet normal 0.000000 1.000000 0.000000
    outer loop
      vertex 11.500000 8.500000 15.800000
      vertex 10.000000 8.500000 0.000000
      vertex 10.000000 8.500000 15.800000
    endloop
  endfacet
  facet normal 0.000000 -0.000000 0.000000
    outer loop
      vertex 10.000000 8.500000 0.000000
      vertex 10.000000 -0.500000 0.000000
      vertex 10.000000 9.500000 0.000000
    endloop
  endfacet
  facet normal 1.000000 -0.000000 0.000000
    outer loop
      vertex 10.000000 -0.500000 65.000000
      vertex 10.000000 -0.500000 49.721035
      vertex 10.000000 9.500000 65.000000
    endloop
  endfacet
  facet normal 1.000000 -0.000000 -0.000000
    outer loop
      vertex 10.000000 -0.500000 49.721035
      vertex 10.000000 1.227281 49.326121
      vertex 10.000000 9.500000 65.000000
    endloop
  endfacet
  facet normal 1.000000 0.000000 0.000000
    outer loop
      vertex 10.000000 -0.500000 20.221035
      vertex 10.000000 1.227281 19.826121
      vertex 10.000000 2.888485 46.000000
    endloop
  endfacet
  facet normal 1.000000 -0.000000 -0.000000
    outer loop
      vertex 10.000000 1.227281 49.326121
      vertex 10.000000 2.888485 49.000000
      vertex 10.000000 9.500000 65.000000
    endloop
  endfacet
  facet normal 1.000000 0.000000 0.000000
    outer loop
      vertex 10.000000 -0.500000 15.800000
      vertex 10.000000 8.500000 15.800000
      vertex 10.000000 2.888485 16.500000
    endloop
  endfacet
  facet normal 1.000000 -0.000000 0.000000
    outer loop
      vertex 10.000000 2.888485 49.000000
      vertex 10.000000 2.888485 46.000000
      vertex 10.000000 9.500000 65.000000
    endloop
  endfacet
  facet normal 1.000000 -0.000000 0.000000
    outer loop
      vertex 10.000000 2.888485 46.000000
      vertex 10.000000 1.227281 19.826121
      vertex 10.000000 9.500000 65.000000
    endloop
  endfacet
  facet normal 1.000000 0.000000 0.000000
    outer loop
      vertex 10.000000 2.888485 16.500000
      vertex 10.000000 8.500000 15.800000
      vertex 10.000000 2.888485 19.500000
    endloop
  endfacet
  facet normal 1.000000 -0.000000 0.000000
    outer loop
      vertex 10.000000 8.500000 15.800000
      vertex 10.000000 8.500000 0.000000
      vertex 10.000000 9.500000 0.000000
    endloop
  endfacet
  facet normal 1.000000 -0.000000 0.000000
    outer loop
      vertex 10.000000 9.500000 65.000000
      vertex 10.000000 8.500000 15.800000
      vertex 10.000000 9.500000 0.000000
    endloop
  endfacet
  facet normal 1.000000 -0.000000 -0.000000
    outer loop
      vertex 10.000000 9.500000 65.000000
      vertex 10.000000 2.888485 19.500000
      vertex 10.000000 8.500000 15.800000
    endloop
  endfacet
  facet normal 1.000000 -0.000000 -0.000000
    outer loop
      vertex 10.000000 1.227281 19.826121
      vertex 10.000000 2.888485 19.500000
      vertex 10.000000 9.500000 65.000000
    endloop
  endfacet
  facet normal 1.000000 0.000000 0.000000
    outer loop
      vertex 10.000000 2.888485 16.500000
      vertex 10.000000 -0.500000 16.500000
      vertex 10.000000 -0.500000 15.800000
    endloop
  endfacet
  facet normal 1.000000 0.000000 0.000000
    outer loop
      vertex 10.000000 2.888485 46.000000
      vertex 10.000000 -0.500000 46.000000
      vertex 10.000000 -0.500000 20.221035
    endloop
  endfacet
  facet normal -0.000000 0.000000 0.000000
    outer loop
      vertex -10.000000 9.500000 0.000000
      vertex -10.000000 -0.500000 0.000000
      vertex -10.000000 8.500000 0.000000
    endloop
  endfacet
  facet normal -1.000000 0.000000 0.000000
    outer loop
      vertex -10.000000 9.500000 0.000000
      vertex -10.000000 8.500000 0.000000
      vertex -10.000000 8.500000 15.800000
    endloop
  endfacet
  facet normal -1.000000 0.000000 0.000000
    outer loop
      vertex -10.000000 8.500000 15.800000
      vertex -10.000000 -0.500000 15.800000
      vertex -10.000000 -0.500000 16.500000
    endloop
  endfacet
  facet normal -1.000000 0.000000 0.000000
    outer loop
      vertex -10.000000 8.500000 15.800000
      vertex -10.000000 -0.500000 16.500000
      vertex -10.000000 2.888485 16.500000
    endloop
  endfacet
  facet normal -1.000000 0.000000 0.000000
    outer loop
      vertex -10.000000 8.500000 15.800000
      vertex -10.000000 2.888485 16.500000
      vertex -10.000000 2.888485 19.500000
    endloop
  endfacet
  facet normal -1.000000 0.000000 0.000000
    outer loop
      vertex -10.000000 1.765288 19.720501
      vertex -10.000000 1.227281 19.826121
      vertex -10.000000 0.317792 20.034060
    endloop
  endfacet
  facet normal -1.000000 -0.000000 -0.000000
    outer loop
      vertex -10.000000 1.765288 19.720501
      vertex -10.000000 0.317792 20.034060
      vertex -10.000000 2.888485 19.500000
    endloop
  endfacet
  facet normal -1.000000 0.000000 0.000000
    outer loop
      vertex -10.000000 2.888485 19.500000
      vertex -10.000000 0.317792 20.034060
      vertex -10.000000 -0.500000 20.221035
    endloop
  endfacet
  facet normal -1.000000 0.000000 0.000000
    outer loop
      vertex -10.000000 2.888485 19.500000
      vertex -10.000000 -0.500000 20.221035
      vertex -10.000000 -0.500000 46.000000
    endloop
  endfacet
  facet normal -1.000000 -0.000000 -0.000000
    outer loop
      vertex -10.000000 2.888485 19.500000
      vertex -10.000000 -0.500000 46.000000
      vertex -10.000000 8.500000 15.800000
    endloop
  endfacet
  facet normal -1.000000 0.000000 0.000000
    outer loop
      vertex -10.000000 8.500000 15.800000
      vertex -10.000000 -0.500000 46.000000
      vertex -10.000000 2.888485 46.000000
    endloop
  endfacet
  facet normal -1.000000 0.000000 0.000000
    outer loop
      vertex -10.000000 8.500000 15.800000
      vertex -10.000000 2.888485 46.000000
      vertex -10.000000 2.888485 49.000000
    endloop
  endfacet
  facet normal -1.000000 -0.000000 0.000000
    outer loop
      vertex -10.000000 8.500000 15.800000
      vertex -10.000000 9.500000 65.000000
      vertex -10.000000 9.500000 0.000000
    endloop
  endfacet
  facet normal -1.000000 0.000000 0.000000
    outer loop
      vertex -10.000000 1.765288 49.220501
      vertex -10.000000 1.227281 49.326121
      vertex -10.000000 0.317792 49.534060
    endloop
  endfacet
  facet normal -1.000000 -0.000000 -0.000000
    outer loop
      vertex -10.000000 1.765288 49.220501
      vertex -10.000000 0.317792 49.534060
      vertex -10.000000 2.888485 49.000000
    endloop
  endfacet
  facet normal -1.000000 0.000000 0.000000
    outer loop
      vertex -10.000000 2.888485 49.000000
      vertex -10.000000 0.317792 49.534060
      vertex -10.000000 -0.500000 49.721035
    endloop
  endfacet
  facet normal -1.000000 0.000000 0.000000
    outer loop
      vertex -10.000000 2.888485 49.000000
      vertex -10.000000 -0.500000 49.721035
      vertex -10.000000 -0.500000 65.000000
    endloop
  endfacet
  facet normal -1.000000 0.000000 -0.000000
    outer loop
      vertex -10.000000 2.888485 49.000000
      vertex -10.000000 -0.500000 65.000000
      vertex -10.000000 9.500000 65.000000
    endloop
  endfacet
  facet normal -1.000000 -0.000000 0.000000
    outer loop
      vertex -10.000000 2.888485 49.000000
      vertex -10.000000 9.500000 65.000000
      vertex -10.000000 8.500000 15.800000
    endloop
  endfacet
  facet normal -0.000000 1.000000 0.000000
    outer loop
      vertex -10.000000 8.500000 0.000000
      vertex -11.500000 8.500000 0.000000
      vertex -10.000000 8.500000 15.800000
    endloop
  endfacet
  facet normal 0.000000 1.000000 0.000000
    outer loop
      vertex -10.000000 8.500000 15.800000
      vertex -11.500000 8.500000 0.000000
      vertex -11.500000 8.500000 15.800000
    endloop
  endfacet
  facet normal -0.000000 -1.000000 0.000000
    outer loop
      vertex -10.000000 -0.500000 15.800000
      vertex 10.000000 -0.500000 15.800000
      vertex 10.000000 -0.500000 16.500000
    endloop
  endfacet
  facet normal -0.000000 -1.000000 -0.000000
    outer loop
      vertex -6.593626 -0.500000 16.500000
      vertex -10.000000 -0.500000 15.800000
      vertex 6.593626 -0.500000 16.500000
    endloop
  endfacet
  facet normal -0.000000 -1.000000 0.000000
    outer loop
      vertex 6.593626 -0.500000 16.500000
      vertex -10.000000 -0.500000 15.800000
      vertex 10.000000 -0.500000 16.500000
    endloop
  endfacet
  facet normal 0.000000 -1.000000 -0.000000
    outer loop
      vertex 8.437198 -0.500000 19.869691
      vertex 6.593626 -0.500000 19.500000
      vertex 7.068103 -0.500000 19.584913
    endloop
  endfacet
  facet normal -0.000000 -1.000000 0.000000
    outer loop
      vertex 8.437198 -0.500000 19.869691
      vertex 7.068103 -0.500000 19.584913
      vertex 7.265425 -0.500000 19.620227
    endloop
  endfacet
  facet normal 0.000000 -1.000000 -0.000000
    outer loop
      vertex 9.390625 -0.500000 20.072671
      vertex 6.593626 -0.500000 19.500000
      vertex 8.437198 -0.500000 19.869691
    endloop
  endfacet
  facet normal -0.000000 -1.000000 0.000000
    outer loop
      vertex 9.977490 -0.500000 20.215554
      vertex 6.593626 -0.500000 19.500000
      vertex 9.390625 -0.500000 20.072671
    endloop
  endfacet
  facet normal -0.000000 -1.000000 0.000000
    outer loop
      vertex 10.000000 -0.500000 20.221035
      vertex 6.593626 -0.500000 19.500000
      vertex 9.977490 -0.500000 20.215554
    endloop
  endfacet
  facet normal -0.000000 -1.000000 0.000000
    outer loop
      vertex 10.000000 -0.500000 46.000000
      vertex 6.593626 -0.500000 19.500000
      vertex 10.000000 -0.500000 20.221035
    endloop
  endfacet
  facet normal -0.000000 -1.000000 0.000000
    outer loop
      vertex -6.593626 -0.500000 19.500000
      vertex -6.593626 -0.500000 16.500000
      vertex 6.593626 -0.500000 19.500000
    endloop
  endfacet
  facet normal -0.000000 -1.000000 -0.000000
    outer loop
      vertex -7.818360 -0.500000 19.737943
      vertex -7.265425 -0.500000 19.620227
      vertex 10.000000 -0.500000 46.000000
    endloop
  endfacet
  facet normal 0.000000 -1.000000 -0.000000
    outer loop
      vertex 8.437198 -0.500000 49.369691
      vertex 6.593626 -0.500000 49.000000
      vertex 7.068103 -0.500000 49.084913
    endloop
  endfacet
  facet normal -0.000000 -1.000000 0.000000
    outer loop
      vertex 8.437198 -0.500000 49.369691
      vertex 7.068103 -0.500000 49.084913
      vertex 7.265425 -0.500000 49.120227
    endloop
  endfacet
  facet normal 0.000000 -1.000000 -0.000000
    outer loop
      vertex 9.390625 -0.500000 49.572671
      vertex 6.593626 -0.500000 49.000000
      vertex 8.437198 -0.500000 49.369691
    endloop
  endfacet
  facet normal -0.000000 -1.000000 0.000000
    outer loop
      vertex 9.977490 -0.500000 49.715554
      vertex 6.593626 -0.500000 49.000000
      vertex 9.390625 -0.500000 49.572671
    endloop
  endfacet
  facet normal -0.000000 -1.000000 0.000000
    outer loop
      vertex 10.000000 -0.500000 49.721035
      vertex 6.593626 -0.500000 49.000000
      vertex 9.977490 -0.500000 49.715554
    endloop
  endfacet
  facet normal -0.000000 -1.000000 0.000000
    outer loop
      vertex 10.000000 -0.500000 65.000000
      vertex 6.593626 -0.500000 49.000000
      vertex 10.000000 -0.500000 49.721035
    endloop
  endfacet
  facet normal -0.000000 -1.000000 0.000000
    outer loop
      vertex -10.000000 -0.500000 65.000000
      vertex -10.000000 -0.500000 49.721035
      vertex 10.000000 -0.500000 65.000000
    endloop
  endfacet
  facet normal -0.000000 -1.000000 0.000000
    outer loop
      vertex -10.000000 -0.500000 49.721035
      vertex -9.390625 -0.500000 49.572671
      vertex 10.000000 -0.500000 65.000000
    endloop
  endfacet
  facet normal -0.000000 -1.000000 0.000000
    outer loop
      vertex -10.000000 -0.500000 20.221035
      vertex -9.390625 -0.500000 20.072671
      vertex -6.593626 -0.500000 46.000000
    endloop
  endfacet
  facet normal -0.000000 -1.000000 0.000000
    outer loop
      vertex -9.390625 -0.500000 49.572671
      vertex -7.818360 -0.500000 49.237943
      vertex 10.000000 -0.500000 65.000000
    endloop
  endfacet
  facet normal -0.000000 -1.000000 0.000000
    outer loop
      vertex -9.390625 -0.500000 20.072671
      vertex -7.818360 -0.500000 19.737943
      vertex 6.593626 -0.500000 46.000000
    endloop
  endfacet
  facet normal -0.000000 -1.000000 -0.000000
    outer loop
      vertex -7.818360 -0.500000 49.237943
      vertex -7.265425 -0.500000 49.120227
      vertex 10.000000 -0.500000 65.000000
    endloop
  endfacet
  facet normal -0.000000 -1.000000 0.000000
    outer loop
      vertex -6.593626 -0.500000 16.500000
      vertex -10.000000 -0.500000 16.500000
      vertex -10.000000 -0.500000 15.800000
    endloop
  endfacet
  facet normal -0.000000 -1.000000 0.000000
    outer loop
      vertex -7.265425 -0.500000 49.120227
      vertex -6.593626 -0.500000 49.000000
      vertex 10.000000 -0.500000 65.000000
    endloop
  endfacet
  facet normal -0.000000 -1.000000 0.000000
    outer loop
      vertex -6.593626 -0.500000 49.000000
      vertex -6.593626 -0.500000 46.000000
      vertex 10.000000 -0.500000 65.000000
    endloop
  endfacet
  facet normal -0.000000 -1.000000 0.000000
    outer loop
      vertex -6.593626 -0.500000 46.000000
      vertex -9.390625 -0.500000 20.072671
      vertex 10.000000 -0.500000 65.000000
    endloop
  endfacet
  facet normal -0.000000 -1.000000 0.000000
    outer loop
      vertex 6.593626 -0.500000 46.000000
      vertex -7.818360 -0.500000 19.737943
      vertex 10.000000 -0.500000 46.000000
    endloop
  endfacet
  facet normal -0.000000 -1.000000 -0.000000
    outer loop
      vertex 10.000000 -0.500000 46.000000
      vertex -7.265425 -0.500000 19.620227
      vertex 6.593626 -0.500000 19.500000
    endloop
  endfacet
  facet normal -0.000000 -1.000000 0.000000
    outer loop
      vertex -7.265425 -0.500000 19.620227
      vertex -6.593626 -0.500000 19.500000
      vertex 6.593626 -0.500000 19.500000
    endloop
  endfacet
  facet normal -0.000000 -1.000000 0.000000
    outer loop
      vertex 6.593626 -0.500000 19.500000
      vertex -6.593626 -0.500000 16.500000
      vertex 6.593626 -0.500000 16.500000
    endloop
  endfacet
  facet normal -0.000000 -1.000000 -0.000000
    outer loop
      vertex -9.390625 -0.500000 20.072671
      vertex 6.593626 -0.500000 49.000000
      vertex 10.000000 -0.500000 65.000000
    endloop
  endfacet
  facet normal -0.000000 -1.000000 0.000000
    outer loop
      vertex -9.390625 -0.500000 20.072671
      vertex 6.593626 -0.500000 46.000000
      vertex 6.593626 -0.500000 49.000000
    endloop
  endfacet
  facet normal -0.000000 -1.000000 0.000000
    outer loop
      vertex -6.593626 -0.500000 46.000000
      vertex -10.000000 -0.500000 46.000000
      vertex -10.000000 -0.500000 20.221035
    endloop
  endfacet
  facet normal 0.000000 0.000000 1.000000
    outer loop
      vertex 10.000000 -0.500000 16.500000
      vertex 9.246159 1.850912 16.500000
      vertex 8.214565 0.752376 16.500000
    endloop
  endfacet
  facet normal 0.000000 0.000000 1.000000
    outer loop
      vertex 7.053423 -0.208204 16.500000
      vertex 10.000000 -0.500000 16.500000
      vertex 8.214565 0.752376 16.500000
    endloop
  endfacet
  facet normal 0.000000 0.000000 1.000000
    outer loop
      vertex 10.000000 2.888485 16.500000
      vertex 9.246159 1.850912 16.500000
      vertex 10.000000 -0.500000 16.500000
    endloop
  endfacet
  facet normal 0.000000 0.000000 1.000000
    outer loop
      vertex 6.593626 -0.500000 16.500000
      vertex 10.000000 -0.500000 16.500000
      vertex 7.053423 -0.208204 16.500000
    endloop
  endfacet
  facet normal 0.809017 -0.587785 0.000000
    outer loop
      vertex 9.246159 1.850912 19.500000
      vertex 9.246159 1.850912 16.500000
      vertex 10.000000 2.888485 16.500000
    endloop
  endfacet
  facet normal 0.809017 -0.587785 0.000000
    outer loop
      vertex 10.000000 2.888485 19.500000
      vertex 9.246159 1.850912 19.500000
      vertex 10.000000 2.888485 16.500000
    endloop
  endfacet
  facet normal 0.256289 -0.186205 -0.948496
    outer loop
      vertex 10.000000 2.888485 19.500000
      vertex 10.000000 1.227281 19.826121
      vertex 9.246159 1.850912 19.500000
    endloop
  endfacet
  facet normal 0.230930 -0.216858 -0.948496
    outer loop
      vertex 10.000000 -0.500000 20.221035
      vertex 9.977490 -0.500000 20.215554
      vertex 10.000000 1.227281 19.826121
    endloop
  endfacet
  facet normal 0.230930 -0.216858 -0.948496
    outer loop
      vertex 10.000000 1.227281 19.826121
      vertex 9.977490 -0.500000 20.215554
      vertex 9.246159 1.850912 19.500000
    endloop
  endfacet
  facet normal 0.000000 0.000000 1.000000
    outer loop
      vertex 10.000000 -0.500000 46.000000
      vertex 9.246159 1.850912 46.000000
      vertex 8.214565 0.752376 46.000000
    endloop
  endfacet
  facet normal 0.000000 0.000000 1.000000
    outer loop
      vertex 7.053423 -0.208204 46.000000
      vertex 10.000000 -0.500000 46.000000
      vertex 8.214565 0.752376 46.000000
    endloop
  endfacet
  facet normal 0.000000 0.000000 1.000000
    outer loop
      vertex 10.000000 2.888485 46.000000
      vertex 9.246159 1.850912 46.000000
      vertex 10.000000 -0.500000 46.000000
    endloop
  endfacet
  facet normal 0.000000 0.000000 1.000000
    outer loop
      vertex 6.593626 -0.500000 46.000000
      vertex 10.000000 -0.500000 46.000000
      vertex 7.053423 -0.208204 46.000000
    endloop
  endfacet
  facet normal 0.809017 -0.587785 0.000000
    outer loop
      vertex 9.246159 1.850912 49.000000
      vertex 9.246159 1.850912 46.000000
      vertex 10.000000 2.888485 46.000000
    endloop
  endfacet
  facet normal 0.809017 -0.587785 0.000000
    outer loop
      vertex 10.000000 2.888485 49.000000
      vertex 9.246159 1.850912 49.000000
      vertex 10.000000 2.888485 46.000000
    endloop
  endfacet
  facet normal 0.256289 -0.186205 -0.948496
    outer loop
      vertex 10.000000 2.888485 49.000000
      vertex 10.000000 1.227281 49.326121
      vertex 9.246159 1.850912 49.000000
    endloop
  endfacet
  facet normal 0.230930 -0.216858 -0.948496
    outer loop
      vertex 10.000000 -0.500000 49.721035
      vertex 9.977490 -0.500000 49.715554
      vertex 10.000000 1.227281 49.326121
    endloop
  endfacet
  facet normal 0.230930 -0.216858 -0.948496
    outer loop
      vertex 10.000000 1.227281 49.326121
      vertex 9.977490 -0.500000 49.715554
      vertex 9.246159 1.850912 49.000000
    endloop
  endfacet
  facet normal 0.000000 0.000000 1.000000
    outer loop
      vertex 7.760069 8.019688 65.000000
      vertex 10.000000 -0.500000 65.000000
      vertex 10.000000 9.500000 65.000000
    endloop
  endfacet
  facet normal 0.000000 -0.000000 1.000000
    outer loop
      vertex 7.884411 9.500000 65.000000
      vertex 7.884411 9.003955 65.000000
      vertex 10.000000 9.500000 65.000000
    endloop
  endfacet
  facet normal 0.000000 0.000000 1.000000
    outer loop
      vertex 7.513346 7.058766 65.000000
      vertex 10.000000 -0.500000 65.000000
      vertex 7.760069 8.019688 65.000000
    endloop
  endfacet
  facet normal 0.000000 0.000000 1.000000
    outer loop
      vertex 7.148134 6.136344 65.000000
      vertex 10.000000 -0.500000 65.000000
      vertex 7.513346 7.058766 65.000000
    endloop
  endfacet
  facet normal 0.000000 0.000000 1.000000
    outer loop
      vertex 6.670191 5.266968 65.000000
      vertex 10.000000 -0.500000 65.000000
      vertex 7.148134 6.136344 65.000000
    endloop
  endfacet
  facet normal 0.000000 0.000000 1.000000
    outer loop
      vertex 6.087055 4.464350 65.000000
      vertex 10.000000 -0.500000 65.000000
      vertex 6.670191 5.266968 65.000000
    endloop
  endfacet
  facet normal 0.000000 0.000000 1.000000
    outer loop
      vertex 5.651001 4.000000 65.000000
      vertex 10.000000 -0.500000 65.000000
      vertex 6.087055 4.464350 65.000000
    endloop
  endfacet
  facet normal 0.000000 0.000000 1.000000
    outer loop
      vertex -10.000000 -0.500000 65.000000
      vertex 10.000000 -0.500000 65.000000
      vertex 5.651001 4.000000 65.000000
    endloop
  endfacet
  facet normal 0.000000 -0.000000 1.000000
    outer loop
      vertex -6.087055 4.464350 65.000000
      vertex -10.000000 -0.500000 65.000000
      vertex -5.651001 4.000000 65.000000
    endloop
  endfacet
  facet normal 0.000000 -0.000000 1.000000
    outer loop
      vertex -6.670191 5.266968 65.000000
      vertex -10.000000 -0.500000 65.000000
      vertex -6.087055 4.464350 65.000000
    endloop
  endfacet
  facet normal 0.000000 -0.000000 1.000000
    outer loop
      vertex -7.148134 6.136344 65.000000
      vertex -10.000000 -0.500000 65.000000
      vertex -6.670191 5.266968 65.000000
    endloop
  endfacet
  facet normal 0.000000 -0.000000 1.000000
    outer loop
      vertex -7.513346 7.058766 65.000000
      vertex -10.000000 -0.500000 65.000000
      vertex -7.148134 6.136344 65.000000
    endloop
  endfacet
  facet normal 0.000000 -0.000000 1.000000
    outer loop
      vertex -7.760069 8.019688 65.000000
      vertex -10.000000 -0.500000 65.000000
      vertex -7.513346 7.058766 65.000000
    endloop
  endfacet
  facet normal 0.000000 -0.000000 1.000000
    outer loop
      vertex -7.884411 9.003955 65.000000
      vertex -10.000000 -0.500000 65.000000
      vertex -7.760069 8.019688 65.000000
    endloop
  endfacet
  facet normal 0.000000 0.000000 1.000000
    outer loop
      vertex -7.884411 9.500000 65.000000
      vertex -10.000000 -0.500000 65.000000
      vertex -7.884411 9.003955 65.000000
    endloop
  endfacet
  facet normal 0.000000 -0.000000 1.000000
    outer loop
      vertex -10.000000 9.500000 65.000000
      vertex -10.000000 -0.500000 65.000000
      vertex -7.884411 9.500000 65.000000
    endloop
  endfacet
  facet normal 0.000000 -0.000000 1.000000
    outer loop
      vertex 7.884411 9.003955 65.000000
      vertex 7.760069 8.019688 65.000000
      vertex 10.000000 9.500000 65.000000
    endloop
  endfacet
  facet normal -0.000000 0.000000 1.000000
    outer loop
      vertex 5.651001 4.000000 65.000000
      vertex -5.651001 4.000000 65.000000
      vertex -10.000000 -0.500000 65.000000
    endloop
  endfacet
  facet normal -0.000000 1.000000 0.000000
    outer loop
      vertex 10.000000 9.500000 0.000000
      vertex 7.884411 9.500000 0.000000
      vertex 10.000000 9.500000 65.000000
    endloop
  endfacet
  facet normal 0.000000 1.000000 0.000000
    outer loop
      vertex 10.000000 9.500000 65.000000
      vertex 7.884411 9.500000 0.000000
      vertex 7.884411 9.500000 65.000000
    endloop
  endfacet
  facet normal 0.000000 0.000000 -1.000000
    outer loop
      vertex -7.884411 9.500000 0.000000
      vertex -10.000000 -0.500000 0.000000
      vertex -10.000000 9.500000 0.000000
    endloop
  endfacet
  facet normal 0.000000 0.000000 -1.000000
    outer loop
      vertex -7.884411 9.003955 0.000000
      vertex -10.000000 -0.500000 0.000000
      vertex -7.884411 9.500000 0.000000
    endloop
  endfacet
  facet normal 0.000000 0.000000 -1.000000
    outer loop
      vertex -7.760069 8.019688 0.000000
      vertex -10.000000 -0.500000 0.000000
      vertex -7.884411 9.003955 0.000000
    endloop
  endfacet
  facet normal 0.000000 0.000000 -1.000000
    outer loop
      vertex -7.513346 7.058766 0.000000
      vertex -10.000000 -0.500000 0.000000
      vertex -7.760069 8.019688 0.000000
    endloop
  endfacet
  facet normal 0.000000 0.000000 -1.000000
    outer loop
      vertex -7.148134 6.136344 0.000000
      vertex -10.000000 -0.500000 0.000000
      vertex -7.513346 7.058766 0.000000
    endloop
  endfacet
  facet normal 0.000000 0.000000 -1.000000
    outer loop
      vertex -6.670191 5.266968 0.000000
      vertex -10.000000 -0.500000 0.000000
      vertex -7.148134 6.136344 0.000000
    endloop
  endfacet
  facet normal 0.000000 0.000000 -1.000000
    outer loop
      vertex -6.087055 4.464350 0.000000
      vertex -10.000000 -0.500000 0.000000
      vertex -6.670191 5.266968 0.000000
    endloop
  endfacet
  facet normal 0.000000 0.000000 -1.000000
    outer loop
      vertex -5.651001 4.000000 0.000000
      vertex -10.000000 -0.500000 0.000000
      vertex -6.087055 4.464350 0.000000
    endloop
  endfacet
  facet normal 0.000000 0.000000 -1.000000
    outer loop
      vertex 10.000000 -0.500000 0.000000
      vertex -10.000000 -0.500000 0.000000
      vertex 5.651001 4.000000 0.000000
    endloop
  endfacet
  facet normal 0.000000 0.000000 -1.000000
    outer loop
      vertex 10.000000 -0.500000 0.000000
      vertex 5.651001 4.000000 0.000000
      vertex 6.087055 4.464350 0.000000
    endloop
  endfacet
  facet normal 0.000000 -0.000000 -1.000000
    outer loop
      vertex 10.000000 -0.500000 0.000000
      vertex 6.087055 4.464350 0.000000
      vertex 10.000000 9.500000 0.000000
    endloop
  endfacet
  facet normal 0.000000 0.000000 -1.000000
    outer loop
      vertex 6.087055 4.464350 0.000000
      vertex 6.670191 5.266968 0.000000
      vertex 10.000000 9.500000 0.000000
    endloop
  endfacet
  facet normal -0.000000 0.000000 -1.000000
    outer loop
      vertex 7.148134 6.136344 0.000000
      vertex 10.000000 9.500000 0.000000
      vertex 6.670191 5.266968 0.000000
    endloop
  endfacet
  facet normal -0.000000 0.000000 -1.000000
    outer loop
      vertex 7.884411 9.003955 0.000000
      vertex 10.000000 9.500000 0.000000
      vertex 7.760069 8.019688 0.000000
    endloop
  endfacet
  facet normal 0.000000 0.000000 -1.000000
    outer loop
      vertex 7.148134 6.136344 0.000000
      vertex 7.513346 7.058766 0.000000
      vertex 10.000000 9.500000 0.000000
    endloop
  endfacet
  facet normal 0.000000 0.000000 -1.000000
    outer loop
      vertex 7.513346 7.058766 0.000000
      vertex 7.760069 8.019688 0.000000
      vertex 10.000000 9.500000 0.000000
    endloop
  endfacet
  facet normal 0.000000 0.000000 -1.000000
    outer loop
      vertex 7.884411 9.500000 0.000000
      vertex 10.000000 9.500000 0.000000
      vertex 7.884411 9.003955 0.000000
    endloop
  endfacet
  facet normal 0.000000 0.000000 -1.000000
    outer loop
      vertex 5.651001 4.000000 0.000000
      vertex -10.000000 -0.500000 0.000000
      vertex -5.651001 4.000000 0.000000
    endloop
  endfacet
  facet normal -0.000000 1.000000 0.000000
    outer loop
      vertex -7.884411 9.500000 0.000000
      vertex -10.000000 9.500000 0.000000
      vertex -7.884411 9.500000 65.000000
    endloop
  endfacet
  facet normal 0.000000 1.000000 0.000000
    outer loop
      vertex -7.884411 9.500000 65.000000
      vertex -10.000000 9.500000 0.000000
      vertex -10.000000 9.500000 65.000000
    endloop
  endfacet
  facet normal -0.230930 -0.216858 -0.948496
    outer loop
      vertex -9.390625 -0.500000 49.572671
      vertex -10.000000 -0.500000 49.721035
      vertex -8.214565 0.752376 49.000000
    endloop
  endfacet
  facet normal -0.230930 -0.216858 -0.948496
    outer loop
      vertex -8.214565 0.752376 49.000000
      vertex -10.000000 -0.500000 49.721035
      vertex -10.000000 0.317792 49.534060
    endloop
  endfacet
  facet normal -0.230930 -0.216858 -0.948496
    outer loop
      vertex -10.000000 0.317792 49.534060
      vertex -10.000000 1.227281 49.326121
      vertex -8.214565 0.752376 49.000000
    endloop
  endfacet
  facet normal -0.230930 -0.216858 -0.948496
    outer loop
      vertex -8.214565 0.752376 49.000000
      vertex -10.000000 1.227281 49.326121
      vertex -9.246159 1.850912 49.000000
    endloop
  endfacet
  facet normal -0.256289 -0.186205 -0.948496
    outer loop
      vertex -9.246159 1.850912 49.000000
      vertex -10.000000 1.227281 49.326121
      vertex -10.000000 1.765288 49.220501
    endloop
  endfacet
  facet normal -0.256289 -0.186205 -0.948496
    outer loop
      vertex -9.246159 1.850912 49.000000
      vertex -10.000000 1.765288 49.220501
      vertex -10.000000 2.888485 49.000000
    endloop
  endfacet
  facet normal -0.809017 -0.587785 -0.000000
    outer loop
      vertex -9.246159 1.850912 46.000000
      vertex -9.246159 1.850912 49.000000
      vertex -10.000000 2.888485 46.000000
    endloop
  endfacet
  facet normal -0.809017 -0.587785 -0.000000
    outer loop
      vertex -10.000000 2.888485 46.000000
      vertex -9.246159 1.850912 49.000000
      vertex -10.000000 2.888485 49.000000
    endloop
  endfacet
  facet normal 0.000000 0.000000 1.000000
    outer loop
      vertex -10.000000 -0.500000 46.000000
      vertex -8.214565 0.752376 46.000000
      vertex -9.246159 1.850912 46.000000
    endloop
  endfacet
  facet normal -0.000000 0.000000 1.000000
    outer loop
      vertex -7.053423 -0.208204 46.000000
      vertex -8.214565 0.752376 46.000000
      vertex -10.000000 -0.500000 46.000000
    endloop
  endfacet
  facet normal 0.000000 -0.000000 1.000000
    outer loop
      vertex -10.000000 2.888485 46.000000
      vertex -10.000000 -0.500000 46.000000
      vertex -9.246159 1.850912 46.000000
    endloop
  endfacet
  facet normal 0.000000 -0.000000 1.000000
    outer loop
      vertex -7.053423 -0.208204 46.000000
      vertex -10.000000 -0.500000 46.000000
      vertex -6.593626 -0.500000 46.000000
    endloop
  endfacet
  facet normal -0.230930 -0.216858 -0.948496
    outer loop
      vertex -9.390625 -0.500000 20.072671
      vertex -10.000000 -0.500000 20.221035
      vertex -8.214565 0.752376 19.500000
    endloop
  endfacet
  facet normal -0.230930 -0.216858 -0.948496
    outer loop
      vertex -8.214565 0.752376 19.500000
      vertex -10.000000 -0.500000 20.221035
      vertex -10.000000 0.317792 20.034060
    endloop
  endfacet
  facet normal -0.230930 -0.216858 -0.948496
    outer loop
      vertex -10.000000 0.317792 20.034060
      vertex -10.000000 1.227281 19.826121
      vertex -8.214565 0.752376 19.500000
    endloop
  endfacet
  facet normal -0.230930 -0.216858 -0.948496
    outer loop
      vertex -8.214565 0.752376 19.500000
      vertex -10.000000 1.227281 19.826121
      vertex -9.246159 1.850912 19.500000
    endloop
  endfacet
  facet normal -0.256289 -0.186205 -0.948496
    outer loop
      vertex -9.246159 1.850912 19.500000
      vertex -10.000000 1.227281 19.826121
      vertex -10.000000 1.765288 19.720501
    endloop
  endfacet
  facet normal -0.256289 -0.186205 -0.948496
    outer loop
      vertex -9.246159 1.850912 19.500000
      vertex -10.000000 1.765288 19.720501
      vertex -10.000000 2.888485 19.500000
    endloop
  endfacet
  facet normal -0.809017 -0.587785 -0.000000
    outer loop
      vertex -9.246159 1.850912 16.500000
      vertex -9.246159 1.850912 19.500000
      vertex -10.000000 2.888485 16.500000
    endloop
  endfacet
  facet normal -0.809017 -0.587785 -0.000000
    outer loop
      vertex -10.000000 2.888485 16.500000
      vertex -9.246159 1.850912 19.500000
      vertex -10.000000 2.888485 19.500000
    endloop
  endfacet
  facet normal 0.000000 0.000000 1.000000
    outer loop
      vertex -10.000000 -0.500000 16.500000
      vertex -8.214565 0.752376 16.500000
      vertex -9.246159 1.850912 16.500000
    endloop
  endfacet
  facet normal -0.000000 0.000000 1.000000
    outer loop
      vertex -7.053423 -0.208204 16.500000
      vertex -8.214565 0.752376 16.500000
      vertex -10.000000 -0.500000 16.500000
    endloop
  endfacet
  facet normal 0.000000 -0.000000 1.000000
    outer loop
      vertex -10.000000 2.888485 16.500000
      vertex -10.000000 -0.500000 16.500000
      vertex -9.246159 1.850912 16.500000
    endloop
  endfacet
  facet normal 0.000000 -0.000000 1.000000
    outer loop
      vertex -7.053423 -0.208204 16.500000
      vertex -10.000000 -0.500000 16.500000
      vertex -6.593626 -0.500000 16.500000
    endloop
  endfacet
  facet normal -0.535827 -0.844328 0.000000
    outer loop
      vertex -7.053423 -0.208204 16.500000
      vertex -6.593626 -0.500000 16.500000
      vertex -6.593626 -0.500000 19.500000
    endloop
  endfacet
  facet normal -0.535827 -0.844328 0.000000
    outer loop
      vertex -7.053423 -0.208204 19.500000
      vertex -7.053423 -0.208204 16.500000
      vertex -6.593626 -0.500000 19.500000
    endloop
  endfacet
  facet normal -0.169745 -0.267475 -0.948496
    outer loop
      vertex -7.053423 -0.208204 19.500000
      vertex -6.593626 -0.500000 19.500000
      vertex -7.265425 -0.500000 19.620227
    endloop
  endfacet
  facet normal -0.201930 -0.244091 -0.948496
    outer loop
      vertex -7.053423 -0.208204 19.500000
      vertex -7.265425 -0.500000 19.620227
      vertex -7.818360 -0.500000 19.737943
    endloop
  endfacet
  facet normal -0.201930 -0.244091 -0.948496
    outer loop
      vertex -7.818360 -0.500000 19.737943
      vertex -9.390625 -0.500000 20.072671
      vertex -7.053423 -0.208204 19.500000
    endloop
  endfacet
  facet normal -0.201930 -0.244091 -0.948496
    outer loop
      vertex -7.053423 -0.208204 19.500000
      vertex -9.390625 -0.500000 20.072671
      vertex -8.214565 0.752376 19.500000
    endloop
  endfacet
  facet normal -0.535827 -0.844328 0.000000
    outer loop
      vertex -7.053423 -0.208204 46.000000
      vertex -6.593626 -0.500000 46.000000
      vertex -6.593626 -0.500000 49.000000
    endloop
  endfacet
  facet normal -0.535827 -0.844328 0.000000
    outer loop
      vertex -7.053423 -0.208204 49.000000
      vertex -7.053423 -0.208204 46.000000
      vertex -6.593626 -0.500000 49.000000
    endloop
  endfacet
  facet normal -0.169745 -0.267475 -0.948496
    outer loop
      vertex -7.053423 -0.208204 49.000000
      vertex -6.593626 -0.500000 49.000000
      vertex -7.265425 -0.500000 49.120227
    endloop
  endfacet
  facet normal -0.201930 -0.244091 -0.948496
    outer loop
      vertex -7.053423 -0.208204 49.000000
      vertex -7.265425 -0.500000 49.120227
      vertex -7.818360 -0.500000 49.237943
    endloop
  endfacet
  facet normal -0.201930 -0.244091 -0.948496
    outer loop
      vertex -7.818360 -0.500000 49.237943
      vertex -9.390625 -0.500000 49.572671
      vertex -7.053423 -0.208204 49.000000
    endloop
  endfacet
  facet normal -0.201930 -0.244091 -0.948496
    outer loop
      vertex -7.053423 -0.208204 49.000000
      vertex -9.390625 -0.500000 49.572671
      vertex -8.214565 0.752376 49.000000
    endloop
  endfacet
  facet normal 0.230930 -0.216858 -0.948496
    outer loop
      vertex 9.977490 -0.500000 49.715554
      vertex 9.390625 -0.500000 49.572671
      vertex 9.246159 1.850912 49.000000
    endloop
  endfacet
  facet normal 0.230930 -0.216858 -0.948496
    outer loop
      vertex 9.246159 1.850912 49.000000
      vertex 9.390625 -0.500000 49.572671
      vertex 8.214565 0.752376 49.000000
    endloop
  endfacet
  facet normal 0.201930 -0.244091 -0.948496
    outer loop
      vertex 8.214565 0.752376 49.000000
      vertex 9.390625 -0.500000 49.572671
      vertex 8.437198 -0.500000 49.369691
    endloop
  endfacet
  facet normal 0.201930 -0.244091 -0.948496
    outer loop
      vertex 8.437198 -0.500000 49.369691
      vertex 7.265425 -0.500000 49.120227
      vertex 8.214565 0.752376 49.000000
    endloop
  endfacet
  facet normal 0.201930 -0.244091 -0.948496
    outer loop
      vertex 8.214565 0.752376 49.000000
      vertex 7.265425 -0.500000 49.120227
      vertex 7.053423 -0.208204 49.000000
    endloop
  endfacet
  facet normal 0.169745 -0.267475 -0.948496
    outer loop
      vertex 7.053423 -0.208204 49.000000
      vertex 7.265425 -0.500000 49.120227
      vertex 7.068103 -0.500000 49.084913
    endloop
  endfacet
  facet normal 0.169745 -0.267475 -0.948496
    outer loop
      vertex 7.053423 -0.208204 49.000000
      vertex 7.068103 -0.500000 49.084913
      vertex 6.593626 -0.500000 49.000000
    endloop
  endfacet
  facet normal 0.535827 -0.844328 0.000000
    outer loop
      vertex 6.593626 -0.500000 49.000000
      vertex 6.593626 -0.500000 46.000000
      vertex 7.053423 -0.208204 46.000000
    endloop
  endfacet
  facet normal 0.535827 -0.844328 0.000000
    outer loop
      vertex 7.053423 -0.208204 49.000000
      vertex 6.593626 -0.500000 49.000000
      vertex 7.053423 -0.208204 46.000000
    endloop
  endfacet
  facet normal 0.230930 -0.216858 -0.948496
    outer loop
      vertex 9.977490 -0.500000 20.215554
      vertex 9.390625 -0.500000 20.072671
      vertex 9.246159 1.850912 19.500000
    endloop
  endfacet
  facet normal 0.230930 -0.216858 -0.948496
    outer loop
      vertex 9.246159 1.850912 19.500000
      vertex 9.390625 -0.500000 20.072671
      vertex 8.214565 0.752376 19.500000
    endloop
  endfacet
  facet normal 0.201930 -0.244091 -0.948496
    outer loop
      vertex 8.214565 0.752376 19.500000
      vertex 9.390625 -0.500000 20.072671
      vertex 8.437198 -0.500000 19.869691
    endloop
  endfacet
  facet normal 0.201930 -0.244091 -0.948496
    outer loop
      vertex 8.437198 -0.500000 19.869691
      vertex 7.265425 -0.500000 19.620227
      vertex 8.214565 0.752376 19.500000
    endloop
  endfacet
  facet normal 0.201930 -0.244091 -0.948496
    outer loop
      vertex 8.214565 0.752376 19.500000
      vertex 7.265425 -0.500000 19.620227
      vertex 7.053423 -0.208204 19.500000
    endloop
  endfacet
  facet normal 0.169745 -0.267475 -0.948496
    outer loop
      vertex 7.053423 -0.208204 19.500000
      vertex 7.265425 -0.500000 19.620227
      vertex 7.068103 -0.500000 19.584913
    endloop
  endfacet
  facet normal 0.169745 -0.267475 -0.948496
    outer loop
      vertex 7.053423 -0.208204 19.500000
      vertex 7.068103 -0.500000 19.584913
      vertex 6.593626 -0.500000 19.500000
    endloop
  endfacet
  facet normal 0.535827 -0.844328 0.000000
    outer loop
      vertex 6.593626 -0.500000 19.500000
      vertex 6.593626 -0.500000 16.500000
      vertex 7.053423 -0.208204 16.500000
    endloop
  endfacet
  facet normal 0.535827 -0.844328 0.000000
    outer loop
      vertex 7.053423 -0.208204 19.500000
      vertex 6.593626 -0.500000 19.500000
      vertex 7.053423 -0.208204 16.500000
    endloop
  endfacet
  facet normal 0.637424 -0.770513 0.000000
    outer loop
      vertex 7.053423 -0.208204 19.500000
      vertex 7.053423 -0.208204 16.500000
      vertex 8.214565 0.752376 16.500000
    endloop
  endfacet
  facet normal 0.637424 -0.770513 0.000000
    outer loop
      vertex 8.214565 0.752376 19.500000
      vertex 7.053423 -0.208204 19.500000
      vertex 8.214565 0.752376 16.500000
    endloop
  endfacet
  facet normal 0.728969 -0.684547 0.000000
    outer loop
      vertex 8.214565 0.752376 19.500000
      vertex 8.214565 0.752376 16.500000
      vertex 9.246159 1.850912 16.500000
    endloop
  endfacet
  facet normal 0.728969 -0.684547 0.000000
    outer loop
      vertex 9.246159 1.850912 19.500000
      vertex 8.214565 0.752376 19.500000
      vertex 9.246159 1.850912 16.500000
    endloop
  endfacet
  facet normal 0.637424 -0.770513 0.000000
    outer loop
      vertex 7.053423 -0.208204 49.000000
      vertex 7.053423 -0.208204 46.000000
      vertex 8.214565 0.752376 46.000000
    endloop
  endfacet
  facet normal 0.637424 -0.770513 0.000000
    outer loop
      vertex 8.214565 0.752376 49.000000
      vertex 7.053423 -0.208204 49.000000
      vertex 8.214565 0.752376 46.000000
    endloop
  endfacet
  facet normal 0.728969 -0.684547 0.000000
    outer loop
      vertex 8.214565 0.752376 49.000000
      vertex 8.214565 0.752376 46.000000
      vertex 9.246159 1.850912 46.000000
    endloop
  endfacet
  facet normal 0.728969 -0.684547 0.000000
    outer loop
      vertex 9.246159 1.850912 49.000000
      vertex 8.214565 0.752376 49.000000
      vertex 9.246159 1.850912 46.000000
    endloop
  endfacet
  facet normal 1.000000 0.000000 0.000000
    outer loop
      vertex -7.884411 9.500000 0.000000
      vertex -7.884411 9.500000 65.000000
      vertex -7.884411 9.003955 65.000000
    endloop
  endfacet
  facet normal 1.000000 0.000000 0.000000
    outer loop
      vertex -7.884411 9.003955 0.000000
      vertex -7.884411 9.500000 0.000000
      vertex -7.884411 9.003955 65.000000
    endloop
  endfacet
  facet normal 0.992115 0.125333 0.000000
    outer loop
      vertex -7.884411 9.003955 0.000000
      vertex -7.884411 9.003955 65.000000
      vertex -7.760069 8.019688 65.000000
    endloop
  endfacet
  facet normal 0.992115 0.125333 0.000000
    outer loop
      vertex -7.760069 8.019688 0.000000
      vertex -7.884411 9.003955 0.000000
      vertex -7.760069 8.019688 65.000000
    endloop
  endfacet
  facet normal 0.968583 0.248690 0.000000
    outer loop
      vertex -7.760069 8.019688 0.000000
      vertex -7.760069 8.019688 65.000000
      vertex -7.513346 7.058766 65.000000
    endloop
  endfacet
  facet normal 0.968583 0.248690 0.000000
    outer loop
      vertex -7.513346 7.058766 0.000000
      vertex -7.760069 8.019688 0.000000
      vertex -7.513346 7.058766 65.000000
    endloop
  endfacet
  facet normal 0.929777 0.368124 0.000000
    outer loop
      vertex -7.513346 7.058766 0.000000
      vertex -7.513346 7.058766 65.000000
      vertex -7.148134 6.136344 65.000000
    endloop
  endfacet
  facet normal 0.929777 0.368124 0.000000
    outer loop
      vertex -7.148134 6.136344 0.000000
      vertex -7.513346 7.058766 0.000000
      vertex -7.148134 6.136344 65.000000
    endloop
  endfacet
  facet normal 0.876307 0.481753 0.000000
    outer loop
      vertex -7.148134 6.136344 0.000000
      vertex -7.148134 6.136344 65.000000
      vertex -6.670191 5.266968 65.000000
    endloop
  endfacet
  facet normal 0.876307 0.481753 0.000000
    outer loop
      vertex -6.670191 5.266968 0.000000
      vertex -7.148134 6.136344 0.000000
      vertex -6.670191 5.266968 65.000000
    endloop
  endfacet
  facet normal 0.809017 0.587785 0.000000
    outer loop
      vertex -6.670191 5.266968 0.000000
      vertex -6.670191 5.266968 65.000000
      vertex -6.087055 4.464350 65.000000
    endloop
  endfacet
  facet normal 0.809017 0.587785 0.000000
    outer loop
      vertex -6.087055 4.464350 0.000000
      vertex -6.670191 5.266968 0.000000
      vertex -6.087055 4.464350 65.000000
    endloop
  endfacet
  facet normal 0.728968 0.684548 -0.000000
    outer loop
      vertex -5.651001 4.000000 2.000000
      vertex -5.651001 4.000000 0.000000
      vertex -6.087055 4.464350 0.000000
    endloop
  endfacet
  facet normal 0.728968 0.684548 -0.000000
    outer loop
      vertex -5.651001 4.000000 63.000000
      vertex -5.651001 4.000000 38.000000
      vertex -6.087055 4.464350 65.000000
    endloop
  endfacet
  facet normal 0.728968 0.684548 -0.000000
    outer loop
      vertex -6.087055 4.464350 65.000000
      vertex -5.651001 4.000000 2.000000
      vertex -6.087055 4.464350 0.000000
    endloop
  endfacet
  facet normal 0.728968 0.684548 -0.000000
    outer loop
      vertex -5.651001 4.000000 38.000000
      vertex -5.651001 4.000000 36.000000
      vertex -6.087055 4.464350 65.000000
    endloop
  endfacet
  facet normal 0.728968 0.684548 -0.000000
    outer loop
      vertex -5.651001 4.000000 65.000000
      vertex -5.651001 4.000000 63.000000
      vertex -6.087055 4.464350 65.000000
    endloop
  endfacet
  facet normal 0.728968 0.684548 0.000000
    outer loop
      vertex -5.407922 3.741148 29.000000
      vertex -5.651001 4.000000 29.000000
      vertex -5.407922 3.741148 36.000000
    endloop
  endfacet
  facet normal 0.728968 0.684548 0.000000
    outer loop
      vertex -5.407922 3.741148 63.000000
      vertex -5.651001 4.000000 38.000000
      vertex -5.651001 4.000000 63.000000
    endloop
  endfacet
  facet normal 0.728968 0.684548 -0.000000
    outer loop
      vertex -5.651001 4.000000 36.000000
      vertex -5.651001 4.000000 29.000000
      vertex -6.087055 4.464350 65.000000
    endloop
  endfacet
  facet normal 0.728968 0.684548 -0.000000
    outer loop
      vertex -5.651001 4.000000 29.000000
      vertex -5.651001 4.000000 27.000000
      vertex -6.087055 4.464350 65.000000
    endloop
  endfacet
  facet normal 0.728968 0.684548 -0.000000
    outer loop
      vertex -5.651001 4.000000 27.000000
      vertex -5.407922 3.741148 27.000000
      vertex -5.651001 4.000000 2.000000
    endloop
  endfacet
  facet normal 0.728968 0.684548 -0.000000
    outer loop
      vertex -5.651001 4.000000 27.000000
      vertex -5.651001 4.000000 2.000000
      vertex -6.087055 4.464350 65.000000
    endloop
  endfacet
  facet normal 0.728968 0.684548 -0.000000
    outer loop
      vertex -5.651001 4.000000 36.000000
      vertex -5.407922 3.741148 36.000000
      vertex -5.651001 4.000000 29.000000
    endloop
  endfacet
  facet normal 0.728968 0.684548 0.000000
    outer loop
      vertex -5.407922 3.741148 38.000000
      vertex -5.651001 4.000000 38.000000
      vertex -5.407922 3.741148 63.000000
    endloop
  endfacet
  facet normal 0.728968 0.684548 0.000000
    outer loop
      vertex -5.407922 3.741148 2.000000
      vertex -5.651001 4.000000 2.000000
      vertex -5.407922 3.741148 27.000000
    endloop
  endfacet
  facet normal 0.000000 1.000000 0.000000
    outer loop
      vertex 5.651001 4.000000 63.000000
      vertex -5.651001 4.000000 63.000000
      vertex 5.651001 4.000000 65.000000
    endloop
  endfacet
  facet normal 0.000000 1.000000 0.000000
    outer loop
      vertex 5.651001 4.000000 65.000000
      vertex -5.651001 4.000000 63.000000
      vertex -5.651001 4.000000 65.000000
    endloop
  endfacet
  facet normal -0.728968 0.684548 0.000000
    outer loop
      vertex 5.407922 3.741148 36.000000
      vertex 5.651001 4.000000 29.000000
      vertex 5.407922 3.741148 29.000000
    endloop
  endfacet
  facet normal -0.728968 0.684548 0.000000
    outer loop
      vertex 5.651001 4.000000 36.000000
      vertex 5.651001 4.000000 29.000000
      vertex 5.407922 3.741148 36.000000
    endloop
  endfacet
  facet normal -0.728968 0.684548 0.000000
    outer loop
      vertex 5.651001 4.000000 27.000000
      vertex 5.651001 4.000000 29.000000
      vertex 6.087055 4.464350 65.000000
    endloop
  endfacet
  facet normal -0.728968 0.684548 0.000000
    outer loop
      vertex 5.651001 4.000000 29.000000
      vertex 5.651001 4.000000 36.000000
      vertex 6.087055 4.464350 65.000000
    endloop
  endfacet
  facet normal -0.728968 0.684548 0.000000
    outer loop
      vertex 5.407922 3.741148 63.000000
      vertex 5.651001 4.000000 38.000000
      vertex 5.407922 3.741148 38.000000
    endloop
  endfacet
  facet normal -0.728968 0.684548 0.000000
    outer loop
      vertex 5.651001 4.000000 63.000000
      vertex 5.651001 4.000000 38.000000
      vertex 5.407922 3.741148 63.000000
    endloop
  endfacet
  facet normal -0.728968 0.684548 0.000000
    outer loop
      vertex 5.651001 4.000000 36.000000
      vertex 5.651001 4.000000 38.000000
      vertex 6.087055 4.464350 65.000000
    endloop
  endfacet
  facet normal -0.728968 0.684548 0.000000
    outer loop
      vertex 6.087055 4.464350 65.000000
      vertex 5.651001 4.000000 63.000000
      vertex 5.651001 4.000000 65.000000
    endloop
  endfacet
  facet normal -0.728968 0.684548 0.000000
    outer loop
      vertex 5.651001 4.000000 38.000000
      vertex 5.651001 4.000000 63.000000
      vertex 6.087055 4.464350 65.000000
    endloop
  endfacet
  facet normal -0.728968 0.684548 0.000000
    outer loop
      vertex 5.651001 4.000000 27.000000
      vertex 6.087055 4.464350 65.000000
      vertex 6.087055 4.464350 0.000000
    endloop
  endfacet
  facet normal -0.728968 0.684548 -0.000000
    outer loop
      vertex 5.651001 4.000000 27.000000
      vertex 6.087055 4.464350 0.000000
      vertex 5.407922 3.741148 27.000000
    endloop
  endfacet
  facet normal -0.728968 0.684548 0.000000
    outer loop
      vertex 6.087055 4.464350 0.000000
      vertex 5.651001 4.000000 0.000000
      vertex 5.651001 4.000000 2.000000
    endloop
  endfacet
  facet normal -0.728968 0.684548 0.000000
    outer loop
      vertex 6.087055 4.464350 0.000000
      vertex 5.651001 4.000000 2.000000
      vertex 5.407922 3.741148 27.000000
    endloop
  endfacet
  facet normal -0.728968 0.684548 0.000000
    outer loop
      vertex 5.407922 3.741148 2.000000
      vertex 5.407922 3.741148 27.000000
      vertex 5.651001 4.000000 2.000000
    endloop
  endfacet
  facet normal -0.809017 0.587785 0.000000
    outer loop
      vertex 6.670191 5.266968 65.000000
      vertex 6.670191 5.266968 0.000000
      vertex 6.087055 4.464350 65.000000
    endloop
  endfacet
  facet normal -0.809017 0.587785 0.000000
    outer loop
      vertex 6.087055 4.464350 65.000000
      vertex 6.670191 5.266968 0.000000
      vertex 6.087055 4.464350 0.000000
    endloop
  endfacet
  facet normal -0.876307 0.481753 0.000000
    outer loop
      vertex 7.148134 6.136344 65.000000
      vertex 7.148134 6.136344 0.000000
      vertex 6.670191 5.266968 65.000000
    endloop
  endfacet
  facet normal -0.876307 0.481753 0.000000
    outer loop
      vertex 6.670191 5.266968 65.000000
      vertex 7.148134 6.136344 0.000000
      vertex 6.670191 5.266968 0.000000
    endloop
  endfacet
  facet normal -0.929777 0.368124 0.000000
    outer loop
      vertex 7.513346 7.058766 65.000000
      vertex 7.513346 7.058766 0.000000
      vertex 7.148134 6.136344 65.000000
    endloop
  endfacet
  facet normal -0.929777 0.368124 0.000000
    outer loop
      vertex 7.148134 6.136344 65.000000
      vertex 7.513346 7.058766 0.000000
      vertex 7.148134 6.136344 0.000000
    endloop
  endfacet
  facet normal -0.968583 0.248690 0.000000
    outer loop
      vertex 7.760069 8.019688 65.000000
      vertex 7.760069 8.019688 0.000000
      vertex 7.513346 7.058766 65.000000
    endloop
  endfacet
  facet normal -0.968583 0.248690 0.000000
    outer loop
      vertex 7.513346 7.058766 65.000000
      vertex 7.760069 8.019688 0.000000
      vertex 7.513346 7.058766 0.000000
    endloop
  endfacet
  facet normal -0.992115 0.125333 0.000000
    outer loop
      vertex 7.884411 9.003955 65.000000
      vertex 7.884411 9.003955 0.000000
      vertex 7.760069 8.019688 65.000000
    endloop
  endfacet
  facet normal -0.992115 0.125333 0.000000
    outer loop
      vertex 7.760069 8.019688 65.000000
      vertex 7.884411 9.003955 0.000000
      vertex 7.760069 8.019688 0.000000
    endloop
  endfacet
  facet normal -1.000000 0.000000 0.000000
    outer loop
      vertex 7.884411 9.500000 65.000000
      vertex 7.884411 9.500000 0.000000
      vertex 7.884411 9.003955 65.000000
    endloop
  endfacet
  facet normal -1.000000 0.000000 0.000000
    outer loop
      vertex 7.884411 9.003955 65.000000
      vertex 7.884411 9.500000 0.000000
      vertex 7.884411 9.003955 0.000000
    endloop
  endfacet
  facet normal 0.000000 1.000000 0.000000
    outer loop
      vertex 5.651001 4.000000 0.000000
      vertex -5.651001 4.000000 0.000000
      vertex 5.651001 4.000000 2.000000
    endloop
  endfacet
  facet normal 0.000000 1.000000 0.000000
    outer loop
      vertex 5.651001 4.000000 2.000000
      vertex -5.651001 4.000000 0.000000
      vertex -5.651001 4.000000 2.000000
    endloop
  endfacet
  facet normal -0.637424 -0.770513 0.000000
    outer loop
      vertex -8.214565 0.752376 46.000000
      vertex -7.053423 -0.208204 46.000000
      vertex -7.053423 -0.208204 49.000000
    endloop
  endfacet
  facet normal -0.637424 -0.770513 0.000000
    outer loop
      vertex -8.214565 0.752376 49.000000
      vertex -8.214565 0.752376 46.000000
      vertex -7.053423 -0.208204 49.000000
    endloop
  endfacet
  facet normal -0.728969 -0.684547 -0.000000
    outer loop
      vertex -8.214565 0.752376 46.000000
      vertex -8.214565 0.752376 49.000000
      vertex -9.246159 1.850912 46.000000
    endloop
  endfacet
  facet normal -0.728969 -0.684547 -0.000000
    outer loop
      vertex -9.246159 1.850912 46.000000
      vertex -8.214565 0.752376 49.000000
      vertex -9.246159 1.850912 49.000000
    endloop
  endfacet
  facet normal -0.637424 -0.770513 0.000000
    outer loop
      vertex -8.214565 0.752376 16.500000
      vertex -7.053423 -0.208204 16.500000
      vertex -7.053423 -0.208204 19.500000
    endloop
  endfacet
  facet normal -0.637424 -0.770513 0.000000
    outer loop
      vertex -8.214565 0.752376 19.500000
      vertex -8.214565 0.752376 16.500000
      vertex -7.053423 -0.208204 19.500000
    endloop
  endfacet
  facet normal -0.728969 -0.684547 -0.000000
    outer loop
      vertex -8.214565 0.752376 16.500000
      vertex -8.214565 0.752376 19.500000
      vertex -9.246159 1.850912 16.500000
    endloop
  endfacet
  facet normal -0.728969 -0.684547 -0.000000
    outer loop
      vertex -9.246159 1.850912 16.500000
      vertex -8.214565 0.752376 19.500000
      vertex -9.246159 1.850912 19.500000
    endloop
  endfacet
  facet normal 0.000000 0.000000 1.000000
    outer loop
      vertex -0.990133 1.662294 2.000000
      vertex -0.000000 1.600000 2.000000
      vertex 0.990133 1.662294 2.000000
    endloop
  endfacet
  facet normal 0.000000 0.000000 1.000000
    outer loop
      vertex 2.908184 2.154766 2.000000
      vertex -0.990133 1.662294 2.000000
      vertex 1.964650 1.848193 2.000000
    endloop
  endfacet
  facet normal 0.000000 0.000000 1.000000
    outer loop
      vertex 1.964650 1.848193 2.000000
      vertex -0.990133 1.662294 2.000000
      vertex 0.990133 1.662294 2.000000
    endloop
  endfacet
  facet normal 0.000000 0.000000 1.000000
    outer loop
      vertex 3.805854 2.577177 2.000000
      vertex -0.990133 1.662294 2.000000
      vertex 2.908184 2.154766 2.000000
    endloop
  endfacet
  facet normal 0.000000 0.000000 1.000000
    outer loop
      vertex 4.643503 3.108766 2.000000
      vertex -0.990133 1.662294 2.000000
      vertex 3.805854 2.577177 2.000000
    endloop
  endfacet
  facet normal 0.000000 0.000000 1.000000
    outer loop
      vertex 5.407922 3.741148 2.000000
      vertex -0.990133 1.662294 2.000000
      vertex 4.643503 3.108766 2.000000
    endloop
  endfacet
  facet normal 0.000000 0.000000 1.000000
    outer loop
      vertex 5.651001 4.000000 2.000000
      vertex -0.990133 1.662294 2.000000
      vertex 5.407922 3.741148 2.000000
    endloop
  endfacet
  facet normal 0.000000 0.000000 1.000000
    outer loop
      vertex -5.651001 4.000000 2.000000
      vertex -0.990133 1.662294 2.000000
      vertex 5.651001 4.000000 2.000000
    endloop
  endfacet
  facet normal 0.000000 0.000000 1.000000
    outer loop
      vertex -5.407922 3.741148 2.000000
      vertex -0.990133 1.662294 2.000000
      vertex -5.651001 4.000000 2.000000
    endloop
  endfacet
  facet normal 0.000000 0.000000 1.000000
    outer loop
      vertex -4.643503 3.108766 2.000000
      vertex -0.990133 1.662294 2.000000
      vertex -5.407922 3.741148 2.000000
    endloop
  endfacet
  facet normal 0.000000 0.000000 1.000000
    outer loop
      vertex -3.805854 2.577177 2.000000
      vertex -0.990133 1.662294 2.000000
      vertex -4.643503 3.108766 2.000000
    endloop
  endfacet
  facet normal 0.000000 0.000000 1.000000
    outer loop
      vertex -2.908184 2.154766 2.000000
      vertex -0.990133 1.662294 2.000000
      vertex -3.805854 2.577177 2.000000
    endloop
  endfacet
  facet normal 0.000000 0.000000 1.000000
    outer loop
      vertex -1.964650 1.848193 2.000000
      vertex -0.990133 1.662294 2.000000
      vertex -2.908184 2.154766 2.000000
    endloop
  endfacet
  facet normal 0.637424 0.770513 -0.000000
    outer loop
      vertex -5.407922 3.741148 27.000000
      vertex -4.643503 3.108766 27.000000
      vertex -5.407922 3.741148 2.000000
    endloop
  endfacet
  facet normal 0.637424 0.770513 0.000000
    outer loop
      vertex -5.407922 3.741148 2.000000
      vertex -4.643503 3.108766 27.000000
      vertex -4.643503 3.108766 2.000000
    endloop
  endfacet
  facet normal 0.000000 -0.000000 -1.000000
    outer loop
      vertex -0.000000 1.600000 27.000000
      vertex -0.990133 1.662294 27.000000
      vertex 0.990133 1.662294 27.000000
    endloop
  endfacet
  facet normal 0.000000 0.000000 -1.000000
    outer loop
      vertex 0.990133 1.662294 27.000000
      vertex -0.990133 1.662294 27.000000
      vertex -1.964650 1.848193 27.000000
    endloop
  endfacet
  facet normal 0.000000 0.000000 -1.000000
    outer loop
      vertex 0.990133 1.662294 27.000000
      vertex -1.964650 1.848193 27.000000
      vertex -2.908184 2.154766 27.000000
    endloop
  endfacet
  facet normal 0.000000 0.000000 -1.000000
    outer loop
      vertex 0.990133 1.662294 27.000000
      vertex -2.908184 2.154766 27.000000
      vertex -3.805854 2.577177 27.000000
    endloop
  endfacet
  facet normal 0.000000 0.000000 -1.000000
    outer loop
      vertex 0.990133 1.662294 27.000000
      vertex -3.805854 2.577177 27.000000
      vertex -4.643503 3.108766 27.000000
    endloop
  endfacet
  facet normal 0.000000 0.000000 -1.000000
    outer loop
      vertex 0.990133 1.662294 27.000000
      vertex -4.643503 3.108766 27.000000
      vertex -5.407922 3.741148 27.000000
    endloop
  endfacet
  facet normal 0.000000 0.000000 -1.000000
    outer loop
      vertex 0.990133 1.662294 27.000000
      vertex -5.407922 3.741148 27.000000
      vertex -5.651001 4.000000 27.000000
    endloop
  endfacet
  facet normal 0.000000 -0.000000 -1.000000
    outer loop
      vertex 0.990133 1.662294 27.000000
      vertex -5.651001 4.000000 27.000000
      vertex 5.651001 4.000000 27.000000
    endloop
  endfacet
  facet normal 0.000000 0.000000 -1.000000
    outer loop
      vertex 0.990133 1.662294 27.000000
      vertex 5.651001 4.000000 27.000000
      vertex 5.407922 3.741148 27.000000
    endloop
  endfacet
  facet normal 0.000000 0.000000 -1.000000
    outer loop
      vertex 0.990133 1.662294 27.000000
      vertex 5.407922 3.741148 27.000000
      vertex 4.643503 3.108766 27.000000
    endloop
  endfacet
  facet normal 0.000000 0.000000 -1.000000
    outer loop
      vertex 0.990133 1.662294 27.000000
      vertex 4.643503 3.108766 27.000000
      vertex 3.805854 2.577177 27.000000
    endloop
  endfacet
  facet normal 0.000000 0.000000 -1.000000
    outer loop
      vertex 0.990133 1.662294 27.000000
      vertex 3.805854 2.577177 27.000000
      vertex 2.908184 2.154766 27.000000
    endloop
  endfacet
  facet normal 0.000000 0.000000 -1.000000
    outer loop
      vertex 0.990133 1.662294 27.000000
      vertex 2.908184 2.154766 27.000000
      vertex 1.964650 1.848193 27.000000
    endloop
  endfacet
  facet normal 0.000000 1.000000 0.000000
    outer loop
      vertex 5.651001 4.000000 27.000000
      vertex -5.651001 4.000000 27.000000
      vertex 5.651001 4.000000 29.000000
    endloop
  endfacet
  facet normal 0.000000 1.000000 0.000000
    outer loop
      vertex 5.651001 4.000000 29.000000
      vertex -5.651001 4.000000 27.000000
      vertex -5.651001 4.000000 29.000000
    endloop
  endfacet
  facet normal 0.000000 0.000000 1.000000
    outer loop
      vertex -0.990133 1.662294 29.000000
      vertex -0.000000 1.600000 29.000000
      vertex 0.990133 1.662294 29.000000
    endloop
  endfacet
  facet normal 0.000000 0.000000 1.000000
    outer loop
      vertex 2.908184 2.154766 29.000000
      vertex -0.990133 1.662294 29.000000
      vertex 1.964650 1.848193 29.000000
    endloop
  endfacet
  facet normal 0.000000 0.000000 1.000000
    outer loop
      vertex 1.964650 1.848193 29.000000
      vertex -0.990133 1.662294 29.000000
      vertex 0.990133 1.662294 29.000000
    endloop
  endfacet
  facet normal 0.000000 0.000000 1.000000
    outer loop
      vertex 3.805854 2.577177 29.000000
      vertex -0.990133 1.662294 29.000000
      vertex 2.908184 2.154766 29.000000
    endloop
  endfacet
  facet normal 0.000000 0.000000 1.000000
    outer loop
      vertex 4.643503 3.108766 29.000000
      vertex -0.990133 1.662294 29.000000
      vertex 3.805854 2.577177 29.000000
    endloop
  endfacet
  facet normal 0.000000 0.000000 1.000000
    outer loop
      vertex 5.407922 3.741148 29.000000
      vertex -0.990133 1.662294 29.000000
      vertex 4.643503 3.108766 29.000000
    endloop
  endfacet
  facet normal 0.000000 0.000000 1.000000
    outer loop
      vertex 5.651001 4.000000 29.000000
      vertex -0.990133 1.662294 29.000000
      vertex 5.407922 3.741148 29.000000
    endloop
  endfacet
  facet normal 0.000000 0.000000 1.000000
    outer loop
      vertex -5.651001 4.000000 29.000000
      vertex -0.990133 1.662294 29.000000
      vertex 5.651001 4.000000 29.000000
    endloop
  endfacet
  facet normal 0.000000 0.000000 1.000000
    outer loop
      vertex -5.407922 3.741148 29.000000
      vertex -0.990133 1.662294 29.000000
      vertex -5.651001 4.000000 29.000000
    endloop
  endfacet
  facet normal 0.000000 0.000000 1.000000
    outer loop
      vertex -4.643503 3.108766 29.000000
      vertex -0.990133 1.662294 29.000000
      vertex -5.407922 3.741148 29.000000
    endloop
  endfacet
  facet normal 0.000000 0.000000 1.000000
    outer loop
      vertex -3.805854 2.577177 29.000000
      vertex -0.990133 1.662294 29.000000
      vertex -4.643503 3.108766 29.000000
    endloop
  endfacet
  facet normal 0.000000 0.000000 1.000000
    outer loop
      vertex -2.908184 2.154766 29.000000
      vertex -0.990133 1.662294 29.000000
      vertex -3.805854 2.577177 29.000000
    endloop
  endfacet
  facet normal 0.000000 0.000000 1.000000
    outer loop
      vertex -1.964650 1.848193 29.000000
      vertex -0.990133 1.662294 29.000000
      vertex -2.908184 2.154766 29.000000
    endloop
  endfacet
  facet normal 0.637424 0.770513 -0.000000
    outer loop
      vertex -5.407922 3.741148 36.000000
      vertex -4.643503 3.108766 36.000000
      vertex -5.407922 3.741148 29.000000
    endloop
  endfacet
  facet normal 0.637424 0.770513 0.000000
    outer loop
      vertex -5.407922 3.741148 29.000000
      vertex -4.643503 3.108766 36.000000
      vertex -4.643503 3.108766 29.000000
    endloop
  endfacet
  facet normal 0.000000 -0.000000 -1.000000
    outer loop
      vertex -0.000000 1.600000 36.000000
      vertex -0.990133 1.662294 36.000000
      vertex 0.990133 1.662294 36.000000
    endloop
  endfacet
  facet normal 0.000000 0.000000 -1.000000
    outer loop
      vertex 0.990133 1.662294 36.000000
      vertex -0.990133 1.662294 36.000000
      vertex -1.964650 1.848193 36.000000
    endloop
  endfacet
  facet normal 0.000000 0.000000 -1.000000
    outer loop
      vertex 0.990133 1.662294 36.000000
      vertex -1.964650 1.848193 36.000000
      vertex -2.908184 2.154766 36.000000
    endloop
  endfacet
  facet normal 0.000000 0.000000 -1.000000
    outer loop
      vertex 0.990133 1.662294 36.000000
      vertex -2.908184 2.154766 36.000000
      vertex -3.805854 2.577177 36.000000
    endloop
  endfacet
  facet normal 0.000000 0.000000 -1.000000
    outer loop
      vertex 0.990133 1.662294 36.000000
      vertex -3.805854 2.577177 36.000000
      vertex -4.643503 3.108766 36.000000
    endloop
  endfacet
  facet normal 0.000000 0.000000 -1.000000
    outer loop
      vertex 0.990133 1.662294 36.000000
      vertex -4.643503 3.108766 36.000000
      vertex -5.407922 3.741148 36.000000
    endloop
  endfacet
  facet normal 0.000000 0.000000 -1.000000
    outer loop
      vertex 0.990133 1.662294 36.000000
      vertex -5.407922 3.741148 36.000000
      vertex -5.651001 4.000000 36.000000
    endloop
  endfacet
  facet normal 0.000000 -0.000000 -1.000000
    outer loop
      vertex 0.990133 1.662294 36.000000
      vertex -5.651001 4.000000 36.000000
      vertex 5.651001 4.000000 36.000000
    endloop
  endfacet
  facet normal 0.000000 0.000000 -1.000000
    outer loop
      vertex 0.990133 1.662294 36.000000
      vertex 5.651001 4.000000 36.000000
      vertex 5.407922 3.741148 36.000000
    endloop
  endfacet
  facet normal 0.000000 0.000000 -1.000000
    outer loop
      vertex 0.990133 1.662294 36.000000
      vertex 5.407922 3.741148 36.000000
      vertex 4.643503 3.108766 36.000000
    endloop
  endfacet
  facet normal 0.000000 0.000000 -1.000000
    outer loop
      vertex 0.990133 1.662294 36.000000
      vertex 4.643503 3.108766 36.000000
      vertex 3.805854 2.577177 36.000000
    endloop
  endfacet
  facet normal 0.000000 0.000000 -1.000000
    outer loop
      vertex 0.990133 1.662294 36.000000
      vertex 3.805854 2.577177 36.000000
      vertex 2.908184 2.154766 36.000000
    endloop
  endfacet
  facet normal 0.000000 0.000000 -1.000000
    outer loop
      vertex 0.990133 1.662294 36.000000
      vertex 2.908184 2.154766 36.000000
      vertex 1.964650 1.848193 36.000000
    endloop
  endfacet
  facet normal 0.000000 1.000000 0.000000
    outer loop
      vertex 5.651001 4.000000 36.000000
      vertex -5.651001 4.000000 36.000000
      vertex 5.651001 4.000000 38.000000
    endloop
  endfacet
  facet normal 0.000000 1.000000 0.000000
    outer loop
      vertex 5.651001 4.000000 38.000000
      vertex -5.651001 4.000000 36.000000
      vertex -5.651001 4.000000 38.000000
    endloop
  endfacet
  facet normal 0.000000 0.000000 1.000000
    outer loop
      vertex -0.990133 1.662294 38.000000
      vertex -0.000000 1.600000 38.000000
      vertex 0.990133 1.662294 38.000000
    endloop
  endfacet
  facet normal 0.000000 0.000000 1.000000
    outer loop
      vertex 2.908184 2.154766 38.000000
      vertex -0.990133 1.662294 38.000000
      vertex 1.964650 1.848193 38.000000
    endloop
  endfacet
  facet normal 0.000000 0.000000 1.000000
    outer loop
      vertex 1.964650 1.848193 38.000000
      vertex -0.990133 1.662294 38.000000
      vertex 0.990133 1.662294 38.000000
    endloop
  endfacet
  facet normal 0.000000 0.000000 1.000000
    outer loop
      vertex 3.805854 2.577177 38.000000
      vertex -0.990133 1.662294 38.000000
      vertex 2.908184 2.154766 38.000000
    endloop
  endfacet
  facet normal 0.000000 0.000000 1.000000
    outer loop
      vertex 4.643503 3.108766 38.000000
      vertex -0.990133 1.662294 38.000000
      vertex 3.805854 2.577177 38.000000
    endloop
  endfacet
  facet normal 0.000000 0.000000 1.000000
    outer loop
      vertex 5.407922 3.741148 38.000000
      vertex -0.990133 1.662294 38.000000
      vertex 4.643503 3.108766 38.000000
    endloop
  endfacet
  facet normal 0.000000 0.000000 1.000000
    outer loop
      vertex 5.651001 4.000000 38.000000
      vertex -0.990133 1.662294 38.000000
      vertex 5.407922 3.741148 38.000000
    endloop
  endfacet
  facet normal 0.000000 0.000000 1.000000
    outer loop
      vertex -5.651001 4.000000 38.000000
      vertex -0.990133 1.662294 38.000000
      vertex 5.651001 4.000000 38.000000
    endloop
  endfacet
  facet normal 0.000000 0.000000 1.000000
    outer loop
      vertex -5.407922 3.741148 38.000000
      vertex -0.990133 1.662294 38.000000
      vertex -5.651001 4.000000 38.000000
    endloop
  endfacet
  facet normal 0.000000 0.000000 1.000000
    outer loop
      vertex -4.643503 3.108766 38.000000
      vertex -0.990133 1.662294 38.000000
      vertex -5.407922 3.741148 38.000000
    endloop
  endfacet
  facet normal 0.000000 0.000000 1.000000
    outer loop
      vertex -3.805854 2.577177 38.000000
      vertex -0.990133 1.662294 38.000000
      vertex -4.643503 3.108766 38.000000
    endloop
  endfacet
  facet normal 0.000000 0.000000 1.000000
    outer loop
      vertex -2.908184 2.154766 38.000000
      vertex -0.990133 1.662294 38.000000
      vertex -3.805854 2.577177 38.000000
    endloop
  endfacet
  facet normal 0.000000 0.000000 1.000000
    outer loop
      vertex -1.964650 1.848193 38.000000
      vertex -0.990133 1.662294 38.000000
      vertex -2.908184 2.154766 38.000000
    endloop
  endfacet
  facet normal 0.637424 0.770513 -0.000000
    outer loop
      vertex -5.407922 3.741148 63.000000
      vertex -4.643503 3.108766 63.000000
      vertex -5.407922 3.741148 38.000000
    endloop
  endfacet
  facet normal 0.637424 0.770513 0.000000
    outer loop
      vertex -5.407922 3.741148 38.000000
      vertex -4.643503 3.108766 63.000000
      vertex -4.643503 3.108766 38.000000
    endloop
  endfacet
  facet normal 0.000000 -0.000000 -1.000000
    outer loop
      vertex -0.000000 1.600000 63.000000
      vertex -0.990133 1.662294 63.000000
      vertex 0.990133 1.662294 63.000000
    endloop
  endfacet
  facet normal 0.000000 0.000000 -1.000000
    outer loop
      vertex 0.990133 1.662294 63.000000
      vertex -0.990133 1.662294 63.000000
      vertex -1.964650 1.848193 63.000000
    endloop
  endfacet
  facet normal 0.000000 0.000000 -1.000000
    outer loop
      vertex 0.990133 1.662294 63.000000
      vertex -1.964650 1.848193 63.000000
      vertex -2.908184 2.154766 63.000000
    endloop
  endfacet
  facet normal 0.000000 0.000000 -1.000000
    outer loop
      vertex 0.990133 1.662294 63.000000
      vertex -2.908184 2.154766 63.000000
      vertex -3.805854 2.577177 63.000000
    endloop
  endfacet
  facet normal 0.000000 0.000000 -1.000000
    outer loop
      vertex 0.990133 1.662294 63.000000
      vertex -3.805854 2.577177 63.000000
      vertex -4.643503 3.108766 63.000000
    endloop
  endfacet
  facet normal 0.000000 0.000000 -1.000000
    outer loop
      vertex 0.990133 1.662294 63.000000
      vertex -4.643503 3.108766 63.000000
      vertex -5.407922 3.741148 63.000000
    endloop
  endfacet
  facet normal 0.000000 0.000000 -1.000000
    outer loop
      vertex 0.990133 1.662294 63.000000
      vertex -5.407922 3.741148 63.000000
      vertex -5.651001 4.000000 63.000000
    endloop
  endfacet
  facet normal 0.000000 -0.000000 -1.000000
    outer loop
      vertex 0.990133 1.662294 63.000000
      vertex -5.651001 4.000000 63.000000
      vertex 5.651001 4.000000 63.000000
    endloop
  endfacet
  facet normal 0.000000 0.000000 -1.000000
    outer loop
      vertex 0.990133 1.662294 63.000000
      vertex 5.651001 4.000000 63.000000
      vertex 5.407922 3.741148 63.000000
    endloop
  endfacet
  facet normal 0.000000 0.000000 -1.000000
    outer loop
      vertex 0.990133 1.662294 63.000000
      vertex 5.407922 3.741148 63.000000
      vertex 4.643503 3.108766 63.000000
    endloop
  endfacet
  facet normal 0.000000 0.000000 -1.000000
    outer loop
      vertex 0.990133 1.662294 63.000000
      vertex 4.643503 3.108766 63.000000
      vertex 3.805854 2.577177 63.000000
    endloop
  endfacet
  facet normal 0.000000 0.000000 -1.000000
    outer loop
      vertex 0.990133 1.662294 63.000000
      vertex 3.805854 2.577177 63.000000
      vertex 2.908184 2.154766 63.000000
    endloop
  endfacet
  facet normal 0.000000 0.000000 -1.000000
    outer loop
      vertex 0.990133 1.662294 63.000000
      vertex 2.908184 2.154766 63.000000
      vertex 1.964650 1.848193 63.000000
    endloop
  endfacet
  facet normal -0.637424 0.770513 0.000000
    outer loop
      vertex 5.407922 3.741148 27.000000
      vertex 5.407922 3.741148 2.000000
      vertex 4.643503 3.108766 27.000000
    endloop
  endfacet
  facet normal -0.637424 0.770513 0.000000
    outer loop
      vertex 4.643503 3.108766 27.000000
      vertex 5.407922 3.741148 2.000000
      vertex 4.643503 3.108766 2.000000
    endloop
  endfacet
  facet normal -0.637424 0.770513 0.000000
    outer loop
      vertex 5.407922 3.741148 63.000000
      vertex 5.407922 3.741148 38.000000
      vertex 4.643503 3.108766 63.000000
    endloop
  endfacet
  facet normal -0.637424 0.770513 0.000000
    outer loop
      vertex 4.643503 3.108766 63.000000
      vertex 5.407922 3.741148 38.000000
      vertex 4.643503 3.108766 38.000000
    endloop
  endfacet
  facet normal -0.637424 0.770513 0.000000
    outer loop
      vertex 5.407922 3.741148 36.000000
      vertex 5.407922 3.741148 29.000000
      vertex 4.643503 3.108766 36.000000
    endloop
  endfacet
  facet normal -0.637424 0.770513 0.000000
    outer loop
      vertex 4.643503 3.108766 36.000000
      vertex 5.407922 3.741148 29.000000
      vertex 4.643503 3.108766 29.000000
    endloop
  endfacet
  facet normal 0.187381 0.982287 -0.000000
    outer loop
      vertex -1.964650 1.848193 27.000000
      vertex -0.990133 1.662294 27.000000
      vertex -1.964650 1.848193 2.000000
    endloop
  endfacet
  facet normal 0.187381 0.982287 0.000000
    outer loop
      vertex -1.964650 1.848193 2.000000
      vertex -0.990133 1.662294 27.000000
      vertex -0.990133 1.662294 2.000000
    endloop
  endfacet
  facet normal 0.062791 0.998027 -0.000000
    outer loop
      vertex -0.990133 1.662294 27.000000
      vertex -0.000000 1.600000 27.000000
      vertex -0.990133 1.662294 2.000000
    endloop
  endfacet
  facet normal 0.062791 0.998027 0.000000
    outer loop
      vertex -0.990133 1.662294 2.000000
      vertex -0.000000 1.600000 27.000000
      vertex -0.000000 1.600000 2.000000
    endloop
  endfacet
  facet normal 0.309017 0.951056 -0.000000
    outer loop
      vertex -2.908184 2.154766 27.000000
      vertex -1.964650 1.848193 27.000000
      vertex -2.908184 2.154766 2.000000
    endloop
  endfacet
  facet normal 0.309017 0.951056 0.000000
    outer loop
      vertex -2.908184 2.154766 2.000000
      vertex -1.964650 1.848193 27.000000
      vertex -1.964650 1.848193 2.000000
    endloop
  endfacet
  facet normal 0.425779 0.904827 -0.000000
    outer loop
      vertex -3.805854 2.577177 27.000000
      vertex -2.908184 2.154766 27.000000
      vertex -3.805854 2.577177 2.000000
    endloop
  endfacet
  facet normal 0.425779 0.904827 0.000000
    outer loop
      vertex -3.805854 2.577177 2.000000
      vertex -2.908184 2.154766 27.000000
      vertex -2.908184 2.154766 2.000000
    endloop
  endfacet
  facet normal 0.535827 0.844328 -0.000000
    outer loop
      vertex -4.643503 3.108766 27.000000
      vertex -3.805854 2.577177 27.000000
      vertex -4.643503 3.108766 2.000000
    endloop
  endfacet
  facet normal 0.535827 0.844328 0.000000
    outer loop
      vertex -4.643503 3.108766 2.000000
      vertex -3.805854 2.577177 27.000000
      vertex -3.805854 2.577177 2.000000
    endloop
  endfacet
  facet normal -0.535827 0.844328 0.000000
    outer loop
      vertex 4.643503 3.108766 27.000000
      vertex 4.643503 3.108766 2.000000
      vertex 3.805854 2.577177 27.000000
    endloop
  endfacet
  facet normal -0.535827 0.844328 0.000000
    outer loop
      vertex 3.805854 2.577177 27.000000
      vertex 4.643503 3.108766 2.000000
      vertex 3.805854 2.577177 2.000000
    endloop
  endfacet
  facet normal -0.425779 0.904827 0.000000
    outer loop
      vertex 3.805854 2.577177 27.000000
      vertex 3.805854 2.577177 2.000000
      vertex 2.908184 2.154766 27.000000
    endloop
  endfacet
  facet normal -0.425779 0.904827 0.000000
    outer loop
      vertex 2.908184 2.154766 27.000000
      vertex 3.805854 2.577177 2.000000
      vertex 2.908184 2.154766 2.000000
    endloop
  endfacet
  facet normal -0.309017 0.951056 0.000000
    outer loop
      vertex 2.908184 2.154766 27.000000
      vertex 2.908184 2.154766 2.000000
      vertex 1.964650 1.848193 27.000000
    endloop
  endfacet
  facet normal -0.309017 0.951056 0.000000
    outer loop
      vertex 1.964650 1.848193 27.000000
      vertex 2.908184 2.154766 2.000000
      vertex 1.964650 1.848193 2.000000
    endloop
  endfacet
  facet normal -0.187381 0.982287 0.000000
    outer loop
      vertex 1.964650 1.848193 27.000000
      vertex 1.964650 1.848193 2.000000
      vertex 0.990133 1.662294 27.000000
    endloop
  endfacet
  facet normal -0.187381 0.982287 0.000000
    outer loop
      vertex 0.990133 1.662294 27.000000
      vertex 1.964650 1.848193 2.000000
      vertex 0.990133 1.662294 2.000000
    endloop
  endfacet
  facet normal -0.062791 0.998027 0.000000
    outer loop
      vertex 0.990133 1.662294 27.000000
      vertex 0.990133 1.662294 2.000000
      vertex -0.000000 1.600000 27.000000
    endloop
  endfacet
  facet normal -0.062791 0.998027 0.000000
    outer loop
      vertex -0.000000 1.600000 27.000000
      vertex 0.990133 1.662294 2.000000
      vertex -0.000000 1.600000 2.000000
    endloop
  endfacet
  facet normal 0.062791 0.998027 -0.000000
    outer loop
      vertex -0.990133 1.662294 36.000000
      vertex -0.000000 1.600000 36.000000
      vertex -0.990133 1.662294 29.000000
    endloop
  endfacet
  facet normal 0.062791 0.998027 0.000000
    outer loop
      vertex -0.990133 1.662294 29.000000
      vertex -0.000000 1.600000 36.000000
      vertex -0.000000 1.600000 29.000000
    endloop
  endfacet
  facet normal 0.187381 0.982287 -0.000000
    outer loop
      vertex -1.964650 1.848193 36.000000
      vertex -0.990133 1.662294 36.000000
      vertex -1.964650 1.848193 29.000000
    endloop
  endfacet
  facet normal 0.187381 0.982287 0.000000
    outer loop
      vertex -1.964650 1.848193 29.000000
      vertex -0.990133 1.662294 36.000000
      vertex -0.990133 1.662294 29.000000
    endloop
  endfacet
  facet normal 0.309017 0.951056 -0.000000
    outer loop
      vertex -2.908184 2.154766 36.000000
      vertex -1.964650 1.848193 36.000000
      vertex -2.908184 2.154766 29.000000
    endloop
  endfacet
  facet normal 0.309017 0.951056 0.000000
    outer loop
      vertex -2.908184 2.154766 29.000000
      vertex -1.964650 1.848193 36.000000
      vertex -1.964650 1.848193 29.000000
    endloop
  endfacet
  facet normal 0.425779 0.904827 -0.000000
    outer loop
      vertex -3.805854 2.577177 36.000000
      vertex -2.908184 2.154766 36.000000
      vertex -3.805854 2.577177 29.000000
    endloop
  endfacet
  facet normal 0.425779 0.904827 0.000000
    outer loop
      vertex -3.805854 2.577177 29.000000
      vertex -2.908184 2.154766 36.000000
      vertex -2.908184 2.154766 29.000000
    endloop
  endfacet
  facet normal 0.535827 0.844328 -0.000000
    outer loop
      vertex -4.643503 3.108766 36.000000
      vertex -3.805854 2.577177 36.000000
      vertex -4.643503 3.108766 29.000000
    endloop
  endfacet
  facet normal 0.535827 0.844328 0.000000
    outer loop
      vertex -4.643503 3.108766 29.000000
      vertex -3.805854 2.577177 36.000000
      vertex -3.805854 2.577177 29.000000
    endloop
  endfacet
  facet normal -0.535827 0.844328 0.000000
    outer loop
      vertex 4.643503 3.108766 36.000000
      vertex 4.643503 3.108766 29.000000
      vertex 3.805854 2.577177 36.000000
    endloop
  endfacet
  facet normal -0.535827 0.844328 0.000000
    outer loop
      vertex 3.805854 2.577177 36.000000
      vertex 4.643503 3.108766 29.000000
      vertex 3.805854 2.577177 29.000000
    endloop
  endfacet
  facet normal -0.425779 0.904827 0.000000
    outer loop
      vertex 3.805854 2.577177 36.000000
      vertex 3.805854 2.577177 29.000000
      vertex 2.908184 2.154766 36.000000
    endloop
  endfacet
  facet normal -0.425779 0.904827 0.000000
    outer loop
      vertex 2.908184 2.154766 36.000000
      vertex 3.805854 2.577177 29.000000
      vertex 2.908184 2.154766 29.000000
    endloop
  endfacet
  facet normal -0.309017 0.951056 0.000000
    outer loop
      vertex 2.908184 2.154766 36.000000
      vertex 2.908184 2.154766 29.000000
      vertex 1.964650 1.848193 36.000000
    endloop
  endfacet
  facet normal -0.309017 0.951056 0.000000
    outer loop
      vertex 1.964650 1.848193 36.000000
      vertex 2.908184 2.154766 29.000000
      vertex 1.964650 1.848193 29.000000
    endloop
  endfacet
  facet normal -0.187381 0.982287 0.000000
    outer loop
      vertex 1.964650 1.848193 36.000000
      vertex 1.964650 1.848193 29.000000
      vertex 0.990133 1.662294 36.000000
    endloop
  endfacet
  facet normal -0.187381 0.982287 0.000000
    outer loop
      vertex 0.990133 1.662294 36.000000
      vertex 1.964650 1.848193 29.000000
      vertex 0.990133 1.662294 29.000000
    endloop
  endfacet
  facet normal -0.062791 0.998027 0.000000
    outer loop
      vertex 0.990133 1.662294 36.000000
      vertex 0.990133 1.662294 29.000000
      vertex -0.000000 1.600000 36.000000
    endloop
  endfacet
  facet normal -0.062791 0.998027 0.000000
    outer loop
      vertex -0.000000 1.600000 36.000000
      vertex 0.990133 1.662294 29.000000
      vertex -0.000000 1.600000 29.000000
    endloop
  endfacet
  facet normal 0.062791 0.998027 -0.000000
    outer loop
      vertex -0.990133 1.662294 63.000000
      vertex -0.000000 1.600000 63.000000
      vertex -0.990133 1.662294 38.000000
    endloop
  endfacet
  facet normal 0.062791 0.998027 0.000000
    outer loop
      vertex -0.990133 1.662294 38.000000
      vertex -0.000000 1.600000 63.000000
      vertex -0.000000 1.600000 38.000000
    endloop
  endfacet
  facet normal 0.187381 0.982287 -0.000000
    outer loop
      vertex -1.964650 1.848193 63.000000
      vertex -0.990133 1.662294 63.000000
      vertex -1.964650 1.848193 38.000000
    endloop
  endfacet
  facet normal 0.187381 0.982287 0.000000
    outer loop
      vertex -1.964650 1.848193 38.000000
      vertex -0.990133 1.662294 63.000000
      vertex -0.990133 1.662294 38.000000
    endloop
  endfacet
  facet normal 0.309017 0.951056 -0.000000
    outer loop
      vertex -2.908184 2.154766 63.000000
      vertex -1.964650 1.848193 63.000000
      vertex -2.908184 2.154766 38.000000
    endloop
  endfacet
  facet normal 0.309017 0.951056 0.000000
    outer loop
      vertex -2.908184 2.154766 38.000000
      vertex -1.964650 1.848193 63.000000
      vertex -1.964650 1.848193 38.000000
    endloop
  endfacet
  facet normal 0.425779 0.904827 -0.000000
    outer loop
      vertex -3.805854 2.577177 63.000000
      vertex -2.908184 2.154766 63.000000
      vertex -3.805854 2.577177 38.000000
    endloop
  endfacet
  facet normal 0.425779 0.904827 0.000000
    outer loop
      vertex -3.805854 2.577177 38.000000
      vertex -2.908184 2.154766 63.000000
      vertex -2.908184 2.154766 38.000000
    endloop
  endfacet
  facet normal 0.535827 0.844328 -0.000000
    outer loop
      vertex -4.643503 3.108766 63.000000
      vertex -3.805854 2.577177 63.000000
      vertex -4.643503 3.108766 38.000000
    endloop
  endfacet
  facet normal 0.535827 0.844328 0.000000
    outer loop
      vertex -4.643503 3.108766 38.000000
      vertex -3.805854 2.577177 63.000000
      vertex -3.805854 2.577177 38.000000
    endloop
  endfacet
  facet normal -0.535827 0.844328 0.000000
    outer loop
      vertex 4.643503 3.108766 63.000000
      vertex 4.643503 3.108766 38.000000
      vertex 3.805854 2.577177 63.000000
    endloop
  endfacet
  facet normal -0.535827 0.844328 0.000000
    outer loop
      vertex 3.805854 2.577177 63.000000
      vertex 4.643503 3.108766 38.000000
      vertex 3.805854 2.577177 38.000000
    endloop
  endfacet
  facet normal -0.425779 0.904827 0.000000
    outer loop
      vertex 3.805854 2.577177 63.000000
      vertex 3.805854 2.577177 38.000000
      vertex 2.908184 2.154766 63.000000
    endloop
  endfacet
  facet normal -0.425779 0.904827 0.000000
    outer loop
      vertex 2.908184 2.154766 63.000000
      vertex 3.805854 2.577177 38.000000
      vertex 2.908184 2.154766 38.000000
    endloop
  endfacet
  facet normal -0.309017 0.951056 0.000000
    outer loop
      vertex 2.908184 2.154766 63.000000
      vertex 2.908184 2.154766 38.000000
      vertex 1.964650 1.848193 63.000000
    endloop
  endfacet
  facet normal -0.309017 0.951056 0.000000
    outer loop
      vertex 1.964650 1.848193 63.000000
      vertex 2.908184 2.154766 38.000000
      vertex 1.964650 1.848193 38.000000
    endloop
  endfacet
  facet normal -0.187381 0.982287 0.000000
    outer loop
      vertex 1.964650 1.848193 63.000000
      vertex 1.964650 1.848193 38.000000
      vertex 0.990133 1.662294 63.000000
    endloop
  endfacet
  facet normal -0.187381 0.982287 0.000000
    outer loop
      vertex 0.990133 1.662294 63.000000
      vertex 1.964650 1.848193 38.000000
      vertex 0.990133 1.662294 38.000000
    endloop
  endfacet
  facet normal -0.062791 0.998027 0.000000
    outer loop
      vertex 0.990133 1.662294 63.000000
      vertex 0.990133 1.662294 38.000000
      vertex -0.000000 1.600000 63.000000
    endloop
  endfacet
  facet normal -0.062791 0.998027 0.000000
    outer loop
      vertex -0.000000 1.600000 63.000000
      vertex 0.990133 1.662294 38.000000
      vertex -0.000000 1.600000 38.000000
    endloop
  endfacet
endsolid OpenSCAD_Model
