solid OpenSCAD_Model
  facet normal -0.000000 0.000000 -1.000000
    outer loop
      vertex -10.565510 6.100000 0.000000
      vertex -0.000000 12.200000 0.000000
      vertex -10.565510 -6.100000 0.000000
    endloop
  endfacet
  facet normal 0.000000 0.000000 -1.000000
    outer loop
      vertex -10.565510 -6.100000 0.000000
      vertex -0.000000 12.200000 0.000000
      vertex 0.000000 12.200000 0.000000
    endloop
  endfacet
  facet normal 0.000000 -0.000000 -1.000000
    outer loop
      vertex 1.390576 4.279754 0.000000
      vertex 0.000000 12.200000 0.000000
      vertex 23.400000 12.200000 0.000000
    endloop
  endfacet
  facet normal 0.000000 0.000000 -1.000000
    outer loop
      vertex 4.500000 0.000000 0.000000
      vertex 23.400000 12.200000 0.000000
      vertex 23.400000 5.565231 0.000000
    endloop
  endfacet
  facet normal 0.000000 0.000000 -1.000000
    outer loop
      vertex 15.071678 1.720029 0.000000
      vertex 19.400000 3.700000 0.000000
      vertex 23.367338 1.850000 0.000000
    endloop
  endfacet
  facet normal -0.000000 0.000000 -1.000000
    outer loop
      vertex 15.900000 0.000000 0.000000
      vertex 23.367338 1.850000 0.000000
      vertex 19.400000 0.000000 0.000000
    endloop
  endfacet
  facet normal -0.000000 0.000000 -1.000000
    outer loop
      vertex 15.071678 -1.720029 0.000000
      vertex 19.400000 0.000000 0.000000
      vertex 23.367338 -1.850000 0.000000
    endloop
  endfacet
  facet normal 0.000000 0.000000 -1.000000
    outer loop
      vertex -10.565510 -6.100000 0.000000
      vertex 23.367338 -1.850000 0.000000
      vertex 19.400000 -3.700000 0.000000
    endloop
  endfacet
  facet normal 0.000000 0.000000 -1.000000
    outer loop
      vertex -10.565510 -6.100000 0.000000
      vertex 19.400000 -3.700000 0.000000
      vertex 23.400000 -5.565231 0.000000
    endloop
  endfacet
  facet normal -0.000000 0.000000 -1.000000
    outer loop
      vertex -10.565510 -6.100000 0.000000
      vertex 23.400000 -5.565231 0.000000
      vertex 23.400000 -12.200000 0.000000
    endloop
  endfacet
  facet normal 0.000000 0.000000 -1.000000
    outer loop
      vertex -10.565510 -6.100000 0.000000
      vertex 23.400000 -12.200000 0.000000
      vertex 0.000000 -12.200000 0.000000
    endloop
  endfacet
  facet normal 0.000000 0.000000 -1.000000
    outer loop
      vertex -10.565510 -6.100000 0.000000
      vertex 0.000000 12.200000 0.000000
      vertex -4.401664 0.935603 0.000000
    endloop
  endfacet
  facet normal 0.000000 0.000000 -1.000000
    outer loop
      vertex -10.565510 -6.100000 0.000000
      vertex -4.401664 0.935603 0.000000
      vertex -4.401664 -0.935603 0.000000
    endloop
  endfacet
  facet normal 0.000000 0.000000 -1.000000
    outer loop
      vertex -2.250000 -3.897114 0.000000
      vertex -10.565510 -6.100000 0.000000
      vertex -3.640576 -2.645034 0.000000
    endloop
  endfacet
  facet normal 0.000000 0.000000 -1.000000
    outer loop
      vertex -0.470378 -4.475349 0.000000
      vertex -10.565510 -6.100000 0.000000
      vertex -2.250000 -3.897114 0.000000
    endloop
  endfacet
  facet normal 0.000000 0.000000 -1.000000
    outer loop
      vertex 13.210454 -2.144841 0.000000
      vertex 3.011088 -3.344152 0.000000
      vertex 11.717868 -0.954544 0.000000
    endloop
  endfacet
  facet normal 0.000000 0.000000 -1.000000
    outer loop
      vertex -10.565510 -6.100000 0.000000
      vertex -0.470378 -4.475349 0.000000
      vertex 1.390576 -4.279754 0.000000
    endloop
  endfacet
  facet normal 0.000000 0.000000 -1.000000
    outer loop
      vertex -10.565510 -6.100000 0.000000
      vertex 1.390576 -4.279754 0.000000
      vertex 23.367338 -1.850000 0.000000
    endloop
  endfacet
  facet normal 0.000000 0.000000 -1.000000
    outer loop
      vertex 3.011088 -3.344152 0.000000
      vertex 13.210454 -2.144841 0.000000
      vertex 23.367338 -1.850000 0.000000
    endloop
  endfacet
  facet normal 0.000000 0.000000 -1.000000
    outer loop
      vertex 15.900000 0.000000 0.000000
      vertex 19.400000 0.000000 0.000000
      vertex 15.071678 -1.720029 0.000000
    endloop
  endfacet
  facet normal 0.000000 0.000000 -1.000000
    outer loop
      vertex 4.500000 0.000000 0.000000
      vertex 23.400000 5.565231 0.000000
      vertex 13.210454 2.144841 0.000000
    endloop
  endfacet
  facet normal -0.000000 0.000000 -1.000000
    outer loop
      vertex 4.110955 1.830315 0.000000
      vertex 23.400000 12.200000 0.000000
      vertex 4.500000 0.000000 0.000000
    endloop
  endfacet
  facet normal -0.000000 0.000000 -1.000000
    outer loop
      vertex 13.210454 2.144841 0.000000
      vertex 19.400000 3.700000 0.000000
      vertex 15.071678 1.720029 0.000000
    endloop
  endfacet
  facet normal 0.000000 0.000000 -1.000000
    outer loop
      vertex 13.210454 2.144841 0.000000
      vertex 23.400000 5.565231 0.000000
      vertex 19.400000 3.700000 0.000000
    endloop
  endfacet
  facet normal -0.000000 0.000000 -1.000000
    outer loop
      vertex 1.390576 4.279754 0.000000
      vertex 23.400000 12.200000 0.000000
      vertex 3.011088 3.344152 0.000000
    endloop
  endfacet
  facet normal -0.000000 0.000000 -1.000000
    outer loop
      vertex -0.470378 4.475349 0.000000
      vertex 0.000000 12.200000 0.000000
      vertex 1.390576 4.279754 0.000000
    endloop
  endfacet
  facet normal 0.000000 0.000000 -1.000000
    outer loop
      vertex 11.717868 -0.954544 0.000000
      vertex 4.110955 -1.830315 0.000000
      vertex 11.717868 0.954544 0.000000
    endloop
  endfacet
  facet normal 0.000000 0.000000 -1.000000
    outer loop
      vertex -2.250000 3.897114 0.000000
      vertex 0.000000 12.200000 0.000000
      vertex -0.470378 4.475349 0.000000
    endloop
  endfacet
  facet normal 0.000000 0.000000 -1.000000
    outer loop
      vertex -3.640576 2.645034 0.000000
      vertex 0.000000 12.200000 0.000000
      vertex -2.250000 3.897114 0.000000
    endloop
  endfacet
  facet normal 0.000000 0.000000 -1.000000
    outer loop
      vertex -4.401664 0.935603 0.000000
      vertex 0.000000 12.200000 0.000000
      vertex -3.640576 2.645034 0.000000
    endloop
  endfacet
  facet normal -0.000000 0.000000 -1.000000
    outer loop
      vertex 3.011088 -3.344152 0.000000
      vertex 23.367338 -1.850000 0.000000
      vertex 1.390576 -4.279754 0.000000
    endloop
  endfacet
  facet normal -0.000000 0.000000 -1.000000
    outer loop
      vertex 4.110955 -1.830315 0.000000
      vertex 11.717868 -0.954544 0.000000
      vertex 3.011088 -3.344152 0.000000
    endloop
  endfacet
  facet normal 0.000000 0.000000 -1.000000
    outer loop
      vertex 13.210454 -2.144841 0.000000
      vertex 15.071678 -1.720029 0.000000
      vertex 23.367338 -1.850000 0.000000
    endloop
  endfacet
  facet normal -0.000000 0.000000 -1.000000
    outer loop
      vertex 15.071678 1.720029 0.000000
      vertex 23.367338 1.850000 0.000000
      vertex 15.900000 0.000000 0.000000
    endloop
  endfacet
  facet normal -0.000000 0.000000 -1.000000
    outer loop
      vertex 4.500000 0.000000 0.000000
      vertex 11.717868 0.954544 0.000000
      vertex 4.110955 -1.830315 0.000000
    endloop
  endfacet
  facet normal 0.000000 0.000000 -1.000000
    outer loop
      vertex 4.500000 0.000000 0.000000
      vertex 13.210454 2.144841 0.000000
      vertex 11.717868 0.954544 0.000000
    endloop
  endfacet
  facet normal 0.000000 0.000000 -1.000000
    outer loop
      vertex -3.640576 -2.645034 0.000000
      vertex -10.565510 -6.100000 0.000000
      vertex -4.401664 -0.935603 0.000000
    endloop
  endfacet
  facet normal -0.000000 0.000000 -1.000000
    outer loop
      vertex 3.011088 3.344152 0.000000
      vertex 23.400000 12.200000 0.000000
      vertex 4.110955 1.830315 0.000000
    endloop
  endfacet
  facet normal -0.500000 0.866025 0.000000
    outer loop
      vertex -10.565510 6.100000 0.000000
      vertex -10.565510 6.100000 10.000000
      vertex -0.000000 12.200000 0.000000
    endloop
  endfacet
  facet normal -0.500000 0.866025 0.000000
    outer loop
      vertex -0.000000 12.200000 0.000000
      vertex -10.565510 6.100000 10.000000
      vertex -0.000000 12.200000 10.000000
    endloop
  endfacet
  facet normal -1.000000 -0.000000 -0.000000
    outer loop
      vertex -10.565510 6.100000 0.000000
      vertex -10.565510 -6.100000 0.000000
      vertex -10.565510 6.100000 10.000000
    endloop
  endfacet
  facet normal -1.000000 -0.000000 0.000000
    outer loop
      vertex -10.565510 6.100000 10.000000
      vertex -10.565510 -6.100000 0.000000
      vertex -10.565510 -6.100000 10.000000
    endloop
  endfacet
  facet normal -0.500000 -0.866025 0.000000
    outer loop
      vertex -10.565510 -6.100000 10.000000
      vertex -10.565510 -6.100000 0.000000
      vertex 0.000000 -12.200000 0.000000
    endloop
  endfacet
  facet normal -0.500000 -0.866025 0.000000
    outer loop
      vertex 0.000000 -12.200000 10.000000
      vertex -10.565510 -6.100000 10.000000
      vertex 0.000000 -12.200000 0.000000
    endloop
  endfacet
  facet normal 0.000000 -1.000000 0.000000
    outer loop
      vertex 0.000000 -12.200000 10.000000
      vertex 0.000000 -12.200000 0.000000
      vertex 23.400000 -12.200000 0.000000
    endloop
  endfacet
  facet normal 0.000000 -1.000000 0.000000
    outer loop
      vertex 23.400000 -12.200000 10.000000
      vertex 0.000000 -12.200000 10.000000
      vertex 23.400000 -12.200000 0.000000
    endloop
  endfacet
  facet normal 1.000000 0.000000 -0.000000
    outer loop
      vertex 23.400000 -12.200000 10.000000
      vertex 23.400000 -12.200000 0.000000
      vertex 23.400000 -5.565231 0.000000
    endloop
  endfacet
  facet normal 1.000000 0.000000 0.000000
    outer loop
      vertex 23.400000 -5.565231 10.000000
      vertex 23.400000 -12.200000 10.000000
      vertex 23.400000 -5.565231 0.000000
    endloop
  endfacet
  facet normal 0.422618 0.906308 -0.000000
    outer loop
      vertex 23.400000 -5.565231 10.000000
      vertex 23.400000 -5.565231 0.000000
      vertex 19.400000 -3.700000 10.000000
    endloop
  endfacet
  facet normal 0.422618 0.906308 -0.000000
    outer loop
      vertex 19.400000 -3.700000 10.000000
      vertex 23.400000 -5.565231 0.000000
      vertex 19.400000 -3.700000 0.000000
    endloop
  endfacet
  facet normal 0.422618 -0.906308 0.000000
    outer loop
      vertex 19.400000 -3.700000 10.000000
      vertex 19.400000 -3.700000 0.000000
      vertex 23.367338 -1.850000 0.000000
    endloop
  endfacet
  facet normal 0.422618 -0.906308 0.000000
    outer loop
      vertex 23.367338 -1.850000 10.000000
      vertex 19.400000 -3.700000 10.000000
      vertex 23.367338 -1.850000 0.000000
    endloop
  endfacet
  facet normal 0.422618 0.906308 -0.000000
    outer loop
      vertex 23.367338 -1.850000 10.000000
      vertex 23.367338 -1.850000 0.000000
      vertex 19.400000 0.000000 10.000000
    endloop
  endfacet
  facet normal 0.422618 0.906308 -0.000000
    outer loop
      vertex 19.400000 0.000000 10.000000
      vertex 23.367338 -1.850000 0.000000
      vertex 19.400000 0.000000 0.000000
    endloop
  endfacet
  facet normal 0.422618 -0.906308 0.000000
    outer loop
      vertex 19.400000 0.000000 10.000000
      vertex 19.400000 0.000000 0.000000
      vertex 23.367338 1.850000 0.000000
    endloop
  endfacet
  facet normal 0.422618 -0.906308 0.000000
    outer loop
      vertex 23.367338 1.850000 10.000000
      vertex 19.400000 0.000000 10.000000
      vertex 23.367338 1.850000 0.000000
    endloop
  endfacet
  facet normal 0.422618 0.906308 -0.000000
    outer loop
      vertex 23.367338 1.850000 10.000000
      vertex 23.367338 1.850000 0.000000
      vertex 19.400000 3.700000 10.000000
    endloop
  endfacet
  facet normal 0.422618 0.906308 -0.000000
    outer loop
      vertex 19.400000 3.700000 10.000000
      vertex 23.367338 1.850000 0.000000
      vertex 19.400000 3.700000 0.000000
    endloop
  endfacet
  facet normal 0.422618 -0.906308 0.000000
    outer loop
      vertex 19.400000 3.700000 10.000000
      vertex 19.400000 3.700000 0.000000
      vertex 23.400000 5.565231 0.000000
    endloop
  endfacet
  facet normal 0.422618 -0.906308 0.000000
    outer loop
      vertex 23.400000 5.565231 10.000000
      vertex 19.400000 3.700000 10.000000
      vertex 23.400000 5.565231 0.000000
    endloop
  endfacet
  facet normal 1.000000 0.000000 -0.000000
    outer loop
      vertex 23.400000 5.565231 10.000000
      vertex 23.400000 5.565231 0.000000
      vertex 23.400000 12.200000 0.000000
    endloop
  endfacet
  facet normal 1.000000 0.000000 0.000000
    outer loop
      vertex 23.400000 12.200000 10.000000
      vertex 23.400000 5.565231 10.000000
      vertex 23.400000 12.200000 0.000000
    endloop
  endfacet
  facet normal 0.000000 1.000000 0.000000
    outer loop
      vertex 8.890576 12.200000 18.779754
      vertex 0.000000 12.200000 24.000000
      vertex 23.400000 12.200000 24.000000
    endloop
  endfacet
  facet normal 0.000000 1.000000 0.000000
    outer loop
      vertex 21.400000 12.200000 14.500000
      vertex 23.400000 12.200000 24.000000
      vertex 23.400000 12.200000 10.000000
    endloop
  endfacet
  facet normal -0.000000 1.000000 0.000000
    outer loop
      vertex 3.859424 12.200000 11.854966
      vertex 0.000000 12.200000 10.000000
      vertex 3.098336 12.200000 13.564397
    endloop
  endfacet
  facet normal 0.000000 1.000000 -0.000000
    outer loop
      vertex 23.400000 12.200000 10.000000
      vertex 23.400000 12.200000 0.000000
      vertex 0.000000 12.200000 10.000000
    endloop
  endfacet
  facet normal 0.000000 1.000000 0.000000
    outer loop
      vertex 0.000000 12.200000 10.000000
      vertex 0.000000 12.200000 24.000000
      vertex 3.098336 12.200000 15.435603
    endloop
  endfacet
  facet normal 0.000000 1.000000 0.000000
    outer loop
      vertex 0.000000 12.200000 10.000000
      vertex 3.098336 12.200000 15.435603
      vertex 3.098336 12.200000 13.564397
    endloop
  endfacet
  facet normal 0.000000 1.000000 -0.000000
    outer loop
      vertex 10.511088 12.200000 11.155848
      vertex 23.400000 12.200000 10.000000
      vertex 8.890576 12.200000 10.220246
    endloop
  endfacet
  facet normal 0.000000 1.000000 0.000000
    outer loop
      vertex 0.000000 12.200000 10.000000
      vertex 3.859424 12.200000 11.854966
      vertex 5.250000 12.200000 10.602886
    endloop
  endfacet
  facet normal 0.000000 1.000000 0.000000
    outer loop
      vertex 0.000000 12.200000 10.000000
      vertex 5.250000 12.200000 10.602886
      vertex 7.029622 12.200000 10.024651
    endloop
  endfacet
  facet normal 0.000000 1.000000 0.000000
    outer loop
      vertex 0.000000 12.200000 10.000000
      vertex 7.029622 12.200000 10.024651
      vertex 23.400000 12.200000 10.000000
    endloop
  endfacet
  facet normal 0.000000 1.000000 0.000000
    outer loop
      vertex 7.029622 12.200000 10.024651
      vertex 8.890576 12.200000 10.220246
      vertex 23.400000 12.200000 10.000000
    endloop
  endfacet
  facet normal 0.000000 1.000000 -0.000000
    outer loop
      vertex 11.610955 12.200000 12.669685
      vertex 23.400000 12.200000 10.000000
      vertex 10.511088 12.200000 11.155848
    endloop
  endfacet
  facet normal 0.000000 1.000000 -0.000000
    outer loop
      vertex 12.000000 12.200000 14.500000
      vertex 23.400000 12.200000 24.000000
      vertex 11.610955 12.200000 12.669685
    endloop
  endfacet
  facet normal 0.000000 1.000000 0.000000
    outer loop
      vertex 10.511088 12.200000 17.844152
      vertex 23.400000 12.200000 24.000000
      vertex 11.610955 12.200000 16.330315
    endloop
  endfacet
  facet normal 0.000000 1.000000 0.000000
    outer loop
      vertex 11.610955 12.200000 16.330315
      vertex 23.400000 12.200000 24.000000
      vertex 12.000000 12.200000 14.500000
    endloop
  endfacet
  facet normal 0.000000 1.000000 0.000000
    outer loop
      vertex 8.890576 12.200000 18.779754
      vertex 23.400000 12.200000 24.000000
      vertex 10.511088 12.200000 17.844152
    endloop
  endfacet
  facet normal 0.000000 1.000000 0.000000
    outer loop
      vertex 7.029622 12.200000 18.975349
      vertex 0.000000 12.200000 24.000000
      vertex 8.890576 12.200000 18.779754
    endloop
  endfacet
  facet normal 0.000000 1.000000 -0.000000
    outer loop
      vertex 20.571678 12.200000 12.779971
      vertex 23.400000 12.200000 10.000000
      vertex 18.710454 12.200000 12.355159
    endloop
  endfacet
  facet normal 0.000000 1.000000 0.000000
    outer loop
      vertex 5.250000 12.200000 18.397114
      vertex 0.000000 12.200000 24.000000
      vertex 7.029622 12.200000 18.975349
    endloop
  endfacet
  facet normal 0.000000 1.000000 0.000000
    outer loop
      vertex 3.859424 12.200000 17.145034
      vertex 0.000000 12.200000 24.000000
      vertex 5.250000 12.200000 18.397114
    endloop
  endfacet
  facet normal 0.000000 1.000000 0.000000
    outer loop
      vertex 3.098336 12.200000 15.435603
      vertex 0.000000 12.200000 24.000000
      vertex 3.859424 12.200000 17.145034
    endloop
  endfacet
  facet normal 0.000000 1.000000 0.000000
    outer loop
      vertex 11.610955 12.200000 12.669685
      vertex 23.400000 12.200000 24.000000
      vertex 17.217868 12.200000 15.454544
    endloop
  endfacet
  facet normal 0.000000 1.000000 0.000000
    outer loop
      vertex 11.610955 12.200000 12.669685
      vertex 17.217868 12.200000 15.454544
      vertex 17.217868 12.200000 13.545456
    endloop
  endfacet
  facet normal 0.000000 1.000000 0.000000
    outer loop
      vertex 11.610955 12.200000 12.669685
      vertex 17.217868 12.200000 13.545456
      vertex 18.710454 12.200000 12.355159
    endloop
  endfacet
  facet normal 0.000000 1.000000 0.000000
    outer loop
      vertex 11.610955 12.200000 12.669685
      vertex 18.710454 12.200000 12.355159
      vertex 23.400000 12.200000 10.000000
    endloop
  endfacet
  facet normal 0.000000 1.000000 0.000000
    outer loop
      vertex 20.571678 12.200000 16.220029
      vertex 23.400000 12.200000 24.000000
      vertex 21.400000 12.200000 14.500000
    endloop
  endfacet
  facet normal 0.000000 1.000000 0.000000
    outer loop
      vertex 20.571678 12.200000 12.779971
      vertex 21.400000 12.200000 14.500000
      vertex 23.400000 12.200000 10.000000
    endloop
  endfacet
  facet normal 0.000000 1.000000 0.000000
    outer loop
      vertex 18.710454 12.200000 16.644841
      vertex 23.400000 12.200000 24.000000
      vertex 20.571678 12.200000 16.220029
    endloop
  endfacet
  facet normal 0.000000 1.000000 0.000000
    outer loop
      vertex 17.217868 12.200000 15.454544
      vertex 23.400000 12.200000 24.000000
      vertex 18.710454 12.200000 16.644841
    endloop
  endfacet
  facet normal 0.000000 1.000000 -0.000000
    outer loop
      vertex 0.000000 12.200000 10.000000
      vertex 23.400000 12.200000 0.000000
      vertex 0.000000 12.200000 0.000000
    endloop
  endfacet
  facet normal 0.500000 0.866025 0.000000
    outer loop
      vertex -0.000000 12.200000 0.000000
      vertex -0.000000 12.200000 10.000000
      vertex 0.000000 12.200000 0.000000
    endloop
  endfacet
  facet normal 0.500000 0.866025 0.000000
    outer loop
      vertex 0.000000 12.200000 0.000000
      vertex -0.000000 12.200000 10.000000
      vertex 0.000000 12.200000 10.000000
    endloop
  endfacet
  facet normal 0.913545 -0.406737 0.000000
    outer loop
      vertex -3.640576 2.645034 0.000000
      vertex -3.640576 2.645034 5.000000
      vertex -4.401664 0.935603 5.000000
    endloop
  endfacet
  facet normal 0.913545 -0.406737 0.000000
    outer loop
      vertex -4.401664 0.935603 0.000000
      vertex -3.640576 2.645034 0.000000
      vertex -4.401664 0.935603 5.000000
    endloop
  endfacet
  facet normal 1.000000 0.000000 0.000000
    outer loop
      vertex -4.401664 0.935603 0.000000
      vertex -4.401664 0.935603 5.000000
      vertex -4.401664 -0.935603 5.000000
    endloop
  endfacet
  facet normal 1.000000 0.000000 0.000000
    outer loop
      vertex -4.401664 -0.935603 0.000000
      vertex -4.401664 0.935603 0.000000
      vertex -4.401664 -0.935603 5.000000
    endloop
  endfacet
  facet normal 0.669131 -0.743145 0.000000
    outer loop
      vertex -2.250000 3.897114 0.000000
      vertex -2.250000 3.897114 5.000000
      vertex -3.640576 2.645034 5.000000
    endloop
  endfacet
  facet normal 0.669131 -0.743145 0.000000
    outer loop
      vertex -3.640576 2.645034 0.000000
      vertex -2.250000 3.897114 0.000000
      vertex -3.640576 2.645034 5.000000
    endloop
  endfacet
  facet normal 0.309017 -0.951056 0.000000
    outer loop
      vertex -0.470378 4.475349 0.000000
      vertex -0.470378 4.475349 5.000000
      vertex -2.250000 3.897114 5.000000
    endloop
  endfacet
  facet normal 0.309017 -0.951056 0.000000
    outer loop
      vertex -2.250000 3.897114 0.000000
      vertex -0.470378 4.475349 0.000000
      vertex -2.250000 3.897114 5.000000
    endloop
  endfacet
  facet normal -0.104529 -0.994522 -0.000000
    outer loop
      vertex 1.390576 4.279754 0.000000
      vertex 1.390576 4.279754 5.000000
      vertex -0.470378 4.475349 5.000000
    endloop
  endfacet
  facet normal -0.104529 -0.994522 -0.000000
    outer loop
      vertex -0.470378 4.475349 0.000000
      vertex 1.390576 4.279754 0.000000
      vertex -0.470378 4.475349 5.000000
    endloop
  endfacet
  facet normal -0.500000 -0.866026 -0.000000
    outer loop
      vertex 3.011088 3.344152 0.000000
      vertex 3.011088 3.344152 5.000000
      vertex 1.390576 4.279754 5.000000
    endloop
  endfacet
  facet normal -0.500000 -0.866026 -0.000000
    outer loop
      vertex 1.390576 4.279754 0.000000
      vertex 3.011088 3.344152 0.000000
      vertex 1.390576 4.279754 5.000000
    endloop
  endfacet
  facet normal -0.809017 -0.587785 0.000000
    outer loop
      vertex 4.110955 1.830315 5.000000
      vertex 3.011088 3.344152 5.000000
      vertex 4.110955 1.830315 0.000000
    endloop
  endfacet
  facet normal -0.809017 -0.587785 0.000000
    outer loop
      vertex 4.110955 1.830315 0.000000
      vertex 3.011088 3.344152 5.000000
      vertex 3.011088 3.344152 0.000000
    endloop
  endfacet
  facet normal -0.978148 -0.207911 0.000000
    outer loop
      vertex 4.500000 0.000000 5.000000
      vertex 4.110955 1.830315 5.000000
      vertex 4.500000 0.000000 0.000000
    endloop
  endfacet
  facet normal -0.978148 -0.207911 0.000000
    outer loop
      vertex 4.500000 0.000000 0.000000
      vertex 4.110955 1.830315 5.000000
      vertex 4.110955 1.830315 0.000000
    endloop
  endfacet
  facet normal -0.978148 0.207911 0.000000
    outer loop
      vertex 4.500000 0.000000 5.000000
      vertex 4.500000 0.000000 0.000000
      vertex 4.110955 -1.830315 5.000000
    endloop
  endfacet
  facet normal -0.978148 0.207911 0.000000
    outer loop
      vertex 4.110955 -1.830315 5.000000
      vertex 4.500000 0.000000 0.000000
      vertex 4.110955 -1.830315 0.000000
    endloop
  endfacet
  facet normal -0.809017 0.587785 0.000000
    outer loop
      vertex 4.110955 -1.830315 5.000000
      vertex 4.110955 -1.830315 0.000000
      vertex 3.011088 -3.344152 5.000000
    endloop
  endfacet
  facet normal -0.809017 0.587785 0.000000
    outer loop
      vertex 3.011088 -3.344152 5.000000
      vertex 4.110955 -1.830315 0.000000
      vertex 3.011088 -3.344152 0.000000
    endloop
  endfacet
  facet normal -0.500000 0.866026 0.000000
    outer loop
      vertex 3.011088 -3.344152 5.000000
      vertex 3.011088 -3.344152 0.000000
      vertex 1.390576 -4.279754 5.000000
    endloop
  endfacet
  facet normal -0.500000 0.866026 0.000000
    outer loop
      vertex 1.390576 -4.279754 5.000000
      vertex 3.011088 -3.344152 0.000000
      vertex 1.390576 -4.279754 0.000000
    endloop
  endfacet
  facet normal -0.104529 0.994522 0.000000
    outer loop
      vertex 1.390576 -4.279754 5.000000
      vertex 1.390576 -4.279754 0.000000
      vertex -0.470378 -4.475349 5.000000
    endloop
  endfacet
  facet normal -0.104529 0.994522 0.000000
    outer loop
      vertex -0.470378 -4.475349 5.000000
      vertex 1.390576 -4.279754 0.000000
      vertex -0.470378 -4.475349 0.000000
    endloop
  endfacet
  facet normal 0.309017 0.951056 -0.000000
    outer loop
      vertex -0.470378 -4.475349 5.000000
      vertex -0.470378 -4.475349 0.000000
      vertex -2.250000 -3.897114 5.000000
    endloop
  endfacet
  facet normal 0.309017 0.951056 -0.000000
    outer loop
      vertex -2.250000 -3.897114 5.000000
      vertex -0.470378 -4.475349 0.000000
      vertex -2.250000 -3.897114 0.000000
    endloop
  endfacet
  facet normal 0.669131 0.743145 -0.000000
    outer loop
      vertex -2.250000 -3.897114 5.000000
      vertex -2.250000 -3.897114 0.000000
      vertex -3.640576 -2.645034 5.000000
    endloop
  endfacet
  facet normal 0.669131 0.743145 -0.000000
    outer loop
      vertex -3.640576 -2.645034 5.000000
      vertex -2.250000 -3.897114 0.000000
      vertex -3.640576 -2.645034 0.000000
    endloop
  endfacet
  facet normal 0.913545 0.406737 0.000000
    outer loop
      vertex -4.401664 -0.935603 5.000000
      vertex -3.640576 -2.645034 5.000000
      vertex -3.640576 -2.645034 0.000000
    endloop
  endfacet
  facet normal 0.913545 0.406737 0.000000
    outer loop
      vertex -4.401664 -0.935603 0.000000
      vertex -4.401664 -0.935603 5.000000
      vertex -3.640576 -2.645034 0.000000
    endloop
  endfacet
  facet normal 0.623490 -0.781832 0.000000
    outer loop
      vertex 13.210454 2.144841 0.000000
      vertex 13.210454 2.144841 5.000000
      vertex 11.717868 0.954544 5.000000
    endloop
  endfacet
  facet normal 0.623490 -0.781832 0.000000
    outer loop
      vertex 11.717868 0.954544 0.000000
      vertex 13.210454 2.144841 0.000000
      vertex 11.717868 0.954544 5.000000
    endloop
  endfacet
  facet normal 1.000000 0.000000 0.000000
    outer loop
      vertex 11.717868 0.954544 0.000000
      vertex 11.717868 0.954544 5.000000
      vertex 11.717868 -0.954544 5.000000
    endloop
  endfacet
  facet normal 1.000000 0.000000 0.000000
    outer loop
      vertex 11.717868 -0.954544 0.000000
      vertex 11.717868 0.954544 0.000000
      vertex 11.717868 -0.954544 5.000000
    endloop
  endfacet
  facet normal -0.222521 -0.974928 -0.000000
    outer loop
      vertex 15.071678 1.720029 0.000000
      vertex 15.071678 1.720029 5.000000
      vertex 13.210454 2.144841 5.000000
    endloop
  endfacet
  facet normal -0.222521 -0.974928 -0.000000
    outer loop
      vertex 13.210454 2.144841 0.000000
      vertex 15.071678 1.720029 0.000000
      vertex 13.210454 2.144841 5.000000
    endloop
  endfacet
  facet normal -0.900969 -0.433884 0.000000
    outer loop
      vertex 15.900000 0.000000 5.000000
      vertex 15.071678 1.720029 5.000000
      vertex 15.900000 0.000000 0.000000
    endloop
  endfacet
  facet normal -0.900969 -0.433884 0.000000
    outer loop
      vertex 15.900000 0.000000 0.000000
      vertex 15.071678 1.720029 5.000000
      vertex 15.071678 1.720029 0.000000
    endloop
  endfacet
  facet normal -0.900969 0.433884 0.000000
    outer loop
      vertex 15.900000 0.000000 5.000000
      vertex 15.900000 0.000000 0.000000
      vertex 15.071678 -1.720029 5.000000
    endloop
  endfacet
  facet normal -0.900969 0.433884 0.000000
    outer loop
      vertex 15.071678 -1.720029 5.000000
      vertex 15.900000 0.000000 0.000000
      vertex 15.071678 -1.720029 0.000000
    endloop
  endfacet
  facet normal -0.222521 0.974928 0.000000
    outer loop
      vertex 15.071678 -1.720029 5.000000
      vertex 15.071678 -1.720029 0.000000
      vertex 13.210454 -2.144841 5.000000
    endloop
  endfacet
  facet normal -0.222521 0.974928 0.000000
    outer loop
      vertex 13.210454 -2.144841 5.000000
      vertex 15.071678 -1.720029 0.000000
      vertex 13.210454 -2.144841 0.000000
    endloop
  endfacet
  facet normal 0.623490 0.781832 -0.000000
    outer loop
      vertex 13.210454 -2.144841 5.000000
      vertex 13.210454 -2.144841 0.000000
      vertex 11.717868 -0.954544 5.000000
    endloop
  endfacet
  facet normal 0.623490 0.781832 -0.000000
    outer loop
      vertex 11.717868 -0.954544 5.000000
      vertex 13.210454 -2.144841 0.000000
      vertex 11.717868 -0.954544 0.000000
    endloop
  endfacet
  facet normal -0.000000 0.000000 1.000000
    outer loop
      vertex -7.101408 4.100000 10.000000
      vertex -10.565510 6.100000 10.000000
      vertex -10.565510 -6.100000 10.000000
    endloop
  endfacet
  facet normal -0.000000 0.000000 1.000000
    outer loop
      vertex 23.400000 -5.565231 10.000000
      vertex 19.400000 -3.700000 10.000000
      vertex 23.400000 -12.200000 10.000000
    endloop
  endfacet
  facet normal 0.000000 0.000000 1.000000
    outer loop
      vertex 19.400000 0.000000 10.000000
      vertex 23.367338 1.850000 10.000000
      vertex 16.731089 1.750000 10.000000
    endloop
  endfacet
  facet normal 0.000000 -0.000000 0.000000
    outer loop
      vertex 23.400000 12.200000 10.000000
      vertex 23.400000 8.200000 10.000000
      vertex 23.400000 5.565231 10.000000
    endloop
  endfacet
  facet normal 0.000000 0.000000 1.000000
    outer loop
      vertex 7.101408 -4.100000 10.000000
      vertex -0.000000 -8.200000 10.000000
      vertex 0.000000 -12.200000 10.000000
    endloop
  endfacet
  facet normal -0.000000 0.000000 0.000000
    outer loop
      vertex 0.000000 12.200000 10.000000
      vertex -0.000000 12.200000 10.000000
      vertex 0.000000 8.200000 10.000000
    endloop
  endfacet
  facet normal 0.000000 0.000000 1.000000
    outer loop
      vertex 0.000000 -12.200000 10.000000
      vertex -7.101408 -4.100000 10.000000
      vertex -10.565510 -6.100000 10.000000
    endloop
  endfacet
  facet normal 0.000000 0.000000 1.000000
    outer loop
      vertex -0.000000 12.200000 10.000000
      vertex -10.565510 6.100000 10.000000
      vertex -7.101408 4.100000 10.000000
    endloop
  endfacet
  facet normal 0.000000 0.000000 1.000000
    outer loop
      vertex 10.668911 -1.750000 10.000000
      vertex 10.668911 1.750000 10.000000
      vertex 7.101408 4.100000 10.000000
    endloop
  endfacet
  facet normal 0.000000 0.000000 1.000000
    outer loop
      vertex 16.731089 1.750000 10.000000
      vertex 16.731089 -1.750000 10.000000
      vertex 19.400000 -3.700000 10.000000
    endloop
  endfacet
  facet normal -0.000000 0.000000 1.000000
    outer loop
      vertex -7.101408 -4.100000 10.000000
      vertex -7.101408 4.100000 10.000000
      vertex -10.565510 -6.100000 10.000000
    endloop
  endfacet
  facet normal -0.000000 0.000000 1.000000
    outer loop
      vertex 23.400000 -12.200000 10.000000
      vertex 7.101408 -4.100000 10.000000
      vertex 0.000000 -12.200000 10.000000
    endloop
  endfacet
  facet normal 0.000000 0.000000 1.000000
    outer loop
      vertex 0.000000 -12.200000 10.000000
      vertex -0.000000 -8.200000 10.000000
      vertex -7.101408 -4.100000 10.000000
    endloop
  endfacet
  facet normal 0.000000 -0.000000 1.000000
    outer loop
      vertex 7.101408 4.100000 10.000000
      vertex 7.101408 -4.100000 10.000000
      vertex 10.668911 -1.750000 10.000000
    endloop
  endfacet
  facet normal 0.000000 0.000000 1.000000
    outer loop
      vertex 23.400000 -12.200000 10.000000
      vertex 10.668911 -1.750000 10.000000
      vertex 7.101408 -4.100000 10.000000
    endloop
  endfacet
  facet normal 0.000000 0.000000 1.000000
    outer loop
      vertex -7.101408 4.100000 10.000000
      vertex 0.000000 8.200000 10.000000
      vertex -0.000000 12.200000 10.000000
    endloop
  endfacet
  facet normal -0.000000 -0.000000 1.000000
    outer loop
      vertex 13.700000 -3.500000 10.000000
      vertex 10.668911 -1.750000 10.000000
      vertex 23.400000 -12.200000 10.000000
    endloop
  endfacet
  facet normal 0.000000 0.000000 1.000000
    outer loop
      vertex 16.731089 1.750000 10.000000
      vertex 19.400000 -3.700000 10.000000
      vertex 19.400000 0.000000 10.000000
    endloop
  endfacet
  facet normal 0.000000 0.000000 1.000000
    outer loop
      vertex 16.731089 -1.750000 10.000000
      vertex 23.400000 -12.200000 10.000000
      vertex 19.400000 -3.700000 10.000000
    endloop
  endfacet
  facet normal 0.000000 0.000000 1.000000
    outer loop
      vertex 19.400000 -3.700000 10.000000
      vertex 23.367338 -1.850000 10.000000
      vertex 19.400000 0.000000 10.000000
    endloop
  endfacet
  facet normal 0.000000 -0.000000 1.000000
    outer loop
      vertex 23.400000 8.200000 10.000000
      vertex 19.400000 3.700000 10.000000
      vertex 23.400000 5.565231 10.000000
    endloop
  endfacet
  facet normal 0.000000 -0.000000 1.000000
    outer loop
      vertex 19.400000 3.700000 10.000000
      vertex 16.731089 1.750000 10.000000
      vertex 23.367338 1.850000 10.000000
    endloop
  endfacet
  facet normal 0.000000 0.000000 1.000000
    outer loop
      vertex 23.400000 8.200000 10.000000
      vertex 16.731089 1.750000 10.000000
      vertex 19.400000 3.700000 10.000000
    endloop
  endfacet
  facet normal 0.000000 -0.000000 1.000000
    outer loop
      vertex 16.731089 -1.750000 10.000000
      vertex 13.700000 -3.500000 10.000000
      vertex 23.400000 -12.200000 10.000000
    endloop
  endfacet
  facet normal 0.000000 0.000000 1.000000
    outer loop
      vertex 23.400000 8.200000 10.000000
      vertex 13.700000 3.500000 10.000000
      vertex 16.731089 1.750000 10.000000
    endloop
  endfacet
  facet normal -0.000000 0.000000 1.000000
    outer loop
      vertex 13.700000 3.500000 10.000000
      vertex 7.101408 4.100000 10.000000
      vertex 10.668911 1.750000 10.000000
    endloop
  endfacet
  facet normal 0.000000 0.000000 1.000000
    outer loop
      vertex 23.400000 8.200000 10.000000
      vertex 7.101408 4.100000 10.000000
      vertex 13.700000 3.500000 10.000000
    endloop
  endfacet
  facet normal 0.000000 0.000000 1.000000
    outer loop
      vertex 23.400000 8.200000 10.000000
      vertex 0.000000 8.200000 10.000000
      vertex 7.101408 4.100000 10.000000
    endloop
  endfacet
  facet normal 1.000000 0.000000 -0.000000
    outer loop
      vertex 23.400000 8.200000 24.000000
      vertex 23.400000 8.200000 10.000000
      vertex 23.400000 12.200000 10.000000
    endloop
  endfacet
  facet normal 1.000000 0.000000 0.000000
    outer loop
      vertex 23.400000 12.200000 24.000000
      vertex 23.400000 8.200000 24.000000
      vertex 23.400000 12.200000 10.000000
    endloop
  endfacet
  facet normal 0.000000 -0.000000 1.000000
    outer loop
      vertex 0.000000 12.200000 24.000000
      vertex 0.000000 8.200000 24.000000
      vertex 23.400000 8.200000 24.000000
    endloop
  endfacet
  facet normal 0.000000 0.000000 1.000000
    outer loop
      vertex 23.400000 12.200000 24.000000
      vertex 0.000000 12.200000 24.000000
      vertex 23.400000 8.200000 24.000000
    endloop
  endfacet
  facet normal -1.000000 -0.000000 -0.000000
    outer loop
      vertex 0.000000 8.200000 10.000000
      vertex 0.000000 8.200000 24.000000
      vertex 0.000000 12.200000 10.000000
    endloop
  endfacet
  facet normal -1.000000 0.000000 0.000000
    outer loop
      vertex 0.000000 12.200000 10.000000
      vertex 0.000000 8.200000 24.000000
      vertex 0.000000 12.200000 24.000000
    endloop
  endfacet
  facet normal 0.913545 0.000000 -0.406737
    outer loop
      vertex 3.098336 12.200000 15.435603
      vertex 3.859424 12.200000 17.145034
      vertex 3.859424 8.200000 17.145034
    endloop
  endfacet
  facet normal 0.913545 0.000000 -0.406737
    outer loop
      vertex 3.098336 8.200000 15.435603
      vertex 3.098336 12.200000 15.435603
      vertex 3.859424 8.200000 17.145034
    endloop
  endfacet
  facet normal 1.000000 0.000000 0.000000
    outer loop
      vertex 3.098336 12.200000 13.564397
      vertex 3.098336 12.200000 15.435603
      vertex 3.098336 8.200000 15.435603
    endloop
  endfacet
  facet normal 1.000000 0.000000 0.000000
    outer loop
      vertex 3.098336 8.200000 13.564397
      vertex 3.098336 12.200000 13.564397
      vertex 3.098336 8.200000 15.435603
    endloop
  endfacet
  facet normal 0.669131 0.000000 -0.743145
    outer loop
      vertex 5.250000 12.200000 18.397114
      vertex 5.250000 8.200000 18.397114
      vertex 3.859424 12.200000 17.145034
    endloop
  endfacet
  facet normal 0.669131 0.000000 -0.743145
    outer loop
      vertex 3.859424 12.200000 17.145034
      vertex 5.250000 8.200000 18.397114
      vertex 3.859424 8.200000 17.145034
    endloop
  endfacet
  facet normal 0.309017 0.000000 -0.951056
    outer loop
      vertex 7.029622 12.200000 18.975349
      vertex 7.029622 8.200000 18.975349
      vertex 5.250000 12.200000 18.397114
    endloop
  endfacet
  facet normal 0.309017 0.000000 -0.951056
    outer loop
      vertex 5.250000 12.200000 18.397114
      vertex 7.029622 8.200000 18.975349
      vertex 5.250000 8.200000 18.397114
    endloop
  endfacet
  facet normal -0.104529 0.000000 -0.994522
    outer loop
      vertex 8.890576 12.200000 18.779754
      vertex 8.890576 8.200000 18.779754
      vertex 7.029622 12.200000 18.975349
    endloop
  endfacet
  facet normal -0.104529 0.000000 -0.994522
    outer loop
      vertex 7.029622 12.200000 18.975349
      vertex 8.890576 8.200000 18.779754
      vertex 7.029622 8.200000 18.975349
    endloop
  endfacet
  facet normal -0.500000 0.000000 -0.866026
    outer loop
      vertex 10.511088 12.200000 17.844152
      vertex 10.511088 8.200000 17.844152
      vertex 8.890576 12.200000 18.779754
    endloop
  endfacet
  facet normal -0.500000 0.000000 -0.866026
    outer loop
      vertex 8.890576 12.200000 18.779754
      vertex 10.511088 8.200000 17.844152
      vertex 8.890576 8.200000 18.779754
    endloop
  endfacet
  facet normal -0.809017 0.000000 -0.587785
    outer loop
      vertex 11.610955 12.200000 16.330315
      vertex 11.610955 8.200000 16.330315
      vertex 10.511088 12.200000 17.844152
    endloop
  endfacet
  facet normal -0.809017 0.000000 -0.587785
    outer loop
      vertex 10.511088 12.200000 17.844152
      vertex 11.610955 8.200000 16.330315
      vertex 10.511088 8.200000 17.844152
    endloop
  endfacet
  facet normal -0.978148 0.000000 -0.207911
    outer loop
      vertex 12.000000 12.200000 14.500000
      vertex 12.000000 8.200000 14.500000
      vertex 11.610955 12.200000 16.330315
    endloop
  endfacet
  facet normal -0.978148 0.000000 -0.207911
    outer loop
      vertex 11.610955 12.200000 16.330315
      vertex 12.000000 8.200000 14.500000
      vertex 11.610955 8.200000 16.330315
    endloop
  endfacet
  facet normal -0.978148 0.000000 0.207911
    outer loop
      vertex 12.000000 12.200000 14.500000
      vertex 11.610955 12.200000 12.669685
      vertex 12.000000 8.200000 14.500000
    endloop
  endfacet
  facet normal -0.978148 0.000000 0.207911
    outer loop
      vertex 12.000000 8.200000 14.500000
      vertex 11.610955 12.200000 12.669685
      vertex 11.610955 8.200000 12.669685
    endloop
  endfacet
  facet normal -0.809017 0.000000 0.587785
    outer loop
      vertex 11.610955 12.200000 12.669685
      vertex 10.511088 12.200000 11.155848
      vertex 11.610955 8.200000 12.669685
    endloop
  endfacet
  facet normal -0.809017 0.000000 0.587785
    outer loop
      vertex 11.610955 8.200000 12.669685
      vertex 10.511088 12.200000 11.155848
      vertex 10.511088 8.200000 11.155848
    endloop
  endfacet
  facet normal -0.500000 0.000000 0.866026
    outer loop
      vertex 10.511088 8.200000 11.155848
      vertex 10.511088 12.200000 11.155848
      vertex 8.890576 12.200000 10.220246
    endloop
  endfacet
  facet normal -0.500000 0.000000 0.866026
    outer loop
      vertex 8.890576 8.200000 10.220246
      vertex 10.511088 8.200000 11.155848
      vertex 8.890576 12.200000 10.220246
    endloop
  endfacet
  facet normal -0.104529 0.000000 0.994522
    outer loop
      vertex 8.890576 8.200000 10.220246
      vertex 8.890576 12.200000 10.220246
      vertex 7.029622 12.200000 10.024651
    endloop
  endfacet
  facet normal -0.104529 0.000000 0.994522
    outer loop
      vertex 7.029622 8.200000 10.024651
      vertex 8.890576 8.200000 10.220246
      vertex 7.029622 12.200000 10.024651
    endloop
  endfacet
  facet normal 0.309017 0.000000 0.951056
    outer loop
      vertex 7.029622 8.200000 10.024651
      vertex 7.029622 12.200000 10.024651
      vertex 5.250000 12.200000 10.602886
    endloop
  endfacet
  facet normal 0.309017 0.000000 0.951056
    outer loop
      vertex 5.250000 8.200000 10.602886
      vertex 7.029622 8.200000 10.024651
      vertex 5.250000 12.200000 10.602886
    endloop
  endfacet
  facet normal 0.669131 0.000000 0.743145
    outer loop
      vertex 5.250000 8.200000 10.602886
      vertex 5.250000 12.200000 10.602886
      vertex 3.859424 12.200000 11.854966
    endloop
  endfacet
  facet normal 0.669131 0.000000 0.743145
    outer loop
      vertex 3.859424 8.200000 11.854966
      vertex 5.250000 8.200000 10.602886
      vertex 3.859424 12.200000 11.854966
    endloop
  endfacet
  facet normal 0.913545 0.000000 0.406737
    outer loop
      vertex 3.859424 8.200000 11.854966
      vertex 3.859424 12.200000 11.854966
      vertex 3.098336 12.200000 13.564397
    endloop
  endfacet
  facet normal 0.913545 0.000000 0.406737
    outer loop
      vertex 3.098336 8.200000 13.564397
      vertex 3.859424 8.200000 11.854966
      vertex 3.098336 12.200000 13.564397
    endloop
  endfacet
  facet normal 0.623490 0.000000 -0.781832
    outer loop
      vertex 18.710454 12.200000 16.644841
      vertex 18.710454 8.200000 16.644841
      vertex 17.217868 12.200000 15.454544
    endloop
  endfacet
  facet normal 0.623490 0.000000 -0.781832
    outer loop
      vertex 17.217868 12.200000 15.454544
      vertex 18.710454 8.200000 16.644841
      vertex 17.217868 8.200000 15.454544
    endloop
  endfacet
  facet normal 1.000000 0.000000 0.000000
    outer loop
      vertex 17.217868 12.200000 13.545456
      vertex 17.217868 12.200000 15.454544
      vertex 17.217868 8.200000 15.454544
    endloop
  endfacet
  facet normal 1.000000 0.000000 0.000000
    outer loop
      vertex 17.217868 8.200000 13.545456
      vertex 17.217868 12.200000 13.545456
      vertex 17.217868 8.200000 15.454544
    endloop
  endfacet
  facet normal -0.222521 -0.000000 -0.974928
    outer loop
      vertex 20.571678 12.200000 16.220029
      vertex 20.571678 8.200000 16.220029
      vertex 18.710454 12.200000 16.644841
    endloop
  endfacet
  facet normal -0.222521 0.000000 -0.974928
    outer loop
      vertex 18.710454 12.200000 16.644841
      vertex 20.571678 8.200000 16.220029
      vertex 18.710454 8.200000 16.644841
    endloop
  endfacet
  facet normal -0.900969 0.000000 -0.433884
    outer loop
      vertex 21.400000 12.200000 14.500000
      vertex 21.400000 8.200000 14.500000
      vertex 20.571678 12.200000 16.220029
    endloop
  endfacet
  facet normal -0.900969 -0.000000 -0.433884
    outer loop
      vertex 20.571678 12.200000 16.220029
      vertex 21.400000 8.200000 14.500000
      vertex 20.571678 8.200000 16.220029
    endloop
  endfacet
  facet normal -0.900969 0.000000 0.433884
    outer loop
      vertex 21.400000 12.200000 14.500000
      vertex 20.571678 12.200000 12.779971
      vertex 21.400000 8.200000 14.500000
    endloop
  endfacet
  facet normal -0.900969 0.000000 0.433884
    outer loop
      vertex 21.400000 8.200000 14.500000
      vertex 20.571678 12.200000 12.779971
      vertex 20.571678 8.200000 12.779971
    endloop
  endfacet
  facet normal -0.222521 0.000000 0.974928
    outer loop
      vertex 20.571678 8.200000 12.779971
      vertex 20.571678 12.200000 12.779971
      vertex 18.710454 12.200000 12.355159
    endloop
  endfacet
  facet normal -0.222521 0.000000 0.974928
    outer loop
      vertex 18.710454 8.200000 12.355159
      vertex 20.571678 8.200000 12.779971
      vertex 18.710454 12.200000 12.355159
    endloop
  endfacet
  facet normal 0.623490 0.000000 0.781832
    outer loop
      vertex 18.710454 8.200000 12.355159
      vertex 18.710454 12.200000 12.355159
      vertex 17.217868 12.200000 13.545456
    endloop
  endfacet
  facet normal 0.623490 0.000000 0.781832
    outer loop
      vertex 17.217868 8.200000 13.545456
      vertex 18.710454 8.200000 12.355159
      vertex 17.217868 12.200000 13.545456
    endloop
  endfacet
  facet normal 0.000000 0.000000 1.000000
    outer loop
      vertex 4.110955 -1.830315 5.000000
      vertex 7.101408 -4.100000 5.000000
      vertex 7.101408 4.100000 5.000000
    endloop
  endfacet
  facet normal 0.000000 0.000000 1.000000
    outer loop
      vertex 3.011088 -3.344152 5.000000
      vertex 1.390576 -4.279754 5.000000
      vertex -0.000000 -8.200000 5.000000
    endloop
  endfacet
  facet normal 0.000000 -0.000000 1.000000
    outer loop
      vertex 4.500000 0.000000 5.000000
      vertex 4.110955 -1.830315 5.000000
      vertex 7.101408 4.100000 5.000000
    endloop
  endfacet
  facet normal 0.000000 0.000000 1.000000
    outer loop
      vertex -0.470378 4.475349 5.000000
      vertex 1.390576 4.279754 5.000000
      vertex 0.000000 8.200000 5.000000
    endloop
  endfacet
  facet normal 0.000000 0.000000 1.000000
    outer loop
      vertex -7.101408 4.100000 5.000000
      vertex -3.640576 2.645034 5.000000
      vertex 0.000000 8.200000 5.000000
    endloop
  endfacet
  facet normal 0.000000 0.000000 1.000000
    outer loop
      vertex -7.101408 4.100000 5.000000
      vertex -4.401664 0.935603 5.000000
      vertex -3.640576 2.645034 5.000000
    endloop
  endfacet
  facet normal -0.000000 -0.000000 1.000000
    outer loop
      vertex -2.250000 -3.897114 5.000000
      vertex -3.640576 -2.645034 5.000000
      vertex -0.000000 -8.200000 5.000000
    endloop
  endfacet
  facet normal 0.000000 0.000000 1.000000
    outer loop
      vertex -2.250000 3.897114 5.000000
      vertex -0.470378 4.475349 5.000000
      vertex 0.000000 8.200000 5.000000
    endloop
  endfacet
  facet normal 0.000000 0.000000 1.000000
    outer loop
      vertex 0.000000 8.200000 5.000000
      vertex 1.390576 4.279754 5.000000
      vertex 7.101408 4.100000 5.000000
    endloop
  endfacet
  facet normal 0.000000 0.000000 1.000000
    outer loop
      vertex 1.390576 4.279754 5.000000
      vertex 3.011088 3.344152 5.000000
      vertex 7.101408 4.100000 5.000000
    endloop
  endfacet
  facet normal -0.000000 -0.000000 1.000000
    outer loop
      vertex -0.470378 -4.475349 5.000000
      vertex -2.250000 -3.897114 5.000000
      vertex -0.000000 -8.200000 5.000000
    endloop
  endfacet
  facet normal 0.000000 0.000000 1.000000
    outer loop
      vertex 3.011088 3.344152 5.000000
      vertex 4.110955 1.830315 5.000000
      vertex 7.101408 4.100000 5.000000
    endloop
  endfacet
  facet normal 0.000000 0.000000 1.000000
    outer loop
      vertex 4.110955 1.830315 5.000000
      vertex 4.500000 0.000000 5.000000
      vertex 7.101408 4.100000 5.000000
    endloop
  endfacet
  facet normal 0.000000 0.000000 1.000000
    outer loop
      vertex -0.000000 -8.200000 5.000000
      vertex 7.101408 -4.100000 5.000000
      vertex 4.110955 -1.830315 5.000000
    endloop
  endfacet
  facet normal 0.000000 0.000000 1.000000
    outer loop
      vertex -0.000000 -8.200000 5.000000
      vertex 4.110955 -1.830315 5.000000
      vertex 3.011088 -3.344152 5.000000
    endloop
  endfacet
  facet normal 0.000000 0.000000 1.000000
    outer loop
      vertex -3.640576 2.645034 5.000000
      vertex -2.250000 3.897114 5.000000
      vertex 0.000000 8.200000 5.000000
    endloop
  endfacet
  facet normal 0.000000 0.000000 1.000000
    outer loop
      vertex -7.101408 -4.100000 5.000000
      vertex -3.640576 -2.645034 5.000000
      vertex -7.101408 4.100000 5.000000
    endloop
  endfacet
  facet normal 0.000000 0.000000 1.000000
    outer loop
      vertex -7.101408 -4.100000 5.000000
      vertex -0.000000 -8.200000 5.000000
      vertex -3.640576 -2.645034 5.000000
    endloop
  endfacet
  facet normal 0.000000 0.000000 1.000000
    outer loop
      vertex -3.640576 -2.645034 5.000000
      vertex -4.401664 -0.935603 5.000000
      vertex -7.101408 4.100000 5.000000
    endloop
  endfacet
  facet normal 0.000000 0.000000 1.000000
    outer loop
      vertex -4.401664 -0.935603 5.000000
      vertex -4.401664 0.935603 5.000000
      vertex -7.101408 4.100000 5.000000
    endloop
  endfacet
  facet normal 0.000000 0.000000 1.000000
    outer loop
      vertex 1.390576 -4.279754 5.000000
      vertex -0.470378 -4.475349 5.000000
      vertex -0.000000 -8.200000 5.000000
    endloop
  endfacet
  facet normal 0.000000 0.000000 1.000000
    outer loop
      vertex 13.210454 -2.144841 5.000000
      vertex 13.700000 -3.500000 5.000000
      vertex 16.731089 -1.750000 5.000000
    endloop
  endfacet
  facet normal 0.000000 -0.000000 1.000000
    outer loop
      vertex 15.071678 -1.720029 5.000000
      vertex 13.210454 -2.144841 5.000000
      vertex 16.731089 -1.750000 5.000000
    endloop
  endfacet
  facet normal 0.000000 0.000000 1.000000
    outer loop
      vertex 10.668911 1.750000 5.000000
      vertex 11.717868 0.954544 5.000000
      vertex 13.700000 3.500000 5.000000
    endloop
  endfacet
  facet normal 0.000000 0.000000 1.000000
    outer loop
      vertex 10.668911 1.750000 5.000000
      vertex 10.668911 -1.750000 5.000000
      vertex 11.717868 0.954544 5.000000
    endloop
  endfacet
  facet normal 0.000000 -0.000000 1.000000
    outer loop
      vertex 13.700000 3.500000 5.000000
      vertex 13.210454 2.144841 5.000000
      vertex 16.731089 1.750000 5.000000
    endloop
  endfacet
  facet normal 0.000000 0.000000 1.000000
    outer loop
      vertex 13.210454 2.144841 5.000000
      vertex 15.071678 1.720029 5.000000
      vertex 16.731089 1.750000 5.000000
    endloop
  endfacet
  facet normal 0.000000 0.000000 1.000000
    outer loop
      vertex 15.071678 1.720029 5.000000
      vertex 15.900000 0.000000 5.000000
      vertex 16.731089 1.750000 5.000000
    endloop
  endfacet
  facet normal 0.000000 -0.000000 1.000000
    outer loop
      vertex 16.731089 1.750000 5.000000
      vertex 15.900000 0.000000 5.000000
      vertex 16.731089 -1.750000 5.000000
    endloop
  endfacet
  facet normal 0.000000 -0.000000 1.000000
    outer loop
      vertex 15.900000 0.000000 5.000000
      vertex 15.071678 -1.720029 5.000000
      vertex 16.731089 -1.750000 5.000000
    endloop
  endfacet
  facet normal 0.000000 0.000000 1.000000
    outer loop
      vertex 10.668911 -1.750000 5.000000
      vertex 13.700000 -3.500000 5.000000
      vertex 13.210454 -2.144841 5.000000
    endloop
  endfacet
  facet normal 0.000000 0.000000 1.000000
    outer loop
      vertex 13.210454 -2.144841 5.000000
      vertex 11.717868 -0.954544 5.000000
      vertex 10.668911 -1.750000 5.000000
    endloop
  endfacet
  facet normal 0.000000 0.000000 1.000000
    outer loop
      vertex 11.717868 0.954544 5.000000
      vertex 13.210454 2.144841 5.000000
      vertex 13.700000 3.500000 5.000000
    endloop
  endfacet
  facet normal -0.000000 0.000000 1.000000
    outer loop
      vertex 11.717868 -0.954544 5.000000
      vertex 11.717868 0.954544 5.000000
      vertex 10.668911 -1.750000 5.000000
    endloop
  endfacet
  facet normal 0.000000 -1.000000 0.000000
    outer loop
      vertex 7.029622 8.200000 10.024651
      vertex 0.000000 8.200000 10.000000
      vertex 23.400000 8.200000 10.000000
    endloop
  endfacet
  facet normal 0.000000 -1.000000 0.000000
    outer loop
      vertex 0.000000 8.200000 24.000000
      vertex 0.000000 8.200000 10.000000
      vertex 3.098336 8.200000 13.564397
    endloop
  endfacet
  facet normal 0.000000 -1.000000 0.000000
    outer loop
      vertex 11.610955 8.200000 12.669685
      vertex 10.511088 8.200000 11.155848
      vertex 23.400000 8.200000 10.000000
    endloop
  endfacet
  facet normal 0.000000 -1.000000 0.000000
    outer loop
      vertex 0.000000 8.200000 24.000000
      vertex 3.098336 8.200000 13.564397
      vertex 3.098336 8.200000 15.435603
    endloop
  endfacet
  facet normal 0.000000 -1.000000 0.000000
    outer loop
      vertex 7.029622 8.200000 10.024651
      vertex 5.250000 8.200000 10.602886
      vertex 0.000000 8.200000 10.000000
    endloop
  endfacet
  facet normal 0.000000 -1.000000 0.000000
    outer loop
      vertex 0.000000 8.200000 24.000000
      vertex 3.098336 8.200000 15.435603
      vertex 3.859424 8.200000 17.145034
    endloop
  endfacet
  facet normal 0.000000 -1.000000 0.000000
    outer loop
      vertex 0.000000 8.200000 24.000000
      vertex 3.859424 8.200000 17.145034
      vertex 5.250000 8.200000 18.397114
    endloop
  endfacet
  facet normal 0.000000 -1.000000 0.000000
    outer loop
      vertex 18.710454 8.200000 12.355159
      vertex 12.000000 8.200000 14.500000
      vertex 23.400000 8.200000 10.000000
    endloop
  endfacet
  facet normal 0.000000 -1.000000 0.000000
    outer loop
      vertex 0.000000 8.200000 24.000000
      vertex 5.250000 8.200000 18.397114
      vertex 7.029622 8.200000 18.975349
    endloop
  endfacet
  facet normal 0.000000 -1.000000 0.000000
    outer loop
      vertex 23.400000 8.200000 24.000000
      vertex 0.000000 8.200000 24.000000
      vertex 8.890576 8.200000 18.779754
    endloop
  endfacet
  facet normal 0.000000 -1.000000 0.000000
    outer loop
      vertex 23.400000 8.200000 24.000000
      vertex 8.890576 8.200000 18.779754
      vertex 10.511088 8.200000 17.844152
    endloop
  endfacet
  facet normal 0.000000 -1.000000 0.000000
    outer loop
      vertex 10.511088 8.200000 11.155848
      vertex 8.890576 8.200000 10.220246
      vertex 23.400000 8.200000 10.000000
    endloop
  endfacet
  facet normal 0.000000 -1.000000 0.000000
    outer loop
      vertex 18.710454 8.200000 12.355159
      vertex 17.217868 8.200000 13.545456
      vertex 11.610955 8.200000 16.330315
    endloop
  endfacet
  facet normal 0.000000 -1.000000 0.000000
    outer loop
      vertex 8.890576 8.200000 10.220246
      vertex 7.029622 8.200000 10.024651
      vertex 23.400000 8.200000 10.000000
    endloop
  endfacet
  facet normal 0.000000 -1.000000 0.000000
    outer loop
      vertex 21.400000 8.200000 14.500000
      vertex 20.571678 8.200000 12.779971
      vertex 23.400000 8.200000 10.000000
    endloop
  endfacet
  facet normal 0.000000 -1.000000 0.000000
    outer loop
      vertex 3.859424 8.200000 11.854966
      vertex 0.000000 8.200000 10.000000
      vertex 5.250000 8.200000 10.602886
    endloop
  endfacet
  facet normal 0.000000 -1.000000 0.000000
    outer loop
      vertex 3.098336 8.200000 13.564397
      vertex 0.000000 8.200000 10.000000
      vertex 3.859424 8.200000 11.854966
    endloop
  endfacet
  facet normal 0.000000 -1.000000 0.000000
    outer loop
      vertex 23.400000 8.200000 24.000000
      vertex 10.511088 8.200000 17.844152
      vertex 17.217868 8.200000 15.454544
    endloop
  endfacet
  facet normal 0.000000 -1.000000 0.000000
    outer loop
      vertex 23.400000 8.200000 24.000000
      vertex 17.217868 8.200000 15.454544
      vertex 18.710454 8.200000 16.644841
    endloop
  endfacet
  facet normal 0.000000 -1.000000 0.000000
    outer loop
      vertex 20.571678 8.200000 12.779971
      vertex 18.710454 8.200000 12.355159
      vertex 23.400000 8.200000 10.000000
    endloop
  endfacet
  facet normal 0.000000 -1.000000 0.000000
    outer loop
      vertex 23.400000 8.200000 24.000000
      vertex 18.710454 8.200000 16.644841
      vertex 20.571678 8.200000 16.220029
    endloop
  endfacet
  facet normal 0.000000 -1.000000 0.000000
    outer loop
      vertex 23.400000 8.200000 24.000000
      vertex 21.400000 8.200000 14.500000
      vertex 23.400000 8.200000 10.000000
    endloop
  endfacet
  facet normal 0.000000 -1.000000 0.000000
    outer loop
      vertex 23.400000 8.200000 24.000000
      vertex 20.571678 8.200000 16.220029
      vertex 21.400000 8.200000 14.500000
    endloop
  endfacet
  facet normal 0.000000 -1.000000 0.000000
    outer loop
      vertex 17.217868 8.200000 13.545456
      vertex 17.217868 8.200000 15.454544
      vertex 10.511088 8.200000 17.844152
    endloop
  endfacet
  facet normal 0.000000 -1.000000 0.000000
    outer loop
      vertex 12.000000 8.200000 14.500000
      vertex 11.610955 8.200000 12.669685
      vertex 23.400000 8.200000 10.000000
    endloop
  endfacet
  facet normal 0.000000 -1.000000 0.000000
    outer loop
      vertex 11.610955 8.200000 16.330315
      vertex 12.000000 8.200000 14.500000
      vertex 18.710454 8.200000 12.355159
    endloop
  endfacet
  facet normal -0.000000 -1.000000 -0.000000
    outer loop
      vertex 7.029622 8.200000 18.975349
      vertex 8.890576 8.200000 18.779754
      vertex 0.000000 8.200000 24.000000
    endloop
  endfacet
  facet normal 0.000000 -1.000000 0.000000
    outer loop
      vertex 10.511088 8.200000 17.844152
      vertex 11.610955 8.200000 16.330315
      vertex 17.217868 8.200000 13.545456
    endloop
  endfacet
  facet normal 1.000000 -0.000000 0.000000
    outer loop
      vertex -7.101408 4.100000 5.000000
      vertex -7.101408 4.100000 10.000000
      vertex -7.101408 -4.100000 10.000000
    endloop
  endfacet
  facet normal 1.000000 -0.000000 0.000000
    outer loop
      vertex -7.101408 -4.100000 5.000000
      vertex -7.101408 4.100000 5.000000
      vertex -7.101408 -4.100000 10.000000
    endloop
  endfacet
  facet normal 0.500000 0.866025 -0.000000
    outer loop
      vertex -0.000000 -8.200000 10.000000
      vertex -0.000000 -8.200000 5.000000
      vertex -7.101408 -4.100000 10.000000
    endloop
  endfacet
  facet normal 0.500000 0.866025 -0.000000
    outer loop
      vertex -7.101408 -4.100000 10.000000
      vertex -0.000000 -8.200000 5.000000
      vertex -7.101408 -4.100000 5.000000
    endloop
  endfacet
  facet normal -0.500000 0.866025 0.000000
    outer loop
      vertex 7.101408 -4.100000 10.000000
      vertex 7.101408 -4.100000 5.000000
      vertex -0.000000 -8.200000 10.000000
    endloop
  endfacet
  facet normal -0.500000 0.866025 0.000000
    outer loop
      vertex -0.000000 -8.200000 10.000000
      vertex 7.101408 -4.100000 5.000000
      vertex -0.000000 -8.200000 5.000000
    endloop
  endfacet
  facet normal -1.000000 0.000000 0.000000
    outer loop
      vertex 7.101408 4.100000 10.000000
      vertex 7.101408 4.100000 5.000000
      vertex 7.101408 -4.100000 10.000000
    endloop
  endfacet
  facet normal -1.000000 0.000000 0.000000
    outer loop
      vertex 7.101408 -4.100000 10.000000
      vertex 7.101408 4.100000 5.000000
      vertex 7.101408 -4.100000 5.000000
    endloop
  endfacet
  facet normal -0.500000 -0.866025 -0.000000
    outer loop
      vertex 7.101408 4.100000 5.000000
      vertex 7.101408 4.100000 10.000000
      vertex 0.000000 8.200000 10.000000
    endloop
  endfacet
  facet normal -0.500000 -0.866025 -0.000000
    outer loop
      vertex 0.000000 8.200000 5.000000
      vertex 7.101408 4.100000 5.000000
      vertex 0.000000 8.200000 10.000000
    endloop
  endfacet
  facet normal 0.500000 -0.866025 0.000000
    outer loop
      vertex 0.000000 8.200000 5.000000
      vertex 0.000000 8.200000 10.000000
      vertex -7.101408 4.100000 10.000000
    endloop
  endfacet
  facet normal 0.500000 -0.866025 0.000000
    outer loop
      vertex -7.101408 4.100000 5.000000
      vertex 0.000000 8.200000 5.000000
      vertex -7.101408 4.100000 10.000000
    endloop
  endfacet
  facet normal 0.500000 0.866025 -0.000000
    outer loop
      vertex 13.700000 -3.500000 10.000000
      vertex 13.700000 -3.500000 5.000000
      vertex 10.668911 -1.750000 10.000000
    endloop
  endfacet
  facet normal 0.500000 0.866025 -0.000000
    outer loop
      vertex 10.668911 -1.750000 10.000000
      vertex 13.700000 -3.500000 5.000000
      vertex 10.668911 -1.750000 5.000000
    endloop
  endfacet
  facet normal 1.000000 0.000000 0.000000
    outer loop
      vertex 10.668911 1.750000 10.000000
      vertex 10.668911 -1.750000 10.000000
      vertex 10.668911 -1.750000 5.000000
    endloop
  endfacet
  facet normal 1.000000 0.000000 0.000000
    outer loop
      vertex 10.668911 1.750000 5.000000
      vertex 10.668911 1.750000 10.000000
      vertex 10.668911 -1.750000 5.000000
    endloop
  endfacet
  facet normal -0.500000 0.866025 0.000000
    outer loop
      vertex 16.731089 -1.750000 10.000000
      vertex 16.731089 -1.750000 5.000000
      vertex 13.700000 -3.500000 10.000000
    endloop
  endfacet
  facet normal -0.500000 0.866025 0.000000
    outer loop
      vertex 13.700000 -3.500000 10.000000
      vertex 16.731089 -1.750000 5.000000
      vertex 13.700000 -3.500000 5.000000
    endloop
  endfacet
  facet normal -1.000000 -0.000000 0.000000
    outer loop
      vertex 16.731089 -1.750000 10.000000
      vertex 16.731089 1.750000 10.000000
      vertex 16.731089 -1.750000 5.000000
    endloop
  endfacet
  facet normal -1.000000 -0.000000 0.000000
    outer loop
      vertex 16.731089 -1.750000 5.000000
      vertex 16.731089 1.750000 10.000000
      vertex 16.731089 1.750000 5.000000
    endloop
  endfacet
  facet normal -0.500000 -0.866025 -0.000000
    outer loop
      vertex 16.731089 1.750000 5.000000
      vertex 16.731089 1.750000 10.000000
      vertex 13.700000 3.500000 10.000000
    endloop
  endfacet
  facet normal -0.500000 -0.866025 -0.000000
    outer loop
      vertex 13.700000 3.500000 5.000000
      vertex 16.731089 1.750000 5.000000
      vertex 13.700000 3.500000 10.000000
    endloop
  endfacet
  facet normal 0.500000 -0.866025 0.000000
    outer loop
      vertex 13.700000 3.500000 5.000000
      vertex 13.700000 3.500000 10.000000
      vertex 10.668911 1.750000 10.000000
    endloop
  endfacet
  facet normal 0.500000 -0.866025 0.000000
    outer loop
      vertex 10.668911 1.750000 5.000000
      vertex 13.700000 3.500000 5.000000
      vertex 10.668911 1.750000 10.000000
    endloop
  endfacet
endsolid OpenSCAD_Model
