solid OpenSCAD_Model
  facet normal -1.000000 -0.000000 -0.000000
    outer loop
      vertex -27.000000 0.000000 0.000000
      vertex -27.000000 0.000000 10.000000
      vertex -27.000000 4.000000 0.000000
    endloop
  endfacet
  facet normal -1.000000 0.000000 0.000000
    outer loop
      vertex -27.000000 4.000000 0.000000
      vertex -27.000000 0.000000 10.000000
      vertex -27.000000 4.000000 10.000000
    endloop
  endfacet
  facet normal 0.000000 -1.000000 0.000000
    outer loop
      vertex -23.320163 0.000000 2.907676
      vertex -27.000000 0.000000 0.000000
      vertex 23.300000 0.000000 0.000000
    endloop
  endfacet
  facet normal -0.000000 -1.000000 0.000000
    outer loop
      vertex -3.320163 0.000000 7.092324
      vertex -2.220163 0.000000 6.293128
      vertex 23.300000 0.000000 10.000000
    endloop
  endfacet
  facet normal 0.000000 -1.000000 0.000000
    outer loop
      vertex -26.200000 0.000000 5.000000
      vertex -27.000000 0.000000 0.000000
      vertex -25.779837 0.000000 3.706872
    endloop
  endfacet
  facet normal 0.000000 -1.000000 0.000000
    outer loop
      vertex -27.000000 0.000000 10.000000
      vertex -27.000000 0.000000 0.000000
      vertex -26.200000 0.000000 5.000000
    endloop
  endfacet
  facet normal 0.000000 -1.000000 0.000000
    outer loop
      vertex -4.679837 0.000000 2.907676
      vertex -21.800000 0.000000 5.000000
      vertex -22.220163 0.000000 3.706872
    endloop
  endfacet
  facet normal 0.000000 -1.000000 0.000000
    outer loop
      vertex -22.220163 0.000000 6.293128
      vertex -21.800000 0.000000 5.000000
      vertex -5.779837 0.000000 3.706872
    endloop
  endfacet
  facet normal 0.000000 -1.000000 0.000000
    outer loop
      vertex -27.000000 0.000000 10.000000
      vertex -25.779837 0.000000 6.293128
      vertex -24.679837 0.000000 7.092324
    endloop
  endfacet
  facet normal 0.000000 -1.000000 0.000000
    outer loop
      vertex -2.220163 0.000000 3.706872
      vertex -3.320163 0.000000 2.907676
      vertex 23.300000 0.000000 0.000000
    endloop
  endfacet
  facet normal 0.000000 -1.000000 0.000000
    outer loop
      vertex -27.000000 0.000000 10.000000
      vertex -24.679837 0.000000 7.092324
      vertex -23.320163 0.000000 7.092324
    endloop
  endfacet
  facet normal 0.000000 -1.000000 0.000000
    outer loop
      vertex -4.679837 0.000000 2.907676
      vertex -22.220163 0.000000 3.706872
      vertex 23.300000 0.000000 0.000000
    endloop
  endfacet
  facet normal 0.000000 -1.000000 0.000000
    outer loop
      vertex -24.679837 0.000000 2.907676
      vertex -27.000000 0.000000 0.000000
      vertex -23.320163 0.000000 2.907676
    endloop
  endfacet
  facet normal 0.000000 -1.000000 0.000000
    outer loop
      vertex -25.779837 0.000000 3.706872
      vertex -27.000000 0.000000 0.000000
      vertex -24.679837 0.000000 2.907676
    endloop
  endfacet
  facet normal 0.000000 -1.000000 0.000000
    outer loop
      vertex -22.220163 0.000000 3.706872
      vertex -23.320163 0.000000 2.907676
      vertex 23.300000 0.000000 0.000000
    endloop
  endfacet
  facet normal -0.000000 -1.000000 0.000000
    outer loop
      vertex 17.679837 0.000000 7.092324
      vertex 18.779837 0.000000 6.293128
      vertex 23.300000 0.000000 10.000000
    endloop
  endfacet
  facet normal 0.000000 -1.000000 0.000000
    outer loop
      vertex -27.000000 0.000000 10.000000
      vertex -23.320163 0.000000 7.092324
      vertex -6.200000 0.000000 5.000000
    endloop
  endfacet
  facet normal 0.000000 -1.000000 0.000000
    outer loop
      vertex -1.800000 0.000000 5.000000
      vertex -2.220163 0.000000 3.706872
      vertex 23.300000 0.000000 0.000000
    endloop
  endfacet
  facet normal 0.000000 -1.000000 0.000000
    outer loop
      vertex -4.679837 0.000000 7.092324
      vertex -27.000000 0.000000 10.000000
      vertex -5.779837 0.000000 6.293128
    endloop
  endfacet
  facet normal 0.000000 -1.000000 0.000000
    outer loop
      vertex 23.300000 0.000000 10.000000
      vertex -27.000000 0.000000 10.000000
      vertex -4.679837 0.000000 7.092324
    endloop
  endfacet
  facet normal 0.000000 -1.000000 0.000000
    outer loop
      vertex -2.220163 0.000000 6.293128
      vertex -1.800000 0.000000 5.000000
      vertex 23.300000 0.000000 0.000000
    endloop
  endfacet
  facet normal 0.000000 -1.000000 0.000000
    outer loop
      vertex 23.300000 0.000000 10.000000
      vertex -4.679837 0.000000 7.092324
      vertex -3.320163 0.000000 7.092324
    endloop
  endfacet
  facet normal 0.000000 -1.000000 0.000000
    outer loop
      vertex 16.320163 0.000000 2.907676
      vertex -2.220163 0.000000 6.293128
      vertex 23.300000 0.000000 0.000000
    endloop
  endfacet
  facet normal -0.000000 -1.000000 0.000000
    outer loop
      vertex 16.320163 0.000000 7.092324
      vertex 17.679837 0.000000 7.092324
      vertex 23.300000 0.000000 10.000000
    endloop
  endfacet
  facet normal 0.000000 -1.000000 0.000000
    outer loop
      vertex -3.320163 0.000000 2.907676
      vertex -4.679837 0.000000 2.907676
      vertex 23.300000 0.000000 0.000000
    endloop
  endfacet
  facet normal 0.000000 -1.000000 0.000000
    outer loop
      vertex -5.779837 0.000000 3.706872
      vertex -23.320163 0.000000 7.092324
      vertex -22.220163 0.000000 6.293128
    endloop
  endfacet
  facet normal 0.000000 -1.000000 0.000000
    outer loop
      vertex 14.800000 0.000000 5.000000
      vertex -2.220163 0.000000 6.293128
      vertex 15.220163 0.000000 3.706872
    endloop
  endfacet
  facet normal 0.000000 -1.000000 0.000000
    outer loop
      vertex 17.679837 0.000000 2.907676
      vertex 16.320163 0.000000 2.907676
      vertex 23.300000 0.000000 0.000000
    endloop
  endfacet
  facet normal 0.000000 -1.000000 0.000000
    outer loop
      vertex 15.220163 0.000000 6.293128
      vertex -2.220163 0.000000 6.293128
      vertex 14.800000 0.000000 5.000000
    endloop
  endfacet
  facet normal 0.000000 -1.000000 0.000000
    outer loop
      vertex 16.320163 0.000000 7.092324
      vertex -2.220163 0.000000 6.293128
      vertex 15.220163 0.000000 6.293128
    endloop
  endfacet
  facet normal 0.000000 -1.000000 0.000000
    outer loop
      vertex 23.300000 0.000000 10.000000
      vertex -2.220163 0.000000 6.293128
      vertex 16.320163 0.000000 7.092324
    endloop
  endfacet
  facet normal 0.000000 -1.000000 0.000000
    outer loop
      vertex 23.300000 0.000000 10.000000
      vertex 18.779837 0.000000 6.293128
      vertex 23.300000 0.000000 0.000000
    endloop
  endfacet
  facet normal 0.000000 -1.000000 0.000000
    outer loop
      vertex 18.779837 0.000000 6.293128
      vertex 19.200000 0.000000 5.000000
      vertex 23.300000 0.000000 0.000000
    endloop
  endfacet
  facet normal 0.000000 -1.000000 0.000000
    outer loop
      vertex 19.200000 0.000000 5.000000
      vertex 18.779837 0.000000 3.706872
      vertex 23.300000 0.000000 0.000000
    endloop
  endfacet
  facet normal 0.000000 -1.000000 0.000000
    outer loop
      vertex 18.779837 0.000000 3.706872
      vertex 17.679837 0.000000 2.907676
      vertex 23.300000 0.000000 0.000000
    endloop
  endfacet
  facet normal 0.000000 -1.000000 0.000000
    outer loop
      vertex 15.220163 0.000000 3.706872
      vertex -2.220163 0.000000 6.293128
      vertex 16.320163 0.000000 2.907676
    endloop
  endfacet
  facet normal 0.000000 -1.000000 -0.000000
    outer loop
      vertex -26.200000 0.000000 5.000000
      vertex -25.779837 0.000000 6.293128
      vertex -27.000000 0.000000 10.000000
    endloop
  endfacet
  facet normal 0.000000 -1.000000 -0.000000
    outer loop
      vertex -6.200000 0.000000 5.000000
      vertex -5.779837 0.000000 6.293128
      vertex -27.000000 0.000000 10.000000
    endloop
  endfacet
  facet normal 0.000000 -1.000000 0.000000
    outer loop
      vertex -4.679837 0.000000 2.907676
      vertex -5.779837 0.000000 3.706872
      vertex -21.800000 0.000000 5.000000
    endloop
  endfacet
  facet normal 0.000000 -1.000000 0.000000
    outer loop
      vertex -5.779837 0.000000 3.706872
      vertex -6.200000 0.000000 5.000000
      vertex -23.320163 0.000000 7.092324
    endloop
  endfacet
  facet normal -0.000000 -0.000000 -1.000000
    outer loop
      vertex -27.000000 0.000000 0.000000
      vertex -27.000000 4.000000 0.000000
      vertex 23.300000 0.000000 0.000000
    endloop
  endfacet
  facet normal 0.000000 0.000000 -1.000000
    outer loop
      vertex 23.300000 0.000000 0.000000
      vertex -27.000000 4.000000 0.000000
      vertex 1.089830 4.000000 0.000000
    endloop
  endfacet
  facet normal 0.000000 0.000000 -1.000000
    outer loop
      vertex 5.550000 3.902886 0.000000
      vertex 1.089830 4.000000 0.000000
      vertex 0.381759 5.389667 0.000000
    endloop
  endfacet
  facet normal 0.000000 0.000000 -1.000000
    outer loop
      vertex 3.571383 6.260909 0.000000
      vertex 0.381759 5.389667 0.000000
      vertex 0.000000 7.800000 0.000000
    endloop
  endfacet
  facet normal 0.000000 0.000000 -1.000000
    outer loop
      vertex 3.300000 7.800000 0.000000
      vertex 0.000000 7.800000 0.000000
      vertex 0.381759 10.210333 0.000000
    endloop
  endfacet
  facet normal 0.000000 0.000000 -1.000000
    outer loop
      vertex 4.352800 10.692544 0.000000
      vertex 0.381759 10.210333 0.000000
      vertex 1.489667 12.384725 0.000000
    endloop
  endfacet
  facet normal 0.000000 0.000000 -1.000000
    outer loop
      vertex 5.550000 11.697114 0.000000
      vertex 1.489667 12.384725 0.000000
      vertex 3.215275 14.110333 0.000000
    endloop
  endfacet
  facet normal 0.000000 0.000000 -1.000000
    outer loop
      vertex 8.581417 12.231635 0.000000
      vertex 3.215275 14.110333 0.000000
      vertex 5.389667 15.218241 0.000000
    endloop
  endfacet
  facet normal 0.000000 0.000000 -1.000000
    outer loop
      vertex 10.050000 11.697114 0.000000
      vertex 5.389667 15.218241 0.000000
      vertex 7.800000 15.600000 0.000000
    endloop
  endfacet
  facet normal 0.000000 0.000000 -1.000000
    outer loop
      vertex 23.300000 11.550000 0.000000
      vertex 7.800000 15.600000 0.000000
      vertex 23.300000 15.600000 0.000000
    endloop
  endfacet
  facet normal -0.000000 -0.000000 -1.000000
    outer loop
      vertex 8.581417 12.231635 0.000000
      vertex 5.389667 15.218241 0.000000
      vertex 10.050000 11.697114 0.000000
    endloop
  endfacet
  facet normal 0.000000 0.000000 -1.000000
    outer loop
      vertex 10.225324 11.550000 0.000000
      vertex 10.050000 11.697114 0.000000
      vertex 7.800000 15.600000 0.000000
    endloop
  endfacet
  facet normal -0.000000 -0.000000 -1.000000
    outer loop
      vertex 7.018583 12.231635 0.000000
      vertex 3.215275 14.110333 0.000000
      vertex 8.581417 12.231635 0.000000
    endloop
  endfacet
  facet normal 0.000000 -0.000000 -1.000000
    outer loop
      vertex 5.550000 11.697114 0.000000
      vertex 3.215275 14.110333 0.000000
      vertex 7.018583 12.231635 0.000000
    endloop
  endfacet
  facet normal 0.000000 -0.000000 -1.000000
    outer loop
      vertex 4.352800 10.692544 0.000000
      vertex 1.489667 12.384725 0.000000
      vertex 5.550000 11.697114 0.000000
    endloop
  endfacet
  facet normal 0.000000 -0.000000 -1.000000
    outer loop
      vertex 3.571383 9.339091 0.000000
      vertex 0.381759 10.210333 0.000000
      vertex 4.352800 10.692544 0.000000
    endloop
  endfacet
  facet normal 0.000000 -0.000000 -1.000000
    outer loop
      vertex 3.300000 7.800000 0.000000
      vertex 0.381759 10.210333 0.000000
      vertex 3.571383 9.339091 0.000000
    endloop
  endfacet
  facet normal 0.000000 0.000000 -1.000000
    outer loop
      vertex 3.571383 6.260909 0.000000
      vertex 0.000000 7.800000 0.000000
      vertex 3.300000 7.800000 0.000000
    endloop
  endfacet
  facet normal 0.000000 0.000000 -1.000000
    outer loop
      vertex 4.352800 4.907456 0.000000
      vertex 0.381759 5.389667 0.000000
      vertex 3.571383 6.260909 0.000000
    endloop
  endfacet
  facet normal 0.000000 0.000000 -1.000000
    outer loop
      vertex 5.550000 3.902886 0.000000
      vertex 0.381759 5.389667 0.000000
      vertex 4.352800 4.907456 0.000000
    endloop
  endfacet
  facet normal 0.000000 0.000000 -1.000000
    outer loop
      vertex 7.018583 3.368365 0.000000
      vertex 1.089830 4.000000 0.000000
      vertex 5.550000 3.902886 0.000000
    endloop
  endfacet
  facet normal 0.000000 0.000000 -1.000000
    outer loop
      vertex 8.581417 3.368365 0.000000
      vertex 23.300000 0.000000 0.000000
      vertex 7.018583 3.368365 0.000000
    endloop
  endfacet
  facet normal 0.000000 0.000000 -1.000000
    outer loop
      vertex 23.300000 0.000000 0.000000
      vertex 1.089830 4.000000 0.000000
      vertex 7.018583 3.368365 0.000000
    endloop
  endfacet
  facet normal 0.000000 0.000000 -1.000000
    outer loop
      vertex 10.050000 3.902886 0.000000
      vertex 23.300000 0.000000 0.000000
      vertex 8.581417 3.368365 0.000000
    endloop
  endfacet
  facet normal 0.000000 0.000000 -1.000000
    outer loop
      vertex 23.300000 4.050000 0.000000
      vertex 23.300000 0.000000 0.000000
      vertex 10.225324 4.050000 0.000000
    endloop
  endfacet
  facet normal 0.000000 0.000000 -1.000000
    outer loop
      vertex 23.300000 0.000000 0.000000
      vertex 10.050000 3.902886 0.000000
      vertex 10.225324 4.050000 0.000000
    endloop
  endfacet
  facet normal -0.000000 -0.000000 -1.000000
    outer loop
      vertex 10.225324 11.550000 0.000000
      vertex 7.800000 15.600000 0.000000
      vertex 23.300000 11.550000 0.000000
    endloop
  endfacet
  facet normal 0.000000 1.000000 0.000000
    outer loop
      vertex -22.220163 4.000000 6.293128
      vertex -27.000000 4.000000 10.000000
      vertex 1.089830 4.000000 0.000000
    endloop
  endfacet
  facet normal 0.000000 1.000000 0.000000
    outer loop
      vertex -3.320163 4.000000 7.092324
      vertex -27.000000 4.000000 10.000000
      vertex 1.089830 4.000000 10.000000
    endloop
  endfacet
  facet normal 0.000000 1.000000 0.000000
    outer loop
      vertex -27.000000 4.000000 0.000000
      vertex -27.000000 4.000000 10.000000
      vertex -26.200000 4.000000 5.000000
    endloop
  endfacet
  facet normal 0.000000 1.000000 0.000000
    outer loop
      vertex -27.000000 4.000000 0.000000
      vertex -26.200000 4.000000 5.000000
      vertex -25.779837 4.000000 3.706872
    endloop
  endfacet
  facet normal 0.000000 1.000000 0.000000
    outer loop
      vertex -27.000000 4.000000 0.000000
      vertex -25.779837 4.000000 3.706872
      vertex -24.679837 4.000000 2.907676
    endloop
  endfacet
  facet normal 0.000000 1.000000 0.000000
    outer loop
      vertex -27.000000 4.000000 0.000000
      vertex -24.679837 4.000000 2.907676
      vertex 1.089830 4.000000 0.000000
    endloop
  endfacet
  facet normal 0.000000 1.000000 0.000000
    outer loop
      vertex -24.679837 4.000000 2.907676
      vertex -23.320163 4.000000 2.907676
      vertex 1.089830 4.000000 0.000000
    endloop
  endfacet
  facet normal 0.000000 1.000000 -0.000000
    outer loop
      vertex -21.800000 4.000000 5.000000
      vertex 1.089830 4.000000 0.000000
      vertex -22.220163 4.000000 3.706872
    endloop
  endfacet
  facet normal 0.000000 1.000000 -0.000000
    outer loop
      vertex -3.320163 4.000000 2.907676
      vertex 1.089830 4.000000 0.000000
      vertex -4.679837 4.000000 2.907676
    endloop
  endfacet
  facet normal 0.000000 1.000000 0.000000
    outer loop
      vertex -24.679837 4.000000 7.092324
      vertex -27.000000 4.000000 10.000000
      vertex -23.320163 4.000000 7.092324
    endloop
  endfacet
  facet normal 0.000000 1.000000 0.000000
    outer loop
      vertex -23.320163 4.000000 7.092324
      vertex -27.000000 4.000000 10.000000
      vertex -22.220163 4.000000 6.293128
    endloop
  endfacet
  facet normal 0.000000 1.000000 0.000000
    outer loop
      vertex -21.800000 4.000000 5.000000
      vertex -22.220163 4.000000 6.293128
      vertex 1.089830 4.000000 0.000000
    endloop
  endfacet
  facet normal 0.000000 1.000000 0.000000
    outer loop
      vertex -25.779837 4.000000 6.293128
      vertex -27.000000 4.000000 10.000000
      vertex -24.679837 4.000000 7.092324
    endloop
  endfacet
  facet normal 0.000000 1.000000 0.000000
    outer loop
      vertex -26.200000 4.000000 5.000000
      vertex -27.000000 4.000000 10.000000
      vertex -25.779837 4.000000 6.293128
    endloop
  endfacet
  facet normal 0.000000 1.000000 0.000000
    outer loop
      vertex -5.779837 4.000000 3.706872
      vertex -27.000000 4.000000 10.000000
      vertex -6.200000 4.000000 5.000000
    endloop
  endfacet
  facet normal 0.000000 1.000000 0.000000
    outer loop
      vertex -4.679837 4.000000 2.907676
      vertex -27.000000 4.000000 10.000000
      vertex -5.779837 4.000000 3.706872
    endloop
  endfacet
  facet normal 0.000000 1.000000 0.000000
    outer loop
      vertex 1.089830 4.000000 0.000000
      vertex -27.000000 4.000000 10.000000
      vertex -4.679837 4.000000 2.907676
    endloop
  endfacet
  facet normal 0.000000 1.000000 -0.000000
    outer loop
      vertex -2.220163 4.000000 3.706872
      vertex 1.089830 4.000000 0.000000
      vertex -3.320163 4.000000 2.907676
    endloop
  endfacet
  facet normal 0.000000 1.000000 0.000000
    outer loop
      vertex -3.320163 4.000000 7.092324
      vertex 1.089830 4.000000 10.000000
      vertex -2.220163 4.000000 6.293128
    endloop
  endfacet
  facet normal 0.000000 1.000000 0.000000
    outer loop
      vertex 1.089830 4.000000 0.000000
      vertex -2.220163 4.000000 3.706872
      vertex 1.089830 4.000000 10.000000
    endloop
  endfacet
  facet normal 0.000000 1.000000 0.000000
    outer loop
      vertex -2.220163 4.000000 3.706872
      vertex -1.800000 4.000000 5.000000
      vertex 1.089830 4.000000 10.000000
    endloop
  endfacet
  facet normal 0.000000 1.000000 0.000000
    outer loop
      vertex -1.800000 4.000000 5.000000
      vertex -2.220163 4.000000 6.293128
      vertex 1.089830 4.000000 10.000000
    endloop
  endfacet
  facet normal 0.000000 1.000000 0.000000
    outer loop
      vertex -4.679837 4.000000 7.092324
      vertex -27.000000 4.000000 10.000000
      vertex -3.320163 4.000000 7.092324
    endloop
  endfacet
  facet normal 0.000000 1.000000 0.000000
    outer loop
      vertex -5.779837 4.000000 6.293128
      vertex -27.000000 4.000000 10.000000
      vertex -4.679837 4.000000 7.092324
    endloop
  endfacet
  facet normal 0.000000 1.000000 0.000000
    outer loop
      vertex -6.200000 4.000000 5.000000
      vertex -27.000000 4.000000 10.000000
      vertex -5.779837 4.000000 6.293128
    endloop
  endfacet
  facet normal 0.000000 1.000000 -0.000000
    outer loop
      vertex -22.220163 4.000000 3.706872
      vertex 1.089830 4.000000 0.000000
      vertex -23.320163 4.000000 2.907676
    endloop
  endfacet
  facet normal 0.000000 -0.000000 1.000000
    outer loop
      vertex -27.000000 4.000000 10.000000
      vertex -27.000000 0.000000 10.000000
      vertex 23.300000 0.000000 10.000000
    endloop
  endfacet
  facet normal 0.000000 0.000000 1.000000
    outer loop
      vertex 5.550000 3.902886 10.000000
      vertex 1.089830 4.000000 10.000000
      vertex -27.000000 4.000000 10.000000
    endloop
  endfacet
  facet normal -0.000000 -0.000000 1.000000
    outer loop
      vertex 7.018583 3.368365 10.000000
      vertex -27.000000 4.000000 10.000000
      vertex 23.300000 0.000000 10.000000
    endloop
  endfacet
  facet normal 0.000000 0.000000 1.000000
    outer loop
      vertex 23.300000 4.050000 10.000000
      vertex 10.050000 3.902886 10.000000
      vertex 23.300000 0.000000 10.000000
    endloop
  endfacet
  facet normal 0.000000 -0.000000 1.000000
    outer loop
      vertex 10.050000 3.902886 10.000000
      vertex 8.581417 3.368365 10.000000
      vertex 23.300000 0.000000 10.000000
    endloop
  endfacet
  facet normal 0.000000 -0.000000 1.000000
    outer loop
      vertex 8.581417 3.368365 10.000000
      vertex 7.018583 3.368365 10.000000
      vertex 23.300000 0.000000 10.000000
    endloop
  endfacet
  facet normal 0.000000 0.000000 1.000000
    outer loop
      vertex 0.381759 5.389667 10.000000
      vertex 1.089830 4.000000 10.000000
      vertex 4.352800 4.907456 10.000000
    endloop
  endfacet
  facet normal 0.000000 0.000000 1.000000
    outer loop
      vertex 0.000000 7.800000 10.000000
      vertex 3.571383 6.260909 10.000000
      vertex 3.300000 7.800000 10.000000
    endloop
  endfacet
  facet normal 0.000000 0.000000 1.000000
    outer loop
      vertex 0.000000 7.800000 10.000000
      vertex 0.381759 5.389667 10.000000
      vertex 3.571383 6.260909 10.000000
    endloop
  endfacet
  facet normal 0.000000 0.000000 1.000000
    outer loop
      vertex 0.381759 10.210333 10.000000
      vertex 3.571383 9.339091 10.000000
      vertex 4.352800 10.692544 10.000000
    endloop
  endfacet
  facet normal 0.000000 -0.000000 1.000000
    outer loop
      vertex 0.381759 10.210333 10.000000
      vertex 0.000000 7.800000 10.000000
      vertex 3.571383 9.339091 10.000000
    endloop
  endfacet
  facet normal 0.000000 0.000000 1.000000
    outer loop
      vertex 23.300000 15.600000 10.000000
      vertex 7.018583 12.231635 10.000000
      vertex 8.581417 12.231635 10.000000
    endloop
  endfacet
  facet normal 0.000000 0.000000 1.000000
    outer loop
      vertex 23.300000 11.550000 10.000000
      vertex 8.581417 12.231635 10.000000
      vertex 10.050000 11.697114 10.000000
    endloop
  endfacet
  facet normal 0.000000 -0.000000 1.000000
    outer loop
      vertex 3.215275 14.110333 10.000000
      vertex 1.489667 12.384725 10.000000
      vertex 7.800000 15.600000 10.000000
    endloop
  endfacet
  facet normal 0.000000 0.000000 1.000000
    outer loop
      vertex 23.300000 15.600000 10.000000
      vertex 8.581417 12.231635 10.000000
      vertex 23.300000 11.550000 10.000000
    endloop
  endfacet
  facet normal 0.000000 -0.000000 1.000000
    outer loop
      vertex 7.800000 15.600000 10.000000
      vertex 7.018583 12.231635 10.000000
      vertex 23.300000 15.600000 10.000000
    endloop
  endfacet
  facet normal 0.000000 0.000000 1.000000
    outer loop
      vertex 1.489667 12.384725 10.000000
      vertex 5.550000 11.697114 10.000000
      vertex 7.018583 12.231635 10.000000
    endloop
  endfacet
  facet normal 0.000000 -0.000000 1.000000
    outer loop
      vertex 5.389667 15.218241 10.000000
      vertex 3.215275 14.110333 10.000000
      vertex 7.800000 15.600000 10.000000
    endloop
  endfacet
  facet normal 0.000000 0.000000 1.000000
    outer loop
      vertex 7.800000 15.600000 10.000000
      vertex 1.489667 12.384725 10.000000
      vertex 7.018583 12.231635 10.000000
    endloop
  endfacet
  facet normal 0.000000 0.000000 1.000000
    outer loop
      vertex 5.550000 11.697114 10.000000
      vertex 0.381759 10.210333 10.000000
      vertex 4.352800 10.692544 10.000000
    endloop
  endfacet
  facet normal 0.000000 0.000000 1.000000
    outer loop
      vertex 3.571383 9.339091 10.000000
      vertex 0.000000 7.800000 10.000000
      vertex 3.300000 7.800000 10.000000
    endloop
  endfacet
  facet normal 0.000000 -0.000000 1.000000
    outer loop
      vertex 3.571383 6.260909 10.000000
      vertex 0.381759 5.389667 10.000000
      vertex 4.352800 4.907456 10.000000
    endloop
  endfacet
  facet normal 0.000000 0.000000 1.000000
    outer loop
      vertex 7.018583 3.368365 10.000000
      vertex 5.550000 3.902886 10.000000
      vertex -27.000000 4.000000 10.000000
    endloop
  endfacet
  facet normal 0.000000 0.000000 1.000000
    outer loop
      vertex 10.225324 11.550000 10.000000
      vertex 23.300000 11.550000 10.000000
      vertex 10.050000 11.697114 10.000000
    endloop
  endfacet
  facet normal 0.000000 -0.000000 1.000000
    outer loop
      vertex 1.489667 12.384725 10.000000
      vertex 0.381759 10.210333 10.000000
      vertex 5.550000 11.697114 10.000000
    endloop
  endfacet
  facet normal 0.000000 -0.000000 1.000000
    outer loop
      vertex 10.225324 4.050000 10.000000
      vertex 10.050000 3.902886 10.000000
      vertex 23.300000 4.050000 10.000000
    endloop
  endfacet
  facet normal 0.000000 0.000000 1.000000
    outer loop
      vertex 5.550000 3.902886 10.000000
      vertex 4.352800 4.907456 10.000000
      vertex 1.089830 4.000000 10.000000
    endloop
  endfacet
  facet normal 1.000000 0.000000 -0.000000
    outer loop
      vertex 23.300000 0.000000 10.000000
      vertex 23.300000 0.000000 0.000000
      vertex 23.300000 4.050000 0.000000
    endloop
  endfacet
  facet normal 1.000000 0.000000 0.000000
    outer loop
      vertex 23.300000 4.050000 10.000000
      vertex 23.300000 0.000000 10.000000
      vertex 23.300000 4.050000 0.000000
    endloop
  endfacet
  facet normal 0.587785 0.000000 0.809017
    outer loop
      vertex -24.679837 0.000000 2.907676
      vertex -24.679837 4.000000 2.907676
      vertex -25.779837 4.000000 3.706872
    endloop
  endfacet
  facet normal 0.587785 0.000000 0.809017
    outer loop
      vertex -25.779837 0.000000 3.706872
      vertex -24.679837 0.000000 2.907676
      vertex -25.779837 4.000000 3.706872
    endloop
  endfacet
  facet normal 0.951056 0.000000 0.309017
    outer loop
      vertex -25.779837 0.000000 3.706872
      vertex -25.779837 4.000000 3.706872
      vertex -26.200000 4.000000 5.000000
    endloop
  endfacet
  facet normal 0.951056 0.000000 0.309017
    outer loop
      vertex -26.200000 0.000000 5.000000
      vertex -25.779837 0.000000 3.706872
      vertex -26.200000 4.000000 5.000000
    endloop
  endfacet
  facet normal 0.000000 0.000000 1.000000
    outer loop
      vertex -23.320163 0.000000 2.907676
      vertex -23.320163 4.000000 2.907676
      vertex -24.679837 4.000000 2.907676
    endloop
  endfacet
  facet normal 0.000000 0.000000 1.000000
    outer loop
      vertex -24.679837 0.000000 2.907676
      vertex -23.320163 0.000000 2.907676
      vertex -24.679837 4.000000 2.907676
    endloop
  endfacet
  facet normal -0.587785 0.000000 0.809017
    outer loop
      vertex -22.220163 0.000000 3.706872
      vertex -22.220163 4.000000 3.706872
      vertex -23.320163 4.000000 2.907676
    endloop
  endfacet
  facet normal -0.587785 0.000000 0.809017
    outer loop
      vertex -23.320163 0.000000 2.907676
      vertex -22.220163 0.000000 3.706872
      vertex -23.320163 4.000000 2.907676
    endloop
  endfacet
  facet normal -0.951056 0.000000 0.309017
    outer loop
      vertex -21.800000 4.000000 5.000000
      vertex -22.220163 4.000000 3.706872
      vertex -21.800000 0.000000 5.000000
    endloop
  endfacet
  facet normal -0.951056 0.000000 0.309017
    outer loop
      vertex -21.800000 0.000000 5.000000
      vertex -22.220163 4.000000 3.706872
      vertex -22.220163 0.000000 3.706872
    endloop
  endfacet
  facet normal -0.951056 -0.000000 -0.309017
    outer loop
      vertex -21.800000 4.000000 5.000000
      vertex -21.800000 0.000000 5.000000
      vertex -22.220163 4.000000 6.293128
    endloop
  endfacet
  facet normal -0.951056 0.000000 -0.309017
    outer loop
      vertex -22.220163 4.000000 6.293128
      vertex -21.800000 0.000000 5.000000
      vertex -22.220163 0.000000 6.293128
    endloop
  endfacet
  facet normal -0.587785 0.000000 -0.809017
    outer loop
      vertex -22.220163 4.000000 6.293128
      vertex -22.220163 0.000000 6.293128
      vertex -23.320163 4.000000 7.092324
    endloop
  endfacet
  facet normal -0.587785 0.000000 -0.809017
    outer loop
      vertex -23.320163 4.000000 7.092324
      vertex -22.220163 0.000000 6.293128
      vertex -23.320163 0.000000 7.092324
    endloop
  endfacet
  facet normal 0.000000 0.000000 -1.000000
    outer loop
      vertex -23.320163 4.000000 7.092324
      vertex -23.320163 0.000000 7.092324
      vertex -24.679837 4.000000 7.092324
    endloop
  endfacet
  facet normal 0.000000 0.000000 -1.000000
    outer loop
      vertex -24.679837 4.000000 7.092324
      vertex -23.320163 0.000000 7.092324
      vertex -24.679837 0.000000 7.092324
    endloop
  endfacet
  facet normal 0.587785 0.000000 -0.809017
    outer loop
      vertex -24.679837 4.000000 7.092324
      vertex -24.679837 0.000000 7.092324
      vertex -25.779837 4.000000 6.293128
    endloop
  endfacet
  facet normal 0.587785 0.000000 -0.809017
    outer loop
      vertex -25.779837 4.000000 6.293128
      vertex -24.679837 0.000000 7.092324
      vertex -25.779837 0.000000 6.293128
    endloop
  endfacet
  facet normal 0.951056 0.000000 -0.309017
    outer loop
      vertex -26.200000 4.000000 5.000000
      vertex -25.779837 4.000000 6.293128
      vertex -25.779837 0.000000 6.293128
    endloop
  endfacet
  facet normal 0.951056 -0.000000 -0.309017
    outer loop
      vertex -26.200000 0.000000 5.000000
      vertex -26.200000 4.000000 5.000000
      vertex -25.779837 0.000000 6.293128
    endloop
  endfacet
  facet normal 0.951056 0.000000 0.309017
    outer loop
      vertex -5.779837 0.000000 3.706872
      vertex -5.779837 4.000000 3.706872
      vertex -6.200000 4.000000 5.000000
    endloop
  endfacet
  facet normal 0.951056 0.000000 0.309017
    outer loop
      vertex -6.200000 0.000000 5.000000
      vertex -5.779837 0.000000 3.706872
      vertex -6.200000 4.000000 5.000000
    endloop
  endfacet
  facet normal 0.587785 0.000000 0.809017
    outer loop
      vertex -4.679837 0.000000 2.907676
      vertex -4.679837 4.000000 2.907676
      vertex -5.779837 4.000000 3.706872
    endloop
  endfacet
  facet normal 0.587785 0.000000 0.809017
    outer loop
      vertex -5.779837 0.000000 3.706872
      vertex -4.679837 0.000000 2.907676
      vertex -5.779837 4.000000 3.706872
    endloop
  endfacet
  facet normal 0.000000 0.000000 1.000000
    outer loop
      vertex -3.320163 0.000000 2.907676
      vertex -3.320163 4.000000 2.907676
      vertex -4.679837 4.000000 2.907676
    endloop
  endfacet
  facet normal 0.000000 0.000000 1.000000
    outer loop
      vertex -4.679837 0.000000 2.907676
      vertex -3.320163 0.000000 2.907676
      vertex -4.679837 4.000000 2.907676
    endloop
  endfacet
  facet normal -0.587785 0.000000 0.809017
    outer loop
      vertex -2.220163 0.000000 3.706872
      vertex -2.220163 4.000000 3.706872
      vertex -3.320163 4.000000 2.907676
    endloop
  endfacet
  facet normal -0.587785 0.000000 0.809017
    outer loop
      vertex -3.320163 0.000000 2.907676
      vertex -2.220163 0.000000 3.706872
      vertex -3.320163 4.000000 2.907676
    endloop
  endfacet
  facet normal -0.951056 0.000000 0.309017
    outer loop
      vertex -1.800000 4.000000 5.000000
      vertex -2.220163 4.000000 3.706872
      vertex -1.800000 0.000000 5.000000
    endloop
  endfacet
  facet normal -0.951056 0.000000 0.309017
    outer loop
      vertex -1.800000 0.000000 5.000000
      vertex -2.220163 4.000000 3.706872
      vertex -2.220163 0.000000 3.706872
    endloop
  endfacet
  facet normal -0.951056 -0.000000 -0.309017
    outer loop
      vertex -1.800000 4.000000 5.000000
      vertex -1.800000 0.000000 5.000000
      vertex -2.220163 4.000000 6.293128
    endloop
  endfacet
  facet normal -0.951056 0.000000 -0.309017
    outer loop
      vertex -2.220163 4.000000 6.293128
      vertex -1.800000 0.000000 5.000000
      vertex -2.220163 0.000000 6.293128
    endloop
  endfacet
  facet normal -0.587785 0.000000 -0.809017
    outer loop
      vertex -2.220163 4.000000 6.293128
      vertex -2.220163 0.000000 6.293128
      vertex -3.320163 4.000000 7.092324
    endloop
  endfacet
  facet normal -0.587785 0.000000 -0.809017
    outer loop
      vertex -3.320163 4.000000 7.092324
      vertex -2.220163 0.000000 6.293128
      vertex -3.320163 0.000000 7.092324
    endloop
  endfacet
  facet normal 0.000000 0.000000 -1.000000
    outer loop
      vertex -3.320163 4.000000 7.092324
      vertex -3.320163 0.000000 7.092324
      vertex -4.679837 4.000000 7.092324
    endloop
  endfacet
  facet normal 0.000000 0.000000 -1.000000
    outer loop
      vertex -4.679837 4.000000 7.092324
      vertex -3.320163 0.000000 7.092324
      vertex -4.679837 0.000000 7.092324
    endloop
  endfacet
  facet normal 0.587785 0.000000 -0.809017
    outer loop
      vertex -4.679837 4.000000 7.092324
      vertex -4.679837 0.000000 7.092324
      vertex -5.779837 4.000000 6.293128
    endloop
  endfacet
  facet normal 0.587785 0.000000 -0.809017
    outer loop
      vertex -5.779837 4.000000 6.293128
      vertex -4.679837 0.000000 7.092324
      vertex -5.779837 0.000000 6.293128
    endloop
  endfacet
  facet normal 0.951056 0.000000 -0.309017
    outer loop
      vertex -6.200000 4.000000 5.000000
      vertex -5.779837 4.000000 6.293128
      vertex -5.779837 0.000000 6.293128
    endloop
  endfacet
  facet normal 0.951056 -0.000000 -0.309017
    outer loop
      vertex -6.200000 0.000000 5.000000
      vertex -6.200000 4.000000 5.000000
      vertex -5.779837 0.000000 6.293128
    endloop
  endfacet
  facet normal 0.951056 0.000000 0.309017
    outer loop
      vertex 15.220163 0.000000 3.706872
      vertex 15.220163 4.050000 3.706872
      vertex 14.800000 4.050000 5.000000
    endloop
  endfacet
  facet normal 0.951056 0.000000 0.309017
    outer loop
      vertex 14.800000 0.000000 5.000000
      vertex 15.220163 0.000000 3.706872
      vertex 14.800000 4.050000 5.000000
    endloop
  endfacet
  facet normal 0.587785 0.000000 0.809017
    outer loop
      vertex 16.320163 0.000000 2.907676
      vertex 16.320163 4.050000 2.907676
      vertex 15.220163 4.050000 3.706872
    endloop
  endfacet
  facet normal 0.587785 0.000000 0.809017
    outer loop
      vertex 15.220163 0.000000 3.706872
      vertex 16.320163 0.000000 2.907676
      vertex 15.220163 4.050000 3.706872
    endloop
  endfacet
  facet normal 0.000000 0.000000 1.000000
    outer loop
      vertex 17.679837 0.000000 2.907676
      vertex 17.679837 4.050000 2.907676
      vertex 16.320163 4.050000 2.907676
    endloop
  endfacet
  facet normal 0.000000 0.000000 1.000000
    outer loop
      vertex 16.320163 0.000000 2.907676
      vertex 17.679837 0.000000 2.907676
      vertex 16.320163 4.050000 2.907676
    endloop
  endfacet
  facet normal -0.587785 0.000000 0.809017
    outer loop
      vertex 18.779837 0.000000 3.706872
      vertex 18.779837 4.050000 3.706872
      vertex 17.679837 4.050000 2.907676
    endloop
  endfacet
  facet normal -0.587785 0.000000 0.809017
    outer loop
      vertex 17.679837 0.000000 2.907676
      vertex 18.779837 0.000000 3.706872
      vertex 17.679837 4.050000 2.907676
    endloop
  endfacet
  facet normal -0.951056 0.000000 0.309017
    outer loop
      vertex 19.200000 4.050000 5.000000
      vertex 18.779837 4.050000 3.706872
      vertex 19.200000 0.000000 5.000000
    endloop
  endfacet
  facet normal -0.951056 0.000000 0.309017
    outer loop
      vertex 19.200000 0.000000 5.000000
      vertex 18.779837 4.050000 3.706872
      vertex 18.779837 0.000000 3.706872
    endloop
  endfacet
  facet normal -0.951056 -0.000000 -0.309017
    outer loop
      vertex 19.200000 4.050000 5.000000
      vertex 19.200000 0.000000 5.000000
      vertex 18.779837 4.050000 6.293128
    endloop
  endfacet
  facet normal -0.951056 0.000000 -0.309017
    outer loop
      vertex 18.779837 4.050000 6.293128
      vertex 19.200000 0.000000 5.000000
      vertex 18.779837 0.000000 6.293128
    endloop
  endfacet
  facet normal -0.587785 0.000000 -0.809017
    outer loop
      vertex 18.779837 4.050000 6.293128
      vertex 18.779837 0.000000 6.293128
      vertex 17.679837 4.050000 7.092324
    endloop
  endfacet
  facet normal -0.587785 0.000000 -0.809017
    outer loop
      vertex 17.679837 4.050000 7.092324
      vertex 18.779837 0.000000 6.293128
      vertex 17.679837 0.000000 7.092324
    endloop
  endfacet
  facet normal 0.000000 0.000000 -1.000000
    outer loop
      vertex 17.679837 4.050000 7.092324
      vertex 17.679837 0.000000 7.092324
      vertex 16.320163 4.050000 7.092324
    endloop
  endfacet
  facet normal 0.000000 0.000000 -1.000000
    outer loop
      vertex 16.320163 4.050000 7.092324
      vertex 17.679837 0.000000 7.092324
      vertex 16.320163 0.000000 7.092324
    endloop
  endfacet
  facet normal 0.587785 0.000000 -0.809017
    outer loop
      vertex 16.320163 4.050000 7.092324
      vertex 16.320163 0.000000 7.092324
      vertex 15.220163 4.050000 6.293128
    endloop
  endfacet
  facet normal 0.587785 0.000000 -0.809017
    outer loop
      vertex 15.220163 4.050000 6.293128
      vertex 16.320163 0.000000 7.092324
      vertex 15.220163 0.000000 6.293128
    endloop
  endfacet
  facet normal 0.951056 0.000000 -0.309017
    outer loop
      vertex 14.800000 4.050000 5.000000
      vertex 15.220163 4.050000 6.293128
      vertex 15.220163 0.000000 6.293128
    endloop
  endfacet
  facet normal 0.951056 -0.000000 -0.309017
    outer loop
      vertex 14.800000 0.000000 5.000000
      vertex 14.800000 4.050000 5.000000
      vertex 15.220163 0.000000 6.293128
    endloop
  endfacet
  facet normal 0.000000 1.000000 -0.000000
    outer loop
      vertex 16.320163 4.050000 2.907676
      vertex 23.300000 4.050000 0.000000
      vertex 10.225324 4.050000 0.000000
    endloop
  endfacet
  facet normal 0.000000 1.000000 -0.000000
    outer loop
      vertex 18.779837 4.050000 3.706872
      vertex 23.300000 4.050000 0.000000
      vertex 17.679837 4.050000 2.907676
    endloop
  endfacet
  facet normal 0.000000 1.000000 -0.000000
    outer loop
      vertex 10.225324 4.050000 10.000000
      vertex 15.220163 4.050000 3.706872
      vertex 10.225324 4.050000 0.000000
    endloop
  endfacet
  facet normal 0.000000 1.000000 -0.000000
    outer loop
      vertex 15.220163 4.050000 3.706872
      vertex 16.320163 4.050000 2.907676
      vertex 10.225324 4.050000 0.000000
    endloop
  endfacet
  facet normal 0.000000 1.000000 0.000000
    outer loop
      vertex 23.300000 4.050000 10.000000
      vertex 23.300000 4.050000 0.000000
      vertex 18.779837 4.050000 3.706872
    endloop
  endfacet
  facet normal 0.000000 1.000000 0.000000
    outer loop
      vertex 23.300000 4.050000 10.000000
      vertex 18.779837 4.050000 3.706872
      vertex 19.200000 4.050000 5.000000
    endloop
  endfacet
  facet normal 0.000000 1.000000 0.000000
    outer loop
      vertex 23.300000 4.050000 10.000000
      vertex 19.200000 4.050000 5.000000
      vertex 18.779837 4.050000 6.293128
    endloop
  endfacet
  facet normal 0.000000 1.000000 0.000000
    outer loop
      vertex 23.300000 4.050000 10.000000
      vertex 18.779837 4.050000 6.293128
      vertex 17.679837 4.050000 7.092324
    endloop
  endfacet
  facet normal 0.000000 1.000000 0.000000
    outer loop
      vertex 23.300000 4.050000 10.000000
      vertex 17.679837 4.050000 7.092324
      vertex 10.225324 4.050000 10.000000
    endloop
  endfacet
  facet normal 0.000000 1.000000 0.000000
    outer loop
      vertex 15.220163 4.050000 6.293128
      vertex 10.225324 4.050000 10.000000
      vertex 16.320163 4.050000 7.092324
    endloop
  endfacet
  facet normal 0.000000 1.000000 0.000000
    outer loop
      vertex 16.320163 4.050000 7.092324
      vertex 10.225324 4.050000 10.000000
      vertex 17.679837 4.050000 7.092324
    endloop
  endfacet
  facet normal 0.000000 1.000000 0.000000
    outer loop
      vertex 14.800000 4.050000 5.000000
      vertex 10.225324 4.050000 10.000000
      vertex 15.220163 4.050000 6.293128
    endloop
  endfacet
  facet normal 0.000000 1.000000 0.000000
    outer loop
      vertex 10.225324 4.050000 10.000000
      vertex 14.800000 4.050000 5.000000
      vertex 15.220163 4.050000 3.706872
    endloop
  endfacet
  facet normal 0.000000 1.000000 -0.000000
    outer loop
      vertex 17.679837 4.050000 2.907676
      vertex 23.300000 4.050000 0.000000
      vertex 16.320163 4.050000 2.907676
    endloop
  endfacet
  facet normal -0.642788 0.766044 0.000000
    outer loop
      vertex 10.225324 4.050000 10.000000
      vertex 10.225324 4.050000 0.000000
      vertex 10.050000 3.902886 10.000000
    endloop
  endfacet
  facet normal -0.642788 0.766044 0.000000
    outer loop
      vertex 10.050000 3.902886 10.000000
      vertex 10.225324 4.050000 0.000000
      vertex 10.050000 3.902886 0.000000
    endloop
  endfacet
  facet normal -0.342020 0.939693 0.000000
    outer loop
      vertex 10.050000 3.902886 10.000000
      vertex 10.050000 3.902886 0.000000
      vertex 8.581417 3.368365 10.000000
    endloop
  endfacet
  facet normal -0.342020 0.939693 0.000000
    outer loop
      vertex 8.581417 3.368365 10.000000
      vertex 10.050000 3.902886 0.000000
      vertex 8.581417 3.368365 0.000000
    endloop
  endfacet
  facet normal 0.000000 1.000000 0.000000
    outer loop
      vertex 8.581417 3.368365 10.000000
      vertex 8.581417 3.368365 0.000000
      vertex 7.018583 3.368365 10.000000
    endloop
  endfacet
  facet normal 0.000000 1.000000 -0.000000
    outer loop
      vertex 7.018583 3.368365 10.000000
      vertex 8.581417 3.368365 0.000000
      vertex 7.018583 3.368365 0.000000
    endloop
  endfacet
  facet normal 0.342020 0.939693 -0.000000
    outer loop
      vertex 7.018583 3.368365 10.000000
      vertex 7.018583 3.368365 0.000000
      vertex 5.550000 3.902886 10.000000
    endloop
  endfacet
  facet normal 0.342020 0.939693 -0.000000
    outer loop
      vertex 5.550000 3.902886 10.000000
      vertex 7.018583 3.368365 0.000000
      vertex 5.550000 3.902886 0.000000
    endloop
  endfacet
  facet normal 0.642788 0.766044 -0.000000
    outer loop
      vertex 5.550000 3.902886 10.000000
      vertex 5.550000 3.902886 0.000000
      vertex 4.352800 4.907456 10.000000
    endloop
  endfacet
  facet normal 0.642788 0.766044 -0.000000
    outer loop
      vertex 4.352800 4.907456 10.000000
      vertex 5.550000 3.902886 0.000000
      vertex 4.352800 4.907456 0.000000
    endloop
  endfacet
  facet normal 0.866025 0.500000 0.000000
    outer loop
      vertex 3.571383 6.260909 10.000000
      vertex 4.352800 4.907456 10.000000
      vertex 4.352800 4.907456 0.000000
    endloop
  endfacet
  facet normal 0.866025 0.500000 0.000000
    outer loop
      vertex 3.571383 6.260909 0.000000
      vertex 3.571383 6.260909 10.000000
      vertex 4.352800 4.907456 0.000000
    endloop
  endfacet
  facet normal 0.984808 0.173648 0.000000
    outer loop
      vertex 3.300000 7.800000 10.000000
      vertex 3.571383 6.260909 10.000000
      vertex 3.571383 6.260909 0.000000
    endloop
  endfacet
  facet normal 0.984808 0.173648 0.000000
    outer loop
      vertex 3.300000 7.800000 0.000000
      vertex 3.300000 7.800000 10.000000
      vertex 3.571383 6.260909 0.000000
    endloop
  endfacet
  facet normal 0.984808 -0.173648 0.000000
    outer loop
      vertex 3.571383 9.339091 0.000000
      vertex 3.571383 9.339091 10.000000
      vertex 3.300000 7.800000 10.000000
    endloop
  endfacet
  facet normal 0.984808 -0.173648 0.000000
    outer loop
      vertex 3.300000 7.800000 0.000000
      vertex 3.571383 9.339091 0.000000
      vertex 3.300000 7.800000 10.000000
    endloop
  endfacet
  facet normal 0.866025 -0.500000 0.000000
    outer loop
      vertex 4.352800 10.692544 0.000000
      vertex 4.352800 10.692544 10.000000
      vertex 3.571383 9.339091 10.000000
    endloop
  endfacet
  facet normal 0.866025 -0.500000 0.000000
    outer loop
      vertex 3.571383 9.339091 0.000000
      vertex 4.352800 10.692544 0.000000
      vertex 3.571383 9.339091 10.000000
    endloop
  endfacet
  facet normal 0.642788 -0.766044 0.000000
    outer loop
      vertex 5.550000 11.697114 0.000000
      vertex 5.550000 11.697114 10.000000
      vertex 4.352800 10.692544 10.000000
    endloop
  endfacet
  facet normal 0.642788 -0.766044 0.000000
    outer loop
      vertex 4.352800 10.692544 0.000000
      vertex 5.550000 11.697114 0.000000
      vertex 4.352800 10.692544 10.000000
    endloop
  endfacet
  facet normal 0.342020 -0.939693 0.000000
    outer loop
      vertex 7.018583 12.231635 0.000000
      vertex 7.018583 12.231635 10.000000
      vertex 5.550000 11.697114 10.000000
    endloop
  endfacet
  facet normal 0.342020 -0.939693 0.000000
    outer loop
      vertex 5.550000 11.697114 0.000000
      vertex 7.018583 12.231635 0.000000
      vertex 5.550000 11.697114 10.000000
    endloop
  endfacet
  facet normal 0.000000 -1.000000 0.000000
    outer loop
      vertex 8.581417 12.231635 0.000000
      vertex 8.581417 12.231635 10.000000
      vertex 7.018583 12.231635 10.000000
    endloop
  endfacet
  facet normal -0.000000 -1.000000 -0.000000
    outer loop
      vertex 7.018583 12.231635 0.000000
      vertex 8.581417 12.231635 0.000000
      vertex 7.018583 12.231635 10.000000
    endloop
  endfacet
  facet normal -0.342020 -0.939693 -0.000000
    outer loop
      vertex 10.050000 11.697114 0.000000
      vertex 10.050000 11.697114 10.000000
      vertex 8.581417 12.231635 10.000000
    endloop
  endfacet
  facet normal -0.342020 -0.939693 -0.000000
    outer loop
      vertex 8.581417 12.231635 0.000000
      vertex 10.050000 11.697114 0.000000
      vertex 8.581417 12.231635 10.000000
    endloop
  endfacet
  facet normal -0.642788 -0.766044 -0.000000
    outer loop
      vertex 10.225324 11.550000 0.000000
      vertex 10.225324 11.550000 10.000000
      vertex 10.050000 11.697114 10.000000
    endloop
  endfacet
  facet normal -0.642788 -0.766044 -0.000000
    outer loop
      vertex 10.050000 11.697114 0.000000
      vertex 10.225324 11.550000 0.000000
      vertex 10.050000 11.697114 10.000000
    endloop
  endfacet
  facet normal 0.000000 -1.000000 -0.000000
    outer loop
      vertex 16.320163 11.550000 7.092324
      vertex 23.300000 11.550000 10.000000
      vertex 10.225324 11.550000 10.000000
    endloop
  endfacet
  facet normal -0.000000 -1.000000 0.000000
    outer loop
      vertex 16.320163 11.550000 7.092324
      vertex 17.679837 11.550000 7.092324
      vertex 23.300000 11.550000 10.000000
    endloop
  endfacet
  facet normal 0.000000 -1.000000 -0.000000
    outer loop
      vertex 10.225324 11.550000 0.000000
      vertex 14.800000 11.550000 5.000000
      vertex 10.225324 11.550000 10.000000
    endloop
  endfacet
  facet normal 0.000000 -1.000000 -0.000000
    outer loop
      vertex 15.220163 11.550000 6.293128
      vertex 16.320163 11.550000 7.092324
      vertex 10.225324 11.550000 10.000000
    endloop
  endfacet
  facet normal 0.000000 -1.000000 0.000000
    outer loop
      vertex 18.779837 11.550000 6.293128
      vertex 19.200000 11.550000 5.000000
      vertex 23.300000 11.550000 0.000000
    endloop
  endfacet
  facet normal 0.000000 -1.000000 -0.000000
    outer loop
      vertex 18.779837 11.550000 6.293128
      vertex 23.300000 11.550000 10.000000
      vertex 17.679837 11.550000 7.092324
    endloop
  endfacet
  facet normal 0.000000 -1.000000 0.000000
    outer loop
      vertex 23.300000 11.550000 0.000000
      vertex 23.300000 11.550000 10.000000
      vertex 18.779837 11.550000 6.293128
    endloop
  endfacet
  facet normal 0.000000 -1.000000 0.000000
    outer loop
      vertex 23.300000 11.550000 0.000000
      vertex 19.200000 11.550000 5.000000
      vertex 18.779837 11.550000 3.706872
    endloop
  endfacet
  facet normal -0.000000 -1.000000 0.000000
    outer loop
      vertex 10.225324 11.550000 0.000000
      vertex 23.300000 11.550000 0.000000
      vertex 17.679837 11.550000 2.907676
    endloop
  endfacet
  facet normal 0.000000 -1.000000 0.000000
    outer loop
      vertex 10.225324 11.550000 0.000000
      vertex 17.679837 11.550000 2.907676
      vertex 16.320163 11.550000 2.907676
    endloop
  endfacet
  facet normal 0.000000 -1.000000 0.000000
    outer loop
      vertex 10.225324 11.550000 0.000000
      vertex 15.220163 11.550000 3.706872
      vertex 14.800000 11.550000 5.000000
    endloop
  endfacet
  facet normal 0.000000 -1.000000 0.000000
    outer loop
      vertex 10.225324 11.550000 0.000000
      vertex 16.320163 11.550000 2.907676
      vertex 15.220163 11.550000 3.706872
    endloop
  endfacet
  facet normal 0.000000 -1.000000 -0.000000
    outer loop
      vertex 14.800000 11.550000 5.000000
      vertex 15.220163 11.550000 6.293128
      vertex 10.225324 11.550000 10.000000
    endloop
  endfacet
  facet normal 0.000000 -1.000000 0.000000
    outer loop
      vertex 18.779837 11.550000 3.706872
      vertex 17.679837 11.550000 2.907676
      vertex 23.300000 11.550000 0.000000
    endloop
  endfacet
  facet normal 1.000000 0.000000 -0.000000
    outer loop
      vertex 23.300000 11.550000 10.000000
      vertex 23.300000 11.550000 0.000000
      vertex 23.300000 15.600000 0.000000
    endloop
  endfacet
  facet normal 1.000000 0.000000 0.000000
    outer loop
      vertex 23.300000 15.600000 10.000000
      vertex 23.300000 11.550000 10.000000
      vertex 23.300000 15.600000 0.000000
    endloop
  endfacet
  facet normal 0.000000 1.000000 -0.000000
    outer loop
      vertex 17.679837 15.600000 2.907676
      vertex 23.300000 15.600000 0.000000
      vertex 16.320163 15.600000 2.907676
    endloop
  endfacet
  facet normal 0.000000 1.000000 0.000000
    outer loop
      vertex 17.679837 15.600000 7.092324
      vertex 7.800000 15.600000 10.000000
      vertex 23.300000 15.600000 10.000000
    endloop
  endfacet
  facet normal 0.000000 1.000000 0.000000
    outer loop
      vertex 7.800000 15.600000 0.000000
      vertex 7.800000 15.600000 10.000000
      vertex 14.800000 15.600000 5.000000
    endloop
  endfacet
  facet normal 0.000000 1.000000 0.000000
    outer loop
      vertex 7.800000 15.600000 0.000000
      vertex 14.800000 15.600000 5.000000
      vertex 15.220163 15.600000 3.706872
    endloop
  endfacet
  facet normal 0.000000 1.000000 0.000000
    outer loop
      vertex 7.800000 15.600000 0.000000
      vertex 15.220163 15.600000 3.706872
      vertex 16.320163 15.600000 2.907676
    endloop
  endfacet
  facet normal 0.000000 1.000000 0.000000
    outer loop
      vertex 7.800000 15.600000 0.000000
      vertex 16.320163 15.600000 2.907676
      vertex 23.300000 15.600000 0.000000
    endloop
  endfacet
  facet normal 0.000000 1.000000 -0.000000
    outer loop
      vertex 18.779837 15.600000 3.706872
      vertex 23.300000 15.600000 0.000000
      vertex 17.679837 15.600000 2.907676
    endloop
  endfacet
  facet normal 0.000000 1.000000 0.000000
    outer loop
      vertex 23.300000 15.600000 0.000000
      vertex 18.779837 15.600000 3.706872
      vertex 23.300000 15.600000 10.000000
    endloop
  endfacet
  facet normal 0.000000 1.000000 0.000000
    outer loop
      vertex 18.779837 15.600000 3.706872
      vertex 19.200000 15.600000 5.000000
      vertex 23.300000 15.600000 10.000000
    endloop
  endfacet
  facet normal 0.000000 1.000000 0.000000
    outer loop
      vertex 15.220163 15.600000 6.293128
      vertex 7.800000 15.600000 10.000000
      vertex 16.320163 15.600000 7.092324
    endloop
  endfacet
  facet normal 0.000000 1.000000 0.000000
    outer loop
      vertex 19.200000 15.600000 5.000000
      vertex 18.779837 15.600000 6.293128
      vertex 23.300000 15.600000 10.000000
    endloop
  endfacet
  facet normal 0.000000 1.000000 0.000000
    outer loop
      vertex 18.779837 15.600000 6.293128
      vertex 17.679837 15.600000 7.092324
      vertex 23.300000 15.600000 10.000000
    endloop
  endfacet
  facet normal 0.000000 1.000000 0.000000
    outer loop
      vertex 14.800000 15.600000 5.000000
      vertex 7.800000 15.600000 10.000000
      vertex 15.220163 15.600000 6.293128
    endloop
  endfacet
  facet normal 0.000000 1.000000 0.000000
    outer loop
      vertex 16.320163 15.600000 7.092324
      vertex 7.800000 15.600000 10.000000
      vertex 17.679837 15.600000 7.092324
    endloop
  endfacet
  facet normal -0.156434 0.987688 0.000000
    outer loop
      vertex 5.389667 15.218241 0.000000
      vertex 5.389667 15.218241 10.000000
      vertex 7.800000 15.600000 0.000000
    endloop
  endfacet
  facet normal -0.156434 0.987688 0.000000
    outer loop
      vertex 7.800000 15.600000 0.000000
      vertex 5.389667 15.218241 10.000000
      vertex 7.800000 15.600000 10.000000
    endloop
  endfacet
  facet normal -0.453990 0.891007 0.000000
    outer loop
      vertex 3.215275 14.110333 0.000000
      vertex 3.215275 14.110333 10.000000
      vertex 5.389667 15.218241 0.000000
    endloop
  endfacet
  facet normal -0.453990 0.891007 0.000000
    outer loop
      vertex 5.389667 15.218241 0.000000
      vertex 3.215275 14.110333 10.000000
      vertex 5.389667 15.218241 10.000000
    endloop
  endfacet
  facet normal -0.707107 0.707107 0.000000
    outer loop
      vertex 1.489667 12.384725 0.000000
      vertex 1.489667 12.384725 10.000000
      vertex 3.215275 14.110333 0.000000
    endloop
  endfacet
  facet normal -0.707107 0.707107 0.000000
    outer loop
      vertex 3.215275 14.110333 0.000000
      vertex 1.489667 12.384725 10.000000
      vertex 3.215275 14.110333 10.000000
    endloop
  endfacet
  facet normal -0.891007 0.453990 0.000000
    outer loop
      vertex 0.381759 10.210333 0.000000
      vertex 0.381759 10.210333 10.000000
      vertex 1.489667 12.384725 0.000000
    endloop
  endfacet
  facet normal -0.891007 0.453990 0.000000
    outer loop
      vertex 1.489667 12.384725 0.000000
      vertex 0.381759 10.210333 10.000000
      vertex 1.489667 12.384725 10.000000
    endloop
  endfacet
  facet normal -0.987688 0.156434 0.000000
    outer loop
      vertex 0.000000 7.800000 0.000000
      vertex 0.000000 7.800000 10.000000
      vertex 0.381759 10.210333 0.000000
    endloop
  endfacet
  facet normal -0.987688 0.156434 0.000000
    outer loop
      vertex 0.381759 10.210333 0.000000
      vertex 0.000000 7.800000 10.000000
      vertex 0.381759 10.210333 10.000000
    endloop
  endfacet
  facet normal -0.987688 -0.156434 -0.000000
    outer loop
      vertex 0.000000 7.800000 0.000000
      vertex 0.381759 5.389667 0.000000
      vertex 0.000000 7.800000 10.000000
    endloop
  endfacet
  facet normal -0.987688 -0.156434 0.000000
    outer loop
      vertex 0.000000 7.800000 10.000000
      vertex 0.381759 5.389667 0.000000
      vertex 0.381759 5.389667 10.000000
    endloop
  endfacet
  facet normal -0.891007 -0.453990 -0.000000
    outer loop
      vertex 0.381759 5.389667 0.000000
      vertex 1.089830 4.000000 0.000000
      vertex 0.381759 5.389667 10.000000
    endloop
  endfacet
  facet normal -0.891007 -0.453990 0.000000
    outer loop
      vertex 0.381759 5.389667 10.000000
      vertex 1.089830 4.000000 0.000000
      vertex 1.089830 4.000000 10.000000
    endloop
  endfacet
  facet normal 0.951056 0.000000 -0.309017
    outer loop
      vertex 14.800000 15.600000 5.000000
      vertex 15.220163 15.600000 6.293128
      vertex 15.220163 11.550000 6.293128
    endloop
  endfacet
  facet normal 0.951056 0.000000 -0.309017
    outer loop
      vertex 14.800000 11.550000 5.000000
      vertex 14.800000 15.600000 5.000000
      vertex 15.220163 11.550000 6.293128
    endloop
  endfacet
  facet normal 0.951056 0.000000 0.309017
    outer loop
      vertex 15.220163 11.550000 3.706872
      vertex 15.220163 15.600000 3.706872
      vertex 14.800000 15.600000 5.000000
    endloop
  endfacet
  facet normal 0.951056 0.000000 0.309017
    outer loop
      vertex 14.800000 11.550000 5.000000
      vertex 15.220163 11.550000 3.706872
      vertex 14.800000 15.600000 5.000000
    endloop
  endfacet
  facet normal 0.587785 0.000000 0.809017
    outer loop
      vertex 16.320163 11.550000 2.907676
      vertex 16.320163 15.600000 2.907676
      vertex 15.220163 15.600000 3.706872
    endloop
  endfacet
  facet normal 0.587785 0.000000 0.809017
    outer loop
      vertex 15.220163 11.550000 3.706872
      vertex 16.320163 11.550000 2.907676
      vertex 15.220163 15.600000 3.706872
    endloop
  endfacet
  facet normal 0.000000 0.000000 1.000000
    outer loop
      vertex 17.679837 11.550000 2.907676
      vertex 17.679837 15.600000 2.907676
      vertex 16.320163 15.600000 2.907676
    endloop
  endfacet
  facet normal 0.000000 0.000000 1.000000
    outer loop
      vertex 16.320163 11.550000 2.907676
      vertex 17.679837 11.550000 2.907676
      vertex 16.320163 15.600000 2.907676
    endloop
  endfacet
  facet normal -0.587785 0.000000 0.809017
    outer loop
      vertex 18.779837 11.550000 3.706872
      vertex 18.779837 15.600000 3.706872
      vertex 17.679837 15.600000 2.907676
    endloop
  endfacet
  facet normal -0.587785 0.000000 0.809017
    outer loop
      vertex 17.679837 11.550000 2.907676
      vertex 18.779837 11.550000 3.706872
      vertex 17.679837 15.600000 2.907676
    endloop
  endfacet
  facet normal -0.951056 0.000000 0.309017
    outer loop
      vertex 19.200000 15.600000 5.000000
      vertex 18.779837 15.600000 3.706872
      vertex 19.200000 11.550000 5.000000
    endloop
  endfacet
  facet normal -0.951056 0.000000 0.309017
    outer loop
      vertex 19.200000 11.550000 5.000000
      vertex 18.779837 15.600000 3.706872
      vertex 18.779837 11.550000 3.706872
    endloop
  endfacet
  facet normal -0.951056 0.000000 -0.309017
    outer loop
      vertex 19.200000 15.600000 5.000000
      vertex 19.200000 11.550000 5.000000
      vertex 18.779837 15.600000 6.293128
    endloop
  endfacet
  facet normal -0.951056 0.000000 -0.309017
    outer loop
      vertex 18.779837 15.600000 6.293128
      vertex 19.200000 11.550000 5.000000
      vertex 18.779837 11.550000 6.293128
    endloop
  endfacet
  facet normal -0.587785 0.000000 -0.809017
    outer loop
      vertex 18.779837 15.600000 6.293128
      vertex 18.779837 11.550000 6.293128
      vertex 17.679837 15.600000 7.092324
    endloop
  endfacet
  facet normal -0.587785 0.000000 -0.809017
    outer loop
      vertex 17.679837 15.600000 7.092324
      vertex 18.779837 11.550000 6.293128
      vertex 17.679837 11.550000 7.092324
    endloop
  endfacet
  facet normal 0.000000 0.000000 -1.000000
    outer loop
      vertex 17.679837 15.600000 7.092324
      vertex 17.679837 11.550000 7.092324
      vertex 16.320163 15.600000 7.092324
    endloop
  endfacet
  facet normal 0.000000 0.000000 -1.000000
    outer loop
      vertex 16.320163 15.600000 7.092324
      vertex 17.679837 11.550000 7.092324
      vertex 16.320163 11.550000 7.092324
    endloop
  endfacet
  facet normal 0.587785 0.000000 -0.809017
    outer loop
      vertex 16.320163 15.600000 7.092324
      vertex 16.320163 11.550000 7.092324
      vertex 15.220163 15.600000 6.293128
    endloop
  endfacet
  facet normal 0.587785 0.000000 -0.809017
    outer loop
      vertex 15.220163 15.600000 6.293128
      vertex 16.320163 11.550000 7.092324
      vertex 15.220163 11.550000 6.293128
    endloop
  endfacet
endsolid OpenSCAD_Model
