solid OpenSCAD_Model
  facet normal -0.866045 0.499966 0.000000
    outer loop
      vertex 0.000000 59.201000 0.000000
      vertex 0.000000 59.201000 13.300000
      vertex 5.986000 69.570000 0.000000
    endloop
  endfacet
  facet normal -0.866045 0.499966 0.000000
    outer loop
      vertex 5.986000 69.570000 0.000000
      vertex 0.000000 59.201000 13.300000
      vertex 5.986000 69.570000 13.300000
    endloop
  endfacet
  facet normal -0.962595 -0.270946 -0.000000
    outer loop
      vertex 0.000000 59.201000 0.000000
      vertex 3.405000 47.104000 0.000000
      vertex 0.000000 59.201000 13.300000
    endloop
  endfacet
  facet normal -0.962595 -0.270946 0.000000
    outer loop
      vertex 0.000000 59.201000 13.300000
      vertex 3.405000 47.104000 0.000000
      vertex 3.405000 47.104000 13.300000
    endloop
  endfacet
  facet normal -0.000000 0.000000 -1.000000
    outer loop
      vertex 0.000000 59.201000 0.000000
      vertex 5.986000 69.570000 0.000000
      vertex 3.405000 47.104000 0.000000
    endloop
  endfacet
  facet normal 0.000000 -0.000000 -1.000000
    outer loop
      vertex 7.724953 63.200047 0.000000
      vertex 5.986000 69.570000 0.000000
      vertex 18.277000 72.863000 0.000000
    endloop
  endfacet
  facet normal 0.000000 0.000000 -1.000000
    outer loop
      vertex 15.663000 59.912000 0.000000
      vertex 18.277000 72.863000 0.000000
      vertex 38.110000 61.413000 0.000000
    endloop
  endfacet
  facet normal -0.000000 0.000000 -1.000000
    outer loop
      vertex 3.405000 47.104000 0.000000
      vertex 38.110000 61.413000 0.000000
      vertex 55.351000 31.551000 0.000000
    endloop
  endfacet
  facet normal 0.000000 0.000000 -1.000000
    outer loop
      vertex 20.739000 37.097000 0.000000
      vertex 55.351000 31.551000 0.000000
      vertex 55.351000 9.050000 0.000000
    endloop
  endfacet
  facet normal 0.000000 0.000000 -1.000000
    outer loop
      vertex 44.924000 9.249000 0.000000
      vertex 55.351000 9.050000 0.000000
      vertex 47.500000 1.199000 0.000000
    endloop
  endfacet
  facet normal -0.000000 0.000000 -1.000000
    outer loop
      vertex 42.500000 0.000000 0.000000
      vertex 47.500000 1.199000 0.000000
      vertex 47.500000 -13.000000 0.000000
    endloop
  endfacet
  facet normal 0.000000 0.000000 -1.000000
    outer loop
      vertex 47.500000 -13.000000 0.000000
      vertex 49.000000 -13.000000 0.000000
      vertex 49.000000 -17.000000 0.000000
    endloop
  endfacet
  facet normal 0.000000 0.000000 -1.000000
    outer loop
      vertex 31.000000 -13.000000 0.000000
      vertex 49.000000 -17.000000 0.000000
      vertex 31.000000 -17.000000 0.000000
    endloop
  endfacet
  facet normal 0.000000 0.000000 -1.000000
    outer loop
      vertex 32.500000 -13.000000 0.000000
      vertex 49.000000 -17.000000 0.000000
      vertex 31.000000 -13.000000 0.000000
    endloop
  endfacet
  facet normal 0.000000 0.000000 -1.000000
    outer loop
      vertex 37.500000 -13.000000 0.000000
      vertex 49.000000 -17.000000 0.000000
      vertex 32.500000 -13.000000 0.000000
    endloop
  endfacet
  facet normal 0.000000 0.000000 -1.000000
    outer loop
      vertex 3.405000 47.104000 0.000000
      vertex 55.351000 31.551000 0.000000
      vertex 20.739000 37.097000 0.000000
    endloop
  endfacet
  facet normal 0.000000 0.000000 -1.000000
    outer loop
      vertex 11.013000 55.262000 0.000000
      vertex 3.405000 47.104000 0.000000
      vertex 7.724953 56.623953 0.000000
    endloop
  endfacet
  facet normal 0.000000 0.000000 -1.000000
    outer loop
      vertex 3.405000 47.104000 0.000000
      vertex 5.986000 69.570000 0.000000
      vertex 6.363000 59.912000 0.000000
    endloop
  endfacet
  facet normal 0.000000 0.000000 -1.000000
    outer loop
      vertex 3.405000 47.104000 0.000000
      vertex 6.363000 59.912000 0.000000
      vertex 7.724953 56.623953 0.000000
    endloop
  endfacet
  facet normal -0.000000 0.000000 -1.000000
    outer loop
      vertex 14.301047 63.200047 0.000000
      vertex 18.277000 72.863000 0.000000
      vertex 15.663000 59.912000 0.000000
    endloop
  endfacet
  facet normal 0.000000 0.000000 -1.000000
    outer loop
      vertex 3.405000 47.104000 0.000000
      vertex 11.013000 55.262000 0.000000
      vertex 38.110000 61.413000 0.000000
    endloop
  endfacet
  facet normal -0.000000 0.000000 -1.000000
    outer loop
      vertex 11.013000 64.562000 0.000000
      vertex 18.277000 72.863000 0.000000
      vertex 14.301047 63.200047 0.000000
    endloop
  endfacet
  facet normal 0.000000 0.000000 -1.000000
    outer loop
      vertex 11.013000 55.262000 0.000000
      vertex 14.301047 56.623953 0.000000
      vertex 38.110000 61.413000 0.000000
    endloop
  endfacet
  facet normal 0.000000 0.000000 -1.000000
    outer loop
      vertex 14.301047 56.623953 0.000000
      vertex 15.663000 59.912000 0.000000
      vertex 38.110000 61.413000 0.000000
    endloop
  endfacet
  facet normal 0.000000 0.000000 -1.000000
    outer loop
      vertex 7.724953 63.200047 0.000000
      vertex 18.277000 72.863000 0.000000
      vertex 11.013000 64.562000 0.000000
    endloop
  endfacet
  facet normal 0.000000 -0.000000 -1.000000
    outer loop
      vertex 6.363000 59.912000 0.000000
      vertex 5.986000 69.570000 0.000000
      vertex 7.724953 63.200047 0.000000
    endloop
  endfacet
  facet normal 0.000000 0.000000 -1.000000
    outer loop
      vertex 43.562047 5.960953 0.000000
      vertex 47.500000 1.199000 0.000000
      vertex 40.274000 4.599000 0.000000
    endloop
  endfacet
  facet normal 0.000000 0.000000 -1.000000
    outer loop
      vertex 20.739000 37.097000 0.000000
      vertex 55.351000 9.050000 0.000000
      vertex 25.199000 29.471000 0.000000
    endloop
  endfacet
  facet normal 0.000000 0.000000 -1.000000
    outer loop
      vertex 44.924000 9.249000 0.000000
      vertex 47.500000 1.199000 0.000000
      vertex 43.562047 5.960953 0.000000
    endloop
  endfacet
  facet normal 0.000000 0.000000 -1.000000
    outer loop
      vertex 43.562047 12.537047 0.000000
      vertex 55.351000 9.050000 0.000000
      vertex 44.924000 9.249000 0.000000
    endloop
  endfacet
  facet normal -0.000000 -0.000000 -1.000000
    outer loop
      vertex 40.274000 13.899000 0.000000
      vertex 25.199000 29.471000 0.000000
      vertex 43.562047 12.537047 0.000000
    endloop
  endfacet
  facet normal 0.000000 0.000000 -1.000000
    outer loop
      vertex 25.199000 29.471000 0.000000
      vertex 55.351000 9.050000 0.000000
      vertex 43.562047 12.537047 0.000000
    endloop
  endfacet
  facet normal 0.000000 -0.000000 -1.000000
    outer loop
      vertex 36.985953 12.537047 0.000000
      vertex 25.199000 29.471000 0.000000
      vertex 40.274000 13.899000 0.000000
    endloop
  endfacet
  facet normal 0.000000 0.000000 -1.000000
    outer loop
      vertex 42.500000 -13.000000 0.000000
      vertex 49.000000 -17.000000 0.000000
      vertex 37.500000 -13.000000 0.000000
    endloop
  endfacet
  facet normal 0.000000 0.000000 -1.000000
    outer loop
      vertex 32.500000 1.879000 0.000000
      vertex 37.500000 -13.000000 0.000000
      vertex 32.500000 -13.000000 0.000000
    endloop
  endfacet
  facet normal 0.000000 0.000000 -1.000000
    outer loop
      vertex 42.500000 0.000000 0.000000
      vertex 49.000000 -17.000000 0.000000
      vertex 42.500000 -13.000000 0.000000
    endloop
  endfacet
  facet normal 0.000000 0.000000 -1.000000
    outer loop
      vertex 42.500000 0.000000 0.000000
      vertex 47.500000 -13.000000 0.000000
      vertex 49.000000 -17.000000 0.000000
    endloop
  endfacet
  facet normal 0.000000 0.000000 -1.000000
    outer loop
      vertex 40.274000 4.599000 0.000000
      vertex 47.500000 1.199000 0.000000
      vertex 42.500000 0.000000 0.000000
    endloop
  endfacet
  facet normal 0.000000 -0.000000 -1.000000
    outer loop
      vertex 37.500000 0.000000 0.000000
      vertex 36.985953 5.960953 0.000000
      vertex 40.274000 4.599000 0.000000
    endloop
  endfacet
  facet normal -0.000000 0.000000 -1.000000
    outer loop
      vertex 37.500000 0.000000 0.000000
      vertex 40.274000 4.599000 0.000000
      vertex 42.500000 0.000000 0.000000
    endloop
  endfacet
  facet normal 0.000000 0.000000 -1.000000
    outer loop
      vertex 25.199000 29.471000 0.000000
      vertex 36.985953 12.537047 0.000000
      vertex 35.624000 9.249000 0.000000
    endloop
  endfacet
  facet normal 0.000000 0.000000 -1.000000
    outer loop
      vertex 25.199000 29.471000 0.000000
      vertex 35.624000 9.249000 0.000000
      vertex 36.985953 5.960953 0.000000
    endloop
  endfacet
  facet normal 0.000000 0.000000 -1.000000
    outer loop
      vertex 37.500000 -13.000000 0.000000
      vertex 32.500000 1.879000 0.000000
      vertex 37.500000 0.000000 0.000000
    endloop
  endfacet
  facet normal 0.000000 0.000000 -1.000000
    outer loop
      vertex 25.199000 29.471000 0.000000
      vertex 36.985953 5.960953 0.000000
      vertex 37.500000 0.000000 0.000000
    endloop
  endfacet
  facet normal 0.000000 0.000000 -1.000000
    outer loop
      vertex 25.199000 29.471000 0.000000
      vertex 37.500000 0.000000 0.000000
      vertex 32.500000 1.879000 0.000000
    endloop
  endfacet
  facet normal 0.000000 0.000000 -1.000000
    outer loop
      vertex 25.199000 29.471000 0.000000
      vertex 32.500000 1.879000 0.000000
      vertex 25.199000 9.180000 0.000000
    endloop
  endfacet
  facet normal -0.258792 0.965933 0.000000
    outer loop
      vertex 5.986000 69.570000 0.000000
      vertex 5.986000 69.570000 13.300000
      vertex 18.277000 72.863000 0.000000
    endloop
  endfacet
  facet normal -0.258792 0.965933 0.000000
    outer loop
      vertex 18.277000 72.863000 0.000000
      vertex 5.986000 69.570000 13.300000
      vertex 18.277000 72.863000 13.300000
    endloop
  endfacet
  facet normal 0.000000 0.000000 1.000000
    outer loop
      vertex 5.986000 69.570000 13.300000
      vertex 0.000000 59.201000 13.300000
      vertex 3.405000 47.104000 13.300000
    endloop
  endfacet
  facet normal -0.000000 0.000000 1.000000
    outer loop
      vertex 6.363000 59.912000 13.300000
      vertex 5.986000 69.570000 13.300000
      vertex 3.405000 47.104000 13.300000
    endloop
  endfacet
  facet normal 0.000000 0.000000 1.000000
    outer loop
      vertex 32.500000 1.879000 13.300000
      vertex 25.199000 29.471000 13.300000
      vertex 25.199000 9.180000 13.300000
    endloop
  endfacet
  facet normal -0.000000 0.000000 1.000000
    outer loop
      vertex 36.985953 5.960953 13.300000
      vertex 25.199000 29.471000 13.300000
      vertex 32.500000 1.879000 13.300000
    endloop
  endfacet
  facet normal -0.000000 0.000000 1.000000
    outer loop
      vertex 37.500000 -13.000000 13.300000
      vertex 32.500000 1.879000 13.300000
      vertex 32.500000 -13.000000 13.300000
    endloop
  endfacet
  facet normal 0.000000 0.000000 1.000000
    outer loop
      vertex 31.000000 -17.000000 13.300000
      vertex 32.500000 -13.000000 13.300000
      vertex 31.000000 -13.000000 13.300000
    endloop
  endfacet
  facet normal -0.000000 0.000000 1.000000
    outer loop
      vertex 49.000000 -17.000000 13.300000
      vertex 32.500000 -13.000000 13.300000
      vertex 31.000000 -17.000000 13.300000
    endloop
  endfacet
  facet normal 0.000000 0.000000 1.000000
    outer loop
      vertex 49.000000 -13.000000 13.300000
      vertex 47.500000 -13.000000 13.300000
      vertex 49.000000 -17.000000 13.300000
    endloop
  endfacet
  facet normal 0.000000 0.000000 1.000000
    outer loop
      vertex 14.301047 56.623953 13.300000
      vertex 20.739000 37.097000 13.300000
      vertex 25.199000 29.471000 13.300000
    endloop
  endfacet
  facet normal 0.000000 -0.000000 1.000000
    outer loop
      vertex 15.663000 59.912000 13.300000
      vertex 14.301047 56.623953 13.300000
      vertex 55.351000 9.050000 13.300000
    endloop
  endfacet
  facet normal 0.000000 -0.000000 1.000000
    outer loop
      vertex 18.277000 72.863000 13.300000
      vertex 5.986000 69.570000 13.300000
      vertex 38.110000 61.413000 13.300000
    endloop
  endfacet
  facet normal 0.000000 0.000000 1.000000
    outer loop
      vertex 20.739000 37.097000 13.300000
      vertex 7.724953 56.623953 13.300000
      vertex 3.405000 47.104000 13.300000
    endloop
  endfacet
  facet normal -0.000000 0.000000 1.000000
    outer loop
      vertex 7.724953 56.623953 13.300000
      vertex 6.363000 59.912000 13.300000
      vertex 3.405000 47.104000 13.300000
    endloop
  endfacet
  facet normal 0.000000 0.000000 1.000000
    outer loop
      vertex 14.301047 63.200047 13.300000
      vertex 15.663000 59.912000 13.300000
      vertex 55.351000 31.551000 13.300000
    endloop
  endfacet
  facet normal -0.000000 -0.000000 1.000000
    outer loop
      vertex 38.110000 61.413000 13.300000
      vertex 14.301047 63.200047 13.300000
      vertex 55.351000 31.551000 13.300000
    endloop
  endfacet
  facet normal 0.000000 0.000000 1.000000
    outer loop
      vertex 38.110000 61.413000 13.300000
      vertex 5.986000 69.570000 13.300000
      vertex 14.301047 63.200047 13.300000
    endloop
  endfacet
  facet normal -0.000000 0.000000 1.000000
    outer loop
      vertex 55.351000 31.551000 13.300000
      vertex 15.663000 59.912000 13.300000
      vertex 55.351000 9.050000 13.300000
    endloop
  endfacet
  facet normal 0.000000 0.000000 1.000000
    outer loop
      vertex 11.013000 64.562000 13.300000
      vertex 14.301047 63.200047 13.300000
      vertex 5.986000 69.570000 13.300000
    endloop
  endfacet
  facet normal 0.000000 0.000000 1.000000
    outer loop
      vertex 20.739000 37.097000 13.300000
      vertex 11.013000 55.262000 13.300000
      vertex 7.724953 56.623953 13.300000
    endloop
  endfacet
  facet normal 0.000000 0.000000 1.000000
    outer loop
      vertex 36.985953 5.960953 13.300000
      vertex 35.624000 9.249000 13.300000
      vertex 25.199000 29.471000 13.300000
    endloop
  endfacet
  facet normal 0.000000 0.000000 1.000000
    outer loop
      vertex 37.500000 0.000000 13.300000
      vertex 36.985953 5.960953 13.300000
      vertex 32.500000 1.879000 13.300000
    endloop
  endfacet
  facet normal 0.000000 0.000000 1.000000
    outer loop
      vertex 35.624000 9.249000 13.300000
      vertex 36.985953 12.537047 13.300000
      vertex 14.301047 56.623953 13.300000
    endloop
  endfacet
  facet normal 0.000000 -0.000000 1.000000
    outer loop
      vertex 42.500000 0.000000 13.300000
      vertex 42.500000 -13.000000 13.300000
      vertex 49.000000 -17.000000 13.300000
    endloop
  endfacet
  facet normal 0.000000 -0.000000 1.000000
    outer loop
      vertex 43.562047 5.960953 13.300000
      vertex 42.500000 0.000000 13.300000
      vertex 47.500000 1.199000 13.300000
    endloop
  endfacet
  facet normal 0.000000 0.000000 1.000000
    outer loop
      vertex 55.351000 9.050000 13.300000
      vertex 14.301047 56.623953 13.300000
      vertex 40.274000 13.899000 13.300000
    endloop
  endfacet
  facet normal 0.000000 0.000000 1.000000
    outer loop
      vertex 43.562047 5.960953 13.300000
      vertex 40.274000 4.599000 13.300000
      vertex 42.500000 0.000000 13.300000
    endloop
  endfacet
  facet normal 0.000000 0.000000 1.000000
    outer loop
      vertex 55.351000 9.050000 13.300000
      vertex 40.274000 13.899000 13.300000
      vertex 43.562047 12.537047 13.300000
    endloop
  endfacet
  facet normal -0.000000 0.000000 1.000000
    outer loop
      vertex 55.351000 9.050000 13.300000
      vertex 44.924000 9.249000 13.300000
      vertex 47.500000 1.199000 13.300000
    endloop
  endfacet
  facet normal 0.000000 0.000000 1.000000
    outer loop
      vertex 55.351000 9.050000 13.300000
      vertex 43.562047 12.537047 13.300000
      vertex 44.924000 9.249000 13.300000
    endloop
  endfacet
  facet normal 0.000000 0.000000 1.000000
    outer loop
      vertex 37.500000 -13.000000 13.300000
      vertex 37.500000 0.000000 13.300000
      vertex 32.500000 1.879000 13.300000
    endloop
  endfacet
  facet normal 0.000000 -0.000000 1.000000
    outer loop
      vertex 14.301047 56.623953 13.300000
      vertex 11.013000 55.262000 13.300000
      vertex 20.739000 37.097000 13.300000
    endloop
  endfacet
  facet normal 0.000000 0.000000 1.000000
    outer loop
      vertex 6.363000 59.912000 13.300000
      vertex 7.724953 63.200047 13.300000
      vertex 5.986000 69.570000 13.300000
    endloop
  endfacet
  facet normal 0.000000 0.000000 1.000000
    outer loop
      vertex 49.000000 -17.000000 13.300000
      vertex 37.500000 -13.000000 13.300000
      vertex 32.500000 -13.000000 13.300000
    endloop
  endfacet
  facet normal 0.000000 0.000000 1.000000
    outer loop
      vertex 37.500000 0.000000 13.300000
      vertex 40.274000 4.599000 13.300000
      vertex 36.985953 5.960953 13.300000
    endloop
  endfacet
  facet normal 0.000000 0.000000 1.000000
    outer loop
      vertex 42.500000 0.000000 13.300000
      vertex 49.000000 -17.000000 13.300000
      vertex 47.500000 -13.000000 13.300000
    endloop
  endfacet
  facet normal 0.000000 -0.000000 1.000000
    outer loop
      vertex 44.924000 9.249000 13.300000
      vertex 43.562047 5.960953 13.300000
      vertex 47.500000 1.199000 13.300000
    endloop
  endfacet
  facet normal 0.000000 0.000000 1.000000
    outer loop
      vertex 49.000000 -17.000000 13.300000
      vertex 42.500000 -13.000000 13.300000
      vertex 37.500000 -13.000000 13.300000
    endloop
  endfacet
  facet normal 0.000000 0.000000 1.000000
    outer loop
      vertex 47.500000 -13.000000 13.300000
      vertex 47.500000 1.199000 13.300000
      vertex 42.500000 0.000000 13.300000
    endloop
  endfacet
  facet normal 0.000000 0.000000 1.000000
    outer loop
      vertex 37.500000 0.000000 13.300000
      vertex 42.500000 0.000000 13.300000
      vertex 40.274000 4.599000 13.300000
    endloop
  endfacet
  facet normal 0.000000 0.000000 1.000000
    outer loop
      vertex 36.985953 12.537047 13.300000
      vertex 40.274000 13.899000 13.300000
      vertex 14.301047 56.623953 13.300000
    endloop
  endfacet
  facet normal 0.000000 0.000000 1.000000
    outer loop
      vertex 14.301047 56.623953 13.300000
      vertex 25.199000 29.471000 13.300000
      vertex 35.624000 9.249000 13.300000
    endloop
  endfacet
  facet normal 0.000000 0.000000 1.000000
    outer loop
      vertex 7.724953 63.200047 13.300000
      vertex 11.013000 64.562000 13.300000
      vertex 5.986000 69.570000 13.300000
    endloop
  endfacet
  facet normal -0.499970 -0.866042 -0.000000
    outer loop
      vertex 15.296587 40.238931 2.353960
      vertex 3.405000 47.104000 0.000000
      vertex 20.739000 37.097000 0.000000
    endloop
  endfacet
  facet normal -0.499970 -0.866042 0.000000
    outer loop
      vertex 15.296587 40.238931 10.946040
      vertex 17.476037 38.980724 8.429478
      vertex 20.739000 37.097000 13.300000
    endloop
  endfacet
  facet normal -0.499970 -0.866042 0.000000
    outer loop
      vertex 3.405000 47.104000 13.300000
      vertex 3.405000 47.104000 0.000000
      vertex 10.034931 43.276510 4.870522
    endloop
  endfacet
  facet normal -0.499970 -0.866042 0.000000
    outer loop
      vertex 12.214380 42.018303 10.946040
      vertex 3.405000 47.104000 13.300000
      vertex 10.034930 43.276510 8.429478
    endloop
  endfacet
  facet normal -0.499970 -0.866042 0.000000
    outer loop
      vertex 20.739000 37.097000 13.300000
      vertex 3.405000 47.104000 13.300000
      vertex 12.214380 42.018303 10.946040
    endloop
  endfacet
  facet normal -0.499970 -0.866042 0.000000
    outer loop
      vertex 20.739000 37.097000 13.300000
      vertex 12.214380 42.018303 10.946040
      vertex 15.296587 40.238931 10.946040
    endloop
  endfacet
  facet normal -0.499970 -0.866042 0.000000
    outer loop
      vertex 20.739000 37.097000 13.300000
      vertex 17.476037 38.980724 8.429478
      vertex 20.739000 37.097000 0.000000
    endloop
  endfacet
  facet normal -0.499970 -0.866042 0.000000
    outer loop
      vertex 17.476037 38.980724 8.429478
      vertex 17.476037 38.980724 4.870522
      vertex 20.739000 37.097000 0.000000
    endloop
  endfacet
  facet normal -0.499970 -0.866042 -0.000000
    outer loop
      vertex 12.214380 42.018303 2.353960
      vertex 3.405000 47.104000 0.000000
      vertex 15.296587 40.238931 2.353960
    endloop
  endfacet
  facet normal -0.499970 -0.866042 -0.000000
    outer loop
      vertex 10.034931 43.276510 4.870522
      vertex 3.405000 47.104000 0.000000
      vertex 12.214380 42.018303 2.353960
    endloop
  endfacet
  facet normal -0.499970 -0.866042 -0.000000
    outer loop
      vertex 10.034931 43.276510 4.870522
      vertex 10.034930 43.276510 8.429478
      vertex 3.405000 47.104000 13.300000
    endloop
  endfacet
  facet normal -0.499970 -0.866042 -0.000000
    outer loop
      vertex 17.476037 38.980724 4.870522
      vertex 15.296587 40.238931 2.353960
      vertex 20.739000 37.097000 0.000000
    endloop
  endfacet
  facet normal -0.863212 -0.504842 -0.000000
    outer loop
      vertex 20.739000 37.097000 0.000000
      vertex 25.199000 29.471000 0.000000
      vertex 20.739000 37.097000 13.300000
    endloop
  endfacet
  facet normal -0.863212 -0.504842 0.000000
    outer loop
      vertex 20.739000 37.097000 13.300000
      vertex 25.199000 29.471000 0.000000
      vertex 25.199000 29.471000 13.300000
    endloop
  endfacet
  facet normal -1.000000 0.000000 0.000000
    outer loop
      vertex 25.199000 25.296040 4.870522
      vertex 25.199000 29.471000 0.000000
      vertex 25.199000 22.779478 2.353960
    endloop
  endfacet
  facet normal -1.000000 0.000000 -0.000000
    outer loop
      vertex 25.199000 22.779478 10.946040
      vertex 25.199000 9.180000 13.300000
      vertex 25.199000 29.471000 13.300000
    endloop
  endfacet
  facet normal -1.000000 0.000000 -0.000000
    outer loop
      vertex 25.199000 9.180000 0.000000
      vertex 25.199000 9.180000 13.300000
      vertex 25.199000 16.703960 4.870522
    endloop
  endfacet
  facet normal -1.000000 0.000000 0.000000
    outer loop
      vertex 25.199000 9.180000 0.000000
      vertex 25.199000 16.703960 4.870522
      vertex 25.199000 19.220522 2.353960
    endloop
  endfacet
  facet normal -1.000000 -0.000000 0.000000
    outer loop
      vertex 25.199000 9.180000 0.000000
      vertex 25.199000 19.220522 2.353960
      vertex 25.199000 29.471000 0.000000
    endloop
  endfacet
  facet normal -1.000000 0.000000 0.000000
    outer loop
      vertex 25.199000 19.220522 2.353960
      vertex 25.199000 22.779478 2.353960
      vertex 25.199000 29.471000 0.000000
    endloop
  endfacet
  facet normal -1.000000 -0.000000 0.000000
    outer loop
      vertex 25.199000 22.779478 10.946040
      vertex 25.199000 29.471000 13.300000
      vertex 25.199000 25.296040 8.429478
    endloop
  endfacet
  facet normal -1.000000 0.000000 0.000000
    outer loop
      vertex 25.199000 29.471000 0.000000
      vertex 25.199000 25.296040 4.870522
      vertex 25.199000 29.471000 13.300000
    endloop
  endfacet
  facet normal -1.000000 0.000000 0.000000
    outer loop
      vertex 25.199000 25.296040 4.870522
      vertex 25.199000 25.296040 8.429478
      vertex 25.199000 29.471000 13.300000
    endloop
  endfacet
  facet normal -1.000000 -0.000000 -0.000000
    outer loop
      vertex 25.199000 19.220522 10.946040
      vertex 25.199000 9.180000 13.300000
      vertex 25.199000 22.779478 10.946040
    endloop
  endfacet
  facet normal -1.000000 0.000000 -0.000000
    outer loop
      vertex 25.199000 16.703960 8.429478
      vertex 25.199000 9.180000 13.300000
      vertex 25.199000 19.220522 10.946040
    endloop
  endfacet
  facet normal -1.000000 0.000000 -0.000000
    outer loop
      vertex 25.199000 16.703960 4.870522
      vertex 25.199000 9.180000 13.300000
      vertex 25.199000 16.703960 8.429478
    endloop
  endfacet
  facet normal -0.707107 -0.707107 0.000000
    outer loop
      vertex 25.199000 9.180000 13.300000
      vertex 25.199000 9.180000 0.000000
      vertex 32.500000 1.879000 0.000000
    endloop
  endfacet
  facet normal -0.707107 -0.707107 0.000000
    outer loop
      vertex 32.500000 1.879000 13.300000
      vertex 25.199000 9.180000 13.300000
      vertex 32.500000 1.879000 0.000000
    endloop
  endfacet
  facet normal -1.000000 -0.000000 -0.000000
    outer loop
      vertex 32.500000 -13.000000 0.000000
      vertex 32.500000 -13.000000 13.300000
      vertex 32.500000 1.879000 0.000000
    endloop
  endfacet
  facet normal -1.000000 0.000000 0.000000
    outer loop
      vertex 32.500000 1.879000 0.000000
      vertex 32.500000 -13.000000 13.300000
      vertex 32.500000 1.879000 13.300000
    endloop
  endfacet
  facet normal 0.000000 1.000000 0.000000
    outer loop
      vertex 31.000000 -13.000000 0.000000
      vertex 31.000000 -13.000000 13.300000
      vertex 32.500000 -13.000000 0.000000
    endloop
  endfacet
  facet normal 0.000000 1.000000 0.000000
    outer loop
      vertex 32.500000 -13.000000 0.000000
      vertex 31.000000 -13.000000 13.300000
      vertex 32.500000 -13.000000 13.300000
    endloop
  endfacet
  facet normal -1.000000 -0.000000 -0.000000
    outer loop
      vertex 31.000000 -17.000000 0.000000
      vertex 31.000000 -17.000000 13.300000
      vertex 31.000000 -13.000000 0.000000
    endloop
  endfacet
  facet normal -1.000000 0.000000 0.000000
    outer loop
      vertex 31.000000 -13.000000 0.000000
      vertex 31.000000 -17.000000 13.300000
      vertex 31.000000 -13.000000 13.300000
    endloop
  endfacet
  facet normal 0.000000 -1.000000 0.000000
    outer loop
      vertex 31.000000 -17.000000 13.300000
      vertex 31.000000 -17.000000 0.000000
      vertex 49.000000 -17.000000 0.000000
    endloop
  endfacet
  facet normal 0.000000 -1.000000 0.000000
    outer loop
      vertex 49.000000 -17.000000 13.300000
      vertex 31.000000 -17.000000 13.300000
      vertex 49.000000 -17.000000 0.000000
    endloop
  endfacet
  facet normal 1.000000 0.000000 -0.000000
    outer loop
      vertex 49.000000 -17.000000 13.300000
      vertex 49.000000 -17.000000 0.000000
      vertex 49.000000 -13.000000 0.000000
    endloop
  endfacet
  facet normal 1.000000 0.000000 0.000000
    outer loop
      vertex 49.000000 -13.000000 13.300000
      vertex 49.000000 -17.000000 13.300000
      vertex 49.000000 -13.000000 0.000000
    endloop
  endfacet
  facet normal 0.000000 1.000000 0.000000
    outer loop
      vertex 47.500000 -13.000000 0.000000
      vertex 47.500000 -13.000000 13.300000
      vertex 49.000000 -13.000000 0.000000
    endloop
  endfacet
  facet normal 0.000000 1.000000 0.000000
    outer loop
      vertex 49.000000 -13.000000 0.000000
      vertex 47.500000 -13.000000 13.300000
      vertex 49.000000 -13.000000 13.300000
    endloop
  endfacet
  facet normal 1.000000 0.000000 -0.000000
    outer loop
      vertex 47.500000 -13.000000 13.300000
      vertex 47.500000 -13.000000 0.000000
      vertex 47.500000 1.199000 0.000000
    endloop
  endfacet
  facet normal 1.000000 0.000000 0.000000
    outer loop
      vertex 47.500000 1.199000 13.300000
      vertex 47.500000 -13.000000 13.300000
      vertex 47.500000 1.199000 0.000000
    endloop
  endfacet
  facet normal 0.707107 -0.707107 0.000000
    outer loop
      vertex 47.500000 1.199000 13.300000
      vertex 47.500000 1.199000 0.000000
      vertex 55.351000 9.050000 0.000000
    endloop
  endfacet
  facet normal 0.707107 -0.707107 0.000000
    outer loop
      vertex 55.351000 9.050000 13.300000
      vertex 47.500000 1.199000 13.300000
      vertex 55.351000 9.050000 0.000000
    endloop
  endfacet
  facet normal 1.000000 0.000000 -0.000000
    outer loop
      vertex 55.351000 22.779478 2.353960
      vertex 55.351000 9.050000 0.000000
      vertex 55.351000 31.551000 0.000000
    endloop
  endfacet
  facet normal 1.000000 0.000000 -0.000000
    outer loop
      vertex 55.351000 9.050000 13.300000
      vertex 55.351000 9.050000 0.000000
      vertex 55.351000 16.703960 4.870522
    endloop
  endfacet
  facet normal 1.000000 0.000000 -0.000000
    outer loop
      vertex 55.351000 25.296040 8.429478
      vertex 55.351000 25.296040 4.870522
      vertex 55.351000 31.551000 0.000000
    endloop
  endfacet
  facet normal 1.000000 0.000000 0.000000
    outer loop
      vertex 55.351000 9.050000 13.300000
      vertex 55.351000 16.703960 4.870522
      vertex 55.351000 16.703960 8.429478
    endloop
  endfacet
  facet normal 1.000000 0.000000 0.000000
    outer loop
      vertex 55.351000 31.551000 13.300000
      vertex 55.351000 9.050000 13.300000
      vertex 55.351000 19.220522 10.946040
    endloop
  endfacet
  facet normal 1.000000 0.000000 -0.000000
    outer loop
      vertex 55.351000 25.296040 4.870522
      vertex 55.351000 22.779478 2.353960
      vertex 55.351000 31.551000 0.000000
    endloop
  endfacet
  facet normal 1.000000 0.000000 0.000000
    outer loop
      vertex 55.351000 31.551000 13.300000
      vertex 55.351000 19.220522 10.946040
      vertex 55.351000 22.779478 10.946040
    endloop
  endfacet
  facet normal 1.000000 0.000000 0.000000
    outer loop
      vertex 55.351000 31.551000 13.300000
      vertex 55.351000 25.296040 8.429478
      vertex 55.351000 31.551000 0.000000
    endloop
  endfacet
  facet normal 1.000000 0.000000 0.000000
    outer loop
      vertex 55.351000 31.551000 13.300000
      vertex 55.351000 22.779478 10.946040
      vertex 55.351000 25.296040 8.429478
    endloop
  endfacet
  facet normal 1.000000 0.000000 -0.000000
    outer loop
      vertex 55.351000 19.220522 2.353960
      vertex 55.351000 9.050000 0.000000
      vertex 55.351000 22.779478 2.353960
    endloop
  endfacet
  facet normal 1.000000 0.000000 -0.000000
    outer loop
      vertex 55.351000 16.703960 4.870522
      vertex 55.351000 9.050000 0.000000
      vertex 55.351000 19.220522 2.353960
    endloop
  endfacet
  facet normal 1.000000 0.000000 0.000000
    outer loop
      vertex 55.351000 16.703960 8.429478
      vertex 55.351000 19.220522 10.946040
      vertex 55.351000 9.050000 13.300000
    endloop
  endfacet
  facet normal 0.866023 0.500004 0.000000
    outer loop
      vertex 55.351000 31.551000 0.000000
      vertex 38.110000 61.413000 0.000000
      vertex 38.110000 61.413000 13.300000
    endloop
  endfacet
  facet normal 0.866023 0.500004 -0.000000
    outer loop
      vertex 55.351000 31.551000 13.300000
      vertex 55.351000 31.551000 0.000000
      vertex 38.110000 61.413000 13.300000
    endloop
  endfacet
  facet normal 0.499981 0.866037 -0.000000
    outer loop
      vertex 32.347914 64.739571 4.870522
      vertex 38.110000 61.413000 0.000000
      vertex 30.168479 65.997804 2.353960
    endloop
  endfacet
  facet normal 0.499981 0.866037 -0.000000
    outer loop
      vertex 30.168480 65.997804 10.946040
      vertex 18.277000 72.863000 13.300000
      vertex 38.110000 61.413000 13.300000
    endloop
  endfacet
  facet normal 0.499981 0.866037 0.000000
    outer loop
      vertex 18.277000 72.863000 0.000000
      vertex 18.277000 72.863000 13.300000
      vertex 24.906859 69.035446 8.429478
    endloop
  endfacet
  facet normal 0.499981 0.866037 -0.000000
    outer loop
      vertex 18.277000 72.863000 0.000000
      vertex 24.906859 69.035446 8.429478
      vertex 24.906859 69.035446 4.870522
    endloop
  endfacet
  facet normal 0.499981 0.866037 -0.000000
    outer loop
      vertex 18.277000 72.863000 0.000000
      vertex 24.906859 69.035446 4.870522
      vertex 27.086293 67.777213 2.353960
    endloop
  endfacet
  facet normal 0.499981 0.866037 0.000000
    outer loop
      vertex 18.277000 72.863000 0.000000
      vertex 27.086293 67.777213 2.353960
      vertex 38.110000 61.413000 0.000000
    endloop
  endfacet
  facet normal 0.499981 0.866037 0.000000
    outer loop
      vertex 27.086293 67.777213 2.353960
      vertex 30.168479 65.997804 2.353960
      vertex 38.110000 61.413000 0.000000
    endloop
  endfacet
  facet normal 0.499981 0.866037 0.000000
    outer loop
      vertex 38.110000 61.413000 0.000000
      vertex 32.347914 64.739571 4.870522
      vertex 38.110000 61.413000 13.300000
    endloop
  endfacet
  facet normal 0.499981 0.866037 0.000000
    outer loop
      vertex 32.347914 64.739571 4.870522
      vertex 32.347914 64.739571 8.429478
      vertex 38.110000 61.413000 13.300000
    endloop
  endfacet
  facet normal 0.499981 0.866037 -0.000000
    outer loop
      vertex 27.086294 67.777213 10.946040
      vertex 18.277000 72.863000 13.300000
      vertex 30.168480 65.997804 10.946040
    endloop
  endfacet
  facet normal 0.499981 0.866037 0.000000
    outer loop
      vertex 32.347914 64.739571 8.429478
      vertex 30.168480 65.997804 10.946040
      vertex 38.110000 61.413000 13.300000
    endloop
  endfacet
  facet normal 0.499981 0.866037 0.000000
    outer loop
      vertex 24.906859 69.035446 8.429478
      vertex 18.277000 72.863000 13.300000
      vertex 27.086294 67.777213 10.946040
    endloop
  endfacet
  facet normal 0.923880 0.382683 0.000000
    outer loop
      vertex 6.363000 59.912000 13.300000
      vertex 7.724953 56.623953 13.300000
      vertex 7.724953 56.623953 0.000000
    endloop
  endfacet
  facet normal 0.923880 0.382683 0.000000
    outer loop
      vertex 6.363000 59.912000 0.000000
      vertex 6.363000 59.912000 13.300000
      vertex 7.724953 56.623953 0.000000
    endloop
  endfacet
  facet normal 0.923880 -0.382683 0.000000
    outer loop
      vertex 7.724953 63.200047 0.000000
      vertex 7.724953 63.200047 13.300000
      vertex 6.363000 59.912000 13.300000
    endloop
  endfacet
  facet normal 0.923880 -0.382683 0.000000
    outer loop
      vertex 6.363000 59.912000 0.000000
      vertex 7.724953 63.200047 0.000000
      vertex 6.363000 59.912000 13.300000
    endloop
  endfacet
  facet normal 0.382683 -0.923880 0.000000
    outer loop
      vertex 11.013000 64.562000 0.000000
      vertex 11.013000 64.562000 13.300000
      vertex 7.724953 63.200047 13.300000
    endloop
  endfacet
  facet normal 0.382683 -0.923880 0.000000
    outer loop
      vertex 7.724953 63.200047 0.000000
      vertex 11.013000 64.562000 0.000000
      vertex 7.724953 63.200047 13.300000
    endloop
  endfacet
  facet normal -0.382683 -0.923880 -0.000000
    outer loop
      vertex 14.301047 63.200047 0.000000
      vertex 14.301047 63.200047 13.300000
      vertex 11.013000 64.562000 13.300000
    endloop
  endfacet
  facet normal -0.382683 -0.923880 -0.000000
    outer loop
      vertex 11.013000 64.562000 0.000000
      vertex 14.301047 63.200047 0.000000
      vertex 11.013000 64.562000 13.300000
    endloop
  endfacet
  facet normal -0.923880 -0.382683 0.000000
    outer loop
      vertex 15.663000 59.912000 13.300000
      vertex 14.301047 63.200047 13.300000
      vertex 15.663000 59.912000 0.000000
    endloop
  endfacet
  facet normal -0.923880 -0.382683 0.000000
    outer loop
      vertex 15.663000 59.912000 0.000000
      vertex 14.301047 63.200047 13.300000
      vertex 14.301047 63.200047 0.000000
    endloop
  endfacet
  facet normal -0.923880 0.382683 0.000000
    outer loop
      vertex 15.663000 59.912000 13.300000
      vertex 15.663000 59.912000 0.000000
      vertex 14.301047 56.623953 13.300000
    endloop
  endfacet
  facet normal -0.923880 0.382683 0.000000
    outer loop
      vertex 14.301047 56.623953 13.300000
      vertex 15.663000 59.912000 0.000000
      vertex 14.301047 56.623953 0.000000
    endloop
  endfacet
  facet normal -0.382683 0.923880 0.000000
    outer loop
      vertex 14.301047 56.623953 13.300000
      vertex 14.301047 56.623953 0.000000
      vertex 11.013000 55.262000 13.300000
    endloop
  endfacet
  facet normal -0.382683 0.923880 0.000000
    outer loop
      vertex 11.013000 55.262000 13.300000
      vertex 14.301047 56.623953 0.000000
      vertex 11.013000 55.262000 0.000000
    endloop
  endfacet
  facet normal 0.382683 0.923880 -0.000000
    outer loop
      vertex 11.013000 55.262000 13.300000
      vertex 11.013000 55.262000 0.000000
      vertex 7.724953 56.623953 13.300000
    endloop
  endfacet
  facet normal 0.382683 0.923880 -0.000000
    outer loop
      vertex 7.724953 56.623953 13.300000
      vertex 11.013000 55.262000 0.000000
      vertex 7.724953 56.623953 0.000000
    endloop
  endfacet
  facet normal 0.923880 -0.382683 0.000000
    outer loop
      vertex 36.985953 12.537047 0.000000
      vertex 36.985953 12.537047 13.300000
      vertex 35.624000 9.249000 13.300000
    endloop
  endfacet
  facet normal 0.923880 -0.382683 0.000000
    outer loop
      vertex 35.624000 9.249000 0.000000
      vertex 36.985953 12.537047 0.000000
      vertex 35.624000 9.249000 13.300000
    endloop
  endfacet
  facet normal 0.923880 0.382683 0.000000
    outer loop
      vertex 35.624000 9.249000 13.300000
      vertex 36.985953 5.960953 13.300000
      vertex 36.985953 5.960953 0.000000
    endloop
  endfacet
  facet normal 0.923880 0.382683 0.000000
    outer loop
      vertex 35.624000 9.249000 0.000000
      vertex 35.624000 9.249000 13.300000
      vertex 36.985953 5.960953 0.000000
    endloop
  endfacet
  facet normal 0.382683 -0.923880 0.000000
    outer loop
      vertex 40.274000 13.899000 0.000000
      vertex 40.274000 13.899000 13.300000
      vertex 36.985953 12.537047 13.300000
    endloop
  endfacet
  facet normal 0.382683 -0.923880 0.000000
    outer loop
      vertex 36.985953 12.537047 0.000000
      vertex 40.274000 13.899000 0.000000
      vertex 36.985953 12.537047 13.300000
    endloop
  endfacet
  facet normal -0.382683 -0.923880 -0.000000
    outer loop
      vertex 43.562047 12.537047 0.000000
      vertex 43.562047 12.537047 13.300000
      vertex 40.274000 13.899000 13.300000
    endloop
  endfacet
  facet normal -0.382683 -0.923880 -0.000000
    outer loop
      vertex 40.274000 13.899000 0.000000
      vertex 43.562047 12.537047 0.000000
      vertex 40.274000 13.899000 13.300000
    endloop
  endfacet
  facet normal -0.923880 -0.382683 0.000000
    outer loop
      vertex 44.924000 9.249000 13.300000
      vertex 43.562047 12.537047 13.300000
      vertex 44.924000 9.249000 0.000000
    endloop
  endfacet
  facet normal -0.923880 -0.382683 0.000000
    outer loop
      vertex 44.924000 9.249000 0.000000
      vertex 43.562047 12.537047 13.300000
      vertex 43.562047 12.537047 0.000000
    endloop
  endfacet
  facet normal -0.923880 0.382683 0.000000
    outer loop
      vertex 44.924000 9.249000 13.300000
      vertex 44.924000 9.249000 0.000000
      vertex 43.562047 5.960953 13.300000
    endloop
  endfacet
  facet normal -0.923880 0.382683 0.000000
    outer loop
      vertex 43.562047 5.960953 13.300000
      vertex 44.924000 9.249000 0.000000
      vertex 43.562047 5.960953 0.000000
    endloop
  endfacet
  facet normal -0.382683 0.923880 0.000000
    outer loop
      vertex 43.562047 5.960953 13.300000
      vertex 43.562047 5.960953 0.000000
      vertex 40.274000 4.599000 13.300000
    endloop
  endfacet
  facet normal -0.382683 0.923880 0.000000
    outer loop
      vertex 40.274000 4.599000 13.300000
      vertex 43.562047 5.960953 0.000000
      vertex 40.274000 4.599000 0.000000
    endloop
  endfacet
  facet normal 0.382683 0.923880 -0.000000
    outer loop
      vertex 40.274000 4.599000 13.300000
      vertex 40.274000 4.599000 0.000000
      vertex 36.985953 5.960953 13.300000
    endloop
  endfacet
  facet normal 0.382683 0.923880 -0.000000
    outer loop
      vertex 36.985953 5.960953 13.300000
      vertex 40.274000 4.599000 0.000000
      vertex 36.985953 5.960953 0.000000
    endloop
  endfacet
  facet normal 1.000000 0.000000 -0.000000
    outer loop
      vertex 37.500000 -13.000000 13.300000
      vertex 37.500000 -13.000000 0.000000
      vertex 37.500000 0.000000 0.000000
    endloop
  endfacet
  facet normal 1.000000 0.000000 0.000000
    outer loop
      vertex 37.500000 0.000000 13.300000
      vertex 37.500000 -13.000000 13.300000
      vertex 37.500000 0.000000 0.000000
    endloop
  endfacet
  facet normal 0.000000 -1.000000 0.000000
    outer loop
      vertex 37.500000 0.000000 13.300000
      vertex 37.500000 0.000000 0.000000
      vertex 42.500000 0.000000 0.000000
    endloop
  endfacet
  facet normal 0.000000 -1.000000 0.000000
    outer loop
      vertex 42.500000 0.000000 13.300000
      vertex 37.500000 0.000000 13.300000
      vertex 42.500000 0.000000 0.000000
    endloop
  endfacet
  facet normal -1.000000 -0.000000 -0.000000
    outer loop
      vertex 42.500000 -13.000000 0.000000
      vertex 42.500000 -13.000000 13.300000
      vertex 42.500000 0.000000 0.000000
    endloop
  endfacet
  facet normal -1.000000 0.000000 0.000000
    outer loop
      vertex 42.500000 0.000000 0.000000
      vertex 42.500000 -13.000000 13.300000
      vertex 42.500000 0.000000 13.300000
    endloop
  endfacet
  facet normal 0.000000 1.000000 0.000000
    outer loop
      vertex 37.500000 -13.000000 0.000000
      vertex 37.500000 -13.000000 13.300000
      vertex 42.500000 -13.000000 0.000000
    endloop
  endfacet
  facet normal 0.000000 1.000000 0.000000
    outer loop
      vertex 42.500000 -13.000000 0.000000
      vertex 37.500000 -13.000000 13.300000
      vertex 42.500000 -13.000000 13.300000
    endloop
  endfacet
  facet normal 0.612373 -0.353553 0.707107
    outer loop
      vertex 12.214380 42.018303 2.353960
      vertex 27.086293 67.777213 2.353960
      vertex 24.906859 69.035446 4.870522
    endloop
  endfacet
  facet normal 0.612373 -0.353553 0.707107
    outer loop
      vertex 10.034931 43.276510 4.870522
      vertex 12.214380 42.018303 2.353960
      vertex 24.906859 69.035446 4.870522
    endloop
  endfacet
  facet normal 0.866025 -0.500000 0.000000
    outer loop
      vertex 10.034931 43.276510 4.870522
      vertex 24.906859 69.035446 4.870522
      vertex 24.906859 69.035446 8.429478
    endloop
  endfacet
  facet normal 0.866025 -0.500000 0.000000
    outer loop
      vertex 10.034930 43.276510 8.429478
      vertex 10.034931 43.276510 4.870522
      vertex 24.906859 69.035446 8.429478
    endloop
  endfacet
  facet normal -0.000000 0.000000 1.000000
    outer loop
      vertex 15.296587 40.238931 2.353960
      vertex 30.168479 65.997804 2.353960
      vertex 27.086293 67.777213 2.353960
    endloop
  endfacet
  facet normal -0.000000 0.000000 1.000000
    outer loop
      vertex 12.214380 42.018303 2.353960
      vertex 15.296587 40.238931 2.353960
      vertex 27.086293 67.777213 2.353960
    endloop
  endfacet
  facet normal -0.612372 0.353553 0.707107
    outer loop
      vertex 17.476037 38.980724 4.870522
      vertex 32.347914 64.739571 4.870522
      vertex 30.168479 65.997804 2.353960
    endloop
  endfacet
  facet normal -0.612372 0.353553 0.707107
    outer loop
      vertex 15.296587 40.238931 2.353960
      vertex 17.476037 38.980724 4.870522
      vertex 30.168479 65.997804 2.353960
    endloop
  endfacet
  facet normal -0.866025 0.500000 -0.000000
    outer loop
      vertex 32.347914 64.739571 4.870522
      vertex 17.476037 38.980724 4.870522
      vertex 32.347914 64.739571 8.429478
    endloop
  endfacet
  facet normal -0.866025 0.500000 -0.000000
    outer loop
      vertex 32.347914 64.739571 8.429478
      vertex 17.476037 38.980724 4.870522
      vertex 17.476037 38.980724 8.429478
    endloop
  endfacet
  facet normal -0.612373 0.353553 -0.707107
    outer loop
      vertex 32.347914 64.739571 8.429478
      vertex 17.476037 38.980724 8.429478
      vertex 30.168480 65.997804 10.946040
    endloop
  endfacet
  facet normal -0.612373 0.353553 -0.707107
    outer loop
      vertex 30.168480 65.997804 10.946040
      vertex 17.476037 38.980724 8.429478
      vertex 15.296587 40.238931 10.946040
    endloop
  endfacet
  facet normal 0.000000 -0.000000 -1.000000
    outer loop
      vertex 30.168480 65.997804 10.946040
      vertex 15.296587 40.238931 10.946040
      vertex 27.086294 67.777213 10.946040
    endloop
  endfacet
  facet normal 0.000000 -0.000000 -1.000000
    outer loop
      vertex 27.086294 67.777213 10.946040
      vertex 15.296587 40.238931 10.946040
      vertex 12.214380 42.018303 10.946040
    endloop
  endfacet
  facet normal 0.612372 -0.353553 -0.707107
    outer loop
      vertex 27.086294 67.777213 10.946040
      vertex 12.214380 42.018303 10.946040
      vertex 24.906859 69.035446 8.429478
    endloop
  endfacet
  facet normal 0.612372 -0.353553 -0.707107
    outer loop
      vertex 24.906859 69.035446 8.429478
      vertex 12.214380 42.018303 10.946040
      vertex 10.034930 43.276510 8.429478
    endloop
  endfacet
  facet normal -0.000000 0.707107 -0.707107
    outer loop
      vertex 55.351000 19.220522 10.946040
      vertex 55.351000 16.703960 8.429478
      vertex 25.199000 19.220522 10.946040
    endloop
  endfacet
  facet normal -0.000000 0.707107 -0.707107
    outer loop
      vertex 25.199000 19.220522 10.946040
      vertex 55.351000 16.703960 8.429478
      vertex 25.199000 16.703960 8.429478
    endloop
  endfacet
  facet normal -0.000000 1.000000 -0.000000
    outer loop
      vertex 55.351000 16.703960 8.429478
      vertex 55.351000 16.703960 4.870522
      vertex 25.199000 16.703960 8.429478
    endloop
  endfacet
  facet normal -0.000000 1.000000 -0.000000
    outer loop
      vertex 25.199000 16.703960 8.429478
      vertex 55.351000 16.703960 4.870522
      vertex 25.199000 16.703960 4.870522
    endloop
  endfacet
  facet normal -0.000000 -0.000000 -1.000000
    outer loop
      vertex 55.351000 22.779478 10.946040
      vertex 55.351000 19.220522 10.946040
      vertex 25.199000 22.779478 10.946040
    endloop
  endfacet
  facet normal -0.000000 -0.000000 -1.000000
    outer loop
      vertex 25.199000 22.779478 10.946040
      vertex 55.351000 19.220522 10.946040
      vertex 25.199000 19.220522 10.946040
    endloop
  endfacet
  facet normal -0.000000 -0.707107 -0.707107
    outer loop
      vertex 55.351000 25.296040 8.429478
      vertex 55.351000 22.779478 10.946040
      vertex 25.199000 25.296040 8.429478
    endloop
  endfacet
  facet normal -0.000000 -0.707107 -0.707107
    outer loop
      vertex 25.199000 25.296040 8.429478
      vertex 55.351000 22.779478 10.946040
      vertex 25.199000 22.779478 10.946040
    endloop
  endfacet
  facet normal 0.000000 -1.000000 0.000000
    outer loop
      vertex 55.351000 25.296040 4.870522
      vertex 55.351000 25.296040 8.429478
      vertex 25.199000 25.296040 8.429478
    endloop
  endfacet
  facet normal 0.000000 -1.000000 0.000000
    outer loop
      vertex 25.199000 25.296040 4.870522
      vertex 55.351000 25.296040 4.870522
      vertex 25.199000 25.296040 8.429478
    endloop
  endfacet
  facet normal 0.000000 -0.707107 0.707107
    outer loop
      vertex 55.351000 22.779478 2.353960
      vertex 55.351000 25.296040 4.870522
      vertex 25.199000 25.296040 4.870522
    endloop
  endfacet
  facet normal 0.000000 -0.707107 0.707107
    outer loop
      vertex 25.199000 22.779478 2.353960
      vertex 55.351000 22.779478 2.353960
      vertex 25.199000 25.296040 4.870522
    endloop
  endfacet
  facet normal 0.000000 0.000000 1.000000
    outer loop
      vertex 55.351000 19.220522 2.353960
      vertex 55.351000 22.779478 2.353960
      vertex 25.199000 22.779478 2.353960
    endloop
  endfacet
  facet normal 0.000000 0.000000 1.000000
    outer loop
      vertex 25.199000 19.220522 2.353960
      vertex 55.351000 19.220522 2.353960
      vertex 25.199000 22.779478 2.353960
    endloop
  endfacet
  facet normal 0.000000 0.707107 0.707107
    outer loop
      vertex 55.351000 16.703960 4.870522
      vertex 55.351000 19.220522 2.353960
      vertex 25.199000 19.220522 2.353960
    endloop
  endfacet
  facet normal 0.000000 0.707107 0.707107
    outer loop
      vertex 25.199000 16.703960 4.870522
      vertex 55.351000 16.703960 4.870522
      vertex 25.199000 19.220522 2.353960
    endloop
  endfacet
endsolid OpenSCAD_Model
