solid OpenSCAD_Model
  facet normal -1.000000 -0.000000 -0.000000
    outer loop
      vertex -35.000000 -25.000000 -0.000000
      vertex -35.000000 -25.000000 15.800000
      vertex -35.000000 15.000000 -0.000000
    endloop
  endfacet
  facet normal -1.000000 0.000000 0.000000
    outer loop
      vertex -35.000000 15.000000 -0.000000
      vertex -35.000000 -25.000000 15.800000
      vertex -35.000000 15.000000 15.800000
    endloop
  endfacet
  facet normal 0.000000 -1.000000 0.000000
    outer loop
      vertex -23.609000 -25.000000 3.520000
      vertex -35.000000 -25.000000 -0.000000
      vertex -14.000000 -25.000000 -0.000000
    endloop
  endfacet
  facet normal 0.000000 -1.000000 0.000000
    outer loop
      vertex -21.057000 -25.000000 9.968000
      vertex -20.641000 -25.000000 8.919000
      vertex -14.000000 -25.000000 -0.000000
    endloop
  endfacet
  facet normal 0.000000 -1.000000 0.000000
    outer loop
      vertex -24.717000 -25.000000 3.309000
      vertex -25.843000 -25.000000 3.380000
      vertex -35.000000 -25.000000 -0.000000
    endloop
  endfacet
  facet normal 0.000000 -1.000000 0.000000
    outer loop
      vertex -35.000000 -25.000000 15.800000
      vertex -35.000000 -25.000000 -0.000000
      vertex -29.465000 -25.000000 7.236000
    endloop
  endfacet
  facet normal 0.000000 -1.000000 0.000000
    outer loop
      vertex -35.000000 -25.000000 15.800000
      vertex -29.465000 -25.000000 7.236000
      vertex -29.465000 -25.000000 8.364000
    endloop
  endfacet
  facet normal 0.000000 -1.000000 0.000000
    outer loop
      vertex -35.000000 -25.000000 15.800000
      vertex -29.465000 -25.000000 8.364000
      vertex -29.184000 -25.000000 9.457000
    endloop
  endfacet
  facet normal 0.000000 -1.000000 0.000000
    outer loop
      vertex -21.057000 -25.000000 5.632000
      vertex -21.720000 -25.000000 4.720000
      vertex -14.000000 -25.000000 -0.000000
    endloop
  endfacet
  facet normal 0.000000 -1.000000 0.000000
    outer loop
      vertex -28.897000 -25.000000 10.050000
      vertex -29.184000 -25.000000 9.457000
      vertex -28.867000 -25.000000 10.033000
    endloop
  endfacet
  facet normal 0.000000 -1.000000 0.000000
    outer loop
      vertex -35.000000 -25.000000 15.800000
      vertex -29.184000 -25.000000 9.457000
      vertex -28.897000 -25.000000 10.050000
    endloop
  endfacet
  facet normal 0.000000 -1.000000 0.000000
    outer loop
      vertex -14.000000 -25.000000 15.800000
      vertex -35.000000 -25.000000 15.800000
      vertex -27.250000 -25.000000 13.200000
    endloop
  endfacet
  facet normal 0.000000 -1.000000 0.000000
    outer loop
      vertex -14.000000 -25.000000 15.800000
      vertex -22.750000 -25.000000 13.200000
      vertex -14.000000 -25.000000 -0.000000
    endloop
  endfacet
  facet normal 0.000000 -1.000000 0.000000
    outer loop
      vertex -14.000000 -25.000000 15.800000
      vertex -27.250000 -25.000000 13.200000
      vertex -22.750000 -25.000000 13.200000
    endloop
  endfacet
  facet normal 0.000000 -1.000000 0.000000
    outer loop
      vertex -22.750000 -25.000000 13.200000
      vertex -21.103000 -25.000000 10.050000
      vertex -14.000000 -25.000000 -0.000000
    endloop
  endfacet
  facet normal 0.000000 -1.000000 0.000000
    outer loop
      vertex -20.641000 -25.000000 6.681000
      vertex -21.057000 -25.000000 5.632000
      vertex -14.000000 -25.000000 -0.000000
    endloop
  endfacet
  facet normal 0.000000 -1.000000 0.000000
    outer loop
      vertex -21.103000 -25.000000 10.050000
      vertex -21.057000 -25.000000 9.968000
      vertex -14.000000 -25.000000 -0.000000
    endloop
  endfacet
  facet normal 0.000000 -1.000000 0.000000
    outer loop
      vertex -21.103000 -25.000000 10.050000
      vertex -21.113000 -25.000000 10.044000
      vertex -21.057000 -25.000000 9.968000
    endloop
  endfacet
  facet normal 0.000000 -1.000000 0.000000
    outer loop
      vertex -20.641000 -25.000000 8.919000
      vertex -20.500000 -25.000000 7.800000
      vertex -14.000000 -25.000000 -0.000000
    endloop
  endfacet
  facet normal 0.000000 -1.000000 0.000000
    outer loop
      vertex -20.500000 -25.000000 7.800000
      vertex -20.641000 -25.000000 6.681000
      vertex -14.000000 -25.000000 -0.000000
    endloop
  endfacet
  facet normal 0.000000 -1.000000 0.000000
    outer loop
      vertex -22.589000 -25.000000 4.001000
      vertex -23.609000 -25.000000 3.520000
      vertex -14.000000 -25.000000 -0.000000
    endloop
  endfacet
  facet normal -0.000000 -1.000000 0.000000
    outer loop
      vertex -24.717000 -25.000000 3.309000
      vertex -35.000000 -25.000000 -0.000000
      vertex -23.609000 -25.000000 3.520000
    endloop
  endfacet
  facet normal 0.000000 -1.000000 0.000000
    outer loop
      vertex -26.916000 -25.000000 3.728000
      vertex -35.000000 -25.000000 -0.000000
      vertex -25.843000 -25.000000 3.380000
    endloop
  endfacet
  facet normal 0.000000 -1.000000 0.000000
    outer loop
      vertex -27.868000 -25.000000 4.333000
      vertex -35.000000 -25.000000 -0.000000
      vertex -26.916000 -25.000000 3.728000
    endloop
  endfacet
  facet normal 0.000000 -1.000000 0.000000
    outer loop
      vertex -28.641000 -25.000000 5.155000
      vertex -35.000000 -25.000000 -0.000000
      vertex -27.868000 -25.000000 4.333000
    endloop
  endfacet
  facet normal 0.000000 -1.000000 0.000000
    outer loop
      vertex -29.184000 -25.000000 6.143000
      vertex -35.000000 -25.000000 -0.000000
      vertex -28.641000 -25.000000 5.155000
    endloop
  endfacet
  facet normal 0.000000 -1.000000 0.000000
    outer loop
      vertex -29.465000 -25.000000 7.236000
      vertex -35.000000 -25.000000 -0.000000
      vertex -29.184000 -25.000000 6.143000
    endloop
  endfacet
  facet normal 0.000000 -1.000000 0.000000
    outer loop
      vertex -21.720000 -25.000000 4.720000
      vertex -22.589000 -25.000000 4.001000
      vertex -14.000000 -25.000000 -0.000000
    endloop
  endfacet
  facet normal 0.000000 -1.000000 -0.000000
    outer loop
      vertex -28.897000 -25.000000 10.050000
      vertex -27.250000 -25.000000 13.200000
      vertex -35.000000 -25.000000 15.800000
    endloop
  endfacet
  facet normal 0.000000 -0.000000 -1.000000
    outer loop
      vertex -29.500000 12.000000 -0.000000
      vertex -35.000000 15.000000 -0.000000
      vertex -14.000000 15.000000 -0.000000
    endloop
  endfacet
  facet normal 0.000000 0.000000 -1.000000
    outer loop
      vertex -28.500000 11.000000 -0.000000
      vertex -14.000000 -2.000000 -0.000000
      vertex -15.000000 -2.000000 -0.000000
    endloop
  endfacet
  facet normal 0.000000 0.000000 -1.000000
    outer loop
      vertex -29.500000 -22.000000 -0.000000
      vertex -35.000000 15.000000 -0.000000
      vertex -29.500000 12.000000 -0.000000
    endloop
  endfacet
  facet normal 0.000000 -0.000000 -1.000000
    outer loop
      vertex -20.500000 12.000000 -0.000000
      vertex -29.500000 12.000000 -0.000000
      vertex -14.000000 15.000000 -0.000000
    endloop
  endfacet
  facet normal 0.000000 -0.000000 -1.000000
    outer loop
      vertex -35.000000 -25.000000 -0.000000
      vertex -35.000000 15.000000 -0.000000
      vertex -29.500000 -22.000000 -0.000000
    endloop
  endfacet
  facet normal -0.000000 0.000000 -1.000000
    outer loop
      vertex -35.000000 -25.000000 -0.000000
      vertex -29.500000 -22.000000 -0.000000
      vertex -14.000000 -25.000000 -0.000000
    endloop
  endfacet
  facet normal 0.000000 0.000000 -1.000000
    outer loop
      vertex -29.500000 -22.000000 -0.000000
      vertex -20.500000 -22.000000 -0.000000
      vertex -14.000000 -25.000000 -0.000000
    endloop
  endfacet
  facet normal 0.000000 0.000000 -1.000000
    outer loop
      vertex -28.500000 11.000000 -0.000000
      vertex -20.500000 -21.000000 -0.000000
      vertex -28.500000 -21.000000 -0.000000
    endloop
  endfacet
  facet normal -0.000000 -0.000000 -1.000000
    outer loop
      vertex -20.500000 -22.000000 -0.000000
      vertex -20.500000 -21.000000 -0.000000
      vertex -14.000000 -25.000000 -0.000000
    endloop
  endfacet
  facet normal 0.000000 0.000000 -1.000000
    outer loop
      vertex -14.000000 -2.000000 -0.000000
      vertex -20.500000 11.000000 -0.000000
      vertex -14.000000 15.000000 -0.000000
    endloop
  endfacet
  facet normal 0.000000 -0.000000 -1.000000
    outer loop
      vertex -20.500000 11.000000 -0.000000
      vertex -20.500000 12.000000 -0.000000
      vertex -14.000000 15.000000 -0.000000
    endloop
  endfacet
  facet normal 0.000000 0.000000 -1.000000
    outer loop
      vertex -14.000000 -15.000000 -0.000000
      vertex -14.000000 -25.000000 -0.000000
      vertex -15.000000 -15.000000 -0.000000
    endloop
  endfacet
  facet normal 0.000000 0.000000 -1.000000
    outer loop
      vertex -28.500000 11.000000 -0.000000
      vertex -15.000000 -2.000000 -0.000000
      vertex -15.000000 -15.000000 -0.000000
    endloop
  endfacet
  facet normal 0.000000 0.000000 -1.000000
    outer loop
      vertex -20.500000 11.000000 -0.000000
      vertex -14.000000 -2.000000 -0.000000
      vertex -28.500000 11.000000 -0.000000
    endloop
  endfacet
  facet normal 0.000000 0.000000 -1.000000
    outer loop
      vertex -28.500000 11.000000 -0.000000
      vertex -14.000000 -25.000000 -0.000000
      vertex -20.500000 -21.000000 -0.000000
    endloop
  endfacet
  facet normal 0.000000 0.000000 -1.000000
    outer loop
      vertex -28.500000 11.000000 -0.000000
      vertex -15.000000 -15.000000 -0.000000
      vertex -14.000000 -25.000000 -0.000000
    endloop
  endfacet
  facet normal 0.000000 1.000000 0.000000
    outer loop
      vertex -35.000000 15.000000 -0.000000
      vertex -35.000000 15.000000 15.800000
      vertex -14.000000 15.000000 -0.000000
    endloop
  endfacet
  facet normal 0.000000 1.000000 0.000000
    outer loop
      vertex -14.000000 15.000000 -0.000000
      vertex -35.000000 15.000000 15.800000
      vertex -14.000000 15.000000 15.800000
    endloop
  endfacet
  facet normal 0.000000 -0.000000 1.000000
    outer loop
      vertex -35.000000 15.000000 15.800000
      vertex -35.000000 -25.000000 15.800000
      vertex -14.000000 -25.000000 15.800000
    endloop
  endfacet
  facet normal -0.000000 -0.000000 1.000000
    outer loop
      vertex -15.000000 -15.000000 15.800000
      vertex -35.000000 15.000000 15.800000
      vertex -14.000000 -25.000000 15.800000
    endloop
  endfacet
  facet normal 0.000000 0.000000 1.000000
    outer loop
      vertex -14.000000 -15.000000 15.800000
      vertex -15.000000 -15.000000 15.800000
      vertex -14.000000 -25.000000 15.800000
    endloop
  endfacet
  facet normal -0.000000 0.000000 1.000000
    outer loop
      vertex -14.000000 -2.000000 15.800000
      vertex -35.000000 15.000000 15.800000
      vertex -15.000000 -2.000000 15.800000
    endloop
  endfacet
  facet normal 0.000000 0.000000 1.000000
    outer loop
      vertex -14.000000 15.000000 15.800000
      vertex -35.000000 15.000000 15.800000
      vertex -14.000000 -2.000000 15.800000
    endloop
  endfacet
  facet normal 0.000000 0.000000 1.000000
    outer loop
      vertex -15.000000 -15.000000 15.800000
      vertex -15.000000 -2.000000 15.800000
      vertex -35.000000 15.000000 15.800000
    endloop
  endfacet
  facet normal 1.000000 0.000000 0.000000
    outer loop
      vertex -14.000000 -15.000000 -0.000000
      vertex -14.000000 -15.000000 15.800000
      vertex -14.000000 -25.000000 15.800000
    endloop
  endfacet
  facet normal 1.000000 0.000000 0.000000
    outer loop
      vertex -14.000000 -25.000000 -0.000000
      vertex -14.000000 -15.000000 -0.000000
      vertex -14.000000 -25.000000 15.800000
    endloop
  endfacet
  facet normal 0.968505 -0.000000 0.248994
    outer loop
      vertex -29.465000 -25.000000 7.236000
      vertex -29.184000 -25.000000 6.143000
      vertex -29.184000 -22.000000 6.143000
    endloop
  endfacet
  facet normal 0.968505 -0.000000 0.248994
    outer loop
      vertex -29.465000 -22.000000 7.236000
      vertex -29.465000 -25.000000 7.236000
      vertex -29.184000 -22.000000 6.143000
    endloop
  endfacet
  facet normal 1.000000 -0.000000 0.000000
    outer loop
      vertex -29.465000 -25.000000 8.364000
      vertex -29.465000 -25.000000 7.236000
      vertex -29.465000 -22.000000 7.236000
    endloop
  endfacet
  facet normal 1.000000 0.000000 0.000000
    outer loop
      vertex -29.465000 12.000000 7.800000
      vertex -29.465000 -25.000000 8.364000
      vertex -29.465000 -22.000000 7.800000
    endloop
  endfacet
  facet normal 1.000000 0.000000 0.000000
    outer loop
      vertex -29.465000 -22.000000 7.800000
      vertex -29.465000 -25.000000 8.364000
      vertex -29.465000 -22.000000 7.236000
    endloop
  endfacet
  facet normal 1.000000 0.000000 0.000000
    outer loop
      vertex -29.465000 12.000000 8.364000
      vertex -29.465000 -25.000000 8.364000
      vertex -29.465000 12.000000 7.800000
    endloop
  endfacet
  facet normal 0.000000 -0.000000 0.000000
    outer loop
      vertex -29.465000 12.000000 8.364000
      vertex -29.465000 12.000000 7.800000
      vertex -29.465000 12.000000 7.236000
    endloop
  endfacet
  facet normal 0.876366 0.000000 0.481646
    outer loop
      vertex -29.184000 -25.000000 6.143000
      vertex -28.641000 -25.000000 5.155000
      vertex -28.641000 -22.000000 5.155000
    endloop
  endfacet
  facet normal 0.876366 -0.000000 0.481646
    outer loop
      vertex -29.184000 -22.000000 6.143000
      vertex -29.184000 -25.000000 6.143000
      vertex -28.641000 -22.000000 5.155000
    endloop
  endfacet
  facet normal 0.728486 -0.000000 0.685061
    outer loop
      vertex -28.641000 -25.000000 5.155000
      vertex -27.868000 -25.000000 4.333000
      vertex -27.868000 -22.000000 4.333000
    endloop
  endfacet
  facet normal 0.728486 -0.000000 0.685061
    outer loop
      vertex -28.641000 -22.000000 5.155000
      vertex -28.641000 -25.000000 5.155000
      vertex -27.868000 -22.000000 4.333000
    endloop
  endfacet
  facet normal 0.536359 -0.000000 0.843990
    outer loop
      vertex -27.868000 -25.000000 4.333000
      vertex -26.916000 -25.000000 3.728000
      vertex -26.916000 -22.000000 3.728000
    endloop
  endfacet
  facet normal 0.536359 -0.000000 0.843990
    outer loop
      vertex -27.868000 -22.000000 4.333000
      vertex -27.868000 -25.000000 4.333000
      vertex -26.916000 -22.000000 3.728000
    endloop
  endfacet
  facet normal 0.308505 -0.000000 0.951223
    outer loop
      vertex -26.916000 -25.000000 3.728000
      vertex -25.843000 -25.000000 3.380000
      vertex -25.843000 -22.000000 3.380000
    endloop
  endfacet
  facet normal 0.308505 -0.000000 0.951223
    outer loop
      vertex -26.916000 -22.000000 3.728000
      vertex -26.916000 -25.000000 3.728000
      vertex -25.843000 -22.000000 3.380000
    endloop
  endfacet
  facet normal 0.062930 -0.000000 0.998018
    outer loop
      vertex -25.843000 -25.000000 3.380000
      vertex -24.717000 -25.000000 3.309000
      vertex -24.717000 -22.000000 3.309000
    endloop
  endfacet
  facet normal 0.062930 -0.000000 0.998018
    outer loop
      vertex -25.843000 -22.000000 3.380000
      vertex -25.843000 -25.000000 3.380000
      vertex -24.717000 -22.000000 3.309000
    endloop
  endfacet
  facet normal -0.187071 -0.000000 0.982346
    outer loop
      vertex -24.717000 -25.000000 3.309000
      vertex -23.609000 -25.000000 3.520000
      vertex -23.609000 -22.000000 3.520000
    endloop
  endfacet
  facet normal -0.187071 -0.000000 0.982346
    outer loop
      vertex -24.717000 -22.000000 3.309000
      vertex -24.717000 -25.000000 3.309000
      vertex -23.609000 -22.000000 3.520000
    endloop
  endfacet
  facet normal -0.426523 0.000000 0.904477
    outer loop
      vertex -23.609000 -25.000000 3.520000
      vertex -22.589000 -25.000000 4.001000
      vertex -22.589000 -22.000000 4.001000
    endloop
  endfacet
  facet normal -0.426523 -0.000000 0.904477
    outer loop
      vertex -23.609000 -22.000000 3.520000
      vertex -23.609000 -25.000000 3.520000
      vertex -22.589000 -22.000000 4.001000
    endloop
  endfacet
  facet normal -0.637477 0.000000 0.770469
    outer loop
      vertex -22.589000 -25.000000 4.001000
      vertex -21.720000 -25.000000 4.720000
      vertex -21.720000 -22.000000 4.720000
    endloop
  endfacet
  facet normal -0.637477 0.000000 0.770469
    outer loop
      vertex -22.589000 -22.000000 4.001000
      vertex -22.589000 -25.000000 4.001000
      vertex -21.720000 -22.000000 4.720000
    endloop
  endfacet
  facet normal -0.808851 -0.000000 0.588013
    outer loop
      vertex -21.057000 -25.000000 5.632000
      vertex -21.057000 -22.000000 5.632000
      vertex -21.720000 -25.000000 4.720000
    endloop
  endfacet
  facet normal -0.808851 0.000000 0.588013
    outer loop
      vertex -21.720000 -25.000000 4.720000
      vertex -21.057000 -22.000000 5.632000
      vertex -21.720000 -22.000000 4.720000
    endloop
  endfacet
  facet normal -0.929573 -0.000000 0.368639
    outer loop
      vertex -20.641000 -25.000000 6.681000
      vertex -20.641000 -22.000000 6.681000
      vertex -21.057000 -25.000000 5.632000
    endloop
  endfacet
  facet normal -0.929573 -0.000000 0.368639
    outer loop
      vertex -21.057000 -25.000000 5.632000
      vertex -20.641000 -22.000000 6.681000
      vertex -21.057000 -22.000000 5.632000
    endloop
  endfacet
  facet normal -0.992155 0.000000 0.125017
    outer loop
      vertex -20.500000 -25.000000 7.800000
      vertex -20.500000 -22.000000 7.800000
      vertex -20.641000 -25.000000 6.681000
    endloop
  endfacet
  facet normal -0.992155 -0.000000 0.125017
    outer loop
      vertex -20.641000 -25.000000 6.681000
      vertex -20.500000 -22.000000 7.800000
      vertex -20.641000 -22.000000 6.681000
    endloop
  endfacet
  facet normal -0.992155 -0.000000 -0.125017
    outer loop
      vertex -20.500000 -22.000000 7.800000
      vertex -20.500000 -25.000000 7.800000
      vertex -20.641000 -25.000000 8.919000
    endloop
  endfacet
  facet normal -0.992155 0.000000 -0.125017
    outer loop
      vertex -20.500000 -22.000000 7.800000
      vertex -20.641000 -25.000000 8.919000
      vertex -20.500000 12.000000 7.800000
    endloop
  endfacet
  facet normal -0.992155 0.000000 -0.125017
    outer loop
      vertex -20.641000 -25.000000 8.919000
      vertex -20.641000 12.000000 8.919000
      vertex -20.500000 12.000000 7.800000
    endloop
  endfacet
  facet normal -0.929573 0.000000 -0.368639
    outer loop
      vertex -20.641000 -25.000000 8.919000
      vertex -21.057000 -25.000000 9.968000
      vertex -20.641000 12.000000 8.919000
    endloop
  endfacet
  facet normal -0.929573 0.000000 -0.368639
    outer loop
      vertex -20.641000 12.000000 8.919000
      vertex -21.057000 -25.000000 9.968000
      vertex -21.057000 12.000000 9.968000
    endloop
  endfacet
  facet normal -0.805056 0.000000 -0.593199
    outer loop
      vertex -21.057000 -25.000000 9.968000
      vertex -21.113000 -25.000000 10.044000
      vertex -21.057000 12.000000 9.968000
    endloop
  endfacet
  facet normal -0.805056 0.000000 -0.593199
    outer loop
      vertex -21.057000 12.000000 9.968000
      vertex -21.113000 -25.000000 10.044000
      vertex -21.113000 12.000000 10.044000
    endloop
  endfacet
  facet normal -0.514496 -0.000000 0.857493
    outer loop
      vertex -21.113000 -25.000000 10.044000
      vertex -21.103000 -25.000000 10.050000
      vertex -21.103000 12.000000 10.050000
    endloop
  endfacet
  facet normal -0.514496 -0.000000 0.857493
    outer loop
      vertex -21.113000 12.000000 10.044000
      vertex -21.113000 -25.000000 10.044000
      vertex -21.103000 12.000000 10.050000
    endloop
  endfacet
  facet normal -0.886178 0.000000 -0.463345
    outer loop
      vertex -21.103000 -25.000000 10.050000
      vertex -22.750000 -25.000000 13.200000
      vertex -21.103000 12.000000 10.050000
    endloop
  endfacet
  facet normal -0.886178 0.000000 -0.463345
    outer loop
      vertex -21.103000 12.000000 10.050000
      vertex -22.750000 -25.000000 13.200000
      vertex -22.750000 12.000000 13.200000
    endloop
  endfacet
  facet normal 0.000000 0.000000 -1.000000
    outer loop
      vertex -22.750000 -25.000000 13.200000
      vertex -27.250000 -25.000000 13.200000
      vertex -22.750000 12.000000 13.200000
    endloop
  endfacet
  facet normal 0.000000 0.000000 -1.000000
    outer loop
      vertex -22.750000 12.000000 13.200000
      vertex -27.250000 -25.000000 13.200000
      vertex -27.250000 12.000000 13.200000
    endloop
  endfacet
  facet normal 0.886178 0.000000 -0.463345
    outer loop
      vertex -27.250000 12.000000 13.200000
      vertex -27.250000 -25.000000 13.200000
      vertex -28.897000 -25.000000 10.050000
    endloop
  endfacet
  facet normal 0.886178 0.000000 -0.463345
    outer loop
      vertex -28.897000 12.000000 10.050000
      vertex -27.250000 12.000000 13.200000
      vertex -28.897000 -25.000000 10.050000
    endloop
  endfacet
  facet normal 0.493013 -0.000000 0.870022
    outer loop
      vertex -28.897000 -25.000000 10.050000
      vertex -28.867000 -25.000000 10.033000
      vertex -28.867000 12.000000 10.033000
    endloop
  endfacet
  facet normal 0.493013 -0.000000 0.870022
    outer loop
      vertex -28.897000 12.000000 10.050000
      vertex -28.897000 -25.000000 10.050000
      vertex -28.867000 12.000000 10.033000
    endloop
  endfacet
  facet normal 0.876087 0.000000 -0.482152
    outer loop
      vertex -28.867000 12.000000 10.033000
      vertex -28.867000 -25.000000 10.033000
      vertex -29.184000 -25.000000 9.457000
    endloop
  endfacet
  facet normal 0.876087 0.000000 -0.482152
    outer loop
      vertex -29.184000 12.000000 9.457000
      vertex -28.867000 12.000000 10.033000
      vertex -29.184000 -25.000000 9.457000
    endloop
  endfacet
  facet normal 0.968505 0.000000 -0.248994
    outer loop
      vertex -29.184000 12.000000 9.457000
      vertex -29.184000 -25.000000 9.457000
      vertex -29.465000 -25.000000 8.364000
    endloop
  endfacet
  facet normal 0.968505 0.000000 -0.248994
    outer loop
      vertex -29.465000 12.000000 8.364000
      vertex -29.184000 12.000000 9.457000
      vertex -29.465000 -25.000000 8.364000
    endloop
  endfacet
  facet normal 0.000000 1.000000 0.000000
    outer loop
      vertex -15.000000 -15.000000 -0.000000
      vertex -15.000000 -15.000000 15.800000
      vertex -14.000000 -15.000000 -0.000000
    endloop
  endfacet
  facet normal 0.000000 1.000000 0.000000
    outer loop
      vertex -14.000000 -15.000000 -0.000000
      vertex -15.000000 -15.000000 15.800000
      vertex -14.000000 -15.000000 15.800000
    endloop
  endfacet
  facet normal 1.000000 0.000000 -0.000000
    outer loop
      vertex -15.000000 -15.000000 15.800000
      vertex -15.000000 -15.000000 -0.000000
      vertex -15.000000 -2.000000 -0.000000
    endloop
  endfacet
  facet normal 1.000000 0.000000 0.000000
    outer loop
      vertex -15.000000 -2.000000 15.800000
      vertex -15.000000 -15.000000 15.800000
      vertex -15.000000 -2.000000 -0.000000
    endloop
  endfacet
  facet normal 0.000000 -1.000000 0.000000
    outer loop
      vertex -15.000000 -2.000000 15.800000
      vertex -15.000000 -2.000000 -0.000000
      vertex -14.000000 -2.000000 -0.000000
    endloop
  endfacet
  facet normal 0.000000 -1.000000 0.000000
    outer loop
      vertex -14.000000 -2.000000 15.800000
      vertex -15.000000 -2.000000 15.800000
      vertex -14.000000 -2.000000 -0.000000
    endloop
  endfacet
  facet normal 1.000000 0.000000 0.000000
    outer loop
      vertex -14.000000 15.000000 -0.000000
      vertex -14.000000 15.000000 15.800000
      vertex -14.000000 -2.000000 15.800000
    endloop
  endfacet
  facet normal 1.000000 0.000000 0.000000
    outer loop
      vertex -14.000000 -2.000000 -0.000000
      vertex -14.000000 15.000000 -0.000000
      vertex -14.000000 -2.000000 15.800000
    endloop
  endfacet
  facet normal -0.000000 -1.000000 0.000000
    outer loop
      vertex -20.757989 12.000000 6.385996
      vertex -20.500000 12.000000 -0.000000
      vertex -20.500000 12.000000 7.800000
    endloop
  endfacet
  facet normal -0.000000 -1.000000 0.000000
    outer loop
      vertex -21.057000 12.000000 5.632000
      vertex -20.500000 12.000000 -0.000000
      vertex -20.757989 12.000000 6.385996
    endloop
  endfacet
  facet normal -0.000000 -1.000000 0.000000
    outer loop
      vertex -21.720000 12.000000 4.720000
      vertex -20.500000 12.000000 -0.000000
      vertex -21.057000 12.000000 5.632000
    endloop
  endfacet
  facet normal 0.000000 -1.000000 0.000000
    outer loop
      vertex -24.717000 12.000000 3.309000
      vertex -25.843000 12.000000 3.380000
      vertex -29.500000 12.000000 -0.000000
    endloop
  endfacet
  facet normal 0.000000 -1.000000 0.000000
    outer loop
      vertex -22.589000 12.000000 4.001000
      vertex -20.500000 12.000000 -0.000000
      vertex -21.720000 12.000000 4.720000
    endloop
  endfacet
  facet normal -0.000000 -1.000000 0.000000
    outer loop
      vertex -29.500000 12.000000 -0.000000
      vertex -20.500000 12.000000 -0.000000
      vertex -22.589000 12.000000 4.001000
    endloop
  endfacet
  facet normal 0.000000 -1.000000 0.000000
    outer loop
      vertex -29.500000 12.000000 -0.000000
      vertex -22.589000 12.000000 4.001000
      vertex -23.609000 12.000000 3.520000
    endloop
  endfacet
  facet normal 0.000000 -1.000000 0.000000
    outer loop
      vertex -26.916000 12.000000 3.728000
      vertex -27.868000 12.000000 4.333000
      vertex -29.500000 12.000000 -0.000000
    endloop
  endfacet
  facet normal 0.000000 -1.000000 0.000000
    outer loop
      vertex -23.609000 12.000000 3.520000
      vertex -24.717000 12.000000 3.309000
      vertex -29.500000 12.000000 -0.000000
    endloop
  endfacet
  facet normal 0.000000 -1.000000 0.000000
    outer loop
      vertex -26.916000 12.000000 3.728000
      vertex -29.500000 12.000000 -0.000000
      vertex -25.843000 12.000000 3.380000
    endloop
  endfacet
  facet normal 0.000000 -1.000000 0.000000
    outer loop
      vertex -28.641000 12.000000 5.155000
      vertex -29.500000 12.000000 -0.000000
      vertex -27.868000 12.000000 4.333000
    endloop
  endfacet
  facet normal 0.000000 -1.000000 0.000000
    outer loop
      vertex -29.184000 12.000000 6.143000
      vertex -29.500000 12.000000 -0.000000
      vertex -28.641000 12.000000 5.155000
    endloop
  endfacet
  facet normal 0.000000 -1.000000 0.000000
    outer loop
      vertex -29.465000 12.000000 7.236000
      vertex -29.500000 12.000000 -0.000000
      vertex -29.184000 12.000000 6.143000
    endloop
  endfacet
  facet normal 0.000000 -1.000000 0.000000
    outer loop
      vertex -29.465000 12.000000 7.800000
      vertex -29.500000 12.000000 -0.000000
      vertex -29.465000 12.000000 7.236000
    endloop
  endfacet
  facet normal 0.000000 -1.000000 0.000000
    outer loop
      vertex -29.500000 12.000000 7.800000
      vertex -29.500000 12.000000 -0.000000
      vertex -29.465000 12.000000 7.800000
    endloop
  endfacet
  facet normal 0.000000 -1.000000 0.000000
    outer loop
      vertex -25.000000 12.000000 7.800000
      vertex -20.757989 12.000000 6.385996
      vertex -20.500000 12.000000 7.800000
    endloop
  endfacet
  facet normal 1.000000 0.000000 -0.000000
    outer loop
      vertex -29.500000 -22.000000 7.800000
      vertex -29.500000 -22.000000 -0.000000
      vertex -29.500000 12.000000 -0.000000
    endloop
  endfacet
  facet normal 1.000000 0.000000 0.000000
    outer loop
      vertex -29.500000 12.000000 7.800000
      vertex -29.500000 -22.000000 7.800000
      vertex -29.500000 12.000000 -0.000000
    endloop
  endfacet
  facet normal -1.000000 -0.000000 0.000000
    outer loop
      vertex -20.500000 11.000000 -0.000000
      vertex -20.500000 11.000000 3.300000
      vertex -20.500000 12.000000 -0.000000
    endloop
  endfacet
  facet normal -1.000000 0.000000 0.000000
    outer loop
      vertex -20.500000 12.000000 7.800000
      vertex -20.500000 11.000000 3.300000
      vertex -20.500000 -22.000000 7.800000
    endloop
  endfacet
  facet normal -1.000000 -0.000000 0.000000
    outer loop
      vertex -20.500000 -22.000000 -0.000000
      vertex -20.500000 -21.000000 3.300000
      vertex -20.500000 -21.000000 -0.000000
    endloop
  endfacet
  facet normal -1.000000 0.000000 0.000000
    outer loop
      vertex -20.500000 -22.000000 7.800000
      vertex -20.500000 -21.000000 3.300000
      vertex -20.500000 -22.000000 -0.000000
    endloop
  endfacet
  facet normal -1.000000 0.000000 0.000000
    outer loop
      vertex -20.500000 11.000000 3.300000
      vertex -20.500000 -21.000000 3.300000
      vertex -20.500000 -22.000000 7.800000
    endloop
  endfacet
  facet normal -1.000000 0.000000 -0.000000
    outer loop
      vertex -20.500000 12.000000 -0.000000
      vertex -20.500000 11.000000 3.300000
      vertex -20.500000 12.000000 7.800000
    endloop
  endfacet
  facet normal 0.000000 1.000000 0.000000
    outer loop
      vertex -28.500000 11.000000 -0.000000
      vertex -28.500000 11.000000 5.005062
      vertex -28.119084 11.000000 4.600000
    endloop
  endfacet
  facet normal 0.000000 1.000000 -0.000000
    outer loop
      vertex -21.500000 11.000000 3.300000
      vertex -21.720000 11.000000 4.720000
      vertex -21.500000 11.000000 5.022624
    endloop
  endfacet
  facet normal -0.000000 1.000000 -0.000000
    outer loop
      vertex -21.865035 11.000000 4.600000
      vertex -21.720000 11.000000 4.720000
      vertex -21.500000 11.000000 3.300000
    endloop
  endfacet
  facet normal 0.000000 1.000000 -0.000000
    outer loop
      vertex -21.865035 11.000000 4.600000
      vertex -21.500000 11.000000 3.300000
      vertex -28.119084 11.000000 4.600000
    endloop
  endfacet
  facet normal -0.000000 1.000000 -0.000000
    outer loop
      vertex -21.500000 11.000000 3.300000
      vertex -20.500000 11.000000 3.300000
      vertex -20.500000 11.000000 -0.000000
    endloop
  endfacet
  facet normal -0.000000 1.000000 -0.000000
    outer loop
      vertex -21.500000 11.000000 3.300000
      vertex -20.500000 11.000000 -0.000000
      vertex -28.119084 11.000000 4.600000
    endloop
  endfacet
  facet normal -0.000000 1.000000 0.000000
    outer loop
      vertex -20.500000 11.000000 -0.000000
      vertex -28.500000 11.000000 -0.000000
      vertex -28.119084 11.000000 4.600000
    endloop
  endfacet
  facet normal -1.000000 -0.000000 -0.000000
    outer loop
      vertex -28.500000 -21.000000 -0.000000
      vertex -28.500000 -21.000000 5.005062
      vertex -28.500000 11.000000 -0.000000
    endloop
  endfacet
  facet normal -1.000000 0.000000 0.000000
    outer loop
      vertex -28.500000 11.000000 -0.000000
      vertex -28.500000 -21.000000 5.005062
      vertex -28.500000 11.000000 5.005062
    endloop
  endfacet
  facet normal 0.000000 -1.000000 0.000000
    outer loop
      vertex -28.119084 -21.000000 4.600000
      vertex -28.500000 -21.000000 5.005062
      vertex -28.500000 -21.000000 -0.000000
    endloop
  endfacet
  facet normal 0.000000 -1.000000 0.000000
    outer loop
      vertex -20.500000 -21.000000 -0.000000
      vertex -28.119084 -21.000000 4.600000
      vertex -28.500000 -21.000000 -0.000000
    endloop
  endfacet
  facet normal 0.000000 -1.000000 0.000000
    outer loop
      vertex -21.500000 -21.000000 3.300000
      vertex -20.500000 -21.000000 -0.000000
      vertex -20.500000 -21.000000 3.300000
    endloop
  endfacet
  facet normal -0.000000 -1.000000 0.000000
    outer loop
      vertex -21.500000 -21.000000 3.300000
      vertex -21.500000 -21.000000 5.022624
      vertex -21.720000 -21.000000 4.720000
    endloop
  endfacet
  facet normal 0.000000 -1.000000 0.000000
    outer loop
      vertex -21.500000 -21.000000 3.300000
      vertex -21.720000 -21.000000 4.720000
      vertex -21.865035 -21.000000 4.600000
    endloop
  endfacet
  facet normal 0.000000 -1.000000 0.000000
    outer loop
      vertex -21.500000 -21.000000 3.300000
      vertex -28.119084 -21.000000 4.600000
      vertex -20.500000 -21.000000 -0.000000
    endloop
  endfacet
  facet normal 0.000000 -1.000000 0.000000
    outer loop
      vertex -21.865035 -21.000000 4.600000
      vertex -28.119084 -21.000000 4.600000
      vertex -21.500000 -21.000000 3.300000
    endloop
  endfacet
  facet normal -0.000000 1.000000 0.000000
    outer loop
      vertex -29.465000 -22.000000 7.236000
      vertex -29.500000 -22.000000 -0.000000
      vertex -29.465000 -22.000000 7.800000
    endloop
  endfacet
  facet normal 0.000000 1.000000 -0.000000
    outer loop
      vertex -29.465000 -22.000000 7.236000
      vertex -29.184000 -22.000000 6.143000
      vertex -29.500000 -22.000000 -0.000000
    endloop
  endfacet
  facet normal 0.000000 1.000000 -0.000000
    outer loop
      vertex -29.184000 -22.000000 6.143000
      vertex -28.641000 -22.000000 5.155000
      vertex -29.500000 -22.000000 -0.000000
    endloop
  endfacet
  facet normal 0.000000 1.000000 -0.000000
    outer loop
      vertex -28.641000 -22.000000 5.155000
      vertex -27.868000 -22.000000 4.333000
      vertex -29.500000 -22.000000 -0.000000
    endloop
  endfacet
  facet normal 0.000000 1.000000 0.000000
    outer loop
      vertex -29.500000 -22.000000 -0.000000
      vertex -26.916000 -22.000000 3.728000
      vertex -20.500000 -22.000000 -0.000000
    endloop
  endfacet
  facet normal 0.000000 1.000000 0.000000
    outer loop
      vertex -26.916000 -22.000000 3.728000
      vertex -25.843000 -22.000000 3.380000
      vertex -20.500000 -22.000000 -0.000000
    endloop
  endfacet
  facet normal 0.000000 1.000000 0.000000
    outer loop
      vertex -25.843000 -22.000000 3.380000
      vertex -24.717000 -22.000000 3.309000
      vertex -20.500000 -22.000000 -0.000000
    endloop
  endfacet
  facet normal 0.000000 1.000000 0.000000
    outer loop
      vertex -24.717000 -22.000000 3.309000
      vertex -23.609000 -22.000000 3.520000
      vertex -20.500000 -22.000000 -0.000000
    endloop
  endfacet
  facet normal 0.000000 1.000000 0.000000
    outer loop
      vertex -23.609000 -22.000000 3.520000
      vertex -22.589000 -22.000000 4.001000
      vertex -20.500000 -22.000000 -0.000000
    endloop
  endfacet
  facet normal -0.000000 1.000000 -0.000000
    outer loop
      vertex -22.589000 -22.000000 4.001000
      vertex -21.720000 -22.000000 4.720000
      vertex -20.500000 -22.000000 -0.000000
    endloop
  endfacet
  facet normal 0.000000 1.000000 -0.000000
    outer loop
      vertex -21.720000 -22.000000 4.720000
      vertex -21.057000 -22.000000 5.632000
      vertex -20.500000 -22.000000 -0.000000
    endloop
  endfacet
  facet normal 0.000000 1.000000 -0.000000
    outer loop
      vertex -20.500000 -22.000000 -0.000000
      vertex -20.641000 -22.000000 6.681000
      vertex -20.500000 -22.000000 7.800000
    endloop
  endfacet
  facet normal 0.000000 1.000000 -0.000000
    outer loop
      vertex -21.057000 -22.000000 5.632000
      vertex -20.641000 -22.000000 6.681000
      vertex -20.500000 -22.000000 -0.000000
    endloop
  endfacet
  facet normal 0.000000 1.000000 -0.000000
    outer loop
      vertex -27.868000 -22.000000 4.333000
      vertex -26.916000 -22.000000 3.728000
      vertex -29.500000 -22.000000 -0.000000
    endloop
  endfacet
  facet normal 0.000000 1.000000 0.000000
    outer loop
      vertex -29.500000 -22.000000 -0.000000
      vertex -29.500000 -22.000000 7.800000
      vertex -29.465000 -22.000000 7.800000
    endloop
  endfacet
  facet normal 0.000000 -1.000000 0.000000
    outer loop
      vertex -29.465000 12.000000 7.236000
      vertex -29.184000 12.000000 6.143000
      vertex -28.641000 12.000000 5.155000
    endloop
  endfacet
  facet normal 0.000000 -1.000000 0.000000
    outer loop
      vertex -26.916000 12.000000 3.728000
      vertex -29.465000 12.000000 7.236000
      vertex -27.868000 12.000000 4.333000
    endloop
  endfacet
  facet normal 0.000000 -1.000000 0.000000
    outer loop
      vertex -27.868000 12.000000 4.333000
      vertex -29.465000 12.000000 7.236000
      vertex -28.641000 12.000000 5.155000
    endloop
  endfacet
  facet normal 0.000000 -1.000000 0.000000
    outer loop
      vertex -25.843000 12.000000 3.380000
      vertex -29.465000 12.000000 7.236000
      vertex -26.916000 12.000000 3.728000
    endloop
  endfacet
  facet normal 0.000000 -1.000000 0.000000
    outer loop
      vertex -24.717000 12.000000 3.309000
      vertex -29.465000 12.000000 7.236000
      vertex -25.843000 12.000000 3.380000
    endloop
  endfacet
  facet normal 0.000000 -1.000000 0.000000
    outer loop
      vertex -23.609000 12.000000 3.520000
      vertex -29.465000 12.000000 7.236000
      vertex -24.717000 12.000000 3.309000
    endloop
  endfacet
  facet normal 0.000000 -1.000000 0.000000
    outer loop
      vertex -22.589000 12.000000 4.001000
      vertex -29.465000 12.000000 7.236000
      vertex -23.609000 12.000000 3.520000
    endloop
  endfacet
  facet normal 0.000000 -1.000000 0.000000
    outer loop
      vertex -21.720000 12.000000 4.720000
      vertex -29.465000 12.000000 7.236000
      vertex -22.589000 12.000000 4.001000
    endloop
  endfacet
  facet normal 0.000000 -1.000000 0.000000
    outer loop
      vertex -21.057000 12.000000 5.632000
      vertex -29.465000 12.000000 7.236000
      vertex -21.720000 12.000000 4.720000
    endloop
  endfacet
  facet normal 0.000000 -1.000000 0.000000
    outer loop
      vertex -20.757989 12.000000 6.385996
      vertex -29.465000 12.000000 7.236000
      vertex -21.057000 12.000000 5.632000
    endloop
  endfacet
  facet normal 0.000000 -1.000000 0.000000
    outer loop
      vertex -25.000000 12.000000 7.800000
      vertex -29.465000 12.000000 7.236000
      vertex -20.757989 12.000000 6.385996
    endloop
  endfacet
  facet normal 0.000000 -1.000000 -0.000000
    outer loop
      vertex -20.641000 12.000000 8.919000
      vertex -29.465000 12.000000 7.236000
      vertex -25.000000 12.000000 7.800000
    endloop
  endfacet
  facet normal 0.000000 -1.000000 -0.000000
    outer loop
      vertex -20.641000 12.000000 8.919000
      vertex -25.000000 12.000000 7.800000
      vertex -20.500000 12.000000 7.800000
    endloop
  endfacet
  facet normal -0.000000 -1.000000 -0.000000
    outer loop
      vertex -21.057000 12.000000 9.968000
      vertex -29.465000 12.000000 7.236000
      vertex -20.641000 12.000000 8.919000
    endloop
  endfacet
  facet normal -0.000000 -1.000000 -0.000000
    outer loop
      vertex -21.113000 12.000000 10.044000
      vertex -29.465000 12.000000 7.236000
      vertex -21.057000 12.000000 9.968000
    endloop
  endfacet
  facet normal -0.000000 -1.000000 0.000000
    outer loop
      vertex -21.103000 12.000000 10.050000
      vertex -29.465000 12.000000 7.236000
      vertex -21.113000 12.000000 10.044000
    endloop
  endfacet
  facet normal -0.000000 -1.000000 -0.000000
    outer loop
      vertex -22.750000 12.000000 13.200000
      vertex -29.465000 12.000000 7.236000
      vertex -21.103000 12.000000 10.050000
    endloop
  endfacet
  facet normal -0.000000 -1.000000 -0.000000
    outer loop
      vertex -27.250000 12.000000 13.200000
      vertex -29.465000 12.000000 7.236000
      vertex -22.750000 12.000000 13.200000
    endloop
  endfacet
  facet normal 0.000000 -1.000000 -0.000000
    outer loop
      vertex -28.867000 12.000000 10.033000
      vertex -29.465000 12.000000 7.236000
      vertex -27.250000 12.000000 13.200000
    endloop
  endfacet
  facet normal -0.000000 -1.000000 0.000000
    outer loop
      vertex -28.897000 12.000000 10.050000
      vertex -28.867000 12.000000 10.033000
      vertex -27.250000 12.000000 13.200000
    endloop
  endfacet
  facet normal 0.000000 -1.000000 -0.000000
    outer loop
      vertex -29.465000 12.000000 8.364000
      vertex -29.465000 12.000000 7.236000
      vertex -29.184000 12.000000 9.457000
    endloop
  endfacet
  facet normal 0.000000 -1.000000 -0.000000
    outer loop
      vertex -28.867000 12.000000 10.033000
      vertex -29.184000 12.000000 9.457000
      vertex -29.465000 12.000000 7.236000
    endloop
  endfacet
  facet normal 0.000000 -0.000000 -1.000000
    outer loop
      vertex -29.465000 -22.000000 7.800000
      vertex -29.500000 -22.000000 7.800000
      vertex -29.465000 12.000000 7.800000
    endloop
  endfacet
  facet normal 0.000000 -0.000000 -1.000000
    outer loop
      vertex -29.465000 12.000000 7.800000
      vertex -29.500000 -22.000000 7.800000
      vertex -29.500000 12.000000 7.800000
    endloop
  endfacet
  facet normal -0.000000 0.000000 1.000000
    outer loop
      vertex -21.500000 -21.000000 3.300000
      vertex -20.500000 -21.000000 3.300000
      vertex -20.500000 11.000000 3.300000
    endloop
  endfacet
  facet normal -0.000000 0.000000 1.000000
    outer loop
      vertex -21.500000 11.000000 3.300000
      vertex -21.500000 -21.000000 3.300000
      vertex -20.500000 11.000000 3.300000
    endloop
  endfacet
  facet normal 0.728486 -0.000000 0.685061
    outer loop
      vertex -28.500000 -21.000000 5.005062
      vertex -28.119084 -21.000000 4.600000
      vertex -28.119084 11.000000 4.600000
    endloop
  endfacet
  facet normal 0.728486 -0.000000 0.685061
    outer loop
      vertex -28.500000 11.000000 5.005062
      vertex -28.500000 -21.000000 5.005062
      vertex -28.119084 11.000000 4.600000
    endloop
  endfacet
  facet normal 0.000000 0.000000 1.000000
    outer loop
      vertex -28.119084 11.000000 4.600000
      vertex -28.119084 -21.000000 4.600000
      vertex -21.865035 -21.000000 4.600000
    endloop
  endfacet
  facet normal -0.000000 0.000000 1.000000
    outer loop
      vertex -21.865035 11.000000 4.600000
      vertex -28.119084 11.000000 4.600000
      vertex -21.865035 -21.000000 4.600000
    endloop
  endfacet
  facet normal 1.000000 0.000000 -0.000000
    outer loop
      vertex -21.500000 -21.000000 5.022624
      vertex -21.500000 -21.000000 3.300000
      vertex -21.500000 11.000000 3.300000
    endloop
  endfacet
  facet normal 1.000000 0.000000 0.000000
    outer loop
      vertex -21.500000 11.000000 5.022624
      vertex -21.500000 -21.000000 5.022624
      vertex -21.500000 11.000000 3.300000
    endloop
  endfacet
  facet normal -0.808851 -0.000000 0.588013
    outer loop
      vertex -21.500000 -21.000000 5.022624
      vertex -21.500000 11.000000 5.022624
      vertex -21.720000 -21.000000 4.720000
    endloop
  endfacet
  facet normal -0.808851 -0.000000 0.588013
    outer loop
      vertex -21.720000 -21.000000 4.720000
      vertex -21.500000 11.000000 5.022624
      vertex -21.720000 11.000000 4.720000
    endloop
  endfacet
  facet normal -0.637477 -0.000000 0.770469
    outer loop
      vertex -21.865035 -21.000000 4.600000
      vertex -21.720000 -21.000000 4.720000
      vertex -21.720000 11.000000 4.720000
    endloop
  endfacet
  facet normal -0.637477 -0.000000 0.770469
    outer loop
      vertex -21.865035 11.000000 4.600000
      vertex -21.865035 -21.000000 4.600000
      vertex -21.720000 11.000000 4.720000
    endloop
  endfacet
endsolid OpenSCAD_Model
