solid OpenSCAD_Model
  facet normal -1.000000 0.000000 0.000000
    outer loop
      vertex -5.000000 -5.279971 3.628322
      vertex -5.000000 -4.010099 0.000000
      vertex -5.000000 -7.000000 2.800000
    endloop
  endfacet
  facet normal -1.000000 0.000000 -0.000000
    outer loop
      vertex -5.000000 -6.045456 6.982132
      vertex -5.000000 -12.500000 10.000000
      vertex -5.000000 -4.010099 10.000000
    endloop
  endfacet
  facet normal -1.000000 0.000000 -0.000000
    outer loop
      vertex -5.000000 -12.500000 0.000000
      vertex -5.000000 -12.500000 10.000000
      vertex -5.000000 -9.144841 5.489546
    endloop
  endfacet
  facet normal -1.000000 0.000000 0.000000
    outer loop
      vertex -5.000000 -12.500000 0.000000
      vertex -5.000000 -9.144841 5.489546
      vertex -5.000000 -8.720029 3.628322
    endloop
  endfacet
  facet normal -1.000000 -0.000000 0.000000
    outer loop
      vertex -5.000000 -12.500000 0.000000
      vertex -5.000000 -8.720029 3.628322
      vertex -5.000000 -4.010099 0.000000
    endloop
  endfacet
  facet normal -1.000000 0.000000 0.000000
    outer loop
      vertex -5.000000 -8.720029 3.628322
      vertex -5.000000 -7.000000 2.800000
      vertex -5.000000 -4.010099 0.000000
    endloop
  endfacet
  facet normal -1.000000 0.000000 0.000000
    outer loop
      vertex -5.000000 -4.010099 0.000000
      vertex -5.000000 -5.279971 3.628322
      vertex -5.000000 -4.855159 5.489546
    endloop
  endfacet
  facet normal -1.000000 0.000000 0.000000
    outer loop
      vertex -5.000000 -4.010099 0.000000
      vertex -5.000000 -4.855159 5.489546
      vertex -5.000000 -4.010099 10.000000
    endloop
  endfacet
  facet normal -1.000000 -0.000000 -0.000000
    outer loop
      vertex -5.000000 -7.954544 6.982132
      vertex -5.000000 -12.500000 10.000000
      vertex -5.000000 -6.045456 6.982132
    endloop
  endfacet
  facet normal -1.000000 0.000000 -0.000000
    outer loop
      vertex -5.000000 -9.144841 5.489546
      vertex -5.000000 -12.500000 10.000000
      vertex -5.000000 -7.954544 6.982132
    endloop
  endfacet
  facet normal -1.000000 -0.000000 0.000000
    outer loop
      vertex -5.000000 -6.045456 6.982132
      vertex -5.000000 -4.010099 10.000000
      vertex -5.000000 -4.855159 5.489546
    endloop
  endfacet
  facet normal 0.000000 -1.000000 0.000000
    outer loop
      vertex -5.000000 -12.500000 10.000000
      vertex -5.000000 -12.500000 0.000000
      vertex 5.000000 -12.500000 0.000000
    endloop
  endfacet
  facet normal 0.000000 -1.000000 0.000000
    outer loop
      vertex 5.000000 -12.500000 10.000000
      vertex -5.000000 -12.500000 10.000000
      vertex 5.000000 -12.500000 0.000000
    endloop
  endfacet
  facet normal -0.000000 -0.000000 -1.000000
    outer loop
      vertex -5.000000 -12.500000 0.000000
      vertex -5.000000 -4.010099 0.000000
      vertex 5.000000 -12.500000 0.000000
    endloop
  endfacet
  facet normal 0.000000 0.000000 -1.000000
    outer loop
      vertex 5.000000 -12.500000 0.000000
      vertex -5.000000 -4.010099 0.000000
      vertex -4.505800 -4.070106 0.000000
    endloop
  endfacet
  facet normal 0.000000 0.000000 -1.000000
    outer loop
      vertex 5.000000 -12.500000 0.000000
      vertex -4.505800 -4.070106 0.000000
      vertex -2.670935 -3.374234 0.000000
    endloop
  endfacet
  facet normal -0.000000 0.000000 -1.000000
    outer loop
      vertex -2.670935 -3.374234 0.000000
      vertex -1.369630 -1.905365 0.000000
      vertex 5.000000 -12.500000 0.000000
    endloop
  endfacet
  facet normal -0.000000 0.000000 -1.000000
    outer loop
      vertex -1.369630 -1.905365 0.000000
      vertex -0.900000 0.000000 0.000000
      vertex 5.000000 -12.500000 0.000000
    endloop
  endfacet
  facet normal -0.000000 -0.000000 -1.000000
    outer loop
      vertex -0.900000 0.000000 0.000000
      vertex -1.369630 1.905365 0.000000
      vertex 5.000000 -12.500000 0.000000
    endloop
  endfacet
  facet normal -0.000000 -0.000000 -1.000000
    outer loop
      vertex -1.369630 1.905365 0.000000
      vertex -5.000000 12.500000 0.000000
      vertex 5.000000 -12.500000 0.000000
    endloop
  endfacet
  facet normal -0.000000 -0.000000 -1.000000
    outer loop
      vertex -2.670935 3.374234 0.000000
      vertex -5.000000 12.500000 0.000000
      vertex -1.369630 1.905365 0.000000
    endloop
  endfacet
  facet normal 0.000000 0.000000 -1.000000
    outer loop
      vertex -4.505800 4.070106 0.000000
      vertex -5.000000 4.010099 0.000000
      vertex -5.000000 12.500000 0.000000
    endloop
  endfacet
  facet normal -0.000000 -0.000000 -1.000000
    outer loop
      vertex -4.505800 4.070106 0.000000
      vertex -5.000000 12.500000 0.000000
      vertex -2.670935 3.374234 0.000000
    endloop
  endfacet
  facet normal 0.000000 0.000000 -1.000000
    outer loop
      vertex 5.000000 -12.500000 0.000000
      vertex -5.000000 12.500000 0.000000
      vertex 5.000000 12.500000 0.000000
    endloop
  endfacet
  facet normal 0.120536 0.992709 -0.000000
    outer loop
      vertex -4.505800 -4.070106 10.000000
      vertex -4.505800 -4.070106 0.000000
      vertex -5.000000 -4.010099 10.000000
    endloop
  endfacet
  facet normal 0.120536 0.992709 -0.000000
    outer loop
      vertex -5.000000 -4.010099 10.000000
      vertex -4.505800 -4.070106 0.000000
      vertex -5.000000 -4.010099 0.000000
    endloop
  endfacet
  facet normal 0.000000 -0.000000 1.000000
    outer loop
      vertex -5.000000 -4.010099 10.000000
      vertex -5.000000 -12.500000 10.000000
      vertex 5.000000 -12.500000 10.000000
    endloop
  endfacet
  facet normal -0.000000 -0.000000 1.000000
    outer loop
      vertex -4.505800 -4.070106 10.000000
      vertex -5.000000 -4.010099 10.000000
      vertex 5.000000 -12.500000 10.000000
    endloop
  endfacet
  facet normal 0.000000 -0.000000 1.000000
    outer loop
      vertex -5.000000 12.500000 10.000000
      vertex -5.000000 4.010099 10.000000
      vertex 5.000000 12.500000 10.000000
    endloop
  endfacet
  facet normal 0.000000 0.000000 1.000000
    outer loop
      vertex -5.000000 4.010099 10.000000
      vertex -4.505800 4.070106 10.000000
      vertex 5.000000 12.500000 10.000000
    endloop
  endfacet
  facet normal 0.000000 0.000000 1.000000
    outer loop
      vertex -4.505800 4.070106 10.000000
      vertex -2.670935 3.374234 10.000000
      vertex 5.000000 12.500000 10.000000
    endloop
  endfacet
  facet normal 0.000000 0.000000 1.000000
    outer loop
      vertex 5.000000 12.500000 10.000000
      vertex -1.369630 1.905365 10.000000
      vertex 5.000000 -12.500000 10.000000
    endloop
  endfacet
  facet normal 0.000000 0.000000 1.000000
    outer loop
      vertex -1.369630 1.905365 10.000000
      vertex -0.900000 0.000000 10.000000
      vertex 5.000000 -12.500000 10.000000
    endloop
  endfacet
  facet normal 0.000000 -0.000000 1.000000
    outer loop
      vertex -0.900000 0.000000 10.000000
      vertex -1.369630 -1.905365 10.000000
      vertex 5.000000 -12.500000 10.000000
    endloop
  endfacet
  facet normal 0.000000 -0.000000 1.000000
    outer loop
      vertex -1.369630 -1.905365 10.000000
      vertex -2.670935 -3.374234 10.000000
      vertex 5.000000 -12.500000 10.000000
    endloop
  endfacet
  facet normal 0.000000 -0.000000 1.000000
    outer loop
      vertex -2.670935 -3.374234 10.000000
      vertex -4.505800 -4.070106 10.000000
      vertex 5.000000 -12.500000 10.000000
    endloop
  endfacet
  facet normal 0.000000 0.000000 1.000000
    outer loop
      vertex -2.670935 3.374234 10.000000
      vertex -1.369630 1.905365 10.000000
      vertex 5.000000 12.500000 10.000000
    endloop
  endfacet
  facet normal -0.000000 0.974928 0.222521
    outer loop
      vertex 5.000000 -8.720029 3.628322
      vertex -5.000000 -8.720029 3.628322
      vertex 5.000000 -9.144841 5.489546
    endloop
  endfacet
  facet normal -0.000000 0.974928 0.222521
    outer loop
      vertex 5.000000 -9.144841 5.489546
      vertex -5.000000 -8.720029 3.628322
      vertex -5.000000 -9.144841 5.489546
    endloop
  endfacet
  facet normal 0.000000 0.781832 -0.623490
    outer loop
      vertex 5.000000 -7.954544 6.982132
      vertex 5.000000 -9.144841 5.489546
      vertex -5.000000 -7.954544 6.982132
    endloop
  endfacet
  facet normal 0.000000 0.781832 -0.623490
    outer loop
      vertex -5.000000 -7.954544 6.982132
      vertex 5.000000 -9.144841 5.489546
      vertex -5.000000 -9.144841 5.489546
    endloop
  endfacet
  facet normal 0.000000 0.000000 -1.000000
    outer loop
      vertex 5.000000 -6.045456 6.982132
      vertex 5.000000 -7.954544 6.982132
      vertex -5.000000 -6.045456 6.982132
    endloop
  endfacet
  facet normal 0.000000 0.000000 -1.000000
    outer loop
      vertex -5.000000 -6.045456 6.982132
      vertex 5.000000 -7.954544 6.982132
      vertex -5.000000 -7.954544 6.982132
    endloop
  endfacet
  facet normal 0.000000 -0.781832 -0.623490
    outer loop
      vertex -5.000000 -4.855159 5.489546
      vertex 5.000000 -4.855159 5.489546
      vertex 5.000000 -6.045456 6.982132
    endloop
  endfacet
  facet normal 0.000000 -0.781832 -0.623490
    outer loop
      vertex -5.000000 -6.045456 6.982132
      vertex -5.000000 -4.855159 5.489546
      vertex 5.000000 -6.045456 6.982132
    endloop
  endfacet
  facet normal -0.000000 -0.974928 0.222521
    outer loop
      vertex 5.000000 -5.279971 3.628322
      vertex 5.000000 -4.855159 5.489546
      vertex -5.000000 -4.855159 5.489546
    endloop
  endfacet
  facet normal -0.000000 -0.974928 0.222521
    outer loop
      vertex -5.000000 -5.279971 3.628322
      vertex 5.000000 -5.279971 3.628322
      vertex -5.000000 -4.855159 5.489546
    endloop
  endfacet
  facet normal -0.000000 -0.433884 0.900969
    outer loop
      vertex 5.000000 -7.000000 2.800000
      vertex 5.000000 -5.279971 3.628322
      vertex -5.000000 -5.279971 3.628322
    endloop
  endfacet
  facet normal -0.000000 -0.433884 0.900969
    outer loop
      vertex -5.000000 -7.000000 2.800000
      vertex 5.000000 -7.000000 2.800000
      vertex -5.000000 -5.279971 3.628322
    endloop
  endfacet
  facet normal -0.000000 0.433884 0.900969
    outer loop
      vertex 5.000000 -8.720029 3.628322
      vertex 5.000000 -7.000000 2.800000
      vertex -5.000000 -7.000000 2.800000
    endloop
  endfacet
  facet normal -0.000000 0.433884 0.900969
    outer loop
      vertex -5.000000 -8.720029 3.628322
      vertex 5.000000 -8.720029 3.628322
      vertex -5.000000 -7.000000 2.800000
    endloop
  endfacet
  facet normal 1.000000 0.000000 -0.000000
    outer loop
      vertex 5.000000 -7.000000 2.800000
      vertex 5.000000 -12.500000 0.000000
      vertex 5.000000 12.500000 0.000000
    endloop
  endfacet
  facet normal 1.000000 -0.000000 -0.000000
    outer loop
      vertex 5.000000 5.279971 3.628322
      vertex 5.000000 -12.500000 10.000000
      vertex 5.000000 12.500000 0.000000
    endloop
  endfacet
  facet normal 1.000000 0.000000 0.000000
    outer loop
      vertex 5.000000 6.045456 6.982132
      vertex 5.000000 7.954544 6.982132
      vertex 5.000000 12.500000 10.000000
    endloop
  endfacet
  facet normal 1.000000 0.000000 -0.000000
    outer loop
      vertex 5.000000 -12.500000 10.000000
      vertex 5.000000 -12.500000 0.000000
      vertex 5.000000 -8.720029 3.628322
    endloop
  endfacet
  facet normal 1.000000 0.000000 -0.000000
    outer loop
      vertex 5.000000 -5.279971 3.628322
      vertex 5.000000 -7.000000 2.800000
      vertex 5.000000 12.500000 0.000000
    endloop
  endfacet
  facet normal 1.000000 0.000000 0.000000
    outer loop
      vertex 5.000000 -12.500000 10.000000
      vertex 5.000000 -8.720029 3.628322
      vertex 5.000000 -9.144841 5.489546
    endloop
  endfacet
  facet normal 1.000000 0.000000 -0.000000
    outer loop
      vertex 5.000000 -4.855159 5.489546
      vertex 5.000000 -5.279971 3.628322
      vertex 5.000000 12.500000 0.000000
    endloop
  endfacet
  facet normal 1.000000 0.000000 0.000000
    outer loop
      vertex 5.000000 -12.500000 10.000000
      vertex 5.000000 -9.144841 5.489546
      vertex 5.000000 -7.954544 6.982132
    endloop
  endfacet
  facet normal 1.000000 0.000000 0.000000
    outer loop
      vertex 5.000000 -12.500000 10.000000
      vertex 5.000000 -6.045456 6.982132
      vertex 5.000000 12.500000 0.000000
    endloop
  endfacet
  facet normal 1.000000 0.000000 0.000000
    outer loop
      vertex 5.000000 -12.500000 10.000000
      vertex 5.000000 -7.954544 6.982132
      vertex 5.000000 -6.045456 6.982132
    endloop
  endfacet
  facet normal 1.000000 0.000000 -0.000000
    outer loop
      vertex 5.000000 -8.720029 3.628322
      vertex 5.000000 -12.500000 0.000000
      vertex 5.000000 -7.000000 2.800000
    endloop
  endfacet
  facet normal 1.000000 -0.000000 -0.000000
    outer loop
      vertex 5.000000 7.000000 2.800000
      vertex 5.000000 5.279971 3.628322
      vertex 5.000000 12.500000 0.000000
    endloop
  endfacet
  facet normal 1.000000 -0.000000 -0.000000
    outer loop
      vertex 5.000000 4.855159 5.489546
      vertex 5.000000 -12.500000 10.000000
      vertex 5.000000 5.279971 3.628322
    endloop
  endfacet
  facet normal 1.000000 -0.000000 0.000000
    outer loop
      vertex 5.000000 6.045456 6.982132
      vertex 5.000000 -12.500000 10.000000
      vertex 5.000000 4.855159 5.489546
    endloop
  endfacet
  facet normal 1.000000 0.000000 0.000000
    outer loop
      vertex 5.000000 7.954544 6.982132
      vertex 5.000000 9.144841 5.489546
      vertex 5.000000 12.500000 10.000000
    endloop
  endfacet
  facet normal 1.000000 0.000000 0.000000
    outer loop
      vertex 5.000000 12.500000 10.000000
      vertex 5.000000 -12.500000 10.000000
      vertex 5.000000 6.045456 6.982132
    endloop
  endfacet
  facet normal 1.000000 0.000000 0.000000
    outer loop
      vertex 5.000000 12.500000 10.000000
      vertex 5.000000 9.144841 5.489546
      vertex 5.000000 12.500000 0.000000
    endloop
  endfacet
  facet normal 1.000000 0.000000 -0.000000
    outer loop
      vertex 5.000000 9.144841 5.489546
      vertex 5.000000 8.720029 3.628322
      vertex 5.000000 12.500000 0.000000
    endloop
  endfacet
  facet normal 1.000000 0.000000 -0.000000
    outer loop
      vertex 5.000000 8.720029 3.628322
      vertex 5.000000 7.000000 2.800000
      vertex 5.000000 12.500000 0.000000
    endloop
  endfacet
  facet normal 1.000000 0.000000 0.000000
    outer loop
      vertex 5.000000 -6.045456 6.982132
      vertex 5.000000 -4.855159 5.489546
      vertex 5.000000 12.500000 0.000000
    endloop
  endfacet
  facet normal 0.000000 1.000000 0.000000
    outer loop
      vertex -5.000000 12.500000 0.000000
      vertex -5.000000 12.500000 10.000000
      vertex 5.000000 12.500000 0.000000
    endloop
  endfacet
  facet normal 0.000000 1.000000 0.000000
    outer loop
      vertex 5.000000 12.500000 0.000000
      vertex -5.000000 12.500000 10.000000
      vertex 5.000000 12.500000 10.000000
    endloop
  endfacet
  facet normal -1.000000 0.000000 -0.000000
    outer loop
      vertex -5.000000 7.954544 6.982132
      vertex -5.000000 4.010099 10.000000
      vertex -5.000000 12.500000 10.000000
    endloop
  endfacet
  facet normal -1.000000 0.000000 -0.000000
    outer loop
      vertex -5.000000 4.010099 0.000000
      vertex -5.000000 4.010099 10.000000
      vertex -5.000000 4.855159 5.489546
    endloop
  endfacet
  facet normal -1.000000 0.000000 0.000000
    outer loop
      vertex -5.000000 4.010099 0.000000
      vertex -5.000000 4.855159 5.489546
      vertex -5.000000 5.279971 3.628322
    endloop
  endfacet
  facet normal -1.000000 -0.000000 0.000000
    outer loop
      vertex -5.000000 4.010099 0.000000
      vertex -5.000000 5.279971 3.628322
      vertex -5.000000 12.500000 0.000000
    endloop
  endfacet
  facet normal -1.000000 0.000000 0.000000
    outer loop
      vertex -5.000000 5.279971 3.628322
      vertex -5.000000 7.000000 2.800000
      vertex -5.000000 12.500000 0.000000
    endloop
  endfacet
  facet normal -1.000000 0.000000 0.000000
    outer loop
      vertex -5.000000 9.144841 5.489546
      vertex -5.000000 12.500000 0.000000
      vertex -5.000000 8.720029 3.628322
    endloop
  endfacet
  facet normal -1.000000 -0.000000 -0.000000
    outer loop
      vertex -5.000000 6.045456 6.982132
      vertex -5.000000 4.010099 10.000000
      vertex -5.000000 7.954544 6.982132
    endloop
  endfacet
  facet normal -1.000000 0.000000 0.000000
    outer loop
      vertex -5.000000 12.500000 0.000000
      vertex -5.000000 9.144841 5.489546
      vertex -5.000000 12.500000 10.000000
    endloop
  endfacet
  facet normal -1.000000 0.000000 -0.000000
    outer loop
      vertex -5.000000 9.144841 5.489546
      vertex -5.000000 7.954544 6.982132
      vertex -5.000000 12.500000 10.000000
    endloop
  endfacet
  facet normal -1.000000 0.000000 -0.000000
    outer loop
      vertex -5.000000 4.855159 5.489546
      vertex -5.000000 4.010099 10.000000
      vertex -5.000000 6.045456 6.982132
    endloop
  endfacet
  facet normal -1.000000 0.000000 0.000000
    outer loop
      vertex -5.000000 8.720029 3.628322
      vertex -5.000000 12.500000 0.000000
      vertex -5.000000 7.000000 2.800000
    endloop
  endfacet
  facet normal 0.120536 -0.992709 0.000000
    outer loop
      vertex -4.505800 4.070106 0.000000
      vertex -4.505800 4.070106 10.000000
      vertex -5.000000 4.010099 10.000000
    endloop
  endfacet
  facet normal 0.120536 -0.992709 0.000000
    outer loop
      vertex -5.000000 4.010099 0.000000
      vertex -4.505800 4.070106 0.000000
      vertex -5.000000 4.010099 10.000000
    endloop
  endfacet
  facet normal -0.354605 -0.935016 -0.000000
    outer loop
      vertex -2.670935 3.374234 0.000000
      vertex -2.670935 3.374234 10.000000
      vertex -4.505800 4.070106 10.000000
    endloop
  endfacet
  facet normal -0.354605 -0.935016 -0.000000
    outer loop
      vertex -4.505800 4.070106 0.000000
      vertex -2.670935 3.374234 0.000000
      vertex -4.505800 4.070106 10.000000
    endloop
  endfacet
  facet normal -0.748511 -0.663123 0.000000
    outer loop
      vertex -1.369630 1.905365 10.000000
      vertex -2.670935 3.374234 10.000000
      vertex -1.369630 1.905365 0.000000
    endloop
  endfacet
  facet normal -0.748511 -0.663123 0.000000
    outer loop
      vertex -1.369630 1.905365 0.000000
      vertex -2.670935 3.374234 10.000000
      vertex -2.670935 3.374234 0.000000
    endloop
  endfacet
  facet normal -0.970942 -0.239316 0.000000
    outer loop
      vertex -0.900000 0.000000 10.000000
      vertex -1.369630 1.905365 10.000000
      vertex -0.900000 0.000000 0.000000
    endloop
  endfacet
  facet normal -0.970942 -0.239316 0.000000
    outer loop
      vertex -0.900000 0.000000 0.000000
      vertex -1.369630 1.905365 10.000000
      vertex -1.369630 1.905365 0.000000
    endloop
  endfacet
  facet normal -0.970942 0.239316 0.000000
    outer loop
      vertex -0.900000 0.000000 10.000000
      vertex -0.900000 0.000000 0.000000
      vertex -1.369630 -1.905365 10.000000
    endloop
  endfacet
  facet normal -0.970942 0.239316 0.000000
    outer loop
      vertex -1.369630 -1.905365 10.000000
      vertex -0.900000 0.000000 0.000000
      vertex -1.369630 -1.905365 0.000000
    endloop
  endfacet
  facet normal -0.748511 0.663123 0.000000
    outer loop
      vertex -1.369630 -1.905365 10.000000
      vertex -1.369630 -1.905365 0.000000
      vertex -2.670935 -3.374234 10.000000
    endloop
  endfacet
  facet normal -0.748511 0.663123 0.000000
    outer loop
      vertex -2.670935 -3.374234 10.000000
      vertex -1.369630 -1.905365 0.000000
      vertex -2.670935 -3.374234 0.000000
    endloop
  endfacet
  facet normal -0.354605 0.935016 0.000000
    outer loop
      vertex -2.670935 -3.374234 10.000000
      vertex -2.670935 -3.374234 0.000000
      vertex -4.505800 -4.070106 10.000000
    endloop
  endfacet
  facet normal -0.354605 0.935016 0.000000
    outer loop
      vertex -4.505800 -4.070106 10.000000
      vertex -2.670935 -3.374234 0.000000
      vertex -4.505800 -4.070106 0.000000
    endloop
  endfacet
  facet normal -0.000000 0.974928 0.222521
    outer loop
      vertex 5.000000 5.279971 3.628322
      vertex -5.000000 5.279971 3.628322
      vertex 5.000000 4.855159 5.489546
    endloop
  endfacet
  facet normal -0.000000 0.974928 0.222521
    outer loop
      vertex 5.000000 4.855159 5.489546
      vertex -5.000000 5.279971 3.628322
      vertex -5.000000 4.855159 5.489546
    endloop
  endfacet
  facet normal -0.000000 0.433884 0.900969
    outer loop
      vertex 5.000000 5.279971 3.628322
      vertex 5.000000 7.000000 2.800000
      vertex -5.000000 7.000000 2.800000
    endloop
  endfacet
  facet normal -0.000000 0.433884 0.900969
    outer loop
      vertex -5.000000 5.279971 3.628322
      vertex 5.000000 5.279971 3.628322
      vertex -5.000000 7.000000 2.800000
    endloop
  endfacet
  facet normal -0.000000 -0.433884 0.900969
    outer loop
      vertex 5.000000 7.000000 2.800000
      vertex 5.000000 8.720029 3.628322
      vertex -5.000000 8.720029 3.628322
    endloop
  endfacet
  facet normal -0.000000 -0.433884 0.900969
    outer loop
      vertex -5.000000 7.000000 2.800000
      vertex 5.000000 7.000000 2.800000
      vertex -5.000000 8.720029 3.628322
    endloop
  endfacet
  facet normal -0.000000 -0.974928 0.222521
    outer loop
      vertex 5.000000 8.720029 3.628322
      vertex 5.000000 9.144841 5.489546
      vertex -5.000000 9.144841 5.489546
    endloop
  endfacet
  facet normal -0.000000 -0.974928 0.222521
    outer loop
      vertex -5.000000 8.720029 3.628322
      vertex 5.000000 8.720029 3.628322
      vertex -5.000000 9.144841 5.489546
    endloop
  endfacet
  facet normal 0.000000 -0.781832 -0.623490
    outer loop
      vertex -5.000000 9.144841 5.489546
      vertex 5.000000 9.144841 5.489546
      vertex 5.000000 7.954544 6.982132
    endloop
  endfacet
  facet normal 0.000000 -0.781832 -0.623490
    outer loop
      vertex -5.000000 7.954544 6.982132
      vertex -5.000000 9.144841 5.489546
      vertex 5.000000 7.954544 6.982132
    endloop
  endfacet
  facet normal 0.000000 0.000000 -1.000000
    outer loop
      vertex 5.000000 7.954544 6.982132
      vertex 5.000000 6.045456 6.982132
      vertex -5.000000 7.954544 6.982132
    endloop
  endfacet
  facet normal 0.000000 0.000000 -1.000000
    outer loop
      vertex -5.000000 7.954544 6.982132
      vertex 5.000000 6.045456 6.982132
      vertex -5.000000 6.045456 6.982132
    endloop
  endfacet
  facet normal 0.000000 0.781832 -0.623490
    outer loop
      vertex 5.000000 6.045456 6.982132
      vertex 5.000000 4.855159 5.489546
      vertex -5.000000 6.045456 6.982132
    endloop
  endfacet
  facet normal 0.000000 0.781832 -0.623490
    outer loop
      vertex -5.000000 6.045456 6.982132
      vertex 5.000000 4.855159 5.489546
      vertex -5.000000 4.855159 5.489546
    endloop
  endfacet
endsolid OpenSCAD_Model
