solid OpenSCAD_Model
  facet normal -0.000000 0.000000 -1.000000
    outer loop
      vertex 0.000000 7.800000 0.000000
      vertex 0.381759 10.210333 0.000000
      vertex 0.381759 5.389667 0.000000
    endloop
  endfacet
  facet normal 0.000000 -0.000000 -1.000000
    outer loop
      vertex 0.381759 5.389667 0.000000
      vertex 0.381759 10.210333 0.000000
      vertex 1.489667 12.384725 0.000000
    endloop
  endfacet
  facet normal 0.000000 0.000000 -1.000000
    outer loop
      vertex 0.381759 5.389667 0.000000
      vertex 1.489667 12.384725 0.000000
      vertex 3.215275 14.110333 0.000000
    endloop
  endfacet
  facet normal 0.000000 0.000000 -1.000000
    outer loop
      vertex 0.381759 5.389667 0.000000
      vertex 3.215275 14.110333 0.000000
      vertex 5.389667 15.218241 0.000000
    endloop
  endfacet
  facet normal 0.000000 0.000000 -1.000000
    outer loop
      vertex 0.381759 5.389667 0.000000
      vertex 5.389667 15.218241 0.000000
      vertex 7.800000 15.600000 0.000000
    endloop
  endfacet
  facet normal 0.000000 -0.000000 -1.000000
    outer loop
      vertex 11.247200 10.692544 0.000000
      vertex 7.800000 15.600000 0.000000
      vertex 25.300000 15.600000 0.000000
    endloop
  endfacet
  facet normal -0.000000 0.000000 -1.000000
    outer loop
      vertex 11.704776 9.900000 0.000000
      vertex 25.300000 15.600000 0.000000
      vertex 25.300000 9.900000 0.000000
    endloop
  endfacet
  facet normal -0.000000 -0.000000 -1.000000
    outer loop
      vertex 10.050000 11.697114 0.000000
      vertex 7.800000 15.600000 0.000000
      vertex 11.247200 10.692544 0.000000
    endloop
  endfacet
  facet normal 0.000000 -0.000000 -1.000000
    outer loop
      vertex 3.300000 7.800000 0.000000
      vertex 0.381759 5.389667 0.000000
      vertex 3.571383 9.339091 0.000000
    endloop
  endfacet
  facet normal -0.000000 -0.000000 -1.000000
    outer loop
      vertex 8.581417 12.231635 0.000000
      vertex 7.800000 15.600000 0.000000
      vertex 10.050000 11.697114 0.000000
    endloop
  endfacet
  facet normal -0.000000 0.000000 -1.000000
    outer loop
      vertex 7.018583 12.231635 0.000000
      vertex 7.800000 15.600000 0.000000
      vertex 8.581417 12.231635 0.000000
    endloop
  endfacet
  facet normal 0.000000 0.000000 -1.000000
    outer loop
      vertex 5.550000 11.697114 0.000000
      vertex 7.800000 15.600000 0.000000
      vertex 7.018583 12.231635 0.000000
    endloop
  endfacet
  facet normal 0.000000 0.000000 -1.000000
    outer loop
      vertex 4.352800 10.692544 0.000000
      vertex 7.800000 15.600000 0.000000
      vertex 5.550000 11.697114 0.000000
    endloop
  endfacet
  facet normal 0.000000 0.000000 -1.000000
    outer loop
      vertex 0.381759 5.389667 0.000000
      vertex 7.800000 15.600000 0.000000
      vertex 4.352800 10.692544 0.000000
    endloop
  endfacet
  facet normal 0.000000 0.000000 -1.000000
    outer loop
      vertex 0.381759 5.389667 0.000000
      vertex 4.352800 10.692544 0.000000
      vertex 3.571383 9.339091 0.000000
    endloop
  endfacet
  facet normal 0.000000 0.000000 -1.000000
    outer loop
      vertex 3.571383 6.260909 0.000000
      vertex 0.381759 5.389667 0.000000
      vertex 3.300000 7.800000 0.000000
    endloop
  endfacet
  facet normal 0.000000 0.000000 -1.000000
    outer loop
      vertex 4.352800 4.907456 0.000000
      vertex 0.381759 5.389667 0.000000
      vertex 3.571383 6.260909 0.000000
    endloop
  endfacet
  facet normal 0.000000 0.000000 -1.000000
    outer loop
      vertex 0.381759 5.389667 0.000000
      vertex 4.352800 4.907456 0.000000
      vertex 5.550000 3.902886 0.000000
    endloop
  endfacet
  facet normal 0.000000 0.000000 -1.000000
    outer loop
      vertex 25.300000 4.900000 0.000000
      vertex 10.050000 3.902886 0.000000
      vertex 11.238314 4.900000 0.000000
    endloop
  endfacet
  facet normal 0.000000 0.000000 -1.000000
    outer loop
      vertex 5.550000 3.902886 0.000000
      vertex 7.018583 3.368365 0.000000
      vertex 0.381759 5.389667 0.000000
    endloop
  endfacet
  facet normal 0.000000 0.000000 -1.000000
    outer loop
      vertex 8.581417 3.368365 0.000000
      vertex 10.050000 3.902886 0.000000
      vertex 25.300000 4.900000 0.000000
    endloop
  endfacet
  facet normal -0.000000 0.000000 -1.000000
    outer loop
      vertex 8.581417 3.368365 0.000000
      vertex 25.300000 4.900000 0.000000
      vertex 25.300000 0.000000 0.000000
    endloop
  endfacet
  facet normal 0.000000 0.000000 -1.000000
    outer loop
      vertex 8.581417 3.368365 0.000000
      vertex 25.300000 0.000000 0.000000
      vertex 7.018583 3.368365 0.000000
    endloop
  endfacet
  facet normal 0.000000 0.000000 -1.000000
    outer loop
      vertex 7.018583 3.368365 0.000000
      vertex 25.300000 0.000000 0.000000
      vertex 7.800000 0.000000 0.000000
    endloop
  endfacet
  facet normal 0.000000 0.000000 -1.000000
    outer loop
      vertex 7.018583 3.368365 0.000000
      vertex 7.800000 0.000000 0.000000
      vertex 0.381759 5.389667 0.000000
    endloop
  endfacet
  facet normal 0.000000 0.000000 -1.000000
    outer loop
      vertex 0.381759 5.389667 0.000000
      vertex 7.800000 0.000000 0.000000
      vertex 5.389667 0.381759 0.000000
    endloop
  endfacet
  facet normal 0.000000 0.000000 -1.000000
    outer loop
      vertex 0.381759 5.389667 0.000000
      vertex 5.389667 0.381759 0.000000
      vertex 3.215275 1.489667 0.000000
    endloop
  endfacet
  facet normal 0.000000 0.000000 -1.000000
    outer loop
      vertex 0.381759 5.389667 0.000000
      vertex 3.215275 1.489667 0.000000
      vertex 1.489667 3.215275 0.000000
    endloop
  endfacet
  facet normal -0.000000 0.000000 -1.000000
    outer loop
      vertex 11.247200 10.692544 0.000000
      vertex 25.300000 15.600000 0.000000
      vertex 11.704776 9.900000 0.000000
    endloop
  endfacet
  facet normal -0.987688 0.156434 0.000000
    outer loop
      vertex 0.000000 7.800000 0.000000
      vertex 0.000000 7.800000 15.600000
      vertex 0.381759 10.210333 0.000000
    endloop
  endfacet
  facet normal -0.987688 0.156434 0.000000
    outer loop
      vertex 0.381759 10.210333 0.000000
      vertex 0.000000 7.800000 15.600000
      vertex 0.381759 10.210333 15.600000
    endloop
  endfacet
  facet normal -0.987688 -0.156434 -0.000000
    outer loop
      vertex 0.000000 7.800000 0.000000
      vertex 0.381759 5.389667 0.000000
      vertex 0.000000 7.800000 15.600000
    endloop
  endfacet
  facet normal -0.987688 -0.156434 0.000000
    outer loop
      vertex 0.000000 7.800000 15.600000
      vertex 0.381759 5.389667 0.000000
      vertex 0.381759 5.389667 15.600000
    endloop
  endfacet
  facet normal -0.891007 -0.453990 -0.000000
    outer loop
      vertex 0.381759 5.389667 0.000000
      vertex 1.489667 3.215275 0.000000
      vertex 0.381759 5.389667 15.600000
    endloop
  endfacet
  facet normal -0.891007 -0.453990 0.000000
    outer loop
      vertex 0.381759 5.389667 15.600000
      vertex 1.489667 3.215275 0.000000
      vertex 1.489667 3.215275 15.600000
    endloop
  endfacet
  facet normal -0.707107 -0.707107 0.000000
    outer loop
      vertex 1.489667 3.215275 15.600000
      vertex 1.489667 3.215275 0.000000
      vertex 3.215275 1.489667 0.000000
    endloop
  endfacet
  facet normal -0.707107 -0.707107 0.000000
    outer loop
      vertex 3.215275 1.489667 15.600000
      vertex 1.489667 3.215275 15.600000
      vertex 3.215275 1.489667 0.000000
    endloop
  endfacet
  facet normal -0.453990 -0.891007 0.000000
    outer loop
      vertex 3.215275 1.489667 15.600000
      vertex 3.215275 1.489667 0.000000
      vertex 5.389667 0.381759 0.000000
    endloop
  endfacet
  facet normal -0.453990 -0.891007 0.000000
    outer loop
      vertex 5.389667 0.381759 15.600000
      vertex 3.215275 1.489667 15.600000
      vertex 5.389667 0.381759 0.000000
    endloop
  endfacet
  facet normal -0.156434 -0.987688 0.000000
    outer loop
      vertex 5.389667 0.381759 15.600000
      vertex 5.389667 0.381759 0.000000
      vertex 7.800000 0.000000 0.000000
    endloop
  endfacet
  facet normal -0.156434 -0.987688 0.000000
    outer loop
      vertex 7.800000 0.000000 15.600000
      vertex 5.389667 0.381759 15.600000
      vertex 7.800000 0.000000 0.000000
    endloop
  endfacet
  facet normal 0.000000 -1.000000 0.000000
    outer loop
      vertex 15.609424 0.000000 3.220246
      vertex 7.800000 0.000000 0.000000
      vertex 25.300000 0.000000 0.000000
    endloop
  endfacet
  facet normal 0.000000 -1.000000 0.000000
    outer loop
      vertex 7.800000 0.000000 15.600000
      vertex 7.800000 0.000000 0.000000
      vertex 13.359424 0.000000 4.854966
    endloop
  endfacet
  facet normal 0.000000 -1.000000 0.000000
    outer loop
      vertex 18.390576 0.000000 3.220246
      vertex 15.609424 0.000000 3.220246
      vertex 25.300000 0.000000 0.000000
    endloop
  endfacet
  facet normal 0.000000 -1.000000 0.000000
    outer loop
      vertex 7.800000 0.000000 15.600000
      vertex 13.359424 0.000000 4.854966
      vertex 12.500000 0.000000 7.500000
    endloop
  endfacet
  facet normal 0.000000 -1.000000 0.000000
    outer loop
      vertex 21.500000 0.000000 7.500000
      vertex 20.640576 0.000000 4.854966
      vertex 25.300000 0.000000 0.000000
    endloop
  endfacet
  facet normal 0.000000 -1.000000 0.000000
    outer loop
      vertex 7.800000 0.000000 15.600000
      vertex 12.500000 0.000000 7.500000
      vertex 13.359424 0.000000 10.145034
    endloop
  endfacet
  facet normal 0.000000 -1.000000 0.000000
    outer loop
      vertex 25.300000 0.000000 15.600000
      vertex 7.800000 0.000000 15.600000
      vertex 15.609424 0.000000 11.779754
    endloop
  endfacet
  facet normal 0.000000 -1.000000 0.000000
    outer loop
      vertex 20.640576 0.000000 4.854966
      vertex 18.390576 0.000000 3.220246
      vertex 25.300000 0.000000 0.000000
    endloop
  endfacet
  facet normal 0.000000 -1.000000 0.000000
    outer loop
      vertex 25.300000 0.000000 15.600000
      vertex 15.609424 0.000000 11.779754
      vertex 18.390576 0.000000 11.779754
    endloop
  endfacet
  facet normal 0.000000 -1.000000 0.000000
    outer loop
      vertex 25.300000 0.000000 15.600000
      vertex 20.640576 0.000000 10.145034
      vertex 25.300000 0.000000 0.000000
    endloop
  endfacet
  facet normal 0.000000 -1.000000 0.000000
    outer loop
      vertex 25.300000 0.000000 15.600000
      vertex 18.390576 0.000000 11.779754
      vertex 20.640576 0.000000 10.145034
    endloop
  endfacet
  facet normal 0.000000 -1.000000 0.000000
    outer loop
      vertex 20.640576 0.000000 10.145034
      vertex 21.500000 0.000000 7.500000
      vertex 25.300000 0.000000 0.000000
    endloop
  endfacet
  facet normal 0.000000 -1.000000 0.000000
    outer loop
      vertex 13.359424 0.000000 4.854966
      vertex 7.800000 0.000000 0.000000
      vertex 15.609424 0.000000 3.220246
    endloop
  endfacet
  facet normal 0.000000 -1.000000 -0.000000
    outer loop
      vertex 13.359424 0.000000 10.145034
      vertex 15.609424 0.000000 11.779754
      vertex 7.800000 0.000000 15.600000
    endloop
  endfacet
  facet normal 1.000000 0.000000 -0.000000
    outer loop
      vertex 25.300000 0.000000 15.600000
      vertex 25.300000 0.000000 0.000000
      vertex 25.300000 4.900000 0.000000
    endloop
  endfacet
  facet normal 1.000000 0.000000 0.000000
    outer loop
      vertex 25.300000 4.900000 15.600000
      vertex 25.300000 0.000000 15.600000
      vertex 25.300000 4.900000 0.000000
    endloop
  endfacet
  facet normal 0.000000 1.000000 -0.000000
    outer loop
      vertex 15.609424 4.900000 3.220246
      vertex 25.300000 4.900000 0.000000
      vertex 11.238314 4.900000 0.000000
    endloop
  endfacet
  facet normal 0.000000 1.000000 -0.000000
    outer loop
      vertex 21.500000 4.900000 7.500000
      vertex 25.300000 4.900000 0.000000
      vertex 20.640576 4.900000 4.854966
    endloop
  endfacet
  facet normal 0.000000 1.000000 -0.000000
    outer loop
      vertex 12.500000 4.900000 7.500000
      vertex 13.359424 4.900000 4.854966
      vertex 11.238314 4.900000 0.000000
    endloop
  endfacet
  facet normal 0.000000 1.000000 -0.000000
    outer loop
      vertex 13.359424 4.900000 4.854966
      vertex 15.609424 4.900000 3.220246
      vertex 11.238314 4.900000 0.000000
    endloop
  endfacet
  facet normal 0.000000 1.000000 -0.000000
    outer loop
      vertex 20.640576 4.900000 4.854966
      vertex 25.300000 4.900000 0.000000
      vertex 18.390576 4.900000 3.220246
    endloop
  endfacet
  facet normal 0.000000 1.000000 0.000000
    outer loop
      vertex 25.300000 4.900000 15.600000
      vertex 25.300000 4.900000 0.000000
      vertex 21.500000 4.900000 7.500000
    endloop
  endfacet
  facet normal 0.000000 1.000000 0.000000
    outer loop
      vertex 25.300000 4.900000 15.600000
      vertex 21.500000 4.900000 7.500000
      vertex 20.640576 4.900000 10.145034
    endloop
  endfacet
  facet normal 0.000000 1.000000 0.000000
    outer loop
      vertex 25.300000 4.900000 15.600000
      vertex 20.640576 4.900000 10.145034
      vertex 18.390576 4.900000 11.779754
    endloop
  endfacet
  facet normal 0.000000 1.000000 0.000000
    outer loop
      vertex 25.300000 4.900000 15.600000
      vertex 18.390576 4.900000 11.779754
      vertex 11.238314 4.900000 15.600000
    endloop
  endfacet
  facet normal 0.000000 1.000000 0.000000
    outer loop
      vertex 15.609424 4.900000 11.779754
      vertex 11.238314 4.900000 15.600000
      vertex 18.390576 4.900000 11.779754
    endloop
  endfacet
  facet normal 0.000000 1.000000 0.000000
    outer loop
      vertex 13.359424 4.900000 10.145034
      vertex 11.238314 4.900000 15.600000
      vertex 15.609424 4.900000 11.779754
    endloop
  endfacet
  facet normal 0.000000 1.000000 0.000000
    outer loop
      vertex 12.500000 4.900000 7.500000
      vertex 11.238314 4.900000 15.600000
      vertex 13.359424 4.900000 10.145034
    endloop
  endfacet
  facet normal 0.000000 1.000000 -0.000000
    outer loop
      vertex 11.238314 4.900000 15.600000
      vertex 12.500000 4.900000 7.500000
      vertex 11.238314 4.900000 0.000000
    endloop
  endfacet
  facet normal 0.000000 1.000000 -0.000000
    outer loop
      vertex 18.390576 4.900000 3.220246
      vertex 25.300000 4.900000 0.000000
      vertex 15.609424 4.900000 3.220246
    endloop
  endfacet
  facet normal -0.642788 0.766044 0.000000
    outer loop
      vertex 11.238314 4.900000 15.600000
      vertex 11.238314 4.900000 0.000000
      vertex 10.050000 3.902886 15.600000
    endloop
  endfacet
  facet normal -0.642788 0.766044 0.000000
    outer loop
      vertex 10.050000 3.902886 15.600000
      vertex 11.238314 4.900000 0.000000
      vertex 10.050000 3.902886 0.000000
    endloop
  endfacet
  facet normal -0.342020 0.939693 0.000000
    outer loop
      vertex 10.050000 3.902886 15.600000
      vertex 10.050000 3.902886 0.000000
      vertex 8.581417 3.368365 15.600000
    endloop
  endfacet
  facet normal -0.342020 0.939693 0.000000
    outer loop
      vertex 8.581417 3.368365 15.600000
      vertex 10.050000 3.902886 0.000000
      vertex 8.581417 3.368365 0.000000
    endloop
  endfacet
  facet normal 0.000000 1.000000 0.000000
    outer loop
      vertex 8.581417 3.368365 15.600000
      vertex 8.581417 3.368365 0.000000
      vertex 7.018583 3.368365 15.600000
    endloop
  endfacet
  facet normal 0.000000 1.000000 -0.000000
    outer loop
      vertex 7.018583 3.368365 15.600000
      vertex 8.581417 3.368365 0.000000
      vertex 7.018583 3.368365 0.000000
    endloop
  endfacet
  facet normal 0.342020 0.939693 -0.000000
    outer loop
      vertex 7.018583 3.368365 15.600000
      vertex 7.018583 3.368365 0.000000
      vertex 5.550000 3.902886 15.600000
    endloop
  endfacet
  facet normal 0.342020 0.939693 -0.000000
    outer loop
      vertex 5.550000 3.902886 15.600000
      vertex 7.018583 3.368365 0.000000
      vertex 5.550000 3.902886 0.000000
    endloop
  endfacet
  facet normal 0.642788 0.766044 -0.000000
    outer loop
      vertex 5.550000 3.902886 15.600000
      vertex 5.550000 3.902886 0.000000
      vertex 4.352800 4.907456 15.600000
    endloop
  endfacet
  facet normal 0.642788 0.766044 -0.000000
    outer loop
      vertex 4.352800 4.907456 15.600000
      vertex 5.550000 3.902886 0.000000
      vertex 4.352800 4.907456 0.000000
    endloop
  endfacet
  facet normal 0.866025 0.500000 0.000000
    outer loop
      vertex 3.571383 6.260909 15.600000
      vertex 4.352800 4.907456 15.600000
      vertex 4.352800 4.907456 0.000000
    endloop
  endfacet
  facet normal 0.866025 0.500000 0.000000
    outer loop
      vertex 3.571383 6.260909 0.000000
      vertex 3.571383 6.260909 15.600000
      vertex 4.352800 4.907456 0.000000
    endloop
  endfacet
  facet normal 0.984808 0.173648 0.000000
    outer loop
      vertex 3.300000 7.800000 15.600000
      vertex 3.571383 6.260909 15.600000
      vertex 3.571383 6.260909 0.000000
    endloop
  endfacet
  facet normal 0.984808 0.173648 0.000000
    outer loop
      vertex 3.300000 7.800000 0.000000
      vertex 3.300000 7.800000 15.600000
      vertex 3.571383 6.260909 0.000000
    endloop
  endfacet
  facet normal 0.984808 -0.173648 0.000000
    outer loop
      vertex 3.571383 9.339091 0.000000
      vertex 3.571383 9.339091 15.600000
      vertex 3.300000 7.800000 15.600000
    endloop
  endfacet
  facet normal 0.984808 -0.173648 0.000000
    outer loop
      vertex 3.300000 7.800000 0.000000
      vertex 3.571383 9.339091 0.000000
      vertex 3.300000 7.800000 15.600000
    endloop
  endfacet
  facet normal 0.866025 -0.500000 0.000000
    outer loop
      vertex 4.352800 10.692544 0.000000
      vertex 4.352800 10.692544 15.600000
      vertex 3.571383 9.339091 15.600000
    endloop
  endfacet
  facet normal 0.866025 -0.500000 0.000000
    outer loop
      vertex 3.571383 9.339091 0.000000
      vertex 4.352800 10.692544 0.000000
      vertex 3.571383 9.339091 15.600000
    endloop
  endfacet
  facet normal 0.642788 -0.766044 0.000000
    outer loop
      vertex 5.550000 11.697114 0.000000
      vertex 5.550000 11.697114 15.600000
      vertex 4.352800 10.692544 15.600000
    endloop
  endfacet
  facet normal 0.642788 -0.766044 0.000000
    outer loop
      vertex 4.352800 10.692544 0.000000
      vertex 5.550000 11.697114 0.000000
      vertex 4.352800 10.692544 15.600000
    endloop
  endfacet
  facet normal 0.342020 -0.939693 0.000000
    outer loop
      vertex 7.018583 12.231635 0.000000
      vertex 7.018583 12.231635 15.600000
      vertex 5.550000 11.697114 15.600000
    endloop
  endfacet
  facet normal 0.342020 -0.939693 0.000000
    outer loop
      vertex 5.550000 11.697114 0.000000
      vertex 7.018583 12.231635 0.000000
      vertex 5.550000 11.697114 15.600000
    endloop
  endfacet
  facet normal 0.000000 -1.000000 0.000000
    outer loop
      vertex 8.581417 12.231635 0.000000
      vertex 8.581417 12.231635 15.600000
      vertex 7.018583 12.231635 15.600000
    endloop
  endfacet
  facet normal -0.000000 -1.000000 -0.000000
    outer loop
      vertex 7.018583 12.231635 0.000000
      vertex 8.581417 12.231635 0.000000
      vertex 7.018583 12.231635 15.600000
    endloop
  endfacet
  facet normal -0.342020 -0.939693 -0.000000
    outer loop
      vertex 10.050000 11.697114 0.000000
      vertex 10.050000 11.697114 15.600000
      vertex 8.581417 12.231635 15.600000
    endloop
  endfacet
  facet normal -0.342020 -0.939693 -0.000000
    outer loop
      vertex 8.581417 12.231635 0.000000
      vertex 10.050000 11.697114 0.000000
      vertex 8.581417 12.231635 15.600000
    endloop
  endfacet
  facet normal -0.642788 -0.766044 -0.000000
    outer loop
      vertex 11.247200 10.692544 0.000000
      vertex 11.247200 10.692544 15.600000
      vertex 10.050000 11.697114 15.600000
    endloop
  endfacet
  facet normal -0.642788 -0.766044 -0.000000
    outer loop
      vertex 10.050000 11.697114 0.000000
      vertex 11.247200 10.692544 0.000000
      vertex 10.050000 11.697114 15.600000
    endloop
  endfacet
  facet normal -0.866025 -0.500000 0.000000
    outer loop
      vertex 11.704776 9.900000 15.600000
      vertex 11.247200 10.692544 15.600000
      vertex 11.704776 9.900000 0.000000
    endloop
  endfacet
  facet normal -0.866025 -0.500000 0.000000
    outer loop
      vertex 11.704776 9.900000 0.000000
      vertex 11.247200 10.692544 15.600000
      vertex 11.247200 10.692544 0.000000
    endloop
  endfacet
  facet normal 0.000000 -1.000000 -0.000000
    outer loop
      vertex 15.609424 9.900000 11.779754
      vertex 25.300000 9.900000 15.600000
      vertex 11.704776 9.900000 15.600000
    endloop
  endfacet
  facet normal 0.000000 -1.000000 -0.000000
    outer loop
      vertex 11.704776 9.900000 0.000000
      vertex 12.500000 9.900000 7.500000
      vertex 11.704776 9.900000 15.600000
    endloop
  endfacet
  facet normal 0.000000 -1.000000 -0.000000
    outer loop
      vertex 12.500000 9.900000 7.500000
      vertex 13.359424 9.900000 10.145034
      vertex 11.704776 9.900000 15.600000
    endloop
  endfacet
  facet normal 0.000000 -1.000000 -0.000000
    outer loop
      vertex 18.390576 9.900000 11.779754
      vertex 25.300000 9.900000 15.600000
      vertex 15.609424 9.900000 11.779754
    endloop
  endfacet
  facet normal 0.000000 -1.000000 -0.000000
    outer loop
      vertex 20.640576 9.900000 10.145034
      vertex 25.300000 9.900000 15.600000
      vertex 18.390576 9.900000 11.779754
    endloop
  endfacet
  facet normal 0.000000 -1.000000 0.000000
    outer loop
      vertex 25.300000 9.900000 0.000000
      vertex 25.300000 9.900000 15.600000
      vertex 20.640576 9.900000 10.145034
    endloop
  endfacet
  facet normal 0.000000 -1.000000 0.000000
    outer loop
      vertex 20.640576 9.900000 4.854966
      vertex 18.390576 9.900000 3.220246
      vertex 25.300000 9.900000 0.000000
    endloop
  endfacet
  facet normal 0.000000 -1.000000 0.000000
    outer loop
      vertex 25.300000 9.900000 0.000000
      vertex 20.640576 9.900000 10.145034
      vertex 21.500000 9.900000 7.500000
    endloop
  endfacet
  facet normal 0.000000 -1.000000 0.000000
    outer loop
      vertex 21.500000 9.900000 7.500000
      vertex 20.640576 9.900000 4.854966
      vertex 25.300000 9.900000 0.000000
    endloop
  endfacet
  facet normal -0.000000 -1.000000 0.000000
    outer loop
      vertex 11.704776 9.900000 0.000000
      vertex 25.300000 9.900000 0.000000
      vertex 18.390576 9.900000 3.220246
    endloop
  endfacet
  facet normal 0.000000 -1.000000 0.000000
    outer loop
      vertex 11.704776 9.900000 0.000000
      vertex 18.390576 9.900000 3.220246
      vertex 15.609424 9.900000 3.220246
    endloop
  endfacet
  facet normal 0.000000 -1.000000 0.000000
    outer loop
      vertex 11.704776 9.900000 0.000000
      vertex 13.359424 9.900000 4.854966
      vertex 12.500000 9.900000 7.500000
    endloop
  endfacet
  facet normal 0.000000 -1.000000 0.000000
    outer loop
      vertex 11.704776 9.900000 0.000000
      vertex 15.609424 9.900000 3.220246
      vertex 13.359424 9.900000 4.854966
    endloop
  endfacet
  facet normal 0.000000 -1.000000 -0.000000
    outer loop
      vertex 13.359424 9.900000 10.145034
      vertex 15.609424 9.900000 11.779754
      vertex 11.704776 9.900000 15.600000
    endloop
  endfacet
  facet normal 1.000000 0.000000 -0.000000
    outer loop
      vertex 25.300000 9.900000 15.600000
      vertex 25.300000 9.900000 0.000000
      vertex 25.300000 15.600000 0.000000
    endloop
  endfacet
  facet normal 1.000000 0.000000 0.000000
    outer loop
      vertex 25.300000 15.600000 15.600000
      vertex 25.300000 9.900000 15.600000
      vertex 25.300000 15.600000 0.000000
    endloop
  endfacet
  facet normal 0.000000 1.000000 0.000000
    outer loop
      vertex 18.390576 15.600000 11.779754
      vertex 7.800000 15.600000 15.600000
      vertex 25.300000 15.600000 15.600000
    endloop
  endfacet
  facet normal 0.000000 1.000000 0.000000
    outer loop
      vertex 7.800000 15.600000 0.000000
      vertex 7.800000 15.600000 15.600000
      vertex 12.500000 15.600000 7.500000
    endloop
  endfacet
  facet normal 0.000000 1.000000 0.000000
    outer loop
      vertex 7.800000 15.600000 0.000000
      vertex 12.500000 15.600000 7.500000
      vertex 13.359424 15.600000 4.854966
    endloop
  endfacet
  facet normal 0.000000 1.000000 0.000000
    outer loop
      vertex 7.800000 15.600000 0.000000
      vertex 13.359424 15.600000 4.854966
      vertex 15.609424 15.600000 3.220246
    endloop
  endfacet
  facet normal 0.000000 1.000000 0.000000
    outer loop
      vertex 7.800000 15.600000 0.000000
      vertex 15.609424 15.600000 3.220246
      vertex 25.300000 15.600000 0.000000
    endloop
  endfacet
  facet normal 0.000000 1.000000 -0.000000
    outer loop
      vertex 20.640576 15.600000 4.854966
      vertex 25.300000 15.600000 0.000000
      vertex 18.390576 15.600000 3.220246
    endloop
  endfacet
  facet normal 0.000000 1.000000 0.000000
    outer loop
      vertex 15.609424 15.600000 11.779754
      vertex 7.800000 15.600000 15.600000
      vertex 18.390576 15.600000 11.779754
    endloop
  endfacet
  facet normal 0.000000 1.000000 0.000000
    outer loop
      vertex 25.300000 15.600000 0.000000
      vertex 20.640576 15.600000 4.854966
      vertex 25.300000 15.600000 15.600000
    endloop
  endfacet
  facet normal 0.000000 1.000000 0.000000
    outer loop
      vertex 20.640576 15.600000 4.854966
      vertex 21.500000 15.600000 7.500000
      vertex 25.300000 15.600000 15.600000
    endloop
  endfacet
  facet normal 0.000000 1.000000 0.000000
    outer loop
      vertex 13.359424 15.600000 10.145034
      vertex 7.800000 15.600000 15.600000
      vertex 15.609424 15.600000 11.779754
    endloop
  endfacet
  facet normal 0.000000 1.000000 0.000000
    outer loop
      vertex 21.500000 15.600000 7.500000
      vertex 20.640576 15.600000 10.145034
      vertex 25.300000 15.600000 15.600000
    endloop
  endfacet
  facet normal 0.000000 1.000000 0.000000
    outer loop
      vertex 20.640576 15.600000 10.145034
      vertex 18.390576 15.600000 11.779754
      vertex 25.300000 15.600000 15.600000
    endloop
  endfacet
  facet normal 0.000000 1.000000 0.000000
    outer loop
      vertex 12.500000 15.600000 7.500000
      vertex 7.800000 15.600000 15.600000
      vertex 13.359424 15.600000 10.145034
    endloop
  endfacet
  facet normal 0.000000 1.000000 -0.000000
    outer loop
      vertex 18.390576 15.600000 3.220246
      vertex 25.300000 15.600000 0.000000
      vertex 15.609424 15.600000 3.220246
    endloop
  endfacet
  facet normal -0.156434 0.987688 0.000000
    outer loop
      vertex 5.389667 15.218241 0.000000
      vertex 5.389667 15.218241 15.600000
      vertex 7.800000 15.600000 0.000000
    endloop
  endfacet
  facet normal -0.156434 0.987688 0.000000
    outer loop
      vertex 7.800000 15.600000 0.000000
      vertex 5.389667 15.218241 15.600000
      vertex 7.800000 15.600000 15.600000
    endloop
  endfacet
  facet normal -0.453990 0.891007 0.000000
    outer loop
      vertex 3.215275 14.110333 0.000000
      vertex 3.215275 14.110333 15.600000
      vertex 5.389667 15.218241 0.000000
    endloop
  endfacet
  facet normal -0.453990 0.891007 0.000000
    outer loop
      vertex 5.389667 15.218241 0.000000
      vertex 3.215275 14.110333 15.600000
      vertex 5.389667 15.218241 15.600000
    endloop
  endfacet
  facet normal -0.707107 0.707107 0.000000
    outer loop
      vertex 1.489667 12.384725 0.000000
      vertex 1.489667 12.384725 15.600000
      vertex 3.215275 14.110333 0.000000
    endloop
  endfacet
  facet normal -0.707107 0.707107 0.000000
    outer loop
      vertex 3.215275 14.110333 0.000000
      vertex 1.489667 12.384725 15.600000
      vertex 3.215275 14.110333 15.600000
    endloop
  endfacet
  facet normal -0.891007 0.453990 0.000000
    outer loop
      vertex 0.381759 10.210333 0.000000
      vertex 0.381759 10.210333 15.600000
      vertex 1.489667 12.384725 0.000000
    endloop
  endfacet
  facet normal -0.891007 0.453990 0.000000
    outer loop
      vertex 1.489667 12.384725 0.000000
      vertex 0.381759 10.210333 15.600000
      vertex 1.489667 12.384725 15.600000
    endloop
  endfacet
  facet normal 0.000000 0.000000 1.000000
    outer loop
      vertex 0.381759 10.210333 15.600000
      vertex 0.000000 7.800000 15.600000
      vertex 0.381759 5.389667 15.600000
    endloop
  endfacet
  facet normal 0.000000 0.000000 1.000000
    outer loop
      vertex 3.215275 1.489667 15.600000
      vertex 0.381759 10.210333 15.600000
      vertex 1.489667 3.215275 15.600000
    endloop
  endfacet
  facet normal 0.000000 0.000000 1.000000
    outer loop
      vertex 1.489667 3.215275 15.600000
      vertex 0.381759 10.210333 15.600000
      vertex 0.381759 5.389667 15.600000
    endloop
  endfacet
  facet normal 0.000000 0.000000 1.000000
    outer loop
      vertex 5.389667 0.381759 15.600000
      vertex 0.381759 10.210333 15.600000
      vertex 3.215275 1.489667 15.600000
    endloop
  endfacet
  facet normal 0.000000 0.000000 1.000000
    outer loop
      vertex 7.800000 0.000000 15.600000
      vertex 0.381759 10.210333 15.600000
      vertex 5.389667 0.381759 15.600000
    endloop
  endfacet
  facet normal -0.000000 -0.000000 1.000000
    outer loop
      vertex 4.352800 4.907456 15.600000
      vertex 0.381759 10.210333 15.600000
      vertex 7.800000 0.000000 15.600000
    endloop
  endfacet
  facet normal -0.000000 0.000000 1.000000
    outer loop
      vertex 25.300000 0.000000 15.600000
      vertex 11.238314 4.900000 15.600000
      vertex 7.800000 0.000000 15.600000
    endloop
  endfacet
  facet normal 0.000000 0.000000 1.000000
    outer loop
      vertex 11.238314 4.900000 15.600000
      vertex 10.050000 3.902886 15.600000
      vertex 7.800000 0.000000 15.600000
    endloop
  endfacet
  facet normal 0.000000 0.000000 1.000000
    outer loop
      vertex 3.571383 9.339091 15.600000
      vertex 4.352800 10.692544 15.600000
      vertex 0.381759 10.210333 15.600000
    endloop
  endfacet
  facet normal 0.000000 0.000000 1.000000
    outer loop
      vertex 10.050000 3.902886 15.600000
      vertex 8.581417 3.368365 15.600000
      vertex 7.800000 0.000000 15.600000
    endloop
  endfacet
  facet normal 0.000000 0.000000 1.000000
    outer loop
      vertex 8.581417 3.368365 15.600000
      vertex 7.018583 3.368365 15.600000
      vertex 7.800000 0.000000 15.600000
    endloop
  endfacet
  facet normal -0.000000 -0.000000 1.000000
    outer loop
      vertex 7.018583 3.368365 15.600000
      vertex 5.550000 3.902886 15.600000
      vertex 7.800000 0.000000 15.600000
    endloop
  endfacet
  facet normal 0.000000 0.000000 1.000000
    outer loop
      vertex 3.300000 7.800000 15.600000
      vertex 3.571383 9.339091 15.600000
      vertex 0.381759 10.210333 15.600000
    endloop
  endfacet
  facet normal -0.000000 -0.000000 1.000000
    outer loop
      vertex 5.550000 3.902886 15.600000
      vertex 4.352800 4.907456 15.600000
      vertex 7.800000 0.000000 15.600000
    endloop
  endfacet
  facet normal -0.000000 -0.000000 1.000000
    outer loop
      vertex 3.571383 6.260909 15.600000
      vertex 0.381759 10.210333 15.600000
      vertex 4.352800 4.907456 15.600000
    endloop
  endfacet
  facet normal 0.000000 0.000000 1.000000
    outer loop
      vertex 11.704776 9.900000 15.600000
      vertex 25.300000 9.900000 15.600000
      vertex 11.247200 10.692544 15.600000
    endloop
  endfacet
  facet normal 0.000000 0.000000 1.000000
    outer loop
      vertex 5.550000 11.697114 15.600000
      vertex 0.381759 10.210333 15.600000
      vertex 4.352800 10.692544 15.600000
    endloop
  endfacet
  facet normal 0.000000 0.000000 1.000000
    outer loop
      vertex 7.018583 12.231635 15.600000
      vertex 0.381759 10.210333 15.600000
      vertex 5.550000 11.697114 15.600000
    endloop
  endfacet
  facet normal 0.000000 0.000000 1.000000
    outer loop
      vertex 11.247200 10.692544 15.600000
      vertex 25.300000 9.900000 15.600000
      vertex 10.050000 11.697114 15.600000
    endloop
  endfacet
  facet normal 0.000000 0.000000 1.000000
    outer loop
      vertex 7.800000 15.600000 15.600000
      vertex 0.381759 10.210333 15.600000
      vertex 7.018583 12.231635 15.600000
    endloop
  endfacet
  facet normal 0.000000 0.000000 1.000000
    outer loop
      vertex 25.300000 15.600000 15.600000
      vertex 7.018583 12.231635 15.600000
      vertex 8.581417 12.231635 15.600000
    endloop
  endfacet
  facet normal 0.000000 0.000000 1.000000
    outer loop
      vertex 25.300000 9.900000 15.600000
      vertex 8.581417 12.231635 15.600000
      vertex 10.050000 11.697114 15.600000
    endloop
  endfacet
  facet normal 0.000000 0.000000 1.000000
    outer loop
      vertex 25.300000 15.600000 15.600000
      vertex 8.581417 12.231635 15.600000
      vertex 25.300000 9.900000 15.600000
    endloop
  endfacet
  facet normal 0.000000 -0.000000 1.000000
    outer loop
      vertex 7.800000 15.600000 15.600000
      vertex 7.018583 12.231635 15.600000
      vertex 25.300000 15.600000 15.600000
    endloop
  endfacet
  facet normal 0.000000 -0.000000 1.000000
    outer loop
      vertex 5.389667 15.218241 15.600000
      vertex 0.381759 10.210333 15.600000
      vertex 7.800000 15.600000 15.600000
    endloop
  endfacet
  facet normal 0.000000 -0.000000 1.000000
    outer loop
      vertex 3.215275 14.110333 15.600000
      vertex 0.381759 10.210333 15.600000
      vertex 5.389667 15.218241 15.600000
    endloop
  endfacet
  facet normal 0.000000 -0.000000 1.000000
    outer loop
      vertex 1.489667 12.384725 15.600000
      vertex 0.381759 10.210333 15.600000
      vertex 3.215275 14.110333 15.600000
    endloop
  endfacet
  facet normal 0.000000 0.000000 1.000000
    outer loop
      vertex 25.300000 4.900000 15.600000
      vertex 11.238314 4.900000 15.600000
      vertex 25.300000 0.000000 15.600000
    endloop
  endfacet
  facet normal 0.000000 0.000000 1.000000
    outer loop
      vertex 3.571383 6.260909 15.600000
      vertex 3.300000 7.800000 15.600000
      vertex 0.381759 10.210333 15.600000
    endloop
  endfacet
  facet normal 0.951056 0.000000 0.309017
    outer loop
      vertex 13.359424 0.000000 4.854966
      vertex 13.359424 4.900000 4.854966
      vertex 12.500000 4.900000 7.500000
    endloop
  endfacet
  facet normal 0.951056 0.000000 0.309017
    outer loop
      vertex 12.500000 0.000000 7.500000
      vertex 13.359424 0.000000 4.854966
      vertex 12.500000 4.900000 7.500000
    endloop
  endfacet
  facet normal 0.587785 0.000000 0.809017
    outer loop
      vertex 15.609424 0.000000 3.220246
      vertex 15.609424 4.900000 3.220246
      vertex 13.359424 4.900000 4.854966
    endloop
  endfacet
  facet normal 0.587785 0.000000 0.809017
    outer loop
      vertex 13.359424 0.000000 4.854966
      vertex 15.609424 0.000000 3.220246
      vertex 13.359424 4.900000 4.854966
    endloop
  endfacet
  facet normal 0.000000 0.000000 1.000000
    outer loop
      vertex 18.390576 0.000000 3.220246
      vertex 18.390576 4.900000 3.220246
      vertex 15.609424 4.900000 3.220246
    endloop
  endfacet
  facet normal 0.000000 0.000000 1.000000
    outer loop
      vertex 15.609424 0.000000 3.220246
      vertex 18.390576 0.000000 3.220246
      vertex 15.609424 4.900000 3.220246
    endloop
  endfacet
  facet normal -0.587785 0.000000 0.809017
    outer loop
      vertex 20.640576 0.000000 4.854966
      vertex 20.640576 4.900000 4.854966
      vertex 18.390576 4.900000 3.220246
    endloop
  endfacet
  facet normal -0.587785 0.000000 0.809017
    outer loop
      vertex 18.390576 0.000000 3.220246
      vertex 20.640576 0.000000 4.854966
      vertex 18.390576 4.900000 3.220246
    endloop
  endfacet
  facet normal -0.951056 0.000000 0.309017
    outer loop
      vertex 21.500000 4.900000 7.500000
      vertex 20.640576 4.900000 4.854966
      vertex 21.500000 0.000000 7.500000
    endloop
  endfacet
  facet normal -0.951056 0.000000 0.309017
    outer loop
      vertex 21.500000 0.000000 7.500000
      vertex 20.640576 4.900000 4.854966
      vertex 20.640576 0.000000 4.854966
    endloop
  endfacet
  facet normal -0.951056 -0.000000 -0.309017
    outer loop
      vertex 21.500000 4.900000 7.500000
      vertex 21.500000 0.000000 7.500000
      vertex 20.640576 4.900000 10.145034
    endloop
  endfacet
  facet normal -0.951056 -0.000000 -0.309017
    outer loop
      vertex 20.640576 4.900000 10.145034
      vertex 21.500000 0.000000 7.500000
      vertex 20.640576 0.000000 10.145034
    endloop
  endfacet
  facet normal -0.587785 -0.000000 -0.809017
    outer loop
      vertex 20.640576 4.900000 10.145034
      vertex 20.640576 0.000000 10.145034
      vertex 18.390576 4.900000 11.779754
    endloop
  endfacet
  facet normal -0.587785 -0.000000 -0.809017
    outer loop
      vertex 18.390576 4.900000 11.779754
      vertex 20.640576 0.000000 10.145034
      vertex 18.390576 0.000000 11.779754
    endloop
  endfacet
  facet normal 0.000000 -0.000000 -1.000000
    outer loop
      vertex 18.390576 4.900000 11.779754
      vertex 18.390576 0.000000 11.779754
      vertex 15.609424 4.900000 11.779754
    endloop
  endfacet
  facet normal 0.000000 -0.000000 -1.000000
    outer loop
      vertex 15.609424 4.900000 11.779754
      vertex 18.390576 0.000000 11.779754
      vertex 15.609424 0.000000 11.779754
    endloop
  endfacet
  facet normal 0.587785 -0.000000 -0.809017
    outer loop
      vertex 15.609424 4.900000 11.779754
      vertex 15.609424 0.000000 11.779754
      vertex 13.359424 4.900000 10.145034
    endloop
  endfacet
  facet normal 0.587785 -0.000000 -0.809017
    outer loop
      vertex 13.359424 4.900000 10.145034
      vertex 15.609424 0.000000 11.779754
      vertex 13.359424 0.000000 10.145034
    endloop
  endfacet
  facet normal 0.951056 -0.000000 -0.309017
    outer loop
      vertex 12.500000 4.900000 7.500000
      vertex 13.359424 4.900000 10.145034
      vertex 13.359424 0.000000 10.145034
    endloop
  endfacet
  facet normal 0.951056 -0.000000 -0.309017
    outer loop
      vertex 12.500000 0.000000 7.500000
      vertex 12.500000 4.900000 7.500000
      vertex 13.359424 0.000000 10.145034
    endloop
  endfacet
  facet normal 0.951056 0.000000 -0.309017
    outer loop
      vertex 12.500000 15.600000 7.500000
      vertex 13.359424 15.600000 10.145034
      vertex 13.359424 9.900000 10.145034
    endloop
  endfacet
  facet normal 0.951056 0.000000 -0.309017
    outer loop
      vertex 12.500000 9.900000 7.500000
      vertex 12.500000 15.600000 7.500000
      vertex 13.359424 9.900000 10.145034
    endloop
  endfacet
  facet normal 0.951056 0.000000 0.309017
    outer loop
      vertex 13.359424 9.900000 4.854966
      vertex 13.359424 15.600000 4.854966
      vertex 12.500000 15.600000 7.500000
    endloop
  endfacet
  facet normal 0.951056 0.000000 0.309017
    outer loop
      vertex 12.500000 9.900000 7.500000
      vertex 13.359424 9.900000 4.854966
      vertex 12.500000 15.600000 7.500000
    endloop
  endfacet
  facet normal 0.587785 0.000000 0.809017
    outer loop
      vertex 15.609424 9.900000 3.220246
      vertex 15.609424 15.600000 3.220246
      vertex 13.359424 15.600000 4.854966
    endloop
  endfacet
  facet normal 0.587785 0.000000 0.809017
    outer loop
      vertex 13.359424 9.900000 4.854966
      vertex 15.609424 9.900000 3.220246
      vertex 13.359424 15.600000 4.854966
    endloop
  endfacet
  facet normal 0.000000 0.000000 1.000000
    outer loop
      vertex 18.390576 9.900000 3.220246
      vertex 18.390576 15.600000 3.220246
      vertex 15.609424 15.600000 3.220246
    endloop
  endfacet
  facet normal 0.000000 0.000000 1.000000
    outer loop
      vertex 15.609424 9.900000 3.220246
      vertex 18.390576 9.900000 3.220246
      vertex 15.609424 15.600000 3.220246
    endloop
  endfacet
  facet normal -0.587785 0.000000 0.809017
    outer loop
      vertex 20.640576 9.900000 4.854966
      vertex 20.640576 15.600000 4.854966
      vertex 18.390576 15.600000 3.220246
    endloop
  endfacet
  facet normal -0.587785 0.000000 0.809017
    outer loop
      vertex 18.390576 9.900000 3.220246
      vertex 20.640576 9.900000 4.854966
      vertex 18.390576 15.600000 3.220246
    endloop
  endfacet
  facet normal -0.951056 0.000000 0.309017
    outer loop
      vertex 21.500000 15.600000 7.500000
      vertex 20.640576 15.600000 4.854966
      vertex 21.500000 9.900000 7.500000
    endloop
  endfacet
  facet normal -0.951056 0.000000 0.309017
    outer loop
      vertex 21.500000 9.900000 7.500000
      vertex 20.640576 15.600000 4.854966
      vertex 20.640576 9.900000 4.854966
    endloop
  endfacet
  facet normal -0.951056 0.000000 -0.309017
    outer loop
      vertex 21.500000 15.600000 7.500000
      vertex 21.500000 9.900000 7.500000
      vertex 20.640576 15.600000 10.145034
    endloop
  endfacet
  facet normal -0.951056 0.000000 -0.309017
    outer loop
      vertex 20.640576 15.600000 10.145034
      vertex 21.500000 9.900000 7.500000
      vertex 20.640576 9.900000 10.145034
    endloop
  endfacet
  facet normal -0.587785 0.000000 -0.809017
    outer loop
      vertex 20.640576 15.600000 10.145034
      vertex 20.640576 9.900000 10.145034
      vertex 18.390576 15.600000 11.779754
    endloop
  endfacet
  facet normal -0.587785 0.000000 -0.809017
    outer loop
      vertex 18.390576 15.600000 11.779754
      vertex 20.640576 9.900000 10.145034
      vertex 18.390576 9.900000 11.779754
    endloop
  endfacet
  facet normal 0.000000 0.000000 -1.000000
    outer loop
      vertex 18.390576 15.600000 11.779754
      vertex 18.390576 9.900000 11.779754
      vertex 15.609424 15.600000 11.779754
    endloop
  endfacet
  facet normal 0.000000 0.000000 -1.000000
    outer loop
      vertex 15.609424 15.600000 11.779754
      vertex 18.390576 9.900000 11.779754
      vertex 15.609424 9.900000 11.779754
    endloop
  endfacet
  facet normal 0.587785 0.000000 -0.809017
    outer loop
      vertex 15.609424 15.600000 11.779754
      vertex 15.609424 9.900000 11.779754
      vertex 13.359424 15.600000 10.145034
    endloop
  endfacet
  facet normal 0.587785 0.000000 -0.809017
    outer loop
      vertex 13.359424 15.600000 10.145034
      vertex 15.609424 9.900000 11.779754
      vertex 13.359424 9.900000 10.145034
    endloop
  endfacet
endsolid OpenSCAD_Model
