solid OpenSCAD_Model
  facet normal -0.000000 0.000000 -1.000000
    outer loop
      vertex -10.565510 6.100000 0.000000
      vertex -0.000000 12.200000 0.000000
      vertex -10.565510 -6.100000 0.000000
    endloop
  endfacet
  facet normal 0.000000 0.000000 -1.000000
    outer loop
      vertex -10.565510 -6.100000 0.000000
      vertex -0.000000 12.200000 0.000000
      vertex 0.000000 12.200000 0.000000
    endloop
  endfacet
  facet normal 0.000000 -0.000000 -1.000000
    outer loop
      vertex 1.390576 4.279754 0.000000
      vertex 0.000000 12.200000 0.000000
      vertex 24.500000 12.200000 0.000000
    endloop
  endfacet
  facet normal 0.000000 0.000000 -1.000000
    outer loop
      vertex 4.500000 0.000000 0.000000
      vertex 24.500000 12.200000 0.000000
      vertex 24.500000 5.565231 0.000000
    endloop
  endfacet
  facet normal 0.000000 0.000000 -1.000000
    outer loop
      vertex 17.306622 1.767666 0.000000
      vertex 20.500000 3.700000 0.000000
      vertex 24.467338 1.850000 0.000000
    endloop
  endfacet
  facet normal -0.000000 0.000000 -1.000000
    outer loop
      vertex 17.950000 0.000000 0.000000
      vertex 24.467338 1.850000 0.000000
      vertex 20.500000 0.000000 0.000000
    endloop
  endfacet
  facet normal -0.000000 0.000000 -1.000000
    outer loop
      vertex 17.306622 -1.767666 0.000000
      vertex 20.500000 0.000000 0.000000
      vertex 24.467338 -1.850000 0.000000
    endloop
  endfacet
  facet normal 0.000000 0.000000 -1.000000
    outer loop
      vertex -10.565510 -6.100000 0.000000
      vertex 24.467338 -1.850000 0.000000
      vertex 20.500000 -3.700000 0.000000
    endloop
  endfacet
  facet normal 0.000000 0.000000 -1.000000
    outer loop
      vertex -10.565510 -6.100000 0.000000
      vertex 20.500000 -3.700000 0.000000
      vertex 24.500000 -5.565231 0.000000
    endloop
  endfacet
  facet normal -0.000000 0.000000 -1.000000
    outer loop
      vertex -10.565510 -6.100000 0.000000
      vertex 24.500000 -5.565231 0.000000
      vertex 24.500000 -12.200000 0.000000
    endloop
  endfacet
  facet normal 0.000000 0.000000 -1.000000
    outer loop
      vertex -10.565510 -6.100000 0.000000
      vertex 24.500000 -12.200000 0.000000
      vertex 0.000000 -12.200000 0.000000
    endloop
  endfacet
  facet normal 0.000000 0.000000 -1.000000
    outer loop
      vertex -10.565510 -6.100000 0.000000
      vertex 0.000000 12.200000 0.000000
      vertex -4.401664 0.935603 0.000000
    endloop
  endfacet
  facet normal 0.000000 -0.000000 -1.000000
    outer loop
      vertex 12.615845 0.940555 0.000000
      vertex 4.500000 0.000000 0.000000
      vertex 13.825000 2.381570 0.000000
    endloop
  endfacet
  facet normal 0.000000 0.000000 -1.000000
    outer loop
      vertex -10.565510 -6.100000 0.000000
      vertex -4.401664 0.935603 0.000000
      vertex -4.401664 -0.935603 0.000000
    endloop
  endfacet
  facet normal 0.000000 0.000000 -1.000000
    outer loop
      vertex -2.250000 -3.897114 0.000000
      vertex -10.565510 -6.100000 0.000000
      vertex -3.640576 -2.645034 0.000000
    endloop
  endfacet
  facet normal 0.000000 0.000000 -1.000000
    outer loop
      vertex -0.470378 -4.475349 0.000000
      vertex -10.565510 -6.100000 0.000000
      vertex -2.250000 -3.897114 0.000000
    endloop
  endfacet
  facet normal 0.000000 0.000000 -1.000000
    outer loop
      vertex 17.306622 -1.767666 0.000000
      vertex 24.467338 -1.850000 0.000000
      vertex 15.677532 -2.708221 0.000000
    endloop
  endfacet
  facet normal 0.000000 0.000000 -1.000000
    outer loop
      vertex -10.565510 -6.100000 0.000000
      vertex -0.470378 -4.475349 0.000000
      vertex 1.390576 -4.279754 0.000000
    endloop
  endfacet
  facet normal 0.000000 0.000000 -1.000000
    outer loop
      vertex -10.565510 -6.100000 0.000000
      vertex 1.390576 -4.279754 0.000000
      vertex 24.467338 -1.850000 0.000000
    endloop
  endfacet
  facet normal 0.000000 0.000000 -1.000000
    outer loop
      vertex 3.011088 -3.344152 0.000000
      vertex 13.825000 -2.381570 0.000000
      vertex 15.677532 -2.708221 0.000000
    endloop
  endfacet
  facet normal 0.000000 0.000000 -1.000000
    outer loop
      vertex 4.500000 0.000000 0.000000
      vertex 24.500000 5.565231 0.000000
      vertex 13.825000 2.381570 0.000000
    endloop
  endfacet
  facet normal -0.000000 0.000000 -1.000000
    outer loop
      vertex 4.110955 1.830315 0.000000
      vertex 24.500000 12.200000 0.000000
      vertex 4.500000 0.000000 0.000000
    endloop
  endfacet
  facet normal 0.000000 0.000000 -1.000000
    outer loop
      vertex 15.677532 2.708221 0.000000
      vertex 24.500000 5.565231 0.000000
      vertex 20.500000 3.700000 0.000000
    endloop
  endfacet
  facet normal -0.000000 0.000000 -1.000000
    outer loop
      vertex 1.390576 4.279754 0.000000
      vertex 24.500000 12.200000 0.000000
      vertex 3.011088 3.344152 0.000000
    endloop
  endfacet
  facet normal -0.000000 0.000000 -1.000000
    outer loop
      vertex -0.470378 4.475349 0.000000
      vertex 0.000000 12.200000 0.000000
      vertex 1.390576 4.279754 0.000000
    endloop
  endfacet
  facet normal 0.000000 0.000000 -1.000000
    outer loop
      vertex 12.615845 0.940555 0.000000
      vertex 4.110955 -1.830315 0.000000
      vertex 4.500000 0.000000 0.000000
    endloop
  endfacet
  facet normal 0.000000 0.000000 -1.000000
    outer loop
      vertex -2.250000 3.897114 0.000000
      vertex 0.000000 12.200000 0.000000
      vertex -0.470378 4.475349 0.000000
    endloop
  endfacet
  facet normal 0.000000 0.000000 -1.000000
    outer loop
      vertex -3.640576 2.645034 0.000000
      vertex 0.000000 12.200000 0.000000
      vertex -2.250000 3.897114 0.000000
    endloop
  endfacet
  facet normal 0.000000 0.000000 -1.000000
    outer loop
      vertex -4.401664 0.935603 0.000000
      vertex 0.000000 12.200000 0.000000
      vertex -3.640576 2.645034 0.000000
    endloop
  endfacet
  facet normal 0.000000 0.000000 -1.000000
    outer loop
      vertex 12.615845 -0.940555 0.000000
      vertex 4.110955 -1.830315 0.000000
      vertex 12.615845 0.940555 0.000000
    endloop
  endfacet
  facet normal -0.000000 0.000000 -1.000000
    outer loop
      vertex 3.011088 -3.344152 0.000000
      vertex 15.677532 -2.708221 0.000000
      vertex 1.390576 -4.279754 0.000000
    endloop
  endfacet
  facet normal -0.000000 0.000000 -1.000000
    outer loop
      vertex 15.677532 -2.708221 0.000000
      vertex 24.467338 -1.850000 0.000000
      vertex 1.390576 -4.279754 0.000000
    endloop
  endfacet
  facet normal -0.000000 0.000000 -1.000000
    outer loop
      vertex 4.110955 -1.830315 0.000000
      vertex 12.615845 -0.940555 0.000000
      vertex 3.011088 -3.344152 0.000000
    endloop
  endfacet
  facet normal 0.000000 0.000000 -1.000000
    outer loop
      vertex 17.950000 0.000000 0.000000
      vertex 20.500000 0.000000 0.000000
      vertex 17.306622 -1.767666 0.000000
    endloop
  endfacet
  facet normal -0.000000 0.000000 -1.000000
    outer loop
      vertex 15.677532 2.708221 0.000000
      vertex 20.500000 3.700000 0.000000
      vertex 17.306622 1.767666 0.000000
    endloop
  endfacet
  facet normal 0.000000 0.000000 -1.000000
    outer loop
      vertex 13.825000 -2.381570 0.000000
      vertex 3.011088 -3.344152 0.000000
      vertex 12.615845 -0.940555 0.000000
    endloop
  endfacet
  facet normal -0.000000 0.000000 -1.000000
    outer loop
      vertex 17.306622 1.767666 0.000000
      vertex 24.467338 1.850000 0.000000
      vertex 17.950000 0.000000 0.000000
    endloop
  endfacet
  facet normal 0.000000 -0.000000 -1.000000
    outer loop
      vertex 15.677532 2.708221 0.000000
      vertex 13.825000 2.381570 0.000000
      vertex 24.500000 5.565231 0.000000
    endloop
  endfacet
  facet normal 0.000000 0.000000 -1.000000
    outer loop
      vertex -3.640576 -2.645034 0.000000
      vertex -10.565510 -6.100000 0.000000
      vertex -4.401664 -0.935603 0.000000
    endloop
  endfacet
  facet normal -0.000000 0.000000 -1.000000
    outer loop
      vertex 3.011088 3.344152 0.000000
      vertex 24.500000 12.200000 0.000000
      vertex 4.110955 1.830315 0.000000
    endloop
  endfacet
  facet normal -0.500000 0.866025 0.000000
    outer loop
      vertex -10.565510 6.100000 0.000000
      vertex -10.565510 6.100000 10.000000
      vertex -0.000000 12.200000 0.000000
    endloop
  endfacet
  facet normal -0.500000 0.866025 0.000000
    outer loop
      vertex -0.000000 12.200000 0.000000
      vertex -10.565510 6.100000 10.000000
      vertex -0.000000 12.200000 10.000000
    endloop
  endfacet
  facet normal -1.000000 -0.000000 -0.000000
    outer loop
      vertex -10.565510 6.100000 0.000000
      vertex -10.565510 -6.100000 0.000000
      vertex -10.565510 6.100000 10.000000
    endloop
  endfacet
  facet normal -1.000000 -0.000000 0.000000
    outer loop
      vertex -10.565510 6.100000 10.000000
      vertex -10.565510 -6.100000 0.000000
      vertex -10.565510 -6.100000 10.000000
    endloop
  endfacet
  facet normal -0.500000 -0.866025 0.000000
    outer loop
      vertex -10.565510 -6.100000 10.000000
      vertex -10.565510 -6.100000 0.000000
      vertex 0.000000 -12.200000 0.000000
    endloop
  endfacet
  facet normal -0.500000 -0.866025 0.000000
    outer loop
      vertex 0.000000 -12.200000 10.000000
      vertex -10.565510 -6.100000 10.000000
      vertex 0.000000 -12.200000 0.000000
    endloop
  endfacet
  facet normal 0.000000 -1.000000 0.000000
    outer loop
      vertex 0.000000 -12.200000 10.000000
      vertex 0.000000 -12.200000 0.000000
      vertex 24.500000 -12.200000 0.000000
    endloop
  endfacet
  facet normal 0.000000 -1.000000 0.000000
    outer loop
      vertex 24.500000 -12.200000 10.000000
      vertex 0.000000 -12.200000 10.000000
      vertex 24.500000 -12.200000 0.000000
    endloop
  endfacet
  facet normal 1.000000 0.000000 -0.000000
    outer loop
      vertex 24.500000 -12.200000 10.000000
      vertex 24.500000 -12.200000 0.000000
      vertex 24.500000 -5.565231 0.000000
    endloop
  endfacet
  facet normal 1.000000 0.000000 0.000000
    outer loop
      vertex 24.500000 -5.565231 10.000000
      vertex 24.500000 -12.200000 10.000000
      vertex 24.500000 -5.565231 0.000000
    endloop
  endfacet
  facet normal 0.422618 0.906308 -0.000000
    outer loop
      vertex 24.500000 -5.565231 10.000000
      vertex 24.500000 -5.565231 0.000000
      vertex 20.500000 -3.700000 10.000000
    endloop
  endfacet
  facet normal 0.422618 0.906308 -0.000000
    outer loop
      vertex 20.500000 -3.700000 10.000000
      vertex 24.500000 -5.565231 0.000000
      vertex 20.500000 -3.700000 0.000000
    endloop
  endfacet
  facet normal 0.422618 -0.906308 0.000000
    outer loop
      vertex 20.500000 -3.700000 10.000000
      vertex 20.500000 -3.700000 0.000000
      vertex 24.467338 -1.850000 0.000000
    endloop
  endfacet
  facet normal 0.422618 -0.906308 0.000000
    outer loop
      vertex 24.467338 -1.850000 10.000000
      vertex 20.500000 -3.700000 10.000000
      vertex 24.467338 -1.850000 0.000000
    endloop
  endfacet
  facet normal 0.422618 0.906308 -0.000000
    outer loop
      vertex 24.467338 -1.850000 10.000000
      vertex 24.467338 -1.850000 0.000000
      vertex 20.500000 0.000000 10.000000
    endloop
  endfacet
  facet normal 0.422618 0.906308 -0.000000
    outer loop
      vertex 20.500000 0.000000 10.000000
      vertex 24.467338 -1.850000 0.000000
      vertex 20.500000 0.000000 0.000000
    endloop
  endfacet
  facet normal 0.422618 -0.906308 0.000000
    outer loop
      vertex 20.500000 0.000000 10.000000
      vertex 20.500000 0.000000 0.000000
      vertex 24.467338 1.850000 0.000000
    endloop
  endfacet
  facet normal 0.422618 -0.906308 0.000000
    outer loop
      vertex 24.467338 1.850000 10.000000
      vertex 20.500000 0.000000 10.000000
      vertex 24.467338 1.850000 0.000000
    endloop
  endfacet
  facet normal 0.422618 0.906308 -0.000000
    outer loop
      vertex 24.467338 1.850000 10.000000
      vertex 24.467338 1.850000 0.000000
      vertex 20.500000 3.700000 10.000000
    endloop
  endfacet
  facet normal 0.422618 0.906308 -0.000000
    outer loop
      vertex 20.500000 3.700000 10.000000
      vertex 24.467338 1.850000 0.000000
      vertex 20.500000 3.700000 0.000000
    endloop
  endfacet
  facet normal 0.422618 -0.906308 0.000000
    outer loop
      vertex 20.500000 3.700000 10.000000
      vertex 20.500000 3.700000 0.000000
      vertex 24.500000 5.565231 0.000000
    endloop
  endfacet
  facet normal 0.422618 -0.906308 0.000000
    outer loop
      vertex 24.500000 5.565231 10.000000
      vertex 20.500000 3.700000 10.000000
      vertex 24.500000 5.565231 0.000000
    endloop
  endfacet
  facet normal 1.000000 0.000000 -0.000000
    outer loop
      vertex 24.500000 5.565231 10.000000
      vertex 24.500000 5.565231 0.000000
      vertex 24.500000 12.200000 0.000000
    endloop
  endfacet
  facet normal 1.000000 0.000000 0.000000
    outer loop
      vertex 24.500000 12.200000 10.000000
      vertex 24.500000 5.565231 10.000000
      vertex 24.500000 12.200000 0.000000
    endloop
  endfacet
  facet normal 0.000000 1.000000 0.000000
    outer loop
      vertex 8.890576 12.200000 18.779754
      vertex 0.000000 12.200000 24.000000
      vertex 24.500000 12.200000 24.000000
    endloop
  endfacet
  facet normal 0.000000 1.000000 0.000000
    outer loop
      vertex 22.500000 12.200000 14.500000
      vertex 24.500000 12.200000 24.000000
      vertex 24.500000 12.200000 10.000000
    endloop
  endfacet
  facet normal -0.000000 1.000000 0.000000
    outer loop
      vertex 3.859424 12.200000 11.854966
      vertex 0.000000 12.200000 10.000000
      vertex 3.098336 12.200000 13.564397
    endloop
  endfacet
  facet normal 0.000000 1.000000 -0.000000
    outer loop
      vertex 24.500000 12.200000 10.000000
      vertex 24.500000 12.200000 0.000000
      vertex 0.000000 12.200000 10.000000
    endloop
  endfacet
  facet normal 0.000000 1.000000 0.000000
    outer loop
      vertex 0.000000 12.200000 10.000000
      vertex 0.000000 12.200000 24.000000
      vertex 3.098336 12.200000 15.435603
    endloop
  endfacet
  facet normal 0.000000 1.000000 0.000000
    outer loop
      vertex 0.000000 12.200000 10.000000
      vertex 3.098336 12.200000 15.435603
      vertex 3.098336 12.200000 13.564397
    endloop
  endfacet
  facet normal 0.000000 1.000000 -0.000000
    outer loop
      vertex 10.511088 12.200000 11.155848
      vertex 24.500000 12.200000 10.000000
      vertex 8.890576 12.200000 10.220246
    endloop
  endfacet
  facet normal 0.000000 1.000000 0.000000
    outer loop
      vertex 0.000000 12.200000 10.000000
      vertex 3.859424 12.200000 11.854966
      vertex 5.250000 12.200000 10.602886
    endloop
  endfacet
  facet normal 0.000000 1.000000 0.000000
    outer loop
      vertex 0.000000 12.200000 10.000000
      vertex 5.250000 12.200000 10.602886
      vertex 7.029622 12.200000 10.024651
    endloop
  endfacet
  facet normal 0.000000 1.000000 0.000000
    outer loop
      vertex 0.000000 12.200000 10.000000
      vertex 7.029622 12.200000 10.024651
      vertex 24.500000 12.200000 10.000000
    endloop
  endfacet
  facet normal 0.000000 1.000000 0.000000
    outer loop
      vertex 7.029622 12.200000 10.024651
      vertex 8.890576 12.200000 10.220246
      vertex 24.500000 12.200000 10.000000
    endloop
  endfacet
  facet normal 0.000000 1.000000 -0.000000
    outer loop
      vertex 11.610955 12.200000 12.669685
      vertex 24.500000 12.200000 10.000000
      vertex 10.511088 12.200000 11.155848
    endloop
  endfacet
  facet normal 0.000000 1.000000 -0.000000
    outer loop
      vertex 12.000000 12.200000 14.500000
      vertex 24.500000 12.200000 24.000000
      vertex 11.610955 12.200000 12.669685
    endloop
  endfacet
  facet normal 0.000000 1.000000 0.000000
    outer loop
      vertex 10.511088 12.200000 17.844152
      vertex 24.500000 12.200000 24.000000
      vertex 11.610955 12.200000 16.330315
    endloop
  endfacet
  facet normal 0.000000 1.000000 0.000000
    outer loop
      vertex 11.610955 12.200000 16.330315
      vertex 24.500000 12.200000 24.000000
      vertex 12.000000 12.200000 14.500000
    endloop
  endfacet
  facet normal 0.000000 1.000000 0.000000
    outer loop
      vertex 8.890576 12.200000 18.779754
      vertex 24.500000 12.200000 24.000000
      vertex 10.511088 12.200000 17.844152
    endloop
  endfacet
  facet normal 0.000000 1.000000 0.000000
    outer loop
      vertex 7.029622 12.200000 18.975349
      vertex 0.000000 12.200000 24.000000
      vertex 8.890576 12.200000 18.779754
    endloop
  endfacet
  facet normal 0.000000 1.000000 -0.000000
    outer loop
      vertex 21.856622 12.200000 12.732334
      vertex 24.500000 12.200000 10.000000
      vertex 20.227532 12.200000 11.791779
    endloop
  endfacet
  facet normal 0.000000 1.000000 0.000000
    outer loop
      vertex 5.250000 12.200000 18.397114
      vertex 0.000000 12.200000 24.000000
      vertex 7.029622 12.200000 18.975349
    endloop
  endfacet
  facet normal 0.000000 1.000000 0.000000
    outer loop
      vertex 3.859424 12.200000 17.145034
      vertex 0.000000 12.200000 24.000000
      vertex 5.250000 12.200000 18.397114
    endloop
  endfacet
  facet normal 0.000000 1.000000 0.000000
    outer loop
      vertex 3.098336 12.200000 15.435603
      vertex 0.000000 12.200000 24.000000
      vertex 3.859424 12.200000 17.145034
    endloop
  endfacet
  facet normal 0.000000 1.000000 0.000000
    outer loop
      vertex 11.610955 12.200000 12.669685
      vertex 17.165845 12.200000 15.440555
      vertex 17.165845 12.200000 13.559445
    endloop
  endfacet
  facet normal 0.000000 1.000000 0.000000
    outer loop
      vertex 11.610955 12.200000 12.669685
      vertex 17.165845 12.200000 13.559445
      vertex 18.375000 12.200000 12.118430
    endloop
  endfacet
  facet normal 0.000000 1.000000 0.000000
    outer loop
      vertex 11.610955 12.200000 12.669685
      vertex 18.375000 12.200000 12.118430
      vertex 24.500000 12.200000 10.000000
    endloop
  endfacet
  facet normal 0.000000 1.000000 0.000000
    outer loop
      vertex 18.375000 12.200000 12.118430
      vertex 20.227532 12.200000 11.791779
      vertex 24.500000 12.200000 10.000000
    endloop
  endfacet
  facet normal 0.000000 1.000000 0.000000
    outer loop
      vertex 18.375000 12.200000 16.881570
      vertex 24.500000 12.200000 24.000000
      vertex 20.227532 12.200000 17.208221
    endloop
  endfacet
  facet normal 0.000000 1.000000 0.000000
    outer loop
      vertex 21.856622 12.200000 16.267666
      vertex 24.500000 12.200000 24.000000
      vertex 22.500000 12.200000 14.500000
    endloop
  endfacet
  facet normal 0.000000 1.000000 0.000000
    outer loop
      vertex 21.856622 12.200000 12.732334
      vertex 22.500000 12.200000 14.500000
      vertex 24.500000 12.200000 10.000000
    endloop
  endfacet
  facet normal 0.000000 1.000000 0.000000
    outer loop
      vertex 20.227532 12.200000 17.208221
      vertex 24.500000 12.200000 24.000000
      vertex 21.856622 12.200000 16.267666
    endloop
  endfacet
  facet normal 0.000000 1.000000 0.000000
    outer loop
      vertex 11.610955 12.200000 12.669685
      vertex 24.500000 12.200000 24.000000
      vertex 18.375000 12.200000 16.881570
    endloop
  endfacet
  facet normal 0.000000 1.000000 0.000000
    outer loop
      vertex 11.610955 12.200000 12.669685
      vertex 18.375000 12.200000 16.881570
      vertex 17.165845 12.200000 15.440555
    endloop
  endfacet
  facet normal 0.000000 1.000000 -0.000000
    outer loop
      vertex 0.000000 12.200000 10.000000
      vertex 24.500000 12.200000 0.000000
      vertex 0.000000 12.200000 0.000000
    endloop
  endfacet
  facet normal 0.500000 0.866025 0.000000
    outer loop
      vertex -0.000000 12.200000 0.000000
      vertex -0.000000 12.200000 10.000000
      vertex 0.000000 12.200000 0.000000
    endloop
  endfacet
  facet normal 0.500000 0.866025 0.000000
    outer loop
      vertex 0.000000 12.200000 0.000000
      vertex -0.000000 12.200000 10.000000
      vertex 0.000000 12.200000 10.000000
    endloop
  endfacet
  facet normal 1.000000 0.000000 0.000000
    outer loop
      vertex -4.401664 0.935603 0.000000
      vertex -4.401664 0.935603 5.000000
      vertex -4.401664 -0.935603 5.000000
    endloop
  endfacet
  facet normal 1.000000 0.000000 0.000000
    outer loop
      vertex -4.401664 -0.935603 0.000000
      vertex -4.401664 0.935603 0.000000
      vertex -4.401664 -0.935603 5.000000
    endloop
  endfacet
  facet normal 0.913545 -0.406737 0.000000
    outer loop
      vertex -3.640576 2.645034 0.000000
      vertex -3.640576 2.645034 5.000000
      vertex -4.401664 0.935603 5.000000
    endloop
  endfacet
  facet normal 0.913545 -0.406737 0.000000
    outer loop
      vertex -4.401664 0.935603 0.000000
      vertex -3.640576 2.645034 0.000000
      vertex -4.401664 0.935603 5.000000
    endloop
  endfacet
  facet normal 0.669131 -0.743145 0.000000
    outer loop
      vertex -2.250000 3.897114 0.000000
      vertex -2.250000 3.897114 5.000000
      vertex -3.640576 2.645034 5.000000
    endloop
  endfacet
  facet normal 0.669131 -0.743145 0.000000
    outer loop
      vertex -3.640576 2.645034 0.000000
      vertex -2.250000 3.897114 0.000000
      vertex -3.640576 2.645034 5.000000
    endloop
  endfacet
  facet normal 0.309017 -0.951056 0.000000
    outer loop
      vertex -0.470378 4.475349 0.000000
      vertex -0.470378 4.475349 5.000000
      vertex -2.250000 3.897114 5.000000
    endloop
  endfacet
  facet normal 0.309017 -0.951056 0.000000
    outer loop
      vertex -2.250000 3.897114 0.000000
      vertex -0.470378 4.475349 0.000000
      vertex -2.250000 3.897114 5.000000
    endloop
  endfacet
  facet normal -0.104529 -0.994522 -0.000000
    outer loop
      vertex 1.390576 4.279754 0.000000
      vertex 1.390576 4.279754 5.000000
      vertex -0.470378 4.475349 5.000000
    endloop
  endfacet
  facet normal -0.104529 -0.994522 -0.000000
    outer loop
      vertex -0.470378 4.475349 0.000000
      vertex 1.390576 4.279754 0.000000
      vertex -0.470378 4.475349 5.000000
    endloop
  endfacet
  facet normal -0.500000 -0.866026 -0.000000
    outer loop
      vertex 3.011088 3.344152 0.000000
      vertex 3.011088 3.344152 5.000000
      vertex 1.390576 4.279754 5.000000
    endloop
  endfacet
  facet normal -0.500000 -0.866026 -0.000000
    outer loop
      vertex 1.390576 4.279754 0.000000
      vertex 3.011088 3.344152 0.000000
      vertex 1.390576 4.279754 5.000000
    endloop
  endfacet
  facet normal -0.809017 -0.587785 0.000000
    outer loop
      vertex 4.110955 1.830315 5.000000
      vertex 3.011088 3.344152 5.000000
      vertex 4.110955 1.830315 0.000000
    endloop
  endfacet
  facet normal -0.809017 -0.587785 0.000000
    outer loop
      vertex 4.110955 1.830315 0.000000
      vertex 3.011088 3.344152 5.000000
      vertex 3.011088 3.344152 0.000000
    endloop
  endfacet
  facet normal -0.978148 -0.207911 0.000000
    outer loop
      vertex 4.500000 0.000000 5.000000
      vertex 4.110955 1.830315 5.000000
      vertex 4.500000 0.000000 0.000000
    endloop
  endfacet
  facet normal -0.978148 -0.207911 0.000000
    outer loop
      vertex 4.500000 0.000000 0.000000
      vertex 4.110955 1.830315 5.000000
      vertex 4.110955 1.830315 0.000000
    endloop
  endfacet
  facet normal -0.978148 0.207911 0.000000
    outer loop
      vertex 4.500000 0.000000 5.000000
      vertex 4.500000 0.000000 0.000000
      vertex 4.110955 -1.830315 5.000000
    endloop
  endfacet
  facet normal -0.978148 0.207911 0.000000
    outer loop
      vertex 4.110955 -1.830315 5.000000
      vertex 4.500000 0.000000 0.000000
      vertex 4.110955 -1.830315 0.000000
    endloop
  endfacet
  facet normal -0.809017 0.587785 0.000000
    outer loop
      vertex 4.110955 -1.830315 5.000000
      vertex 4.110955 -1.830315 0.000000
      vertex 3.011088 -3.344152 5.000000
    endloop
  endfacet
  facet normal -0.809017 0.587785 0.000000
    outer loop
      vertex 3.011088 -3.344152 5.000000
      vertex 4.110955 -1.830315 0.000000
      vertex 3.011088 -3.344152 0.000000
    endloop
  endfacet
  facet normal -0.500000 0.866026 0.000000
    outer loop
      vertex 3.011088 -3.344152 5.000000
      vertex 3.011088 -3.344152 0.000000
      vertex 1.390576 -4.279754 5.000000
    endloop
  endfacet
  facet normal -0.500000 0.866026 0.000000
    outer loop
      vertex 1.390576 -4.279754 5.000000
      vertex 3.011088 -3.344152 0.000000
      vertex 1.390576 -4.279754 0.000000
    endloop
  endfacet
  facet normal -0.104529 0.994522 0.000000
    outer loop
      vertex 1.390576 -4.279754 5.000000
      vertex 1.390576 -4.279754 0.000000
      vertex -0.470378 -4.475349 5.000000
    endloop
  endfacet
  facet normal -0.104529 0.994522 0.000000
    outer loop
      vertex -0.470378 -4.475349 5.000000
      vertex 1.390576 -4.279754 0.000000
      vertex -0.470378 -4.475349 0.000000
    endloop
  endfacet
  facet normal 0.309017 0.951056 -0.000000
    outer loop
      vertex -0.470378 -4.475349 5.000000
      vertex -0.470378 -4.475349 0.000000
      vertex -2.250000 -3.897114 5.000000
    endloop
  endfacet
  facet normal 0.309017 0.951056 -0.000000
    outer loop
      vertex -2.250000 -3.897114 5.000000
      vertex -0.470378 -4.475349 0.000000
      vertex -2.250000 -3.897114 0.000000
    endloop
  endfacet
  facet normal 0.669131 0.743145 -0.000000
    outer loop
      vertex -2.250000 -3.897114 5.000000
      vertex -2.250000 -3.897114 0.000000
      vertex -3.640576 -2.645034 5.000000
    endloop
  endfacet
  facet normal 0.669131 0.743145 -0.000000
    outer loop
      vertex -3.640576 -2.645034 5.000000
      vertex -2.250000 -3.897114 0.000000
      vertex -3.640576 -2.645034 0.000000
    endloop
  endfacet
  facet normal 0.913545 0.406737 0.000000
    outer loop
      vertex -4.401664 -0.935603 5.000000
      vertex -3.640576 -2.645034 5.000000
      vertex -3.640576 -2.645034 0.000000
    endloop
  endfacet
  facet normal 0.913545 0.406737 0.000000
    outer loop
      vertex -4.401664 -0.935603 0.000000
      vertex -4.401664 -0.935603 5.000000
      vertex -3.640576 -2.645034 0.000000
    endloop
  endfacet
  facet normal 0.766044 -0.642788 0.000000
    outer loop
      vertex 13.825000 2.381570 0.000000
      vertex 13.825000 2.381570 5.000000
      vertex 12.615845 0.940555 5.000000
    endloop
  endfacet
  facet normal 0.766044 -0.642788 0.000000
    outer loop
      vertex 12.615845 0.940555 0.000000
      vertex 13.825000 2.381570 0.000000
      vertex 12.615845 0.940555 5.000000
    endloop
  endfacet
  facet normal 1.000000 0.000000 0.000000
    outer loop
      vertex 12.615845 0.940555 0.000000
      vertex 12.615845 0.940555 5.000000
      vertex 12.615845 -0.940555 5.000000
    endloop
  endfacet
  facet normal 1.000000 0.000000 0.000000
    outer loop
      vertex 12.615845 -0.940555 0.000000
      vertex 12.615845 0.940555 0.000000
      vertex 12.615845 -0.940555 5.000000
    endloop
  endfacet
  facet normal 0.173648 -0.984808 0.000000
    outer loop
      vertex 15.677532 2.708221 0.000000
      vertex 15.677532 2.708221 5.000000
      vertex 13.825000 2.381570 5.000000
    endloop
  endfacet
  facet normal 0.173648 -0.984808 0.000000
    outer loop
      vertex 13.825000 2.381570 0.000000
      vertex 15.677532 2.708221 0.000000
      vertex 13.825000 2.381570 5.000000
    endloop
  endfacet
  facet normal -0.500000 -0.866026 -0.000000
    outer loop
      vertex 17.306622 1.767666 0.000000
      vertex 17.306622 1.767666 5.000000
      vertex 15.677532 2.708221 5.000000
    endloop
  endfacet
  facet normal -0.500000 -0.866026 -0.000000
    outer loop
      vertex 15.677532 2.708221 0.000000
      vertex 17.306622 1.767666 0.000000
      vertex 15.677532 2.708221 5.000000
    endloop
  endfacet
  facet normal -0.939693 -0.342020 0.000000
    outer loop
      vertex 17.950000 0.000000 5.000000
      vertex 17.306622 1.767666 5.000000
      vertex 17.950000 0.000000 0.000000
    endloop
  endfacet
  facet normal -0.939693 -0.342020 0.000000
    outer loop
      vertex 17.950000 0.000000 0.000000
      vertex 17.306622 1.767666 5.000000
      vertex 17.306622 1.767666 0.000000
    endloop
  endfacet
  facet normal -0.939693 0.342020 0.000000
    outer loop
      vertex 17.950000 0.000000 5.000000
      vertex 17.950000 0.000000 0.000000
      vertex 17.306622 -1.767666 5.000000
    endloop
  endfacet
  facet normal -0.939693 0.342020 0.000000
    outer loop
      vertex 17.306622 -1.767666 5.000000
      vertex 17.950000 0.000000 0.000000
      vertex 17.306622 -1.767666 0.000000
    endloop
  endfacet
  facet normal -0.500000 0.866026 0.000000
    outer loop
      vertex 17.306622 -1.767666 5.000000
      vertex 17.306622 -1.767666 0.000000
      vertex 15.677532 -2.708221 5.000000
    endloop
  endfacet
  facet normal -0.500000 0.866026 0.000000
    outer loop
      vertex 15.677532 -2.708221 5.000000
      vertex 17.306622 -1.767666 0.000000
      vertex 15.677532 -2.708221 0.000000
    endloop
  endfacet
  facet normal 0.173648 0.984808 -0.000000
    outer loop
      vertex 15.677532 -2.708221 5.000000
      vertex 15.677532 -2.708221 0.000000
      vertex 13.825000 -2.381570 5.000000
    endloop
  endfacet
  facet normal 0.173648 0.984808 -0.000000
    outer loop
      vertex 13.825000 -2.381570 5.000000
      vertex 15.677532 -2.708221 0.000000
      vertex 13.825000 -2.381570 0.000000
    endloop
  endfacet
  facet normal 0.766044 0.642788 0.000000
    outer loop
      vertex 12.615845 -0.940555 5.000000
      vertex 13.825000 -2.381570 5.000000
      vertex 13.825000 -2.381570 0.000000
    endloop
  endfacet
  facet normal 0.766044 0.642788 0.000000
    outer loop
      vertex 12.615845 -0.940555 0.000000
      vertex 12.615845 -0.940555 5.000000
      vertex 13.825000 -2.381570 0.000000
    endloop
  endfacet
  facet normal -0.000000 0.000000 1.000000
    outer loop
      vertex -7.101408 4.100000 10.000000
      vertex -10.565510 6.100000 10.000000
      vertex -10.565510 -6.100000 10.000000
    endloop
  endfacet
  facet normal 0.000000 -0.000000 1.000000
    outer loop
      vertex 19.530127 -2.500000 10.000000
      vertex 15.200000 -5.000000 10.000000
      vertex 24.500000 -12.200000 10.000000
    endloop
  endfacet
  facet normal -0.000000 0.000000 1.000000
    outer loop
      vertex 24.500000 -5.565231 10.000000
      vertex 20.500000 -3.700000 10.000000
      vertex 24.500000 -12.200000 10.000000
    endloop
  endfacet
  facet normal 0.000000 -0.000000 0.000000
    outer loop
      vertex 24.500000 12.200000 10.000000
      vertex 24.500000 8.200000 10.000000
      vertex 24.500000 5.565231 10.000000
    endloop
  endfacet
  facet normal -0.000000 0.000000 0.000000
    outer loop
      vertex 0.000000 12.200000 10.000000
      vertex -0.000000 12.200000 10.000000
      vertex 0.000000 8.200000 10.000000
    endloop
  endfacet
  facet normal 0.000000 -0.000000 1.000000
    outer loop
      vertex 24.500000 8.200000 10.000000
      vertex 20.500000 3.700000 10.000000
      vertex 24.500000 5.565231 10.000000
    endloop
  endfacet
  facet normal 0.000000 0.000000 1.000000
    outer loop
      vertex 0.000000 -12.200000 10.000000
      vertex -7.101408 -4.100000 10.000000
      vertex -10.565510 -6.100000 10.000000
    endloop
  endfacet
  facet normal 0.000000 0.000000 1.000000
    outer loop
      vertex -0.000000 12.200000 10.000000
      vertex -10.565510 6.100000 10.000000
      vertex -7.101408 4.100000 10.000000
    endloop
  endfacet
  facet normal 0.000000 0.000000 1.000000
    outer loop
      vertex 10.869873 -2.500000 10.000000
      vertex 10.869873 2.500000 10.000000
      vertex 7.101408 4.100000 10.000000
    endloop
  endfacet
  facet normal 0.000000 -0.000000 1.000000
    outer loop
      vertex 19.530127 2.500000 10.000000
      vertex 19.530127 -2.500000 10.000000
      vertex 20.500000 0.000000 10.000000
    endloop
  endfacet
  facet normal -0.000000 0.000000 1.000000
    outer loop
      vertex -7.101408 -4.100000 10.000000
      vertex -7.101408 4.100000 10.000000
      vertex -10.565510 -6.100000 10.000000
    endloop
  endfacet
  facet normal -0.000000 0.000000 1.000000
    outer loop
      vertex 24.500000 -12.200000 10.000000
      vertex 7.101408 -4.100000 10.000000
      vertex 0.000000 -12.200000 10.000000
    endloop
  endfacet
  facet normal 0.000000 0.000000 1.000000
    outer loop
      vertex 0.000000 -12.200000 10.000000
      vertex -0.000000 -8.200000 10.000000
      vertex -7.101408 -4.100000 10.000000
    endloop
  endfacet
  facet normal 0.000000 -0.000000 1.000000
    outer loop
      vertex 7.101408 4.100000 10.000000
      vertex 7.101408 -4.100000 10.000000
      vertex 10.869873 -2.500000 10.000000
    endloop
  endfacet
  facet normal 0.000000 0.000000 1.000000
    outer loop
      vertex 24.500000 -12.200000 10.000000
      vertex 10.869873 -2.500000 10.000000
      vertex 7.101408 -4.100000 10.000000
    endloop
  endfacet
  facet normal 0.000000 0.000000 1.000000
    outer loop
      vertex -7.101408 4.100000 10.000000
      vertex 0.000000 8.200000 10.000000
      vertex -0.000000 12.200000 10.000000
    endloop
  endfacet
  facet normal 0.000000 0.000000 1.000000
    outer loop
      vertex 24.467338 1.850000 10.000000
      vertex 15.200000 5.000000 10.000000
      vertex 19.530127 2.500000 10.000000
    endloop
  endfacet
  facet normal 0.000000 0.000000 1.000000
    outer loop
      vertex 19.530127 -2.500000 10.000000
      vertex 24.500000 -12.200000 10.000000
      vertex 20.500000 -3.700000 10.000000
    endloop
  endfacet
  facet normal 0.000000 0.000000 1.000000
    outer loop
      vertex 24.500000 -12.200000 10.000000
      vertex 15.200000 -5.000000 10.000000
      vertex 10.869873 -2.500000 10.000000
    endloop
  endfacet
  facet normal 0.000000 0.000000 1.000000
    outer loop
      vertex 7.101408 -4.100000 10.000000
      vertex -0.000000 -8.200000 10.000000
      vertex 0.000000 -12.200000 10.000000
    endloop
  endfacet
  facet normal 0.000000 0.000000 1.000000
    outer loop
      vertex 20.500000 -3.700000 10.000000
      vertex 20.500000 0.000000 10.000000
      vertex 19.530127 -2.500000 10.000000
    endloop
  endfacet
  facet normal 0.000000 0.000000 1.000000
    outer loop
      vertex 20.500000 -3.700000 10.000000
      vertex 24.467338 -1.850000 10.000000
      vertex 20.500000 0.000000 10.000000
    endloop
  endfacet
  facet normal 0.000000 0.000000 1.000000
    outer loop
      vertex 20.500000 0.000000 10.000000
      vertex 24.467338 1.850000 10.000000
      vertex 19.530127 2.500000 10.000000
    endloop
  endfacet
  facet normal -0.000000 -0.000000 1.000000
    outer loop
      vertex 20.500000 3.700000 10.000000
      vertex 15.200000 5.000000 10.000000
      vertex 24.467338 1.850000 10.000000
    endloop
  endfacet
  facet normal 0.000000 0.000000 1.000000
    outer loop
      vertex 24.500000 8.200000 10.000000
      vertex 15.200000 5.000000 10.000000
      vertex 20.500000 3.700000 10.000000
    endloop
  endfacet
  facet normal 0.000000 0.000000 1.000000
    outer loop
      vertex 15.200000 5.000000 10.000000
      vertex 7.101408 4.100000 10.000000
      vertex 10.869873 2.500000 10.000000
    endloop
  endfacet
  facet normal 0.000000 0.000000 1.000000
    outer loop
      vertex 24.500000 8.200000 10.000000
      vertex 7.101408 4.100000 10.000000
      vertex 15.200000 5.000000 10.000000
    endloop
  endfacet
  facet normal 0.000000 0.000000 1.000000
    outer loop
      vertex 24.500000 8.200000 10.000000
      vertex 0.000000 8.200000 10.000000
      vertex 7.101408 4.100000 10.000000
    endloop
  endfacet
  facet normal 1.000000 0.000000 -0.000000
    outer loop
      vertex 24.500000 8.200000 24.000000
      vertex 24.500000 8.200000 10.000000
      vertex 24.500000 12.200000 10.000000
    endloop
  endfacet
  facet normal 1.000000 0.000000 0.000000
    outer loop
      vertex 24.500000 12.200000 24.000000
      vertex 24.500000 8.200000 24.000000
      vertex 24.500000 12.200000 10.000000
    endloop
  endfacet
  facet normal 0.000000 -0.000000 1.000000
    outer loop
      vertex 0.000000 12.200000 24.000000
      vertex 0.000000 8.200000 24.000000
      vertex 24.500000 8.200000 24.000000
    endloop
  endfacet
  facet normal 0.000000 0.000000 1.000000
    outer loop
      vertex 24.500000 12.200000 24.000000
      vertex 0.000000 12.200000 24.000000
      vertex 24.500000 8.200000 24.000000
    endloop
  endfacet
  facet normal -1.000000 -0.000000 -0.000000
    outer loop
      vertex 0.000000 8.200000 10.000000
      vertex 0.000000 8.200000 24.000000
      vertex 0.000000 12.200000 10.000000
    endloop
  endfacet
  facet normal -1.000000 0.000000 0.000000
    outer loop
      vertex 0.000000 12.200000 10.000000
      vertex 0.000000 8.200000 24.000000
      vertex 0.000000 12.200000 24.000000
    endloop
  endfacet
  facet normal 0.913545 0.000000 -0.406737
    outer loop
      vertex 3.098336 12.200000 15.435603
      vertex 3.859424 12.200000 17.145034
      vertex 3.859424 8.200000 17.145034
    endloop
  endfacet
  facet normal 0.913545 0.000000 -0.406737
    outer loop
      vertex 3.098336 8.200000 15.435603
      vertex 3.098336 12.200000 15.435603
      vertex 3.859424 8.200000 17.145034
    endloop
  endfacet
  facet normal 1.000000 0.000000 0.000000
    outer loop
      vertex 3.098336 12.200000 13.564397
      vertex 3.098336 12.200000 15.435603
      vertex 3.098336 8.200000 15.435603
    endloop
  endfacet
  facet normal 1.000000 0.000000 0.000000
    outer loop
      vertex 3.098336 8.200000 13.564397
      vertex 3.098336 12.200000 13.564397
      vertex 3.098336 8.200000 15.435603
    endloop
  endfacet
  facet normal 0.669131 0.000000 -0.743145
    outer loop
      vertex 5.250000 12.200000 18.397114
      vertex 5.250000 8.200000 18.397114
      vertex 3.859424 12.200000 17.145034
    endloop
  endfacet
  facet normal 0.669131 0.000000 -0.743145
    outer loop
      vertex 3.859424 12.200000 17.145034
      vertex 5.250000 8.200000 18.397114
      vertex 3.859424 8.200000 17.145034
    endloop
  endfacet
  facet normal 0.309017 0.000000 -0.951056
    outer loop
      vertex 7.029622 12.200000 18.975349
      vertex 7.029622 8.200000 18.975349
      vertex 5.250000 12.200000 18.397114
    endloop
  endfacet
  facet normal 0.309017 0.000000 -0.951056
    outer loop
      vertex 5.250000 12.200000 18.397114
      vertex 7.029622 8.200000 18.975349
      vertex 5.250000 8.200000 18.397114
    endloop
  endfacet
  facet normal -0.104529 0.000000 -0.994522
    outer loop
      vertex 8.890576 12.200000 18.779754
      vertex 8.890576 8.200000 18.779754
      vertex 7.029622 12.200000 18.975349
    endloop
  endfacet
  facet normal -0.104529 0.000000 -0.994522
    outer loop
      vertex 7.029622 12.200000 18.975349
      vertex 8.890576 8.200000 18.779754
      vertex 7.029622 8.200000 18.975349
    endloop
  endfacet
  facet normal -0.500000 0.000000 -0.866026
    outer loop
      vertex 10.511088 12.200000 17.844152
      vertex 10.511088 8.200000 17.844152
      vertex 8.890576 12.200000 18.779754
    endloop
  endfacet
  facet normal -0.500000 0.000000 -0.866026
    outer loop
      vertex 8.890576 12.200000 18.779754
      vertex 10.511088 8.200000 17.844152
      vertex 8.890576 8.200000 18.779754
    endloop
  endfacet
  facet normal -0.809017 0.000000 -0.587785
    outer loop
      vertex 11.610955 12.200000 16.330315
      vertex 11.610955 8.200000 16.330315
      vertex 10.511088 12.200000 17.844152
    endloop
  endfacet
  facet normal -0.809017 0.000000 -0.587785
    outer loop
      vertex 10.511088 12.200000 17.844152
      vertex 11.610955 8.200000 16.330315
      vertex 10.511088 8.200000 17.844152
    endloop
  endfacet
  facet normal -0.978148 0.000000 -0.207911
    outer loop
      vertex 12.000000 12.200000 14.500000
      vertex 12.000000 8.200000 14.500000
      vertex 11.610955 12.200000 16.330315
    endloop
  endfacet
  facet normal -0.978148 0.000000 -0.207911
    outer loop
      vertex 11.610955 12.200000 16.330315
      vertex 12.000000 8.200000 14.500000
      vertex 11.610955 8.200000 16.330315
    endloop
  endfacet
  facet normal -0.978148 0.000000 0.207911
    outer loop
      vertex 12.000000 12.200000 14.500000
      vertex 11.610955 12.200000 12.669685
      vertex 12.000000 8.200000 14.500000
    endloop
  endfacet
  facet normal -0.978148 0.000000 0.207911
    outer loop
      vertex 12.000000 8.200000 14.500000
      vertex 11.610955 12.200000 12.669685
      vertex 11.610955 8.200000 12.669685
    endloop
  endfacet
  facet normal -0.809017 0.000000 0.587785
    outer loop
      vertex 11.610955 12.200000 12.669685
      vertex 10.511088 12.200000 11.155848
      vertex 11.610955 8.200000 12.669685
    endloop
  endfacet
  facet normal -0.809017 0.000000 0.587785
    outer loop
      vertex 11.610955 8.200000 12.669685
      vertex 10.511088 12.200000 11.155848
      vertex 10.511088 8.200000 11.155848
    endloop
  endfacet
  facet normal -0.500000 0.000000 0.866026
    outer loop
      vertex 10.511088 8.200000 11.155848
      vertex 10.511088 12.200000 11.155848
      vertex 8.890576 12.200000 10.220246
    endloop
  endfacet
  facet normal -0.500000 0.000000 0.866026
    outer loop
      vertex 8.890576 8.200000 10.220246
      vertex 10.511088 8.200000 11.155848
      vertex 8.890576 12.200000 10.220246
    endloop
  endfacet
  facet normal -0.104529 0.000000 0.994522
    outer loop
      vertex 8.890576 8.200000 10.220246
      vertex 8.890576 12.200000 10.220246
      vertex 7.029622 12.200000 10.024651
    endloop
  endfacet
  facet normal -0.104529 0.000000 0.994522
    outer loop
      vertex 7.029622 8.200000 10.024651
      vertex 8.890576 8.200000 10.220246
      vertex 7.029622 12.200000 10.024651
    endloop
  endfacet
  facet normal 0.309017 0.000000 0.951056
    outer loop
      vertex 7.029622 8.200000 10.024651
      vertex 7.029622 12.200000 10.024651
      vertex 5.250000 12.200000 10.602886
    endloop
  endfacet
  facet normal 0.309017 0.000000 0.951056
    outer loop
      vertex 5.250000 8.200000 10.602886
      vertex 7.029622 8.200000 10.024651
      vertex 5.250000 12.200000 10.602886
    endloop
  endfacet
  facet normal 0.669131 0.000000 0.743145
    outer loop
      vertex 5.250000 8.200000 10.602886
      vertex 5.250000 12.200000 10.602886
      vertex 3.859424 12.200000 11.854966
    endloop
  endfacet
  facet normal 0.669131 0.000000 0.743145
    outer loop
      vertex 3.859424 8.200000 11.854966
      vertex 5.250000 8.200000 10.602886
      vertex 3.859424 12.200000 11.854966
    endloop
  endfacet
  facet normal 0.913545 0.000000 0.406737
    outer loop
      vertex 3.859424 8.200000 11.854966
      vertex 3.859424 12.200000 11.854966
      vertex 3.098336 12.200000 13.564397
    endloop
  endfacet
  facet normal 0.913545 0.000000 0.406737
    outer loop
      vertex 3.098336 8.200000 13.564397
      vertex 3.859424 8.200000 11.854966
      vertex 3.098336 12.200000 13.564397
    endloop
  endfacet
  facet normal 0.766044 0.000000 -0.642788
    outer loop
      vertex 17.165845 12.200000 15.440555
      vertex 18.375000 12.200000 16.881570
      vertex 18.375000 8.200000 16.881570
    endloop
  endfacet
  facet normal 0.766044 0.000000 -0.642788
    outer loop
      vertex 17.165845 8.200000 15.440555
      vertex 17.165845 12.200000 15.440555
      vertex 18.375000 8.200000 16.881570
    endloop
  endfacet
  facet normal 1.000000 0.000000 0.000000
    outer loop
      vertex 17.165845 12.200000 13.559445
      vertex 17.165845 12.200000 15.440555
      vertex 17.165845 8.200000 15.440555
    endloop
  endfacet
  facet normal 1.000000 0.000000 0.000000
    outer loop
      vertex 17.165845 8.200000 13.559445
      vertex 17.165845 12.200000 13.559445
      vertex 17.165845 8.200000 15.440555
    endloop
  endfacet
  facet normal 0.173648 0.000000 -0.984808
    outer loop
      vertex 20.227532 12.200000 17.208221
      vertex 20.227532 8.200000 17.208221
      vertex 18.375000 12.200000 16.881570
    endloop
  endfacet
  facet normal 0.173648 0.000000 -0.984808
    outer loop
      vertex 18.375000 12.200000 16.881570
      vertex 20.227532 8.200000 17.208221
      vertex 18.375000 8.200000 16.881570
    endloop
  endfacet
  facet normal -0.500000 0.000000 -0.866026
    outer loop
      vertex 21.856622 12.200000 16.267666
      vertex 21.856622 8.200000 16.267666
      vertex 20.227532 12.200000 17.208221
    endloop
  endfacet
  facet normal -0.500000 0.000000 -0.866026
    outer loop
      vertex 20.227532 12.200000 17.208221
      vertex 21.856622 8.200000 16.267666
      vertex 20.227532 8.200000 17.208221
    endloop
  endfacet
  facet normal -0.939693 0.000000 -0.342020
    outer loop
      vertex 22.500000 12.200000 14.500000
      vertex 22.500000 8.200000 14.500000
      vertex 21.856622 12.200000 16.267666
    endloop
  endfacet
  facet normal -0.939693 0.000000 -0.342020
    outer loop
      vertex 21.856622 12.200000 16.267666
      vertex 22.500000 8.200000 14.500000
      vertex 21.856622 8.200000 16.267666
    endloop
  endfacet
  facet normal -0.939693 0.000000 0.342020
    outer loop
      vertex 22.500000 12.200000 14.500000
      vertex 21.856622 12.200000 12.732334
      vertex 22.500000 8.200000 14.500000
    endloop
  endfacet
  facet normal -0.939693 0.000000 0.342020
    outer loop
      vertex 22.500000 8.200000 14.500000
      vertex 21.856622 12.200000 12.732334
      vertex 21.856622 8.200000 12.732334
    endloop
  endfacet
  facet normal -0.500000 0.000000 0.866026
    outer loop
      vertex 21.856622 8.200000 12.732334
      vertex 21.856622 12.200000 12.732334
      vertex 20.227532 12.200000 11.791779
    endloop
  endfacet
  facet normal -0.500000 0.000000 0.866026
    outer loop
      vertex 20.227532 8.200000 11.791779
      vertex 21.856622 8.200000 12.732334
      vertex 20.227532 12.200000 11.791779
    endloop
  endfacet
  facet normal 0.173648 0.000000 0.984808
    outer loop
      vertex 20.227532 8.200000 11.791779
      vertex 20.227532 12.200000 11.791779
      vertex 18.375000 12.200000 12.118430
    endloop
  endfacet
  facet normal 0.173648 0.000000 0.984808
    outer loop
      vertex 18.375000 8.200000 12.118430
      vertex 20.227532 8.200000 11.791779
      vertex 18.375000 12.200000 12.118430
    endloop
  endfacet
  facet normal 0.766044 0.000000 0.642788
    outer loop
      vertex 18.375000 8.200000 12.118430
      vertex 18.375000 12.200000 12.118430
      vertex 17.165845 12.200000 13.559445
    endloop
  endfacet
  facet normal 0.766044 0.000000 0.642788
    outer loop
      vertex 17.165845 8.200000 13.559445
      vertex 18.375000 8.200000 12.118430
      vertex 17.165845 12.200000 13.559445
    endloop
  endfacet
  facet normal 0.000000 0.000000 1.000000
    outer loop
      vertex 4.110955 -1.830315 5.000000
      vertex 7.101408 -4.100000 5.000000
      vertex 7.101408 4.100000 5.000000
    endloop
  endfacet
  facet normal 0.000000 0.000000 1.000000
    outer loop
      vertex 3.011088 -3.344152 5.000000
      vertex 1.390576 -4.279754 5.000000
      vertex -0.000000 -8.200000 5.000000
    endloop
  endfacet
  facet normal 0.000000 -0.000000 1.000000
    outer loop
      vertex 4.500000 0.000000 5.000000
      vertex 4.110955 -1.830315 5.000000
      vertex 7.101408 4.100000 5.000000
    endloop
  endfacet
  facet normal 0.000000 0.000000 1.000000
    outer loop
      vertex -0.470378 4.475349 5.000000
      vertex 1.390576 4.279754 5.000000
      vertex 0.000000 8.200000 5.000000
    endloop
  endfacet
  facet normal 0.000000 0.000000 1.000000
    outer loop
      vertex -7.101408 4.100000 5.000000
      vertex -3.640576 2.645034 5.000000
      vertex 0.000000 8.200000 5.000000
    endloop
  endfacet
  facet normal 0.000000 0.000000 1.000000
    outer loop
      vertex -7.101408 4.100000 5.000000
      vertex -4.401664 0.935603 5.000000
      vertex -3.640576 2.645034 5.000000
    endloop
  endfacet
  facet normal -0.000000 -0.000000 1.000000
    outer loop
      vertex -2.250000 -3.897114 5.000000
      vertex -3.640576 -2.645034 5.000000
      vertex -0.000000 -8.200000 5.000000
    endloop
  endfacet
  facet normal 0.000000 0.000000 1.000000
    outer loop
      vertex -2.250000 3.897114 5.000000
      vertex -0.470378 4.475349 5.000000
      vertex 0.000000 8.200000 5.000000
    endloop
  endfacet
  facet normal 0.000000 0.000000 1.000000
    outer loop
      vertex 0.000000 8.200000 5.000000
      vertex 1.390576 4.279754 5.000000
      vertex 7.101408 4.100000 5.000000
    endloop
  endfacet
  facet normal 0.000000 0.000000 1.000000
    outer loop
      vertex 1.390576 4.279754 5.000000
      vertex 3.011088 3.344152 5.000000
      vertex 7.101408 4.100000 5.000000
    endloop
  endfacet
  facet normal -0.000000 -0.000000 1.000000
    outer loop
      vertex -0.470378 -4.475349 5.000000
      vertex -2.250000 -3.897114 5.000000
      vertex -0.000000 -8.200000 5.000000
    endloop
  endfacet
  facet normal 0.000000 0.000000 1.000000
    outer loop
      vertex 3.011088 3.344152 5.000000
      vertex 4.110955 1.830315 5.000000
      vertex 7.101408 4.100000 5.000000
    endloop
  endfacet
  facet normal 0.000000 0.000000 1.000000
    outer loop
      vertex 4.110955 1.830315 5.000000
      vertex 4.500000 0.000000 5.000000
      vertex 7.101408 4.100000 5.000000
    endloop
  endfacet
  facet normal 0.000000 0.000000 1.000000
    outer loop
      vertex -0.000000 -8.200000 5.000000
      vertex 7.101408 -4.100000 5.000000
      vertex 4.110955 -1.830315 5.000000
    endloop
  endfacet
  facet normal 0.000000 0.000000 1.000000
    outer loop
      vertex -0.000000 -8.200000 5.000000
      vertex 4.110955 -1.830315 5.000000
      vertex 3.011088 -3.344152 5.000000
    endloop
  endfacet
  facet normal 0.000000 0.000000 1.000000
    outer loop
      vertex -3.640576 2.645034 5.000000
      vertex -2.250000 3.897114 5.000000
      vertex 0.000000 8.200000 5.000000
    endloop
  endfacet
  facet normal 0.000000 0.000000 1.000000
    outer loop
      vertex -7.101408 -4.100000 5.000000
      vertex -3.640576 -2.645034 5.000000
      vertex -7.101408 4.100000 5.000000
    endloop
  endfacet
  facet normal 0.000000 0.000000 1.000000
    outer loop
      vertex -7.101408 -4.100000 5.000000
      vertex -0.000000 -8.200000 5.000000
      vertex -3.640576 -2.645034 5.000000
    endloop
  endfacet
  facet normal 0.000000 0.000000 1.000000
    outer loop
      vertex -3.640576 -2.645034 5.000000
      vertex -4.401664 -0.935603 5.000000
      vertex -7.101408 4.100000 5.000000
    endloop
  endfacet
  facet normal 0.000000 0.000000 1.000000
    outer loop
      vertex -4.401664 -0.935603 5.000000
      vertex -4.401664 0.935603 5.000000
      vertex -7.101408 4.100000 5.000000
    endloop
  endfacet
  facet normal 0.000000 0.000000 1.000000
    outer loop
      vertex 1.390576 -4.279754 5.000000
      vertex -0.470378 -4.475349 5.000000
      vertex -0.000000 -8.200000 5.000000
    endloop
  endfacet
  facet normal 0.000000 0.000000 1.000000
    outer loop
      vertex 17.306622 -1.767666 5.000000
      vertex 19.530127 -2.500000 5.000000
      vertex 19.530127 2.500000 5.000000
    endloop
  endfacet
  facet normal 0.000000 -0.000000 1.000000
    outer loop
      vertex 17.950000 0.000000 5.000000
      vertex 17.306622 -1.767666 5.000000
      vertex 19.530127 2.500000 5.000000
    endloop
  endfacet
  facet normal 0.000000 0.000000 1.000000
    outer loop
      vertex 17.306622 -1.767666 5.000000
      vertex 15.677532 -2.708221 5.000000
      vertex 15.200000 -5.000000 5.000000
    endloop
  endfacet
  facet normal 0.000000 0.000000 1.000000
    outer loop
      vertex 10.869873 2.500000 5.000000
      vertex 12.615845 0.940555 5.000000
      vertex 15.200000 5.000000 5.000000
    endloop
  endfacet
  facet normal 0.000000 0.000000 1.000000
    outer loop
      vertex 12.615845 0.940555 5.000000
      vertex 13.825000 2.381570 5.000000
      vertex 15.200000 5.000000 5.000000
    endloop
  endfacet
  facet normal 0.000000 0.000000 1.000000
    outer loop
      vertex 15.200000 5.000000 5.000000
      vertex 15.677532 2.708221 5.000000
      vertex 19.530127 2.500000 5.000000
    endloop
  endfacet
  facet normal 0.000000 0.000000 1.000000
    outer loop
      vertex 15.677532 2.708221 5.000000
      vertex 17.306622 1.767666 5.000000
      vertex 19.530127 2.500000 5.000000
    endloop
  endfacet
  facet normal 0.000000 0.000000 1.000000
    outer loop
      vertex 17.306622 1.767666 5.000000
      vertex 17.950000 0.000000 5.000000
      vertex 19.530127 2.500000 5.000000
    endloop
  endfacet
  facet normal 0.000000 0.000000 1.000000
    outer loop
      vertex 15.200000 -5.000000 5.000000
      vertex 19.530127 -2.500000 5.000000
      vertex 17.306622 -1.767666 5.000000
    endloop
  endfacet
  facet normal 0.000000 0.000000 1.000000
    outer loop
      vertex 13.825000 2.381570 5.000000
      vertex 15.677532 2.708221 5.000000
      vertex 15.200000 5.000000 5.000000
    endloop
  endfacet
  facet normal 0.000000 0.000000 1.000000
    outer loop
      vertex 10.869873 -2.500000 5.000000
      vertex 12.615845 -0.940555 5.000000
      vertex 10.869873 2.500000 5.000000
    endloop
  endfacet
  facet normal 0.000000 0.000000 1.000000
    outer loop
      vertex 10.869873 -2.500000 5.000000
      vertex 15.200000 -5.000000 5.000000
      vertex 12.615845 -0.940555 5.000000
    endloop
  endfacet
  facet normal -0.000000 -0.000000 1.000000
    outer loop
      vertex 13.825000 -2.381570 5.000000
      vertex 12.615845 -0.940555 5.000000
      vertex 15.200000 -5.000000 5.000000
    endloop
  endfacet
  facet normal 0.000000 0.000000 1.000000
    outer loop
      vertex 12.615845 -0.940555 5.000000
      vertex 12.615845 0.940555 5.000000
      vertex 10.869873 2.500000 5.000000
    endloop
  endfacet
  facet normal -0.000000 0.000000 1.000000
    outer loop
      vertex 15.677532 -2.708221 5.000000
      vertex 13.825000 -2.381570 5.000000
      vertex 15.200000 -5.000000 5.000000
    endloop
  endfacet
  facet normal 0.000000 -1.000000 0.000000
    outer loop
      vertex 7.029622 8.200000 10.024651
      vertex 0.000000 8.200000 10.000000
      vertex 24.500000 8.200000 10.000000
    endloop
  endfacet
  facet normal 0.000000 -1.000000 0.000000
    outer loop
      vertex 0.000000 8.200000 24.000000
      vertex 0.000000 8.200000 10.000000
      vertex 3.098336 8.200000 13.564397
    endloop
  endfacet
  facet normal 0.000000 -1.000000 0.000000
    outer loop
      vertex 11.610955 8.200000 12.669685
      vertex 10.511088 8.200000 11.155848
      vertex 24.500000 8.200000 10.000000
    endloop
  endfacet
  facet normal 0.000000 -1.000000 0.000000
    outer loop
      vertex 0.000000 8.200000 24.000000
      vertex 3.098336 8.200000 13.564397
      vertex 3.098336 8.200000 15.435603
    endloop
  endfacet
  facet normal 0.000000 -1.000000 0.000000
    outer loop
      vertex 17.165845 8.200000 13.559445
      vertex 17.165845 8.200000 15.440555
      vertex 10.511088 8.200000 17.844152
    endloop
  endfacet
  facet normal 0.000000 -1.000000 0.000000
    outer loop
      vertex 0.000000 8.200000 24.000000
      vertex 3.098336 8.200000 15.435603
      vertex 3.859424 8.200000 17.145034
    endloop
  endfacet
  facet normal -0.000000 -1.000000 -0.000000
    outer loop
      vertex 10.511088 8.200000 17.844152
      vertex 17.165845 8.200000 15.440555
      vertex 0.000000 8.200000 24.000000
    endloop
  endfacet
  facet normal 0.000000 -1.000000 0.000000
    outer loop
      vertex 0.000000 8.200000 24.000000
      vertex 3.859424 8.200000 17.145034
      vertex 5.250000 8.200000 18.397114
    endloop
  endfacet
  facet normal 0.000000 -1.000000 0.000000
    outer loop
      vertex 0.000000 8.200000 24.000000
      vertex 5.250000 8.200000 18.397114
      vertex 7.029622 8.200000 18.975349
    endloop
  endfacet
  facet normal 0.000000 -1.000000 0.000000
    outer loop
      vertex 18.375000 8.200000 16.881570
      vertex 20.227532 8.200000 17.208221
      vertex 24.500000 8.200000 24.000000
    endloop
  endfacet
  facet normal 0.000000 -1.000000 0.000000
    outer loop
      vertex 0.000000 8.200000 24.000000
      vertex 7.029622 8.200000 18.975349
      vertex 8.890576 8.200000 18.779754
    endloop
  endfacet
  facet normal 0.000000 -1.000000 0.000000
    outer loop
      vertex 21.856622 8.200000 12.732334
      vertex 20.227532 8.200000 11.791779
      vertex 24.500000 8.200000 10.000000
    endloop
  endfacet
  facet normal 0.000000 -1.000000 0.000000
    outer loop
      vertex 10.511088 8.200000 17.844152
      vertex 0.000000 8.200000 24.000000
      vertex 8.890576 8.200000 18.779754
    endloop
  endfacet
  facet normal 0.000000 -1.000000 0.000000
    outer loop
      vertex 20.227532 8.200000 11.791779
      vertex 18.375000 8.200000 12.118430
      vertex 24.500000 8.200000 10.000000
    endloop
  endfacet
  facet normal 0.000000 -1.000000 0.000000
    outer loop
      vertex 10.511088 8.200000 11.155848
      vertex 8.890576 8.200000 10.220246
      vertex 24.500000 8.200000 10.000000
    endloop
  endfacet
  facet normal 0.000000 -1.000000 0.000000
    outer loop
      vertex 8.890576 8.200000 10.220246
      vertex 7.029622 8.200000 10.024651
      vertex 24.500000 8.200000 10.000000
    endloop
  endfacet
  facet normal 0.000000 -1.000000 0.000000
    outer loop
      vertex 18.375000 8.200000 12.118430
      vertex 11.610955 8.200000 16.330315
      vertex 12.000000 8.200000 14.500000
    endloop
  endfacet
  facet normal 0.000000 -1.000000 0.000000
    outer loop
      vertex 3.859424 8.200000 11.854966
      vertex 0.000000 8.200000 10.000000
      vertex 5.250000 8.200000 10.602886
    endloop
  endfacet
  facet normal 0.000000 -1.000000 0.000000
    outer loop
      vertex 3.098336 8.200000 13.564397
      vertex 0.000000 8.200000 10.000000
      vertex 3.859424 8.200000 11.854966
    endloop
  endfacet
  facet normal 0.000000 -1.000000 0.000000
    outer loop
      vertex 18.375000 8.200000 12.118430
      vertex 11.610955 8.200000 12.669685
      vertex 24.500000 8.200000 10.000000
    endloop
  endfacet
  facet normal 0.000000 -1.000000 0.000000
    outer loop
      vertex 18.375000 8.200000 16.881570
      vertex 0.000000 8.200000 24.000000
      vertex 17.165845 8.200000 15.440555
    endloop
  endfacet
  facet normal 0.000000 -1.000000 0.000000
    outer loop
      vertex 22.500000 8.200000 14.500000
      vertex 21.856622 8.200000 12.732334
      vertex 24.500000 8.200000 10.000000
    endloop
  endfacet
  facet normal 0.000000 -1.000000 0.000000
    outer loop
      vertex 24.500000 8.200000 24.000000
      vertex 0.000000 8.200000 24.000000
      vertex 18.375000 8.200000 16.881570
    endloop
  endfacet
  facet normal 0.000000 -1.000000 0.000000
    outer loop
      vertex 24.500000 8.200000 24.000000
      vertex 21.856622 8.200000 16.267666
      vertex 24.500000 8.200000 10.000000
    endloop
  endfacet
  facet normal 0.000000 -1.000000 0.000000
    outer loop
      vertex 24.500000 8.200000 24.000000
      vertex 20.227532 8.200000 17.208221
      vertex 21.856622 8.200000 16.267666
    endloop
  endfacet
  facet normal 0.000000 -1.000000 0.000000
    outer loop
      vertex 21.856622 8.200000 16.267666
      vertex 22.500000 8.200000 14.500000
      vertex 24.500000 8.200000 10.000000
    endloop
  endfacet
  facet normal 0.000000 -1.000000 0.000000
    outer loop
      vertex 18.375000 8.200000 12.118430
      vertex 17.165845 8.200000 13.559445
      vertex 11.610955 8.200000 16.330315
    endloop
  endfacet
  facet normal 0.000000 -1.000000 0.000000
    outer loop
      vertex 7.029622 8.200000 10.024651
      vertex 5.250000 8.200000 10.602886
      vertex 0.000000 8.200000 10.000000
    endloop
  endfacet
  facet normal 0.000000 -1.000000 0.000000
    outer loop
      vertex 17.165845 8.200000 13.559445
      vertex 10.511088 8.200000 17.844152
      vertex 11.610955 8.200000 16.330315
    endloop
  endfacet
  facet normal 0.000000 -1.000000 0.000000
    outer loop
      vertex 12.000000 8.200000 14.500000
      vertex 11.610955 8.200000 12.669685
      vertex 18.375000 8.200000 12.118430
    endloop
  endfacet
  facet normal 1.000000 -0.000000 0.000000
    outer loop
      vertex -7.101408 4.100000 5.000000
      vertex -7.101408 4.100000 10.000000
      vertex -7.101408 -4.100000 10.000000
    endloop
  endfacet
  facet normal 1.000000 -0.000000 0.000000
    outer loop
      vertex -7.101408 -4.100000 5.000000
      vertex -7.101408 4.100000 5.000000
      vertex -7.101408 -4.100000 10.000000
    endloop
  endfacet
  facet normal 0.500000 0.866025 -0.000000
    outer loop
      vertex -0.000000 -8.200000 10.000000
      vertex -0.000000 -8.200000 5.000000
      vertex -7.101408 -4.100000 10.000000
    endloop
  endfacet
  facet normal 0.500000 0.866025 -0.000000
    outer loop
      vertex -7.101408 -4.100000 10.000000
      vertex -0.000000 -8.200000 5.000000
      vertex -7.101408 -4.100000 5.000000
    endloop
  endfacet
  facet normal -0.500000 0.866025 0.000000
    outer loop
      vertex 7.101408 -4.100000 10.000000
      vertex 7.101408 -4.100000 5.000000
      vertex -0.000000 -8.200000 10.000000
    endloop
  endfacet
  facet normal -0.500000 0.866025 0.000000
    outer loop
      vertex -0.000000 -8.200000 10.000000
      vertex 7.101408 -4.100000 5.000000
      vertex -0.000000 -8.200000 5.000000
    endloop
  endfacet
  facet normal -1.000000 0.000000 0.000000
    outer loop
      vertex 7.101408 4.100000 10.000000
      vertex 7.101408 4.100000 5.000000
      vertex 7.101408 -4.100000 10.000000
    endloop
  endfacet
  facet normal -1.000000 0.000000 0.000000
    outer loop
      vertex 7.101408 -4.100000 10.000000
      vertex 7.101408 4.100000 5.000000
      vertex 7.101408 -4.100000 5.000000
    endloop
  endfacet
  facet normal -0.500000 -0.866025 -0.000000
    outer loop
      vertex 7.101408 4.100000 5.000000
      vertex 7.101408 4.100000 10.000000
      vertex 0.000000 8.200000 10.000000
    endloop
  endfacet
  facet normal -0.500000 -0.866025 -0.000000
    outer loop
      vertex 0.000000 8.200000 5.000000
      vertex 7.101408 4.100000 5.000000
      vertex 0.000000 8.200000 10.000000
    endloop
  endfacet
  facet normal 0.500000 -0.866025 0.000000
    outer loop
      vertex 0.000000 8.200000 5.000000
      vertex 0.000000 8.200000 10.000000
      vertex -7.101408 4.100000 10.000000
    endloop
  endfacet
  facet normal 0.500000 -0.866025 0.000000
    outer loop
      vertex -7.101408 4.100000 5.000000
      vertex 0.000000 8.200000 5.000000
      vertex -7.101408 4.100000 10.000000
    endloop
  endfacet
  facet normal 0.500000 0.866025 -0.000000
    outer loop
      vertex 15.200000 -5.000000 10.000000
      vertex 15.200000 -5.000000 5.000000
      vertex 10.869873 -2.500000 10.000000
    endloop
  endfacet
  facet normal 0.500000 0.866025 -0.000000
    outer loop
      vertex 10.869873 -2.500000 10.000000
      vertex 15.200000 -5.000000 5.000000
      vertex 10.869873 -2.500000 5.000000
    endloop
  endfacet
  facet normal 1.000000 -0.000000 0.000000
    outer loop
      vertex 10.869873 2.500000 5.000000
      vertex 10.869873 2.500000 10.000000
      vertex 10.869873 -2.500000 10.000000
    endloop
  endfacet
  facet normal 1.000000 -0.000000 0.000000
    outer loop
      vertex 10.869873 -2.500000 5.000000
      vertex 10.869873 2.500000 5.000000
      vertex 10.869873 -2.500000 10.000000
    endloop
  endfacet
  facet normal -0.500000 0.866025 0.000000
    outer loop
      vertex 19.530127 -2.500000 10.000000
      vertex 19.530127 -2.500000 5.000000
      vertex 15.200000 -5.000000 10.000000
    endloop
  endfacet
  facet normal -0.500000 0.866025 0.000000
    outer loop
      vertex 15.200000 -5.000000 10.000000
      vertex 19.530127 -2.500000 5.000000
      vertex 15.200000 -5.000000 5.000000
    endloop
  endfacet
  facet normal -1.000000 0.000000 0.000000
    outer loop
      vertex 19.530127 2.500000 10.000000
      vertex 19.530127 2.500000 5.000000
      vertex 19.530127 -2.500000 10.000000
    endloop
  endfacet
  facet normal -1.000000 0.000000 0.000000
    outer loop
      vertex 19.530127 -2.500000 10.000000
      vertex 19.530127 2.500000 5.000000
      vertex 19.530127 -2.500000 5.000000
    endloop
  endfacet
  facet normal -0.500000 -0.866025 -0.000000
    outer loop
      vertex 19.530127 2.500000 5.000000
      vertex 19.530127 2.500000 10.000000
      vertex 15.200000 5.000000 10.000000
    endloop
  endfacet
  facet normal -0.500000 -0.866025 -0.000000
    outer loop
      vertex 15.200000 5.000000 5.000000
      vertex 19.530127 2.500000 5.000000
      vertex 15.200000 5.000000 10.000000
    endloop
  endfacet
  facet normal 0.500000 -0.866025 0.000000
    outer loop
      vertex 15.200000 5.000000 5.000000
      vertex 15.200000 5.000000 10.000000
      vertex 10.869873 2.500000 10.000000
    endloop
  endfacet
  facet normal 0.500000 -0.866025 0.000000
    outer loop
      vertex 10.869873 2.500000 5.000000
      vertex 15.200000 5.000000 5.000000
      vertex 10.869873 2.500000 10.000000
    endloop
  endfacet
endsolid OpenSCAD_Model
