solid OpenSCAD_Model
  facet normal -1.000000 -0.000000 -0.000000
    outer loop
      vertex -27.000000 0.000000 0.000000
      vertex -27.000000 0.000000 10.000000
      vertex -27.000000 4.000000 0.000000
    endloop
  endfacet
  facet normal -1.000000 0.000000 0.000000
    outer loop
      vertex -27.000000 4.000000 0.000000
      vertex -27.000000 0.000000 10.000000
      vertex -27.000000 4.000000 10.000000
    endloop
  endfacet
  facet normal 0.000000 -1.000000 0.000000
    outer loop
      vertex -23.150203 0.000000 2.384595
      vertex -27.000000 0.000000 0.000000
      vertex 23.300000 0.000000 0.000000
    endloop
  endfacet
  facet normal -0.000000 -1.000000 0.000000
    outer loop
      vertex -3.150203 0.000000 7.615405
      vertex -1.775203 0.000000 6.616409
      vertex 23.300000 0.000000 10.000000
    endloop
  endfacet
  facet normal 0.000000 -1.000000 0.000000
    outer loop
      vertex -26.750000 0.000000 5.000000
      vertex -27.000000 0.000000 0.000000
      vertex -26.224797 0.000000 3.383591
    endloop
  endfacet
  facet normal 0.000000 -1.000000 0.000000
    outer loop
      vertex -27.000000 0.000000 10.000000
      vertex -27.000000 0.000000 0.000000
      vertex -26.750000 0.000000 5.000000
    endloop
  endfacet
  facet normal 0.000000 -1.000000 0.000000
    outer loop
      vertex -4.849797 0.000000 2.384595
      vertex -21.250000 0.000000 5.000000
      vertex -21.775203 0.000000 3.383591
    endloop
  endfacet
  facet normal -0.000000 -1.000000 0.000000
    outer loop
      vertex 16.150203 0.000000 7.615405
      vertex 17.849797 0.000000 7.615405
      vertex 23.300000 0.000000 10.000000
    endloop
  endfacet
  facet normal 0.000000 -1.000000 0.000000
    outer loop
      vertex -27.000000 0.000000 10.000000
      vertex -26.224797 0.000000 6.616409
      vertex -24.849797 0.000000 7.615405
    endloop
  endfacet
  facet normal 0.000000 -1.000000 0.000000
    outer loop
      vertex -1.775203 0.000000 3.383591
      vertex -3.150203 0.000000 2.384595
      vertex 23.300000 0.000000 0.000000
    endloop
  endfacet
  facet normal 0.000000 -1.000000 0.000000
    outer loop
      vertex -27.000000 0.000000 10.000000
      vertex -24.849797 0.000000 7.615405
      vertex -23.150203 0.000000 7.615405
    endloop
  endfacet
  facet normal 0.000000 -1.000000 0.000000
    outer loop
      vertex -4.849797 0.000000 2.384595
      vertex -21.775203 0.000000 3.383591
      vertex 23.300000 0.000000 0.000000
    endloop
  endfacet
  facet normal 0.000000 -1.000000 0.000000
    outer loop
      vertex -24.849797 0.000000 2.384595
      vertex -27.000000 0.000000 0.000000
      vertex -23.150203 0.000000 2.384595
    endloop
  endfacet
  facet normal 0.000000 -1.000000 0.000000
    outer loop
      vertex -26.224797 0.000000 3.383591
      vertex -27.000000 0.000000 0.000000
      vertex -24.849797 0.000000 2.384595
    endloop
  endfacet
  facet normal 0.000000 -1.000000 0.000000
    outer loop
      vertex -21.775203 0.000000 3.383591
      vertex -23.150203 0.000000 2.384595
      vertex 23.300000 0.000000 0.000000
    endloop
  endfacet
  facet normal -0.000000 -1.000000 0.000000
    outer loop
      vertex 17.849797 0.000000 7.615405
      vertex 19.224797 0.000000 6.616409
      vertex 23.300000 0.000000 10.000000
    endloop
  endfacet
  facet normal 0.000000 -1.000000 0.000000
    outer loop
      vertex -27.000000 0.000000 10.000000
      vertex -23.150203 0.000000 7.615405
      vertex -6.750000 0.000000 5.000000
    endloop
  endfacet
  facet normal 0.000000 -1.000000 0.000000
    outer loop
      vertex -1.250000 0.000000 5.000000
      vertex -1.775203 0.000000 3.383591
      vertex 23.300000 0.000000 0.000000
    endloop
  endfacet
  facet normal 0.000000 -1.000000 0.000000
    outer loop
      vertex -4.849797 0.000000 7.615405
      vertex -27.000000 0.000000 10.000000
      vertex -6.224797 0.000000 6.616409
    endloop
  endfacet
  facet normal 0.000000 -1.000000 0.000000
    outer loop
      vertex 23.300000 0.000000 10.000000
      vertex -27.000000 0.000000 10.000000
      vertex -4.849797 0.000000 7.615405
    endloop
  endfacet
  facet normal 0.000000 -1.000000 0.000000
    outer loop
      vertex -1.775203 0.000000 6.616409
      vertex -1.250000 0.000000 5.000000
      vertex 23.300000 0.000000 0.000000
    endloop
  endfacet
  facet normal 0.000000 -1.000000 0.000000
    outer loop
      vertex 23.300000 0.000000 10.000000
      vertex -4.849797 0.000000 7.615405
      vertex -3.150203 0.000000 7.615405
    endloop
  endfacet
  facet normal 0.000000 -1.000000 0.000000
    outer loop
      vertex 16.150203 0.000000 2.384595
      vertex -1.775203 0.000000 6.616409
      vertex 23.300000 0.000000 0.000000
    endloop
  endfacet
  facet normal 0.000000 -1.000000 -0.000000
    outer loop
      vertex -6.750000 0.000000 5.000000
      vertex -6.224797 0.000000 6.616409
      vertex -27.000000 0.000000 10.000000
    endloop
  endfacet
  facet normal 0.000000 -1.000000 0.000000
    outer loop
      vertex -4.849797 0.000000 2.384595
      vertex -6.224797 0.000000 3.383591
      vertex -21.250000 0.000000 5.000000
    endloop
  endfacet
  facet normal 0.000000 -1.000000 0.000000
    outer loop
      vertex -6.224797 0.000000 3.383591
      vertex -23.150203 0.000000 7.615405
      vertex -21.775203 0.000000 6.616409
    endloop
  endfacet
  facet normal 0.000000 -1.000000 0.000000
    outer loop
      vertex -3.150203 0.000000 2.384595
      vertex -4.849797 0.000000 2.384595
      vertex 23.300000 0.000000 0.000000
    endloop
  endfacet
  facet normal 0.000000 -1.000000 0.000000
    outer loop
      vertex -6.224797 0.000000 3.383591
      vertex -6.750000 0.000000 5.000000
      vertex -23.150203 0.000000 7.615405
    endloop
  endfacet
  facet normal 0.000000 -1.000000 0.000000
    outer loop
      vertex 14.250000 0.000000 5.000000
      vertex -1.775203 0.000000 6.616409
      vertex 14.775203 0.000000 3.383591
    endloop
  endfacet
  facet normal 0.000000 -1.000000 0.000000
    outer loop
      vertex 17.849797 0.000000 2.384595
      vertex 16.150203 0.000000 2.384595
      vertex 23.300000 0.000000 0.000000
    endloop
  endfacet
  facet normal 0.000000 -1.000000 0.000000
    outer loop
      vertex 14.775203 0.000000 6.616409
      vertex -1.775203 0.000000 6.616409
      vertex 14.250000 0.000000 5.000000
    endloop
  endfacet
  facet normal 0.000000 -1.000000 0.000000
    outer loop
      vertex 16.150203 0.000000 7.615405
      vertex -1.775203 0.000000 6.616409
      vertex 14.775203 0.000000 6.616409
    endloop
  endfacet
  facet normal 0.000000 -1.000000 0.000000
    outer loop
      vertex 23.300000 0.000000 10.000000
      vertex -1.775203 0.000000 6.616409
      vertex 16.150203 0.000000 7.615405
    endloop
  endfacet
  facet normal 0.000000 -1.000000 0.000000
    outer loop
      vertex 23.300000 0.000000 10.000000
      vertex 19.224797 0.000000 6.616409
      vertex 23.300000 0.000000 0.000000
    endloop
  endfacet
  facet normal 0.000000 -1.000000 0.000000
    outer loop
      vertex 19.224797 0.000000 6.616409
      vertex 19.750000 0.000000 5.000000
      vertex 23.300000 0.000000 0.000000
    endloop
  endfacet
  facet normal 0.000000 -1.000000 0.000000
    outer loop
      vertex 19.750000 0.000000 5.000000
      vertex 19.224797 0.000000 3.383591
      vertex 23.300000 0.000000 0.000000
    endloop
  endfacet
  facet normal 0.000000 -1.000000 0.000000
    outer loop
      vertex 19.224797 0.000000 3.383591
      vertex 17.849797 0.000000 2.384595
      vertex 23.300000 0.000000 0.000000
    endloop
  endfacet
  facet normal 0.000000 -1.000000 0.000000
    outer loop
      vertex 14.775203 0.000000 3.383591
      vertex -1.775203 0.000000 6.616409
      vertex 16.150203 0.000000 2.384595
    endloop
  endfacet
  facet normal 0.000000 -1.000000 -0.000000
    outer loop
      vertex -26.750000 0.000000 5.000000
      vertex -26.224797 0.000000 6.616409
      vertex -27.000000 0.000000 10.000000
    endloop
  endfacet
  facet normal 0.000000 -1.000000 0.000000
    outer loop
      vertex -21.775203 0.000000 6.616409
      vertex -21.250000 0.000000 5.000000
      vertex -6.224797 0.000000 3.383591
    endloop
  endfacet
  facet normal -0.000000 -0.000000 -1.000000
    outer loop
      vertex -27.000000 0.000000 0.000000
      vertex -27.000000 4.000000 0.000000
      vertex 23.300000 0.000000 0.000000
    endloop
  endfacet
  facet normal 0.000000 0.000000 -1.000000
    outer loop
      vertex 23.300000 0.000000 0.000000
      vertex -27.000000 4.000000 0.000000
      vertex 1.089830 4.000000 0.000000
    endloop
  endfacet
  facet normal 0.000000 0.000000 -1.000000
    outer loop
      vertex 5.550000 3.902886 0.000000
      vertex 1.089830 4.000000 0.000000
      vertex 0.381759 5.389667 0.000000
    endloop
  endfacet
  facet normal 0.000000 0.000000 -1.000000
    outer loop
      vertex 3.571383 6.260909 0.000000
      vertex 0.381759 5.389667 0.000000
      vertex 0.000000 7.800000 0.000000
    endloop
  endfacet
  facet normal 0.000000 0.000000 -1.000000
    outer loop
      vertex 3.300000 7.800000 0.000000
      vertex 0.000000 7.800000 0.000000
      vertex 0.381759 10.210333 0.000000
    endloop
  endfacet
  facet normal 0.000000 0.000000 -1.000000
    outer loop
      vertex 4.352800 10.692544 0.000000
      vertex 0.381759 10.210333 0.000000
      vertex 1.489667 12.384725 0.000000
    endloop
  endfacet
  facet normal 0.000000 0.000000 -1.000000
    outer loop
      vertex 5.550000 11.697114 0.000000
      vertex 1.489667 12.384725 0.000000
      vertex 3.215275 14.110333 0.000000
    endloop
  endfacet
  facet normal 0.000000 0.000000 -1.000000
    outer loop
      vertex 8.581417 12.231635 0.000000
      vertex 3.215275 14.110333 0.000000
      vertex 5.389667 15.218241 0.000000
    endloop
  endfacet
  facet normal 0.000000 0.000000 -1.000000
    outer loop
      vertex 10.050000 11.697114 0.000000
      vertex 5.389667 15.218241 0.000000
      vertex 7.800000 15.600000 0.000000
    endloop
  endfacet
  facet normal 0.000000 0.000000 -1.000000
    outer loop
      vertex 23.300000 11.550000 0.000000
      vertex 7.800000 15.600000 0.000000
      vertex 23.300000 15.600000 0.000000
    endloop
  endfacet
  facet normal -0.000000 -0.000000 -1.000000
    outer loop
      vertex 8.581417 12.231635 0.000000
      vertex 5.389667 15.218241 0.000000
      vertex 10.050000 11.697114 0.000000
    endloop
  endfacet
  facet normal 0.000000 0.000000 -1.000000
    outer loop
      vertex 10.225324 11.550000 0.000000
      vertex 10.050000 11.697114 0.000000
      vertex 7.800000 15.600000 0.000000
    endloop
  endfacet
  facet normal -0.000000 -0.000000 -1.000000
    outer loop
      vertex 7.018583 12.231635 0.000000
      vertex 3.215275 14.110333 0.000000
      vertex 8.581417 12.231635 0.000000
    endloop
  endfacet
  facet normal 0.000000 -0.000000 -1.000000
    outer loop
      vertex 5.550000 11.697114 0.000000
      vertex 3.215275 14.110333 0.000000
      vertex 7.018583 12.231635 0.000000
    endloop
  endfacet
  facet normal 0.000000 -0.000000 -1.000000
    outer loop
      vertex 4.352800 10.692544 0.000000
      vertex 1.489667 12.384725 0.000000
      vertex 5.550000 11.697114 0.000000
    endloop
  endfacet
  facet normal 0.000000 -0.000000 -1.000000
    outer loop
      vertex 3.571383 9.339091 0.000000
      vertex 0.381759 10.210333 0.000000
      vertex 4.352800 10.692544 0.000000
    endloop
  endfacet
  facet normal 0.000000 -0.000000 -1.000000
    outer loop
      vertex 3.300000 7.800000 0.000000
      vertex 0.381759 10.210333 0.000000
      vertex 3.571383 9.339091 0.000000
    endloop
  endfacet
  facet normal 0.000000 0.000000 -1.000000
    outer loop
      vertex 3.571383 6.260909 0.000000
      vertex 0.000000 7.800000 0.000000
      vertex 3.300000 7.800000 0.000000
    endloop
  endfacet
  facet normal 0.000000 0.000000 -1.000000
    outer loop
      vertex 4.352800 4.907456 0.000000
      vertex 0.381759 5.389667 0.000000
      vertex 3.571383 6.260909 0.000000
    endloop
  endfacet
  facet normal 0.000000 0.000000 -1.000000
    outer loop
      vertex 5.550000 3.902886 0.000000
      vertex 0.381759 5.389667 0.000000
      vertex 4.352800 4.907456 0.000000
    endloop
  endfacet
  facet normal 0.000000 0.000000 -1.000000
    outer loop
      vertex 7.018583 3.368365 0.000000
      vertex 1.089830 4.000000 0.000000
      vertex 5.550000 3.902886 0.000000
    endloop
  endfacet
  facet normal 0.000000 0.000000 -1.000000
    outer loop
      vertex 8.581417 3.368365 0.000000
      vertex 23.300000 0.000000 0.000000
      vertex 7.018583 3.368365 0.000000
    endloop
  endfacet
  facet normal 0.000000 0.000000 -1.000000
    outer loop
      vertex 23.300000 0.000000 0.000000
      vertex 1.089830 4.000000 0.000000
      vertex 7.018583 3.368365 0.000000
    endloop
  endfacet
  facet normal 0.000000 0.000000 -1.000000
    outer loop
      vertex 10.050000 3.902886 0.000000
      vertex 23.300000 0.000000 0.000000
      vertex 8.581417 3.368365 0.000000
    endloop
  endfacet
  facet normal 0.000000 0.000000 -1.000000
    outer loop
      vertex 23.300000 4.050000 0.000000
      vertex 23.300000 0.000000 0.000000
      vertex 10.225324 4.050000 0.000000
    endloop
  endfacet
  facet normal 0.000000 0.000000 -1.000000
    outer loop
      vertex 23.300000 0.000000 0.000000
      vertex 10.050000 3.902886 0.000000
      vertex 10.225324 4.050000 0.000000
    endloop
  endfacet
  facet normal -0.000000 -0.000000 -1.000000
    outer loop
      vertex 10.225324 11.550000 0.000000
      vertex 7.800000 15.600000 0.000000
      vertex 23.300000 11.550000 0.000000
    endloop
  endfacet
  facet normal 0.000000 1.000000 0.000000
    outer loop
      vertex -23.150203 4.000000 7.615405
      vertex -27.000000 4.000000 10.000000
      vertex 1.089830 4.000000 0.000000
    endloop
  endfacet
  facet normal 0.000000 1.000000 0.000000
    outer loop
      vertex -3.150203 4.000000 7.615405
      vertex -27.000000 4.000000 10.000000
      vertex 1.089830 4.000000 10.000000
    endloop
  endfacet
  facet normal 0.000000 1.000000 0.000000
    outer loop
      vertex -27.000000 4.000000 0.000000
      vertex -27.000000 4.000000 10.000000
      vertex -26.750000 4.000000 5.000000
    endloop
  endfacet
  facet normal 0.000000 1.000000 0.000000
    outer loop
      vertex -27.000000 4.000000 0.000000
      vertex -26.750000 4.000000 5.000000
      vertex -26.224797 4.000000 3.383591
    endloop
  endfacet
  facet normal 0.000000 1.000000 0.000000
    outer loop
      vertex -27.000000 4.000000 0.000000
      vertex -26.224797 4.000000 3.383591
      vertex -24.849797 4.000000 2.384595
    endloop
  endfacet
  facet normal 0.000000 1.000000 0.000000
    outer loop
      vertex -27.000000 4.000000 0.000000
      vertex -24.849797 4.000000 2.384595
      vertex 1.089830 4.000000 0.000000
    endloop
  endfacet
  facet normal 0.000000 1.000000 0.000000
    outer loop
      vertex -24.849797 4.000000 2.384595
      vertex -23.150203 4.000000 2.384595
      vertex 1.089830 4.000000 0.000000
    endloop
  endfacet
  facet normal 0.000000 1.000000 -0.000000
    outer loop
      vertex -21.250000 4.000000 5.000000
      vertex 1.089830 4.000000 0.000000
      vertex -21.775203 4.000000 3.383591
    endloop
  endfacet
  facet normal 0.000000 1.000000 -0.000000
    outer loop
      vertex -3.150203 4.000000 2.384595
      vertex 1.089830 4.000000 0.000000
      vertex -4.849797 4.000000 2.384595
    endloop
  endfacet
  facet normal 0.000000 1.000000 0.000000
    outer loop
      vertex -24.849797 4.000000 7.615405
      vertex -27.000000 4.000000 10.000000
      vertex -23.150203 4.000000 7.615405
    endloop
  endfacet
  facet normal 0.000000 1.000000 0.000000
    outer loop
      vertex -21.250000 4.000000 5.000000
      vertex -21.775203 4.000000 6.616409
      vertex 1.089830 4.000000 0.000000
    endloop
  endfacet
  facet normal 0.000000 1.000000 0.000000
    outer loop
      vertex -21.775203 4.000000 6.616409
      vertex -23.150203 4.000000 7.615405
      vertex 1.089830 4.000000 0.000000
    endloop
  endfacet
  facet normal 0.000000 1.000000 0.000000
    outer loop
      vertex -26.224797 4.000000 6.616409
      vertex -27.000000 4.000000 10.000000
      vertex -24.849797 4.000000 7.615405
    endloop
  endfacet
  facet normal 0.000000 1.000000 0.000000
    outer loop
      vertex -26.750000 4.000000 5.000000
      vertex -27.000000 4.000000 10.000000
      vertex -26.224797 4.000000 6.616409
    endloop
  endfacet
  facet normal 0.000000 1.000000 0.000000
    outer loop
      vertex -6.224797 4.000000 3.383591
      vertex -27.000000 4.000000 10.000000
      vertex -6.750000 4.000000 5.000000
    endloop
  endfacet
  facet normal 0.000000 1.000000 0.000000
    outer loop
      vertex -4.849797 4.000000 2.384595
      vertex -27.000000 4.000000 10.000000
      vertex -6.224797 4.000000 3.383591
    endloop
  endfacet
  facet normal 0.000000 1.000000 0.000000
    outer loop
      vertex 1.089830 4.000000 0.000000
      vertex -27.000000 4.000000 10.000000
      vertex -4.849797 4.000000 2.384595
    endloop
  endfacet
  facet normal 0.000000 1.000000 -0.000000
    outer loop
      vertex -1.775203 4.000000 3.383591
      vertex 1.089830 4.000000 0.000000
      vertex -3.150203 4.000000 2.384595
    endloop
  endfacet
  facet normal 0.000000 1.000000 0.000000
    outer loop
      vertex -3.150203 4.000000 7.615405
      vertex 1.089830 4.000000 10.000000
      vertex -1.775203 4.000000 6.616409
    endloop
  endfacet
  facet normal 0.000000 1.000000 0.000000
    outer loop
      vertex 1.089830 4.000000 0.000000
      vertex -1.775203 4.000000 3.383591
      vertex 1.089830 4.000000 10.000000
    endloop
  endfacet
  facet normal 0.000000 1.000000 0.000000
    outer loop
      vertex -1.775203 4.000000 3.383591
      vertex -1.250000 4.000000 5.000000
      vertex 1.089830 4.000000 10.000000
    endloop
  endfacet
  facet normal 0.000000 1.000000 0.000000
    outer loop
      vertex -1.250000 4.000000 5.000000
      vertex -1.775203 4.000000 6.616409
      vertex 1.089830 4.000000 10.000000
    endloop
  endfacet
  facet normal 0.000000 1.000000 0.000000
    outer loop
      vertex -4.849797 4.000000 7.615405
      vertex -27.000000 4.000000 10.000000
      vertex -3.150203 4.000000 7.615405
    endloop
  endfacet
  facet normal 0.000000 1.000000 0.000000
    outer loop
      vertex -6.224797 4.000000 6.616409
      vertex -27.000000 4.000000 10.000000
      vertex -4.849797 4.000000 7.615405
    endloop
  endfacet
  facet normal 0.000000 1.000000 0.000000
    outer loop
      vertex -6.750000 4.000000 5.000000
      vertex -27.000000 4.000000 10.000000
      vertex -6.224797 4.000000 6.616409
    endloop
  endfacet
  facet normal 0.000000 1.000000 -0.000000
    outer loop
      vertex -21.775203 4.000000 3.383591
      vertex 1.089830 4.000000 0.000000
      vertex -23.150203 4.000000 2.384595
    endloop
  endfacet
  facet normal 0.000000 -0.000000 1.000000
    outer loop
      vertex -27.000000 4.000000 10.000000
      vertex -27.000000 0.000000 10.000000
      vertex 23.300000 0.000000 10.000000
    endloop
  endfacet
  facet normal 0.000000 0.000000 1.000000
    outer loop
      vertex 5.550000 3.902886 10.000000
      vertex 1.089830 4.000000 10.000000
      vertex -27.000000 4.000000 10.000000
    endloop
  endfacet
  facet normal -0.000000 -0.000000 1.000000
    outer loop
      vertex 7.018583 3.368365 10.000000
      vertex -27.000000 4.000000 10.000000
      vertex 23.300000 0.000000 10.000000
    endloop
  endfacet
  facet normal 0.000000 0.000000 1.000000
    outer loop
      vertex 23.300000 4.050000 10.000000
      vertex 10.050000 3.902886 10.000000
      vertex 23.300000 0.000000 10.000000
    endloop
  endfacet
  facet normal 0.000000 -0.000000 1.000000
    outer loop
      vertex 10.050000 3.902886 10.000000
      vertex 8.581417 3.368365 10.000000
      vertex 23.300000 0.000000 10.000000
    endloop
  endfacet
  facet normal 0.000000 -0.000000 1.000000
    outer loop
      vertex 8.581417 3.368365 10.000000
      vertex 7.018583 3.368365 10.000000
      vertex 23.300000 0.000000 10.000000
    endloop
  endfacet
  facet normal 0.000000 0.000000 1.000000
    outer loop
      vertex 0.381759 5.389667 10.000000
      vertex 1.089830 4.000000 10.000000
      vertex 4.352800 4.907456 10.000000
    endloop
  endfacet
  facet normal 0.000000 0.000000 1.000000
    outer loop
      vertex 0.000000 7.800000 10.000000
      vertex 3.571383 6.260909 10.000000
      vertex 3.300000 7.800000 10.000000
    endloop
  endfacet
  facet normal 0.000000 0.000000 1.000000
    outer loop
      vertex 0.000000 7.800000 10.000000
      vertex 0.381759 5.389667 10.000000
      vertex 3.571383 6.260909 10.000000
    endloop
  endfacet
  facet normal 0.000000 0.000000 1.000000
    outer loop
      vertex 0.381759 10.210333 10.000000
      vertex 3.571383 9.339091 10.000000
      vertex 4.352800 10.692544 10.000000
    endloop
  endfacet
  facet normal 0.000000 -0.000000 1.000000
    outer loop
      vertex 0.381759 10.210333 10.000000
      vertex 0.000000 7.800000 10.000000
      vertex 3.571383 9.339091 10.000000
    endloop
  endfacet
  facet normal 0.000000 0.000000 1.000000
    outer loop
      vertex 23.300000 15.600000 10.000000
      vertex 7.018583 12.231635 10.000000
      vertex 8.581417 12.231635 10.000000
    endloop
  endfacet
  facet normal 0.000000 0.000000 1.000000
    outer loop
      vertex 23.300000 11.550000 10.000000
      vertex 8.581417 12.231635 10.000000
      vertex 10.050000 11.697114 10.000000
    endloop
  endfacet
  facet normal 0.000000 -0.000000 1.000000
    outer loop
      vertex 3.215275 14.110333 10.000000
      vertex 1.489667 12.384725 10.000000
      vertex 7.800000 15.600000 10.000000
    endloop
  endfacet
  facet normal 0.000000 0.000000 1.000000
    outer loop
      vertex 23.300000 15.600000 10.000000
      vertex 8.581417 12.231635 10.000000
      vertex 23.300000 11.550000 10.000000
    endloop
  endfacet
  facet normal 0.000000 -0.000000 1.000000
    outer loop
      vertex 7.800000 15.600000 10.000000
      vertex 7.018583 12.231635 10.000000
      vertex 23.300000 15.600000 10.000000
    endloop
  endfacet
  facet normal 0.000000 0.000000 1.000000
    outer loop
      vertex 1.489667 12.384725 10.000000
      vertex 5.550000 11.697114 10.000000
      vertex 7.018583 12.231635 10.000000
    endloop
  endfacet
  facet normal 0.000000 -0.000000 1.000000
    outer loop
      vertex 5.389667 15.218241 10.000000
      vertex 3.215275 14.110333 10.000000
      vertex 7.800000 15.600000 10.000000
    endloop
  endfacet
  facet normal 0.000000 0.000000 1.000000
    outer loop
      vertex 7.800000 15.600000 10.000000
      vertex 1.489667 12.384725 10.000000
      vertex 7.018583 12.231635 10.000000
    endloop
  endfacet
  facet normal 0.000000 0.000000 1.000000
    outer loop
      vertex 5.550000 11.697114 10.000000
      vertex 0.381759 10.210333 10.000000
      vertex 4.352800 10.692544 10.000000
    endloop
  endfacet
  facet normal 0.000000 0.000000 1.000000
    outer loop
      vertex 3.571383 9.339091 10.000000
      vertex 0.000000 7.800000 10.000000
      vertex 3.300000 7.800000 10.000000
    endloop
  endfacet
  facet normal 0.000000 -0.000000 1.000000
    outer loop
      vertex 3.571383 6.260909 10.000000
      vertex 0.381759 5.389667 10.000000
      vertex 4.352800 4.907456 10.000000
    endloop
  endfacet
  facet normal 0.000000 0.000000 1.000000
    outer loop
      vertex 7.018583 3.368365 10.000000
      vertex 5.550000 3.902886 10.000000
      vertex -27.000000 4.000000 10.000000
    endloop
  endfacet
  facet normal 0.000000 0.000000 1.000000
    outer loop
      vertex 10.225324 11.550000 10.000000
      vertex 23.300000 11.550000 10.000000
      vertex 10.050000 11.697114 10.000000
    endloop
  endfacet
  facet normal 0.000000 -0.000000 1.000000
    outer loop
      vertex 1.489667 12.384725 10.000000
      vertex 0.381759 10.210333 10.000000
      vertex 5.550000 11.697114 10.000000
    endloop
  endfacet
  facet normal 0.000000 -0.000000 1.000000
    outer loop
      vertex 10.225324 4.050000 10.000000
      vertex 10.050000 3.902886 10.000000
      vertex 23.300000 4.050000 10.000000
    endloop
  endfacet
  facet normal 0.000000 0.000000 1.000000
    outer loop
      vertex 5.550000 3.902886 10.000000
      vertex 4.352800 4.907456 10.000000
      vertex 1.089830 4.000000 10.000000
    endloop
  endfacet
  facet normal 1.000000 0.000000 -0.000000
    outer loop
      vertex 23.300000 0.000000 10.000000
      vertex 23.300000 0.000000 0.000000
      vertex 23.300000 4.050000 0.000000
    endloop
  endfacet
  facet normal 1.000000 0.000000 0.000000
    outer loop
      vertex 23.300000 4.050000 10.000000
      vertex 23.300000 0.000000 10.000000
      vertex 23.300000 4.050000 0.000000
    endloop
  endfacet
  facet normal 0.951057 0.000000 0.309017
    outer loop
      vertex -26.224797 0.000000 3.383591
      vertex -26.224797 4.000000 3.383591
      vertex -26.750000 4.000000 5.000000
    endloop
  endfacet
  facet normal 0.951057 0.000000 0.309017
    outer loop
      vertex -26.750000 0.000000 5.000000
      vertex -26.224797 0.000000 3.383591
      vertex -26.750000 4.000000 5.000000
    endloop
  endfacet
  facet normal 0.587785 0.000000 0.809017
    outer loop
      vertex -24.849797 0.000000 2.384595
      vertex -24.849797 4.000000 2.384595
      vertex -26.224797 4.000000 3.383591
    endloop
  endfacet
  facet normal 0.587785 0.000000 0.809017
    outer loop
      vertex -26.224797 0.000000 3.383591
      vertex -24.849797 0.000000 2.384595
      vertex -26.224797 4.000000 3.383591
    endloop
  endfacet
  facet normal 0.000000 0.000000 1.000000
    outer loop
      vertex -23.150203 0.000000 2.384595
      vertex -23.150203 4.000000 2.384595
      vertex -24.849797 4.000000 2.384595
    endloop
  endfacet
  facet normal 0.000000 0.000000 1.000000
    outer loop
      vertex -24.849797 0.000000 2.384595
      vertex -23.150203 0.000000 2.384595
      vertex -24.849797 4.000000 2.384595
    endloop
  endfacet
  facet normal -0.587785 0.000000 0.809017
    outer loop
      vertex -21.775203 0.000000 3.383591
      vertex -21.775203 4.000000 3.383591
      vertex -23.150203 4.000000 2.384595
    endloop
  endfacet
  facet normal -0.587785 0.000000 0.809017
    outer loop
      vertex -23.150203 0.000000 2.384595
      vertex -21.775203 0.000000 3.383591
      vertex -23.150203 4.000000 2.384595
    endloop
  endfacet
  facet normal -0.951057 0.000000 0.309017
    outer loop
      vertex -21.250000 4.000000 5.000000
      vertex -21.775203 4.000000 3.383591
      vertex -21.250000 0.000000 5.000000
    endloop
  endfacet
  facet normal -0.951057 0.000000 0.309017
    outer loop
      vertex -21.250000 0.000000 5.000000
      vertex -21.775203 4.000000 3.383591
      vertex -21.775203 0.000000 3.383591
    endloop
  endfacet
  facet normal -0.951057 -0.000000 -0.309017
    outer loop
      vertex -21.250000 4.000000 5.000000
      vertex -21.250000 0.000000 5.000000
      vertex -21.775203 4.000000 6.616409
    endloop
  endfacet
  facet normal -0.951057 -0.000000 -0.309017
    outer loop
      vertex -21.775203 4.000000 6.616409
      vertex -21.250000 0.000000 5.000000
      vertex -21.775203 0.000000 6.616409
    endloop
  endfacet
  facet normal -0.587785 -0.000000 -0.809017
    outer loop
      vertex -21.775203 4.000000 6.616409
      vertex -21.775203 0.000000 6.616409
      vertex -23.150203 4.000000 7.615405
    endloop
  endfacet
  facet normal -0.587785 -0.000000 -0.809017
    outer loop
      vertex -23.150203 4.000000 7.615405
      vertex -21.775203 0.000000 6.616409
      vertex -23.150203 0.000000 7.615405
    endloop
  endfacet
  facet normal 0.000000 -0.000000 -1.000000
    outer loop
      vertex -23.150203 4.000000 7.615405
      vertex -23.150203 0.000000 7.615405
      vertex -24.849797 4.000000 7.615405
    endloop
  endfacet
  facet normal 0.000000 -0.000000 -1.000000
    outer loop
      vertex -24.849797 4.000000 7.615405
      vertex -23.150203 0.000000 7.615405
      vertex -24.849797 0.000000 7.615405
    endloop
  endfacet
  facet normal 0.587785 -0.000000 -0.809017
    outer loop
      vertex -24.849797 4.000000 7.615405
      vertex -24.849797 0.000000 7.615405
      vertex -26.224797 4.000000 6.616409
    endloop
  endfacet
  facet normal 0.587785 -0.000000 -0.809017
    outer loop
      vertex -26.224797 4.000000 6.616409
      vertex -24.849797 0.000000 7.615405
      vertex -26.224797 0.000000 6.616409
    endloop
  endfacet
  facet normal 0.951057 -0.000000 -0.309017
    outer loop
      vertex -26.750000 4.000000 5.000000
      vertex -26.224797 4.000000 6.616409
      vertex -26.224797 0.000000 6.616409
    endloop
  endfacet
  facet normal 0.951057 -0.000000 -0.309017
    outer loop
      vertex -26.750000 0.000000 5.000000
      vertex -26.750000 4.000000 5.000000
      vertex -26.224797 0.000000 6.616409
    endloop
  endfacet
  facet normal 0.587785 0.000000 0.809017
    outer loop
      vertex -4.849797 0.000000 2.384595
      vertex -4.849797 4.000000 2.384595
      vertex -6.224797 4.000000 3.383591
    endloop
  endfacet
  facet normal 0.587785 0.000000 0.809017
    outer loop
      vertex -6.224797 0.000000 3.383591
      vertex -4.849797 0.000000 2.384595
      vertex -6.224797 4.000000 3.383591
    endloop
  endfacet
  facet normal 0.951057 0.000000 0.309017
    outer loop
      vertex -6.224797 0.000000 3.383591
      vertex -6.224797 4.000000 3.383591
      vertex -6.750000 4.000000 5.000000
    endloop
  endfacet
  facet normal 0.951057 0.000000 0.309017
    outer loop
      vertex -6.750000 0.000000 5.000000
      vertex -6.224797 0.000000 3.383591
      vertex -6.750000 4.000000 5.000000
    endloop
  endfacet
  facet normal 0.000000 0.000000 1.000000
    outer loop
      vertex -3.150203 0.000000 2.384595
      vertex -3.150203 4.000000 2.384595
      vertex -4.849797 4.000000 2.384595
    endloop
  endfacet
  facet normal 0.000000 0.000000 1.000000
    outer loop
      vertex -4.849797 0.000000 2.384595
      vertex -3.150203 0.000000 2.384595
      vertex -4.849797 4.000000 2.384595
    endloop
  endfacet
  facet normal -0.587785 0.000000 0.809017
    outer loop
      vertex -1.775203 0.000000 3.383591
      vertex -1.775203 4.000000 3.383591
      vertex -3.150203 4.000000 2.384595
    endloop
  endfacet
  facet normal -0.587785 0.000000 0.809017
    outer loop
      vertex -3.150203 0.000000 2.384595
      vertex -1.775203 0.000000 3.383591
      vertex -3.150203 4.000000 2.384595
    endloop
  endfacet
  facet normal -0.951057 0.000000 0.309017
    outer loop
      vertex -1.250000 4.000000 5.000000
      vertex -1.775203 4.000000 3.383591
      vertex -1.250000 0.000000 5.000000
    endloop
  endfacet
  facet normal -0.951057 0.000000 0.309017
    outer loop
      vertex -1.250000 0.000000 5.000000
      vertex -1.775203 4.000000 3.383591
      vertex -1.775203 0.000000 3.383591
    endloop
  endfacet
  facet normal -0.951057 -0.000000 -0.309017
    outer loop
      vertex -1.250000 4.000000 5.000000
      vertex -1.250000 0.000000 5.000000
      vertex -1.775203 4.000000 6.616409
    endloop
  endfacet
  facet normal -0.951057 -0.000000 -0.309017
    outer loop
      vertex -1.775203 4.000000 6.616409
      vertex -1.250000 0.000000 5.000000
      vertex -1.775203 0.000000 6.616409
    endloop
  endfacet
  facet normal -0.587785 -0.000000 -0.809017
    outer loop
      vertex -1.775203 4.000000 6.616409
      vertex -1.775203 0.000000 6.616409
      vertex -3.150203 4.000000 7.615405
    endloop
  endfacet
  facet normal -0.587785 -0.000000 -0.809017
    outer loop
      vertex -3.150203 4.000000 7.615405
      vertex -1.775203 0.000000 6.616409
      vertex -3.150203 0.000000 7.615405
    endloop
  endfacet
  facet normal 0.000000 -0.000000 -1.000000
    outer loop
      vertex -3.150203 4.000000 7.615405
      vertex -3.150203 0.000000 7.615405
      vertex -4.849797 4.000000 7.615405
    endloop
  endfacet
  facet normal 0.000000 -0.000000 -1.000000
    outer loop
      vertex -4.849797 4.000000 7.615405
      vertex -3.150203 0.000000 7.615405
      vertex -4.849797 0.000000 7.615405
    endloop
  endfacet
  facet normal 0.587785 -0.000000 -0.809017
    outer loop
      vertex -4.849797 4.000000 7.615405
      vertex -4.849797 0.000000 7.615405
      vertex -6.224797 4.000000 6.616409
    endloop
  endfacet
  facet normal 0.587785 -0.000000 -0.809017
    outer loop
      vertex -6.224797 4.000000 6.616409
      vertex -4.849797 0.000000 7.615405
      vertex -6.224797 0.000000 6.616409
    endloop
  endfacet
  facet normal 0.951057 -0.000000 -0.309017
    outer loop
      vertex -6.750000 4.000000 5.000000
      vertex -6.224797 4.000000 6.616409
      vertex -6.224797 0.000000 6.616409
    endloop
  endfacet
  facet normal 0.951057 -0.000000 -0.309017
    outer loop
      vertex -6.750000 0.000000 5.000000
      vertex -6.750000 4.000000 5.000000
      vertex -6.224797 0.000000 6.616409
    endloop
  endfacet
  facet normal 0.951057 0.000000 0.309017
    outer loop
      vertex 14.775203 0.000000 3.383591
      vertex 14.775203 4.050000 3.383591
      vertex 14.250000 4.050000 5.000000
    endloop
  endfacet
  facet normal 0.951057 0.000000 0.309017
    outer loop
      vertex 14.250000 0.000000 5.000000
      vertex 14.775203 0.000000 3.383591
      vertex 14.250000 4.050000 5.000000
    endloop
  endfacet
  facet normal 0.587785 0.000000 0.809017
    outer loop
      vertex 16.150203 0.000000 2.384595
      vertex 16.150203 4.050000 2.384595
      vertex 14.775203 4.050000 3.383591
    endloop
  endfacet
  facet normal 0.587785 0.000000 0.809017
    outer loop
      vertex 14.775203 0.000000 3.383591
      vertex 16.150203 0.000000 2.384595
      vertex 14.775203 4.050000 3.383591
    endloop
  endfacet
  facet normal 0.000000 0.000000 1.000000
    outer loop
      vertex 17.849797 0.000000 2.384595
      vertex 17.849797 4.050000 2.384595
      vertex 16.150203 4.050000 2.384595
    endloop
  endfacet
  facet normal 0.000000 0.000000 1.000000
    outer loop
      vertex 16.150203 0.000000 2.384595
      vertex 17.849797 0.000000 2.384595
      vertex 16.150203 4.050000 2.384595
    endloop
  endfacet
  facet normal -0.587785 0.000000 0.809017
    outer loop
      vertex 19.224797 0.000000 3.383591
      vertex 19.224797 4.050000 3.383591
      vertex 17.849797 4.050000 2.384595
    endloop
  endfacet
  facet normal -0.587785 0.000000 0.809017
    outer loop
      vertex 17.849797 0.000000 2.384595
      vertex 19.224797 0.000000 3.383591
      vertex 17.849797 4.050000 2.384595
    endloop
  endfacet
  facet normal -0.951057 0.000000 0.309017
    outer loop
      vertex 19.750000 4.050000 5.000000
      vertex 19.224797 4.050000 3.383591
      vertex 19.750000 0.000000 5.000000
    endloop
  endfacet
  facet normal -0.951057 0.000000 0.309017
    outer loop
      vertex 19.750000 0.000000 5.000000
      vertex 19.224797 4.050000 3.383591
      vertex 19.224797 0.000000 3.383591
    endloop
  endfacet
  facet normal -0.951057 -0.000000 -0.309017
    outer loop
      vertex 19.750000 4.050000 5.000000
      vertex 19.750000 0.000000 5.000000
      vertex 19.224797 4.050000 6.616409
    endloop
  endfacet
  facet normal -0.951057 -0.000000 -0.309017
    outer loop
      vertex 19.224797 4.050000 6.616409
      vertex 19.750000 0.000000 5.000000
      vertex 19.224797 0.000000 6.616409
    endloop
  endfacet
  facet normal -0.587785 -0.000000 -0.809017
    outer loop
      vertex 19.224797 4.050000 6.616409
      vertex 19.224797 0.000000 6.616409
      vertex 17.849797 4.050000 7.615405
    endloop
  endfacet
  facet normal -0.587785 -0.000000 -0.809017
    outer loop
      vertex 17.849797 4.050000 7.615405
      vertex 19.224797 0.000000 6.616409
      vertex 17.849797 0.000000 7.615405
    endloop
  endfacet
  facet normal 0.000000 -0.000000 -1.000000
    outer loop
      vertex 17.849797 4.050000 7.615405
      vertex 17.849797 0.000000 7.615405
      vertex 16.150203 4.050000 7.615405
    endloop
  endfacet
  facet normal 0.000000 -0.000000 -1.000000
    outer loop
      vertex 16.150203 4.050000 7.615405
      vertex 17.849797 0.000000 7.615405
      vertex 16.150203 0.000000 7.615405
    endloop
  endfacet
  facet normal 0.587785 -0.000000 -0.809017
    outer loop
      vertex 16.150203 4.050000 7.615405
      vertex 16.150203 0.000000 7.615405
      vertex 14.775203 4.050000 6.616409
    endloop
  endfacet
  facet normal 0.587785 -0.000000 -0.809017
    outer loop
      vertex 14.775203 4.050000 6.616409
      vertex 16.150203 0.000000 7.615405
      vertex 14.775203 0.000000 6.616409
    endloop
  endfacet
  facet normal 0.951057 -0.000000 -0.309017
    outer loop
      vertex 14.250000 4.050000 5.000000
      vertex 14.775203 4.050000 6.616409
      vertex 14.775203 0.000000 6.616409
    endloop
  endfacet
  facet normal 0.951057 -0.000000 -0.309017
    outer loop
      vertex 14.250000 0.000000 5.000000
      vertex 14.250000 4.050000 5.000000
      vertex 14.775203 0.000000 6.616409
    endloop
  endfacet
  facet normal 0.000000 1.000000 -0.000000
    outer loop
      vertex 16.150203 4.050000 2.384595
      vertex 23.300000 4.050000 0.000000
      vertex 10.225324 4.050000 0.000000
    endloop
  endfacet
  facet normal 0.000000 1.000000 -0.000000
    outer loop
      vertex 19.224797 4.050000 3.383591
      vertex 23.300000 4.050000 0.000000
      vertex 17.849797 4.050000 2.384595
    endloop
  endfacet
  facet normal 0.000000 1.000000 -0.000000
    outer loop
      vertex 10.225324 4.050000 10.000000
      vertex 14.775203 4.050000 3.383591
      vertex 10.225324 4.050000 0.000000
    endloop
  endfacet
  facet normal 0.000000 1.000000 -0.000000
    outer loop
      vertex 14.775203 4.050000 3.383591
      vertex 16.150203 4.050000 2.384595
      vertex 10.225324 4.050000 0.000000
    endloop
  endfacet
  facet normal 0.000000 1.000000 0.000000
    outer loop
      vertex 23.300000 4.050000 10.000000
      vertex 23.300000 4.050000 0.000000
      vertex 19.224797 4.050000 3.383591
    endloop
  endfacet
  facet normal 0.000000 1.000000 0.000000
    outer loop
      vertex 23.300000 4.050000 10.000000
      vertex 19.224797 4.050000 3.383591
      vertex 19.750000 4.050000 5.000000
    endloop
  endfacet
  facet normal 0.000000 1.000000 0.000000
    outer loop
      vertex 23.300000 4.050000 10.000000
      vertex 19.750000 4.050000 5.000000
      vertex 19.224797 4.050000 6.616409
    endloop
  endfacet
  facet normal 0.000000 1.000000 0.000000
    outer loop
      vertex 23.300000 4.050000 10.000000
      vertex 19.224797 4.050000 6.616409
      vertex 17.849797 4.050000 7.615405
    endloop
  endfacet
  facet normal 0.000000 1.000000 0.000000
    outer loop
      vertex 23.300000 4.050000 10.000000
      vertex 17.849797 4.050000 7.615405
      vertex 10.225324 4.050000 10.000000
    endloop
  endfacet
  facet normal 0.000000 1.000000 0.000000
    outer loop
      vertex 14.775203 4.050000 6.616409
      vertex 10.225324 4.050000 10.000000
      vertex 16.150203 4.050000 7.615405
    endloop
  endfacet
  facet normal 0.000000 1.000000 0.000000
    outer loop
      vertex 16.150203 4.050000 7.615405
      vertex 10.225324 4.050000 10.000000
      vertex 17.849797 4.050000 7.615405
    endloop
  endfacet
  facet normal 0.000000 1.000000 0.000000
    outer loop
      vertex 14.250000 4.050000 5.000000
      vertex 10.225324 4.050000 10.000000
      vertex 14.775203 4.050000 6.616409
    endloop
  endfacet
  facet normal 0.000000 1.000000 0.000000
    outer loop
      vertex 10.225324 4.050000 10.000000
      vertex 14.250000 4.050000 5.000000
      vertex 14.775203 4.050000 3.383591
    endloop
  endfacet
  facet normal 0.000000 1.000000 -0.000000
    outer loop
      vertex 17.849797 4.050000 2.384595
      vertex 23.300000 4.050000 0.000000
      vertex 16.150203 4.050000 2.384595
    endloop
  endfacet
  facet normal -0.642788 0.766044 0.000000
    outer loop
      vertex 10.225324 4.050000 10.000000
      vertex 10.225324 4.050000 0.000000
      vertex 10.050000 3.902886 10.000000
    endloop
  endfacet
  facet normal -0.642788 0.766044 0.000000
    outer loop
      vertex 10.050000 3.902886 10.000000
      vertex 10.225324 4.050000 0.000000
      vertex 10.050000 3.902886 0.000000
    endloop
  endfacet
  facet normal -0.342020 0.939693 0.000000
    outer loop
      vertex 10.050000 3.902886 10.000000
      vertex 10.050000 3.902886 0.000000
      vertex 8.581417 3.368365 10.000000
    endloop
  endfacet
  facet normal -0.342020 0.939693 0.000000
    outer loop
      vertex 8.581417 3.368365 10.000000
      vertex 10.050000 3.902886 0.000000
      vertex 8.581417 3.368365 0.000000
    endloop
  endfacet
  facet normal 0.000000 1.000000 0.000000
    outer loop
      vertex 8.581417 3.368365 10.000000
      vertex 8.581417 3.368365 0.000000
      vertex 7.018583 3.368365 10.000000
    endloop
  endfacet
  facet normal 0.000000 1.000000 -0.000000
    outer loop
      vertex 7.018583 3.368365 10.000000
      vertex 8.581417 3.368365 0.000000
      vertex 7.018583 3.368365 0.000000
    endloop
  endfacet
  facet normal 0.342020 0.939693 -0.000000
    outer loop
      vertex 7.018583 3.368365 10.000000
      vertex 7.018583 3.368365 0.000000
      vertex 5.550000 3.902886 10.000000
    endloop
  endfacet
  facet normal 0.342020 0.939693 -0.000000
    outer loop
      vertex 5.550000 3.902886 10.000000
      vertex 7.018583 3.368365 0.000000
      vertex 5.550000 3.902886 0.000000
    endloop
  endfacet
  facet normal 0.642788 0.766044 -0.000000
    outer loop
      vertex 5.550000 3.902886 10.000000
      vertex 5.550000 3.902886 0.000000
      vertex 4.352800 4.907456 10.000000
    endloop
  endfacet
  facet normal 0.642788 0.766044 -0.000000
    outer loop
      vertex 4.352800 4.907456 10.000000
      vertex 5.550000 3.902886 0.000000
      vertex 4.352800 4.907456 0.000000
    endloop
  endfacet
  facet normal 0.866025 0.500000 0.000000
    outer loop
      vertex 3.571383 6.260909 10.000000
      vertex 4.352800 4.907456 10.000000
      vertex 4.352800 4.907456 0.000000
    endloop
  endfacet
  facet normal 0.866025 0.500000 0.000000
    outer loop
      vertex 3.571383 6.260909 0.000000
      vertex 3.571383 6.260909 10.000000
      vertex 4.352800 4.907456 0.000000
    endloop
  endfacet
  facet normal 0.984808 0.173648 0.000000
    outer loop
      vertex 3.300000 7.800000 10.000000
      vertex 3.571383 6.260909 10.000000
      vertex 3.571383 6.260909 0.000000
    endloop
  endfacet
  facet normal 0.984808 0.173648 0.000000
    outer loop
      vertex 3.300000 7.800000 0.000000
      vertex 3.300000 7.800000 10.000000
      vertex 3.571383 6.260909 0.000000
    endloop
  endfacet
  facet normal 0.984808 -0.173648 0.000000
    outer loop
      vertex 3.571383 9.339091 0.000000
      vertex 3.571383 9.339091 10.000000
      vertex 3.300000 7.800000 10.000000
    endloop
  endfacet
  facet normal 0.984808 -0.173648 0.000000
    outer loop
      vertex 3.300000 7.800000 0.000000
      vertex 3.571383 9.339091 0.000000
      vertex 3.300000 7.800000 10.000000
    endloop
  endfacet
  facet normal 0.866025 -0.500000 0.000000
    outer loop
      vertex 4.352800 10.692544 0.000000
      vertex 4.352800 10.692544 10.000000
      vertex 3.571383 9.339091 10.000000
    endloop
  endfacet
  facet normal 0.866025 -0.500000 0.000000
    outer loop
      vertex 3.571383 9.339091 0.000000
      vertex 4.352800 10.692544 0.000000
      vertex 3.571383 9.339091 10.000000
    endloop
  endfacet
  facet normal 0.642788 -0.766044 0.000000
    outer loop
      vertex 5.550000 11.697114 0.000000
      vertex 5.550000 11.697114 10.000000
      vertex 4.352800 10.692544 10.000000
    endloop
  endfacet
  facet normal 0.642788 -0.766044 0.000000
    outer loop
      vertex 4.352800 10.692544 0.000000
      vertex 5.550000 11.697114 0.000000
      vertex 4.352800 10.692544 10.000000
    endloop
  endfacet
  facet normal 0.342020 -0.939693 0.000000
    outer loop
      vertex 7.018583 12.231635 0.000000
      vertex 7.018583 12.231635 10.000000
      vertex 5.550000 11.697114 10.000000
    endloop
  endfacet
  facet normal 0.342020 -0.939693 0.000000
    outer loop
      vertex 5.550000 11.697114 0.000000
      vertex 7.018583 12.231635 0.000000
      vertex 5.550000 11.697114 10.000000
    endloop
  endfacet
  facet normal 0.000000 -1.000000 0.000000
    outer loop
      vertex 8.581417 12.231635 0.000000
      vertex 8.581417 12.231635 10.000000
      vertex 7.018583 12.231635 10.000000
    endloop
  endfacet
  facet normal -0.000000 -1.000000 -0.000000
    outer loop
      vertex 7.018583 12.231635 0.000000
      vertex 8.581417 12.231635 0.000000
      vertex 7.018583 12.231635 10.000000
    endloop
  endfacet
  facet normal -0.342020 -0.939693 -0.000000
    outer loop
      vertex 10.050000 11.697114 0.000000
      vertex 10.050000 11.697114 10.000000
      vertex 8.581417 12.231635 10.000000
    endloop
  endfacet
  facet normal -0.342020 -0.939693 -0.000000
    outer loop
      vertex 8.581417 12.231635 0.000000
      vertex 10.050000 11.697114 0.000000
      vertex 8.581417 12.231635 10.000000
    endloop
  endfacet
  facet normal -0.642788 -0.766044 -0.000000
    outer loop
      vertex 10.225324 11.550000 0.000000
      vertex 10.225324 11.550000 10.000000
      vertex 10.050000 11.697114 10.000000
    endloop
  endfacet
  facet normal -0.642788 -0.766044 -0.000000
    outer loop
      vertex 10.050000 11.697114 0.000000
      vertex 10.225324 11.550000 0.000000
      vertex 10.050000 11.697114 10.000000
    endloop
  endfacet
  facet normal 0.000000 -1.000000 -0.000000
    outer loop
      vertex 16.150203 11.550000 7.615405
      vertex 23.300000 11.550000 10.000000
      vertex 10.225324 11.550000 10.000000
    endloop
  endfacet
  facet normal -0.000000 -1.000000 0.000000
    outer loop
      vertex 16.150203 11.550000 7.615405
      vertex 17.849797 11.550000 7.615405
      vertex 23.300000 11.550000 10.000000
    endloop
  endfacet
  facet normal 0.000000 -1.000000 -0.000000
    outer loop
      vertex 10.225324 11.550000 0.000000
      vertex 14.250000 11.550000 5.000000
      vertex 10.225324 11.550000 10.000000
    endloop
  endfacet
  facet normal 0.000000 -1.000000 -0.000000
    outer loop
      vertex 14.775203 11.550000 6.616409
      vertex 16.150203 11.550000 7.615405
      vertex 10.225324 11.550000 10.000000
    endloop
  endfacet
  facet normal 0.000000 -1.000000 0.000000
    outer loop
      vertex 19.750000 11.550000 5.000000
      vertex 19.224797 11.550000 3.383591
      vertex 23.300000 11.550000 0.000000
    endloop
  endfacet
  facet normal 0.000000 -1.000000 -0.000000
    outer loop
      vertex 19.224797 11.550000 6.616409
      vertex 23.300000 11.550000 10.000000
      vertex 17.849797 11.550000 7.615405
    endloop
  endfacet
  facet normal 0.000000 -1.000000 0.000000
    outer loop
      vertex 23.300000 11.550000 0.000000
      vertex 23.300000 11.550000 10.000000
      vertex 19.224797 11.550000 6.616409
    endloop
  endfacet
  facet normal 0.000000 -1.000000 0.000000
    outer loop
      vertex 23.300000 11.550000 0.000000
      vertex 19.224797 11.550000 6.616409
      vertex 19.750000 11.550000 5.000000
    endloop
  endfacet
  facet normal -0.000000 -1.000000 0.000000
    outer loop
      vertex 10.225324 11.550000 0.000000
      vertex 23.300000 11.550000 0.000000
      vertex 17.849797 11.550000 2.384595
    endloop
  endfacet
  facet normal 0.000000 -1.000000 0.000000
    outer loop
      vertex 10.225324 11.550000 0.000000
      vertex 17.849797 11.550000 2.384595
      vertex 16.150203 11.550000 2.384595
    endloop
  endfacet
  facet normal 0.000000 -1.000000 0.000000
    outer loop
      vertex 10.225324 11.550000 0.000000
      vertex 14.775203 11.550000 3.383591
      vertex 14.250000 11.550000 5.000000
    endloop
  endfacet
  facet normal 0.000000 -1.000000 0.000000
    outer loop
      vertex 10.225324 11.550000 0.000000
      vertex 16.150203 11.550000 2.384595
      vertex 14.775203 11.550000 3.383591
    endloop
  endfacet
  facet normal 0.000000 -1.000000 -0.000000
    outer loop
      vertex 14.250000 11.550000 5.000000
      vertex 14.775203 11.550000 6.616409
      vertex 10.225324 11.550000 10.000000
    endloop
  endfacet
  facet normal 0.000000 -1.000000 0.000000
    outer loop
      vertex 19.224797 11.550000 3.383591
      vertex 17.849797 11.550000 2.384595
      vertex 23.300000 11.550000 0.000000
    endloop
  endfacet
  facet normal 1.000000 0.000000 -0.000000
    outer loop
      vertex 23.300000 11.550000 10.000000
      vertex 23.300000 11.550000 0.000000
      vertex 23.300000 15.600000 0.000000
    endloop
  endfacet
  facet normal 1.000000 0.000000 0.000000
    outer loop
      vertex 23.300000 15.600000 10.000000
      vertex 23.300000 11.550000 10.000000
      vertex 23.300000 15.600000 0.000000
    endloop
  endfacet
  facet normal 0.000000 1.000000 -0.000000
    outer loop
      vertex 17.849797 15.600000 2.384595
      vertex 23.300000 15.600000 0.000000
      vertex 16.150203 15.600000 2.384595
    endloop
  endfacet
  facet normal 0.000000 1.000000 0.000000
    outer loop
      vertex 17.849797 15.600000 7.615405
      vertex 7.800000 15.600000 10.000000
      vertex 23.300000 15.600000 10.000000
    endloop
  endfacet
  facet normal 0.000000 1.000000 0.000000
    outer loop
      vertex 7.800000 15.600000 0.000000
      vertex 7.800000 15.600000 10.000000
      vertex 14.250000 15.600000 5.000000
    endloop
  endfacet
  facet normal 0.000000 1.000000 0.000000
    outer loop
      vertex 7.800000 15.600000 0.000000
      vertex 14.250000 15.600000 5.000000
      vertex 14.775203 15.600000 3.383591
    endloop
  endfacet
  facet normal 0.000000 1.000000 0.000000
    outer loop
      vertex 7.800000 15.600000 0.000000
      vertex 14.775203 15.600000 3.383591
      vertex 16.150203 15.600000 2.384595
    endloop
  endfacet
  facet normal 0.000000 1.000000 0.000000
    outer loop
      vertex 7.800000 15.600000 0.000000
      vertex 16.150203 15.600000 2.384595
      vertex 23.300000 15.600000 0.000000
    endloop
  endfacet
  facet normal 0.000000 1.000000 -0.000000
    outer loop
      vertex 19.224797 15.600000 3.383591
      vertex 23.300000 15.600000 0.000000
      vertex 17.849797 15.600000 2.384595
    endloop
  endfacet
  facet normal 0.000000 1.000000 0.000000
    outer loop
      vertex 23.300000 15.600000 0.000000
      vertex 19.224797 15.600000 3.383591
      vertex 23.300000 15.600000 10.000000
    endloop
  endfacet
  facet normal 0.000000 1.000000 0.000000
    outer loop
      vertex 19.224797 15.600000 3.383591
      vertex 19.750000 15.600000 5.000000
      vertex 23.300000 15.600000 10.000000
    endloop
  endfacet
  facet normal 0.000000 1.000000 0.000000
    outer loop
      vertex 19.750000 15.600000 5.000000
      vertex 19.224797 15.600000 6.616409
      vertex 23.300000 15.600000 10.000000
    endloop
  endfacet
  facet normal 0.000000 1.000000 0.000000
    outer loop
      vertex 16.150203 15.600000 7.615405
      vertex 7.800000 15.600000 10.000000
      vertex 17.849797 15.600000 7.615405
    endloop
  endfacet
  facet normal 0.000000 1.000000 0.000000
    outer loop
      vertex 19.224797 15.600000 6.616409
      vertex 17.849797 15.600000 7.615405
      vertex 23.300000 15.600000 10.000000
    endloop
  endfacet
  facet normal 0.000000 1.000000 0.000000
    outer loop
      vertex 14.250000 15.600000 5.000000
      vertex 7.800000 15.600000 10.000000
      vertex 14.775203 15.600000 6.616409
    endloop
  endfacet
  facet normal 0.000000 1.000000 0.000000
    outer loop
      vertex 14.775203 15.600000 6.616409
      vertex 7.800000 15.600000 10.000000
      vertex 16.150203 15.600000 7.615405
    endloop
  endfacet
  facet normal -0.156434 0.987688 0.000000
    outer loop
      vertex 5.389667 15.218241 0.000000
      vertex 5.389667 15.218241 10.000000
      vertex 7.800000 15.600000 0.000000
    endloop
  endfacet
  facet normal -0.156434 0.987688 0.000000
    outer loop
      vertex 7.800000 15.600000 0.000000
      vertex 5.389667 15.218241 10.000000
      vertex 7.800000 15.600000 10.000000
    endloop
  endfacet
  facet normal -0.453990 0.891007 0.000000
    outer loop
      vertex 3.215275 14.110333 0.000000
      vertex 3.215275 14.110333 10.000000
      vertex 5.389667 15.218241 0.000000
    endloop
  endfacet
  facet normal -0.453990 0.891007 0.000000
    outer loop
      vertex 5.389667 15.218241 0.000000
      vertex 3.215275 14.110333 10.000000
      vertex 5.389667 15.218241 10.000000
    endloop
  endfacet
  facet normal -0.707107 0.707107 0.000000
    outer loop
      vertex 1.489667 12.384725 0.000000
      vertex 1.489667 12.384725 10.000000
      vertex 3.215275 14.110333 0.000000
    endloop
  endfacet
  facet normal -0.707107 0.707107 0.000000
    outer loop
      vertex 3.215275 14.110333 0.000000
      vertex 1.489667 12.384725 10.000000
      vertex 3.215275 14.110333 10.000000
    endloop
  endfacet
  facet normal -0.891007 0.453990 0.000000
    outer loop
      vertex 0.381759 10.210333 0.000000
      vertex 0.381759 10.210333 10.000000
      vertex 1.489667 12.384725 0.000000
    endloop
  endfacet
  facet normal -0.891007 0.453990 0.000000
    outer loop
      vertex 1.489667 12.384725 0.000000
      vertex 0.381759 10.210333 10.000000
      vertex 1.489667 12.384725 10.000000
    endloop
  endfacet
  facet normal -0.987688 0.156434 0.000000
    outer loop
      vertex 0.000000 7.800000 0.000000
      vertex 0.000000 7.800000 10.000000
      vertex 0.381759 10.210333 0.000000
    endloop
  endfacet
  facet normal -0.987688 0.156434 0.000000
    outer loop
      vertex 0.381759 10.210333 0.000000
      vertex 0.000000 7.800000 10.000000
      vertex 0.381759 10.210333 10.000000
    endloop
  endfacet
  facet normal -0.987688 -0.156434 -0.000000
    outer loop
      vertex 0.000000 7.800000 0.000000
      vertex 0.381759 5.389667 0.000000
      vertex 0.000000 7.800000 10.000000
    endloop
  endfacet
  facet normal -0.987688 -0.156434 0.000000
    outer loop
      vertex 0.000000 7.800000 10.000000
      vertex 0.381759 5.389667 0.000000
      vertex 0.381759 5.389667 10.000000
    endloop
  endfacet
  facet normal -0.891007 -0.453990 -0.000000
    outer loop
      vertex 0.381759 5.389667 0.000000
      vertex 1.089830 4.000000 0.000000
      vertex 0.381759 5.389667 10.000000
    endloop
  endfacet
  facet normal -0.891007 -0.453990 0.000000
    outer loop
      vertex 0.381759 5.389667 10.000000
      vertex 1.089830 4.000000 0.000000
      vertex 1.089830 4.000000 10.000000
    endloop
  endfacet
  facet normal 0.951057 0.000000 -0.309017
    outer loop
      vertex 14.250000 15.600000 5.000000
      vertex 14.775203 15.600000 6.616409
      vertex 14.775203 11.550000 6.616409
    endloop
  endfacet
  facet normal 0.951057 0.000000 -0.309017
    outer loop
      vertex 14.250000 11.550000 5.000000
      vertex 14.250000 15.600000 5.000000
      vertex 14.775203 11.550000 6.616409
    endloop
  endfacet
  facet normal 0.951057 0.000000 0.309017
    outer loop
      vertex 14.775203 11.550000 3.383591
      vertex 14.775203 15.600000 3.383591
      vertex 14.250000 15.600000 5.000000
    endloop
  endfacet
  facet normal 0.951057 0.000000 0.309017
    outer loop
      vertex 14.250000 11.550000 5.000000
      vertex 14.775203 11.550000 3.383591
      vertex 14.250000 15.600000 5.000000
    endloop
  endfacet
  facet normal 0.587785 0.000000 0.809017
    outer loop
      vertex 16.150203 11.550000 2.384595
      vertex 16.150203 15.600000 2.384595
      vertex 14.775203 15.600000 3.383591
    endloop
  endfacet
  facet normal 0.587785 0.000000 0.809017
    outer loop
      vertex 14.775203 11.550000 3.383591
      vertex 16.150203 11.550000 2.384595
      vertex 14.775203 15.600000 3.383591
    endloop
  endfacet
  facet normal 0.000000 0.000000 1.000000
    outer loop
      vertex 17.849797 11.550000 2.384595
      vertex 17.849797 15.600000 2.384595
      vertex 16.150203 15.600000 2.384595
    endloop
  endfacet
  facet normal 0.000000 0.000000 1.000000
    outer loop
      vertex 16.150203 11.550000 2.384595
      vertex 17.849797 11.550000 2.384595
      vertex 16.150203 15.600000 2.384595
    endloop
  endfacet
  facet normal -0.587785 0.000000 0.809017
    outer loop
      vertex 19.224797 11.550000 3.383591
      vertex 19.224797 15.600000 3.383591
      vertex 17.849797 15.600000 2.384595
    endloop
  endfacet
  facet normal -0.587785 0.000000 0.809017
    outer loop
      vertex 17.849797 11.550000 2.384595
      vertex 19.224797 11.550000 3.383591
      vertex 17.849797 15.600000 2.384595
    endloop
  endfacet
  facet normal -0.951057 0.000000 0.309017
    outer loop
      vertex 19.750000 15.600000 5.000000
      vertex 19.224797 15.600000 3.383591
      vertex 19.750000 11.550000 5.000000
    endloop
  endfacet
  facet normal -0.951057 0.000000 0.309017
    outer loop
      vertex 19.750000 11.550000 5.000000
      vertex 19.224797 15.600000 3.383591
      vertex 19.224797 11.550000 3.383591
    endloop
  endfacet
  facet normal -0.951057 0.000000 -0.309017
    outer loop
      vertex 19.750000 15.600000 5.000000
      vertex 19.750000 11.550000 5.000000
      vertex 19.224797 15.600000 6.616409
    endloop
  endfacet
  facet normal -0.951057 0.000000 -0.309017
    outer loop
      vertex 19.224797 15.600000 6.616409
      vertex 19.750000 11.550000 5.000000
      vertex 19.224797 11.550000 6.616409
    endloop
  endfacet
  facet normal -0.587785 0.000000 -0.809017
    outer loop
      vertex 19.224797 15.600000 6.616409
      vertex 19.224797 11.550000 6.616409
      vertex 17.849797 15.600000 7.615405
    endloop
  endfacet
  facet normal -0.587785 0.000000 -0.809017
    outer loop
      vertex 17.849797 15.600000 7.615405
      vertex 19.224797 11.550000 6.616409
      vertex 17.849797 11.550000 7.615405
    endloop
  endfacet
  facet normal 0.000000 0.000000 -1.000000
    outer loop
      vertex 17.849797 15.600000 7.615405
      vertex 17.849797 11.550000 7.615405
      vertex 16.150203 15.600000 7.615405
    endloop
  endfacet
  facet normal 0.000000 0.000000 -1.000000
    outer loop
      vertex 16.150203 15.600000 7.615405
      vertex 17.849797 11.550000 7.615405
      vertex 16.150203 11.550000 7.615405
    endloop
  endfacet
  facet normal 0.587785 0.000000 -0.809017
    outer loop
      vertex 16.150203 15.600000 7.615405
      vertex 16.150203 11.550000 7.615405
      vertex 14.775203 15.600000 6.616409
    endloop
  endfacet
  facet normal 0.587785 0.000000 -0.809017
    outer loop
      vertex 14.775203 15.600000 6.616409
      vertex 16.150203 11.550000 7.615405
      vertex 14.775203 11.550000 6.616409
    endloop
  endfacet
endsolid OpenSCAD_Model
