solid OpenSCAD_Model
  facet normal -0.866045 0.499966 0.000000
    outer loop
      vertex 0.000000 59.201000 0.000000
      vertex 0.000000 59.201000 13.900000
      vertex 5.986000 69.570000 0.000000
    endloop
  endfacet
  facet normal -0.866045 0.499966 0.000000
    outer loop
      vertex 5.986000 69.570000 0.000000
      vertex 0.000000 59.201000 13.900000
      vertex 5.986000 69.570000 13.900000
    endloop
  endfacet
  facet normal -0.962595 -0.270946 -0.000000
    outer loop
      vertex 0.000000 59.201000 0.000000
      vertex 3.405000 47.104000 0.000000
      vertex 0.000000 59.201000 13.900000
    endloop
  endfacet
  facet normal -0.962595 -0.270946 0.000000
    outer loop
      vertex 0.000000 59.201000 13.900000
      vertex 3.405000 47.104000 0.000000
      vertex 3.405000 47.104000 13.900000
    endloop
  endfacet
  facet normal -0.000000 0.000000 -1.000000
    outer loop
      vertex 0.000000 59.201000 0.000000
      vertex 5.986000 69.570000 0.000000
      vertex 3.405000 47.104000 0.000000
    endloop
  endfacet
  facet normal 0.000000 -0.000000 -1.000000
    outer loop
      vertex 7.512821 63.412179 0.000000
      vertex 5.986000 69.570000 0.000000
      vertex 18.277000 72.863000 0.000000
    endloop
  endfacet
  facet normal 0.000000 0.000000 -1.000000
    outer loop
      vertex 15.963000 59.912000 0.000000
      vertex 18.277000 72.863000 0.000000
      vertex 38.110000 61.413000 0.000000
    endloop
  endfacet
  facet normal -0.000000 0.000000 -1.000000
    outer loop
      vertex 3.405000 47.104000 0.000000
      vertex 38.110000 61.413000 0.000000
      vertex 55.351000 31.551000 0.000000
    endloop
  endfacet
  facet normal 0.000000 0.000000 -1.000000
    outer loop
      vertex 20.739000 37.097000 0.000000
      vertex 55.351000 31.551000 0.000000
      vertex 55.351000 9.050000 0.000000
    endloop
  endfacet
  facet normal -0.000000 0.000000 -1.000000
    outer loop
      vertex 43.774179 5.748821 0.000000
      vertex 55.351000 9.050000 0.000000
      vertex 46.301000 0.000000 0.000000
    endloop
  endfacet
  facet normal 0.000000 0.000000 -1.000000
    outer loop
      vertex 36.773821 5.748821 0.000000
      vertex 46.301000 0.000000 0.000000
      vertex 34.379000 0.000000 0.000000
    endloop
  endfacet
  facet normal 0.000000 0.000000 -1.000000
    outer loop
      vertex 3.405000 47.104000 0.000000
      vertex 55.351000 31.551000 0.000000
      vertex 20.739000 37.097000 0.000000
    endloop
  endfacet
  facet normal 0.000000 0.000000 -1.000000
    outer loop
      vertex 11.013000 54.962000 0.000000
      vertex 3.405000 47.104000 0.000000
      vertex 7.512821 56.411821 0.000000
    endloop
  endfacet
  facet normal 0.000000 0.000000 -1.000000
    outer loop
      vertex 3.405000 47.104000 0.000000
      vertex 5.986000 69.570000 0.000000
      vertex 6.063000 59.912000 0.000000
    endloop
  endfacet
  facet normal 0.000000 0.000000 -1.000000
    outer loop
      vertex 3.405000 47.104000 0.000000
      vertex 6.063000 59.912000 0.000000
      vertex 7.512821 56.411821 0.000000
    endloop
  endfacet
  facet normal -0.000000 0.000000 -1.000000
    outer loop
      vertex 14.513179 63.412179 0.000000
      vertex 18.277000 72.863000 0.000000
      vertex 15.963000 59.912000 0.000000
    endloop
  endfacet
  facet normal 0.000000 0.000000 -1.000000
    outer loop
      vertex 3.405000 47.104000 0.000000
      vertex 11.013000 54.962000 0.000000
      vertex 38.110000 61.413000 0.000000
    endloop
  endfacet
  facet normal -0.000000 0.000000 -1.000000
    outer loop
      vertex 11.013000 64.862000 0.000000
      vertex 18.277000 72.863000 0.000000
      vertex 14.513179 63.412179 0.000000
    endloop
  endfacet
  facet normal 0.000000 0.000000 -1.000000
    outer loop
      vertex 11.013000 54.962000 0.000000
      vertex 14.513179 56.411821 0.000000
      vertex 38.110000 61.413000 0.000000
    endloop
  endfacet
  facet normal 0.000000 0.000000 -1.000000
    outer loop
      vertex 14.513179 56.411821 0.000000
      vertex 15.963000 59.912000 0.000000
      vertex 38.110000 61.413000 0.000000
    endloop
  endfacet
  facet normal 0.000000 0.000000 -1.000000
    outer loop
      vertex 7.512821 63.412179 0.000000
      vertex 18.277000 72.863000 0.000000
      vertex 11.013000 64.862000 0.000000
    endloop
  endfacet
  facet normal 0.000000 -0.000000 -1.000000
    outer loop
      vertex 6.063000 59.912000 0.000000
      vertex 5.986000 69.570000 0.000000
      vertex 7.512821 63.412179 0.000000
    endloop
  endfacet
  facet normal 0.000000 0.000000 -1.000000
    outer loop
      vertex 43.774179 5.748821 0.000000
      vertex 46.301000 0.000000 0.000000
      vertex 40.274000 4.299000 0.000000
    endloop
  endfacet
  facet normal 0.000000 0.000000 -1.000000
    outer loop
      vertex 40.274000 4.299000 0.000000
      vertex 46.301000 0.000000 0.000000
      vertex 36.773821 5.748821 0.000000
    endloop
  endfacet
  facet normal 0.000000 0.000000 -1.000000
    outer loop
      vertex 35.324000 9.249000 0.000000
      vertex 36.773821 5.748821 0.000000
      vertex 34.379000 0.000000 0.000000
    endloop
  endfacet
  facet normal 0.000000 0.000000 -1.000000
    outer loop
      vertex 45.224000 9.249000 0.000000
      vertex 55.351000 9.050000 0.000000
      vertex 43.774179 5.748821 0.000000
    endloop
  endfacet
  facet normal -0.000000 -0.000000 -1.000000
    outer loop
      vertex 40.274000 14.199000 0.000000
      vertex 25.199000 29.471000 0.000000
      vertex 43.774179 12.749179 0.000000
    endloop
  endfacet
  facet normal 0.000000 0.000000 -1.000000
    outer loop
      vertex 43.774179 12.749179 0.000000
      vertex 55.351000 9.050000 0.000000
      vertex 45.224000 9.249000 0.000000
    endloop
  endfacet
  facet normal 0.000000 0.000000 -1.000000
    outer loop
      vertex 25.199000 29.471000 0.000000
      vertex 55.351000 9.050000 0.000000
      vertex 43.774179 12.749179 0.000000
    endloop
  endfacet
  facet normal 0.000000 -0.000000 -1.000000
    outer loop
      vertex 36.773821 12.749179 0.000000
      vertex 25.199000 29.471000 0.000000
      vertex 40.274000 14.199000 0.000000
    endloop
  endfacet
  facet normal 0.000000 0.000000 -1.000000
    outer loop
      vertex 20.739000 37.097000 0.000000
      vertex 55.351000 9.050000 0.000000
      vertex 25.199000 29.471000 0.000000
    endloop
  endfacet
  facet normal 0.000000 0.000000 -1.000000
    outer loop
      vertex 25.199000 29.471000 0.000000
      vertex 36.773821 12.749179 0.000000
      vertex 35.324000 9.249000 0.000000
    endloop
  endfacet
  facet normal 0.000000 0.000000 -1.000000
    outer loop
      vertex 25.199000 29.471000 0.000000
      vertex 35.324000 9.249000 0.000000
      vertex 34.379000 0.000000 0.000000
    endloop
  endfacet
  facet normal 0.000000 0.000000 -1.000000
    outer loop
      vertex 25.199000 29.471000 0.000000
      vertex 34.379000 0.000000 0.000000
      vertex 25.199000 9.180000 0.000000
    endloop
  endfacet
  facet normal -0.258792 0.965933 0.000000
    outer loop
      vertex 5.986000 69.570000 0.000000
      vertex 5.986000 69.570000 13.900000
      vertex 18.277000 72.863000 0.000000
    endloop
  endfacet
  facet normal -0.258792 0.965933 0.000000
    outer loop
      vertex 18.277000 72.863000 0.000000
      vertex 5.986000 69.570000 13.900000
      vertex 18.277000 72.863000 13.900000
    endloop
  endfacet
  facet normal 0.000000 0.000000 1.000000
    outer loop
      vertex 5.986000 69.570000 13.900000
      vertex 0.000000 59.201000 13.900000
      vertex 3.405000 47.104000 13.900000
    endloop
  endfacet
  facet normal -0.000000 0.000000 1.000000
    outer loop
      vertex 6.063000 59.912000 13.900000
      vertex 5.986000 69.570000 13.900000
      vertex 3.405000 47.104000 13.900000
    endloop
  endfacet
  facet normal 0.000000 -0.000000 1.000000
    outer loop
      vertex 14.513179 56.411821 13.900000
      vertex 11.013000 54.962000 13.900000
      vertex 20.739000 37.097000 13.900000
    endloop
  endfacet
  facet normal 0.000000 0.000000 1.000000
    outer loop
      vertex 34.379000 0.000000 13.900000
      vertex 25.199000 29.471000 13.900000
      vertex 25.199000 9.180000 13.900000
    endloop
  endfacet
  facet normal -0.000000 0.000000 1.000000
    outer loop
      vertex 36.773821 5.748821 13.900000
      vertex 25.199000 29.471000 13.900000
      vertex 34.379000 0.000000 13.900000
    endloop
  endfacet
  facet normal 0.000000 0.000000 1.000000
    outer loop
      vertex 14.513179 56.411821 13.900000
      vertex 20.739000 37.097000 13.900000
      vertex 25.199000 29.471000 13.900000
    endloop
  endfacet
  facet normal 0.000000 -0.000000 1.000000
    outer loop
      vertex 15.963000 59.912000 13.900000
      vertex 14.513179 56.411821 13.900000
      vertex 55.351000 9.050000 13.900000
    endloop
  endfacet
  facet normal 0.000000 -0.000000 1.000000
    outer loop
      vertex 18.277000 72.863000 13.900000
      vertex 5.986000 69.570000 13.900000
      vertex 38.110000 61.413000 13.900000
    endloop
  endfacet
  facet normal 0.000000 0.000000 1.000000
    outer loop
      vertex 20.739000 37.097000 13.900000
      vertex 7.512821 56.411821 13.900000
      vertex 3.405000 47.104000 13.900000
    endloop
  endfacet
  facet normal -0.000000 0.000000 1.000000
    outer loop
      vertex 7.512821 56.411821 13.900000
      vertex 6.063000 59.912000 13.900000
      vertex 3.405000 47.104000 13.900000
    endloop
  endfacet
  facet normal 0.000000 -0.000000 1.000000
    outer loop
      vertex 45.224000 9.249000 13.900000
      vertex 43.774179 5.748821 13.900000
      vertex 46.301000 0.000000 13.900000
    endloop
  endfacet
  facet normal 0.000000 0.000000 1.000000
    outer loop
      vertex 14.513179 63.412179 13.900000
      vertex 15.963000 59.912000 13.900000
      vertex 55.351000 31.551000 13.900000
    endloop
  endfacet
  facet normal -0.000000 -0.000000 1.000000
    outer loop
      vertex 38.110000 61.413000 13.900000
      vertex 14.513179 63.412179 13.900000
      vertex 55.351000 31.551000 13.900000
    endloop
  endfacet
  facet normal 0.000000 0.000000 1.000000
    outer loop
      vertex 38.110000 61.413000 13.900000
      vertex 5.986000 69.570000 13.900000
      vertex 14.513179 63.412179 13.900000
    endloop
  endfacet
  facet normal -0.000000 0.000000 1.000000
    outer loop
      vertex 55.351000 31.551000 13.900000
      vertex 15.963000 59.912000 13.900000
      vertex 55.351000 9.050000 13.900000
    endloop
  endfacet
  facet normal 0.000000 0.000000 1.000000
    outer loop
      vertex 11.013000 64.862000 13.900000
      vertex 14.513179 63.412179 13.900000
      vertex 5.986000 69.570000 13.900000
    endloop
  endfacet
  facet normal 0.000000 0.000000 1.000000
    outer loop
      vertex 20.739000 37.097000 13.900000
      vertex 11.013000 54.962000 13.900000
      vertex 7.512821 56.411821 13.900000
    endloop
  endfacet
  facet normal -0.000000 0.000000 1.000000
    outer loop
      vertex 46.301000 0.000000 13.900000
      vertex 36.773821 5.748821 13.900000
      vertex 34.379000 0.000000 13.900000
    endloop
  endfacet
  facet normal -0.000000 -0.000000 1.000000
    outer loop
      vertex 35.324000 9.249000 13.900000
      vertex 25.199000 29.471000 13.900000
      vertex 36.773821 5.748821 13.900000
    endloop
  endfacet
  facet normal -0.000000 0.000000 1.000000
    outer loop
      vertex 36.773821 12.749179 13.900000
      vertex 25.199000 29.471000 13.900000
      vertex 35.324000 9.249000 13.900000
    endloop
  endfacet
  facet normal 0.000000 0.000000 1.000000
    outer loop
      vertex 55.351000 9.050000 13.900000
      vertex 14.513179 56.411821 13.900000
      vertex 40.274000 14.199000 13.900000
    endloop
  endfacet
  facet normal 0.000000 -0.000000 1.000000
    outer loop
      vertex 43.774179 5.748821 13.900000
      vertex 40.274000 4.299000 13.900000
      vertex 46.301000 0.000000 13.900000
    endloop
  endfacet
  facet normal 0.000000 0.000000 1.000000
    outer loop
      vertex 55.351000 9.050000 13.900000
      vertex 40.274000 14.199000 13.900000
      vertex 43.774179 12.749179 13.900000
    endloop
  endfacet
  facet normal -0.000000 0.000000 1.000000
    outer loop
      vertex 55.351000 9.050000 13.900000
      vertex 45.224000 9.249000 13.900000
      vertex 46.301000 0.000000 13.900000
    endloop
  endfacet
  facet normal 0.000000 0.000000 1.000000
    outer loop
      vertex 55.351000 9.050000 13.900000
      vertex 43.774179 12.749179 13.900000
      vertex 45.224000 9.249000 13.900000
    endloop
  endfacet
  facet normal 0.000000 0.000000 1.000000
    outer loop
      vertex 46.301000 0.000000 13.900000
      vertex 40.274000 4.299000 13.900000
      vertex 36.773821 5.748821 13.900000
    endloop
  endfacet
  facet normal 0.000000 0.000000 1.000000
    outer loop
      vertex 6.063000 59.912000 13.900000
      vertex 7.512821 63.412179 13.900000
      vertex 5.986000 69.570000 13.900000
    endloop
  endfacet
  facet normal 0.000000 0.000000 1.000000
    outer loop
      vertex 36.773821 12.749179 13.900000
      vertex 40.274000 14.199000 13.900000
      vertex 14.513179 56.411821 13.900000
    endloop
  endfacet
  facet normal 0.000000 0.000000 1.000000
    outer loop
      vertex 36.773821 12.749179 13.900000
      vertex 14.513179 56.411821 13.900000
      vertex 25.199000 29.471000 13.900000
    endloop
  endfacet
  facet normal 0.000000 0.000000 1.000000
    outer loop
      vertex 7.512821 63.412179 13.900000
      vertex 11.013000 64.862000 13.900000
      vertex 5.986000 69.570000 13.900000
    endloop
  endfacet
  facet normal -0.499970 -0.866042 -0.000000
    outer loop
      vertex 15.396013 40.181532 2.376796
      vertex 3.405000 47.104000 0.000000
      vertex 20.739000 37.097000 0.000000
    endloop
  endfacet
  facet normal -0.499970 -0.866042 -0.000000
    outer loop
      vertex 15.396013 40.181531 11.523204
      vertex 17.716072 38.842150 8.844283
      vertex 20.739000 37.097000 13.900000
    endloop
  endfacet
  facet normal -0.499970 -0.866042 0.000000
    outer loop
      vertex 3.405000 47.104000 13.900000
      vertex 3.405000 47.104000 0.000000
      vertex 9.794895 43.415084 5.055717
    endloop
  endfacet
  facet normal -0.499970 -0.866042 -0.000000
    outer loop
      vertex 12.114954 42.075702 11.523204
      vertex 3.405000 47.104000 13.900000
      vertex 9.794894 43.415084 8.844283
    endloop
  endfacet
  facet normal -0.499970 -0.866042 0.000000
    outer loop
      vertex 20.739000 37.097000 13.900000
      vertex 3.405000 47.104000 13.900000
      vertex 12.114954 42.075702 11.523204
    endloop
  endfacet
  facet normal -0.499970 -0.866042 0.000000
    outer loop
      vertex 20.739000 37.097000 13.900000
      vertex 12.114954 42.075702 11.523204
      vertex 15.396013 40.181531 11.523204
    endloop
  endfacet
  facet normal -0.499970 -0.866042 0.000000
    outer loop
      vertex 20.739000 37.097000 13.900000
      vertex 17.716072 38.842150 8.844283
      vertex 20.739000 37.097000 0.000000
    endloop
  endfacet
  facet normal -0.499970 -0.866042 0.000000
    outer loop
      vertex 17.716072 38.842150 8.844283
      vertex 17.716073 38.842150 5.055717
      vertex 20.739000 37.097000 0.000000
    endloop
  endfacet
  facet normal -0.499970 -0.866042 0.000000
    outer loop
      vertex 12.114954 42.075703 2.376796
      vertex 3.405000 47.104000 0.000000
      vertex 15.396013 40.181532 2.376796
    endloop
  endfacet
  facet normal -0.499970 -0.866042 -0.000000
    outer loop
      vertex 9.794895 43.415084 5.055717
      vertex 3.405000 47.104000 0.000000
      vertex 12.114954 42.075703 2.376796
    endloop
  endfacet
  facet normal -0.499970 -0.866042 0.000000
    outer loop
      vertex 9.794895 43.415084 5.055717
      vertex 9.794894 43.415084 8.844283
      vertex 3.405000 47.104000 13.900000
    endloop
  endfacet
  facet normal -0.499970 -0.866042 0.000000
    outer loop
      vertex 17.716073 38.842150 5.055717
      vertex 15.396013 40.181532 2.376796
      vertex 20.739000 37.097000 0.000000
    endloop
  endfacet
  facet normal -0.863212 -0.504842 -0.000000
    outer loop
      vertex 20.739000 37.097000 0.000000
      vertex 25.199000 29.471000 0.000000
      vertex 20.739000 37.097000 13.900000
    endloop
  endfacet
  facet normal -0.863212 -0.504842 0.000000
    outer loop
      vertex 20.739000 37.097000 13.900000
      vertex 25.199000 29.471000 0.000000
      vertex 25.199000 29.471000 13.900000
    endloop
  endfacet
  facet normal -1.000000 0.000000 0.000000
    outer loop
      vertex 25.199000 25.573204 5.055717
      vertex 25.199000 29.471000 0.000000
      vertex 25.199000 22.894283 2.376796
    endloop
  endfacet
  facet normal -1.000000 0.000000 -0.000000
    outer loop
      vertex 25.199000 22.894283 11.523204
      vertex 25.199000 9.180000 13.900000
      vertex 25.199000 29.471000 13.900000
    endloop
  endfacet
  facet normal -1.000000 0.000000 -0.000000
    outer loop
      vertex 25.199000 9.180000 0.000000
      vertex 25.199000 9.180000 13.900000
      vertex 25.199000 16.426796 8.844283
    endloop
  endfacet
  facet normal -1.000000 0.000000 0.000000
    outer loop
      vertex 25.199000 9.180000 0.000000
      vertex 25.199000 16.426796 8.844283
      vertex 25.199000 16.426796 5.055717
    endloop
  endfacet
  facet normal -1.000000 0.000000 0.000000
    outer loop
      vertex 25.199000 9.180000 0.000000
      vertex 25.199000 16.426796 5.055717
      vertex 25.199000 19.105717 2.376796
    endloop
  endfacet
  facet normal -1.000000 -0.000000 0.000000
    outer loop
      vertex 25.199000 9.180000 0.000000
      vertex 25.199000 19.105717 2.376796
      vertex 25.199000 29.471000 0.000000
    endloop
  endfacet
  facet normal -1.000000 0.000000 0.000000
    outer loop
      vertex 25.199000 19.105717 2.376796
      vertex 25.199000 22.894283 2.376796
      vertex 25.199000 29.471000 0.000000
    endloop
  endfacet
  facet normal -1.000000 0.000000 0.000000
    outer loop
      vertex 25.199000 29.471000 0.000000
      vertex 25.199000 25.573204 5.055717
      vertex 25.199000 29.471000 13.900000
    endloop
  endfacet
  facet normal -1.000000 0.000000 0.000000
    outer loop
      vertex 25.199000 25.573204 5.055717
      vertex 25.199000 25.573204 8.844283
      vertex 25.199000 29.471000 13.900000
    endloop
  endfacet
  facet normal -1.000000 -0.000000 -0.000000
    outer loop
      vertex 25.199000 19.105717 11.523204
      vertex 25.199000 9.180000 13.900000
      vertex 25.199000 22.894283 11.523204
    endloop
  endfacet
  facet normal -1.000000 0.000000 -0.000000
    outer loop
      vertex 25.199000 25.573204 8.844283
      vertex 25.199000 22.894283 11.523204
      vertex 25.199000 29.471000 13.900000
    endloop
  endfacet
  facet normal -1.000000 0.000000 -0.000000
    outer loop
      vertex 25.199000 16.426796 8.844283
      vertex 25.199000 9.180000 13.900000
      vertex 25.199000 19.105717 11.523204
    endloop
  endfacet
  facet normal -0.707107 -0.707107 0.000000
    outer loop
      vertex 25.199000 9.180000 13.900000
      vertex 25.199000 9.180000 0.000000
      vertex 34.379000 0.000000 0.000000
    endloop
  endfacet
  facet normal -0.707107 -0.707107 0.000000
    outer loop
      vertex 34.379000 0.000000 13.900000
      vertex 25.199000 9.180000 13.900000
      vertex 34.379000 0.000000 0.000000
    endloop
  endfacet
  facet normal 0.000000 -1.000000 0.000000
    outer loop
      vertex 34.379000 0.000000 13.900000
      vertex 34.379000 0.000000 0.000000
      vertex 46.301000 0.000000 0.000000
    endloop
  endfacet
  facet normal 0.000000 -1.000000 0.000000
    outer loop
      vertex 46.301000 0.000000 13.900000
      vertex 34.379000 0.000000 13.900000
      vertex 46.301000 0.000000 0.000000
    endloop
  endfacet
  facet normal 0.707107 -0.707107 0.000000
    outer loop
      vertex 46.301000 0.000000 13.900000
      vertex 46.301000 0.000000 0.000000
      vertex 55.351000 9.050000 0.000000
    endloop
  endfacet
  facet normal 0.707107 -0.707107 0.000000
    outer loop
      vertex 55.351000 9.050000 13.900000
      vertex 46.301000 0.000000 13.900000
      vertex 55.351000 9.050000 0.000000
    endloop
  endfacet
  facet normal 1.000000 0.000000 -0.000000
    outer loop
      vertex 55.351000 22.894283 2.376796
      vertex 55.351000 9.050000 0.000000
      vertex 55.351000 31.551000 0.000000
    endloop
  endfacet
  facet normal 1.000000 0.000000 -0.000000
    outer loop
      vertex 55.351000 9.050000 13.900000
      vertex 55.351000 9.050000 0.000000
      vertex 55.351000 16.426796 5.055717
    endloop
  endfacet
  facet normal 1.000000 0.000000 -0.000000
    outer loop
      vertex 55.351000 25.573204 8.844283
      vertex 55.351000 25.573204 5.055717
      vertex 55.351000 31.551000 0.000000
    endloop
  endfacet
  facet normal 1.000000 0.000000 0.000000
    outer loop
      vertex 55.351000 9.050000 13.900000
      vertex 55.351000 16.426796 5.055717
      vertex 55.351000 16.426796 8.844283
    endloop
  endfacet
  facet normal 1.000000 0.000000 0.000000
    outer loop
      vertex 55.351000 31.551000 13.900000
      vertex 55.351000 9.050000 13.900000
      vertex 55.351000 19.105717 11.523204
    endloop
  endfacet
  facet normal 1.000000 0.000000 -0.000000
    outer loop
      vertex 55.351000 25.573204 5.055717
      vertex 55.351000 22.894283 2.376796
      vertex 55.351000 31.551000 0.000000
    endloop
  endfacet
  facet normal 1.000000 0.000000 0.000000
    outer loop
      vertex 55.351000 31.551000 13.900000
      vertex 55.351000 19.105717 11.523204
      vertex 55.351000 22.894283 11.523204
    endloop
  endfacet
  facet normal 1.000000 0.000000 0.000000
    outer loop
      vertex 55.351000 31.551000 13.900000
      vertex 55.351000 25.573204 8.844283
      vertex 55.351000 31.551000 0.000000
    endloop
  endfacet
  facet normal 1.000000 0.000000 0.000000
    outer loop
      vertex 55.351000 31.551000 13.900000
      vertex 55.351000 22.894283 11.523204
      vertex 55.351000 25.573204 8.844283
    endloop
  endfacet
  facet normal 1.000000 0.000000 -0.000000
    outer loop
      vertex 55.351000 19.105717 2.376796
      vertex 55.351000 9.050000 0.000000
      vertex 55.351000 22.894283 2.376796
    endloop
  endfacet
  facet normal 1.000000 0.000000 -0.000000
    outer loop
      vertex 55.351000 16.426796 5.055717
      vertex 55.351000 9.050000 0.000000
      vertex 55.351000 19.105717 2.376796
    endloop
  endfacet
  facet normal 1.000000 0.000000 0.000000
    outer loop
      vertex 55.351000 16.426796 8.844283
      vertex 55.351000 19.105717 11.523204
      vertex 55.351000 9.050000 13.900000
    endloop
  endfacet
  facet normal 0.866023 0.500004 0.000000
    outer loop
      vertex 55.351000 31.551000 0.000000
      vertex 38.110000 61.413000 0.000000
      vertex 38.110000 61.413000 13.900000
    endloop
  endfacet
  facet normal 0.866023 0.500004 -0.000000
    outer loop
      vertex 55.351000 31.551000 13.900000
      vertex 55.351000 31.551000 0.000000
      vertex 38.110000 61.413000 13.900000
    endloop
  endfacet
  facet normal 0.499981 0.866037 0.000000
    outer loop
      vertex 32.587948 64.600994 5.055717
      vertex 38.110000 61.413000 0.000000
      vertex 30.267905 65.940403 2.376796
    endloop
  endfacet
  facet normal 0.499981 0.866037 -0.000000
    outer loop
      vertex 30.267905 65.940403 11.523204
      vertex 18.277000 72.863000 13.900000
      vertex 38.110000 61.413000 13.900000
    endloop
  endfacet
  facet normal 0.499981 0.866037 0.000000
    outer loop
      vertex 18.277000 72.863000 0.000000
      vertex 18.277000 72.863000 13.900000
      vertex 24.666825 69.174022 8.844283
    endloop
  endfacet
  facet normal 0.499981 0.866037 0.000000
    outer loop
      vertex 18.277000 72.863000 0.000000
      vertex 24.666825 69.174022 8.844283
      vertex 24.666825 69.174022 5.055717
    endloop
  endfacet
  facet normal 0.499981 0.866037 0.000000
    outer loop
      vertex 18.277000 72.863000 0.000000
      vertex 24.666825 69.174022 5.055717
      vertex 26.986868 67.834614 2.376796
    endloop
  endfacet
  facet normal 0.499981 0.866037 0.000000
    outer loop
      vertex 18.277000 72.863000 0.000000
      vertex 26.986868 67.834614 2.376796
      vertex 38.110000 61.413000 0.000000
    endloop
  endfacet
  facet normal 0.499981 0.866037 0.000000
    outer loop
      vertex 26.986868 67.834614 2.376796
      vertex 30.267905 65.940403 2.376796
      vertex 38.110000 61.413000 0.000000
    endloop
  endfacet
  facet normal 0.499981 0.866037 0.000000
    outer loop
      vertex 38.110000 61.413000 0.000000
      vertex 32.587948 64.600994 5.055717
      vertex 38.110000 61.413000 13.900000
    endloop
  endfacet
  facet normal 0.499981 0.866037 -0.000000
    outer loop
      vertex 32.587948 64.600994 5.055717
      vertex 32.587948 64.600995 8.844283
      vertex 38.110000 61.413000 13.900000
    endloop
  endfacet
  facet normal 0.499981 0.866037 0.000000
    outer loop
      vertex 26.986868 67.834613 11.523204
      vertex 18.277000 72.863000 13.900000
      vertex 30.267905 65.940403 11.523204
    endloop
  endfacet
  facet normal 0.499981 0.866037 -0.000000
    outer loop
      vertex 32.587948 64.600995 8.844283
      vertex 30.267905 65.940403 11.523204
      vertex 38.110000 61.413000 13.900000
    endloop
  endfacet
  facet normal 0.499981 0.866037 -0.000000
    outer loop
      vertex 24.666825 69.174022 8.844283
      vertex 18.277000 72.863000 13.900000
      vertex 26.986868 67.834613 11.523204
    endloop
  endfacet
  facet normal 0.923880 0.382683 0.000000
    outer loop
      vertex 6.063000 59.912000 13.900000
      vertex 7.512821 56.411821 13.900000
      vertex 7.512821 56.411821 0.000000
    endloop
  endfacet
  facet normal 0.923880 0.382683 0.000000
    outer loop
      vertex 6.063000 59.912000 0.000000
      vertex 6.063000 59.912000 13.900000
      vertex 7.512821 56.411821 0.000000
    endloop
  endfacet
  facet normal 0.923880 -0.382683 0.000000
    outer loop
      vertex 7.512821 63.412179 0.000000
      vertex 7.512821 63.412179 13.900000
      vertex 6.063000 59.912000 13.900000
    endloop
  endfacet
  facet normal 0.923880 -0.382683 0.000000
    outer loop
      vertex 6.063000 59.912000 0.000000
      vertex 7.512821 63.412179 0.000000
      vertex 6.063000 59.912000 13.900000
    endloop
  endfacet
  facet normal 0.382683 -0.923880 0.000000
    outer loop
      vertex 11.013000 64.862000 0.000000
      vertex 11.013000 64.862000 13.900000
      vertex 7.512821 63.412179 13.900000
    endloop
  endfacet
  facet normal 0.382683 -0.923880 0.000000
    outer loop
      vertex 7.512821 63.412179 0.000000
      vertex 11.013000 64.862000 0.000000
      vertex 7.512821 63.412179 13.900000
    endloop
  endfacet
  facet normal -0.382683 -0.923880 -0.000000
    outer loop
      vertex 14.513179 63.412179 0.000000
      vertex 14.513179 63.412179 13.900000
      vertex 11.013000 64.862000 13.900000
    endloop
  endfacet
  facet normal -0.382683 -0.923880 -0.000000
    outer loop
      vertex 11.013000 64.862000 0.000000
      vertex 14.513179 63.412179 0.000000
      vertex 11.013000 64.862000 13.900000
    endloop
  endfacet
  facet normal -0.923880 -0.382683 0.000000
    outer loop
      vertex 15.963000 59.912000 13.900000
      vertex 14.513179 63.412179 13.900000
      vertex 15.963000 59.912000 0.000000
    endloop
  endfacet
  facet normal -0.923880 -0.382683 0.000000
    outer loop
      vertex 15.963000 59.912000 0.000000
      vertex 14.513179 63.412179 13.900000
      vertex 14.513179 63.412179 0.000000
    endloop
  endfacet
  facet normal -0.923880 0.382683 0.000000
    outer loop
      vertex 15.963000 59.912000 13.900000
      vertex 15.963000 59.912000 0.000000
      vertex 14.513179 56.411821 13.900000
    endloop
  endfacet
  facet normal -0.923880 0.382683 0.000000
    outer loop
      vertex 14.513179 56.411821 13.900000
      vertex 15.963000 59.912000 0.000000
      vertex 14.513179 56.411821 0.000000
    endloop
  endfacet
  facet normal -0.382683 0.923880 0.000000
    outer loop
      vertex 14.513179 56.411821 13.900000
      vertex 14.513179 56.411821 0.000000
      vertex 11.013000 54.962000 13.900000
    endloop
  endfacet
  facet normal -0.382683 0.923880 0.000000
    outer loop
      vertex 11.013000 54.962000 13.900000
      vertex 14.513179 56.411821 0.000000
      vertex 11.013000 54.962000 0.000000
    endloop
  endfacet
  facet normal 0.382683 0.923880 -0.000000
    outer loop
      vertex 11.013000 54.962000 13.900000
      vertex 11.013000 54.962000 0.000000
      vertex 7.512821 56.411821 13.900000
    endloop
  endfacet
  facet normal 0.382683 0.923880 -0.000000
    outer loop
      vertex 7.512821 56.411821 13.900000
      vertex 11.013000 54.962000 0.000000
      vertex 7.512821 56.411821 0.000000
    endloop
  endfacet
  facet normal 0.923880 -0.382683 0.000000
    outer loop
      vertex 36.773821 12.749179 0.000000
      vertex 36.773821 12.749179 13.900000
      vertex 35.324000 9.249000 13.900000
    endloop
  endfacet
  facet normal 0.923880 -0.382683 0.000000
    outer loop
      vertex 35.324000 9.249000 0.000000
      vertex 36.773821 12.749179 0.000000
      vertex 35.324000 9.249000 13.900000
    endloop
  endfacet
  facet normal 0.923880 0.382683 0.000000
    outer loop
      vertex 35.324000 9.249000 13.900000
      vertex 36.773821 5.748821 13.900000
      vertex 36.773821 5.748821 0.000000
    endloop
  endfacet
  facet normal 0.923880 0.382683 0.000000
    outer loop
      vertex 35.324000 9.249000 0.000000
      vertex 35.324000 9.249000 13.900000
      vertex 36.773821 5.748821 0.000000
    endloop
  endfacet
  facet normal 0.382683 -0.923880 0.000000
    outer loop
      vertex 40.274000 14.199000 0.000000
      vertex 40.274000 14.199000 13.900000
      vertex 36.773821 12.749179 13.900000
    endloop
  endfacet
  facet normal 0.382683 -0.923880 0.000000
    outer loop
      vertex 36.773821 12.749179 0.000000
      vertex 40.274000 14.199000 0.000000
      vertex 36.773821 12.749179 13.900000
    endloop
  endfacet
  facet normal -0.382683 -0.923880 -0.000000
    outer loop
      vertex 43.774179 12.749179 0.000000
      vertex 43.774179 12.749179 13.900000
      vertex 40.274000 14.199000 13.900000
    endloop
  endfacet
  facet normal -0.382683 -0.923880 -0.000000
    outer loop
      vertex 40.274000 14.199000 0.000000
      vertex 43.774179 12.749179 0.000000
      vertex 40.274000 14.199000 13.900000
    endloop
  endfacet
  facet normal -0.923880 -0.382683 0.000000
    outer loop
      vertex 45.224000 9.249000 13.900000
      vertex 43.774179 12.749179 13.900000
      vertex 45.224000 9.249000 0.000000
    endloop
  endfacet
  facet normal -0.923880 -0.382683 0.000000
    outer loop
      vertex 45.224000 9.249000 0.000000
      vertex 43.774179 12.749179 13.900000
      vertex 43.774179 12.749179 0.000000
    endloop
  endfacet
  facet normal -0.923880 0.382683 0.000000
    outer loop
      vertex 45.224000 9.249000 13.900000
      vertex 45.224000 9.249000 0.000000
      vertex 43.774179 5.748821 13.900000
    endloop
  endfacet
  facet normal -0.923880 0.382683 0.000000
    outer loop
      vertex 43.774179 5.748821 13.900000
      vertex 45.224000 9.249000 0.000000
      vertex 43.774179 5.748821 0.000000
    endloop
  endfacet
  facet normal -0.382683 0.923880 0.000000
    outer loop
      vertex 43.774179 5.748821 13.900000
      vertex 43.774179 5.748821 0.000000
      vertex 40.274000 4.299000 13.900000
    endloop
  endfacet
  facet normal -0.382683 0.923880 0.000000
    outer loop
      vertex 40.274000 4.299000 13.900000
      vertex 43.774179 5.748821 0.000000
      vertex 40.274000 4.299000 0.000000
    endloop
  endfacet
  facet normal 0.382683 0.923880 -0.000000
    outer loop
      vertex 40.274000 4.299000 13.900000
      vertex 40.274000 4.299000 0.000000
      vertex 36.773821 5.748821 13.900000
    endloop
  endfacet
  facet normal 0.382683 0.923880 -0.000000
    outer loop
      vertex 36.773821 5.748821 13.900000
      vertex 40.274000 4.299000 0.000000
      vertex 36.773821 5.748821 0.000000
    endloop
  endfacet
  facet normal 0.866025 -0.500000 0.000000
    outer loop
      vertex 9.794895 43.415084 5.055717
      vertex 24.666825 69.174022 5.055717
      vertex 24.666825 69.174022 8.844283
    endloop
  endfacet
  facet normal 0.866025 -0.500000 0.000000
    outer loop
      vertex 9.794894 43.415084 8.844283
      vertex 9.794895 43.415084 5.055717
      vertex 24.666825 69.174022 8.844283
    endloop
  endfacet
  facet normal 0.612373 -0.353553 0.707107
    outer loop
      vertex 12.114954 42.075703 2.376796
      vertex 26.986868 67.834614 2.376796
      vertex 24.666825 69.174022 5.055717
    endloop
  endfacet
  facet normal 0.612373 -0.353553 0.707107
    outer loop
      vertex 9.794895 43.415084 5.055717
      vertex 12.114954 42.075703 2.376796
      vertex 24.666825 69.174022 5.055717
    endloop
  endfacet
  facet normal -0.000000 0.000000 1.000000
    outer loop
      vertex 15.396013 40.181532 2.376796
      vertex 30.267905 65.940403 2.376796
      vertex 26.986868 67.834614 2.376796
    endloop
  endfacet
  facet normal -0.000000 0.000000 1.000000
    outer loop
      vertex 12.114954 42.075703 2.376796
      vertex 15.396013 40.181532 2.376796
      vertex 26.986868 67.834614 2.376796
    endloop
  endfacet
  facet normal -0.612372 0.353553 0.707107
    outer loop
      vertex 17.716073 38.842150 5.055717
      vertex 32.587948 64.600994 5.055717
      vertex 30.267905 65.940403 2.376796
    endloop
  endfacet
  facet normal -0.612372 0.353553 0.707107
    outer loop
      vertex 15.396013 40.181532 2.376796
      vertex 17.716073 38.842150 5.055717
      vertex 30.267905 65.940403 2.376796
    endloop
  endfacet
  facet normal -0.866025 0.500000 -0.000000
    outer loop
      vertex 32.587948 64.600994 5.055717
      vertex 17.716073 38.842150 5.055717
      vertex 32.587948 64.600995 8.844283
    endloop
  endfacet
  facet normal -0.866025 0.500000 -0.000000
    outer loop
      vertex 32.587948 64.600995 8.844283
      vertex 17.716073 38.842150 5.055717
      vertex 17.716072 38.842150 8.844283
    endloop
  endfacet
  facet normal -0.612373 0.353553 -0.707107
    outer loop
      vertex 32.587948 64.600995 8.844283
      vertex 17.716072 38.842150 8.844283
      vertex 30.267905 65.940403 11.523204
    endloop
  endfacet
  facet normal -0.612373 0.353553 -0.707107
    outer loop
      vertex 30.267905 65.940403 11.523204
      vertex 17.716072 38.842150 8.844283
      vertex 15.396013 40.181531 11.523204
    endloop
  endfacet
  facet normal 0.000000 -0.000000 -1.000000
    outer loop
      vertex 30.267905 65.940403 11.523204
      vertex 15.396013 40.181531 11.523204
      vertex 26.986868 67.834613 11.523204
    endloop
  endfacet
  facet normal 0.000000 -0.000000 -1.000000
    outer loop
      vertex 26.986868 67.834613 11.523204
      vertex 15.396013 40.181531 11.523204
      vertex 12.114954 42.075702 11.523204
    endloop
  endfacet
  facet normal 0.612372 -0.353553 -0.707107
    outer loop
      vertex 26.986868 67.834613 11.523204
      vertex 12.114954 42.075702 11.523204
      vertex 24.666825 69.174022 8.844283
    endloop
  endfacet
  facet normal 0.612372 -0.353553 -0.707107
    outer loop
      vertex 24.666825 69.174022 8.844283
      vertex 12.114954 42.075702 11.523204
      vertex 9.794894 43.415084 8.844283
    endloop
  endfacet
  facet normal -0.000000 1.000000 -0.000000
    outer loop
      vertex 55.351000 16.426796 8.844283
      vertex 55.351000 16.426796 5.055717
      vertex 25.199000 16.426796 8.844283
    endloop
  endfacet
  facet normal -0.000000 1.000000 -0.000000
    outer loop
      vertex 25.199000 16.426796 8.844283
      vertex 55.351000 16.426796 5.055717
      vertex 25.199000 16.426796 5.055717
    endloop
  endfacet
  facet normal -0.000000 0.707107 -0.707107
    outer loop
      vertex 55.351000 19.105717 11.523204
      vertex 55.351000 16.426796 8.844283
      vertex 25.199000 19.105717 11.523204
    endloop
  endfacet
  facet normal -0.000000 0.707107 -0.707107
    outer loop
      vertex 25.199000 19.105717 11.523204
      vertex 55.351000 16.426796 8.844283
      vertex 25.199000 16.426796 8.844283
    endloop
  endfacet
  facet normal -0.000000 -0.000000 -1.000000
    outer loop
      vertex 55.351000 22.894283 11.523204
      vertex 55.351000 19.105717 11.523204
      vertex 25.199000 22.894283 11.523204
    endloop
  endfacet
  facet normal -0.000000 -0.000000 -1.000000
    outer loop
      vertex 25.199000 22.894283 11.523204
      vertex 55.351000 19.105717 11.523204
      vertex 25.199000 19.105717 11.523204
    endloop
  endfacet
  facet normal -0.000000 -0.707107 -0.707107
    outer loop
      vertex 55.351000 25.573204 8.844283
      vertex 55.351000 22.894283 11.523204
      vertex 25.199000 25.573204 8.844283
    endloop
  endfacet
  facet normal -0.000000 -0.707107 -0.707107
    outer loop
      vertex 25.199000 25.573204 8.844283
      vertex 55.351000 22.894283 11.523204
      vertex 25.199000 22.894283 11.523204
    endloop
  endfacet
  facet normal 0.000000 -1.000000 0.000000
    outer loop
      vertex 55.351000 25.573204 5.055717
      vertex 55.351000 25.573204 8.844283
      vertex 25.199000 25.573204 8.844283
    endloop
  endfacet
  facet normal 0.000000 -1.000000 0.000000
    outer loop
      vertex 25.199000 25.573204 5.055717
      vertex 55.351000 25.573204 5.055717
      vertex 25.199000 25.573204 8.844283
    endloop
  endfacet
  facet normal 0.000000 -0.707107 0.707107
    outer loop
      vertex 55.351000 22.894283 2.376796
      vertex 55.351000 25.573204 5.055717
      vertex 25.199000 25.573204 5.055717
    endloop
  endfacet
  facet normal 0.000000 -0.707107 0.707107
    outer loop
      vertex 25.199000 22.894283 2.376796
      vertex 55.351000 22.894283 2.376796
      vertex 25.199000 25.573204 5.055717
    endloop
  endfacet
  facet normal 0.000000 0.000000 1.000000
    outer loop
      vertex 55.351000 19.105717 2.376796
      vertex 55.351000 22.894283 2.376796
      vertex 25.199000 22.894283 2.376796
    endloop
  endfacet
  facet normal 0.000000 0.000000 1.000000
    outer loop
      vertex 25.199000 19.105717 2.376796
      vertex 55.351000 19.105717 2.376796
      vertex 25.199000 22.894283 2.376796
    endloop
  endfacet
  facet normal 0.000000 0.707107 0.707107
    outer loop
      vertex 55.351000 16.426796 5.055717
      vertex 55.351000 19.105717 2.376796
      vertex 25.199000 19.105717 2.376796
    endloop
  endfacet
  facet normal 0.000000 0.707107 0.707107
    outer loop
      vertex 25.199000 16.426796 5.055717
      vertex 55.351000 16.426796 5.055717
      vertex 25.199000 19.105717 2.376796
    endloop
  endfacet
endsolid OpenSCAD_Model
