solid OpenSCAD_Model
  facet normal -1.000000 0.000000 0.000000
    outer loop
      vertex -5.000000 -5.232334 2.893378
      vertex -5.000000 -4.010099 0.000000
      vertex -5.000000 -7.000000 2.250000
    endloop
  endfacet
  facet normal -1.000000 0.000000 -0.000000
    outer loop
      vertex -5.000000 -7.940555 7.584155
      vertex -5.000000 -12.500000 10.000000
      vertex -5.000000 -4.010099 10.000000
    endloop
  endfacet
  facet normal -1.000000 0.000000 -0.000000
    outer loop
      vertex -5.000000 -12.500000 0.000000
      vertex -5.000000 -12.500000 10.000000
      vertex -5.000000 -9.708221 4.522468
    endloop
  endfacet
  facet normal -1.000000 0.000000 0.000000
    outer loop
      vertex -5.000000 -12.500000 0.000000
      vertex -5.000000 -9.708221 4.522468
      vertex -5.000000 -8.767666 2.893378
    endloop
  endfacet
  facet normal -1.000000 -0.000000 0.000000
    outer loop
      vertex -5.000000 -12.500000 0.000000
      vertex -5.000000 -8.767666 2.893378
      vertex -5.000000 -4.010099 0.000000
    endloop
  endfacet
  facet normal -1.000000 0.000000 0.000000
    outer loop
      vertex -5.000000 -8.767666 2.893378
      vertex -5.000000 -7.000000 2.250000
      vertex -5.000000 -4.010099 0.000000
    endloop
  endfacet
  facet normal -1.000000 -0.000000 0.000000
    outer loop
      vertex -5.000000 -6.059445 7.584155
      vertex -5.000000 -4.010099 10.000000
      vertex -5.000000 -4.618430 6.375000
    endloop
  endfacet
  facet normal -1.000000 0.000000 0.000000
    outer loop
      vertex -5.000000 -4.010099 0.000000
      vertex -5.000000 -5.232334 2.893378
      vertex -5.000000 -4.291779 4.522468
    endloop
  endfacet
  facet normal -1.000000 0.000000 0.000000
    outer loop
      vertex -5.000000 -4.010099 0.000000
      vertex -5.000000 -4.291779 4.522468
      vertex -5.000000 -4.010099 10.000000
    endloop
  endfacet
  facet normal -1.000000 0.000000 -0.000000
    outer loop
      vertex -5.000000 -4.291779 4.522468
      vertex -5.000000 -4.618430 6.375000
      vertex -5.000000 -4.010099 10.000000
    endloop
  endfacet
  facet normal -1.000000 -0.000000 0.000000
    outer loop
      vertex -5.000000 -7.940555 7.584155
      vertex -5.000000 -4.010099 10.000000
      vertex -5.000000 -6.059445 7.584155
    endloop
  endfacet
  facet normal -1.000000 0.000000 -0.000000
    outer loop
      vertex -5.000000 -9.381570 6.375000
      vertex -5.000000 -12.500000 10.000000
      vertex -5.000000 -7.940555 7.584155
    endloop
  endfacet
  facet normal -1.000000 0.000000 -0.000000
    outer loop
      vertex -5.000000 -9.708221 4.522468
      vertex -5.000000 -12.500000 10.000000
      vertex -5.000000 -9.381570 6.375000
    endloop
  endfacet
  facet normal 0.000000 -1.000000 0.000000
    outer loop
      vertex -5.000000 -12.500000 10.000000
      vertex -5.000000 -12.500000 0.000000
      vertex 5.000000 -12.500000 0.000000
    endloop
  endfacet
  facet normal 0.000000 -1.000000 0.000000
    outer loop
      vertex 5.000000 -12.500000 10.000000
      vertex -5.000000 -12.500000 10.000000
      vertex 5.000000 -12.500000 0.000000
    endloop
  endfacet
  facet normal -0.000000 -0.000000 -1.000000
    outer loop
      vertex -5.000000 -12.500000 0.000000
      vertex -5.000000 -4.010099 0.000000
      vertex 5.000000 -12.500000 0.000000
    endloop
  endfacet
  facet normal 0.000000 0.000000 -1.000000
    outer loop
      vertex 5.000000 -12.500000 0.000000
      vertex -5.000000 -4.010099 0.000000
      vertex -4.505800 -4.070106 0.000000
    endloop
  endfacet
  facet normal 0.000000 0.000000 -1.000000
    outer loop
      vertex 5.000000 -12.500000 0.000000
      vertex -4.505800 -4.070106 0.000000
      vertex -2.670935 -3.374234 0.000000
    endloop
  endfacet
  facet normal -0.000000 0.000000 -1.000000
    outer loop
      vertex -2.670935 -3.374234 0.000000
      vertex -1.369630 -1.905365 0.000000
      vertex 5.000000 -12.500000 0.000000
    endloop
  endfacet
  facet normal -0.000000 0.000000 -1.000000
    outer loop
      vertex -1.369630 -1.905365 0.000000
      vertex -0.900000 0.000000 0.000000
      vertex 5.000000 -12.500000 0.000000
    endloop
  endfacet
  facet normal -0.000000 -0.000000 -1.000000
    outer loop
      vertex -0.900000 0.000000 0.000000
      vertex -1.369630 1.905365 0.000000
      vertex 5.000000 -12.500000 0.000000
    endloop
  endfacet
  facet normal -0.000000 -0.000000 -1.000000
    outer loop
      vertex -1.369630 1.905365 0.000000
      vertex -5.000000 12.500000 0.000000
      vertex 5.000000 -12.500000 0.000000
    endloop
  endfacet
  facet normal -0.000000 -0.000000 -1.000000
    outer loop
      vertex -2.670935 3.374234 0.000000
      vertex -5.000000 12.500000 0.000000
      vertex -1.369630 1.905365 0.000000
    endloop
  endfacet
  facet normal 0.000000 0.000000 -1.000000
    outer loop
      vertex -4.505800 4.070106 0.000000
      vertex -5.000000 4.010099 0.000000
      vertex -5.000000 12.500000 0.000000
    endloop
  endfacet
  facet normal -0.000000 -0.000000 -1.000000
    outer loop
      vertex -4.505800 4.070106 0.000000
      vertex -5.000000 12.500000 0.000000
      vertex -2.670935 3.374234 0.000000
    endloop
  endfacet
  facet normal 0.000000 0.000000 -1.000000
    outer loop
      vertex 5.000000 -12.500000 0.000000
      vertex -5.000000 12.500000 0.000000
      vertex 5.000000 12.500000 0.000000
    endloop
  endfacet
  facet normal 0.120536 0.992709 -0.000000
    outer loop
      vertex -4.505800 -4.070106 10.000000
      vertex -4.505800 -4.070106 0.000000
      vertex -5.000000 -4.010099 10.000000
    endloop
  endfacet
  facet normal 0.120536 0.992709 -0.000000
    outer loop
      vertex -5.000000 -4.010099 10.000000
      vertex -4.505800 -4.070106 0.000000
      vertex -5.000000 -4.010099 0.000000
    endloop
  endfacet
  facet normal 0.000000 -0.000000 1.000000
    outer loop
      vertex -5.000000 -4.010099 10.000000
      vertex -5.000000 -12.500000 10.000000
      vertex 5.000000 -12.500000 10.000000
    endloop
  endfacet
  facet normal -0.000000 -0.000000 1.000000
    outer loop
      vertex -4.505800 -4.070106 10.000000
      vertex -5.000000 -4.010099 10.000000
      vertex 5.000000 -12.500000 10.000000
    endloop
  endfacet
  facet normal 0.000000 -0.000000 1.000000
    outer loop
      vertex -5.000000 12.500000 10.000000
      vertex -5.000000 4.010099 10.000000
      vertex 5.000000 12.500000 10.000000
    endloop
  endfacet
  facet normal 0.000000 0.000000 1.000000
    outer loop
      vertex -5.000000 4.010099 10.000000
      vertex -4.505800 4.070106 10.000000
      vertex 5.000000 12.500000 10.000000
    endloop
  endfacet
  facet normal 0.000000 0.000000 1.000000
    outer loop
      vertex -4.505800 4.070106 10.000000
      vertex -2.670935 3.374234 10.000000
      vertex 5.000000 12.500000 10.000000
    endloop
  endfacet
  facet normal 0.000000 0.000000 1.000000
    outer loop
      vertex 5.000000 12.500000 10.000000
      vertex -1.369630 1.905365 10.000000
      vertex 5.000000 -12.500000 10.000000
    endloop
  endfacet
  facet normal 0.000000 0.000000 1.000000
    outer loop
      vertex -1.369630 1.905365 10.000000
      vertex -0.900000 0.000000 10.000000
      vertex 5.000000 -12.500000 10.000000
    endloop
  endfacet
  facet normal 0.000000 -0.000000 1.000000
    outer loop
      vertex -0.900000 0.000000 10.000000
      vertex -1.369630 -1.905365 10.000000
      vertex 5.000000 -12.500000 10.000000
    endloop
  endfacet
  facet normal 0.000000 -0.000000 1.000000
    outer loop
      vertex -1.369630 -1.905365 10.000000
      vertex -2.670935 -3.374234 10.000000
      vertex 5.000000 -12.500000 10.000000
    endloop
  endfacet
  facet normal 0.000000 -0.000000 1.000000
    outer loop
      vertex -2.670935 -3.374234 10.000000
      vertex -4.505800 -4.070106 10.000000
      vertex 5.000000 -12.500000 10.000000
    endloop
  endfacet
  facet normal 0.000000 0.000000 1.000000
    outer loop
      vertex -2.670935 3.374234 10.000000
      vertex -1.369630 1.905365 10.000000
      vertex 5.000000 12.500000 10.000000
    endloop
  endfacet
  facet normal 0.000000 0.642788 -0.766044
    outer loop
      vertex 5.000000 -7.940555 7.584155
      vertex 5.000000 -9.381570 6.375000
      vertex -5.000000 -7.940555 7.584155
    endloop
  endfacet
  facet normal 0.000000 0.642788 -0.766044
    outer loop
      vertex -5.000000 -7.940555 7.584155
      vertex 5.000000 -9.381570 6.375000
      vertex -5.000000 -9.381570 6.375000
    endloop
  endfacet
  facet normal 0.000000 0.984808 -0.173648
    outer loop
      vertex 5.000000 -9.381570 6.375000
      vertex 5.000000 -9.708221 4.522468
      vertex -5.000000 -9.381570 6.375000
    endloop
  endfacet
  facet normal 0.000000 0.984808 -0.173648
    outer loop
      vertex -5.000000 -9.381570 6.375000
      vertex 5.000000 -9.708221 4.522468
      vertex -5.000000 -9.708221 4.522468
    endloop
  endfacet
  facet normal 0.000000 0.000000 -1.000000
    outer loop
      vertex 5.000000 -6.059445 7.584155
      vertex 5.000000 -7.940555 7.584155
      vertex -5.000000 -6.059445 7.584155
    endloop
  endfacet
  facet normal 0.000000 0.000000 -1.000000
    outer loop
      vertex -5.000000 -6.059445 7.584155
      vertex 5.000000 -7.940555 7.584155
      vertex -5.000000 -7.940555 7.584155
    endloop
  endfacet
  facet normal 0.000000 -0.642788 -0.766044
    outer loop
      vertex 5.000000 -4.618430 6.375000
      vertex 5.000000 -6.059445 7.584155
      vertex -5.000000 -4.618430 6.375000
    endloop
  endfacet
  facet normal 0.000000 -0.642788 -0.766044
    outer loop
      vertex -5.000000 -4.618430 6.375000
      vertex 5.000000 -6.059445 7.584155
      vertex -5.000000 -6.059445 7.584155
    endloop
  endfacet
  facet normal 0.000000 -0.984808 -0.173648
    outer loop
      vertex -5.000000 -4.291779 4.522468
      vertex 5.000000 -4.291779 4.522468
      vertex 5.000000 -4.618430 6.375000
    endloop
  endfacet
  facet normal 0.000000 -0.984808 -0.173648
    outer loop
      vertex -5.000000 -4.618430 6.375000
      vertex -5.000000 -4.291779 4.522468
      vertex 5.000000 -4.618430 6.375000
    endloop
  endfacet
  facet normal -0.000000 -0.866026 0.500000
    outer loop
      vertex 5.000000 -5.232334 2.893378
      vertex 5.000000 -4.291779 4.522468
      vertex -5.000000 -4.291779 4.522468
    endloop
  endfacet
  facet normal -0.000000 -0.866026 0.500000
    outer loop
      vertex -5.000000 -5.232334 2.893378
      vertex 5.000000 -5.232334 2.893378
      vertex -5.000000 -4.291779 4.522468
    endloop
  endfacet
  facet normal -0.000000 -0.342020 0.939693
    outer loop
      vertex 5.000000 -7.000000 2.250000
      vertex 5.000000 -5.232334 2.893378
      vertex -5.000000 -5.232334 2.893378
    endloop
  endfacet
  facet normal -0.000000 -0.342020 0.939693
    outer loop
      vertex -5.000000 -7.000000 2.250000
      vertex 5.000000 -7.000000 2.250000
      vertex -5.000000 -5.232334 2.893378
    endloop
  endfacet
  facet normal -0.000000 0.342020 0.939693
    outer loop
      vertex 5.000000 -8.767666 2.893378
      vertex 5.000000 -7.000000 2.250000
      vertex -5.000000 -7.000000 2.250000
    endloop
  endfacet
  facet normal -0.000000 0.342020 0.939693
    outer loop
      vertex -5.000000 -8.767666 2.893378
      vertex 5.000000 -8.767666 2.893378
      vertex -5.000000 -7.000000 2.250000
    endloop
  endfacet
  facet normal -0.000000 0.866026 0.500000
    outer loop
      vertex 5.000000 -8.767666 2.893378
      vertex -5.000000 -8.767666 2.893378
      vertex 5.000000 -9.708221 4.522468
    endloop
  endfacet
  facet normal -0.000000 0.866026 0.500000
    outer loop
      vertex 5.000000 -9.708221 4.522468
      vertex -5.000000 -8.767666 2.893378
      vertex -5.000000 -9.708221 4.522468
    endloop
  endfacet
  facet normal 1.000000 0.000000 -0.000000
    outer loop
      vertex 5.000000 -5.232334 2.893378
      vertex 5.000000 -12.500000 0.000000
      vertex 5.000000 12.500000 0.000000
    endloop
  endfacet
  facet normal 1.000000 0.000000 -0.000000
    outer loop
      vertex 5.000000 -12.500000 10.000000
      vertex 5.000000 -12.500000 0.000000
      vertex 5.000000 -9.708221 4.522468
    endloop
  endfacet
  facet normal 1.000000 0.000000 -0.000000
    outer loop
      vertex 5.000000 -4.291779 4.522468
      vertex 5.000000 -5.232334 2.893378
      vertex 5.000000 12.500000 0.000000
    endloop
  endfacet
  facet normal 1.000000 0.000000 0.000000
    outer loop
      vertex 5.000000 -12.500000 10.000000
      vertex 5.000000 -9.708221 4.522468
      vertex 5.000000 -9.381570 6.375000
    endloop
  endfacet
  facet normal 1.000000 0.000000 0.000000
    outer loop
      vertex 5.000000 5.232334 2.893378
      vertex 5.000000 4.291779 4.522468
      vertex 5.000000 -6.059445 7.584155
    endloop
  endfacet
  facet normal 1.000000 0.000000 0.000000
    outer loop
      vertex 5.000000 -12.500000 10.000000
      vertex 5.000000 -9.381570 6.375000
      vertex 5.000000 -7.940555 7.584155
    endloop
  endfacet
  facet normal 1.000000 0.000000 0.000000
    outer loop
      vertex 5.000000 6.059445 7.584155
      vertex 5.000000 7.940555 7.584155
      vertex 5.000000 12.500000 10.000000
    endloop
  endfacet
  facet normal 1.000000 0.000000 0.000000
    outer loop
      vertex 5.000000 12.500000 10.000000
      vertex 5.000000 -12.500000 10.000000
      vertex 5.000000 -6.059445 7.584155
    endloop
  endfacet
  facet normal 1.000000 -0.000000 -0.000000
    outer loop
      vertex 5.000000 5.232334 2.893378
      vertex 5.000000 -4.618430 6.375000
      vertex 5.000000 12.500000 0.000000
    endloop
  endfacet
  facet normal 1.000000 -0.000000 -0.000000
    outer loop
      vertex 5.000000 7.000000 2.250000
      vertex 5.000000 5.232334 2.893378
      vertex 5.000000 12.500000 0.000000
    endloop
  endfacet
  facet normal 1.000000 0.000000 -0.000000
    outer loop
      vertex 5.000000 -7.000000 2.250000
      vertex 5.000000 -12.500000 0.000000
      vertex 5.000000 -5.232334 2.893378
    endloop
  endfacet
  facet normal 1.000000 0.000000 -0.000000
    outer loop
      vertex 5.000000 -8.767666 2.893378
      vertex 5.000000 -12.500000 0.000000
      vertex 5.000000 -7.000000 2.250000
    endloop
  endfacet
  facet normal 1.000000 0.000000 -0.000000
    outer loop
      vertex 5.000000 -9.708221 4.522468
      vertex 5.000000 -12.500000 0.000000
      vertex 5.000000 -8.767666 2.893378
    endloop
  endfacet
  facet normal 1.000000 -0.000000 0.000000
    outer loop
      vertex 5.000000 4.618430 6.375000
      vertex 5.000000 -6.059445 7.584155
      vertex 5.000000 4.291779 4.522468
    endloop
  endfacet
  facet normal 1.000000 0.000000 0.000000
    outer loop
      vertex 5.000000 6.059445 7.584155
      vertex 5.000000 -6.059445 7.584155
      vertex 5.000000 4.618430 6.375000
    endloop
  endfacet
  facet normal 1.000000 0.000000 0.000000
    outer loop
      vertex 5.000000 7.940555 7.584155
      vertex 5.000000 9.381570 6.375000
      vertex 5.000000 12.500000 10.000000
    endloop
  endfacet
  facet normal 1.000000 0.000000 0.000000
    outer loop
      vertex 5.000000 12.500000 10.000000
      vertex 5.000000 -6.059445 7.584155
      vertex 5.000000 6.059445 7.584155
    endloop
  endfacet
  facet normal 1.000000 0.000000 -0.000000
    outer loop
      vertex 5.000000 8.767666 2.893378
      vertex 5.000000 7.000000 2.250000
      vertex 5.000000 12.500000 0.000000
    endloop
  endfacet
  facet normal 1.000000 0.000000 0.000000
    outer loop
      vertex 5.000000 12.500000 10.000000
      vertex 5.000000 9.381570 6.375000
      vertex 5.000000 12.500000 0.000000
    endloop
  endfacet
  facet normal 1.000000 0.000000 0.000000
    outer loop
      vertex 5.000000 9.381570 6.375000
      vertex 5.000000 9.708221 4.522468
      vertex 5.000000 12.500000 0.000000
    endloop
  endfacet
  facet normal 1.000000 0.000000 -0.000000
    outer loop
      vertex 5.000000 9.708221 4.522468
      vertex 5.000000 8.767666 2.893378
      vertex 5.000000 12.500000 0.000000
    endloop
  endfacet
  facet normal 1.000000 0.000000 0.000000
    outer loop
      vertex 5.000000 -4.618430 6.375000
      vertex 5.000000 -4.291779 4.522468
      vertex 5.000000 12.500000 0.000000
    endloop
  endfacet
  facet normal 1.000000 0.000000 0.000000
    outer loop
      vertex 5.000000 -6.059445 7.584155
      vertex 5.000000 -4.618430 6.375000
      vertex 5.000000 5.232334 2.893378
    endloop
  endfacet
  facet normal 1.000000 0.000000 0.000000
    outer loop
      vertex 5.000000 -7.940555 7.584155
      vertex 5.000000 -6.059445 7.584155
      vertex 5.000000 -12.500000 10.000000
    endloop
  endfacet
  facet normal 0.000000 1.000000 0.000000
    outer loop
      vertex -5.000000 12.500000 0.000000
      vertex -5.000000 12.500000 10.000000
      vertex 5.000000 12.500000 0.000000
    endloop
  endfacet
  facet normal 0.000000 1.000000 0.000000
    outer loop
      vertex 5.000000 12.500000 0.000000
      vertex -5.000000 12.500000 10.000000
      vertex 5.000000 12.500000 10.000000
    endloop
  endfacet
  facet normal -1.000000 0.000000 -0.000000
    outer loop
      vertex -5.000000 7.940555 7.584155
      vertex -5.000000 4.010099 10.000000
      vertex -5.000000 12.500000 10.000000
    endloop
  endfacet
  facet normal -1.000000 0.000000 -0.000000
    outer loop
      vertex -5.000000 4.291779 4.522468
      vertex -5.000000 4.010099 10.000000
      vertex -5.000000 4.618430 6.375000
    endloop
  endfacet
  facet normal -1.000000 0.000000 -0.000000
    outer loop
      vertex -5.000000 4.010099 0.000000
      vertex -5.000000 4.010099 10.000000
      vertex -5.000000 4.291779 4.522468
    endloop
  endfacet
  facet normal -1.000000 0.000000 0.000000
    outer loop
      vertex -5.000000 9.708221 4.522468
      vertex -5.000000 12.500000 0.000000
      vertex -5.000000 8.767666 2.893378
    endloop
  endfacet
  facet normal -1.000000 -0.000000 0.000000
    outer loop
      vertex -5.000000 4.010099 0.000000
      vertex -5.000000 5.232334 2.893378
      vertex -5.000000 12.500000 0.000000
    endloop
  endfacet
  facet normal -1.000000 0.000000 0.000000
    outer loop
      vertex -5.000000 5.232334 2.893378
      vertex -5.000000 7.000000 2.250000
      vertex -5.000000 12.500000 0.000000
    endloop
  endfacet
  facet normal -1.000000 -0.000000 0.000000
    outer loop
      vertex -5.000000 7.000000 2.250000
      vertex -5.000000 8.767666 2.893378
      vertex -5.000000 12.500000 0.000000
    endloop
  endfacet
  facet normal -1.000000 -0.000000 -0.000000
    outer loop
      vertex -5.000000 6.059445 7.584155
      vertex -5.000000 4.010099 10.000000
      vertex -5.000000 7.940555 7.584155
    endloop
  endfacet
  facet normal -1.000000 0.000000 0.000000
    outer loop
      vertex -5.000000 12.500000 0.000000
      vertex -5.000000 9.708221 4.522468
      vertex -5.000000 12.500000 10.000000
    endloop
  endfacet
  facet normal -1.000000 0.000000 -0.000000
    outer loop
      vertex -5.000000 9.708221 4.522468
      vertex -5.000000 9.381570 6.375000
      vertex -5.000000 12.500000 10.000000
    endloop
  endfacet
  facet normal -1.000000 0.000000 -0.000000
    outer loop
      vertex -5.000000 9.381570 6.375000
      vertex -5.000000 7.940555 7.584155
      vertex -5.000000 12.500000 10.000000
    endloop
  endfacet
  facet normal -1.000000 0.000000 -0.000000
    outer loop
      vertex -5.000000 4.618430 6.375000
      vertex -5.000000 4.010099 10.000000
      vertex -5.000000 6.059445 7.584155
    endloop
  endfacet
  facet normal -1.000000 0.000000 0.000000
    outer loop
      vertex -5.000000 5.232334 2.893378
      vertex -5.000000 4.010099 0.000000
      vertex -5.000000 4.291779 4.522468
    endloop
  endfacet
  facet normal 0.120536 -0.992709 0.000000
    outer loop
      vertex -4.505800 4.070106 0.000000
      vertex -4.505800 4.070106 10.000000
      vertex -5.000000 4.010099 10.000000
    endloop
  endfacet
  facet normal 0.120536 -0.992709 0.000000
    outer loop
      vertex -5.000000 4.010099 0.000000
      vertex -4.505800 4.070106 0.000000
      vertex -5.000000 4.010099 10.000000
    endloop
  endfacet
  facet normal -0.354605 -0.935016 -0.000000
    outer loop
      vertex -2.670935 3.374234 0.000000
      vertex -2.670935 3.374234 10.000000
      vertex -4.505800 4.070106 10.000000
    endloop
  endfacet
  facet normal -0.354605 -0.935016 -0.000000
    outer loop
      vertex -4.505800 4.070106 0.000000
      vertex -2.670935 3.374234 0.000000
      vertex -4.505800 4.070106 10.000000
    endloop
  endfacet
  facet normal -0.748511 -0.663123 0.000000
    outer loop
      vertex -1.369630 1.905365 10.000000
      vertex -2.670935 3.374234 10.000000
      vertex -1.369630 1.905365 0.000000
    endloop
  endfacet
  facet normal -0.748511 -0.663123 0.000000
    outer loop
      vertex -1.369630 1.905365 0.000000
      vertex -2.670935 3.374234 10.000000
      vertex -2.670935 3.374234 0.000000
    endloop
  endfacet
  facet normal -0.970942 -0.239316 0.000000
    outer loop
      vertex -0.900000 0.000000 10.000000
      vertex -1.369630 1.905365 10.000000
      vertex -0.900000 0.000000 0.000000
    endloop
  endfacet
  facet normal -0.970942 -0.239316 0.000000
    outer loop
      vertex -0.900000 0.000000 0.000000
      vertex -1.369630 1.905365 10.000000
      vertex -1.369630 1.905365 0.000000
    endloop
  endfacet
  facet normal -0.970942 0.239316 0.000000
    outer loop
      vertex -0.900000 0.000000 10.000000
      vertex -0.900000 0.000000 0.000000
      vertex -1.369630 -1.905365 10.000000
    endloop
  endfacet
  facet normal -0.970942 0.239316 0.000000
    outer loop
      vertex -1.369630 -1.905365 10.000000
      vertex -0.900000 0.000000 0.000000
      vertex -1.369630 -1.905365 0.000000
    endloop
  endfacet
  facet normal -0.748511 0.663123 0.000000
    outer loop
      vertex -1.369630 -1.905365 10.000000
      vertex -1.369630 -1.905365 0.000000
      vertex -2.670935 -3.374234 10.000000
    endloop
  endfacet
  facet normal -0.748511 0.663123 0.000000
    outer loop
      vertex -2.670935 -3.374234 10.000000
      vertex -1.369630 -1.905365 0.000000
      vertex -2.670935 -3.374234 0.000000
    endloop
  endfacet
  facet normal -0.354605 0.935016 0.000000
    outer loop
      vertex -2.670935 -3.374234 10.000000
      vertex -2.670935 -3.374234 0.000000
      vertex -4.505800 -4.070106 10.000000
    endloop
  endfacet
  facet normal -0.354605 0.935016 0.000000
    outer loop
      vertex -4.505800 -4.070106 10.000000
      vertex -2.670935 -3.374234 0.000000
      vertex -4.505800 -4.070106 0.000000
    endloop
  endfacet
  facet normal -0.000000 0.866026 0.500000
    outer loop
      vertex 5.000000 5.232334 2.893378
      vertex -5.000000 5.232334 2.893378
      vertex 5.000000 4.291779 4.522468
    endloop
  endfacet
  facet normal -0.000000 0.866026 0.500000
    outer loop
      vertex 5.000000 4.291779 4.522468
      vertex -5.000000 5.232334 2.893378
      vertex -5.000000 4.291779 4.522468
    endloop
  endfacet
  facet normal 0.000000 0.984808 -0.173648
    outer loop
      vertex 5.000000 4.618430 6.375000
      vertex 5.000000 4.291779 4.522468
      vertex -5.000000 4.618430 6.375000
    endloop
  endfacet
  facet normal 0.000000 0.984808 -0.173648
    outer loop
      vertex -5.000000 4.618430 6.375000
      vertex 5.000000 4.291779 4.522468
      vertex -5.000000 4.291779 4.522468
    endloop
  endfacet
  facet normal -0.000000 0.342020 0.939693
    outer loop
      vertex 5.000000 5.232334 2.893378
      vertex 5.000000 7.000000 2.250000
      vertex -5.000000 7.000000 2.250000
    endloop
  endfacet
  facet normal -0.000000 0.342020 0.939693
    outer loop
      vertex -5.000000 5.232334 2.893378
      vertex 5.000000 5.232334 2.893378
      vertex -5.000000 7.000000 2.250000
    endloop
  endfacet
  facet normal -0.000000 -0.342020 0.939693
    outer loop
      vertex 5.000000 7.000000 2.250000
      vertex 5.000000 8.767666 2.893378
      vertex -5.000000 8.767666 2.893378
    endloop
  endfacet
  facet normal -0.000000 -0.342020 0.939693
    outer loop
      vertex -5.000000 7.000000 2.250000
      vertex 5.000000 7.000000 2.250000
      vertex -5.000000 8.767666 2.893378
    endloop
  endfacet
  facet normal -0.000000 -0.866026 0.500000
    outer loop
      vertex 5.000000 8.767666 2.893378
      vertex 5.000000 9.708221 4.522468
      vertex -5.000000 9.708221 4.522468
    endloop
  endfacet
  facet normal -0.000000 -0.866026 0.500000
    outer loop
      vertex -5.000000 8.767666 2.893378
      vertex 5.000000 8.767666 2.893378
      vertex -5.000000 9.708221 4.522468
    endloop
  endfacet
  facet normal 0.000000 -0.984808 -0.173648
    outer loop
      vertex -5.000000 9.708221 4.522468
      vertex 5.000000 9.708221 4.522468
      vertex 5.000000 9.381570 6.375000
    endloop
  endfacet
  facet normal 0.000000 -0.984808 -0.173648
    outer loop
      vertex -5.000000 9.381570 6.375000
      vertex -5.000000 9.708221 4.522468
      vertex 5.000000 9.381570 6.375000
    endloop
  endfacet
  facet normal 0.000000 -0.642788 -0.766044
    outer loop
      vertex 5.000000 9.381570 6.375000
      vertex 5.000000 7.940555 7.584155
      vertex -5.000000 9.381570 6.375000
    endloop
  endfacet
  facet normal 0.000000 -0.642788 -0.766044
    outer loop
      vertex -5.000000 9.381570 6.375000
      vertex 5.000000 7.940555 7.584155
      vertex -5.000000 7.940555 7.584155
    endloop
  endfacet
  facet normal 0.000000 0.000000 -1.000000
    outer loop
      vertex 5.000000 7.940555 7.584155
      vertex 5.000000 6.059445 7.584155
      vertex -5.000000 7.940555 7.584155
    endloop
  endfacet
  facet normal 0.000000 0.000000 -1.000000
    outer loop
      vertex -5.000000 7.940555 7.584155
      vertex 5.000000 6.059445 7.584155
      vertex -5.000000 6.059445 7.584155
    endloop
  endfacet
  facet normal 0.000000 0.642788 -0.766044
    outer loop
      vertex 5.000000 6.059445 7.584155
      vertex 5.000000 4.618430 6.375000
      vertex -5.000000 6.059445 7.584155
    endloop
  endfacet
  facet normal 0.000000 0.642788 -0.766044
    outer loop
      vertex -5.000000 6.059445 7.584155
      vertex 5.000000 4.618430 6.375000
      vertex -5.000000 4.618430 6.375000
    endloop
  endfacet
endsolid OpenSCAD_Model
